<svg width="24" height="24" xmlns="http://www.w3.org/2000/svg"><g fill="#FFF" fill-rule="evenodd"><path d="M3.892 12c0 4.47 3.637 8.108 8.108 8.108 4.47 0 8.108-3.637 8.108-8.108 0-4.47-3.637-8.108-8.108-8.108-4.47 0-8.108 3.637-8.108 8.108zM12 5.597A6.41 6.41 0 0118.403 12 6.41 6.41 0 0112 18.403 6.41 6.41 0 015.597 12 6.41 6.41 0 0112 5.597z"/><path d="M12.147 17.514c.456 0 .826-.383.826-.856V7.99c0-.473-.37-.856-.826-.856-2.764 0-5.012 2.328-5.012 5.19 0 2.86 2.248 5.189 5.012 5.189zm-.827-8.561v6.743c-1.453-.382-2.532-1.749-2.532-3.372 0-1.623 1.079-2.989 2.532-3.371zm1.653-6.596V.887C12.973.397 12.538 0 12 0s-.973.397-.973.887v1.47c0 .49.435.886.973.886s.973-.397.973-.886zm6.387 1.126l-.958.958a.818.818 0 101.156 1.157l.96-.958a.818.818 0 10-1.157-1.157zm3.753 7.544h-1.47c-.49 0-.886.435-.886.973s.397.973.886.973h1.47c.49 0 .887-.435.887-.973s-.397-.973-.887-.973zm-4.711 7.374a.818.818 0 000 1.157l.959.959a.816.816 0 001.156 0 .818.818 0 000-1.157l-.959-.959a.818.818 0 00-1.156 0zm-5.429 4.712v-1.47c0-.49-.435-.886-.973-.886s-.973.397-.973.886v1.47c0 .49.435.887.973.887s.973-.397.973-.887zm-9.49-2.596a.816.816 0 001.157 0l.958-.958a.818.818 0 10-1.157-1.157l-.959.958a.818.818 0 00.001 1.157zM.887 12.973h1.47c.49 0 .886-.435.886-.973s-.397-.973-.886-.973H.887c-.49 0-.887.435-.887.973s.397.973.887.973zm3.753-9.49A.818.818 0 003.483 4.64l.959.958a.816.816 0 001.156 0 .818.818 0 000-1.157l-.958-.958z"/></g></svg>