<svg id="Layer_1" data-name="Layer 1" xmlns="http://www.w3.org/2000/svg" viewBox="0 0 233.78 216.13"><defs><clipPath id="clip-path"><path class="cls-1" d="M121 55.31v10.27H66.75V55.31h16.93a1.76 1.76 0 001.74-1.76V48.3a8.66 8.66 0 014.19-7.61 8.29 8.29 0 018.54 0 8.68 8.68 0 014.19 7.61v5.21a1.75 1.75 0 001.74 1.76H121v.04zm-.7 94.6a4 4 0 013.93-4h6.65s.05 0 0 .06l-10.48 10.76h-.06zm27.93-68.22a1.74 1.74 0 001.77-1.77V50.61a7.48 7.48 0 00-7.39-7.55h-37.94a11.83 11.83 0 00-21.52 0h-38a7.49 7.49 0 00-7.39 7.55v120.28a7.48 7.48 0 007.39 7.55h97.45a7.47 7.47 0 007.39-7.55V97.51a1.74 1.74 0 00-1.72-1.77 1.76 1.76 0 00-1.75 1.77v73.38a4 4 0 01-3.92 4H45.15a4 4 0 01-3.92-4V50.61a4 4 0 013.92-4H82a13.1 13.1 0 000 1.69v3.4H65a1.75 1.75 0 00-1.74 1.77V59h-7.79a4.61 4.61 0 00-4.56 4.66v94.21a4.6 4.6 0 004.56 4.65h62a4.68 4.68 0 00.67 0 1.65 1.65 0 00.42 0 1.74 1.74 0 001.31-.6 5.06 5.06 0 001.22-.93l14.23-14.51a5.19 5.19 0 001.49-3.7v-36.46a1.74 1.74 0 10-3.47 0v36h-9.07a7.48 7.48 0 00-7.39 7.55v9H55.47a1.14 1.14 0 01-1.12-1.13V63.65a1.14 1.14 0 011.12-1.13h7.74v4.82A1.75 1.75 0 0065 69.15h57.77a1.76 1.76 0 001.75-1.77v-4.82h7.75a1.14 1.14 0 011.11 1.13v25.04a1.74 1.74 0 001.72 1.77 1.76 1.76 0 001.75-1.77V63.65a4.64 4.64 0 00-4.56-4.65h-7.75v-5.49a1.76 1.76 0 00-1.75-1.77h-16.95V48.3a15.25 15.25 0 00-.1-1.66h36.86a4 4 0 013.92 4v29.28a1.76 1.76 0 001.75 1.77z"/></clipPath><clipPath id="clip-path-2"><path class="cls-1" d="M36.76 36.32h146.06v143.44H36.76z"/></clipPath><clipPath id="clip-path-3"><path class="cls-1" d="M123.68 84.6h-7.33a1.57 1.57 0 100 3.13h7.33a1.57 1.57 0 100-3.13z"/></clipPath><clipPath id="clip-path-5"><path class="cls-1" d="M111.56 86.17a1.65 1.65 0 00-1.72-1.57H84.07a1.57 1.57 0 100 3.13h25.77a1.65 1.65 0 001.72-1.56z"/></clipPath><clipPath id="clip-path-7"><path class="cls-1" d="M65.56 87.73h10.53a1.57 1.57 0 100-3.13H65.56a1.57 1.57 0 100 3.13z"/></clipPath><clipPath id="clip-path-9"><path class="cls-1" d="M106.94 101.81a1.64 1.64 0 00-1.7-1.57H74.85a1.57 1.57 0 100 3.13h30.39a1.64 1.64 0 001.7-1.56z"/></clipPath><clipPath id="clip-path-11"><path class="cls-1" d="M65.49 103.37h2.86A1.65 1.65 0 0070 102a1.57 1.57 0 00-1.57-1.79h-3a1.57 1.57 0 100 3.13z"/></clipPath><clipPath id="clip-path-13"><path class="cls-1" d="M88.49 117.45a1.67 1.67 0 00-1.76-1.57H65.67a1.58 1.58 0 100 3.13h21.06a1.67 1.67 0 001.76-1.56z"/></clipPath><clipPath id="clip-path-15"><path class="cls-1" d="M65.71 131.52a1.58 1.58 0 100 3.13h8.68a1.58 1.58 0 100-3.13z"/></clipPath><clipPath id="clip-path-17"><path class="cls-1" d="M177.55 74.91l-.42.31-5.6-9.93.39-.31A3.38 3.38 0 01177 66.2l1.61 2.8a4.71 4.71 0 01-1.06 5.91zm-62.39 42.5l-2-3.21 59.35-40.47h.05l2.05 3.22-59.37 40.48-.08-.02zM102.37 119l4.6-9.27h.06l2.24 4 2.26 4-9.13 1.27h-.03zm62.47-48.41l4.55-3.11h.05l2 3.22-59.37 40.47-2-3.22zm16.24-3.27l-1.68-2.72a7.18 7.18 0 00-10.18-2.2l-1.88 1.29-3.29 2.31-3.46 2.37-54.46 37.36-.09.06a1 1 0 00-.15.14 1 1 0 00-.13.16.39.39 0 00-.08.14l-7.82 14.08-2.2 1.51a1.91 1.91 0 00-.75 2.33 1.69 1.69 0 002.52.76l2.31-1.59 15.49-1.91h.33l.13-.06a.36.36 0 00.09 0l.13-.07L179 77.9a7.89 7.89 0 002.08-10.63z"/></clipPath><clipPath id="clip-path-19"><path class="cls-2" d="M137.56 89.28l12.38-8.6h.06l.53 4.24L138 93.59h-.06l-.4-4.24s.01-.06.02-.07z"/></clipPath><clipPath id="clip-path-21"><path class="cls-2" d="M136.32 98.44l12.46-8.71h.06v4.77l-11.91 8.12-.56-4.15a.05.05 0 01-.05-.03z"/></clipPath><clipPath id="clip-path-23"><rect class="cls-1" x="52.13" y="173.75" width="21.54" height="6.26" rx=".03"/></clipPath><clipPath id="clip-path-25"><path class="cls-2" d="M57.52 179.22a2.35 2.35 0 10-2.32-2.35 2.34 2.34 0 002.32 2.35z"/></clipPath><style>.cls-1,.cls-2{fill:none}.cls-2{clip-rule:evenodd}.cls-4{clip-path:url(#clip-path-2)}.cls-5{fill:#3ba07a}.cls-15{fill:#fff}</style></defs><g class="cls-4" clip-path="url(#clip-path)"><path class="cls-5" d="M30.07 28.3h127.61v157.95H30.07z"/></g><g class="cls-4" clip-path="url(#clip-path-3)"><path class="cls-5" d="M106.94 76.78h26.14v18.77h-26.14z"/></g><g class="cls-4" clip-path="url(#clip-path-5)"><path class="cls-5" d="M74.65 76.78h44.59v18.77H74.65z"/></g><g class="cls-4" clip-path="url(#clip-path-7)"><path class="cls-5" d="M56.21 76.78h29.21v18.77H56.21z"/></g><g class="cls-4" clip-path="url(#clip-path-9)"><path class="cls-5" d="M65.43 92.42h49.2v18.77h-49.2z"/></g><g class="cls-4" clip-path="url(#clip-path-11)"><path class="cls-5" d="M56.21 92.42h21.52v18.77H56.21z"/></g><g class="cls-4" clip-path="url(#clip-path-13)"><path class="cls-5" d="M56.21 108.06h39.97v18.77H56.21z"/></g><g class="cls-4" clip-path="url(#clip-path-15)"><path class="cls-5" d="M56.21 123.7h27.67v18.77H56.21z"/></g><g class="cls-4" clip-path="url(#clip-path-17)"><path class="cls-5" d="M86.97 53.33h103.01v79.76H86.97z"/></g><g class="cls-4" clip-path="url(#clip-path-19)"><path class="cls-15" d="M129.85 72.83h28.38v28.61h-28.38z"/></g><g class="cls-4" clip-path="url(#clip-path-21)"><path class="cls-15" d="M128.61 81.87h27.91v28.63h-27.91z"/></g><g class="cls-4" clip-path="url(#clip-path-23)"><path class="cls-15" d="M44.46 165.93h36.9v21.89h-36.9z"/></g><g class="cls-4" clip-path="url(#clip-path-25)"><path class="cls-5" d="M47.53 166.71h19.99v20.33H47.53z"/></g></svg>