<svg id="Layer_1" data-name="Layer 1" xmlns="http://www.w3.org/2000/svg" viewBox="0 0 233.78 216.13"><defs><clipPath id="clip-path"><path class="cls-1" d="M28.39 21.19h178.25v175.94H28.39z"/></clipPath><clipPath id="clip-path-2"><path class="cls-2" d="M70.4 49.38h89.92a5 5 0 015 5v117.91a5 5 0 01-5 5H70.4a5 5 0 01-5-5V54.36a5 5 0 015-4.98z"/></clipPath><clipPath id="clip-path-3"><path class="cls-1" d="M65.56 37.75h119.75v139.52H65.56z"/></clipPath><clipPath id="clip-path-4"><path class="cls-2" d="M78.72 64.33H152a5 5 0 015 5v93a5 5 0 01-5 5H78.72a5 5 0 01-5-5v-93a5 5 0 015-5z"/></clipPath><clipPath id="clip-path-6"><path class="cls-2" d="M116.61 37.75h.83a12.57 12.57 0 016.13 1.33 9.12 9.12 0 013.79 3.77 12.5 12.5 0 011.33 6.15v4.14a12.56 12.56 0 01-1.33 6.12 9 9 0 01-3.79 3.74 12.57 12.57 0 01-6.13 1.34h-.83a12.55 12.55 0 01-6.12-1.34 9 9 0 01-3.78-3.76 12.55 12.55 0 01-1.35-6.12V49a12.5 12.5 0 011.35-6.12 9.1 9.1 0 013.78-3.77 12.56 12.56 0 016.12-1.36z"/></clipPath><clipPath id="clip-path-8"><path class="cls-1" d="M104.64 37.75h26.16v28.34h-26.16z"/></clipPath><clipPath id="clip-path-10"><path class="cls-1" d="M105.36 37.75h23.31v26.58h-23.31z"/></clipPath><clipPath id="clip-path-12"><path class="cls-2" d="M87.05 54.36h58.29A1.66 1.66 0 01147 56v15a1.66 1.66 0 01-1.66 1.66H87.05A1.66 1.66 0 0185.39 71V56a1.66 1.66 0 011.66-1.64z"/></clipPath><clipPath id="clip-path-16"><path class="cls-1" d="M108.7 52.7h16.66v6.64H108.7z"/></clipPath><clipPath id="clip-path-18"><path class="cls-1" d="M146.8 87.58h-7.93a1.67 1.67 0 100 3.32h7.93a1.67 1.67 0 100-3.32z"/></clipPath><clipPath id="clip-path-20"><path class="cls-1" d="M133.68 89.24a1.77 1.77 0 00-1.87-1.66H103.9a1.67 1.67 0 100 3.32h27.91a1.77 1.77 0 001.87-1.66z"/></clipPath><clipPath id="clip-path-22"><path class="cls-1" d="M83.85 90.9h11.4a1.66 1.66 0 100-3.32h-11.4a1.66 1.66 0 100 3.32z"/></clipPath><clipPath id="clip-path-24"><path class="cls-1" d="M128.69 105.85a1.76 1.76 0 00-1.85-1.66H93.9a1.67 1.67 0 100 3.32h32.94a1.76 1.76 0 001.85-1.66z"/></clipPath><clipPath id="clip-path-26"><path class="cls-1" d="M83.78 107.51H87a1.66 1.66 0 100-3.32h-3.22a1.66 1.66 0 100 3.32z"/></clipPath><clipPath id="clip-path-28"><path class="cls-1" d="M108.7 122.46a1.8 1.8 0 00-1.92-1.66H84a1.68 1.68 0 100 3.32h22.8a1.8 1.8 0 001.9-1.66z"/></clipPath><clipPath id="clip-path-30"><path class="cls-1" d="M84 137.41a1.68 1.68 0 100 3.32h9.4a1.68 1.68 0 100-3.32z"/></clipPath><clipPath id="clip-path-33"><path class="cls-2" d="M159.82 146l-23.89 23.49h26.2L159.82 146z"/></clipPath><clipPath id="clip-path-35"><path class="cls-1" d="M181.23 95.4l-.31.25-4.18-7.76.3-.24a2.46 2.46 0 013.79 1l1.17 2.14a3.85 3.85 0 01-.77 4.61zm-49.95 33l-1.65-2.56 46.89-31.61 1.65 2.56zm-10.2 1.42l3.6-7.11 1.76 3.07 1.77 3.08zM170 91l3.62-2.44 1.66 2.56-46.85 31.58-1.64-2.56zm14.3-2l-1.3-2a5.82 5.82 0 00-8.13-1.71l-1.5 1-2.63 1.71-2.74 1.83-43.47 29h-.06a.57.57 0 00-.11.11.4.4 0 00-.11.12l-.07.11-6.26 11-1.92 1.35a1.41 1.41 0 00-.39 1.93 1.35 1.35 0 001.89.41l1.88-1.24 12.36-1.49h.24a.28.28 0 00.11 0h.06l.11-.06h.05l50.36-33.63a6 6 0 001.67-8.44z"/></clipPath><clipPath id="clip-path-37"><path class="cls-2" d="M125.07 121.15l-4.75 8.66 9.92.19-5.17-8.85z"/></clipPath><clipPath id="clip-path-39"><path class="cls-2" d="M126.79 120.14l46.87-31.61 2.12 3.31-47.09 31.85-1.9-3.55z"/></clipPath><clipPath id="clip-path-41"><path class="cls-2" d="M129.52 125.59l47.22-31.75 2.02 3.28-47.06 32.17-2.18-3.7z"/></clipPath><clipPath id="clip-path-43"><path class="cls-2" d="M180.92 95.65l-5.36-8.07q3.49-1.11 4.6.18c.24.27.28.78.54 1.2a9.84 9.84 0 011.75 3.83 5.84 5.84 0 01-1.53 2.86z"/></clipPath><clipPath id="clip-path-45"><path class="cls-1" d="M85.39 162.32h21.65v6.64H85.39z"/></clipPath><clipPath id="clip-path-47"><ellipse class="cls-1" cx="91.21" cy="165.64" rx="2.51" ry="2.49"/></clipPath><style>.cls-1,.cls-10,.cls-2{fill:none}.cls-2{clip-rule:evenodd}.cls-5{fill:#16103e}.cls-7{clip-path:url(#clip-path-3)}.cls-8{fill:#3ba07a}.cls-10{stroke:#16103e;stroke-miterlimit:10;stroke-width:3.05px}.cls-14{clip-path:url(#clip-path-10)}</style></defs><g clip-path="url(#clip-path)"><path class="cls-5" d="M30.57 23.37h173.9v171.58H30.57z"/></g><g class="cls-7" clip-path="url(#clip-path-2)"><path class="cls-8" d="M57.08 41.07h116.57v144.5H57.08z"/></g><g class="cls-7" clip-path="url(#clip-path-4)"><path class="cls-10" d="M78.73 64.33H152a5 5 0 015 5v93a5 5 0 01-5 5H78.73a5 5 0 01-5-5v-93a5 5 0 015-5z"/></g><g clip-path="url(#clip-path-8)"><g class="cls-14" clip-path="url(#clip-path-6)"><path class="cls-8" d="M116.61 37.75h.83a12.57 12.57 0 016.13 1.33 9.12 9.12 0 013.79 3.77 12.5 12.5 0 011.33 6.15v4.14a12.56 12.56 0 01-1.33 6.12 9 9 0 01-3.79 3.74 12.57 12.57 0 01-6.13 1.34h-.83a12.55 12.55 0 01-6.12-1.34 9 9 0 01-3.78-3.76 12.55 12.55 0 01-1.35-6.12V49a12.5 12.5 0 011.35-6.12 9.1 9.1 0 013.78-3.77 12.56 12.56 0 016.12-1.36z"/></g><g class="cls-14"><path class="cls-10" d="M116.61 37.75h.82a12.55 12.55 0 016.13 1.33 9 9 0 013.78 3.77 12.5 12.5 0 011.34 6.15v4.14a12.55 12.55 0 01-1.34 6.12 9 9 0 01-3.78 3.74 12.54 12.54 0 01-6.13 1.34h-.82a12.61 12.61 0 01-6.14-1.34 9.05 9.05 0 01-3.77-3.76 12.55 12.55 0 01-1.34-6.12V49a12.5 12.5 0 011.34-6.12 9.07 9.07 0 013.77-3.77 12.61 12.61 0 016.14-1.36z"/></g></g><g class="cls-7" clip-path="url(#clip-path-12)"><path class="cls-8" d="M87.05 54.36h58.29A1.66 1.66 0 01147 56v15a1.66 1.66 0 01-1.66 1.66H87.05A1.66 1.66 0 0185.39 71V56a1.66 1.66 0 011.66-1.64z"/></g><path d="M87.06 54.36h58.28A1.66 1.66 0 01147 56v15a1.66 1.66 0 01-1.67 1.66H87.06A1.66 1.66 0 0185.39 71V56a1.66 1.66 0 011.67-1.64z" stroke-linejoin="round" stroke-width="3.05" stroke="#16103e" fill="none"/><g class="cls-7" clip-path="url(#clip-path-16)"><path class="cls-8" d="M100.37 44.39h33.31v23.25h-33.31z"/></g><g class="cls-7" clip-path="url(#clip-path-18)"><path class="cls-5" d="M128.69 79.28H157v19.93h-28.31z"/></g><g class="cls-7" clip-path="url(#clip-path-20)"><path class="cls-5" d="M93.72 79.28h48.29v19.93H93.72z"/></g><g class="cls-7" clip-path="url(#clip-path-22)"><path class="cls-5" d="M73.73 79.28h31.64v19.93H73.73z"/></g><g class="cls-7" clip-path="url(#clip-path-24)"><path class="cls-5" d="M83.72 95.88h53.29v19.93H83.72z"/></g><g class="cls-7" clip-path="url(#clip-path-26)"><path class="cls-5" d="M73.73 95.88h23.31v19.93H73.73z"/></g><g class="cls-7" clip-path="url(#clip-path-28)"><path class="cls-5" d="M73.73 112.49h43.3v19.93h-43.3z"/></g><g class="cls-7" clip-path="url(#clip-path-30)"><path class="cls-5" d="M73.73 129.1h29.97v19.93H73.73z"/></g><path d="M137.84 165.64L154.5 149h-15a1.67 1.67 0 00-1.67 1.67z" stroke-width="1.53" stroke-linejoin="round" stroke="#16103e" fill="none"/><g class="cls-7" clip-path="url(#clip-path-33)"><path class="cls-8" d="M127.6 137.7h42.87v40.1H127.6z"/></g><g class="cls-7" clip-path="url(#clip-path-35)"><path class="cls-8" d="M107.04 75.95h86.59v66.44h-86.59z"/></g><g class="cls-7" clip-path="url(#clip-path-37)"><path class="cls-5" d="M112.01 112.85h26.56v25.46h-26.56z"/></g><g class="cls-7" clip-path="url(#clip-path-39)"><path class="cls-5" d="M118.46 80.22h65.64V132h-65.64z"/></g><g class="cls-7" clip-path="url(#clip-path-41)"><path class="cls-5" d="M121.19 85.54h65.9v52.05h-65.9z"/></g><g class="cls-7" clip-path="url(#clip-path-43)"><path class="cls-5" d="M167.25 78.76h23.53v25.19h-23.53z"/></g><g class="cls-7" clip-path="url(#clip-path-45)"><path class="cls-8" d="M77.07 154.02h38.3v23.25h-38.3z"/></g><g class="cls-7" clip-path="url(#clip-path-47)"><path class="cls-5" d="M80.4 154.85h21.65v21.59H80.4z"/></g></svg>