<svg id="Layer_1" data-name="Layer 1" xmlns="http://www.w3.org/2000/svg" viewBox="0 0 233.78 216.13"><defs><clipPath id="clip-path"><path class="cls-1" d="M68.41 53.08h66.7a6.64 6.64 0 016.67 6.61v100.54a6.65 6.65 0 01-6.67 6.62h-66.7a6.64 6.64 0 01-6.67-6.62V59.69a6.64 6.64 0 016.67-6.61z"/></clipPath><clipPath id="clip-path-2"><path class="cls-2" d="M60.75 53.08H164.8v115.09H60.75z"/></clipPath><clipPath id="clip-path-3"><path class="cls-2" d="M60.75 53.08h81.98v115.09H60.75z"/></clipPath><clipPath id="clip-path-4"><path class="cls-2" d="M60.75 53.08h81.37v113.77H60.75z"/></clipPath><clipPath id="clip-path-5"><path class="cls-1" d="M143.11 141.71l-24.01 25.14h23.09l.92-25.14z"/></clipPath><clipPath id="clip-path-8"><path class="cls-2" d="M110.11 82.18h22.67"/></clipPath><clipPath id="clip-path-11"><path class="cls-2" d="M110.11 91.44h16.84"/></clipPath><clipPath id="clip-path-14"><path class="cls-2" d="M110.11 100.7h16.84"/></clipPath><clipPath id="clip-path-17"><path class="cls-2" d="M110.11 109.96h16.84"/></clipPath><clipPath id="clip-path-20"><path class="cls-2" d="M110.11 119.22h16.84"/></clipPath><clipPath id="clip-path-23"><path class="cls-2" d="M110.86 129.81h19.62"/></clipPath><clipPath id="clip-path-26"><path class="cls-1" d="M69.74 80.86h33.35a1.33 1.33 0 110 2.65H69.74a1.33 1.33 0 110-2.65z"/></clipPath><clipPath id="clip-path-28"><path class="cls-1" d="M69.74 90.12h33.51a1.33 1.33 0 110 2.65H69.74a1.33 1.33 0 110-2.65z"/></clipPath><clipPath id="clip-path-30"><path class="cls-1" d="M69.74 99.38h33.51a1.33 1.33 0 110 2.65H69.74a1.33 1.33 0 110-2.65z"/></clipPath><clipPath id="clip-path-32"><path class="cls-1" d="M69.74 108.64h33.51a1.33 1.33 0 110 2.65H69.74a1.33 1.33 0 110-2.65z"/></clipPath><clipPath id="clip-path-34"><path class="cls-1" d="M69.74 117.9h33.51a1.33 1.33 0 110 2.65H69.74a1.33 1.33 0 110-2.65z"/></clipPath><clipPath id="clip-path-36"><path class="cls-1" d="M69.74 127.16h33.51a1.33 1.33 0 110 2.65H69.74a1.33 1.33 0 110-2.65z"/></clipPath><clipPath id="clip-path-38"><path class="cls-1" d="M69.74 136.42h33.51a1.33 1.33 0 110 2.65H69.74a1.33 1.33 0 110-2.65z"/></clipPath><clipPath id="clip-path-40"><path class="cls-1" d="M69.74 145.68h33.51a1.33 1.33 0 110 2.65H69.74a1.33 1.33 0 110-2.65z"/></clipPath><clipPath id="clip-path-42"><path class="cls-2" d="M62.86 70.94h77.59"/></clipPath><clipPath id="clip-path-45"><path class="cls-1" d="M143.54 129.81a20.51 20.51 0 10-20.44-20.51 20.47 20.47 0 0020.44 20.51z"/></clipPath><clipPath id="clip-path-48"><path class="cls-2" d="M75.08 162.88h18.68v5.29H75.08z"/></clipPath><clipPath id="clip-path-50"><path class="cls-1" d="M79.75 166.85a2 2 0 10-2-2 2 2 0 002 2z"/></clipPath><style>.cls-1,.cls-14,.cls-2{fill:none}.cls-1{clip-rule:evenodd}.cls-3{fill:#16103e}.cls-5{clip-path:url(#clip-path-2)}.cls-14{stroke:#fff;stroke-width:1.69px;stroke-linecap:round;stroke-linejoin:bevel}.cls-21{fill:#fff}</style></defs><path class="cls-3" d="M33.11 29.24h159.78V186.9H33.11z"/><g clip-path="url(#clip-path)"><g clip-path="url(#clip-path-3)"><g clip-path="url(#clip-path-4)"><path d="M68.41 53.08h66.7a6.64 6.64 0 016.67 6.61v100.54a6.65 6.65 0 01-6.67 6.62h-66.7a6.65 6.65 0 01-6.67-6.62V59.69a6.64 6.64 0 016.67-6.61z" stroke-width="4.21" stroke-miterlimit="10" stroke="#fff" fill="none"/></g></g></g><g class="cls-5" clip-path="url(#clip-path-5)"><path class="cls-3" d="M112.43 135.1h37.35v38.36h-37.35z"/></g><g class="cls-5" stroke-miterlimit="10" fill="none"><path stroke="#16103e" stroke-width=".84" d="M143.11 141.71l-24.01 25.13h23.09l.92-25.13z"/><path d="M118.74 164.54l20.91-21.92a1.32 1.32 0 00-.05-1.87 1.36 1.36 0 00-.92-.36H119.1a2.66 2.66 0 00-2.67 2.64v20.6a1.33 1.33 0 001.34 1.32 1.38 1.38 0 00.97-.41z" stroke-width="1.69" stroke="#fff"/></g><g clip-path="url(#clip-path-8)"><path d="M103.44 75.57h36.02V88.8h-36.02z"/></g><g class="cls-5"><path class="cls-14" d="M110.11 82.18h22.67"/></g><g clip-path="url(#clip-path-11)"><path d="M103.44 84.83h30.18v13.23h-30.18z"/></g><g class="cls-5"><path class="cls-14" d="M110.11 91.44h16.84"/></g><g clip-path="url(#clip-path-14)"><path d="M103.44 94.09h30.18v13.23h-30.18z"/></g><g class="cls-5"><path class="cls-14" d="M110.11 100.7h16.84"/></g><g clip-path="url(#clip-path-17)"><path d="M103.44 103.35h30.18v13.23h-30.18z"/></g><g class="cls-5"><path class="cls-14" d="M110.11 109.96h16.84"/></g><g clip-path="url(#clip-path-20)"><path d="M103.44 112.61h30.18v13.23h-30.18z"/></g><g class="cls-5"><path class="cls-14" d="M110.11 119.22h16.84"/></g><g clip-path="url(#clip-path-23)"><path d="M104.19 123.19h32.96v13.23h-32.96z"/></g><g class="cls-5"><path class="cls-14" d="M110.86 129.81h19.62"/></g><g class="cls-5" clip-path="url(#clip-path-26)"><path class="cls-21" d="M61.74 74.25h49.36v15.87H61.74z"/></g><g class="cls-5" clip-path="url(#clip-path-28)"><path class="cls-21" d="M61.74 83.51h49.51v15.87H61.74z"/></g><g class="cls-5" clip-path="url(#clip-path-30)"><path class="cls-21" d="M61.74 92.77h49.51v15.87H61.74z"/></g><g class="cls-5" clip-path="url(#clip-path-32)"><path class="cls-21" d="M61.74 102.03h49.51v15.87H61.74z"/></g><g class="cls-5" clip-path="url(#clip-path-34)"><path class="cls-21" d="M61.74 111.29h49.51v15.87H61.74z"/></g><g class="cls-5" clip-path="url(#clip-path-36)"><path class="cls-21" d="M61.74 120.55h49.51v15.87H61.74z"/></g><g class="cls-5" clip-path="url(#clip-path-38)"><path class="cls-21" d="M61.74 129.81h49.51v15.87H61.74z"/></g><g class="cls-5" clip-path="url(#clip-path-40)"><path class="cls-21" d="M61.74 139.07h49.51v15.87H61.74z"/></g><g class="cls-5" clip-path="url(#clip-path-42)"><path class="cls-21" d="M56.19 64.32h90.93v13.23H56.19z"/></g><path stroke-width="2.11" stroke-miterlimit="10" stroke="#fff" fill="none" d="M62.86 70.94h77.58"/><g class="cls-5" clip-path="url(#clip-path-45)"><path class="cls-3" d="M116.43 82.18h54.22v54.24h-54.22z"/></g><g class="cls-5" stroke="#3ba07a" stroke-width="1.69" stroke-miterlimit="10" fill="none"><ellipse cx="143.65" cy="109.96" rx="15.83" ry="15.87"/><path stroke-linecap="round" d="M135.37 109.71l6.03 5.54 10.06-9.26"/></g><g class="cls-5" clip-path="url(#clip-path-48)"><path class="cls-3" d="M68.41 156.26h32.02v18.52H68.41z"/></g><g class="cls-5" clip-path="url(#clip-path-50)"><path class="cls-21" d="M71.08 156.26h17.34v17.2H71.08z"/></g></svg>