<svg id="Layer_1" data-name="Layer 1" xmlns="http://www.w3.org/2000/svg" viewBox="0 0 233.78 216.13"><defs><clipPath id="clip-path"><path class="cls-1" d="M55.38 32.85h82.1a8.23 8.23 0 018.2 8.27v125.69a8.23 8.23 0 01-8.2 8.27h-82.1a8.24 8.24 0 01-8.21-8.27V41.12a8.24 8.24 0 018.21-8.27z"/></clipPath><clipPath id="clip-path-2"><path class="cls-2" d="M47.27 33.4H173.6v143.34H47.27z"/></clipPath><clipPath id="clip-path-3"><path class="cls-2" d="M47.17 32.85h100.28v143.88H47.17z"/></clipPath><clipPath id="clip-path-4"><path class="cls-2" d="M47.17 32.85h98.52v142.23H47.17z"/></clipPath><clipPath id="clip-path-5"><path class="cls-1" d="M147.34 143.66l-29.56 31.42h28.42l1.14-31.42z"/></clipPath><clipPath id="clip-path-8"><path class="cls-1" d="M57 67.58h41a1.66 1.66 0 010 3.31H57a1.66 1.66 0 010-3.31z"/></clipPath><clipPath id="clip-path-10"><path class="cls-1" d="M57 79.16h41.26a1.66 1.66 0 010 3.31H57a1.66 1.66 0 010-3.31z"/></clipPath><clipPath id="clip-path-12"><path class="cls-1" d="M57 90.74h41.26a1.65 1.65 0 010 3.3H57a1.65 1.65 0 010-3.3z"/></clipPath><clipPath id="clip-path-14"><path class="cls-1" d="M57 102.31h41.26a1.66 1.66 0 010 3.31H57a1.66 1.66 0 010-3.31z"/></clipPath><clipPath id="clip-path-16"><path class="cls-1" d="M57 113.89h41.26a1.66 1.66 0 010 3.31H57a1.66 1.66 0 010-3.31z"/></clipPath><clipPath id="clip-path-18"><path class="cls-1" d="M57 125.47h41.26a1.65 1.65 0 010 3.3H57a1.65 1.65 0 010-3.3z"/></clipPath><clipPath id="clip-path-20"><path class="cls-1" d="M57 137h41.26a1.66 1.66 0 010 3.31H57a1.66 1.66 0 010-3.31z"/></clipPath><clipPath id="clip-path-22"><path class="cls-1" d="M57 148.62h41.26a1.66 1.66 0 010 3.31H57a1.66 1.66 0 010-3.31z"/></clipPath><clipPath id="clip-path-24"><path class="cls-2" d="M48.54 55.18h95.5"/></clipPath><clipPath id="clip-path-27"><path class="cls-1" d="M147.86 128.77a25.63 25.63 0 10-25.16-25.63 25.4 25.4 0 0025.16 25.63z"/></clipPath><clipPath id="clip-path-30"><path class="cls-2" d="M63.58 170.12h23v6.61h-23z"/></clipPath><clipPath id="clip-path-32"><path class="cls-1" d="M69.34 175.08a2.48 2.48 0 10-2.47-2.48 2.48 2.48 0 002.47 2.48z"/></clipPath><style>.cls-1,.cls-2{fill:none}.cls-1{clip-rule:evenodd}.cls-4{clip-path:url(#clip-path-2)}.cls-10{fill:#fff}.cls-15{fill:#16103e}</style></defs><g clip-path="url(#clip-path)"><g clip-path="url(#clip-path-3)"><g clip-path="url(#clip-path-4)"><path d="M55.38 32.85h82.1a8.24 8.24 0 018.21 8.27v125.69a8.24 8.24 0 01-8.21 8.27h-82.1a8.23 8.23 0 01-8.21-8.27V41.12a8.23 8.23 0 018.21-8.27z" stroke-width="3.78" stroke-miterlimit="10" stroke="#16103e" fill="none"/></g></g></g><g class="cls-4" clip-path="url(#clip-path-5)"><path class="cls-10" d="M109.56 135.39h45.98v47.96h-45.98z"/></g><g class="cls-4" fill="none"><path stroke="#fff" stroke-width=".76" stroke-miterlimit="10" d="M147.33 143.66l-29.55 31.42h28.42l1.13-31.42z"/><path d="M117.32 172.19l25.74-27.4a1.65 1.65 0 00-.06-2.33 1.61 1.61 0 00-1.13-.46h-24.1a3.3 3.3 0 00-3.29 3.31v25.74a1.65 1.65 0 001.65 1.66 1.64 1.64 0 001.19-.52z" stroke-width="1.51" stroke-miterlimit="10" stroke="#16103e"/><path d="M106.29 69.24h26.27m-26.27 11.57h20.73m-20.73 11.58h20.73m-20.73 11.58h20.73m-20.73 11.57h20.73m-19.81 13.23h24.16" stroke-width="1.51" stroke-linecap="round" stroke-linejoin="bevel" stroke="#16103e"/></g><g class="cls-4" clip-path="url(#clip-path-8)"><path class="cls-15" d="M47.17 59.31h60.76v19.85H47.17z"/></g><g class="cls-4" clip-path="url(#clip-path-10)"><path class="cls-15" d="M47.17 70.89h60.95v19.85H47.17z"/></g><g class="cls-4" clip-path="url(#clip-path-12)"><path class="cls-15" d="M47.17 82.47h60.95v19.85H47.17z"/></g><g class="cls-4" clip-path="url(#clip-path-14)"><path class="cls-15" d="M47.17 94.04h60.95v19.85H47.17z"/></g><g class="cls-4" clip-path="url(#clip-path-16)"><path class="cls-15" d="M47.17 105.62h60.95v19.85H47.17z"/></g><g class="cls-4" clip-path="url(#clip-path-18)"><path class="cls-15" d="M47.17 117.2h60.95v19.85H47.17z"/></g><g class="cls-4" clip-path="url(#clip-path-20)"><path class="cls-15" d="M47.17 128.77h60.95v19.85H47.17z"/></g><g class="cls-4" clip-path="url(#clip-path-22)"><path class="cls-15" d="M47.17 140.35h60.95v19.85H47.17z"/></g><g clip-path="url(#clip-path-24)"><path d="M40.32 46.91h111.93v16.54H40.32z"/></g><path stroke-width="1.89" stroke-miterlimit="10" stroke="#16103e" fill="none" d="M48.54 55.18h95.51"/><g class="cls-4" clip-path="url(#clip-path-27)"><path class="cls-10" d="M114.48 69.24h66.75v67.81h-66.75z"/></g><g class="cls-4" stroke="#3ba07a" stroke-width="1.51" stroke-miterlimit="10" fill="none"><ellipse cx="148" cy="103.97" rx="19.48" ry="19.85"/><path stroke-linecap="round" d="M137.79 103.64l7.42 6.94L157.59 99"/></g><g class="cls-4" clip-path="url(#clip-path-30)"><path class="cls-10" d="M55.38 161.85h39.41V185H55.38z"/></g><g class="cls-4" clip-path="url(#clip-path-32)"><path class="cls-15" d="M58.65 161.85H80v21.5H58.65z"/></g></svg>