<svg id="Layer_1" data-name="Layer 1" xmlns="http://www.w3.org/2000/svg" viewBox="0 0 233.78 216.13"><defs><clipPath id="clip-path"><path class="cls-1" d="M62.52 42.66h79.26a7.92 7.92 0 017.93 7.9v120a7.91 7.91 0 01-7.93 7.89H62.52a7.91 7.91 0 01-7.94-7.89v-120a7.92 7.92 0 017.94-7.9z"/></clipPath><clipPath id="clip-path-2"><path class="cls-2" d="M54.78 42.89h121.13v136.86H54.78z"/></clipPath><clipPath id="clip-path-3"><path class="cls-2" d="M54.58 42.66h95.92V180H54.58z"/></clipPath><clipPath id="clip-path-4"><path class="cls-2" d="M54.58 42.66h95.13v135.76H54.58z"/></clipPath><clipPath id="clip-path-5"><path class="cls-1" d="M151.28 148.43l-28.53 29.99h27.44l1.09-29.99z"/></clipPath><clipPath id="clip-path-8"><path class="cls-1" d="M64.08 75.81h39.66a1.58 1.58 0 010 3.16H64.08a1.58 1.58 0 010-3.16z"/></clipPath><clipPath id="clip-path-10"><path class="cls-1" d="M64.08 86.86h39.83a1.58 1.58 0 110 3.16H64.08a1.58 1.58 0 010-3.16z"/></clipPath><clipPath id="clip-path-12"><path class="cls-1" d="M64.08 97.91h39.83a1.58 1.58 0 110 3.16H64.08a1.58 1.58 0 010-3.16z"/></clipPath><clipPath id="clip-path-14"><path class="cls-1" d="M64.08 109h39.83a1.58 1.58 0 110 3.15H64.08a1.58 1.58 0 010-3.15z"/></clipPath><clipPath id="clip-path-16"><path class="cls-1" d="M64.08 120h39.83a1.58 1.58 0 110 3.15H64.08a1.58 1.58 0 010-3.15z"/></clipPath><clipPath id="clip-path-18"><path class="cls-1" d="M64.08 131.07h39.83a1.58 1.58 0 110 3.15H64.08a1.58 1.58 0 010-3.15z"/></clipPath><clipPath id="clip-path-20"><path class="cls-1" d="M64.08 142.12h39.83a1.58 1.58 0 110 3.15H64.08a1.58 1.58 0 010-3.15z"/></clipPath><clipPath id="clip-path-22"><path class="cls-1" d="M64.08 153.17h39.83a1.58 1.58 0 110 3.15H64.08a1.58 1.58 0 010-3.15z"/></clipPath><clipPath id="clip-path-24"><path class="cls-2" d="M55.91 63.97h92.21"/></clipPath><clipPath id="clip-path-27"><ellipse class="cls-2" cx="151.81" cy="109.75" rx="24.29" ry="24.47"/></clipPath><clipPath id="clip-path-30"><path class="cls-2" d="M70.43 173.69h22.21v6.32H70.43z"/></clipPath><clipPath id="clip-path-32"><path class="cls-1" d="M76 178.42a2.37 2.37 0 10-2.38-2.36 2.37 2.37 0 002.38 2.36z"/></clipPath><style>.cls-1,.cls-12,.cls-2{fill:none}.cls-1{clip-rule:evenodd}.cls-4{clip-path:url(#clip-path-2)}.cls-12{stroke:#3ba07a;stroke-miterlimit:10}.cls-10{fill:#fff}.cls-12{stroke-width:1.45px}.cls-15{fill:#3ba07a}</style></defs><g clip-path="url(#clip-path)"><g clip-path="url(#clip-path-3)"><g clip-path="url(#clip-path-4)"><path d="M62.51 42.66h79.27a7.92 7.92 0 017.93 7.9v120a7.91 7.91 0 01-7.93 7.89H62.51a7.91 7.91 0 01-7.93-7.89v-120a7.92 7.92 0 017.93-7.9z" stroke-width="3.63" stroke-miterlimit="10" stroke="#3ba07a" fill="none"/></g></g></g><g class="cls-4" clip-path="url(#clip-path-5)"><path class="cls-10" d="M114.83 140.54h44.39v45.78h-44.39z"/></g><g class="cls-4"><path stroke="#fff" stroke-width=".73" stroke-miterlimit="10" fill="none" d="M151.29 148.43l-28.54 29.99h27.44l1.1-29.99z"/><path class="cls-12" d="M122.32 175.67l24.86-26.16a1.58 1.58 0 00-.06-2.23 1.64 1.64 0 00-1.09-.43h-23.27a3.16 3.16 0 00-3.17 3.16v24.57a1.58 1.58 0 002.73 1.09z"/><path d="M111.65 77.39h25.37m-25.37 11.05h20.02m-20.02 11.05h20.02m-20.02 11.05h20.02m-20.02 11.05h20.02m-19.12 12.63h23.32" stroke-linecap="round" stroke-linejoin="bevel" stroke-width="1.45" stroke="#3ba07a" fill="none"/></g><g class="cls-4" clip-path="url(#clip-path-8)"><path class="cls-15" d="M54.58 67.92h58.66v18.94H54.58z"/></g><g class="cls-4" clip-path="url(#clip-path-10)"><path class="cls-15" d="M54.58 78.97h58.85v18.94H54.58z"/></g><g class="cls-4" clip-path="url(#clip-path-12)"><path class="cls-15" d="M54.58 90.02h58.85v18.94H54.58z"/></g><g class="cls-4" clip-path="url(#clip-path-14)"><path class="cls-15" d="M54.58 101.07h58.85v18.94H54.58z"/></g><g class="cls-4" clip-path="url(#clip-path-16)"><path class="cls-15" d="M54.58 112.12h58.85v18.94H54.58z"/></g><g class="cls-4" clip-path="url(#clip-path-18)"><path class="cls-15" d="M54.58 123.17h58.85v18.94H54.58z"/></g><g class="cls-4" clip-path="url(#clip-path-20)"><path class="cls-15" d="M54.58 134.22h58.85v18.94H54.58z"/></g><g class="cls-4" clip-path="url(#clip-path-22)"><path class="cls-15" d="M54.58 145.27h58.85v18.94H54.58z"/></g><g clip-path="url(#clip-path-24)"><path d="M47.97 56.08h108.07v15.79H47.97z"/></g><path stroke-width="1.81" stroke-miterlimit="10" stroke="#3ba07a" fill="none" d="M55.91 63.97h92.21"/><g class="cls-4" clip-path="url(#clip-path-27)"><path class="cls-10" d="M119.59 77.39h64.45v64.72h-64.45z"/></g><g class="cls-4"><path class="cls-12" d="M151.93 129.49a18.95 18.95 0 10-18.8-19 18.88 18.88 0 0018.8 19z"/><path stroke-linecap="round" stroke-width="1.45" stroke-miterlimit="10" stroke="#3ba07a" fill="none" d="M142.09 110.24l7.16 6.62 11.96-11.05"/></g><g class="cls-4" clip-path="url(#clip-path-30)"><path class="cls-10" d="M62.52 165.8h38.05v22.1H62.52z"/></g><g class="cls-4" clip-path="url(#clip-path-32)"><path class="cls-15" d="M65.68 165.8h20.61v20.52H65.68z"/></g></svg>