<svg id="Layer_1" data-name="Layer 1" xmlns="http://www.w3.org/2000/svg" viewBox="0 0 233.78 216.13"><defs><clipPath id="clip-path"><path class="cls-1" d="M59.21 31.76h86.35a8.7 8.7 0 018.63 8.77v133.31a8.7 8.7 0 01-8.63 8.77H59.21a8.7 8.7 0 01-8.64-8.77V40.53a8.7 8.7 0 018.64-8.77z"/></clipPath><clipPath id="clip-path-2"><path class="cls-2" d="M50.57 32.79H183.2v150.72H50.57z"/></clipPath><clipPath id="clip-path-3"><path class="cls-2" d="M50.57 31.76h104.64v152.6H50.57z"/></clipPath><clipPath id="clip-path-4"><path class="cls-2" d="M50.57 31.76h103.62v150.85H50.57z"/></clipPath><clipPath id="clip-path-5"><path class="cls-1" d="M155.93 149.28l-31.08 33.33h29.88l1.2-33.33z"/></clipPath><clipPath id="clip-path-8"><path class="cls-2" d="M117.94 70.35h21.8"/></clipPath><clipPath id="clip-path-11"><path class="cls-2" d="M117.94 82.63h21.8"/></clipPath><clipPath id="clip-path-14"><path class="cls-2" d="M117.94 94.91h21.8"/></clipPath><clipPath id="clip-path-17"><path class="cls-2" d="M117.94 107.19h21.8"/></clipPath><clipPath id="clip-path-20"><path class="cls-2" d="M117.94 119.46h21.8"/></clipPath><clipPath id="clip-path-23"><path class="cls-2" d="M114.47 133.5h25.4"/></clipPath><clipPath id="clip-path-26"><path class="cls-1" d="M60.93 68.6h43.18a1.76 1.76 0 010 3.51H60.93a1.76 1.76 0 010-3.51z"/></clipPath><clipPath id="clip-path-28"><path class="cls-1" d="M60.93 80.88h43.38a1.75 1.75 0 010 3.5H60.93a1.75 1.75 0 010-3.5z"/></clipPath><clipPath id="clip-path-30"><path class="cls-1" d="M60.93 93.15h43.38a1.76 1.76 0 010 3.51H60.93a1.76 1.76 0 010-3.51z"/></clipPath><clipPath id="clip-path-32"><path class="cls-1" d="M60.93 105.43h43.38a1.76 1.76 0 010 3.51H60.93a1.76 1.76 0 010-3.51z"/></clipPath><clipPath id="clip-path-34"><path class="cls-1" d="M60.93 117.71h43.38a1.76 1.76 0 010 3.51H60.93a1.76 1.76 0 010-3.51z"/></clipPath><clipPath id="clip-path-36"><path class="cls-1" d="M60.93 130h43.38a1.76 1.76 0 010 3.51H60.93a1.76 1.76 0 010-3.51z"/></clipPath><clipPath id="clip-path-38"><path class="cls-1" d="M60.93 142.27h43.38a1.75 1.75 0 010 3.5H60.93a1.75 1.75 0 010-3.5z"/></clipPath><clipPath id="clip-path-40"><path class="cls-1" d="M60.93 154.54h43.38a1.76 1.76 0 010 3.51H60.93a1.76 1.76 0 010-3.51z"/></clipPath><clipPath id="clip-path-42"><path class="cls-2" d="M52.01 55.44h100.46"/></clipPath><clipPath id="clip-path-45"><path class="cls-1" d="M156.48 133.5c14.63 0 26.46-12.18 26.46-27.19s-11.83-27.19-26.46-27.19S130 91.29 130 106.31s11.87 27.19 26.48 27.19z"/></clipPath><clipPath id="clip-path-48"><path class="cls-2" d="M67.84 177.35h24.18v7.02H67.84z"/></clipPath><clipPath id="clip-path-50"><path class="cls-1" d="M73.88 182.61a2.63 2.63 0 10-2.57-2.61 2.61 2.61 0 002.57 2.61z"/></clipPath><style>.cls-1,.cls-12,.cls-14,.cls-2{fill:none}.cls-1{clip-rule:evenodd}.cls-4{clip-path:url(#clip-path-2)}.cls-12,.cls-14{stroke:#000}.cls-12{stroke-miterlimit:10}.cls-10{fill:#fff}.cls-12,.cls-14{stroke-width:1.6px}.cls-14{stroke-linecap:round;stroke-linejoin:bevel}</style></defs><g clip-path="url(#clip-path)"><g clip-path="url(#clip-path-3)"><g clip-path="url(#clip-path-4)"><path d="M59.21 31.76h86.35a8.7 8.7 0 018.63 8.77v133.31a8.7 8.7 0 01-8.63 8.77H59.21a8.71 8.71 0 01-8.64-8.77V40.53a8.71 8.71 0 018.64-8.77z" stroke-width="3.99" stroke-miterlimit="10" stroke="#000" fill="none"/></g></g></g><g class="cls-4" clip-path="url(#clip-path-5)"><path class="cls-10" d="M116.19 140.51h48.36v50.87h-48.36z"/></g><g class="cls-4"><path stroke="#fff" stroke-width=".8" stroke-miterlimit="10" fill="none" d="M155.93 149.28l-31.08 33.33h29.89l1.19-33.33z"/><path class="cls-12" d="M124.36 179.54l27.08-29a1.78 1.78 0 00-.07-2.48 1.71 1.71 0 00-1.19-.48h-25.35a3.48 3.48 0 00-3.45 3.51v27.3a1.73 1.73 0 001.73 1.75 1.7 1.7 0 001.25-.6z"/></g><g clip-path="url(#clip-path-8)"><path d="M109.3 61.58h39.07v17.54H109.3z"/></g><g class="cls-4"><path class="cls-14" d="M117.94 70.35h21.8"/></g><g clip-path="url(#clip-path-11)"><path d="M109.3 73.86h39.07V91.4H109.3z"/></g><g class="cls-4"><path class="cls-14" d="M117.94 82.63h21.8"/></g><g clip-path="url(#clip-path-14)"><path d="M109.3 86.14h39.07v17.54H109.3z"/></g><g class="cls-4"><path class="cls-14" d="M117.94 94.91h21.8"/></g><g clip-path="url(#clip-path-17)"><path d="M109.3 98.42h39.07v17.54H109.3z"/></g><g class="cls-4"><path class="cls-14" d="M117.94 107.19h21.8"/></g><g clip-path="url(#clip-path-20)"><path d="M109.3 110.69h39.07v17.54H109.3z"/></g><g class="cls-4"><path class="cls-14" d="M117.94 119.46h21.8"/></g><g clip-path="url(#clip-path-23)"><path d="M105.84 124.73h42.67v17.54h-42.67z"/></g><g class="cls-4"><path class="cls-14" d="M114.46 133.5h25.41"/></g><g clip-path="url(#clip-path-26)"><path d="M50.57 59.83h63.9v21.05h-63.9z"/></g><g clip-path="url(#clip-path-28)"><path d="M50.57 72.11h64.1v21.05h-64.1z"/></g><g clip-path="url(#clip-path-30)"><path d="M50.57 84.38h64.1v21.05h-64.1z"/></g><g clip-path="url(#clip-path-32)"><path d="M50.57 96.66h64.1v21.05h-64.1z"/></g><g clip-path="url(#clip-path-34)"><path d="M50.57 108.94h64.1v21.05h-64.1z"/></g><g clip-path="url(#clip-path-36)"><path d="M50.57 121.22h64.1v21.05h-64.1z"/></g><g clip-path="url(#clip-path-38)"><path d="M50.57 133.5h64.1v21.05h-64.1z"/></g><g clip-path="url(#clip-path-40)"><path d="M50.57 145.77h64.1v21.05h-64.1z"/></g><g clip-path="url(#clip-path-42)"><path d="M43.38 46.67H161.1v17.54H43.38z"/></g><path stroke-width="2" stroke-miterlimit="10" stroke="#000" fill="none" d="M52.02 55.44h100.44"/><g class="cls-4" clip-path="url(#clip-path-45)"><path class="cls-10" d="M121.38 70.35h70.2v71.91h-70.2z"/></g><g class="cls-4"><ellipse class="cls-12" cx="156.63" cy="107.19" rx="20.49" ry="21.05"/><path stroke-linecap="round" stroke-width="1.6" stroke-miterlimit="10" stroke="#000" fill="none" d="M145.88 106.84l7.81 7.36 13.03-12.28"/></g><g class="cls-4" clip-path="url(#clip-path-48)"><path class="cls-10" d="M59.21 168.58h41.45v24.56H59.21z"/></g><g clip-path="url(#clip-path-50)"><path d="M62.67 168.58h22.45v22.8H62.67z"/></g></svg>