<svg xmlns="http://www.w3.org/2000/svg"><defs><font id="govsa" horiz-adv-x="1024"><font-face units-per-em="1024" ascent="960" descent="-64"/><glyph horiz-adv-x="512"/><glyph unicode="" glyph-name="24" d="M943.036 671.669L414.09 142.836 232 122.698c-52.774-5.84-97.692 38.666-91.851 91.831l20.143 182.051 528.946 528.833c46.127 46.117 120.655 46.117 166.58 0l87.016-86.998c46.127-46.117 46.127-120.83.201-166.745zm-198.309-62.817l-118.42 118.42-378.701-378.904-14.879-133.096 133.096 14.879 378.904 378.701zm133.387 164.486l-87.436 87.353c-8.298 8.29-21.859 8.29-29.955 0l-62.541-62.482 117.594-117.482 62.541 62.482c8.096 8.493 8.096 21.838-.202 30.129zM58.182 75.636h907.636c32.133 0 58.182-26.049 58.182-58.182s-26.049-58.182-58.182-58.182H58.182C26.049-40.728 0-14.679 0 17.454s26.049 58.182 58.182 58.182z"/><glyph unicode="" glyph-name="alert" horiz-adv-x="1122" d="M558.179 960c51.133 0 98.555-26.699 125.214-70.65l413.409-690.167c25.992-45.012 26.147-100.436.408-145.593s-73.508-73.264-126.018-73.839H144.629C92.655-19.675 44.887 8.433 19.147 53.59s-25.584 100.581.804 146.266l413.153 689.725c26.519 43.719 73.941 70.418 125.074 70.418zm0-97.524a48.762 48.762 0 01-41.633-23.377L104.01 150.415c-8.664-15.004-8.716-33.479-.136-48.531s24.503-24.421 41.291-24.612h825.491c17.325.19 33.247 9.56 41.827 24.612s8.528 33.527.26 47.858L599.869 839.003a48.762 48.762 0 01-41.691 23.473zm0-590.153c26.93 0 48.762-21.831 48.762-48.762s-21.831-48.762-48.762-48.762c-26.93 0-48.762 21.831-48.762 48.762s21.831 48.762 48.762 48.762zm0 390.096c26.93 0 48.762-21.831 48.762-48.762V418.609c0-26.93-21.831-48.762-48.762-48.762s-48.762 21.831-48.762 48.762v195.048c0 26.93 21.831 48.762 48.762 48.762z"/><glyph unicode="" glyph-name="arrowdown" horiz-adv-x="1536" d="M180.48 884.48L768 298.24l587.52 586.24L1536 704 768-64 0 704z"/><glyph unicode="" glyph-name="arrowleft" d="M512 960l90.24-90.24L245.12 512H1024V384H245.12L602.24 26.24 512-64 0 448z"/><glyph unicode="" glyph-name="arrowright" d="M512 960l-90.24-90.24L778.88 512H0V384h778.88L421.76 26.24 512-64l512 512z"/><glyph unicode="" glyph-name="arrowup" horiz-adv-x="1536" d="M180.48 11.52L768 597.76l587.52-586.24L1536 192 768 960 0 192z"/><glyph unicode="" horiz-adv-x="1108" d="M169.806 852.071h768.059V51.415H169.806v800.656z"/><glyph unicode="" horiz-adv-x="1108" d="M504.633 567.418h121.148v-88.646H504.633v88.646z"/><glyph unicode="" horiz-adv-x="1108" d="M368.087 567.418h196.196v-88.646H368.087v88.646z"/><glyph unicode="" horiz-adv-x="1108" d="M283.8 567.418h135.835v-88.646H283.8v88.646z"/><glyph unicode="" horiz-adv-x="1108" d="M321.845 500.377h220.549v-89.783H321.845v89.783z"/><glyph unicode="" horiz-adv-x="1108" d="M283.8 500.283h105.323v-88.646H283.8v88.646z"/><glyph unicode="" horiz-adv-x="1108" d="M283.8 432.815h181.414v-88.646H283.8v88.646z"/><glyph unicode="" horiz-adv-x="1108" d="M291.475 373.165h121.669v-89.783H291.475v89.783z"/><glyph unicode="" horiz-adv-x="1108" d="M253.43 148.684h182.503V43.929H253.43v104.755z"/><glyph unicode="" horiz-adv-x="1108" d="M268.638 148.684h98.88V51.415h-98.88v97.269z"/><glyph unicode="" horiz-adv-x="1108" d="M179.14 714.909h734.515V317.921H179.14v396.988z"/><glyph unicode="" horiz-adv-x="1108" d="M209.841 836.388h622.037V614.75H209.841v221.638z"/><glyph unicode="" horiz-adv-x="1108" d="M332.458 877.276h438.018V648.01H332.458v229.266z"/><glyph unicode="" horiz-adv-x="1108" d="M570.11 669.236h207.993V554.2H570.11v115.036z"/><glyph unicode="" horiz-adv-x="1108" d="M378.463 669.236h307.679V363.832H378.463v305.404z"/><glyph unicode="" horiz-adv-x="1108" d="M646.864 638.771h361.359V158.207H646.864v480.564z"/><glyph unicode="" horiz-adv-x="1108" d="M225.144 669.236h261.674V363.832H225.144v305.404z"/><glyph unicode="" horiz-adv-x="1108" d="M449.105 615.934h161.988V417.132H449.105v198.802z"/><glyph unicode="" horiz-adv-x="1108" d="M257.315 434.758h223.107v-129.06H257.315v129.06z"/><glyph unicode="" horiz-adv-x="1108" d="M275.935 430.162h120.864V310.293H275.935v119.869z"/><glyph unicode="" glyph-name="black_white_regulations" horiz-adv-x="1108" d="M361.311 719.884h218.701V426.419H361.311v293.465zm75.665-319.334h336.485V296.98H436.976v103.57zm176.723 319.334H832.4V426.419H613.699v293.465zm-176.723 94.947h336.485V331.472H436.976v483.359zM267.785 383.257H839.79V81.169H267.785v302.088zm119.016 25.916h109.35V296.98h-109.35v112.193z"/><glyph unicode="" horiz-adv-x="1108" d="M231.588 795.169h610.809V215.867H231.588v579.302z"/><glyph unicode="" horiz-adv-x="1108" d="M285.884 566.992h298.629V261.635H285.884v305.357z"/><glyph unicode="" horiz-adv-x="1108" d="M319.808 467.402h156.113V308.067H319.808v159.335z"/><glyph unicode="" horiz-adv-x="1108" d="M401.252 699.748h169.711V533.78H401.252v165.968z"/><glyph unicode="" horiz-adv-x="1108" d="M469.146 500.614h217.185v-86.277H469.146v86.277z"/><glyph unicode="" horiz-adv-x="1108" d="M469.146 440.869h217.185v-86.277H469.146v86.277z"/><glyph unicode="" horiz-adv-x="1108" d="M297.492 301.481h162.889v-92.957H297.492v92.957z"/><glyph unicode="" horiz-adv-x="1108" d="M311.09 301.481h88.219v-86.277H311.09v86.277z"/><glyph unicode="" horiz-adv-x="1108" d="M236.658 761.956h113.851V560.217H236.658v201.739z"/><glyph unicode="" horiz-adv-x="1108" d="M205.909 836.436h698.602V252.823H205.909v583.613z"/><glyph unicode="" horiz-adv-x="1108" d="M203.208 350.234h80.544v-97.127h-80.544v97.127z"/><glyph unicode="" horiz-adv-x="1108" d="M213.963 164.177h645.206V67.05H213.963v97.127z"/><glyph unicode="" horiz-adv-x="1108" d="M236.658 297.785h168.148V142.43H236.658v155.355z"/><glyph unicode="" horiz-adv-x="1108" d="M349.372 328.013H517.52V142.43H349.372v185.583z"/><glyph unicode="" horiz-adv-x="1108" d="M462.134 378.424h168.148V142.43H462.134v235.994z"/><glyph unicode="" horiz-adv-x="1108" d="M574.848 448.971h168.148V142.43H574.848v306.541z"/><glyph unicode="" horiz-adv-x="1108" d="M687.61 590.066h168.148V142.43H687.61v447.636z"/><glyph unicode="" horiz-adv-x="1108" d="M206.288 171.663H388.46V59.565H206.288v112.098z"/><glyph unicode="" horiz-adv-x="1108" d="M221.496 164.177h98.69V67.05h-98.69v97.127z"/><glyph unicode="" glyph-name="bookmark" horiz-adv-x="819" d="M716.8 86.691V806.4c0 28.277-22.923 51.2-51.2 51.2h-512c-28.277 0-51.2-22.923-51.2-51.2V86.691l277.441 198.172c17.802 12.716 41.717 12.716 59.519 0L716.801 86.691zM409.6 180.28L80.959-54.463C47.071-78.668 0-54.445 0-12.8v819.2C0 891.231 68.769 960 153.6 960h512c84.831 0 153.6-68.769 153.6-153.6V-12.8c0-41.645-47.072-65.869-80.959-41.663L409.6 180.28z"/><glyph unicode="" glyph-name="chat" d="M287.764 132.312a51.203 51.203 0 0040.307-1.621c56.924-27.155 119.93-41.249 183.941-41.091 155.802.057 297.757 82.968 366.773 213.387l.106.198c28.277 52.873 42.902 111.194 42.739 170.414l.087 22.614C910.365 690.556 744.924 846.806 539.137 857.6h-27.232c-63.903.156-126.909-13.937-184.023-41.183-138.442-65.347-225.39-198.134-225.451-342.96-.162-59.078 14.464-117.4 42.741-170.272a51.195 51.195 0 005.35-32.589L116.468 66.911l171.296 65.4zM512.156-12.8C440.5-12.977 369.694 1.318 304.413 29.059L69.492-60.633C32.527-74.746-5.794-43.384.731-4.358l46.007 275.183C15.822 334.326-.162 403.569.032 473.62c.076 184.91 110.395 353.389 283.95 435.31 70.811 33.78 148.974 51.264 228.049 51.07l29.77-.071c259.483-13.52 467.678-210.149 482.23-460.73V473.74c.208-76.039-18.583-151.008-54.79-218.748C882.213 90.627 705.213-12.73 512.157-12.8z"/><glyph unicode="" glyph-name="close" d="M1024 856.869L920.869 960 512 551.131 103.131 960 0 856.869 408.869 448 0 39.131 103.131-64 512 344.869 920.869-64 1024 39.131 615.131 448z"/><glyph unicode="" glyph-name="closed" d="M992 831.314L895.314 928 512 544.686 128.686 928 32 831.314 415.314 448 32 64.686 128.686-32 512 351.314 895.314-32 992 64.686 608.686 448z"/><glyph unicode="" d="M1024 448c0-282.77-229.23-512-512-512S0 165.23 0 448s229.23 512 512 512 512-229.23 512-512z"/><glyph unicode="" d="M832 703.543L767.543 768 512 512.457 256.457 768 192 703.543 447.543 448 192 192.457 256.457 128 512 383.543 767.543 128 832 192.457 576.457 448z"/><glyph unicode="" glyph-name="Color" d="M512 960c31.419 0 56.889-25.47 56.889-56.889l-.057-398.215 398.279-.007c31.419 0 56.889-25.47 56.889-56.889s-25.47-56.889-56.889-56.889l-398.279.057.057-398.279C568.889-38.53 543.419-64 512-64s-56.889 25.47-56.889 56.889l-.007 398.279-398.215-.057C25.47 391.111 0 416.581 0 448s25.47 56.889 56.889 56.889l398.215.007.007 398.215C455.111 934.53 480.581 960 512 960z"/><glyph unicode="" horiz-adv-x="1108" d="M232.915 793.274h757.02V46.298h-757.02v746.976z"/><glyph unicode="" horiz-adv-x="1108" d="M705.235 674.59h114.799V140.251H705.235V674.59z"/><glyph unicode="" horiz-adv-x="1108" d="M353.115 709.034H829.51V128.69H353.115v580.344z"/><glyph unicode="" horiz-adv-x="1108" d="M640.089 530.937h97.553v-68.936h-97.553v68.936z"/><glyph unicode="" horiz-adv-x="1108" d="M519.557 530.937h166.442v-68.936H519.557v68.936z"/><glyph unicode="" horiz-adv-x="1108" d="M450.668 530.937h109.066v-68.936H450.668v68.936z"/><glyph unicode="" horiz-adv-x="1108" d="M485.112 473.466H668.8V404.53H485.112v68.936z"/><glyph unicode="" horiz-adv-x="1108" d="M450.668 473.466h80.355V404.53h-80.355v68.936z"/><glyph unicode="" horiz-adv-x="1108" d="M450.668 415.996h149.244V347.06H450.668v68.936z"/><glyph unicode="" horiz-adv-x="1108" d="M450.668 358.572h103.333v-68.936H450.668v68.936z"/><glyph unicode="" horiz-adv-x="1108" d="M565.467 617.119h384.574V324.081H565.467v293.038z"/><glyph unicode="" horiz-adv-x="1108" d="M713.052 556.711h134.13V432.057h-134.13v124.654z"/><glyph unicode="" horiz-adv-x="1108" d="M716.89 514.97h112.572V403.866H716.89V514.97z"/><glyph unicode="" horiz-adv-x="1108" d="M401.062 209.187H533.06v-80.449H401.062v80.449z"/><glyph unicode="" horiz-adv-x="1108" d="M412.528 203.406h74.622v-74.717h-74.622v74.717z"/><glyph unicode="" horiz-adv-x="1108" d="M148.912 863.158h831.879V42.319H148.912v820.839z"/><glyph unicode="" horiz-adv-x="1108" d="M218.322 600.063h611.993V266.516H218.322v333.547z"/><glyph unicode="" horiz-adv-x="1108" d="M243.812 702.117H762.09V515.871H243.812v186.246z"/><glyph unicode="" horiz-adv-x="1108" d="M346.103 736.466h364.96V543.823h-364.96v192.643z"/><glyph unicode="" horiz-adv-x="1108" d="M544.194 561.686h173.312v-96.653H544.194v96.653z"/><glyph unicode="" horiz-adv-x="1108" d="M384.385 561.686h256.367V305.035H384.385v256.651z"/><glyph unicode="" horiz-adv-x="1108" d="M608.013 536.101h301.093v-403.81H608.013v403.81z"/><glyph unicode="" horiz-adv-x="1108" d="M256.651 561.686h218.038V305.035H256.651v256.651z"/><glyph unicode="" horiz-adv-x="1108" d="M443.277 516.913h134.982V349.855H443.277v167.058z"/><glyph unicode="" horiz-adv-x="1108" d="M283.468 364.637h185.915v-108.45H283.468v108.45z"/><glyph unicode="" horiz-adv-x="1108" d="M298.961 360.799h100.68v-100.68h-100.68v100.68z"/><glyph unicode="" horiz-adv-x="1108" d="M137.873 858.42h831.879V37.581H137.873V858.42z"/><glyph unicode="" horiz-adv-x="1108" d="M391.634 663.313h172.98V436.605h-172.98v226.708z"/><glyph unicode="" horiz-adv-x="1108" d="M451.568 416.611h266.08v-80.023h-266.08v80.023z"/><glyph unicode="" horiz-adv-x="1108" d="M591.194 663.313h172.98V436.605h-172.98v226.708z"/><glyph unicode="" horiz-adv-x="1108" d="M451.568 736.656h266.08V363.263h-266.08v373.393z"/><glyph unicode="" horiz-adv-x="1108" d="M331.747 376.576h452.374V143.188H331.747v233.388z"/><glyph unicode="" horiz-adv-x="1108" d="M419.208 419.928h86.466v-86.703h-86.466v86.703z"/><glyph unicode="" horiz-adv-x="1108" d="M145.737 845.485h831.879V24.646H145.737v820.839z"/><glyph unicode="" horiz-adv-x="1108" d="M265.748 733.008h587.261V160.671H265.748v572.337z"/><glyph unicode="" horiz-adv-x="1108" d="M320.281 506.3h284.558V208.571H320.281V506.3z"/><glyph unicode="" horiz-adv-x="1108" d="M350.556 403.014h145.311V251.117H350.556v151.897z"/><glyph unicode="" horiz-adv-x="1108" d="M429.253 639.956H592.71V475.93H429.253v164.026z"/><glyph unicode="" horiz-adv-x="1108" d="M501.885 439.448h205.861v-78.981H501.885v78.981z"/><glyph unicode="" horiz-adv-x="1108" d="M501.885 366.579h205.861v-78.981H501.885v78.981z"/><glyph unicode="" horiz-adv-x="1108" d="M308.152 245.053h139.247v-85.045H308.152v85.045z"/><glyph unicode="" horiz-adv-x="1108" d="M320.281 238.988h78.696v-78.981h-78.696v78.981z"/><glyph unicode="" horiz-adv-x="1108" d="M176.392 817.769h757.02V70.793h-757.02v746.976z"/><glyph unicode="" horiz-adv-x="1108" d="M335.916 705.86h438.965V336.731H335.916V705.86z"/><glyph unicode="" horiz-adv-x="1108" d="M336.201 361.794H449.01v-104.47H336.201v104.47z"/><glyph unicode="" horiz-adv-x="1108" d="M416.081 384.015H528.89V258.082H416.081v125.933z"/><glyph unicode="" horiz-adv-x="1108" d="M495.678 419.738h112.809V258.034H495.678v161.704z"/><glyph unicode="" horiz-adv-x="1108" d="M575.227 469.818h112.809V258.082H575.227v211.736z"/><glyph unicode="" horiz-adv-x="1108" d="M654.824 569.93h112.809V258.035H654.824V569.93z"/><glyph unicode="" horiz-adv-x="1108" d="M364.817 261.777h405.421v-61.45H364.817v61.45z"/><glyph unicode="" horiz-adv-x="1108" d="M336.201 266.515h104.944v-70.879H336.201v70.879z"/><glyph unicode="" horiz-adv-x="1108" d="M345.724 261.777h62.019v-61.45h-62.019v61.45z"/><glyph unicode="" glyph-name="contact" d="M925.702 218.992l.014 1.155c.586 23.627-16.627 43.942-39.613 47.187a644.414 644.414 0 00-141.084 35.159c-17.009 6.394-36.185 2.304-48.921-10.289l-59.113-59.113c-14.816-14.816-37.705-17.906-55.92-7.549a791.27 791.27 0 00-296.727 296.727c-10.357 18.214-7.267 41.104 7.549 55.92l58.929 58.928c12.777 12.921 16.867 32.096 10.433 49.21-16.985 45.518-28.767 92.812-35.061 140.551-3.27 23.134-23.183 40.259-47.004 40.029H139.591c-13.065-.015-25.524-5.518-34.333-15.167s-13.156-22.557-12.051-34.843c14.506-136.602 60.986-267.866 135.894-383.501 67.798-106.695 158.257-197.153 265.313-265.184C609.184 93.784 739.813 47.314 874.965 32.621c13.053-1.18 25.998 3.198 35.656 12.058S925.753 66.06 925.7 79.355v139.636zm93.09-139.448c.16-39.318-16.264-76.881-45.237-103.461S905.747-63.631 865.75-60.009C715.285-43.66 570.752 7.756 444.127 89.874 325.898 165.002 225.66 265.239 150.753 383.125 68.115 510.688 16.688 655.924.567 807.792c-3.528 39.037 9.514 77.76 35.94 106.709s63.802 45.458 103.042 45.5h139.178c70.088.683 129.827-50.693 139.695-120.522a550.895 550.895 0 0130.005-120.501c19.181-51.028 6.913-108.554-31.602-147.501L383.448 538.1a698.197 698.197 0 01213.448-213.448l33.562 33.561c38.763 38.331 96.288 50.6 147.211 31.458 38.941-14.531 79.4-24.61 121.022-30.101 69.997-9.875 121.538-70.488 120.102-141.097V79.546z"/><glyph unicode="" glyph-name="delete" horiz-adv-x="896" d="M536 128h48c13.255 0 24 10.745 24 24v432c0 13.255-10.745 24-24 24h-48c-13.255 0-24-10.745-24-24V152c0-13.255 10.745-24 24-24zm328 672H699.18l-68 113.4a96 96 0 01-82.36 46.6H347.18a96.004 96.004 0 01-82.32-46.6L196.82 800H32c-17.673 0-32-14.327-32-32v-32c0-17.673 14.327-32 32-32h32V32c0-53.019 42.981-96 96-96h576c53.019 0 96 42.981 96 96v672h32c17.673 0 32 14.327 32 32v32c0 17.673-14.327 32-32 32zm-520.32 58.18A12 12 0 00354 864h188a12 12 0 0010.3-5.82L587.22 800H308.78l34.9 58.18zM736 32H160v672h576V32zm-424 96h48c13.255 0 24 10.745 24 24v432c0 13.255-10.745 24-24 24h-48c-13.255 0-24-10.745-24-24V152c0-13.255 10.745-24 24-24z"/><glyph unicode="" glyph-name="download" d="M972.8 345.6c28.277 0 51.2-22.923 51.2-51.2V89.6C1024 4.769 955.231-64 870.4-64H153.6C68.769-64 0 4.769 0 89.6v204.8c0 28.277 22.923 51.2 51.2 51.2s51.2-22.923 51.2-51.2V89.6c0-28.277 22.923-51.2 51.2-51.2h716.8c28.277 0 51.2 22.923 51.2 51.2v204.8c0 28.277 22.923 51.2 51.2 51.2zM508.365 243.354L512 243.2l-1.651.026-1.383.063-.601.064zm37.017 12.288l-1.805-1.547.627.625 1.178.922zm2.822 2.554l-2.251-2.12-.571-.435 2.821 2.555zm-40.402-14.791l-3.428.359a56.02 56.02 0 00-2.65.472 47.708 47.708 0 00-3.334.793c-.8.224-1.588.461-2.371.718a48.505 48.505 0 00-3.016 1.094l-2.671 1.156a51.923 51.923 0 00-3.126 1.598c-.62.339-1.246.703-1.865 1.081a53.12 53.12 0 00-3.812 2.576l-1.119.851a52.073 52.073 0 00-4.612 4.094l-256 256c-19.995 19.995-19.995 52.413 0 72.408s52.413 19.995 72.408 0l168.596-168.556v490.752c0 28.277 22.923 51.2 51.2 51.2s51.2-22.923 51.2-51.2V418.049l168.596 168.556c19.995 19.995 52.413 19.995 72.408 0s19.995-52.413 0-72.408l-256-256-3.999-3.476-1.725-1.468a52.752 52.752 0 00-3.822-2.574l-1.874-1.095a53.679 53.679 0 00-3.121-1.588l-2.65-1.148a50.911 50.911 0 00-3.051-1.11 54.757 54.757 0 00-2.342-.702 48.232 48.232 0 00-6.017-1.271 48.368 48.368 0 00-3.208-.378 54.705 54.705 0 00-2.691-.158l-.844-.021-.858-.007-4.198.205zm0 0l.102-.051-.319.036.217.015z"/><glyph unicode="" glyph-name="download-white" d="M972.8 345.6c28.277 0 51.2-22.923 51.2-51.2V89.6C1024 4.769 955.231-64 870.4-64H153.6C68.769-64 0 4.769 0 89.6v204.8c0 28.277 22.923 51.2 51.2 51.2s51.2-22.923 51.2-51.2V89.6c0-28.277 22.923-51.2 51.2-51.2h716.8c28.277 0 51.2 22.923 51.2 51.2v204.8c0 28.277 22.923 51.2 51.2 51.2zM508.365 243.354L512 243.2l-1.651.026-1.383.063-.601.064zm37.017 12.288l-1.805-1.547.627.625 1.178.922zm2.822 2.554l-2.251-2.12-.571-.435 2.821 2.555zm-40.402-14.791l-3.428.359a56.02 56.02 0 00-2.65.472 47.708 47.708 0 00-3.334.793c-.8.224-1.588.461-2.371.718a48.505 48.505 0 00-3.016 1.094l-2.671 1.156a51.923 51.923 0 00-3.126 1.598c-.62.339-1.246.703-1.865 1.081a53.12 53.12 0 00-3.812 2.576l-1.119.851a52.073 52.073 0 00-4.612 4.094l-256 256c-19.995 19.995-19.995 52.413 0 72.408s52.413 19.995 72.408 0l168.596-168.556v490.752c0 28.277 22.923 51.2 51.2 51.2s51.2-22.923 51.2-51.2V418.049l168.596 168.556c19.995 19.995 52.413 19.995 72.408 0s19.995-52.413 0-72.408l-256-256-3.999-3.476-1.725-1.468a52.752 52.752 0 00-3.822-2.574l-1.874-1.095a53.679 53.679 0 00-3.121-1.588l-2.65-1.148a50.911 50.911 0 00-3.051-1.11 54.757 54.757 0 00-2.342-.702 48.232 48.232 0 00-6.017-1.271 48.368 48.368 0 00-3.208-.378 54.705 54.705 0 00-2.691-.158l-.844-.021-.858-.007-4.198.205zm0 0l.102-.051-.319.036.217.015z"/><glyph unicode="" glyph-name="edit" d="M883.514 669.105L349.977 135.568l-183.67-20.317c-53.232-5.892-98.54 39.01-92.648 92.648l20.317 183.67 533.537 533.537c46.527 46.527 121.702 46.527 168.025 0l87.771-87.771c46.527-46.527 46.527-121.905.203-168.229zm-200.737-62.781L564.733 724.368 187.235 346.666l-14.832-132.673 132.673 14.832 377.702 377.498zm131.658 161.93l-87.771 87.771c-8.33 8.33-21.943 8.33-30.07 0l-62.781-62.781L751.857 675.2l62.781 62.781c8.127 8.533 8.127 21.943-.203 30.273zM73.143 82.286h877.714c40.396 0 73.143-32.747 73.143-73.143S991.253-64 950.857-64H73.143C32.747-64 0-31.253 0 9.143s32.747 73.143 73.143 73.143z"/><glyph unicode="" d="M1024 448c0-282.77-229.23-512-512-512S0 165.23 0 448s229.23 512 512 512 512-229.23 512-512z"/><glyph unicode="" d="M608 64H416v176h192V64zm0 264H416v440h192V328z"/><glyph unicode="" glyph-name="export" horiz-adv-x="1126" d="M614.4 908.697c0 46.366 56.706 68.854 88.484 35.091l409.6-435.2c18.476-19.631 18.565-50.225.204-69.963l-409.6-440.32C671.409-35.75 614.4-13.334 614.4 33.178v208.789c-205.404-9.178-381.844-74.234-530.926-195.288C50.011 19.507 0 43.321 0 86.426c0 330.506 261.462 592.583 614.4 615.799v206.473zm102.4-256c0-28.277-22.923-51.2-51.2-51.2-281.607 0-499.981-172.018-551.583-407.012C273.562 295.131 457.81 345.497 665.6 345.497c28.277 0 51.2-22.923 51.2-51.2V163.389l288.282 309.903-288.282 306.3V652.697z"/><glyph unicode="" glyph-name="external" horiz-adv-x="1195" d="M1194.667 913.754V667.137c0-41.354-50.023-61.623-78.948-32.702l-68.805 68.809-469.253-469.253c-18.061-18.061-47.341-18.061-65.402 0l-43.601 43.601c-18.061 18.061-18.061 47.343 0 65.402l469.257 469.257-68.797 68.801C840.077 910.093 860.645 960 901.82 960h246.602c25.542 0 46.246-20.705 46.246-46.246zM826.98 395.44l-32.508-30.476c-9.145-8.573-14.282-20.201-14.281-32.326V57.905H130.032v609.524h536.381c12.932.001 25.334 4.817 34.479 13.389l32.508 30.476c30.718 28.8 8.962 78.04-34.479 78.04H97.524C43.662 789.334 0 748.401 0 697.905V27.429C0-23.066 43.662-64 97.524-64h715.175c53.862 0 97.524 40.933 97.524 91.429v335.688c0 40.728-52.525 61.124-83.243 32.324z"/><glyph unicode="" glyph-name="eye" horiz-adv-x="1365" d="M682.667 960c192.273 0 360.601-92.871 503.725-245.536 49.171-52.449 91.873-108.452 128.064-164.489 21.866-33.857 36.875-60.54 44.872-76.533a56.888 56.888 0 000-50.883c-7.997-15.994-23.006-42.676-44.872-76.533-36.191-56.037-78.893-112.04-128.064-164.489C1043.268 28.872 874.94-63.999 682.667-63.999S322.066 28.872 178.942 181.537c-49.171 52.449-91.873 108.452-128.064 164.489-21.866 33.857-36.875 60.54-44.872 76.533a56.888 56.888 0 000 50.883c7.997 15.994 23.006 42.676 44.872 76.533 36.191 56.037 78.893 112.04 128.064 164.489C322.066 867.129 490.394 960 682.667 960zm0-113.778c-156.171 0-297.177-77.796-420.72-209.575-44.162-47.106-82.793-97.77-115.491-148.399-9.281-14.37-17.512-27.867-24.673-40.247 7.161-12.381 15.392-25.877 24.673-40.247 32.698-50.629 71.329-101.293 115.491-148.399C385.49 127.576 526.495 49.78 682.667 49.78s297.177 77.796 420.72 209.575c44.162 47.106 82.793 97.77 115.491 148.399 9.281 14.37 17.512 27.867 24.673 40.247-7.161 12.381-15.392 25.877-24.673 40.247-32.698 50.629-71.329 101.293-115.491 148.399-123.543 131.779-264.548 209.575-420.72 209.575zm0-170.666c125.675 0 227.556-101.88 227.556-227.556s-101.88-227.556-227.556-227.556c-125.675 0-227.556 101.88-227.556 227.556s101.88 227.556 227.556 227.556zm0-113.778c-62.838 0-113.778-50.94-113.778-113.778s50.94-113.778 113.778-113.778c62.838 0 113.778 50.94 113.778 113.778s-50.94 113.778-113.778 113.778z"/><glyph unicode="" glyph-name="favourite" horiz-adv-x="1122" d="M1116.8 642.959a316.948 316.948 0 00-92.878-224.164L592.867-12.26c-19.043-19.043-49.917-19.043-68.96 0L92.852 418.795c-123.802 123.802-123.802 324.525 0 448.327s324.525 123.802 448.327 0l17.208-17.208 17.2 17.2a316.953 316.953 0 00448.336.008 316.955 316.955 0 0092.878-224.164zM903.274 436.067l51.696 51.696a219.43 219.43 0 010 310.392c-41.17 41.189-96.998 64.322-155.212 64.322s-114.042-23.132-155.204-64.314l-51.688-51.688c-19.043-19.043-49.917-19.043-68.96 0l-51.688 51.688c-85.717 85.717-224.691 85.717-310.408 0s-85.717-224.691 0-310.408L558.385 91.18l344.888 344.888z"/><glyph unicode="" horiz-adv-x="1108" d="M144.553 851.218h823.824V38.291H144.553v812.927z"/><glyph unicode="" horiz-adv-x="1108" d="M224.481 588.123h588.73V264.288h-588.73v323.835z"/><glyph unicode="" horiz-adv-x="1108" d="M244.854 691.646h503.732V502.13H244.854v189.516z"/><glyph unicode="" horiz-adv-x="1108" d="M213.537 599.115H825.53V259.029H213.537v340.086z"/><glyph unicode="" horiz-adv-x="1108" d="M339.043 730.023h359.416V525.015H339.043v205.008z"/><glyph unicode="" horiz-adv-x="1108" d="M239.074 703.159h518.278V513.264H239.074v189.895z"/><glyph unicode="" horiz-adv-x="1108" d="M341.318 738.219h364.96V541.786h-364.96v196.433z"/><glyph unicode="" horiz-adv-x="1108" d="M539.409 559.98h173.312v-98.548H539.409v98.548z"/><glyph unicode="" horiz-adv-x="1108" d="M379.647 559.98h256.367V298.306H379.647V559.98z"/><glyph unicode="" horiz-adv-x="1108" d="M619.242 521.698h272.476V135.607H619.242v386.091z"/><glyph unicode="" horiz-adv-x="1108" d="M603.275 533.874h301.093V122.151H603.275v411.723z"/><glyph unicode="" horiz-adv-x="1108" d="M251.866 559.98h218.038V298.306H251.866V559.98z"/><glyph unicode="" horiz-adv-x="1108" d="M438.492 514.307h134.982V343.98H438.492v170.327z"/><glyph unicode="" horiz-adv-x="1108" d="M301.946 603.948h185.915V493.366H301.946v110.582z"/><glyph unicode="" horiz-adv-x="1108" d="M317.439 599.968h100.68v-102.67h-100.68v102.67z"/><glyph unicode="" horiz-adv-x="1108" d="M186.483 851.218h823.919V38.291H186.483v812.927z"/><glyph unicode="" horiz-adv-x="1108" d="M656.34 671.842h174.875V443.049H656.34v228.793z"/><glyph unicode="" horiz-adv-x="1108" d="M425.32 671.842h174.875V443.049H425.32v228.793z"/><glyph unicode="" horiz-adv-x="1108" d="M409.685 687.24h200.271V424.95H409.685v262.29z"/><glyph unicode="" horiz-adv-x="1108" d="M479.001 401.829h308.105v-92.578H479.001v92.578z"/><glyph unicode="" horiz-adv-x="1108" d="M640.752 687.24h200.271V424.95H640.752v262.29z"/><glyph unicode="" horiz-adv-x="1108" d="M479.001 772.095h308.105V340.142H479.001v431.953z"/><glyph unicode="" horiz-adv-x="1108" d="M340.275 342.511h508.328V94.625H340.275v247.886z"/><glyph unicode="" horiz-adv-x="1108" d="M340.275 355.54h523.774V85.575H340.275V355.54z"/><glyph unicode="" horiz-adv-x="1108" d="M441.524 405.714h100.112V305.413H441.524v100.301z"/><glyph unicode="" horiz-adv-x="1108" d="M155.261 853.208H979.18V40.281H155.261v812.927z"/><glyph unicode="" horiz-adv-x="1108" d="M200.318 868.464h652.786V307.972H200.318v560.492z"/><glyph unicode="" horiz-adv-x="1108" d="M201.218 347.154h167.769V188.529H201.218v158.625z"/><glyph unicode="" horiz-adv-x="1108" d="M214.958 379.703h272.381V188.482H214.958v191.221z"/><glyph unicode="" horiz-adv-x="1108" d="M437.876 434.047h167.769V188.53H437.876v245.517z"/><glyph unicode="" horiz-adv-x="1108" d="M456.164 417.749h134.793v-215.29H456.164v215.29z"/><glyph unicode="" horiz-adv-x="1108" d="M556.228 510.043h167.769V188.482H556.228v321.561z"/><glyph unicode="" horiz-adv-x="1108" d="M569.542 488.343h141.852V201.322H569.542v287.021z"/><glyph unicode="" horiz-adv-x="1108" d="M674.581 662.082H842.35V188.483H674.581v473.599z"/><glyph unicode="" horiz-adv-x="1108" d="M328.383 359.188h141.852V201.322H328.383v157.866z"/><glyph unicode="" horiz-adv-x="1108" d="M690.168 647.347H832.02V202.459H690.168v444.888z"/><glyph unicode="" horiz-adv-x="1108" d="M193.685 208.523h645.49v-93.289h-645.49v93.289z"/><glyph unicode="" horiz-adv-x="1108" d="M193.685 215.678h170.232V115.235H193.685v100.443z"/><glyph unicode="" horiz-adv-x="1108" d="M207.851 211.366h92.199v-93.289h-92.199v93.289z"/><glyph unicode="" glyph-name="home" horiz-adv-x="931" d="M325.818-64H139.636C62.517-64 0-1.483 0 75.636v512a46.547 46.547 0 0017.969 36.741l418.909 325.818c16.808 13.073 40.344 13.073 57.152 0l418.909-325.818a46.544 46.544 0 0017.969-36.741v-512C930.908-1.483 868.391-64 791.272-64H325.817zm139.637 918.488L93.091 564.872V75.637c0-25.706 20.839-46.545 46.545-46.545h139.636v418.909c0 25.706 20.839 46.545 46.545 46.545H605.09c25.706 0 46.545-20.839 46.545-46.545V29.092h139.636c25.706 0 46.545 20.839 46.545 46.545v489.235L465.452 854.488zm93.09-453.033H372.363V29.091h186.182v372.364z"/><glyph unicode="" glyph-name="image" d="M870.4 960c84.831 0 153.6-68.769 153.6-153.6V89.6C1024 4.769 955.231-64 870.4-64H153.6C68.769-64 0 4.769 0 89.6v716.8C0 891.231 68.769 960 153.6 960h716.8zM680.596 441.788L497.004 258.196c-17.258-17.258-44.297-19.935-64.605-6.397l-83.751 55.834c-20.307 13.538-47.347 10.861-64.605-6.397L102.399 119.603V89.6c0-28.277 22.923-51.2 51.2-51.2h716.8c28.277 0 51.2 22.923 51.2 51.2v183.552L753.003 441.788c-19.995 19.995-52.413 19.995-72.408 0zM870.4 857.6H153.6c-28.277 0-51.2-22.923-51.2-51.2V264.499l109.236 109.145c51.773 51.773 132.892 59.805 193.814 19.191l48.827-32.551 153.912 153.912c59.985 59.985 157.239 59.985 217.223 0l96.188-96.148V806.4c0 28.277-22.923 51.2-51.2 51.2zM281.6 755.2c42.415 0 76.8-34.385 76.8-76.8s-34.385-76.8-76.8-76.8-76.8 34.385-76.8 76.8 34.385 76.8 76.8 76.8z"/><glyph unicode="" d="M1024 448c0-282.77-229.23-512-512-512S0 165.23 0 448s229.23 512 512 512 512-229.23 512-512z"/><glyph unicode="" d="M608 832H416V656h192v176zm0-264H416V128h192v440z"/><glyph unicode="" glyph-name="info" d="M512 960c282.77 0 512-229.23 512-512S794.77-64 512-64 0 165.23 0 448s229.23 512 512 512zm0-93.091C280.643 866.909 93.091 679.357 93.091 448S280.643 29.091 512 29.091 930.909 216.643 930.909 448 743.357 866.909 512 866.909zm0-372.364c25.706 0 46.545-20.839 46.545-46.545V261.818c0-25.706-20.839-46.545-46.545-46.545s-46.545 20.839-46.545 46.545V448c0 25.706 20.839 46.545 46.545 46.545zm0 186.182c25.706 0 46.545-20.839 46.545-46.545S537.706 587.637 512 587.637c-25.706 0-46.545 20.839-46.545 46.545s20.839 46.545 46.545 46.545z"/><glyph unicode="" d="M1024 448c0-282.77-229.23-512-512-512S0 165.23 0 448s229.23 512 512 512 512-229.23 512-512z"/><glyph unicode="" d="M608 832H416V656h192v176zm0-264H416V128h192v440z"/><glyph unicode="" glyph-name="left" horiz-adv-x="512" d="M148.293 448L496.592 41.652c23.003-26.837 19.895-67.24-6.942-90.243s-67.24-19.895-90.243 6.942L15.408 406.35c-20.543 23.967-20.543 59.334 0 83.301L399.407 937.65c23.003 26.837 63.406 29.945 90.243 6.942s29.945-63.406 6.942-90.243L148.293 448.001z"/><glyph unicode="" glyph-name="lock" horiz-adv-x="931" d="M465.455 960c154.238 0 279.273-125.035 279.273-279.273v-93.091h46.545c77.119 0 139.636-62.517 139.636-139.636V75.636C930.909-1.483 868.392-64 791.273-64H139.637C62.518-64 .001-1.483.001 75.636V448c0 77.119 62.517 139.636 139.636 139.636h46.545v93.091C186.182 834.965 311.217 960 465.455 960zm325.818-465.455H139.637c-25.706 0-46.545-20.839-46.545-46.545V75.636c0-25.706 20.839-46.545 46.545-46.545h651.636c25.706 0 46.545 20.839 46.545 46.545V448c0 25.706-20.839 46.545-46.545 46.545zM465.455 866.909c-102.825 0-186.182-83.356-186.182-186.182v-93.091h372.364v93.091c0 102.825-83.356 186.182-186.182 186.182z"/><glyph unicode="" glyph-name="mail" horiz-adv-x="1126" d="M972.8 960c84.597 0 153.6-69.003 153.6-153.6V89.6c0-84.597-69.003-153.6-153.6-153.6H153.6C69.003-64 0 5.003 0 89.6v716.8C0 890.997 69.003 960 153.6 960h819.2zm51.2-167.219L594.634 458.785c-18.489-14.38-44.379-14.38-62.868 0L102.4 792.729V89.599c0-28.043 23.157-51.2 51.2-51.2h819.2c28.043 0 51.2 23.157 51.2 51.2V792.78zM940.544 857.6H185.805L563.2 564.063 940.544 857.6z"/><glyph unicode="" glyph-name="menu" horiz-adv-x="1463" d="M1389.714 82.286c40.396 0 73.143-32.747 73.143-73.143S1430.11-64 1389.714-64H73.143C32.747-64 0-31.253 0 9.143s32.747 73.143 73.143 73.143h1316.571zm0 438.857c40.396 0 73.143-32.747 73.143-73.143s-32.747-73.143-73.143-73.143H73.143C32.747 374.857 0 407.604 0 448s32.747 73.143 73.143 73.143h1316.571zm0 438.857c40.396 0 73.143-32.747 73.143-73.143s-32.747-73.143-73.143-73.143H73.143C32.747 813.714 0 846.461 0 886.857S32.747 960 73.143 960h1316.571z"/><glyph unicode="" horiz-adv-x="1108" d="M142.468 825.918H747.07V77.568H142.468v748.35z"/><glyph unicode="" horiz-adv-x="1108" d="M506.67 596.225h123.848v-88.93H506.67v88.93z"/><glyph unicode="" horiz-adv-x="1108" d="M353.683 596.225h211.262v-88.93H353.683v88.93z"/><glyph unicode="" horiz-adv-x="1108" d="M266.317 596.225h138.394v-88.93H266.317v88.93z"/><glyph unicode="" horiz-adv-x="1108" d="M310 522.124h233.104v-88.93H310v88.93z"/><glyph unicode="" horiz-adv-x="1108" d="M266.317 522.124h101.959v-88.93H266.317v88.93z"/><glyph unicode="" horiz-adv-x="1108" d="M266.317 448.024H455.69v-88.93H266.317v88.93z"/><glyph unicode="" horiz-adv-x="1108" d="M266.317 373.923h131.097v-88.93H266.317v88.93z"/><glyph unicode="" horiz-adv-x="1108" d="M412.054 707.328h488.05V329.434h-488.05v377.894z"/><glyph unicode="" horiz-adv-x="1108" d="M615.215 614.94h134.461V479.389H615.215V614.94z"/><glyph unicode="" horiz-adv-x="1108" d="M609.34 572.109h132.234V436.463H609.34v135.646z"/><glyph unicode="" horiz-adv-x="1108" d="M210.647 173.842h174.828V70.13H210.647v103.712z"/><glyph unicode="" horiz-adv-x="1108" d="M225.192 170.146h94.71V73.825h-94.71v96.321z"/><glyph unicode="" horiz-adv-x="1108" d="M252.387 571.588h642.6v-353.21h-642.6v353.21z"/><glyph unicode="" horiz-adv-x="1108" d="M279.109 679.612h544.194V482.421H279.109v197.191z"/><glyph unicode="" horiz-adv-x="1108" d="M386.422 715.999h383.2V512.033h-383.2v203.966z"/><glyph unicode="" horiz-adv-x="1108" d="M594.463 530.937h181.982V428.599H594.463v102.338z"/><glyph unicode="" horiz-adv-x="1108" d="M426.742 530.937h269.159V259.219H426.742v271.718z"/><glyph unicode="" horiz-adv-x="1108" d="M661.504 503.836h316.112V76.241H661.504v427.595z"/><glyph unicode="" horiz-adv-x="1108" d="M292.565 530.937H521.5V259.219H292.565v271.718z"/><glyph unicode="" horiz-adv-x="1108" d="M488.571 483.51h141.71V306.645h-141.71V483.51z"/><glyph unicode="" horiz-adv-x="1108" d="M320.755 322.28h195.201V207.434H320.755V322.28z"/><glyph unicode="" horiz-adv-x="1108" d="M337.053 318.206h105.75v-106.65h-105.75v106.65z"/><glyph unicode="" glyph-name="Monochrome_regulations" horiz-adv-x="1108" d="M317.296 723.958h213.916V443.901H317.296v280.057zM391.35 419.17h329.094v-98.832H391.35v98.832zm172.79 304.788h213.916V443.901H564.14v280.057zm-172.79 90.589h329.094V353.313H391.35v461.234zM243.243 369.754H802.74V81.453H243.243v288.301zm99.875 53.538H450.1V316.216H343.118v107.076z"/><glyph unicode="" horiz-adv-x="1108" d="M158.672 793.89h734.373V75.105H158.672V793.89z"/><glyph unicode="" horiz-adv-x="1108" d="M223.96 510.753h359.085V131.864H223.96v378.889z"/><glyph unicode="" horiz-adv-x="1108" d="M264.753 387.237h187.715V189.572H264.753v197.665z"/><glyph unicode="" horiz-adv-x="1108" d="M362.685 675.49h204.014V469.581H362.685V675.49z"/><glyph unicode="" horiz-adv-x="1108" d="M444.272 428.409h261.152V321.333H444.272v107.076z"/><glyph unicode="" horiz-adv-x="1108" d="M444.272 354.261h261.152V247.185H444.272v107.076z"/><glyph unicode="" horiz-adv-x="1108" d="M229.788 181.281h195.864V65.961H229.788v115.32z"/><glyph unicode="" horiz-adv-x="1108" d="M246.086 181.281h106.081V74.205H246.086v107.076z"/><glyph unicode="" horiz-adv-x="1108" d="M263.237 694.583h96.606V520.276h-96.606v174.307z"/><glyph unicode="" horiz-adv-x="1108" d="M236.989 758.971h592.71V254.765h-592.71v504.206z"/><glyph unicode="" horiz-adv-x="1108" d="M237.937 289.968H390.26V147.263H237.937v142.705z"/><glyph unicode="" horiz-adv-x="1108" d="M345.345 319.295h152.323V147.262H345.345v172.033z"/><glyph unicode="" horiz-adv-x="1108" d="M452.753 368.143h152.323v-220.88H452.753v220.88z"/><glyph unicode="" horiz-adv-x="1108" d="M560.161 436.511h152.323V147.263H560.161v289.248z"/><glyph unicode="" horiz-adv-x="1108" d="M667.711 573.293h152.323V147.262H667.711v426.031z"/><glyph unicode="" horiz-adv-x="1108" d="M231.019 165.266h586.077V81.358H231.019v83.908z"/><glyph unicode="" horiz-adv-x="1108" d="M218.085 168.488h154.55V78.136h-154.55v90.352z"/><glyph unicode="" horiz-adv-x="1108" d="M231.019 164.603h83.719V80.695h-83.719v83.908z"/><glyph unicode="" glyph-name="notification" horiz-adv-x="977" d="M93.091 261.818c0-25.707 20.839-46.546 46.546-46.546H797.54a46.547 46.547 0 0129.062 10.189c20.079 16.051 23.345 45.34 7.295 65.419-56.611 70.82-86.037 138.559-86.037 203.666v93.091c0 154.238-125.035 279.273-279.273 279.273S189.314 741.875 189.314 587.637v-93.091c0-65.107-29.426-132.845-86.036-203.664a46.549 46.549 0 01-10.188-29.063zm3.133 232.727v93.091C96.224 793.287 262.937 960 468.588 960s372.364-166.713 372.364-372.364v-93.091c0-41.182 21.14-89.845 65.661-145.541 48.151-60.239 38.353-148.106-21.885-196.258a139.637 139.637 0 00-87.187-30.565H139.638C62.519 122.181.001 184.699.001 261.818a139.64 139.64 0 0030.565 87.188c44.52 55.695 65.66 104.358 65.66 145.539zm238.094-372.363c15.078-59.718 61.53-93.091 134.27-93.091s119.192 33.373 134.27 93.091h-268.54zm366.997 46.545C701.315 29.142 610.405-64 468.588-64S235.861 29.143 235.861 168.727c0 25.706 20.839 46.545 46.545 46.545H654.77c25.706 0 46.545-20.839 46.545-46.545z"/><glyph unicode="" glyph-name="options" horiz-adv-x="299" d="M149.333 594.061c82.548 0 149.333-65.322 149.333-146.061s-66.785-146.061-149.333-146.061S0 367.261 0 448s66.785 146.061 149.333 146.061zM0 813.939C0 733.2 66.785 667.878 149.333 667.878S298.666 733.2 298.666 813.939 231.881 960 149.333 960 0 894.678 0 813.939zM0 82.061C0 1.322 66.785-64 149.333-64S298.666 1.322 298.666 82.061s-66.785 146.061-149.333 146.061S0 162.8 0 82.061z"/><glyph unicode="" glyph-name="renew" horiz-adv-x="931" d="M876.153 352.243c24.234-8.576 36.927-35.173 28.352-59.407C851.191 142.174 724.309 29.4 568.432-5.869S249.484 6.03 138.405 117.269l-45.314 40.52V-17.455C93.091-43.161 72.252-64 46.546-64S.001-43.161.001-17.455v279.273c0 25.706 20.839 46.545 46.545 46.545h279.273c25.706 0 46.545-20.839 46.545-46.545s-20.839-46.545-46.545-46.545H168.356l33.991-30.397c90.383-90.429 220.84-128.164 345.542-99.948s226.207 118.435 268.858 238.964c8.576 24.234 35.173 36.927 59.407 28.352zM884.364 960c25.706 0 46.545-20.839 46.545-46.545V634.182c0-25.706-20.839-46.545-46.545-46.545H605.091c-25.706 0-46.545 20.839-46.545 46.545s20.839 46.545 46.545 46.545h157.463l-33.991 30.397c-90.383 90.429-220.84 128.163-345.542 99.948S156.814 692.637 114.163 572.108c-8.576-24.234-35.173-36.927-59.407-28.352s-36.927 35.173-28.352 59.407C79.718 753.825 206.6 866.599 362.477 901.868s318.948-11.899 430.027-123.138l45.314-40.52v175.244c0 25.706 20.839 46.545 46.545 46.545z"/><glyph unicode="" glyph-name="right" horiz-adv-x="512" d="M363.708 447.999L15.409 41.65C-7.594 14.813-4.486-25.59 22.351-48.593s67.24-19.895 90.243 6.942l384 448c20.543 23.967 20.543 59.334 0 83.301l-384 448c-23.003 26.837-63.406 29.945-90.243 6.942s-29.945-63.406-6.942-90.243L363.708 448z"/><glyph unicode="" glyph-name="setting" d="M558.898 951.948a139.635 139.635 0 0084.998-84.998l19.373-54.69 52.37 24.973c69.61 33.194 152.948 3.673 186.142-65.937a139.638 139.638 0 000-120.206l-24.973-52.37 54.69-19.373c72.693-25.75 110.748-105.554 84.998-178.247a139.635 139.635 0 00-84.998-84.998l-54.69-19.373 24.973-52.37c33.194-69.61 3.673-152.948-65.937-186.142a139.638 139.638 0 00-120.206 0l-52.37 24.973-19.373-54.69c-25.75-72.693-105.554-110.748-178.247-84.998A139.635 139.635 0 00380.65 28.5l-19.373 54.69-52.37-24.973c-69.61-33.194-152.948-3.673-186.142 65.937a139.638 139.638 0 000 120.206l24.973 52.37-54.69 19.373C20.355 341.853-17.7 421.657 8.05 494.35a139.635 139.635 0 0084.998 84.998l54.69 19.373-24.973 52.37c-33.194 69.61-3.673 152.948 65.937 186.142a139.638 139.638 0 00120.206 0l52.37-24.973 19.373 54.69c25.75 72.693 105.554 110.748 178.247 84.998zM468.4 835.867L431.77 732.46a46.68 46.68 0 00-1.861-4.493c-11.065-23.203-38.844-33.044-62.047-21.979l-99.021 47.219a46.547 46.547 0 01-40.069 0c-23.203-11.065-33.044-38.844-21.979-62.047l47.219-99.021a46.68 46.68 0 001.861-4.493c8.583-24.231-4.102-50.832-28.333-59.416L124.133 491.6A46.547 46.547 0 0195.8 463.267c-8.583-24.231 4.102-50.832 28.333-59.416l103.407-36.63a46.68 46.68 0 004.493-1.861c23.203-11.065 33.044-38.844 21.979-62.047l-47.219-99.021a46.547 46.547 0 010-40.069c11.065-23.203 38.844-33.044 62.047-21.979l99.021 47.219a46.68 46.68 0 004.493 1.861c24.231 8.583 50.832-4.102 59.416-28.333L468.4 59.584a46.547 46.547 0 0128.333-28.333c24.231-8.583 50.832 4.102 59.416 28.333l36.63 103.407a46.68 46.68 0 001.861 4.493c11.065 23.203 38.844 33.044 62.047 21.979l99.021-47.219a46.547 46.547 0 0140.069 0c23.203 11.065 33.044 38.844 21.979 62.047l-47.219 99.021a46.68 46.68 0 00-1.861 4.493c-8.583 24.231 4.102 50.832 28.333 59.416l103.407 36.63a46.547 46.547 0 0128.333 28.333c8.583 24.231-4.102 50.832-28.333 59.416l-103.407 36.63a46.68 46.68 0 00-4.493 1.861c-23.203 11.065-33.044 38.844-21.979 62.047l47.219 99.021a46.547 46.547 0 010 40.069c-11.065 23.203-38.844 33.044-62.047 21.979l-99.021-47.219a46.68 46.68 0 00-4.493-1.861c-24.231-8.583-50.832 4.102-59.416 28.333l-36.63 103.407a46.547 46.547 0 01-28.333 28.333c-24.231 8.583-50.832-4.102-59.416-28.333zm43.874-201.959c102.825 0 186.182-83.356 186.182-186.182S615.1 261.544 512.274 261.544c-102.825 0-186.182 83.356-186.182 186.182s83.356 186.182 186.182 186.182zm0-93.091c-51.413 0-93.091-41.678-93.091-93.091s41.678-93.091 93.091-93.091 93.091 41.678 93.091 93.091-41.678 93.091-93.091 93.091z"/><glyph unicode="" glyph-name="star" horiz-adv-x="1073" d="M536.434 801.073L429.485 584.406a48.763 48.763 0 00-36.673-26.666l-239.236-34.968L326.648 354.2a48.761 48.761 0 0014.037-43.174L299.85 72.94l213.888 112.481a48.763 48.763 0 0045.393 0L773.019 72.94l-40.835 238.086a48.764 48.764 0 0014.037 43.174l173.072 168.572-239.236 34.968a48.763 48.763 0 00-36.673 26.666L536.435 801.073zM353.369 650.534l139.34 282.287c17.888 36.238 69.563 36.238 87.45 0l139.34-282.287 311.606-45.546c39.981-5.844 55.915-54.988 26.97-83.18L832.638 302.233 885.841-7.97c6.832-39.837-34.983-70.213-70.756-51.401L536.433 87.169 257.781-59.371c-35.773-18.813-77.589 11.564-70.756 51.401l53.203 310.203L14.791 521.808c-28.945 28.192-13.01 77.336 26.97 83.18l311.606 45.546z"/><glyph unicode="" d="M1024 448c0-282.77-229.23-512-512-512S0 165.23 0 448s229.23 512 512 512 512-229.23 512-512z"/><glyph unicode="" d="M316.16 575.354L512 377.967l259.84 262.034L832 579.233 512 256.001 256 514.587z"/><glyph unicode="" glyph-name="upload" d="M972.8 345.6c28.277 0 51.2-22.923 51.2-51.2V89.6C1024 4.769 955.231-64 870.4-64H153.6C68.769-64 0 4.769 0 89.6v204.8c0 28.277 22.923 51.2 51.2 51.2s51.2-22.923 51.2-51.2V89.6c0-28.277 22.923-51.2 51.2-51.2h716.8c28.277 0 51.2 22.923 51.2 51.2v204.8c0 28.277 22.923 51.2 51.2 51.2zM512 960l.991-.01a50.972 50.972 0 003.579-.194l-4.57.203c2.592 0 5.139-.193 7.627-.564a56.02 56.02 0 002.65-.472 47.708 47.708 0 003.334-.793c.8-.224 1.588-.461 2.371-.718a50.933 50.933 0 005.687-2.25 51.923 51.923 0 003.126-1.598c.62-.339 1.246-.703 1.865-1.081a53.12 53.12 0 004.931-3.427c.135-.11.284-.228.431-.346l4.181-3.748 256-256c19.995-19.995 19.995-52.413 0-72.408s-52.413-19.995-72.408 0L563.199 785.201V294.398c0-28.277-22.923-51.2-51.2-51.2s-51.2 22.923-51.2 51.2v490.803L292.203 616.594c-19.995-19.995-52.413-19.995-72.408 0s-19.995 52.413 0 72.408l256 256 4.181 3.748c.148.119.296.236.445.353l-4.626-4.101a51.632 51.632 0 005.724 4.944 52.752 52.752 0 003.822 2.574c.617.382 1.242.746 1.874 1.095a53.679 53.679 0 003.121 1.588 50.911 50.911 0 005.701 2.258c.762.247 1.55.484 2.342.702a48.232 48.232 0 006.017 1.271c.971.149 1.977.269 2.992.359a53.014 53.014 0 004.609.205z"/><glyph unicode="" glyph-name="user" d="M512 345.6c352.344 0 522.833-119.467 511.467-358.4 0-28.277-22.899-51.2-51.147-51.2H51.679C23.431-64 .532-41.077.532-12.8c-11.366 238.933 159.123 358.4 511.467 358.4zm0-102.4c-273.067 0-409.6-68.267-409.6-204.8h819.2c0 136.533-136.533 204.8-409.6 204.8zm0 716.8c141.385 0 256-114.615 256-256S653.385 448 512 448 256 562.615 256 704s114.615 256 256 256zm0-102.4c-84.831 0-153.6-68.769-153.6-153.6S427.169 550.4 512 550.4c84.831 0 153.6 68.769 153.6 153.6S596.831 857.6 512 857.6z"/><glyph unicode="" horiz-adv-x="1108" d="M233.152 832.74h647.717V50.372H233.152V832.74z"/><glyph unicode="" horiz-adv-x="1108" d="M623.364 592.624h132.661v-92.957H623.364v92.957z"/><glyph unicode="" horiz-adv-x="1108" d="M459.433 592.624h226.329v-92.957H459.433v92.957z"/><glyph unicode="" horiz-adv-x="1108" d="M365.86 592.624h148.296v-92.957H365.86v92.957z"/><glyph unicode="" horiz-adv-x="1108" d="M412.67 515.16h249.734v-92.957H412.67v92.957z"/><glyph unicode="" horiz-adv-x="1108" d="M365.86 515.16h109.256v-92.957H365.86v92.957z"/><glyph unicode="" horiz-adv-x="1108" d="M365.86 437.695h202.876v-92.957H365.86v92.957z"/><glyph unicode="" horiz-adv-x="1108" d="M365.86 360.231h140.478v-92.957H365.86v92.957z"/><glyph unicode="" horiz-adv-x="1108" d="M482.886 677.811h522.873V282.766H482.886v395.045z"/><glyph unicode="" horiz-adv-x="1108" d="M711.868 554.721h166.726V404.672H711.868v150.049z"/><glyph unicode="" horiz-adv-x="1108" d="M313.933 151.053h187.289V42.603H313.933v108.45z"/><glyph unicode="" horiz-adv-x="1108" d="M329.52 147.215h101.438V46.535H329.52v100.68z"/><glyph unicode="" horiz-adv-x="1108" d="M135.314 600.299h693.627V220.936H135.314v379.363z"/><glyph unicode="" horiz-adv-x="1108" d="M164.263 716.378h587.404V504.547H164.263v211.831z"/><glyph unicode="" horiz-adv-x="1108" d="M280.151 755.418h413.618v-219.08H280.151v219.08z"/><glyph unicode="" horiz-adv-x="1108" d="M504.585 556.663h196.386V446.744H504.585v109.919z"/><glyph unicode="" horiz-adv-x="1108" d="M323.598 556.663h290.527V264.809H323.598v291.854z"/><glyph unicode="" horiz-adv-x="1108" d="M576.98 527.525h341.223V68.281H576.98v459.244z"/><glyph unicode="" horiz-adv-x="1108" d="M178.808 556.663h247.081V264.809H178.808v291.854z"/><glyph unicode="" horiz-adv-x="1108" d="M390.26 505.684h152.939V315.695H390.26v189.989z"/><glyph unicode="" horiz-adv-x="1108" d="M209.178 332.561h210.694V209.234H209.178v123.327z"/><glyph unicode="" horiz-adv-x="1108" d="M226.755 328.155h114.136V213.64H226.755v114.515z"/><glyph unicode="" horiz-adv-x="1108" d="M352.499 723.958h209.367V443.901H352.499v280.057z"/><glyph unicode="" horiz-adv-x="1108" d="M424.989 419.17h322.129v-98.832H424.989v98.832z"/><glyph unicode="" horiz-adv-x="1108" d="M594.084 723.958h209.367V443.901H594.084v280.057z"/><glyph unicode="" horiz-adv-x="1108" d="M424.989 814.547h322.129V353.313H424.989v461.234z"/><glyph unicode="" horiz-adv-x="1108" d="M280.009 369.754h547.605V81.453H280.009v288.301z"/><glyph unicode="" horiz-adv-x="1108" d="M377.799 423.292h104.707V316.216H377.799v107.076z"/><glyph unicode="" horiz-adv-x="1108" d="M194.396 830.04h745.886V111.255H194.396V830.04z"/><glyph unicode="" horiz-adv-x="1108" d="M260.679 546.903h364.675V168.014H260.679v378.889z"/><glyph unicode="" horiz-adv-x="1108" d="M302.135 423.387h190.653V225.722H302.135v197.665z"/><glyph unicode="" horiz-adv-x="1108" d="M401.583 711.64h207.188V505.731H401.583V711.64z"/><glyph unicode="" horiz-adv-x="1108" d="M484.449 464.559h265.227V357.483H484.449v107.076z"/><glyph unicode="" horiz-adv-x="1108" d="M484.449 390.411h265.227V283.335H484.449v107.076z"/><glyph unicode="" horiz-adv-x="1108" d="M266.601 217.431h198.944v-115.32H266.601v115.32z"/><glyph unicode="" horiz-adv-x="1108" d="M283.184 217.431h107.74V110.355h-107.74v107.076z"/><glyph unicode="" horiz-adv-x="1108" d="M245.328 738.219h106.413V548.372H245.328v189.847z"/><glyph unicode="" horiz-adv-x="1108" d="M216.522 808.293h652.786V259.03H216.522v549.263z"/><glyph unicode="" horiz-adv-x="1108" d="M214.01 350.707h75.285v-91.441H214.01v91.441z"/><glyph unicode="" horiz-adv-x="1108" d="M224.055 175.642h602.896V84.201H224.055v91.441z"/><glyph unicode="" horiz-adv-x="1108" d="M245.328 301.339h157.108V155.128H245.328v146.211z"/><glyph unicode="" horiz-adv-x="1108" d="M350.651 329.813h157.108V155.127H350.651v174.686z"/><glyph unicode="" horiz-adv-x="1108" d="M456.022 377.24H613.13V155.128H456.022V377.24z"/><glyph unicode="" horiz-adv-x="1108" d="M561.25 443.665h157.108v-288.49H561.25v288.49z"/><glyph unicode="" horiz-adv-x="1108" d="M666.621 576.468h157.108v-421.34H666.621v421.34z"/><glyph unicode="" horiz-adv-x="1108" d="M224.055 182.655h170.232V77.19H224.055v105.465z"/><glyph unicode="" horiz-adv-x="1108" d="M238.174 175.642h92.199V84.201h-92.199v91.441z"/><glyph unicode="" glyph-name="zoom" horiz-adv-x="999" d="M667.162 842.835c-152.41 156.22-400.469 156.22-552.879 0-152.377-156.254-152.377-410.48 0-566.735 135.725-139.085 347.11-153.985 499.421-45.379 3.205-15.544 10.54-30.377 22.335-42.467L857.997-39.253c32.345-33.086 84.614-33.086 116.794 0 32.312 33.12 32.312 86.695 0 119.714L752.833 308.035c-11.729 11.988-26.233 19.54-41.398 22.825 106.023 156.153 91.486 372.788-44.273 511.975zm-70.077-494.907c-113.787-116.632-298.972-116.632-412.726 0-113.721 116.632-113.721 306.413 0 423.044 113.754 116.598 298.939 116.598 412.726 0 113.787-116.632 113.787-306.413 0-423.044z"/></font>
</defs>
</svg>
