<svg id="Layer_1" data-name="Layer 1" xmlns="http://www.w3.org/2000/svg" viewBox="0 0 233.78 216.13"><defs><clipPath id="clip-path"><path class="cls-1" d="M28.33 20.78h178.25v175.94H28.33z"/></clipPath><clipPath id="clip-path-2"><path class="cls-1" d="M55.56 86.82h107.91v51.68H55.56z"/></clipPath><clipPath id="clip-path-3"><path class="cls-1" d="M52.29 56.17h130.8v112.34H52.29z"/></clipPath><clipPath id="clip-path-4"><path class="cls-2" d="M59.85 88.31l5.63-23.33 84.34 19.53v3.8H59.85z"/></clipPath><clipPath id="clip-path-6"><path class="cls-1" d="M166.06 99.14v-12.8a1.84 1.84 0 00-1.85-1.83H55.12a1.85 1.85 0 00-1.87 1.83v51.41a1.85 1.85 0 001.87 1.84h82.12a1.84 1.84 0 100-3.67H57V88.18h105.34v11a1.86 1.86 0 003.72 0z"/></clipPath><clipPath id="clip-path-8"><path class="cls-2" d="M79.74 69.91l7.06-13.03 52.43 21.56v5.03L79.74 69.91z"/></clipPath><clipPath id="clip-path-10"><path class="cls-1" d="M63.76 62.83A1.87 1.87 0 0063 64l-4.3 19.67a1.85 1.85 0 001.37 2.24 1.83 1.83 0 002.18-1.42l3.86-17.84 83.36 19.26a1.81 1.81 0 00.4 0 1.86 1.86 0 001.83-1.87 1.91 1.91 0 00-1.44-1.83L65.13 62.59a1.77 1.77 0 00-1.37.24z"/></clipPath><clipPath id="clip-path-12"><path class="cls-1" d="M83.81 66.25l3.6-7 50.88 20.5a1.9 1.9 0 002.46-1 1.79 1.79 0 00-1-2.38L87.23 55.29a1.92 1.92 0 00-2.41.86l-4.36 8.47a1.78 1.78 0 00.74 2.46 1.91 1.91 0 002.55-.73l.06-.11z"/></clipPath><clipPath id="clip-path-14"><path class="cls-1" d="M142.26 94.83a2 2 0 00-1.81-2.06h-16.63a2.09 2.09 0 000 4.13h16.63a2 2 0 001.81-2.07z"/></clipPath><clipPath id="clip-path-16"><path class="cls-1" d="M107.18 96.27a15.78 15.78 0 11-15.43 15.78 15.61 15.61 0 0115.43-15.78zm0 35.06a19.28 19.28 0 10-18.88-19.28 19.08 19.08 0 0018.88 19.28z"/></clipPath><clipPath id="clip-path-18"><path class="cls-2" d="M138.88 106q19.16-10.32 41.18 0v54.91q-19.53 9.5-41.18 0z"/></clipPath><clipPath id="clip-path-20"><path class="cls-1" d="M159.11 164.12c-12.56 0-19-3.2-19.32-4.39v-3.45c4.56 2.35 12.1 3.45 19.32 3.45s14.74-1.11 19.29-3.45v3.42c-.3 1.22-6.76 4.42-19.29 4.42zm0-61.45c12.45 0 18.88 3.14 19.29 4.39-.41 1.24-6.84 4.38-19.29 4.38s-19-3.19-19.32-4.35c.35-1.23 6.78-4.42 19.32-4.42zm19.29 13.13c-.3 1.22-6.76 4.42-19.29 4.42s-19-3.2-19.32-4.39v-3.45c4.56 2.35 12.1 3.45 19.32 3.45s14.74-1.1 19.29-3.45zm0 8.78c-.3 1.22-6.76 4.42-19.29 4.42s-19-3.2-19.32-4.39v-3.45c4.56 2.35 12.1 3.45 19.32 3.45s14.74-1.1 19.29-3.45zm0 8.78c-.3 1.22-6.76 4.42-19.29 4.42s-19-3.2-19.32-4.39v-3.45c4.56 2.36 12.1 3.45 19.32 3.45s14.74-1.11 19.29-3.45zm0 8.78c-.3 1.22-6.76 4.42-19.29 4.42s-19-3.2-19.32-4.39v-3.45c4.56 2.35 12.1 3.45 19.32 3.45s14.74-1.11 19.29-3.45zm0 8.78c-.3 1.22-6.76 4.42-19.29 4.42s-19-3.2-19.32-4.39v-3.45c4.56 2.35 12.1 3.45 19.32 3.45s14.74-1.11 19.29-3.45zm-19.29-52.64c-11.38 0-23.61 2.74-23.61 8.78v52.67c0 6 12.23 8.78 23.61 8.78s23.59-2.75 23.59-8.78v-52.67c0-6.06-12.23-8.78-23.59-8.78z"/></clipPath><clipPath id="clip-path-22"><path class="cls-1" d="M73.61 96.5h15.54a1.87 1.87 0 000-3.73H72.87a1.86 1.86 0 00-1.31.53l-9.66 9.48a2.32 2.32 0 00-.56 1.52v15.49a1.86 1.86 0 00.48 1.25l8.8 9.68a1.8 1.8 0 001.35.61h17.18a1.87 1.87 0 000-3.73H72.8l-7.8-8.54v-14.15z"/></clipPath><clipPath id="clip-path-24"><path class="cls-1" d="M107.81 115.26h-5a2.14 2.14 0 000 4.28h2a2 2 0 104 0v-.09a4.81 4.81 0 00-1-9.55h-2c-.64 0-1-.37-1-.53s.37-.54 1-.54h5a2.14 2.14 0 000-4.28h-2a2 2 0 10-4 0v.1a4.8 4.8 0 001 9.54h2c.64 0 1 .37 1 .53s-.36.54-1 .54z"/></clipPath><clipPath id="clip-path-26"><path class="cls-1" d="M71.91 83.49H94.8v6.67H71.91z"/></clipPath><clipPath id="clip-path-28"><path class="cls-2" d="M77.64 89.33a2.51 2.51 0 10-2.46-2.51 2.47 2.47 0 002.46 2.51z"/></clipPath><style>.cls-1,.cls-2{fill:none}.cls-2{clip-rule:evenodd}.cls-4{fill:#16103e}.cls-6{clip-path:url(#clip-path-3)}.cls-7{fill:#3ba07a}</style></defs><g clip-path="url(#clip-path)"><path class="cls-4" d="M30.51 22.96h173.88v171.58H30.51z"/></g><g class="cls-6" clip-path="url(#clip-path-2)"><path class="cls-7" d="M47.38 78.49h124.26v68.35H47.38z"/></g><g class="cls-6" clip-path="url(#clip-path-4)"><path class="cls-7" d="M51.68 56.64H158v40H51.68z"/></g><g class="cls-6" clip-path="url(#clip-path-6)"><path class="cls-4" d="M45.07 76.17h129.17v71.78H45.07z"/></g><g class="cls-6" clip-path="url(#clip-path-8)"><path class="cls-7" d="M71.56 48.54h75.86v43.27H71.56z"/></g><g class="cls-6" clip-path="url(#clip-path-10)"><path class="cls-4" d="M50.46 54.21h109.39v40.08H50.46z"/></g><g class="cls-6" clip-path="url(#clip-path-12)"><path class="cls-4" d="M72.04 46.81h77.03v41.46H72.04z"/></g><g class="cls-6" clip-path="url(#clip-path-14)"><path class="cls-4" d="M113.85 84.43h36.58v20.8h-36.58z"/></g><g class="cls-6" clip-path="url(#clip-path-16)"><path class="cls-4" d="M80.13 84.43h54.11v55.23H80.13z"/></g><g class="cls-6" clip-path="url(#clip-path-18)"><path class="cls-7" d="M130.7 92.51h57.51V174H130.7z"/></g><g class="cls-6" clip-path="url(#clip-path-20)"><path class="cls-4" d="M127.33 89.94h63.55v86.9h-63.55z"/></g><g class="cls-6" clip-path="url(#clip-path-22)"><path class="cls-4" d="M53.16 84.43h46.02v55.23H53.16z"/></g><g class="cls-6" clip-path="url(#clip-path-24)"><path class="cls-4" d="M92.55 94.07h28.49v35.95H92.55z"/></g><g class="cls-6" clip-path="url(#clip-path-26)"><path class="cls-7" d="M63.73 75.15h39.24v23.34H63.73z"/></g><g class="cls-6" clip-path="url(#clip-path-28)"><path class="cls-4" d="M67 75.99h21.25v21.67H67z"/></g></svg>