<svg id="Layer_1" data-name="Layer 1" xmlns="http://www.w3.org/2000/svg" viewBox="0 0 233.78 216.13"><defs><clipPath id="clip-path"><path class="cls-1" d="M165.68 101.54V87.26a2.08 2.08 0 00-2.11-2.05H39.94a2.09 2.09 0 00-2.11 2.05v57.35a2.08 2.08 0 002.11 2h93.09a2.05 2.05 0 100-4.1h-91v-53.2h119.4v12.22a2.11 2.11 0 004.22 0z"/></clipPath><clipPath id="clip-path-2"><path class="cls-1" d="M37.04 52.47h147.94v126.06H37.04z"/></clipPath><clipPath id="clip-path-3"><path class="cls-1" d="M49.73 61a2 2 0 00-.91 1.31L44 84.29a2.08 2.08 0 001.57 2.49A2.06 2.06 0 0048 85.19l4.39-19.89 94.48 21.48a2.4 2.4 0 00.46 0 2.1 2.1 0 00.46-4.13L51.28 60.77a2.07 2.07 0 00-1.55.23z"/></clipPath><clipPath id="clip-path-5"><path class="cls-1" d="M72.47 64.85l4-7.75L134.21 80a2.16 2.16 0 002.79-1.13 2 2 0 00-1.14-2.65L76.33 52.63a2.19 2.19 0 00-2.73 1L68.65 63a2 2 0 00.85 2.75 2.2 2.2 0 002.9-.75l.07-.12z"/></clipPath><clipPath id="clip-path-7"><path class="cls-1" d="M138.7 96.74a2.19 2.19 0 00-2-2.31h-18.91a2.32 2.32 0 000 4.61h18.86a2.19 2.19 0 002.05-2.3z"/></clipPath><clipPath id="clip-path-9"><path class="cls-1" d="M99 98.34a17.6 17.6 0 11-17.5 17.59A17.55 17.55 0 0199 98.34zm0 39.1a21.51 21.51 0 10-21.38-21.51A21.46 21.46 0 0099 137.44z"/></clipPath><clipPath id="clip-path-11"><path class="cls-1" d="M157.79 174c-14.21 0-21.51-3.58-21.88-4.9v-3.85c5.18 2.63 13.73 3.85 21.88 3.85s16.72-1.24 21.89-3.85v3.81c-.37 1.38-7.68 4.94-21.89 4.94zm0-68.55c14.11 0 21.39 3.51 21.89 4.9-.5 1.38-7.78 4.89-21.89 4.89s-21.49-3.56-21.88-4.85c.39-1.39 7.69-4.92 21.88-4.92zm21.89 14.65c-.37 1.36-7.67 4.94-21.89 4.94s-21.51-3.58-21.88-4.9v-3.85c5.18 2.61 13.73 3.85 21.88 3.85s16.72-1.24 21.89-3.85zm0 9.79c-.37 1.36-7.67 4.94-21.89 4.94s-21.51-3.58-21.88-4.9v-3.83c5.18 2.62 13.73 3.85 21.88 3.85s16.72-1.23 21.89-3.85zm0 9.8c-.37 1.36-7.67 4.93-21.89 4.93s-21.51-3.57-21.88-4.9v-3.85c5.18 2.63 13.73 3.85 21.88 3.85s16.72-1.23 21.89-3.85zm0 9.79c-.37 1.36-7.67 4.93-21.89 4.93s-21.51-3.57-21.88-4.89v-3.85c5.18 2.62 13.73 3.85 21.88 3.85s16.72-1.24 21.89-3.86zm0 9.79c-.37 1.36-7.67 4.93-21.89 4.93s-21.51-3.57-21.88-4.89v-3.85c5.18 2.62 13.73 3.85 21.88 3.85s16.72-1.24 21.89-3.85zm-21.89-58.72c-12.88 0-26.75 3.07-26.75 9.8v58.75c0 6.73 13.87 9.79 26.75 9.79s26.75-3.06 26.75-9.79v-58.73c0-6.73-13.86-9.8-26.75-9.8z"/></clipPath><clipPath id="clip-path-13"><path class="cls-1" d="M60.91 98.59h17.6a2.08 2.08 0 100-4.16H60a2.1 2.1 0 00-1.46.59l-10.9 10.58a2.54 2.54 0 00-.63 1.7v17.27a2.06 2.06 0 00.54 1.4l10 10.79a2.12 2.12 0 001.55.68h19.41a2.08 2.08 0 100-4.16H60l-8.79-9.52V108z"/></clipPath><clipPath id="clip-path-15"><path class="cls-1" d="M99.65 119.52h-5.71a2.39 2.39 0 000 4.78h2.29a2.29 2.29 0 104.58 0v-.11a5.46 5.46 0 004.58-5.26 5.56 5.56 0 00-5.74-5.38h-2.29c-.69 0-1.13-.42-1.13-.6s.44-.6 1.13-.6h5.74a2.39 2.39 0 000-4.78h-2.29a2.29 2.29 0 10-4.58 0v.11a5.5 5.5 0 00-4.6 5.26 5.56 5.56 0 005.73 5.38h2.29c.72 0 1.16.42 1.16.6s-.44.6-1.16.6z"/></clipPath><clipPath id="clip-path-17"><path class="cls-1" d="M53.41 141.72h25.94v7.44H53.41z"/></clipPath><clipPath id="clip-path-19"><path d="M59.89 148.23a2.79 2.79 0 10-2.77-2.79 2.78 2.78 0 002.77 2.79z" clip-rule="evenodd" fill="none"/></clipPath><style>.cls-1{fill:none}.cls-4{clip-path:url(#clip-path-2)}.cls-5{fill:#16103e}</style></defs><g class="cls-4" clip-path="url(#clip-path)"><path class="cls-5" d="M28.56 75.92h146.4v80.07H28.56z"/></g><g class="cls-4" clip-path="url(#clip-path-3)"><path class="cls-5" d="M34.67 51.42h123.98v44.71H34.67z"/></g><g class="cls-4" clip-path="url(#clip-path-5)"><path class="cls-5" d="M59.13 43.18h87.3v46.24h-87.3z"/></g><g class="cls-4" clip-path="url(#clip-path-7)"><path class="cls-5" d="M106.5 85.13h41.45v23.2H106.5z"/></g><g class="cls-4" clip-path="url(#clip-path-9)"><path class="cls-5" d="M68.3 85.13h61.32v61.6H68.3z"/></g><g clip-path="url(#clip-path-11)"><path fill="#3ba07a" d="M121.78 91.28h72.02v96.93h-72.02z"/></g><g class="cls-4" clip-path="url(#clip-path-13)"><path class="cls-5" d="M37.74 85.13h52.15v61.6H37.74z"/></g><g class="cls-4" clip-path="url(#clip-path-15)"><path class="cls-5" d="M82.37 95.89h32.28v40.1H82.37z"/></g><g clip-path="url(#clip-path-17)"><path fill="#fff" d="M44.15 132.43h44.47v26.03H44.15z"/></g><g class="cls-4" clip-path="url(#clip-path-19)"><path class="cls-5" d="M47.86 133.36h24.09v24.17H47.86z"/></g></svg>