<svg id="Layer_1" data-name="Layer 1" xmlns="http://www.w3.org/2000/svg" viewBox="0 0 233.78 216.13"><defs><clipPath id="clip-path"><rect class="cls-1" x="78.03" y="50.29" width="93.67" height="124.88" rx="7.8"/></clipPath><clipPath id="clip-path-2"><path class="cls-1" d="M78.59 50.9h114.73v125.59H78.59z"/></clipPath><clipPath id="clip-path-3"><path class="cls-1" d="M78.03 50.29h93.74v126.44H78.03z"/></clipPath><clipPath id="clip-path-4"><path class="cls-1" d="M78.03 50.29h93.68v124.88H78.03z"/></clipPath><clipPath id="clip-path-5"><path class="cls-2" d="M101.44 133h50a1.56 1.56 0 110 3.12h-50a1.56 1.56 0 010-3.12z"/></clipPath><clipPath id="clip-path-7"><path class="cls-2" d="M101.44 145.51h50a1.56 1.56 0 110 3.12h-50a1.56 1.56 0 010-3.12z"/></clipPath><clipPath id="clip-path-9"><path class="cls-2" d="M125 97.12c4 0 7.2-3.49 7.2-7.8s-3.2-7.81-7.2-7.81-7.17 3.5-7.17 7.81 3.17 7.8 7.17 7.8z"/></clipPath><clipPath id="clip-path-12"><path class="cls-2" d="M171.46 158a21.86 21.86 0 10-21.6-21.85 21.73 21.73 0 0021.6 21.85z"/></clipPath><clipPath id="clip-path-15"><path class="cls-1" d="M92.09 170.49h21.84v6.24H92.09z"/></clipPath><clipPath id="clip-path-17"><path class="cls-2" d="M97.54 176a2.34 2.34 0 10-2.34-2.34 2.35 2.35 0 002.34 2.34z"/></clipPath><style>.cls-1,.cls-14,.cls-2{fill:none}.cls-2{clip-rule:evenodd}.cls-4{clip-path:url(#clip-path-2)}.cls-14{stroke:#3ba07a;stroke-miterlimit:10}.cls-10{fill:#3ba07a}.cls-13{fill:#fff}.cls-14{stroke-width:1.43px}</style></defs><g clip-path="url(#clip-path)"><g clip-path="url(#clip-path-3)"><g clip-path="url(#clip-path-4)"><path d="M85.83 50.29h78.07a7.81 7.81 0 017.81 7.81v109.27a7.8 7.8 0 01-7.8 7.8H85.83a7.81 7.81 0 01-7.83-7.81V58.1a7.8 7.8 0 017.83-7.81z" stroke-width="3.58" stroke-miterlimit="10" stroke="#3ba07a" fill="none"/></g></g></g><g class="cls-4" clip-path="url(#clip-path-5)"><path class="cls-10" d="M92.09 125.22h68.7v18.73h-68.7z"/></g><g class="cls-4" clip-path="url(#clip-path-7)"><path class="cls-10" d="M92.09 137.71h68.7v18.73h-68.7z"/></g><g class="cls-4" clip-path="url(#clip-path-9)"><path class="cls-13" d="M110.01 73.71H140v31.22h-29.99z"/></g><g class="cls-4"><path class="cls-14" d="M125 97.12c4 0 7.18-3.49 7.18-7.8S129 81.51 125 81.51s-7.19 3.5-7.19 7.81 3.24 7.8 7.19 7.8z"/><path d="M107.7 111.17q9.26-10.92 17.35-10.92t15.43 10.92" stroke-linejoin="round" stroke-linecap="round" stroke-width="1.43" stroke="#3ba07a" fill="none"/></g><g class="cls-4" clip-path="url(#clip-path-12)"><path class="cls-13" d="M142.03 106.49h58.83v59.32h-58.83z"/></g><g class="cls-4"><ellipse class="cls-14" cx="172.35" cy="136.15" rx="18.52" ry="18.73"/><path stroke-linecap="round" stroke-width="1.43" stroke-miterlimit="10" stroke="#3ba07a" fill="none" d="M162.63 135.84l7.06 6.55 11.77-10.92"/></g><g class="cls-4" clip-path="url(#clip-path-15)"><path class="cls-13" d="M84.28 162.68h37.47v21.85H84.28z"/></g><g class="cls-4" clip-path="url(#clip-path-17)"><path class="cls-10" d="M87.4 163.46h20.3v20.29H87.4z"/></g><g class="cls-4"><circle class="cls-14" cx="124.09" cy="96.34" r="24.2"/></g></svg>