<svg id="Layer_1" data-name="Layer 1" xmlns="http://www.w3.org/2000/svg" viewBox="0 0 233.78 216.13"><defs><clipPath id="clip-path"><path class="cls-1" d="M48.26 154.56h137.25a5.52 5.52 0 015.5 5.54V173a5.52 5.52 0 01-5.5 5.53H48.26a5.51 5.51 0 01-5.49-5.53v-12.9a5.52 5.52 0 015.49-5.54z"/></clipPath><clipPath id="clip-path-2"><path class="cls-2" d="M42.77 36.66h148.24v142.8H42.77z"/></clipPath><clipPath id="clip-path-3"><path class="cls-2" d="M42.77 153.3h148.24v26.16H42.77z"/></clipPath><clipPath id="clip-path-4"><path class="cls-2" d="M42.77 153.64h148.24v25.82H42.77z"/></clipPath><clipPath id="clip-path-5"><path class="cls-1" d="M59.25 65.1h113.47a3.67 3.67 0 013.64 3.69v90.38H55.59V68.79a3.67 3.67 0 013.66-3.69z"/></clipPath><clipPath id="clip-path-7"><path class="cls-1" d="M86.72 144.42h64.59a9.18 9.18 0 009.13-9.23V48.5a9.18 9.18 0 00-9.13-9.23H86.72a9.19 9.19 0 00-9.16 9.23v86.69a9.19 9.19 0 009.16 9.23z"/></clipPath><clipPath id="clip-path-9"><path class="cls-2" d="M75.47 37.76h85.02v106.82H75.47z"/></clipPath><clipPath id="clip-path-11"><path class="cls-2" d="M77.54 39.27h82.95v105.14H77.54z"/></clipPath><clipPath id="clip-path-13"><path class="cls-1" d="M161.75 61.41l-25.61-23.52h24.63l.98 23.52z"/></clipPath><clipPath id="clip-path-16"><path class="cls-1" d="M83.56 124.13a8.31 8.31 0 10-8.22-8.3 8.27 8.27 0 008.22 8.3z"/></clipPath><clipPath id="clip-path-19"><path class="cls-1" d="M66.92 137.65q4.74-13.52 16.72-13.52 11.69 0 17.31 12.87a9.24 9.24 0 01-4.66 12.16 9 9 0 01-3.69.79H75.53a9.24 9.24 0 01-8.61-12.3z"/></clipPath><clipPath id="clip-path-22"><path class="cls-1" d="M105 79.86h34.77a1.84 1.84 0 010 3.68H105a1.84 1.84 0 010-3.68z"/></clipPath><clipPath id="clip-path-24"><path class="cls-1" d="M125.15 100.15h23.78a1.85 1.85 0 010 3.69h-23.78a1.85 1.85 0 010-3.69z"/></clipPath><clipPath id="clip-path-26"><path class="cls-1" d="M110.5 120.44h34.77a1.85 1.85 0 010 3.69H110.5a1.85 1.85 0 010-3.69z"/></clipPath><clipPath id="clip-path-28"><path class="cls-1" d="M97.7 59.56h23.79a1.85 1.85 0 010 3.69H97.7a1.85 1.85 0 010-3.69z"/></clipPath><clipPath id="clip-path-30"><path class="cls-2" d="M62.91 172.09h25.61v7.38H62.91z"/></clipPath><clipPath id="clip-path-32"><path class="cls-1" d="M69.3 178.54a2.77 2.77 0 10-2.75-2.76 2.76 2.76 0 002.75 2.76z"/></clipPath><style>.cls-1,.cls-2,.cls-20,.cls-9{fill:none}.cls-1{clip-rule:evenodd}.cls-5{clip-path:url(#clip-path-2)}.cls-20,.cls-9{stroke:#000}.cls-9{stroke-linejoin:round;stroke-width:4.21px}.cls-14{fill:#fff}.cls-20{stroke-miterlimit:10;stroke-width:1.69px}</style></defs><g clip-path="url(#clip-path)"><g clip-path="url(#clip-path-3)"><g clip-path="url(#clip-path-4)"><path class="cls-9" d="M48.26 154.56h137.26a5.52 5.52 0 015.48 5.54V173a5.51 5.51 0 01-5.49 5.53H48.26a5.51 5.51 0 01-5.49-5.53v-12.9a5.52 5.52 0 015.49-5.54z"/></g></g></g><g class="cls-5" clip-path="url(#clip-path-5)"><path class="cls-9" d="M59.25 65.1h113.46a3.67 3.67 0 013.66 3.69v90.39H55.59V68.79a3.67 3.67 0 013.66-3.69z"/></g><g clip-path="url(#clip-path-7)"><g clip-path="url(#clip-path-9)"><g clip-path="url(#clip-path-11)"><path class="cls-14" d="M86.72 144.42h64.59a9.18 9.18 0 009.13-9.23V48.5a9.18 9.18 0 00-9.13-9.23H86.72a9.19 9.19 0 00-9.16 9.23v86.69a9.19 9.19 0 009.16 9.23z"/></g><path d="M86.71 144.42h64.59a9.19 9.19 0 009.15-9.23V48.5a9.19 9.19 0 00-9.15-9.23H86.71a9.19 9.19 0 00-9.15 9.23v86.69a9.19 9.19 0 009.15 9.23z" stroke-miterlimit="10" stroke-width="4.21" stroke="#000" fill="none"/></g></g><g class="cls-5" clip-path="url(#clip-path-13)"><path class="cls-14" d="M126.98 28.67h43.92v41.96h-43.92z"/></g><g class="cls-5" stroke-miterlimit="10" fill="none"><path stroke="#fff" stroke-width=".84" d="M161.76 61.41l-25.62-23.52h24.63l.99 23.52z"/><path d="M136.94 42.34L157 61a1.87 1.87 0 01.11 2.61 1.84 1.84 0 01-1.35.6h-18.23a3.68 3.68 0 01-3.66-3.69V43.69a1.83 1.83 0 011.83-1.84 1.8 1.8 0 011.24.49z" stroke-width="2.11" stroke="#000"/></g><g class="cls-5" clip-path="url(#clip-path-16)"><path class="cls-14" d="M66.18 98.3h34.77v35.05H66.18z"/></g><g class="cls-5"><path class="cls-20" d="M83.57 124.13a8.31 8.31 0 10-8.23-8.3 8.27 8.27 0 008.23 8.3z"/></g><g class="cls-5" clip-path="url(#clip-path-19)"><path class="cls-14" d="M57.24 114.9h53.65v44.27H57.24z"/></g><g class="cls-5"><path class="cls-20" d="M66.92 137.65q4.76-13.53 16.72-13.52 11.69 0 17.33 12.87a9.25 9.25 0 01-4.68 12.16 9 9 0 01-3.69.79h-17a9.24 9.24 0 01-8.63-12.3z"/></g><g clip-path="url(#clip-path-22)"><path d="M94.04 70.63h56.73v22.14H94.04z"/></g><g clip-path="url(#clip-path-24)"><path d="M114.16 90.92h45.75v22.14h-45.75z"/></g><g clip-path="url(#clip-path-26)"><path d="M99.54 111.21h56.73v22.14H99.54z"/></g><g clip-path="url(#clip-path-28)"><path d="M86.72 50.34h45.75v22.14H86.72z"/></g><g class="cls-5" clip-path="url(#clip-path-30)"><path class="cls-14" d="M53.76 162.86h43.92v25.82H53.76z"/></g><g clip-path="url(#clip-path-32)"><path d="M57.42 163.79h23.79v23.98H57.42z"/></g></svg>