<svg id="Layer_1" data-name="Layer 1" xmlns="http://www.w3.org/2000/svg" viewBox="0 0 233.78 216.13"><defs><clipPath id="clip-path"><path class="cls-1" d="M108.93 84.63L99 59.72a2 2 0 00-1.77-1.2 1.59 1.59 0 00-1.74 1.2L83.77 84.63a1.81 1.81 0 00-.87 1.8 13.59 13.59 0 0013.45 13.81h.29a13.78 13.78 0 0013.45-13.81c-.29-.6-.59-1.5-1.16-1.8zM97.22 65.42l7.61 18.91H88.46zm-.87 30.92c-4.69 0-8.19-3.3-9.35-7.81h18.42a9 9 0 01-9.07 7.81z"/></clipPath><clipPath id="clip-path-2"><path class="cls-2" d="M66.14 40.33h100.28v136.41H66.14z"/></clipPath><clipPath id="clip-path-3"><path class="cls-1" d="M147.21 126.32h-47a1.75 1.75 0 110-3.48h47a1.76 1.76 0 110 3.48"/></clipPath><clipPath id="clip-path-5"><path class="cls-1" d="M159.92 84.63L150 59.72a2 2 0 00-1.77-1.2 1.62 1.62 0 00-1.76 1.2l-11.71 24.91a1.81 1.81 0 00-.87 1.8 13.59 13.59 0 0013.45 13.81h.29a13.78 13.78 0 0013.45-13.81c-.29-.9-.57-1.5-1.16-1.8zm-12-19.21l7.61 18.91h-16.38zM147.34 96c-4.68 0-8.19-3.3-9.35-7.81h18.42a9.43 9.43 0 01-9.07 7.81z"/></clipPath><clipPath id="clip-path-7"><path class="cls-1" d="M147.45 50.94H130a6.54 6.54 0 00-4.21-4.44v-5a2 2 0 10-3.94 0v5a6.14 6.14 0 00-4 4.44h-17.68a2.08 2.08 0 000 4.15h17.72a5.74 5.74 0 004 4.15v56h-12.1a2.07 2.07 0 000 4.14h27.81a2.07 2.07 0 000-4.14h-12.1v-56.3a5.67 5.67 0 003.92-4.15h17.75a2 2 0 002-2.07c.28-.89-.57-1.78-1.68-1.78m-23.37 4.45a2.67 2.67 0 010-5.33 2.67 2.67 0 010 5.33"/></clipPath><clipPath id="clip-path-9"><path class="cls-2" d="M67.6 133.27h98.58v43.46H67.6z"/></clipPath><clipPath id="clip-path-11"><path class="cls-2" d="M66.14 133.13h100.28v43.6H66.14z"/></clipPath><clipPath id="clip-path-12"><path class="cls-1" d="M165.87 149a7.64 7.64 0 00-3.64-4.55 7.25 7.25 0 00-5.56-.63l-19.2 3.84a8.28 8.28 0 00-7.2-4.08h-9.94c-.22 0-3.12.31-8-1.53-3.14-1.16-5.1-1.93-6.52-2.49-1.24-.49-2.07-.81-2.85-1.09-1.55-.52-8.31-.64-13.08-.66a5 5 0 00-4.95-4.53H67.6v4.87h8.94v27.55H67.6v4.87h17.33a5 5 0 004.66-3.31 13.24 13.24 0 015.5 1.26l.15.11 16.28 6a29.94 29.94 0 0010.16 2.07 11.45 11.45 0 003.47-.43l.15-.05 13.26-6.82 22.49-11a7.75 7.75 0 004.82-9.4zm-80.68 16.43a.26.26 0 01-.26.27h-3.66v-27.56h3.66a.26.26 0 01.26.27zm74.32-11.55l-.18.05L136.51 165l-12.95 6.66c-.7.15-4.14.69-10.44-1.62l-15.85-5.84a17.58 17.58 0 00-7.35-1.79v-19.75a115.87 115.87 0 0111.58.43c.67.24 1.46.54 2.61 1 1.46.57 3.45 1.34 6.61 2.53 5.6 2.1 9.15 1.89 10.11 1.79h9.44a3 3 0 110 5.94h-9.55l-5.84-.13a7 7 0 00-5.43 1.56 6.42 6.42 0 00-1.89 5.37l4.73-.25c0-.43 0-1.18.32-1.49a2.55 2.55 0 011.73-.36h.13l6.17.14h9.63a8.09 8.09 0 008.13-6.83l19.3-3.85.22-.06a2.65 2.65 0 012.09.22 2.82 2.82 0 011.33 1.66 2.85 2.85 0 01-1.83 3.55z"/></clipPath><clipPath id="clip-path-13"><path class="cls-2" d="M66.14 133.27h100.28v43.46H66.14z"/></clipPath><clipPath id="clip-path-14"><path class="cls-1" d="M90.79 127.19a2.61 2.61 0 10-2.55-2.61 2.59 2.59 0 002.55 2.61z"/></clipPath><style>.cls-1,.cls-2{fill:none}.cls-1{clip-rule:evenodd}</style></defs><g clip-path="url(#clip-path)"><path d="M74.4 49.82h44.19v59.11H74.4z"/></g><g clip-path="url(#clip-path-3)"><path d="M89.7 114.15h67.99v20.86H89.7z"/></g><g clip-path="url(#clip-path-5)"><path d="M125.39 49.82h44.19v59.11h-44.19z"/></g><g clip-path="url(#clip-path-7)"><path d="M89.7 30.7h67.99v97.35H89.7z"/></g><g clip-path="url(#clip-path-9)"><g clip-path="url(#clip-path-11)"><g clip-path="url(#clip-path-12)"><g clip-path="url(#clip-path-13)"><path fill="#3ba07a" d="M59.1 124.58h115.58v60.85H59.1z"/></g></g></g></g><g clip-path="url(#clip-path-14)"><path d="M79.74 113.28h22.1v22.6h-22.1z"/></g></svg>