<svg id="Layer_1" data-name="Layer 1" xmlns="http://www.w3.org/2000/svg" viewBox="0 0 233.78 216.13"><defs><clipPath id="clip-path"><path class="cls-1" d="M102.24 84.63L92.08 59.72a2 2 0 00-1.79-1.2 1.65 1.65 0 00-1.79 1.2L76.56 84.63a1.8 1.8 0 00-.9 1.8 13.74 13.74 0 0013.74 13.81h.3a13.94 13.94 0 0013.74-13.81c-.31-.6-.59-1.5-1.2-1.8zM90.29 65.42l7.76 18.91H81.33zm-.89 30.92c-4.78 0-8.37-3.3-9.57-7.81h18.83a9.13 9.13 0 01-9.26 7.81z"/></clipPath><clipPath id="clip-path-2"><path class="cls-2" d="M58.53 39.62h101.92v136.86H58.53z"/></clipPath><clipPath id="clip-path-3"><path class="cls-1" d="M141.37 126.32H93.3a1.76 1.76 0 110-3.48h48.07a1.76 1.76 0 110 3.48"/></clipPath><clipPath id="clip-path-5"><path class="cls-1" d="M154.34 84.63l-10.16-24.91a2 2 0 00-1.79-1.2 1.63 1.63 0 00-1.78 1.2l-12 24.91a1.83 1.83 0 00-.9 1.8 13.74 13.74 0 0013.76 13.81h.31a13.93 13.93 0 0013.73-13.81c-.28-.9-.51-1.5-1.17-1.8zm-12.25-19.21l7.78 18.91h-16.74zM141.5 96c-4.8 0-8.37-3.3-9.57-7.81h18.84A9.6 9.6 0 01141.5 96z"/></clipPath><clipPath id="clip-path-7"><path class="cls-1" d="M141.61 50.94h-17.83a6.62 6.62 0 00-4.32-4.44v-5a2 2 0 10-4 0v5a6.16 6.16 0 00-4 4.44H93.3a2.08 2.08 0 000 4.15h18.12a5.76 5.76 0 004 4.15v56h-12.35a2.07 2.07 0 000 4.14h28.47a2.07 2.07 0 000-4.14h-12.36v-56.3a5.77 5.77 0 004-4.15h18.14a2 2 0 002-2.07c.28-.89-.59-1.78-1.72-1.78m-23.87 4.45a2.67 2.67 0 112.59-2.67 2.63 2.63 0 01-2.59 2.67"/></clipPath><clipPath id="clip-path-9"><path class="cls-2" d="M60.03 133.27h100.72v43.46H60.03z"/></clipPath><clipPath id="clip-path-11"><path class="cls-2" d="M58.53 133.13h102.46v43.6H58.53z"/></clipPath><clipPath id="clip-path-12"><path class="cls-1" d="M160.42 149a7.63 7.63 0 00-9.37-5.18l-19.64 3.84a8.48 8.48 0 00-7.35-4.08h-10.2c-.24 0-3.18.31-8.17-1.53-3.21-1.16-5.21-1.93-6.67-2.49-1.27-.49-2.12-.81-2.9-1.09-1.57-.52-8.48-.64-13.37-.66a5.1 5.1 0 00-5.05-4.53H60v4.87h9.12v27.55H60v4.87h17.74a5.07 5.07 0 004.75-3.31 13.65 13.65 0 015.62 1.26l.15.11 16.64 6a31.13 31.13 0 0010.38 2.07 11.51 11.51 0 003.53-.43l.17-.05 13.54-6.82 23-11a7.71 7.71 0 004.9-9.4zM78 165.43a.26.26 0 01-.26.27H74v-27.56h3.75a.26.26 0 01.26.27zm75.93-11.55l-.18.05L130.43 165l-13.24 6.66c-.69.15-4.23.69-10.66-1.62l-16.19-5.84a18.26 18.26 0 00-7.5-1.79v-19.75c5.16 0 10.77.19 11.81.43.7.24 1.51.54 2.68 1 1.49.57 3.51 1.34 6.74 2.53 5.73 2.1 9.37 1.89 10.35 1.79h9.64c1.92 0 3.55 1.36 3.55 3s-1.63 3-3.55 3h-9.77l-6-.13a7.27 7.27 0 00-5.56 1.56 6.51 6.51 0 00-1.94 5.37l4.84-.25c0-.43 0-1.18.33-1.49a2.66 2.66 0 011.77-.36h.13l6.3.14h9.85a8.22 8.22 0 008.31-6.83l19.7-3.85.24-.06a2.71 2.71 0 012.12.22 2.82 2.82 0 01-.5 5.18z"/></clipPath><clipPath id="clip-path-13"><path class="cls-2" d="M58.53 133.27h102.46v43.46H58.53z"/></clipPath><clipPath id="clip-path-14"><path class="cls-1" d="M83.71 127.19a2.61 2.61 0 10-2.6-2.61 2.61 2.61 0 002.6 2.61z"/></clipPath><style>.cls-1,.cls-2{fill:none}.cls-1{clip-rule:evenodd}.cls-4{clip-path:url(#clip-path-2)}.cls-5{fill:#3ba07a}</style></defs><g class="cls-4" clip-path="url(#clip-path)"><path class="cls-5" d="M66.97 49.82h45.15v59.11H66.97z"/></g><g class="cls-4" clip-path="url(#clip-path-3)"><path class="cls-5" d="M82.6 114.15h69.46v20.86H82.6z"/></g><g class="cls-4" clip-path="url(#clip-path-5)"><path class="cls-5" d="M119.07 49.82h45.15v59.11h-45.15z"/></g><g class="cls-4" clip-path="url(#clip-path-7)"><path class="cls-5" d="M82.6 30.7h69.46v97.35H82.6z"/></g><g clip-path="url(#clip-path-9)"><g clip-path="url(#clip-path-11)"><g clip-path="url(#clip-path-12)"><g clip-path="url(#clip-path-13)"><path class="cls-5" d="M51.34 124.58h118.09v60.85H51.34z"/></g></g></g></g><g class="cls-4" clip-path="url(#clip-path-14)"><path class="cls-5" d="M72.42 113.28H95v22.6H72.42z"/></g></svg>