<svg id="Layer_1" data-name="Layer 1" xmlns="http://www.w3.org/2000/svg" viewBox="0 0 233.78 216.13"><defs><clipPath id="clip-path"><path class="cls-1" d="M56.04 41.8h114.6v108.26H56.04z"/></clipPath><clipPath id="clip-path-2"><path class="cls-1" d="M56.26 40.92h114.92v110.69H56.26z"/></clipPath><clipPath id="clip-path-3"><path class="cls-1" d="M55.63 40.92h116.04v110.69H55.63z"/></clipPath><clipPath id="clip-path-4"><path class="cls-2" d="M170.29 71c0-15.32-21.67-16.37-23.82-2.11h-14.32v-1.74a2.11 2.11 0 00-1.26-1.76l-4.3-1.24a21.14 21.14 0 00-2.5-5.81l2.15-3.87a1.86 1.86 0 00-.36-2.11l-5-4.93a1.93 1.93 0 00-2.15-.35l-3.58 2.64a24.6 24.6 0 00-5.91-2.47L108 43a1.72 1.72 0 00-1.61-1.23h-7A1.72 1.72 0 0097.76 43l-1.25 4.22a28 28 0 00-5.91 2.47l-3.94-2.11a2 2 0 00-2.15.35l-5 4.93a1.84 1.84 0 00-.37 2.14l2.15 3.87a21.16 21.16 0 00-2.51 5.81l-4.3 1.23a1.71 1.71 0 00-1.25 1.59v1.76h-12a5.15 5.15 0 00-5.23 5.1V145a5.15 5.15 0 005.19 5.1h96.7a13.55 13.55 0 008.06-2.81c6.49-5.68 4.34-5.16 4.34-76.29zm-12-8.63a8.6 8.6 0 018.6 8.8v58.62a12.25 12.25 0 00-17.19 0V70.67a8.61 8.61 0 018.59-8.28zM77 68.55l3.94-1a2.16 2.16 0 001.25-1.23 20 20 0 012.87-6.69 1.57 1.57 0 000-1.76l-2-3.52 3-3 3.58 1.94a1.67 1.67 0 001.8 0 20.56 20.56 0 016.8-2.82 1.77 1.77 0 001.26-1.23l1.25-3.87h4.3l1.07 3.87a2.14 2.14 0 001.25 1.23 21.81 21.81 0 016.63 2.64 1.62 1.62 0 001.79 0l3.58-1.93 3 3-2 3.52a1.57 1.57 0 000 1.76 22.47 22.47 0 012.86 6.69 1.74 1.74 0 001.26 1.23l3.93 1.06v4.16l-3.93 1.06a2.15 2.15 0 00-1.26 1.23 20 20 0 01-2.86 6.69 1.57 1.57 0 000 1.76l2 3.52-3 3-3.58-1.93a1.66 1.66 0 00-1.79 0 24 24 0 01-6.63 2.81 1.77 1.77 0 00-1.19 1.26l-1.07 3.87h-4.3L99.73 92a2.13 2.13 0 00-1.25-1.24 18.19 18.19 0 01-6.63-2.81 1.66 1.66 0 00-1.79 0l-3.58 1.93-3-3 2-3.52a1.57 1.57 0 000-1.76 22.13 22.13 0 01-2.87-6.69 1.76 1.76 0 00-1.25-1.23l-4.01-1.08v-4zm86.85 75.7a9 9 0 01-5.91 2.11H61.23a1.79 1.79 0 01-1.79-1.76V74.19a1.78 1.78 0 011.79-1.76h12.36v1.76a1.69 1.69 0 001.25 1.58l4.3 1.23a21 21 0 002.51 5.81l-2.15 3.88a1.85 1.85 0 00.35 2.11l5 4.93a2 2 0 002.15.35L91 92a22.2 22.2 0 005.91 2.46l1.25 4.23a1.72 1.72 0 001.61 1.23h7a1.72 1.72 0 001.61-1.23l1.25-4.23a28.53 28.53 0 005.86-2.46l3.94 2.11a2 2 0 002.15-.35l5-4.93a1.84 1.84 0 00.36-2.11l-2.15-3.88a21 21 0 002.52-5.84l4.3-1.23a1.69 1.69 0 001.25-1.58v-1.76H147v65.65a1.79 1.79 0 003.58 0 8.52 8.52 0 018.59-8.44c4.12 0 8.42 3.87 8.42 9.5a15.93 15.93 0 01-3.75 5.11z"/></clipPath><clipPath id="clip-path-5"><path class="cls-1" d="M55.63 40.92h116.04V150.2H55.63z"/></clipPath><clipPath id="clip-path-6"><path class="cls-2" d="M70.28 90.5a1.35 1.35 0 00-1.74-.36 1.58 1.58 0 00-1 1.62v47A1.42 1.42 0 0068 140a2.38 2.38 0 001 .35h45.48a1.64 1.64 0 001.56-1.07 2 2 0 00-.34-2zm.34 46.5V95.89L110.38 137z"/></clipPath><clipPath id="clip-path-8"><path class="cls-2" d="M76.46 130.59h15.1a1.73 1.73 0 001.62-1.14 2.13 2.13 0 00-.36-2.07l-15.1-15.84a1.59 1.59 0 00-2-.37 1.65 1.65 0 00-1.08 1.69v15.84a1.85 1.85 0 001.82 1.89zm1.8-13.2l9.17 9.61h-9.17z"/></clipPath><clipPath id="clip-path-10"><path class="cls-2" d="M102.55 83a11.15 11.15 0 008.39-3.84 9.92 9.92 0 002.13-8.89A10.71 10.71 0 10102.55 83m-4.63-16a7.11 7.11 0 014.63-1.57 4.92 4.92 0 011.61.18 7.5 7.5 0 015.53 5.4 6.85 6.85 0 01-1.43 5.99 7.38 7.38 0 01-13-4.53 7.63 7.63 0 012.68-5.59"/></clipPath><clipPath id="clip-path-12"><path class="cls-2" d="M135.72 104H108a2.13 2.13 0 000 4.21h27.9a2 2 0 001.8-2.1c-.18-1.26-.9-2.11-2-2.11"/></clipPath><clipPath id="clip-path-14"><path class="cls-2" d="M135.72 116.58H108a2.12 2.12 0 000 4.2h27.9a2 2 0 001.8-2.1c-.18-1.27-.9-2.1-2-2.1"/></clipPath><clipPath id="clip-path-16"><path class="cls-1" d="M69.96 146h20.06v5.6H69.96z"/></clipPath><clipPath id="clip-path-18"><path class="cls-2" d="M75 150.2a2.1 2.1 0 10-2.15-2.1 2.12 2.12 0 002.15 2.1z"/></clipPath><style>.cls-1,.cls-2{fill:none}.cls-2{clip-rule:evenodd}</style></defs><g clip-path="url(#clip-path)"><g clip-path="url(#clip-path-3)"><g clip-path="url(#clip-path-4)"><g clip-path="url(#clip-path-5)"><path d="M48.88 34.79H177.8v122.27H48.88z"/></g></g></g></g><g clip-path="url(#clip-path-6)"><path d="M60.34 82.95h63.03v64.45H60.34z"/></g><g clip-path="url(#clip-path-8)"><path d="M67.5 103.97h32.95v33.63H67.5z"/></g><g clip-path="url(#clip-path-10)"><path d="M84.69 54.93h35.82v35.03H84.69z"/></g><g clip-path="url(#clip-path-12)"><path d="M99.02 96.96h45.84v18.21H99.02z"/></g><g clip-path="url(#clip-path-14)"><path d="M99.02 109.57h45.84v18.21H99.02z"/></g><g clip-path="url(#clip-path-16)"><path fill="#fff" d="M62.79 138.99h34.38v19.62H62.79z"/></g><g clip-path="url(#clip-path-18)"><path d="M65.66 138.99h18.62v18.21H65.66z"/></g></svg>