<svg id="Layer_1" data-name="Layer 1" xmlns="http://www.w3.org/2000/svg" viewBox="0 0 233.78 216.13"><defs><clipPath id="clip-path"><path class="cls-1" d="M37.88 118.76h108.69a3.89 3.89 0 013.9 3.89v48.6a3.89 3.89 0 01-3.9 3.89H37.88a3.89 3.89 0 01-3.88-3.89v-48.6a3.89 3.89 0 013.88-3.89z"/></clipPath><clipPath id="clip-path-2"><path class="cls-2" d="M32.06 33.4h141.27v143.34H32.06z"/></clipPath><clipPath id="clip-path-3"><path class="cls-2" d="M32.06 117.87h119.9v58.86H32.06z"/></clipPath><clipPath id="clip-path-4"><path class="cls-2" d="M34 118.4h116.47v58.33H34z"/></clipPath><clipPath id="clip-path-6"><path class="cls-1" d="M123.29 91.54h5.82a7.76 7.76 0 017.76 7.77v23.34h-19.4V97.37a5.81 5.81 0 015.82-5.83z"/></clipPath><clipPath id="clip-path-8"><path class="cls-2" d="M117.07 89.53h21.8v34.88h-21.8z"/></clipPath><clipPath id="clip-path-9"><path class="cls-2" d="M117.47 91.18h19.41v33.05h-19.41z"/></clipPath><clipPath id="clip-path-11"><path class="cls-1" d="M146.57 161.53a27.22 27.22 0 10-27.16-27.22 27.19 27.19 0 0027.16 27.22z"/></clipPath><clipPath id="clip-path-13"><path class="cls-1" d="M156 127.12l-14 14.13-6.78-6.86a2 2 0 00-2.79 0 1.94 1.94 0 000 2.75l8.2 8.28a2 2 0 002.77 0l15.39-15.55a1.94 1.94 0 000-2.75 2 2 0 00-2.79 0"/></clipPath><clipPath id="clip-path-16"><path class="cls-1" d="M55.34 91.54h5.84a7.78 7.78 0 017.76 7.77v23.34H49.52V97.37a5.83 5.83 0 015.82-5.83z"/></clipPath><clipPath id="clip-path-18"><path class="cls-2" d="M49.5 89.53h19.62v34.88H49.5z"/></clipPath><clipPath id="clip-path-19"><path class="cls-2" d="M49.52 91.18h19.41v33.05H49.52z"/></clipPath><clipPath id="clip-path-20"><path class="cls-2" d="M51.46 168.95h27.18v7.78H51.46z"/></clipPath><clipPath id="clip-path-22"><circle class="cls-2" cx="58.26" cy="172.84" r="2.92"/></clipPath><style>.cls-1,.cls-2,.cls-8,.cls-9{fill:none}.cls-1{clip-rule:evenodd}.cls-4{clip-path:url(#clip-path-2)}.cls-8,.cls-9{stroke:#16103e;stroke-miterlimit:10}.cls-8{stroke-width:4.46px}.cls-9{stroke-width:2.23px}.cls-14{fill:#fff}</style></defs><g clip-path="url(#clip-path)"><g clip-path="url(#clip-path-3)"><g clip-path="url(#clip-path-4)"><path class="cls-8" d="M37.88 118.76h108.7a3.89 3.89 0 013.88 3.89v48.6a3.89 3.89 0 01-3.88 3.89H37.88a3.88 3.88 0 01-3.88-3.89v-48.6a3.88 3.88 0 013.88-3.89z"/></g></g></g><g class="cls-4"><path class="cls-9" d="M51.26 37.1h81.79a3.88 3.88 0 013.5 2.2l11.23 23.33a3.88 3.88 0 01-3.5 5.57H37.07a1.94 1.94 0 01-1.94-1.94 2 2 0 01.19-.84l12.44-26.11a3.87 3.87 0 013.5-2.21z"/><path class="cls-9" d="M59.24 66.26v24.41q10.53 9.51 21.35 0"/><path class="cls-9" d="M80.58 66.26v24.41q11.51 9.51 23.29 0m.02-24.41v24.41q11.49 9.51 23.29 0"/><path class="cls-9" d="M127.17 66.26v24.41q10.53 9.51 21.35 0m-.98 2.77V66.26"/></g><g clip-path="url(#clip-path-6)"><g clip-path="url(#clip-path-8)"><g clip-path="url(#clip-path-9)"><path class="cls-8" d="M123.29 91.54h5.82a7.77 7.77 0 017.77 7.78v23.33h-19.41V97.37a5.82 5.82 0 015.82-5.83z"/></g></g></g><g class="cls-4"><path class="cls-9" d="M82.52 68.21l5.83-29.17m17.48 29.17l-1.94-29.17m23.28 29.17l-7.76-31.11"/></g><g class="cls-4" clip-path="url(#clip-path-11)"><path class="cls-14" d="M109.71 97.37h73.76v73.88h-73.76z"/></g><g clip-path="url(#clip-path-13)"><path fill="#3ba07a" d="M122.15 116.81h46.91v38.89h-46.91z"/></g><g class="cls-4"><ellipse cx="145.61" cy="134.93" rx="22.32" ry="22.36" stroke="#3ba07a" stroke-width="1.78" stroke-miterlimit="10" fill="none"/><path class="cls-9" d="M35.94 64.32v26q11.49 10.16 23.29 0m-.42-21.97l11.7-30.85"/></g><g clip-path="url(#clip-path-16)"><g clip-path="url(#clip-path-18)"><g clip-path="url(#clip-path-19)"><path class="cls-8" d="M55.34 91.54h5.82a7.77 7.77 0 017.77 7.78v23.33H49.52V97.37a5.82 5.82 0 015.82-5.83z"/></g></g></g><g class="cls-4" clip-path="url(#clip-path-20)"><path class="cls-14" d="M41.76 159.23h46.59v27.22H41.76z"/></g><g clip-path="url(#clip-path-22)"><path fill="#16103e" d="M45.64 160.21h25.23v25.28H45.64z"/></g></svg>