<svg id="Layer_1" data-name="Layer 1" xmlns="http://www.w3.org/2000/svg" viewBox="0 0 233.78 216.13"><defs><clipPath id="clip-path"><path class="cls-1" d="M61.11 128.18h97a3.48 3.48 0 013.47 3.47v43.46a3.48 3.48 0 01-3.47 3.47h-97a3.47 3.47 0 01-3.44-3.47v-43.46a3.46 3.46 0 013.44-3.47z"/></clipPath><clipPath id="clip-path-2"><path class="cls-2" d="M56.19 51.55h126.19v128.2H56.19z"/></clipPath><clipPath id="clip-path-3"><path class="cls-2" d="M55.92 127.68h106.82V180H55.92z"/></clipPath><clipPath id="clip-path-4"><path class="cls-2" d="M57.67 127.86h103.92V180H57.67z"/></clipPath><clipPath id="clip-path-6"><path class="cls-1" d="M137.32 103.84h5.22a6.94 6.94 0 016.91 7v20.85h-17.31v-22.63a5.21 5.21 0 015.18-5.22z"/></clipPath><clipPath id="clip-path-8"><path class="cls-2" d="M130.04 103.7h19.62v28.34h-19.62z"/></clipPath><clipPath id="clip-path-9"><path class="cls-2" d="M132.14 103.7h17.32v28.34h-17.32z"/></clipPath><clipPath id="clip-path-11"><path class="cls-1" d="M158.12 166.41a24.33 24.33 0 10-24.26-24.33 24.28 24.28 0 0024.26 24.33z"/></clipPath><clipPath id="clip-path-13"><path class="cls-1" d="M166.52 135.65l-12.47 12.64-6.05-6.14a1.77 1.77 0 00-2.49 0 1.73 1.73 0 000 2.45l7.3 7.41a1.79 1.79 0 002.49 0l13.7-13.92a1.74 1.74 0 000-2.46 1.76 1.76 0 00-2.48 0"/></clipPath><clipPath id="clip-path-16"><path class="cls-1" d="M76.7 103.84h5.21a7 7 0 016.93 7v20.85H71.51v-22.63a5.21 5.21 0 015.19-5.22z"/></clipPath><clipPath id="clip-path-18"><path class="cls-2" d="M71.18 103.7H90.8v28.34H71.18z"/></clipPath><clipPath id="clip-path-19"><path class="cls-2" d="M71.51 103.7h17.32v28.34H71.51z"/></clipPath><clipPath id="clip-path-20"><path class="cls-2" d="M73.25 173.05h24.24V180H73.25z"/></clipPath><clipPath id="clip-path-22"><path class="cls-1" d="M79.32 179.13a2.61 2.61 0 10-2.62-2.6 2.61 2.61 0 002.62 2.6z"/></clipPath><style>.cls-1,.cls-2,.cls-8,.cls-9{fill:none}.cls-1{clip-rule:evenodd}.cls-4{clip-path:url(#clip-path-2)}.cls-8,.cls-9{stroke:#3ba07a;stroke-miterlimit:10}.cls-8{stroke-width:3.98px}.cls-9{stroke-width:1.99px}.cls-14{fill:#fff}.cls-16{fill:#3ba07a}</style></defs><g clip-path="url(#clip-path)"><g clip-path="url(#clip-path-3)"><g clip-path="url(#clip-path-4)"><path class="cls-8" d="M61.13 128.18h97a3.46 3.46 0 013.46 3.47v43.46a3.46 3.46 0 01-3.46 3.47h-97a3.46 3.46 0 01-3.46-3.47v-43.46a3.46 3.46 0 013.46-3.47z"/></g></g></g><g class="cls-4"><path class="cls-9" d="M73.07 55.18h73a3.46 3.46 0 013.12 2L159.2 78a3.48 3.48 0 01-1.62 4.64 3.44 3.44 0 01-1.51.34L60.41 83a1.74 1.74 0 01-1.56-2.49L70 57.15a3.46 3.46 0 013.07-1.97z"/><path class="cls-9" d="M80.17 81.25v21.82q9.39 8.5 19 0m.05-21.82v21.82q10.26 8.5 20.78 0m0-21.82v21.82q10.24 8.5 20.78 0m.01-21.82v21.82q9.41 8.5 19.05 0m-.85 2.47V81.25"/></g><g clip-path="url(#clip-path-6)"><g clip-path="url(#clip-path-8)"><g clip-path="url(#clip-path-9)"><path class="cls-8" d="M137.33 103.84h5.2a7 7 0 016.93 7v20.85h-17.32v-22.63a5.2 5.2 0 015.19-5.22z"/></g></g></g><g class="cls-4"><path class="cls-9" d="M100.96 82.98l5.2-26.07m15.59 26.07l-1.73-26.07m20.77 26.08l-6.93-27.81"/></g><g class="cls-4" clip-path="url(#clip-path-11)"><path class="cls-14" d="M125.2 109.06h65.82v66.05H125.2z"/></g><g class="cls-4" clip-path="url(#clip-path-13)"><path class="cls-16" d="M136.32 126.44h41.86v34.76h-41.86z"/></g><g class="cls-4"><ellipse cx="157.24" cy="142.63" rx="19.92" ry="19.99" stroke-width="1.59" stroke="#3ba07a" stroke-miterlimit="10" fill="none"/><path class="cls-9" d="M59.39 79.51v23.27q10.26 9.07 20.78 0m-.38-19.67l10.44-27.57"/></g><g clip-path="url(#clip-path-16)"><g clip-path="url(#clip-path-18)"><g clip-path="url(#clip-path-19)"><path class="cls-8" d="M76.71 103.84h5.19a7 7 0 016.93 7v20.85H71.51v-22.63a5.21 5.21 0 015.2-5.22z"/></g></g></g><g class="cls-4" clip-path="url(#clip-path-20)"><path class="cls-14" d="M64.58 164.36h41.57v24.33H64.58z"/></g><g class="cls-4" clip-path="url(#clip-path-22)"><path class="cls-16" d="M68.04 165.23h22.52v22.6H68.04z"/></g></svg>