<svg id="Layer_1" data-name="Layer 1" xmlns="http://www.w3.org/2000/svg" viewBox="0 0 233.78 216.13"><defs><clipPath id="clip-path"><path class="cls-1" d="M51.72 122.45H156a8 8 0 018 8v42.07a8 8 0 01-8 8H51.72a8 8 0 01-8-8v-42.06a8 8 0 018-8.01z"/></clipPath><clipPath id="clip-path-2"><path class="cls-2" d="M41.69 33.94h150.39v148.24H41.69z"/></clipPath><clipPath id="clip-path-3"><path class="cls-2" d="M41.69 121.14h124.26v61.04H41.69z"/></clipPath><clipPath id="clip-path-4"><path class="cls-2" d="M43.7 122.09h120.34v60.1H43.7z"/></clipPath><clipPath id="clip-path-6"><path class="cls-1" d="M136 94.41h6a8 8 0 018 8v24h-20.06v-26a6 6 0 016.06-6z"/></clipPath><clipPath id="clip-path-8"><path class="cls-2" d="M128.89 92.8h21.8v34.88h-21.8z"/></clipPath><clipPath id="clip-path-9"><path class="cls-2" d="M129.94 94.04H150v33.64h-20.06z"/></clipPath><clipPath id="clip-path-11"><path class="cls-1" d="M65.76 94.41h6a8 8 0 018 8v24H59.74v-26a6 6 0 016.02-6z"/></clipPath><clipPath id="clip-path-13"><path class="cls-2" d="M59.13 92.8h21.8v34.88h-21.8z"/></clipPath><clipPath id="clip-path-14"><path class="cls-2" d="M59.74 94.04H79.8v33.64H59.74z"/></clipPath><clipPath id="clip-path-15"><path class="cls-2" d="M61.75 174.17h28.08v8.01H61.75z"/></clipPath><clipPath id="clip-path-17"><path class="cls-1" d="M68.77 181.18a3 3 0 10-3-3 3 3 0 003 3z"/></clipPath><clipPath id="clip-path-19"><path class="cls-1" d="M163.71 168.16a28 28 0 10-27.76-28 27.91 27.91 0 0027.76 28z"/></clipPath><style>.cls-1,.cls-2,.cls-8,.cls-9{fill:none}.cls-1{clip-rule:evenodd}.cls-4{clip-path:url(#clip-path-2)}.cls-8,.cls-9{stroke:#000;stroke-miterlimit:10}.cls-8{stroke-width:4.6px}.cls-9{stroke-width:2.3px}.cls-17{fill:#fff}</style></defs><g clip-path="url(#clip-path)"><g clip-path="url(#clip-path-3)"><g clip-path="url(#clip-path-4)"><path class="cls-8" d="M51.72 122.45H156a8 8 0 018 8v42.07a8 8 0 01-8 8H51.72a8 8 0 01-8-8v-42.06a8 8 0 018-8.01z"/></g></g></g><g class="cls-4"><path class="cls-9" d="M61.53 38.32H146a4 4 0 013.62 2.26l11.6 24a4 4 0 01-1.83 5.42 4.08 4.08 0 01-1.75.4l-110.76-.08a2 2 0 01-2-2 2 2 0 01.2-.86L57.91 40.6a4 4 0 013.62-2.28z"/><path class="cls-9" d="M67.76 68.36v25.15q11.88 9.81 24.07 0"/><path class="cls-9" d="M91.83 68.36v25.15q11.88 9.81 24.07 0m0-25.15v25.15q11.88 9.81 24.07 0m.03-25.15v25.15q10.88 9.81 22.06 0m-1.04 2.85v-28"/></g><g clip-path="url(#clip-path-6)"><g clip-path="url(#clip-path-8)"><g clip-path="url(#clip-path-9)"><path class="cls-8" d="M136 94.41h6a8 8 0 018 8v24h-20.06v-26a6 6 0 016.06-6z"/></g></g></g><g class="cls-4"><path class="cls-9" d="M93.84 70.37l6.01-30.05m18.05 30.05l-2-30.05m24.07 30.05l-8.03-32.05M45.7 66.36v26.82q11.88 10.45 24.07 0m-2.45-23.03l12.09-31.79"/></g><g clip-path="url(#clip-path-11)"><g clip-path="url(#clip-path-13)"><g clip-path="url(#clip-path-14)"><path class="cls-8" d="M65.76 94.41h6a8 8 0 018 8v24H59.74v-26a6 6 0 016.02-6z"/></g></g></g><g class="cls-4" clip-path="url(#clip-path-15)"><path class="cls-17" d="M51.72 164.15h48.13v28.05H51.72z"/></g><g clip-path="url(#clip-path-17)"><path d="M55.73 165.15H81.8v26.04H55.73z"/></g><g class="cls-4" clip-path="url(#clip-path-19)"><path class="cls-17" d="M125.93 102.05h75.57v76.12h-75.57z"/></g><g class="cls-4" stroke-width="1.84" stroke="#000" stroke-miterlimit="10" fill="none"><ellipse cx="164.85" cy="140.12" rx="23.79" ry="24.04"/><path stroke-linecap="round" d="M152.39 139.72l9.07 8.41 15.12-14.03"/></g></svg>