<svg id="Layer_1" data-name="Layer 1" xmlns="http://www.w3.org/2000/svg" viewBox="0 0 233.78 216.13"><defs><clipPath id="clip-path"><path class="cls-1" d="M158.35 71.54l-6.11-12.08a1.54 1.54 0 00-2.05-.67l-12.21 6a1.49 1.49 0 00-.68 2 1.52 1.52 0 002 .68l8.85-4.37-2.37 6.9a81.32 81.32 0 01-69.85 53.57l.26 3A84.37 84.37 0 00148.66 71l2.47-7 4.49 8.88a1.54 1.54 0 002 .68 1.51 1.51 0 00.68-2"/></clipPath><clipPath id="clip-path-2"><path class="cls-2" d="M74.99 58.6h83.56v97.75H74.99z"/></clipPath><clipPath id="clip-path-3"><path class="cls-2" d="M69.95 58.63h91.61v90.58H69.95z"/></clipPath><clipPath id="clip-path-5"><path class="cls-2" d="M74.99 86.98h83.56v56.76H74.99z"/></clipPath><clipPath id="clip-path-6"><path class="cls-1" d="M88.21 131.25H77.52a1.53 1.53 0 00-1.52 1.51v9.06a1.53 1.53 0 001.53 1.51h10.68a1.53 1.53 0 001.53-1.51v-9.06a1.53 1.53 0 00-1.53-1.51zm-9.16 9.06h7.63v-6h-7.63z"/></clipPath><clipPath id="clip-path-7"><path class="cls-2" d="M75.99 86.98h81.54v56.4H75.99z"/></clipPath><clipPath id="clip-path-8"><path class="cls-1" d="M105.07 126.56H94.38a1.52 1.52 0 00-1.52 1.51v13.59a1.52 1.52 0 001.52 1.51h10.69a1.53 1.53 0 001.53-1.51v-13.59a1.53 1.53 0 00-1.53-1.51zm-9.16 13.59h7.63v-10.57h-7.63z"/></clipPath><clipPath id="clip-path-10"><path class="cls-1" d="M121.87 119h-10.69a1.52 1.52 0 00-1.53 1.51v21.14a1.52 1.52 0 001.53 1.51h10.69a1.52 1.52 0 001.52-1.51v-21.13a1.52 1.52 0 00-1.52-1.52zm-9.17 21.14h7.64V122h-7.64z"/></clipPath><clipPath id="clip-path-12"><path class="cls-1" d="M138.66 108.45H128a1.51 1.51 0 00-1.52 1.51v31.7a1.52 1.52 0 001.52 1.51h10.69a1.53 1.53 0 001.53-1.51V110a1.52 1.52 0 00-1.56-1.55zm-9.16 31.7h7.63v-28.69h-7.63z"/></clipPath><clipPath id="clip-path-14"><path class="cls-1" d="M155.46 87.31h-10.69a1.53 1.53 0 00-1.53 1.51v52.84a1.53 1.53 0 001.53 1.51h10.69a1.52 1.52 0 001.52-1.51V88.82a1.52 1.52 0 00-1.52-1.51zm-9.16 52.84h7.63V90.33h-7.63z"/></clipPath><clipPath id="clip-path-16"><path class="cls-1" d="M83.54 152.35H156a1.5 1.5 0 110 3H83.54a1.5 1.5 0 110-3z"/></clipPath><clipPath id="clip-path-18"><path class="cls-2" d="M75.99 151.36h12.08v4.99H75.99z"/></clipPath><clipPath id="clip-path-20"><path class="cls-1" d="M79.52 155.35a1.5 1.5 0 10-1.51-1.5 1.51 1.51 0 001.51 1.5z"/></clipPath><style>.cls-1,.cls-2{fill:none}.cls-1{clip-rule:evenodd}.cls-3{fill:#16103e}.cls-5{clip-path:url(#clip-path-2)}.cls-11{clip-path:url(#clip-path-7)}.cls-12{fill:#fff}</style></defs><path class="cls-3" d="M37.23 30.02h159.78v157.66H37.23z"/><g clip-path="url(#clip-path)"><path fill="#3ba07a" d="M70.9 53.64h92.65v77.91H70.9z"/></g><g clip-path="url(#clip-path-3)"><g clip-path="url(#clip-path-5)"><g class="cls-11" clip-path="url(#clip-path-6)"><path class="cls-12" d="M70.96 126.26h23.81v22.05H70.96z"/></g><g class="cls-11" clip-path="url(#clip-path-8)"><path class="cls-12" d="M87.82 121.57h23.81v26.58H87.82z"/></g><g class="cls-11" clip-path="url(#clip-path-10)"><path class="cls-12" d="M104.62 114.03h23.81v34.13h-23.81z"/></g><g class="cls-11" clip-path="url(#clip-path-12)"><path class="cls-12" d="M121.41 103.46h23.81v44.69h-23.81z"/></g><g class="cls-11" clip-path="url(#clip-path-14)"><path class="cls-12" d="M138.21 82.33h23.81v65.83h-23.81z"/></g></g></g><g class="cls-5" clip-path="url(#clip-path-16)"><path class="cls-12" d="M77 147.37h85.57v12.97H77z"/></g><g class="cls-5" clip-path="url(#clip-path-18)"><path class="cls-3" d="M70.96 146.37h22.15v14.96H70.96z"/></g><g class="cls-5" clip-path="url(#clip-path-20)"><path class="cls-12" d="M72.97 147.37h13.09v12.97H72.97z"/></g></svg>