<svg id="Layer_1" data-name="Layer 1" xmlns="http://www.w3.org/2000/svg" viewBox="0 0 233.78 216.13"><defs><clipPath id="clip-path"><path class="cls-1" d="M62.36 62.83h6.78v23.16h-6.78z"/></clipPath><clipPath id="clip-path-2"><path class="cls-1" d="M52.83 49.44h114.82v130.31H52.83z"/></clipPath><clipPath id="clip-path-3"><path class="cls-2" d="M168.11 66.88l-8.24-16.49a2.07 2.07 0 00-2.77-.93l-16.5 8.25a2.09 2.09 0 00-.92 2.77 2.06 2.06 0 002.77.92l12-6-3.27 9.31a110 110 0 01-94.31 73.18l.35 4.12A114.16 114.16 0 00155 66.1l3.34-9.51 6.06 12.14a2.06 2.06 0 002.76.92 2.08 2.08 0 00.92-2.77"/></clipPath><clipPath id="clip-path-5"><path class="cls-1" d="M48.76 49.24h123.69v123.73H48.76z"/></clipPath><clipPath id="clip-path-7"><path class="cls-1" d="M55.01 86.26h113.36v78.48H55.01z"/></clipPath><clipPath id="clip-path-8"><path class="cls-2" d="M73.5 148.23H59.07a2.07 2.07 0 00-2.07 2.06v12.38a2.07 2.07 0 002.07 2.06H73.5a2.06 2.06 0 002-2.06v-12.38a2.05 2.05 0 00-2-2.06zM61.12 160.6h10.31v-8.25H61.12z"/></clipPath><clipPath id="clip-path-9"><path class="cls-1" d="M56.91 87.35h110.1v77.39H56.91z"/></clipPath><clipPath id="clip-path-10"><path class="cls-2" d="M96.17 142H81.74a2.05 2.05 0 00-2 2.06v18.57a2.05 2.05 0 002 2.06h14.43a2.08 2.08 0 002.07-2.06V144.1a2.08 2.08 0 00-2.07-2.1zm-12.36 18.6h10.31v-14.43H83.81z"/></clipPath><clipPath id="clip-path-12"><path class="cls-2" d="M118.84 131.73h-14.43a2.06 2.06 0 00-2 2.06v28.88a2.06 2.06 0 002 2.06h14.43a2.06 2.06 0 002.07-2.06v-28.88a2.06 2.06 0 00-2.07-2.06zm-12.36 28.87h10.31v-24.74h-10.31z"/></clipPath><clipPath id="clip-path-14"><path class="cls-2" d="M141.54 117.3H127.1a2.06 2.06 0 00-2.07 2.06v43.31a2.07 2.07 0 002.07 2.06h14.44a2.05 2.05 0 002-2.06v-43.31a2 2 0 00-2-2.06zm-12.39 43.3h10.31v-39.18h-10.31z"/></clipPath><clipPath id="clip-path-16"><path class="cls-2" d="M164.21 88.43h-14.43a2.07 2.07 0 00-2.08 2.06v72.18a2.08 2.08 0 002.08 2.06h14.43a2.06 2.06 0 002-2.06V90.49a2.05 2.05 0 00-2-2.06zm-12.38 72.17h10.31v-68h-10.31z"/></clipPath><clipPath id="clip-path-18"><path class="cls-2" d="M57.58 174.55h106a2 2 0 010 4.09h-106a2 2 0 010-4.09z"/></clipPath><clipPath id="clip-path-20"><path class="cls-1" d="M52.83 173.87h19.03v5.45H52.83z"/></clipPath><clipPath id="clip-path-22"><path class="cls-2" d="M57.58 178.78a2 2 0 10-2-2.05 2 2 0 002 2.05z"/></clipPath><style>.cls-1,.cls-2{fill:none}.cls-2{clip-rule:evenodd}.cls-4{clip-path:url(#clip-path-2)}.cls-5{fill:#fff}.cls-7{fill:#3ba07a}.cls-12{clip-path:url(#clip-path-9)}</style></defs><g class="cls-4" clip-path="url(#clip-path)"><path class="cls-5" d="M55.56 56.02h20.39v36.79H55.56z"/></g><g class="cls-4" clip-path="url(#clip-path-3)"><path class="cls-7" d="M50.02 42.43h125.1v106.42H50.02z"/></g><g clip-path="url(#clip-path-5)"><g clip-path="url(#clip-path-7)"><g class="cls-12" clip-path="url(#clip-path-8)"><path class="cls-7" d="M50.22 141.42h32.15v30.12H50.22z"/></g><g class="cls-12" clip-path="url(#clip-path-10)"><path class="cls-7" d="M72.89 135.23h32.15v36.31H72.89z"/></g><g class="cls-12" clip-path="url(#clip-path-12)"><path class="cls-7" d="M95.56 124.92h32.15v46.62H95.56z"/></g><g class="cls-12" clip-path="url(#clip-path-14)"><path class="cls-7" d="M118.23 110.49h32.15v61.05h-32.15z"/></g><g class="cls-12" clip-path="url(#clip-path-16)"><path class="cls-7" d="M140.93 81.62h32.15v89.92h-32.15z"/></g></g></g><g class="cls-4" clip-path="url(#clip-path-18)"><path class="cls-7" d="M48.76 167.74h123.7v17.71H48.76z"/></g><g class="cls-4" clip-path="url(#clip-path-20)"><path class="cls-5" d="M46.03 167.06h32.62v19.07H46.03z"/></g><g class="cls-4" clip-path="url(#clip-path-22)"><path class="cls-7" d="M48.76 167.88h17.67v17.71H48.76z"/></g></svg>