<svg id="Layer_1" data-name="Layer 1" xmlns="http://www.w3.org/2000/svg" viewBox="0 0 233.78 216.13"><defs><clipPath id="clip-path"><path class="cls-1" d="M30.59 20.36h178.25V196.3H30.59z"/></clipPath><clipPath id="clip-path-2"><path class="cls-2" d="M172.34 46.5l-9.1-18.34a2.25 2.25 0 00-3.05-1L142 36.31a2.29 2.29 0 00-1 3.07 2.23 2.23 0 003 1l13.17-6.64-3.6 10.35a121.36 121.36 0 01-103.82 81.37l.4 4.59a126 126 0 00107.78-84.41l3.66-10.58 6.67 13.49a2.26 2.26 0 003.05 1 2.31 2.31 0 001-3.08"/></clipPath><clipPath id="clip-path-3"><path class="cls-1" d="M49.23 27.91h123.38v142.06H49.23z"/></clipPath><clipPath id="clip-path-4"><path class="cls-1" d="M40.88 26.9h136.23v137.54H40.88z"/></clipPath><clipPath id="clip-path-6"><path class="cls-1" d="M48.36 70.45h122.08v85.02H48.36z"/></clipPath><clipPath id="clip-path-7"><path class="cls-2" d="M68.13 136.92H52.22a2.29 2.29 0 00-2.27 2.3V153a2.29 2.29 0 002.27 2.29h15.91A2.29 2.29 0 0070.4 153v-13.78a2.29 2.29 0 00-2.27-2.3zm-13.62 13.76h11.33v-9.17H54.51z"/></clipPath><clipPath id="clip-path-8"><path class="cls-1" d="M49.86 70.45h120.58v85.02H49.86z"/></clipPath><clipPath id="clip-path-9"><path class="cls-2" d="M52.85 138.93h13.47v13.63H52.85zm40.24-8.88a2.27 2.27 0 012.27 2.29V153a2.27 2.27 0 01-2.27 2.29H77.2a2.29 2.29 0 01-2.27-2.29v-20.66a2.29 2.29 0 012.27-2.29zm-13.62 20.63h11.36v-16.05H79.47z"/></clipPath><clipPath id="clip-path-11"><path class="cls-2" d="M118.08 118.59h-15.9a2.26 2.26 0 00-2.26 2.29V153a2.26 2.26 0 002.26 2.29h15.9a2.26 2.26 0 002.26-2.29v-32.12a2.26 2.26 0 00-2.26-2.29zm-13.63 32.09h11.36v-27.51h-11.36z"/></clipPath><clipPath id="clip-path-13"><path class="cls-1" d="M103.75 122.03h13.47v30.29h-13.47z"/></clipPath><clipPath id="clip-path-15"><path class="cls-2" d="M143.06 102.54h-15.89a2.29 2.29 0 00-2.29 2.3V153a2.28 2.28 0 002.29 2.29h15.89a2.29 2.29 0 002.27-2.29v-48.16a2.29 2.29 0 00-2.27-2.3zm-13.63 48.14h11.36v-43.55h-11.36z"/></clipPath><clipPath id="clip-path-17"><path class="cls-1" d="M127.71 107.12h14.98v45.44h-14.98z"/></clipPath><clipPath id="clip-path-19"><path class="cls-2" d="M168 70.45h-15.87a2.29 2.29 0 00-2.27 2.29V153a2.28 2.28 0 002.27 2.29H168a2.29 2.29 0 002.29-2.29V72.74a2.3 2.3 0 00-2.29-2.29zm-13.63 80.23h11.36V75h-11.34z"/></clipPath><clipPath id="clip-path-21"><path class="cls-1" d="M76.81 134.38h14.98v18.17H76.81z"/></clipPath><clipPath id="clip-path-23"><path class="cls-1" d="M153.15 73.56h14.98v78.76h-14.98z"/></clipPath><clipPath id="clip-path-25"><path class="cls-2" d="M50.6 166.19h116.79a2.27 2.27 0 010 4.54H50.6a2.27 2.27 0 010-4.54z"/></clipPath><clipPath id="clip-path-27"><path class="cls-1" d="M48.36 164.67h20.95v6.06H48.36z"/></clipPath><clipPath id="clip-path-29"><path class="cls-2" d="M53.59 170.12a2.27 2.27 0 10-2.24-2.27 2.26 2.26 0 002.24 2.27z"/></clipPath><style>.cls-1,.cls-2{fill:none}.cls-2{clip-rule:evenodd}.cls-4{fill:#16103e}.cls-6{clip-path:url(#clip-path-3)}.cls-7{fill:#3ba07a}.cls-12{clip-path:url(#clip-path-8)}</style></defs><g clip-path="url(#clip-path)"><path class="cls-4" d="M32.77 22.54h173.9v171.58H32.77z"/></g><g class="cls-6" clip-path="url(#clip-path-2)"><path class="cls-7" d="M42.28 19.32h137.78v118.3H42.28z"/></g><g clip-path="url(#clip-path-4)"><g clip-path="url(#clip-path-6)"><g class="cls-12" clip-path="url(#clip-path-7)"><path class="cls-7" d="M42.47 129.35h35.41v33.48H42.47z"/></g><g class="cls-12" clip-path="url(#clip-path-9)"><path class="cls-7" d="M45.37 122.48h57.49v40.36H45.37z"/></g><g class="cls-12" clip-path="url(#clip-path-11)"><path class="cls-7" d="M92.42 111.01h35.41v51.82H92.42z"/></g><g class="cls-12" clip-path="url(#clip-path-13)"><path class="cls-7" d="M96.28 114.45h28.45v45.44H96.28z"/></g><g class="cls-12" clip-path="url(#clip-path-15)"><path class="cls-7" d="M117.4 94.97h35.41v67.87H117.4z"/></g><g class="cls-12" clip-path="url(#clip-path-17)"><path class="cls-7" d="M120.21 99.55h29.94v60.58h-29.94z"/></g><g class="cls-12" clip-path="url(#clip-path-19)"><path class="cls-7" d="M142.38 62.88h35.41v99.96h-35.41z"/></g><g class="cls-12" clip-path="url(#clip-path-21)"><path class="cls-7" d="M69.31 126.81h29.94v33.32H69.31z"/></g><g class="cls-12" clip-path="url(#clip-path-23)"><path class="cls-7" d="M145.67 65.99h29.94v93.9h-29.94z"/></g></g></g><g class="cls-6" clip-path="url(#clip-path-25)"><path class="cls-7" d="M40.88 158.61h136.24v19.69H40.88z"/></g><g class="cls-6" clip-path="url(#clip-path-27)"><path class="cls-4" d="M40.88 157.1h35.93v21.2H40.88z"/></g><g class="cls-6" clip-path="url(#clip-path-29)"><path class="cls-7" d="M43.87 158.01h19.46v19.69H43.87z"/></g></svg>