<svg id="Layer_1" data-name="Layer 1" xmlns="http://www.w3.org/2000/svg" viewBox="0 0 233.78 216.13"><defs><clipPath id="clip-path"><path class="cls-1" d="M30.98 21.19h178.25v175.94H30.98z"/></clipPath><clipPath id="clip-path-2"><path class="cls-2" d="M63.09 88.86H166.4a3 3 0 013 2.93v67.29a3 3 0 01-3 2.93H63.09a3 3 0 01-3-2.93V91.79a3 3 0 013-2.93z"/></clipPath><clipPath id="clip-path-3"><path class="cls-1" d="M57.64 50.83h141.2v111.18H57.64z"/></clipPath><clipPath id="clip-path-4"><path class="cls-1" d="M59.32 87.89H170.5v74.12H59.32z"/></clipPath><clipPath id="clip-path-6"><path class="cls-1" d="M60.08 88.87h110.41v73.14H60.08z"/></clipPath><clipPath id="clip-path-8"><path class="cls-2" d="M98.51 112.27H131a3 3 0 013 2.93v43.88a3 3 0 01-3 2.93H98.51a3 3 0 01-3-2.93V115.2a3 3 0 013-2.93z"/></clipPath><clipPath id="clip-path-10"><path class="cls-1" d="M94.2 111.87h41.42v50.14H94.2z"/></clipPath><clipPath id="clip-path-11"><path class="cls-1" d="M95.5 112.27h39.85v49.74H95.5z"/></clipPath><clipPath id="clip-path-12"><path class="cls-2" d="M139.84 97.64h16.22a3 3 0 013 2.93v14.63a3 3 0 01-3 2.92h-16.22a2.94 2.94 0 01-3-2.92v-14.63a3 3 0 013-2.93z"/></clipPath><clipPath id="clip-path-14"><path class="cls-1" d="M135.62 96.61h23.98v21.8h-23.98z"/></clipPath><clipPath id="clip-path-15"><path class="cls-1" d="M136.84 97.64h22.75v20.48h-22.75z"/></clipPath><clipPath id="clip-path-16"><path class="cls-2" d="M74.88 97.64h16.24a3 3 0 013 2.93v14.63a3 3 0 01-3 2.92H74.88a2.94 2.94 0 01-2.94-2.92v-14.63a2.94 2.94 0 012.94-2.93z"/></clipPath><clipPath id="clip-path-18"><path class="cls-1" d="M70.22 96.61H94.2v21.8H70.22z"/></clipPath><clipPath id="clip-path-19"><path class="cls-1" d="M71.89 97.64h22.3v20.48h-22.3z"/></clipPath><clipPath id="clip-path-20"><path class="cls-2" d="M60.08 72.77h109.24a2.93 2.93 0 012.94 2.93v14.63a2.93 2.93 0 01-2.94 2.93H60.08a2.94 2.94 0 01-2.94-2.93V75.7a2.94 2.94 0 012.94-2.93z"/></clipPath><clipPath id="clip-path-22"><path class="cls-1" d="M57.14 72.63h115.54v21.8H57.14z"/></clipPath><clipPath id="clip-path-24"><path class="cls-1" d="M57.14 72.77h115.13v20.48H57.14z"/></clipPath><clipPath id="clip-path-26"><path class="cls-2" d="M60.12 72.77l15.02-19.01h79.2l15.02 19.01"/></clipPath><clipPath id="clip-path-29"><path class="cls-2" d="M175.71 157.62A22.68 22.68 0 10153.08 135a22.63 22.63 0 0022.63 22.62z"/></clipPath><clipPath id="clip-path-31"><path class="cls-2" d="M175 152.5a17.56 17.56 0 10-17.5-17.5 17.54 17.54 0 0017.5 17.5z"/></clipPath><clipPath id="clip-path-34"><path class="cls-1" d="M76.32 71.31h20.67v5.85H76.32z"/></clipPath><clipPath id="clip-path-36"><path class="cls-2" d="M81.49 76.43a2.2 2.2 0 10-2.21-2.19 2.21 2.21 0 002.21 2.19z"/></clipPath><style>.cls-1,.cls-12,.cls-2{fill:none}.cls-2{clip-rule:evenodd}.cls-5{fill:#16103e}.cls-7{clip-path:url(#clip-path-3)}.cls-10{clip-path:url(#clip-path-6)}.cls-11{fill:#3ba07a}.cls-12{stroke:#16103e;stroke-miterlimit:10;stroke-width:3.37px}.cls-24{clip-path:url(#clip-path-24)}</style></defs><g clip-path="url(#clip-path)"><path class="cls-5" d="M33.16 23.37h173.88v171.58H33.16z"/></g><g clip-path="url(#clip-path-4)"><g class="cls-10" clip-path="url(#clip-path-2)"><path class="cls-11" d="M63.09 88.86H166.4a3 3 0 013 2.93v67.29a3 3 0 01-3 2.93H63.09a3 3 0 01-3-2.93V91.79a3 3 0 013-2.93z"/></g><g class="cls-10"><path class="cls-12" d="M63.07 88.86H166.4a2.94 2.94 0 012.95 2.93v67.29a2.94 2.94 0 01-2.95 2.92H63.07a2.94 2.94 0 01-3-2.93V91.79a2.94 2.94 0 013-2.93z"/></g></g><g clip-path="url(#clip-path-8)"><g clip-path="url(#clip-path-10)"><g clip-path="url(#clip-path-11)"><path class="cls-12" d="M98.5 112.27H131a2.94 2.94 0 012.95 2.93v43.88A2.94 2.94 0 01131 162H98.5a2.94 2.94 0 01-3-2.93V115.2a2.94 2.94 0 013-2.93z"/></g></g></g><g clip-path="url(#clip-path-12)"><g clip-path="url(#clip-path-14)"><g clip-path="url(#clip-path-15)"><path class="cls-12" d="M139.83 97.64h16.24a2.94 2.94 0 013 2.93v14.63a2.94 2.94 0 01-3 2.92h-16.24a2.94 2.94 0 01-3-2.92v-14.63a2.94 2.94 0 013-2.93z"/></g></g></g><g clip-path="url(#clip-path-16)"><g clip-path="url(#clip-path-18)"><g clip-path="url(#clip-path-19)"><path class="cls-12" d="M74.89 97.64h16.24a2.94 2.94 0 013 2.93v14.63a2.94 2.94 0 01-3 2.92H74.89a2.94 2.94 0 01-3-2.92v-14.63a2.94 2.94 0 013-2.93z"/></g></g></g><g clip-path="url(#clip-path-22)"><g class="cls-24" clip-path="url(#clip-path-20)"><path class="cls-11" d="M60.08 72.77h109.24a2.93 2.93 0 012.94 2.93v14.63a2.93 2.93 0 01-2.94 2.93H60.08a2.94 2.94 0 01-2.94-2.93V75.7a2.94 2.94 0 012.94-2.93z"/></g><g class="cls-24"><path class="cls-12" d="M60.09 72.77h109.22a3 3 0 013 2.93v14.63a2.94 2.94 0 01-3 2.92H60.09a2.94 2.94 0 01-3-2.92V75.7a2.94 2.94 0 013-2.93z"/></g></g><g class="cls-7" clip-path="url(#clip-path-26)"><path class="cls-11" d="M52.75 46.44h123.99v33.65H52.75z"/></g><path stroke-linejoin="round" stroke-width="1.69" stroke-linecap="round" stroke="#16103e" fill="none" d="M60.12 72.77l15.01-19.01h79.21l15.01 19.01"/><g class="cls-7" clip-path="url(#clip-path-29)"><path class="cls-5" d="M145.69 104.96h60v59.98h-60z"/></g><g class="cls-7" clip-path="url(#clip-path-31)"><path class="cls-11" d="M150.13 110.08h49.78v49.74h-49.78z"/></g><g class="cls-7" stroke-width="1.35" stroke-miterlimit="10" fill="none"><path d="M175 152.5a17.56 17.56 0 10-17.5-17.5 17.53 17.53 0 0017.5 17.5z" stroke="#3ba07a"/><path stroke-linecap="round" stroke="#16103e" d="M163.78 134.52l7.74 7.01 12.92-11.7"/></g><g class="cls-7" clip-path="url(#clip-path-34)"><path class="cls-11" d="M68.95 64h35.42v20.48H68.95z"/></g><g class="cls-7" clip-path="url(#clip-path-36)"><path class="cls-5" d="M71.89 64.73h19.19v19.02H71.89z"/></g></svg>