<svg width="24" height="24" xmlns="http://www.w3.org/2000/svg"><g fill="#FFF" fill-rule="evenodd"><path d="M16.639 5.613c-.31-.271-.774-.271-1.045.039l-.04.038a.785.785 0 00.078 1.084c2.903 2.555 3.174 6.968.62 9.832a4.682 4.682 0 01-.62.62.785.785 0 00-.077 1.084.696.696 0 00.58.27c.194 0 .349-.077.504-.193 3.522-3.097 3.91-8.439.813-11.961l-.813-.813z"/><path d="M20.258 3.639a7.31 7.31 0 00-.774-.774.784.784 0 00-1.084.038.833.833 0 00.039 1.123 10.782 10.782 0 01.696 15.251l-.696.697a.785.785 0 00-.078 1.084c.155.194.387.271.62.271a.736.736 0 00.503-.194c5.032-4.606 5.38-12.464.774-17.496zM13.176.232c-.204-.155-.437-.116-.612.039L5.86 6.503H2.537C1.43 6.542.526 7.742.497 9.213v5.574c.029 1.471.933 2.671 2.04 2.71H5.86l6.704 6.232c.117.077.233.155.35.155l.262-.116c.204-.116.32-.387.32-.658V.89c0-.27-.116-.542-.32-.658zM11.75 3.083c-.157-.117-.336-.088-.47.03L6.121 7.836H3.566c-.852.03-1.547.939-1.57 2.054v4.224c.023 1.115.718 2.025 1.57 2.054h2.556l5.157 4.723c.09.06.18.118.27.118l.201-.088c.157-.088.247-.294.247-.499V3.582c0-.205-.09-.41-.247-.499z"/></g></svg>