<svg width="16" height="16" xmlns="http://www.w3.org/2000/svg"><g fill="none" fill-rule="evenodd"><path d="M0 0h16v16H0z"/><circle fill="#FFC107" cx="8" cy="8" r="8"/><g stroke="#000"><path d="M4.864 12.167h6.272a1.5 1.5 0 001.328-2.197L9.33 3.987a1.5 1.5 0 00-2.658 0L3.536 9.97a1.5 1.5 0 001.328 2.197z"/><path d="M7.916 10.24h-.5l.5.5v-.5zm0-.184v-.5l-.5.5h.5zm.115 0h.5l-.5-.5v.5zm0 .185v.5l.5-.5h-.5zm-.115-2.074h-.5l.5.5v-.5zm0-2.334v-.5l-.5.5h.5zm.115 0h.5l-.5-.5v.5zm0 2.334v.5l.5-.5h-.5z"/></g></g></svg>