<svg width="42" height="43" xmlns="http://www.w3.org/2000/svg"><g transform="translate(-6 -3)" fill="#FFF" fill-rule="evenodd"><path d="M35.693 37.755l-4.349-4.495a3.956 3.956 0 00-5.596-.09l-1.494 1.448c-1.702-1.694-3.53-3.952-5.208-6.438-1.677-2.487-3.086-5.028-4.018-7.241l1.9-.843a3.962 3.962 0 002.014-5.223l-2.538-5.715a3.961 3.961 0 00-2.847-2.297 3.704 3.704 0 00-1.308-.02 7.203 7.203 0 00-1.433.388l-.79.355c-.2.101-.391.218-.575.342-1.012.682-1.822 1.638-2.409 2.841C4.538 15.916 6.531 24.823 12 32.932c4.593 6.81 10.754 11.683 16.079 12.719.912.177 1.791.238 2.616.181 1.334-.093 2.524-.486 3.534-1.168.185-.125.365-.258.562-.432l.626-.604c.316-.338.607-.726.867-1.153.903-1.485.66-3.426-.591-4.72zm5.999-3.942l-1.289-.444c6.898-4.44 9.617-13.522 6.024-21.08a15.89 15.89 0 00-21.526-7.413.793.793 0 00-.36 1.046.756.756 0 001.025.353 14.377 14.377 0 0119.476 6.706c3.186 6.702.878 14.718-5.088 18.817l.328-.953a.775.775 0 00-.47-.989.775.775 0 00-.98.49l-1.007 2.925a.782.782 0 00.015.627c.092.193.252.33.438.393h.003l.003.002 2.9.999c.4.137.838-.082.979-.49a.775.775 0 00-.47-.99z"/><circle cx="20.615" cy="8.239" r="1"/><text font-family="Helvetica" font-size="11" letter-spacing=".663"><tspan x="25.619" y="19.543">24</tspan></text></g></svg>