<svg id="Layer_1" data-name="Layer 1" xmlns="http://www.w3.org/2000/svg" viewBox="0 0 233.78 216.13"><defs><clipPath id="clip-path"><path class="cls-1" d="M146.66 55.06v10.8H88.47v-10.8h18.18a1.85 1.85 0 001.86-1.85v-5.45a9 9 0 014.49-7.95 9.07 9.07 0 0113.64 7.95v5.45a1.85 1.85 0 001.86 1.85zm-.75 98.94a4.21 4.21 0 014.21-4.2h7.24l-11.45 11.39zm29.91-71.33a1.87 1.87 0 001.88-1.85V50.18a7.92 7.92 0 00-7.94-7.89h-40.65a12.79 12.79 0 00-23.07 0H65.39a7.91 7.91 0 00-7.94 7.89v125.74a7.93 7.93 0 007.94 7.9h104.37a7.94 7.94 0 007.94-7.9V99.21a1.87 1.87 0 00-1.88-1.85 1.85 1.85 0 00-1.82 1.85v76.71a4.2 4.2 0 01-4.21 4.2H65.39a4.23 4.23 0 01-4.23-4.2V50.18A4.21 4.21 0 0165.39 46h39.52a15 15 0 00-.11 1.77v3.6H86.62a1.84 1.84 0 00-1.85 1.85v5.73h-8.35a4.87 4.87 0 00-4.89 4.87v98.48a4.87 4.87 0 004.89 4.87h66.46a6.3 6.3 0 00.75 0 2 2 0 00.43 0 1.82 1.82 0 001.4-.64 5.15 5.15 0 001.3-1L162 150.4a5.41 5.41 0 001.62-3.88v-38.1a1.86 1.86 0 00-3.71 0v37.68h-9.79a7.92 7.92 0 00-7.91 7.9v9.47H76.42a1.17 1.17 0 01-1.18-1.17V63.81a1.17 1.17 0 011.18-1.17h8.35v5.07a1.84 1.84 0 001.85 1.85h61.91a1.85 1.85 0 001.85-1.85v-5.07h8.35a1.19 1.19 0 011.18 1.17V90a1.86 1.86 0 003.71 0V63.81a4.89 4.89 0 00-4.89-4.87h-8.35v-5.73a1.85 1.85 0 00-1.85-1.85h-18.18v-3.6a11.71 11.71 0 00-.13-1.77h39.54a4.19 4.19 0 014.24 4.19v30.64a1.85 1.85 0 001.82 1.85z"/></clipPath><clipPath id="clip-path-2"><path class="cls-1" d="M56.99 35.03h147.64v150.42H56.99z"/></clipPath><clipPath id="clip-path-3"><path class="cls-1" d="M149.49 85.72h-7.85a1.65 1.65 0 100 3.27h7.85a1.65 1.65 0 100-3.27z"/></clipPath><clipPath id="clip-path-5"><path class="cls-1" d="M136.52 87.35a1.75 1.75 0 00-1.85-1.63h-27.6a1.65 1.65 0 100 3.27h27.6a1.75 1.75 0 001.85-1.64z"/></clipPath><clipPath id="clip-path-7"><path class="cls-1" d="M87.23 89H98.5a1.64 1.64 0 100-3.27H87.23a1.64 1.64 0 100 3.27z"/></clipPath><clipPath id="clip-path-9"><path class="cls-1" d="M131.57 103.7a1.75 1.75 0 00-1.83-1.63H97.17a1.65 1.65 0 100 3.27h32.57a1.75 1.75 0 001.83-1.64z"/></clipPath><clipPath id="clip-path-11"><path class="cls-1" d="M87.16 105.34h3.16a1.64 1.64 0 100-3.27h-3.16a1.64 1.64 0 100 3.27z"/></clipPath><clipPath id="clip-path-13"><path class="cls-1" d="M111.8 120.05a1.78 1.78 0 00-1.9-1.63H87.36a1.66 1.66 0 100 3.27h22.54a1.78 1.78 0 001.9-1.64z"/></clipPath><clipPath id="clip-path-15"><path class="cls-1" d="M87.38 134.77a1.66 1.66 0 100 3.27h9.31a1.66 1.66 0 100-3.27z"/></clipPath><clipPath id="clip-path-17"><path class="cls-1" d="M199 82.12l-.44.33-6-10.39.44-.32a3.65 3.65 0 015.41 1.26l1.7 2.91a4.88 4.88 0 01-1.11 6.21zm-66.84 44.47l-2.23-3.42 63.68-42.36 2.22 3.43zm-13.74 1.64l5-9.81 2.45 4.24 2.44 4.24zm67-50.68l4.93-3.28 2.22 3.43-63.68 42.35-2.22-3.42zm17.38-3.42l-1.8-2.78a7.81 7.81 0 00-11-2.3l-2 1.34-3.53 2.37-3.68 2.47-58.36 39.06s-.07 0-.09.07l-.18.15-.13.17s-.07.09-.09.14l-8.39 14.73-2.55 1.76a1.9 1.9 0 00-.52 2.61 1.81 1.81 0 002.55.54l2.48-1.67 16.61-2h.48l.08-.05a1.26 1.26 0 00.16-.07l67.6-45.24a8.14 8.14 0 002.31-11.3z"/></clipPath><clipPath id="clip-path-19"><path class="cls-2" d="M159.21 103.7l15.02-9.98 2.99 2.96-18.73 12.35.72-5.33z"/></clipPath><clipPath id="clip-path-21"><path class="cls-1" d="M74.5 178.91h23.06v6.54H74.5z"/></clipPath><clipPath id="clip-path-23"><path class="cls-2" d="M80.27 184.63a2.45 2.45 0 10-2.48-2.45 2.46 2.46 0 002.48 2.45z"/></clipPath><style>.cls-1,.cls-2{fill:none}.cls-2{clip-rule:evenodd}.cls-4{clip-path:url(#clip-path-2)}.cls-5{fill:#16103e}.cls-16{fill:#fff}</style></defs><g class="cls-4" clip-path="url(#clip-path)"><path class="cls-5" d="M49.21 26.86h136.71v165.13H49.21z"/></g><g class="cls-4" clip-path="url(#clip-path-3)"><path class="cls-5" d="M131.57 77.54h28v19.62h-28z"/></g><g class="cls-4" clip-path="url(#clip-path-5)"><path class="cls-5" d="M96.97 77.54h47.77v19.62H96.97z"/></g><g class="cls-4" clip-path="url(#clip-path-7)"><path class="cls-5" d="M77.22 77.54h31.3v19.62h-31.3z"/></g><g class="cls-4" clip-path="url(#clip-path-9)"><path class="cls-5" d="M87.1 93.89h52.71v19.62H87.1z"/></g><g class="cls-4" clip-path="url(#clip-path-11)"><path class="cls-5" d="M77.22 93.89h23.06v19.62H77.22z"/></g><g class="cls-4" clip-path="url(#clip-path-13)"><path class="cls-5" d="M77.22 110.24h42.82v19.62H77.22z"/></g><g class="cls-4" clip-path="url(#clip-path-15)"><path class="cls-5" d="M77.22 126.59h29.65v19.62H77.22z"/></g><g clip-path="url(#clip-path-17)"><path fill="#3ba07a" d="M101.92 59.56h110.36v83.38H101.92z"/></g><g class="cls-4" clip-path="url(#clip-path-19)"><path class="cls-16" d="M150.25 85.54h35.19v31.67h-35.19z"/></g><g class="cls-4" clip-path="url(#clip-path-21)"><path class="cls-16" d="M66.26 170.74h39.53v22.89H66.26z"/></g><g class="cls-4" clip-path="url(#clip-path-23)"><path class="cls-5" d="M69.55 171.55h21.41v21.25H69.55z"/></g></svg>