<svg id="Layer_1" data-name="Layer 1" xmlns="http://www.w3.org/2000/svg" viewBox="0 0 233.78 216.13"><defs><clipPath id="clip-path"><path class="cls-1" d="M159.9 163.74V69.53c0-1.78-2.24-3.22-5-3.22h7.1c2.75 0 5 1.44 5 3.22v94.21c0 1.78-2.23 3.22-5 3.22h-7.13c2.79.04 5.02-1.44 5.03-3.22z"/></clipPath><clipPath id="clip-path-2"><path class="cls-1" d="M79.8 59.03h115.09v110.36H79.8z"/></clipPath><clipPath id="clip-path-3"><path class="cls-1" d="M146.2 73.88v8h-42.79v-8h13.36a1.36 1.36 0 001.36-1.37v-4a6.67 6.67 0 1113.34 0v4a1.37 1.37 0 001.37 1.37zm-.55 73.39a3.11 3.11 0 013.1-3.11h5.31l-8.41 8.44zm22-52.9A1.37 1.37 0 00169 93V70.27a5.84 5.84 0 00-5.83-5.86h-29.9a9.38 9.38 0 00-17 0H86.41a5.86 5.86 0 00-5.83 5.86v93.27a5.86 5.86 0 005.83 5.85h76.78a5.84 5.84 0 005.83-5.85v-56.91a1.37 1.37 0 10-2.73 0v56.91a3.1 3.1 0 01-3.1 3.1H86.41a3.1 3.1 0 01-3.09-3.1V70.27a3.1 3.1 0 013.09-3.11h29.09a8.17 8.17 0 00-.1 1.31v2.67H102a1.37 1.37 0 00-1.37 1.37v4.25h-6.09a3.61 3.61 0 00-3.6 3.62v73.05a3.61 3.61 0 003.6 3.61h48.88a3.19 3.19 0 00.54 0 1.24 1.24 0 00.33 0 1.33 1.33 0 001-.47 3.82 3.82 0 001-.72l11.2-11.25a4 4 0 001.19-2.87v-28.27a1.37 1.37 0 10-2.73 0v28h-7.19a5.86 5.86 0 00-5.83 5.86v7H94.54a.87.87 0 01-.87-.87V80.38a.88.88 0 01.87-.88h6.13v3.77a1.37 1.37 0 001.33 1.37h45.53a1.36 1.36 0 001.36-1.37V79.5h6.14a.88.88 0 01.87.88v19.45a1.37 1.37 0 102.73 0V80.38a3.61 3.61 0 00-3.6-3.62h-6.14v-4.25a1.36 1.36 0 00-1.36-1.37H134.2v-2.67a9.5 9.5 0 00-.09-1.31h29.08a3.1 3.1 0 013.1 3.11V93a1.37 1.37 0 001.37 1.37z"/></clipPath><clipPath id="clip-path-5"><path class="cls-1" d="M148.28 96.62h-5.77a1.22 1.22 0 100 2.43h5.77a1.22 1.22 0 100-2.43z"/></clipPath><clipPath id="clip-path-7"><path class="cls-1" d="M138.74 97.84a1.3 1.3 0 00-1.36-1.22h-20.31a1.22 1.22 0 100 2.43h20.31a1.29 1.29 0 001.36-1.21z"/></clipPath><clipPath id="clip-path-9"><path class="cls-1" d="M102.48 99.05h8.3a1.22 1.22 0 100-2.43h-8.3a1.22 1.22 0 100 2.43z"/></clipPath><clipPath id="clip-path-11"><path class="cls-1" d="M135.1 110a1.3 1.3 0 00-1.35-1.22h-24a1.22 1.22 0 100 2.43h24a1.29 1.29 0 001.35-1.21z"/></clipPath><clipPath id="clip-path-13"><path class="cls-1" d="M102.44 111.18h2.33a1.22 1.22 0 100-2.43h-2.33a1.22 1.22 0 100 2.43z"/></clipPath><clipPath id="clip-path-15"><path class="cls-1" d="M120.56 122.09a1.31 1.31 0 00-1.39-1.21h-16.59a1.22 1.22 0 100 2.42h16.59a1.31 1.31 0 001.39-1.21z"/></clipPath><clipPath id="clip-path-17"><path class="cls-1" d="M102.6 133a1.23 1.23 0 100 2.42h6.85a1.23 1.23 0 100-2.42z"/></clipPath><clipPath id="clip-path-19"><path class="cls-1" d="M190.73 89.11l-.32.24-4.41-7.7.32-.25a2.7 2.7 0 014 .95l1.24 2.17a3.61 3.61 0 01-.83 4.59zm-49.15 33l-1.58-2.56 46.82-31.41 1.63 2.54zm-10.11 1.21l3.67-7.27 1.8 3.14 1.8 3.15zm49.25-37.58l3.62-2.42 1.66 2.51-46.82 31.41-1.64-2.54zm12.79-2.54l-1.32-2.06a5.7 5.7 0 00-8-1.71l-1.48 1-2.6 1.75-2.74 1.82-42.92 29h-.06a.65.65 0 00-.12.11 1.47 1.47 0 00-.1.13.41.41 0 00-.07.11l-6.17 10.92-1.93 1.33a1.41 1.41 0 00-.39 1.93 1.34 1.34 0 001.88.4l1.84-1.24 12.2-1.48h.45l.1-.06 49.71-33.56a6.06 6.06 0 001.72-8.41z"/></clipPath><clipPath id="clip-path-21"><path class="cls-2" d="M156.55 101.92l16.2-10.74v3.42l-15.95 10.77-.25-3.45z"/></clipPath><clipPath id="clip-path-23"><path class="cls-2" d="M157.37 108.05l11.65-8.06v3.73l-11.39 7.6-.26-3.27z"/></clipPath><clipPath id="clip-path-47"><path class="cls-1" d="M90.7 164.54h15.75v4.85H90.7z"/></clipPath><clipPath id="clip-path-49"><path class="cls-2" d="M94.94 169.39a1.82 1.82 0 10-1.81-1.82 1.82 1.82 0 001.81 1.82z"/></clipPath><style>.cls-1,.cls-2{fill:none}.cls-2{clip-rule:evenodd}.cls-4{fill:#16103e}.cls-6{clip-path:url(#clip-path-2)}.cls-8{clip-path:url(#clip-path-3)}.cls-9{fill:#fff}.cls-10{clip-path:url(#clip-path-5)}.cls-11{clip-path:url(#clip-path-7)}.cls-12{clip-path:url(#clip-path-9)}.cls-13{clip-path:url(#clip-path-11)}.cls-14{clip-path:url(#clip-path-13)}.cls-15{clip-path:url(#clip-path-15)}.cls-16{clip-path:url(#clip-path-17)}.cls-17{clip-path:url(#clip-path-19)}.cls-18{fill:#3ba07a}.cls-19{clip-path:url(#clip-path-21)}.cls-20{clip-path:url(#clip-path-23)}</style></defs><path class="cls-4" d="M49.16 35.19h159.78v157.66H49.16z"/><g clip-path="url(#clip-path)"><path fill="#d7d7d7" opacity=".5" d="M148.85 60.24h24.23v112.78h-24.23z"/></g><g class="cls-8"><g class="cls-6"><path class="cls-9" d="M74.53 52.97h100.55v122.49H74.53z"/></g></g><g class="cls-10"><g class="cls-6"><path class="cls-9" d="M135.1 90.56h20.59v14.55H135.1z"/></g></g><g class="cls-11"><g class="cls-6"><path class="cls-9" d="M109.66 90.56h35.13v14.55h-35.13z"/></g></g><g class="cls-12"><g class="cls-6"><path class="cls-9" d="M95.12 90.56h23.02v14.55H95.12z"/></g></g><g class="cls-13"><g class="cls-6"><path class="cls-9" d="M102.39 102.69h38.77v14.55h-38.77z"/></g></g><g class="cls-14"><g class="cls-6"><path class="cls-9" d="M95.12 102.69h16.96v14.55H95.12z"/></g></g><g class="cls-15"><g class="cls-6"><path class="cls-9" d="M95.12 114.82h31.5v14.55h-31.5z"/></g></g><g class="cls-16"><g class="cls-6"><path class="cls-9" d="M95.12 126.94h21.81v14.55H95.12z"/></g></g><g class="cls-17"><g class="cls-6"><path class="cls-18" d="M119.35 72.37h81.17v61.85h-81.17z"/></g></g><g class="cls-19"><g class="cls-6"><path class="cls-4" d="M150.5 85.12h28.31v26.31H150.5z"/></g></g><g class="cls-20"><g class="cls-6"><path class="cls-4" d="M151.31 93.93h23.76v23.45h-23.76z"/></g></g><g class="cls-8"><g class="cls-6"><path class="cls-9" d="M74.53 52.97h100.55v122.49H74.53z"/></g></g><g class="cls-10"><g class="cls-6"><path class="cls-9" d="M135.1 90.56h20.59v14.55H135.1z"/></g></g><g class="cls-11"><g class="cls-6"><path class="cls-9" d="M109.66 90.56h35.13v14.55h-35.13z"/></g></g><g class="cls-12"><g class="cls-6"><path class="cls-9" d="M95.12 90.56h23.02v14.55H95.12z"/></g></g><g class="cls-13"><g class="cls-6"><path class="cls-9" d="M102.39 102.69h38.77v14.55h-38.77z"/></g></g><g class="cls-14"><g class="cls-6"><path class="cls-9" d="M95.12 102.69h16.96v14.55H95.12z"/></g></g><g class="cls-15"><g class="cls-6"><path class="cls-9" d="M95.12 114.82h31.5v14.55h-31.5z"/></g></g><g class="cls-16"><g class="cls-6"><path class="cls-9" d="M95.12 126.94h21.81v14.55H95.12z"/></g></g><g class="cls-17"><g class="cls-6"><path class="cls-18" d="M119.35 72.37h81.17v61.85h-81.17z"/></g></g><g class="cls-19"><g class="cls-6"><path class="cls-4" d="M150.5 85.12h28.31v26.31H150.5z"/></g></g><g class="cls-20"><g class="cls-6"><path class="cls-4" d="M151.31 93.93h23.76v23.45h-23.76z"/></g></g><g class="cls-6" clip-path="url(#clip-path-47)"><path class="cls-4" d="M84.65 158.47h27.86v16.98H84.65z"/></g><g class="cls-6" clip-path="url(#clip-path-49)"><path class="cls-9" d="M87.07 159.69h15.75v15.77H87.07z"/></g></svg>