<svg id="Layer_1" data-name="Layer 1" xmlns="http://www.w3.org/2000/svg" viewBox="0 0 233.78 216.13"><defs><clipPath id="clip-path"><path class="cls-1" d="M43.86 30.67h146.06v153.2H43.86z"/></clipPath><clipPath id="clip-path-2"><path class="cls-1" d="M43.86 30.67h145.15v154.78H43.86z"/></clipPath><clipPath id="clip-path-3"><path class="cls-1" d="M43.86 30.67h146.06v154.78H43.86z"/></clipPath><clipPath id="clip-path-4"><path class="cls-2" d="M186.67 72.86a8.38 8.38 0 00-11.45-2.33l-2.11 1.36-3.71 2.4v-28a8.22 8.22 0 00-8.28-8.13h-42.44a13.45 13.45 0 00-24.09 0H52.14a8.21 8.21 0 00-8.28 8.13v129.46a8.2 8.2 0 008.28 8.12h109a8.21 8.21 0 008.28-8.12v-78l16.79-10.84a8.06 8.06 0 002.38-11.26zm-72 55.67l-2.29-3.43L178 82.74l2.29 3.42zM150.83 145h-10.2a8.21 8.21 0 00-8.29 8.12v9.76H63.65a1.22 1.22 0 01-1.22-1.21V60.3a1.23 1.23 0 011.22-1.21h8.72v5.23a1.93 1.93 0 001.94 1.91H139a1.93 1.93 0 001.94-1.91v-5.23h8.7a1.25 1.25 0 011.24 1.21v26l-46.59 30.07-.08.06h-.07a1.29 1.29 0 01-.17.15 1.09 1.09 0 00-.13.17h-.05a1.43 1.43 0 01-.11.15l-8.88 15-2.61 1.69a1.87 1.87 0 00-.55 2.63 2 2 0 002.68.55l2.62-1.69 17.44-2h.26a.25.25 0 00.09 0 .44.44 0 00.15-.05h.11l.13-.07h.07l35.62-23zm-2.66 3.81l-11.95 11.72v-7.41a4.36 4.36 0 014.41-4.31zm-37.36-19.22l-10.93 1.31 5.52-9.34 2.7 4zm-.53-7.72l-2.28-3.38 60.53-39.09 5.06-3.28 2.31 3.43zm50.84-80a4.37 4.37 0 014.4 4.32v30.6l-10.81 7V60.3a5.09 5.09 0 00-5.12-5h-8.7v-5.91a1.92 1.92 0 00-1.89-1.91h-19v-3.7a16.12 16.12 0 00-.15-1.83zm-54.5-7.47a9.42 9.42 0 019.48 9.31v5.6a1.92 1.92 0 001.94 1.9h19v11.21H76.25V51.29h19a1.92 1.92 0 001.94-1.9v-5.61a9.4 9.4 0 019.43-9.3zm58.9 141.27a4.36 4.36 0 01-4.4 4.31h-109a4.35 4.35 0 01-4.4-4.31V46.27A4.36 4.36 0 0152.14 42h41.27a12.51 12.51 0 00-.13 1.83v3.7h-19a1.92 1.92 0 00-1.94 1.91v5.89h-8.69a5.07 5.07 0 00-5.1 5v101.38a5.07 5.07 0 005.1 5h69.41a6.78 6.78 0 00.77 0 2.3 2.3 0 00.45 0 2 2 0 001.46-.65 6.15 6.15 0 001.38-1l15.88-15.6a5.54 5.54 0 001.7-4v-38.2l10.81-7zm18.53-92l-.48.31-6.71-10 .48-.31a4.45 4.45 0 016.1 1.24l1.88 2.82a4.28 4.28 0 01-1.27 6z"/></clipPath><clipPath id="clip-path-5"><path class="cls-1" d="M43.86 30.67h146.06v153.2H43.86z"/></clipPath><clipPath id="clip-path-6"><path class="cls-1" d="M114.53 90.76h9.5v2.91h-9.5z"/></clipPath><clipPath id="clip-path-8"><path class="cls-1" d="M113.62 89.53h10.9v4.36h-10.9z"/></clipPath><clipPath id="clip-path-9"><path class="cls-2" d="M116 93.67h6.49a1.46 1.46 0 100-2.91H116a1.46 1.46 0 100 2.91"/></clipPath><clipPath id="clip-path-10"><path class="cls-1" d="M114.49 90.69h9.63v3.16h-9.63z"/></clipPath><clipPath id="clip-path-11"><path class="cls-1" d="M85.74 90.76h25.35v2.91H85.74z"/></clipPath><clipPath id="clip-path-13"><path class="cls-1" d="M85.28 89.53h26.16v4.36H85.28z"/></clipPath><clipPath id="clip-path-14"><path class="cls-2" d="M87.22 93.67h22.36a1.46 1.46 0 100-2.91H87.22a1.46 1.46 0 100 2.91"/></clipPath><clipPath id="clip-path-15"><path class="cls-1" d="M85.58 90.69h25.68v3.16H85.58z"/></clipPath><clipPath id="clip-path-16"><path class="cls-1" d="M67.93 90.76h12.62v2.91H67.93z"/></clipPath><clipPath id="clip-path-18"><path class="cls-1" d="M67.84 89.53h13.08v4.36H67.84z"/></clipPath><clipPath id="clip-path-19"><path class="cls-2" d="M69.45 93.67H79a1.46 1.46 0 100-2.91h-9.55a1.46 1.46 0 100 2.91"/></clipPath><clipPath id="clip-path-20"><path class="cls-1" d="M67.93 90.69h12.84v3.16H67.93z"/></clipPath><clipPath id="clip-path-21"><path class="cls-2" d="M104.92 104.9H77.5a1.58 1.58 0 000 3.16h27.42a1.58 1.58 0 000-3.16"/></clipPath><clipPath id="clip-path-23"><path class="cls-1" d="M67.93 104.93h6.19v2.91h-6.19z"/></clipPath><clipPath id="clip-path-25"><path class="cls-1" d="M67.84 104.79h6.54v4.36h-6.54z"/></clipPath><clipPath id="clip-path-26"><path class="cls-2" d="M69.54 107.84h3a1.46 1.46 0 100-2.91h-3a1.46 1.46 0 100 2.91"/></clipPath><clipPath id="clip-path-27"><path class="cls-1" d="M67.93 104.9h6.42v3.16h-6.42z"/></clipPath><clipPath id="clip-path-28"><path class="cls-1" d="M67.93 119.16h22.26v2.91H67.93z"/></clipPath><clipPath id="clip-path-30"><path class="cls-1" d="M67.84 117.87h23.98v4.36H67.84z"/></clipPath><clipPath id="clip-path-31"><path class="cls-2" d="M69.54 122.07h19a1.46 1.46 0 100-2.91h-19a1.46 1.46 0 100 2.91"/></clipPath><clipPath id="clip-path-32"><path class="cls-1" d="M67.93 119.12H90.4v3.11H67.93z"/></clipPath><clipPath id="clip-path-33"><path class="cls-2" d="M77.76 131.75H71a1.59 1.59 0 000 3.16h6.8a1.59 1.59 0 000-3.16"/></clipPath><clipPath id="clip-path-35"><path class="cls-1" d="M61.52 179.13H84v6.32H61.52z"/></clipPath><clipPath id="clip-path-37"><path class="cls-2" d="M67.14 183.87a2.37 2.37 0 10-2.42-2.37 2.38 2.38 0 002.42 2.37z"/></clipPath><style>.cls-1,.cls-2{fill:none}.cls-2{clip-rule:evenodd}</style></defs><g clip-path="url(#clip-path)"><g clip-path="url(#clip-path-3)"><g clip-path="url(#clip-path-4)"><g clip-path="url(#clip-path-5)"><path d="M35.84 22.78h162.11v168.99H35.84z"/></g></g></g></g><g clip-path="url(#clip-path-6)"><g clip-path="url(#clip-path-8)"><g clip-path="url(#clip-path-9)"><g clip-path="url(#clip-path-10)"><path d="M106.51 82.86h25.57v18.71h-25.57z"/></g></g></g></g><g clip-path="url(#clip-path-11)"><g clip-path="url(#clip-path-13)"><g clip-path="url(#clip-path-14)"><g clip-path="url(#clip-path-15)"><path d="M77.69 82.86h41.41v18.71H77.69z"/></g></g></g></g><g clip-path="url(#clip-path-16)"><g clip-path="url(#clip-path-18)"><g clip-path="url(#clip-path-19)"><g clip-path="url(#clip-path-20)"><path d="M59.9 82.86h28.67v18.71H59.9z"/></g></g></g></g><g clip-path="url(#clip-path-21)"><path d="M67.93 97.01h46.55v18.95H67.93z"/></g><g clip-path="url(#clip-path-23)"><g clip-path="url(#clip-path-25)"><g clip-path="url(#clip-path-26)"><g clip-path="url(#clip-path-27)"><path d="M59.9 97.03h22.23v18.71H59.9z"/></g></g></g></g><g clip-path="url(#clip-path-28)"><g clip-path="url(#clip-path-30)"><g clip-path="url(#clip-path-31)"><g clip-path="url(#clip-path-32)"><path d="M59.9 111.27h38.29v18.71H59.9z"/></g></g></g></g><g clip-path="url(#clip-path-33)"><path d="M61.52 123.86H87.2v18.95H61.52z"/></g><g clip-path="url(#clip-path-35)"><path fill="#fff" d="M53.49 171.24h38.52v22.11H53.49z"/></g><g clip-path="url(#clip-path-37)"><path d="M56.7 171.24h20.87v20.53H56.7z"/></g></svg>