<svg id="Layer_1" data-name="Layer 1" xmlns="http://www.w3.org/2000/svg" viewBox="0 0 233.78 216.13"><defs><clipPath id="clip-path"><path class="cls-1" d="M33.42 21.19h178.25v175.94H33.42z"/></clipPath><clipPath id="clip-path-2"><path class="cls-2" d="M81.29 37.75h82.78a8.33 8.33 0 018.28 8.37v127.15a8.33 8.33 0 01-8.28 8.36H81.29a8.32 8.32 0 01-8.29-8.36V46.12a8.32 8.32 0 018.29-8.37z"/></clipPath><clipPath id="clip-path-3"><path class="cls-1" d="M73.01 37.75h130.8V181H73.01z"/></clipPath><clipPath id="clip-path-4"><path class="cls-1" d="M73.01 37.75h100.28v143.88H73.01z"/></clipPath><clipPath id="clip-path-6"><path class="cls-1" d="M73.01 37.75h99.34v143.88H73.01z"/></clipPath><clipPath id="clip-path-8"><path class="cls-2" d="M177.06 148.17l-31.2 33.46h30.24l.96-33.46z"/></clipPath><clipPath id="clip-path-10"><path class="cls-2" d="M146.63 178.71l26-27.72a1.66 1.66 0 00-.07-2.36 1.61 1.61 0 00-1.13-.46h-24.35a3.33 3.33 0 00-3.31 3.35v26a1.66 1.66 0 002.86 1.15z"/></clipPath><clipPath id="clip-path-13"><path class="cls-2" d="M85.83 72.88h41.39a1.68 1.68 0 010 3.35H85.83a1.68 1.68 0 010-3.35z"/></clipPath><clipPath id="clip-path-15"><path class="cls-1" d="M83.91 72.63h45.78v4.36H83.91z"/></clipPath><clipPath id="clip-path-17"><path class="cls-1" d="M83.91 72.88h45.39v3.35H83.91z"/></clipPath><clipPath id="clip-path-19"><path class="cls-2" d="M85.83 84.59h41.59a1.68 1.68 0 010 3.35H85.83a1.68 1.68 0 010-3.35z"/></clipPath><clipPath id="clip-path-21"><path class="cls-1" d="M83.91 83.53h45.78v6.54H83.91z"/></clipPath><clipPath id="clip-path-23"><path class="cls-1" d="M83.91 84.59h45.39v3.35H83.91z"/></clipPath><clipPath id="clip-path-25"><path class="cls-2" d="M85.83 96.31h41.59a1.67 1.67 0 010 3.34H85.83a1.67 1.67 0 010-3.34z"/></clipPath><clipPath id="clip-path-27"><path class="cls-1" d="M83.91 94.43h45.78v6.54H83.91z"/></clipPath><clipPath id="clip-path-29"><path class="cls-1" d="M83.91 96.31h45.39v3.35H83.91z"/></clipPath><clipPath id="clip-path-31"><path class="cls-2" d="M85.83 108h41.59a1.67 1.67 0 010 3.34H85.83a1.67 1.67 0 010-3.34z"/></clipPath><clipPath id="clip-path-33"><path class="cls-1" d="M83.91 107.51h45.78v4.36H83.91z"/></clipPath><clipPath id="clip-path-35"><path class="cls-1" d="M83.91 108.02h45.39v3.35H83.91z"/></clipPath><clipPath id="clip-path-37"><path class="cls-2" d="M85.83 119.73h41.59a1.68 1.68 0 010 3.35H85.83a1.68 1.68 0 010-3.35z"/></clipPath><clipPath id="clip-path-39"><path class="cls-1" d="M83.91 118.41h45.78v6.54H83.91z"/></clipPath><clipPath id="clip-path-41"><path class="cls-1" d="M83.91 119.73h45.39v3.35H83.91z"/></clipPath><clipPath id="clip-path-43"><path class="cls-2" d="M85.83 131.44h41.59a1.68 1.68 0 010 3.35H85.83a1.68 1.68 0 010-3.35z"/></clipPath><clipPath id="clip-path-45"><path class="cls-1" d="M83.91 129.31h45.78v6.54H83.91z"/></clipPath><clipPath id="clip-path-47"><path class="cls-1" d="M83.91 131.44h45.39v3.35H83.91z"/></clipPath><clipPath id="clip-path-49"><path class="cls-2" d="M85.83 143.15h41.59a1.68 1.68 0 010 3.35H85.83a1.68 1.68 0 010-3.35z"/></clipPath><clipPath id="clip-path-51"><path class="cls-1" d="M83.91 142.39h45.78v4.36H83.91z"/></clipPath><clipPath id="clip-path-53"><path class="cls-1" d="M83.91 143.15h45.39v3.35H83.91z"/></clipPath><clipPath id="clip-path-55"><path class="cls-2" d="M85.83 154.86h41.59a1.68 1.68 0 010 3.35H85.83a1.68 1.68 0 010-3.35z"/></clipPath><clipPath id="clip-path-57"><path class="cls-1" d="M83.91 153.29h45.78v6.54H83.91z"/></clipPath><clipPath id="clip-path-59"><path class="cls-1" d="M83.91 154.86h45.39v3.35H83.91z"/></clipPath><clipPath id="clip-path-61"><path class="cls-1" d="M77.28 60.34h96.29"/></clipPath><clipPath id="clip-path-64"><path class="cls-2" d="M177.43 134.79c14 0 25.37-11.61 25.37-25.94s-11.35-25.93-25.37-25.93-25.38 11.61-25.38 25.93 11.36 25.94 25.38 25.94z"/></clipPath><clipPath id="clip-path-66"><path class="cls-2" d="M176.67 128.93A20.08 20.08 0 10157 108.85a19.86 19.86 0 0019.67 20.08z"/></clipPath><clipPath id="clip-path-69"><path class="cls-1" d="M91.21 57.83h21.54v6.69H91.21z"/></clipPath><clipPath id="clip-path-71"><ellipse class="cls-1" cx="97.01" cy="61.17" rx="2.49" ry="2.51"/></clipPath><style>.cls-1,.cls-15,.cls-2{fill:none}.cls-2{clip-rule:evenodd}.cls-5{fill:#16103e}.cls-7{clip-path:url(#clip-path-3)}.cls-11{fill:#3ba07a}.cls-15{stroke:#16103e;stroke-width:1.53px;stroke-miterlimit:10}.cls-19{clip-path:url(#clip-path-17)}.cls-22{clip-path:url(#clip-path-23)}.cls-25{clip-path:url(#clip-path-29)}.cls-28{clip-path:url(#clip-path-35)}.cls-31{clip-path:url(#clip-path-41)}.cls-34{clip-path:url(#clip-path-47)}.cls-37{clip-path:url(#clip-path-53)}.cls-40{clip-path:url(#clip-path-59)}</style></defs><g clip-path="url(#clip-path)"><path class="cls-5" d="M35.62 23.37H209.5v171.58H35.62z"/></g><g clip-path="url(#clip-path-2)"><g clip-path="url(#clip-path-4)"><g clip-path="url(#clip-path-6)"><path class="cls-11" d="M81.29 37.75h82.78a8.33 8.33 0 018.28 8.37v127.15a8.33 8.33 0 01-8.28 8.36H81.29a8.32 8.32 0 01-8.29-8.36V46.12a8.32 8.32 0 018.29-8.37z"/></g><path d="M81.29 37.75h82.78a8.33 8.33 0 018.28 8.37v127.14a8.33 8.33 0 01-8.28 8.37H81.29a8.32 8.32 0 01-8.29-8.37V46.12a8.32 8.32 0 018.29-8.37z" stroke-width="3.82" stroke-miterlimit="10" stroke="#16103e" fill="none"/></g></g><g class="cls-7" clip-path="url(#clip-path-8)"><path class="cls-5" d="M137.58 139.8h47.77v50.19h-47.77z"/></g><g class="cls-7" clip-path="url(#clip-path-10)"><path class="cls-11" d="M135.51 139.8h45.82v47.79h-45.82z"/></g><g class="cls-7"><path class="cls-15" d="M146.63 178.71l26-27.72a1.68 1.68 0 00-.06-2.36 1.62 1.62 0 00-1.14-.46h-24.3a3.33 3.33 0 00-3.31 3.35v26a1.66 1.66 0 002.86 1.15z"/><path d="M135.51 74.56H162m-26.49 11.71h20.9m-20.9 11.71h20.9m-20.9 11.71h20.9m-20.9 11.71h20.9m-19.97 13.39h24.36" stroke-linecap="round" stroke-linejoin="bevel" stroke="#16103e" stroke-width="1.53" fill="none"/></g><g clip-path="url(#clip-path-15)"><g class="cls-19" clip-path="url(#clip-path-13)"><path class="cls-11" d="M85.83 72.88h41.39a1.68 1.68 0 010 3.35H85.83a1.68 1.68 0 010-3.35z"/></g><g class="cls-19"><path class="cls-15" d="M85.82 72.88h41.4a1.68 1.68 0 010 3.35h-41.4a1.68 1.68 0 010-3.35z"/></g></g><g clip-path="url(#clip-path-21)"><g class="cls-22" clip-path="url(#clip-path-19)"><path class="cls-11" d="M85.83 84.59h41.59a1.68 1.68 0 010 3.35H85.83a1.68 1.68 0 010-3.35z"/></g><g class="cls-22"><path class="cls-15" d="M85.82 84.59h41.59a1.68 1.68 0 010 3.35H85.82a1.68 1.68 0 010-3.35z"/></g></g><g clip-path="url(#clip-path-27)"><g class="cls-25" clip-path="url(#clip-path-25)"><path class="cls-11" d="M85.83 96.31h41.59a1.67 1.67 0 010 3.34H85.83a1.67 1.67 0 010-3.34z"/></g><g class="cls-25"><path class="cls-15" d="M85.82 96.31h41.59a1.67 1.67 0 010 3.34H85.82a1.67 1.67 0 010-3.34z"/></g></g><g clip-path="url(#clip-path-33)"><g class="cls-28" clip-path="url(#clip-path-31)"><path class="cls-11" d="M85.83 108h41.59a1.67 1.67 0 010 3.34H85.83a1.67 1.67 0 010-3.34z"/></g><g class="cls-28"><path class="cls-15" d="M85.82 108h41.59a1.67 1.67 0 010 3.34H85.82a1.67 1.67 0 010-3.34z"/></g></g><g clip-path="url(#clip-path-39)"><g class="cls-31" clip-path="url(#clip-path-37)"><path class="cls-11" d="M85.83 119.73h41.59a1.68 1.68 0 010 3.35H85.83a1.68 1.68 0 010-3.35z"/></g><g class="cls-31"><path class="cls-15" d="M85.82 119.73h41.59a1.68 1.68 0 010 3.35H85.82a1.68 1.68 0 010-3.35z"/></g></g><g clip-path="url(#clip-path-45)"><g class="cls-34" clip-path="url(#clip-path-43)"><path class="cls-11" d="M85.83 131.44h41.59a1.68 1.68 0 010 3.35H85.83a1.68 1.68 0 010-3.35z"/></g><g class="cls-34"><path class="cls-15" d="M85.82 131.44h41.59a1.68 1.68 0 010 3.35H85.82a1.68 1.68 0 010-3.35z"/></g></g><g clip-path="url(#clip-path-51)"><g class="cls-37" clip-path="url(#clip-path-49)"><path class="cls-11" d="M85.83 143.15h41.59a1.68 1.68 0 010 3.35H85.83a1.68 1.68 0 010-3.35z"/></g><g class="cls-37"><path class="cls-15" d="M85.82 143.15h41.59a1.68 1.68 0 010 3.35H85.82a1.68 1.68 0 010-3.35z"/></g></g><g clip-path="url(#clip-path-57)"><g class="cls-40" clip-path="url(#clip-path-55)"><path class="cls-11" d="M85.83 154.86h41.59a1.68 1.68 0 010 3.35H85.83a1.68 1.68 0 010-3.35z"/></g><g class="cls-40"><path class="cls-15" d="M85.82 154.86h41.59a1.68 1.68 0 010 3.35H85.82a1.68 1.68 0 010-3.35z"/></g></g><g clip-path="url(#clip-path-61)"><path d="M69 51.97h112.85V68.7H69z"/></g><path stroke-width="1.91" stroke-miterlimit="10" stroke="#16103e" fill="none" d="M77.29 60.34h96.3"/><g class="cls-7" clip-path="url(#clip-path-64)"><path class="cls-5" d="M143.77 74.56h67.3v68.59h-67.3z"/></g><g class="cls-7" clip-path="url(#clip-path-66)"><path class="cls-11" d="M148.74 80.41h55.84v56.88h-55.84z"/></g><g class="cls-7" stroke-width="1.53" stroke-miterlimit="10" fill="none"><ellipse cx="176.67" cy="108.85" rx="19.64" ry="20.08" stroke="#3ba07a"/><path stroke-linecap="round" stroke="#16103e" d="M164.07 108.36l8.68 8.02 14.5-13.38"/></g><g class="cls-7" clip-path="url(#clip-path-69)"><path class="cls-11" d="M82.95 49.46h38.08v23.42H82.95z"/></g><g class="cls-7" clip-path="url(#clip-path-71)"><path class="cls-5" d="M86.26 50.3h21.52v21.75H86.26z"/></g></svg>