<svg width="36" height="36" xmlns="http://www.w3.org/2000/svg"><path d="M28.102 26.482v-7.027c0-3.765-2.01-5.517-4.69-5.517-2.162 0-3.13 1.19-3.67 2.024v-1.736h-4.075c.054 1.15 0 12.256 0 12.256h4.074v-6.845c0-.365.027-.731.135-.993.294-.732.964-1.49 2.089-1.49 1.475 0 2.064 1.124 2.064 2.771v6.558h4.073zM11.375 12.553c1.42 0 2.306-.942 2.306-2.118-.027-1.202-.885-2.117-2.279-2.117-1.393 0-2.304.914-2.304 2.117 0 1.176.884 2.118 2.252 2.118h.025zM18 36C8.06 36 0 27.94 0 18 0 8.059 8.06 0 18 0s18 8.059 18 18c0 9.94-8.06 18-18 18zm-4.588-9.518V14.226H9.34v12.256h4.073z" fill="#FFF" fill-rule="evenodd"/></svg>