<svg width="136" height="60" xmlns="http://www.w3.org/2000/svg"><g fill="#FFF"><path d="M72.378 36.647c-1.25 0-1.72-.579-1.72-1.484 0-.874.56-1.62 1.677-1.62 1.012 0 1.456.58 1.456 1.478v1.626h-1.413zm-.638-4.292a.42.42 0 01.3.713.42.42 0 01-.718-.295.42.42 0 01.418-.415v-.003zm1.225 2.778c0-.642-.256-.912-.69-.912-.484 0-.76.367-.76.867 0 .605.297.9.968.9h.49l-.008-.855zm-.19-2.769a.42.42 0 01.387.635.42.42 0 01-.778-.218c0-.22.17-.402.391-.417zm1.638 3.619h1.908c-.04-.946-.503-1.543-1.52-1.8l.208-.706c1.33.346 2.07 1.073 2.148 2.506h.361v.664h-3.105v-.664z"/><path d="M77.417 36.647c-.129 0-.38-.128-.38-.335 0-.206.259-.333.38-.333h2.251c.02-.162.031-.325.033-.488 0-.816-.337-1.234-1.26-1.234-.242 0-.483.022-.722.064v-.662c.264-.048.532-.071.8-.07 1.451 0 2.025.636 2.025 1.87a7.51 7.51 0 01-.099 1.188h-3.028zm4.079 1.539l.05-.693c.332.067.67.103 1.008.108.67 0 1.114-.25 1.114-.853v-.1h-.509c-1.251 0-1.722-.58-1.722-1.492 0-.842.522-1.613 1.71-1.613.46 0 .918.076 1.353.225v2.211h.663v.668H84.5v.014c0 .885-.58 1.605-2.019 1.605a6.81 6.81 0 01-.985-.08zm2.178-3.855a1.564 1.564 0 00-.613-.116c-.483 0-.76.367-.76.867 0 .585.29.901.969.901h.404v-1.652z"/><path d="M86.113 36.155c-.116.297-.38.496-.915.496h-.137c-.13 0-.38-.129-.38-.335 0-.206.256-.333.38-.333h.045c.38 0 .639-.212.639-.874 0-.816.57-1.562 1.677-1.562 1.005 0 1.457.58 1.457 1.478v.958h.516v.664h-1.838c-.93 0-1.224-.189-1.444-.492zm1.93-1.022c0-.642-.258-.912-.69-.912-.484 0-.76.367-.76.867 0 .605.297.9.967.9h.483v-.855z"/><path d="M89.298 36.647c-.129 0-.38-.128-.38-.335 0-.206.259-.333.38-.333h.76v-3.86h.851v4.528H89.3zm2.644-4.527h.85v4.527h-.851zm4.838 4.527c-1.25 0-1.72-.579-1.72-1.491 0-.842.522-1.613 1.709-1.613.46 0 .918.076 1.354.225v2.211h.665v.668H96.78zm-.611-4.292a.419.419 0 11-.42.418.423.423 0 01.41-.415l.01-.003zm1.122 1.972a1.564 1.564 0 00-.613-.116c-.483 0-.76.368-.76.867 0 .585.29.901.967.901h.414l-.008-1.652zm-.09-1.972a.419.419 0 11-.42.418.42.42 0 01.41-.415l.01-.003z"/><path d="M98.287 36.316c0-.199.258-.333.38-.333h.76V33.63h.85v2.353h.682v.664h-2.28c-.134 0-.392-.125-.392-.33zm1.052.805a.42.42 0 01.296.714.42.42 0 01-.716-.298.416.416 0 01.42-.416zm1.031 0a.42.42 0 01.296.714.42.42 0 01-.716-.298.42.42 0 01.42-.416z"/><path d="M100.467 36.316c0-.199.257-.333.38-.333h.76V33.63h.85v2.353h.666v.664h-2.28c-.12 0-.376-.125-.376-.33zm1.573-3.963a.444.444 0 11.001.887.444.444 0 01-.001-.887z"/><path d="M103.033 36.647c-.129 0-.38-.128-.38-.335 0-.206.259-.333.38-.333h.76v-3.86h.851v1.672c.002.317-.024.634-.078.947h.013a1.743 1.743 0 011.632-1.197c.897 0 1.36.553 1.36 1.46 0 .906-.534 1.646-1.972 1.646h-2.566zm2.644-.668c.806 0 1.026-.405 1.026-.925s-.213-.835-.665-.835c-.697 0-1.27.854-1.4 1.76h1.04zm2.585 2.207l.052-.693a5.48 5.48 0 001.006.108c.671 0 1.115-.25 1.115-.853v-.1h-.509c-1.251 0-1.72-.58-1.72-1.492 0-.842.522-1.613 1.709-1.613.46 0 .918.076 1.354.225v2.211h.665v.668h-.665v.014c0 .885-.581 1.605-2.019 1.605-.33-.003-.66-.03-.988-.08zm2.173-3.855a1.56 1.56 0 00-.611-.116c-.485 0-.76.367-.76.867 0 .585.29.901.967.901h.412l-.008-1.652z"/><path d="M111.83 36.647c-.13 0-.38-.128-.38-.335 0-.206.258-.333.38-.333h.76v-3.86h.85v4.528h-1.61zm2.644-4.527h.85v4.527h-.85zm4.828 4.527c-1.25 0-1.72-.579-1.72-1.491 0-.842.521-1.613 1.709-1.613.46 0 .918.076 1.354.225v2.211h.665v.668h-2.008zm-.612-4.292a.419.419 0 11-.42.418.423.423 0 01.42-.415v-.003zm1.123 1.972a1.564 1.564 0 00-.614-.116c-.484 0-.76.368-.76.867 0 .585.291.901.967.901h.415l-.008-1.652zm-.091-1.972a.419.419 0 11-.42.418.421.421 0 01.42-.415v-.003z"/><path d="M121.205 36.647c-.129 0-.38-.128-.38-.335 0-.206.259-.333.38-.333h.76V33.63h.853v.161c0 .317-.025.634-.078.947h.013a1.743 1.743 0 011.632-1.197c.895 0 1.36.553 1.36 1.46.013.346-.084.688-.277.976h.697v.67h-4.96zm2.644-.668c.806 0 1.026-.405 1.026-.925s-.213-.835-.665-.835c-.697 0-1.27.854-1.4 1.76h1.04z"/><path d="M125.68 36.316c0-.199.259-.333.38-.333h.76V33.63h.851v2.353h.665v.664h-2.28c-.117 0-.376-.125-.376-.33zm1.573-3.963a.444.444 0 11.002.887.444.444 0 01-.002-.887z"/><path d="M129.299 36.155c-.118.297-.38.496-.916.496h-.137c-.129 0-.38-.129-.38-.335 0-.206.259-.333.38-.333h.046c.38 0 .638-.212.638-.874 0-.816.57-1.562 1.677-1.562 1.005 0 1.457.58 1.457 1.478v.958h.517v.664h-1.839c-.928 0-1.22-.189-1.443-.492zm1.933-1.022c0-.642-.258-.912-.69-.912-.483 0-.759.367-.759.867 0 .605.296.9.967.9h.49l-.008-.855z"/><path d="M132.49 36.647c-.13 0-.38-.128-.38-.335 0-.206.258-.333.38-.333h.76v-3.86h.85v4.528h-1.61zm2.638-4.527h.851v4.527h-.85zM26.06 50.756a1.307 1.307 0 01-1.14-1.448 1.312 1.312 0 011.454-1.136 1.31 1.31 0 011.14 1.448 1.307 1.307 0 01-1.296 1.15 1.384 1.384 0 01-.158-.014zm3.945-1.226a1.295 1.295 0 011.03-1.526 1.307 1.307 0 011.535 1.024 1.304 1.304 0 01-1.032 1.53 1.306 1.306 0 01-1.533-1.028zm-9.223-.264a1.3 1.3 0 01-.637-1.728 1.303 1.303 0 011.735-.636 1.3 1.3 0 01.636 1.728 1.307 1.307 0 01-1.185.757c-.19 0-.377-.041-.55-.12zm14.13-1.094a1.296 1.296 0 01.503-1.771 1.309 1.309 0 011.778.501 1.298 1.298 0 01-.503 1.774 1.316 1.316 0 01-.637.162c-.473 0-.91-.254-1.141-.666zm-18.683-1.957a1.296 1.296 0 01-.069-1.838 1.307 1.307 0 011.845-.068 1.3 1.3 0 01.07 1.842c-.247.26-.59.41-.95.412a1.296 1.296 0 01-.896-.348zm22.926-.845a1.3 1.3 0 01-.064-1.839 1.307 1.307 0 011.846-.07 1.3 1.3 0 01-.882 2.253 1.302 1.302 0 01-.9-.345zm10.538 4.422a1.3 1.3 0 01-.064-1.84 1.305 1.305 0 011.844-.064 1.3 1.3 0 01-.88 2.253 1.302 1.302 0 01-.9-.349zm-36.851-7.873a1.294 1.294 0 01.502-1.77 1.313 1.313 0 011.781.501 1.3 1.3 0 01-.507 1.77 1.302 1.302 0 01-1.776-.502zm29.488-.517a1.301 1.301 0 111.1-2.36 1.304 1.304 0 01.635 1.73 1.303 1.303 0 01-1.185.757 1.32 1.32 0 01-.55-.127zM10.946 36.79a1.307 1.307 0 012.564-.503v-.001a1.297 1.297 0 01-1.029 1.53 1.31 1.31 0 01-1.535-1.026zm33.164-.143a1.307 1.307 0 01-1.139-1.451.08.08 0 000-.025v-.025a1.306 1.306 0 011.451-1.135 1.303 1.303 0 011.14 1.444v.059a1.305 1.305 0 01-1.297 1.135 1.144 1.144 0 01-.154-.002zm-32.223-3.87a1.302 1.302 0 01-.873-.488 1.293 1.293 0 01-.267-.96 1.305 1.305 0 012.593.314 1.309 1.309 0 01-1.298 1.145 1.468 1.468 0 01-.155-.011zm30.911-2.275a1.297 1.297 0 011.026-1.53 1.309 1.309 0 011.538 1.022 1.304 1.304 0 01-1.029 1.532c-.084.016-.17.023-.255.022a1.301 1.301 0 01-1.28-1.046zm-29.924-2.705a1.3 1.3 0 01-.638-1.726 1.313 1.313 0 011.736-.638 1.3 1.3 0 01.637 1.728 1.305 1.305 0 01-1.186.757c-.19 0-.377-.04-.549-.121zm28.308-1.654a1.298 1.298 0 01.5-1.774 1.31 1.31 0 011.78.498 1.298 1.298 0 01-.504 1.773 1.304 1.304 0 01-1.776-.498zM15.363 23.37a1.3 1.3 0 01-.072-1.84 1.314 1.314 0 011.85-.068 1.3 1.3 0 01.068 1.84 1.311 1.311 0 01-1.846.068zm22.927-.882a1.299 1.299 0 01-.071-1.84 1.309 1.309 0 011.848-.072 1.3 1.3 0 01.068 1.84 1.307 1.307 0 01-.95.416 1.302 1.302 0 01-.894-.344zm-19.197-2.565a1.3 1.3 0 01.5-1.772 1.311 1.311 0 011.78.502 1.3 1.3 0 01-.504 1.772 1.288 1.288 0 01-.636.164 1.302 1.302 0 01-1.14-.666zm15.319-.023a1.302 1.302 0 01-.64-1.728 1.31 1.31 0 011.734-.636 1.3 1.3 0 01.642 1.726 1.305 1.305 0 01-1.189.758c-.189 0-.375-.04-.547-.12zm-10.694-2.11a1.307 1.307 0 012.564-.503 1.3 1.3 0 01-1.283 1.551c-.623 0-1.16-.44-1.28-1.048zm6.202.85a1.303 1.303 0 01-1.14-1.448 1.306 1.306 0 011.453-1.136 1.303 1.303 0 011.14 1.444 1.307 1.307 0 01-1.295 1.15c-.053 0-.106-.003-.158-.01zm-2.802 37.527a1.308 1.308 0 01-1.248-1.359 1.307 1.307 0 011.366-1.243c.72.033 1.278.643 1.244 1.36a1.301 1.301 0 01-1.303 1.244h-.059v-.002zm3.957-1.437a1.304 1.304 0 011.031-1.529 1.305 1.305 0 011.533 1.024 1.298 1.298 0 01-1.03 1.531 1.308 1.308 0 01-1.535-1.026zm-9.395.53a1.292 1.292 0 01-.878-1.616 1.307 1.307 0 011.622-.88 1.298 1.298 0 01.883 1.618h.001a1.308 1.308 0 01-1.252.935c-.127 0-.254-.02-.376-.056zm14.432-1.841a1.294 1.294 0 01.629-1.728 1.31 1.31 0 011.738.624 1.304 1.304 0 01-.63 1.732 1.303 1.303 0 01-1.736-.628zm-19.488-.339a1.303 1.303 0 01-.467-1.783 1.311 1.311 0 011.787-.465 1.3 1.3 0 01.467 1.78 1.293 1.293 0 01-1.13.644c-.23.001-.458-.06-.657-.176zm24.056-2.139a1.299 1.299 0 01.19-1.832 1.31 1.31 0 011.835.19 1.297 1.297 0 01-.19 1.83 1.31 1.31 0 01-.82.29 1.305 1.305 0 01-1.015-.478zm-28.444-1.185a1.294 1.294 0 01-.028-1.837 1.307 1.307 0 011.848-.03c.517.501.53 1.325.03 1.843-.248.25-.587.392-.94.394-.34 0-.667-.133-.91-.37zm32.291-2.311a1.3 1.3 0 01-.25-1.824 1.304 1.304 0 011.83-.248 1.298 1.298 0 01.249 1.823 1.3 1.3 0 01-1.04.514 1.287 1.287 0 01-.79-.265zM8.772 45.494c-.384-.61-.2-1.414.412-1.798a1.31 1.31 0 011.802.414 1.3 1.3 0 01-.416 1.793 1.304 1.304 0 01-1.799-.409zm38.651-2.356a1.304 1.304 0 01-.676-1.713 1.305 1.305 0 011.71-.678 1.298 1.298 0 01-.522 2.487 1.359 1.359 0 01-.512-.096zM6.433 40.52a1.296 1.296 0 01.832-1.643 1.311 1.311 0 011.651.829 1.305 1.305 0 01-.838 1.645 1.3 1.3 0 01-1.645-.83v-.001zm42.77-2.26a1.293 1.293 0 01-1.071-1.5 1.308 1.308 0 011.502-1.069c.712.12 1.193.79 1.075 1.5a1.311 1.311 0 01-1.287 1.088 1.22 1.22 0 01-.219-.02zM5.362 35.133a1.297 1.297 0 01.31-.946 1.312 1.312 0 011.843-.14 1.302 1.302 0 01-.75 2.286h-.1a1.303 1.303 0 01-1.303-1.2zm42.983-3.229v-.03a1.297 1.297 0 01.31-.97 1.31 1.31 0 012.297.747h-.001v.032a.057.057 0 010 .026c.05.717-.488 1.34-1.207 1.397h-.098a1.307 1.307 0 01-1.301-1.202zm-41.667-.759a1.297 1.297 0 01-1.071-1.5c.118-.71.79-1.19 1.503-1.072.711.12 1.191.791 1.075 1.5a1.31 1.31 0 01-1.288 1.09 1.163 1.163 0 01-.219-.018zm40.717-4.065a1.301 1.301 0 01.834-1.643 1.308 1.308 0 011.648.829 1.303 1.303 0 01-.832 1.644 1.306 1.306 0 01-1.65-.83zM7.84 26.091a1.302 1.302 0 01-.68-1.712 1.309 1.309 0 011.71-.678c.658.286.96 1.046.678 1.703a1.3 1.3 0 01-1.198.784c-.174 0-.347-.032-.51-.097zm37.477-3.408c-.384-.61-.2-1.413.41-1.797a1.311 1.311 0 011.8.41 1.298 1.298 0 01-.408 1.797 1.304 1.304 0 01-1.803-.41zm9.831-5.943a1.298 1.298 0 01.413-1.797 1.31 1.31 0 011.798.41 1.298 1.298 0 01-.408 1.797c-.21.126-.45.191-.695.19a1.306 1.306 0 01-1.108-.6zm-44.956 4.722a1.296 1.296 0 01-.25-1.823 1.308 1.308 0 011.83-.25 1.303 1.303 0 01-.794 2.34c-.284 0-.56-.094-.786-.267zm32.05-2.555a1.3 1.3 0 01-.033-1.842 1.312 1.312 0 011.85-.03c.518.5.53 1.323.029 1.84a1.31 1.31 0 01-.94.397 1.3 1.3 0 01-.906-.365zm-39.921-9a1.303 1.303 0 01.19-1.833 1.312 1.312 0 011.839.19 1.299 1.299 0 01-.19 1.832 1.31 1.31 0 01-.823.29 1.309 1.309 0 01-1.016-.48zm36.029 6.06a1.3 1.3 0 01-.471-1.779 1.304 1.304 0 011.787-.47 1.299 1.299 0 01.47 1.782c-.235.4-.666.645-1.131.643a1.3 1.3 0 01-.655-.176zm-20.537-1.465a1.296 1.296 0 01.627-1.732 1.31 1.31 0 011.738.625 1.296 1.296 0 01-.627 1.732 1.307 1.307 0 01-1.738-.625zm16.054-.462a1.294 1.294 0 01-.881-1.616 1.307 1.307 0 011.62-.882c.69.205 1.086.927.885 1.616a1.306 1.306 0 01-1.254.935c-.125 0-.25-.018-.37-.053zm1.307-11.3a1.292 1.292 0 01-.881-1.616 1.307 1.307 0 011.62-.882c.69.205 1.086.927.885 1.617a1.308 1.308 0 01-1.256.935c-.124 0-.248-.019-.368-.053zm-6.122 10.507a1.31 1.31 0 01-1.248-1.357 1.307 1.307 0 012.269-.826c.234.255.356.591.34.936a1.301 1.301 0 01-1.302 1.247h-.059zM36.188 59a1.298 1.298 0 01.773-1.673 1.314 1.314 0 011.68.776 1.3 1.3 0 01-.778 1.67A1.299 1.299 0 0136.188 59zM11.56 56.1a1.304 1.304 0 111.54-2.103V54a1.3 1.3 0 01.285 1.819 1.3 1.3 0 01-1.054.534 1.295 1.295 0 01-.771-.25zm-4.122-3.663a1.296 1.296 0 01.076-1.84 1.308 1.308 0 011.845.076 1.296 1.296 0 01-.075 1.837c-.24.223-.556.346-.885.347a1.3 1.3 0 01-.96-.42zm-5.736-9.343a1.305 1.305 0 01.775-1.673 1.31 1.31 0 011.679.776 1.296 1.296 0 01-.777 1.67 1.303 1.303 0 01-1.677-.772v-.001zM.315 37.766a1.308 1.308 0 012.583-.403c.11.71-.377 1.376-1.09 1.487a1.304 1.304 0 01-1.493-1.085zm54.638-1.95a1.307 1.307 0 01-.908-.418 1.298 1.298 0 01-.344-.935v-.057a1.308 1.308 0 011.354-1.25v.001a1.3 1.3 0 011.256 1.353v.06a1.303 1.303 0 01-1.303 1.25.27.27 0 01-.055-.004zM1.252 33.619a1.306 1.306 0 01-1.25-1.357 1.303 1.303 0 011.361-1.245 1.298 1.298 0 011.25 1.353 1.305 1.305 0 01-1.306 1.249h-.055zm52.162-4.199a1.306 1.306 0 012.58-.403 1.297 1.297 0 01-1.087 1.49c-.067.01-.135.014-.203.014a1.302 1.302 0 01-1.29-1.1zM1.727 28.391a1.295 1.295 0 01-.967-1.567 1.31 1.31 0 011.576-.965 1.302 1.302 0 01-.304 2.568 1.206 1.206 0 01-.305-.036zm50.426-3.797a1.296 1.296 0 01.771-1.673 1.307 1.307 0 011.68.77 1.292 1.292 0 01-.772 1.67 1.305 1.305 0 01-1.68-.767zM3.212 23.35a1.304 1.304 0 01-.644-1.73 1.31 1.31 0 011.734-.633 1.3 1.3 0 01.64 1.728 1.301 1.301 0 01-1.73.636zm46.753-3.25a1.295 1.295 0 01.427-1.788 1.305 1.305 0 011.797.43 1.298 1.298 0 01-.427 1.789 1.32 1.32 0 01-.684.189 1.3 1.3 0 01-1.113-.62zm-3.028-3.98a1.296 1.296 0 01.074-1.837 1.312 1.312 0 011.846.07 1.296 1.296 0 01-.076 1.84 1.308 1.308 0 01-1.844-.072zM8.975 14.61a1.296 1.296 0 01.074-1.838 1.31 1.31 0 011.846.072 1.296 1.296 0 01-.076 1.838c-.242.223-.56.347-.889.348a1.313 1.313 0 01-.955-.42zm34.218-1.811a1.301 1.301 0 01-.287-1.82 1.306 1.306 0 011.826-.285 1.3 1.3 0 01.287 1.819 1.31 1.31 0 01-1.826.286zm-4.319-2.531a1.302 1.302 0 01-.64-1.728 1.31 1.31 0 011.736-.634c.655.302.941 1.075.64 1.728a1.314 1.314 0 01-1.189.757 1.29 1.29 0 01-.547-.123zM15.832 9.123a1.298 1.298 0 01.773-1.673 1.311 1.311 0 011.679.772 1.303 1.303 0 01-.773 1.671 1.31 1.31 0 01-1.68-.77zm6.848-1.968a1.307 1.307 0 011.088-1.492A1.31 1.31 0 0125.26 6.75a1.297 1.297 0 01-1.089 1.487 1.31 1.31 0 01-1.493-1.083zm10.944 33.242l-.067.023c-.106.034-.218.05-.33.049a1.863 1.863 0 01-.634-.12c-.38-.143-1.638-.916-2.785-1.627l-.219-.135.211-.147c2.392-1.655 4.776-2.705 7.095-3.127-.211-.117-.652-.273-1.493-.273-2.15 0-4.152 1.136-5.86 2.207l-.222.138-.036-.257c-.232-1.703-.361-4.944-.39-7.34a5.318 5.318 0 012.47 3.965 5.307 5.307 0 00.277-1.703 5.25 5.25 0 00-1.759-3.92l-.146-.13.256-.012h.1a4.176 4.176 0 013.978 3.062c.013-.13.02-.26.02-.391 0-2.162-1.629-3.975-3.708-4.13l-.164-.014.112-.119a3.117 3.117 0 011.974-.982 2.913 2.913 0 00-3.068.314l-.09.066-.033-.106a3.204 3.204 0 00-.697-1.175 3.153 3.153 0 00-.697 1.175l-.037.106-.087-.066a2.913 2.913 0 00-3.068-.314 3.121 3.121 0 011.974.969l.112.12-.163.012c-2.08.156-3.71 1.969-3.71 4.13 0 .131 0 .26.02.392a4.176 4.176 0 013.978-3.062h.101l.255.011-.147.13a5.308 5.308 0 00-1.474 5.634 5.316 5.316 0 012.47-3.966c-.027 2.396-.156 5.642-.39 7.34l-.036.258-.22-.138c-1.71-1.068-3.712-2.207-5.86-2.207-.843 0-1.282.155-1.495.272 2.32.422 4.705 1.473 7.095 3.127l.21.148-.218.134c-1.14.712-2.4 1.484-2.783 1.628a1.863 1.863 0 01-.634.119 1.029 1.029 0 01-.33-.05l-.069-.022a1.11 1.11 0 00-.144-.045.434.434 0 00-.012.113c0 .379.544.791 1.319.791a2.524 2.524 0 001.15-.293c1.228-.636 2.793-1.597 2.808-1.607l.09-.055.089.055c.015.01 1.58.971 2.807 1.607.354.188.75.289 1.15.293.776 0 1.317-.416 1.317-.79a.587.587 0 000-.114 1.07 1.07 0 00-.146.045m1.014-31.758a1.308 1.308 0 01-.967-1.573 1.309 1.309 0 011.575-.96 1.295 1.295 0 01.967 1.57 1.31 1.31 0 01-1.27.999 1.42 1.42 0 01-.305-.036zM70.657 22.92c.046-.28.076-.569.143-.845a3.576 3.576 0 013.119-2.788c.966-.13 1.916-.095 2.828.288 1.15.48 1.806 1.368 2.078 2.56 0 .037 0 .074.015.122-.036 0-.066.011-.095.011h-2.051c-.082 0-.135-.011-.173-.1a1.796 1.796 0 00-1.993-1.085c-.71.063-1.3.57-1.466 1.26a3.25 3.25 0 00.063 2.102c.18.544.658.936 1.229 1.009a2.244 2.244 0 001.67-.303c.206-.133.37-.322.472-.545h-1.732v-1.48h4.112v4.097h-1.74v-.965a.487.487 0 00-.098.06c-.595.722-1.383 1.013-2.293 1.025a4.335 4.335 0 01-2.47-.633c-.871-.567-1.329-1.396-1.519-2.392-.042-.216-.066-.435-.099-.655v-.744zm18.033.365a4.667 4.667 0 01-.469 2.068 3.447 3.447 0 01-2.176 1.774 5.308 5.308 0 01-3.188-.027c-1.445-.47-2.247-1.5-2.495-2.971a4.88 4.88 0 01.117-2.215 3.45 3.45 0 012.397-2.46 5.22 5.22 0 013.262.017c1.459.48 2.245 1.535 2.482 3.019.042.265.048.53.07.795zm-6.121 0v.227c.01.423.134.836.359 1.196.418.62 1.027.829 1.75.776a1.673 1.673 0 001.498-1.026 2.966 2.966 0 00.137-1.967 1.757 1.757 0 00-1.549-1.408 1.814 1.814 0 00-1.945.962 2.63 2.63 0 00-.25 1.241v-.001zm17.803 1.215h2.255v.316a.69.69 0 00.545.73c.41.128.843.166 1.269.112.226-.022.448-.074.66-.153a.963.963 0 00.39-.301.466.466 0 00-.19-.744 5.255 5.255 0 00-1.056-.301c-.76-.133-1.52-.216-2.23-.503a3.274 3.274 0 01-.796-.46c-.93-.735-.95-2.474.139-3.282a3.32 3.32 0 011.52-.604 6.494 6.494 0 012.898.144c.294.092.573.225.83.395.636.415.95 1.136.866 1.982h-2.232c0-.057-.01-.104 0-.15a.65.65 0 00-.463-.672 2.155 2.155 0 00-1.497 0 .898.898 0 00-.364.282.421.421 0 00.15.672c.317.135.648.233.987.294.72.09 1.433.235 2.131.431a2.51 2.51 0 011.243.79 2.244 2.244 0 01-.665 3.3 3.902 3.902 0 01-1.569.493 7.391 7.391 0 01-2.89-.148 3.834 3.834 0 01-.974-.432 2.009 2.009 0 01-.95-1.682c-.016-.16-.007-.328-.007-.51zm17.028 2.729h-2.246c-.14-.348-.287-.697-.422-1.049a.2.2 0 00-.22-.155h-3.304a.179.179 0 00-.2.135c-.12.323-.252.643-.38.961a.19.19 0 01-.128.108h-2.116s-.019 0-.038-.015c.017-.05.032-.1.051-.15l3.04-7.57a.209.209 0 01.23-.165h2.425a.19.19 0 01.203.13 6884.06 6884.06 0 003.07 7.65.887.887 0 00.036.12zm-3.348-2.84c-.017-.058-.027-.103-.044-.147-.342-.897-.682-1.796-1.027-2.691-.02-.051-.076-.087-.114-.13-.04.043-.097.077-.118.128-.346.9-.689 1.804-1.03 2.708-.015.042-.024.086-.038.133h2.371zM97.457 19.34c-.023.076-.04.136-.061.19l-2.553 7.525a.214.214 0 01-.25.174h-2.62a.16.16 0 01-.19-.13c-.862-2.547-1.726-5.091-2.59-7.634-.012-.036-.02-.072-.035-.125h2.255l.455 1.475c.428 1.388.855 2.776 1.28 4.164.023.075.023.168.154.168.132 0 .128-.098.152-.174.565-1.831 1.128-3.66 1.689-5.49a.19.19 0 01.21-.156h1.92c.06.004.111.01.184.013zm.921 8.004c-.585 0-.988-.251-1.108-.704-.19-.728.19-1.38 1.028-1.387.15-.003.302.014.448.05.502.135.76.548.714 1.122a.969.969 0 01-.885.904c-.074.01-.15.012-.197.015zm-26.184 17.52c-1.254 0-1.537-.68-1.537-1.437v-2.59h.76v2.543c0 .5.165.85.824.85.59 0 .836-.246.836-.92v-2.472h.76v2.434c.006 1.077-.595 1.592-1.643 1.592zm4.224-.064v-1.867c0-.299-.083-.48-.366-.48-.38 0-.676.427-.676.946v1.408h-.76v-2.924h.712c0 .175-.013.35-.042.522.19-.37.579-.597.996-.581.659 0 .87.416.87.927V44.8h-.734zm2.106-3.386a.444.444 0 01-.45-.435.45.45 0 01.27-.427.456.456 0 01.5.09.448.448 0 01.103.493.453.453 0 01-.423.28zm-.393 3.385v-2.916h.806v2.916h-.806zm3.264-3.668a1.182 1.182 0 00-.365-.053c-.33 0-.477.17-.477.559v.246h.682v.58h-.682V44.8h-.748v-2.335h-.513v-.581h.513v-.24c0-.786.365-1.174 1.166-1.174.16-.003.32.013.477.047l-.053.615zm.775.283a.444.444 0 01-.449-.435.45.45 0 01.27-.427.456.456 0 01.5.09.448.448 0 01.102.493.453.453 0 01-.422.28zm-.389 3.385v-2.916h.806v2.916h-.806zm3.886-1.313h-1.803c0 .517.241.785.807.785.291-.003.579-.06.848-.17l.083.568c-.34.123-.7.187-1.062.189-.923 0-1.441-.464-1.441-1.49 0-.874.518-1.544 1.388-1.544.87 0 1.214.547 1.214 1.238 0 .142-.012.284-.034.424zm-1.233-1.11c-.312 0-.536.23-.57.61h1.085c.011-.4-.19-.61-.515-.61zm3.658 2.424c.001-.163.012-.326.034-.487h-.01a.977.977 0 01-.926.55c-.712 0-1.066-.533-1.066-1.366 0-.986.57-1.667 1.55-1.667.127-.002.254.006.38.024v-1.338h.749V44.8h-.71zm-.05-2.33a1.906 1.906 0 00-.394-.046c-.43 0-.735.269-.735.992 0 .545.157.827.5.827.394 0 .63-.458.63-.958v-.816zm5.129 2.33l-1.23-2.183a6.972 6.972 0 01-.354-.774c.025.346.042 1.308.042 1.883V44.8h-.737v-3.961h1.014l1.2 2.131c.144.256.271.52.38.791a43.89 43.89 0 01-.041-1.925v-.997h.737V44.8h-1.01zm3.406 0a3.395 3.395 0 01.029-.493.992.992 0 01-.937.557.79.79 0 01-.836-.833c0-.693.665-1.015 1.69-1.015v-.106c0-.352-.134-.51-.523-.51-.304.012-.604.08-.884.198l-.123-.568c.354-.132.73-.2 1.107-.2.906 0 1.178.378 1.178 1.027v1.202c0 .235 0 .511.023.757l-.724-.017zm-.059-1.297c-.76 0-.967.19-.967.439a.333.333 0 00.354.34c.366 0 .613-.351.613-.703v-.076zm2.507 1.355c-.647 0-.847-.235-.847-.916v-1.478h-.507v-.581h.507v-.898l.749-.198v1.096h.712v.58h-.712v1.28c0 .379.087.481.347.481a1.22 1.22 0 00.335-.04l.053.593a2.788 2.788 0 01-.637.081zm1.663-3.399a.432.432 0 01-.318-.13.469.469 0 01-.133-.327.462.462 0 01.453-.443c.24 0 .438.194.454.443a.461.461 0 01-.456.457zm-.387 3.34v-2.916h.806v2.916h-.806zm2.675.059c-.83 0-1.371-.428-1.371-1.467 0-.908.606-1.567 1.497-1.567.835 0 1.371.458 1.371 1.461 0 .916-.625 1.573-1.497 1.573zm.072-2.4c-.336 0-.666.26-.666.857 0 .599.224.903.653.903.38 0 .661-.299.661-.891 0-.593-.207-.869-.648-.869zm3.822 2.342v-1.867c0-.299-.083-.48-.366-.48-.38 0-.677.427-.677.946v1.408h-.76v-2.924h.713c0 .175-.013.35-.042.522.19-.37.578-.597.995-.581.66 0 .87.416.87.927V44.8h-.733zm3.132 0a3.395 3.395 0 01.029-.493.992.992 0 01-.937.557.79.79 0 01-.835-.833c0-.693.664-1.015 1.69-1.015v-.106c0-.352-.137-.51-.524-.51-.304.012-.603.08-.883.198l-.124-.568c.354-.132.73-.2 1.108-.2.906 0 1.177.378 1.177 1.027v1.202c0 .235 0 .511.023.757l-.724-.017zm-.059-1.297c-.76 0-.966.19-.966.439a.333.333 0 00.353.34c.367 0 .613-.351.613-.703v-.076zm1.577 1.297v-4.284h.76V44.8zm3.9-1.356c-.149 0-.278-.011-.278-.011v1.366h-.76v-3.961s.547-.023 1.114-.023c.97 0 1.508.441 1.508 1.221s-.56 1.408-1.584 1.408zm.017-2h-.295v1.324c.107.02.215.029.323.029.49 0 .737-.263.737-.699 0-.435-.237-.654-.765-.654zm2.103 3.356v-4.284h.76V44.8zm3.132 0a3.395 3.395 0 01.028-.493.992.992 0 01-.936.557.79.79 0 01-.836-.833c0-.693.665-1.015 1.69-1.015v-.106c0-.352-.136-.51-.524-.51-.304.012-.603.08-.883.198l-.124-.568c.355-.132.73-.2 1.108-.2.906 0 1.177.378 1.177 1.027v1.202c0 .235 0 .511.023.757l-.723-.017zm-.06-1.297c-.76 0-.966.19-.966.439a.333.333 0 00.353.34c.367 0 .614-.351.614-.703v-.076zm2.508 1.355c-.648 0-.847-.235-.847-.916v-1.478h-.507v-.581h.507v-.898l.748-.198v1.096h.712v.58h-.712v1.28c0 .379.087.481.348.481.112.002.225-.011.334-.04l.05.602c-.208.048-.42.072-.633.072zm2.969-3.727a1.182 1.182 0 00-.365-.053c-.33 0-.479.17-.479.559v.246h.684v.58h-.684V44.8h-.746v-2.335h-.513v-.581h.513v-.24c0-.786.365-1.174 1.166-1.174.16-.002.32.013.477.047l-.053.615zm1.413 3.727c-.83 0-1.373-.428-1.373-1.467 0-.908.607-1.567 1.496-1.567.836 0 1.372.458 1.372 1.461 0 .916-.623 1.573-1.495 1.573zm.07-2.4c-.336 0-.665.26-.665.857 0 .599.223.903.654.903.38 0 .659-.299.659-.891 0-.593-.205-.869-.648-.869zm3.588.1c-.541-.106-.813.24-.813 1.05V44.8h-.76v-2.916h.713c-.003.196-.02.392-.052.586h.012c.14-.369.423-.69.93-.645l-.03.734zm4.061 2.242v-1.842c0-.313-.07-.506-.347-.506-.329 0-.67.379-.67.947v1.397h-.744v-1.848c0-.287-.058-.5-.347-.5-.348 0-.67.406-.67.947v1.397h-.76v-2.91h.712c0 .175-.013.35-.036.523a1.05 1.05 0 01.967-.587.76.76 0 01.807.581 1.04 1.04 0 01.95-.58c.57 0 .877.312.877.968v2.007l-.739.005z"/></g></svg>