<svg id="Layer_1" data-name="Layer 1" xmlns="http://www.w3.org/2000/svg" viewBox="0 0 233.78 216.13"><defs><clipPath id="clip-path"><path class="cls-1" d="M180.3 105.84V92.55a1.94 1.94 0 00-2-1.91H63.8a1.94 1.94 0 00-2 1.9v53.4a1.93 1.93 0 002 1.9h86.24a1.91 1.91 0 100-3.81H65.76V94.45h110.61v11.38a2 2 0 003.93 0z"/></clipPath><clipPath id="clip-path-2"><path class="cls-1" d="M60.83 60.15h137.34v117.47H60.83z"/></clipPath><clipPath id="clip-path-3"><path class="cls-1" d="M72.87 68.13a1.93 1.93 0 00-.87 1.22l-4.45 20.43A2 2 0 0069 92.1a1.93 1.93 0 002.29-1.48l4-18.52 87.51 20a1.58 1.58 0 00.43 0 1.94 1.94 0 001.92-1.94 2 2 0 00-1.5-1.9L74.31 67.88a1.93 1.93 0 00-1.44.25z"/></clipPath><clipPath id="clip-path-5"><path class="cls-1" d="M93.92 71.68l3.78-7.22 53.43 21.29a2 2 0 002.59-1 1.86 1.86 0 00-1.07-2.47l-55.13-22a2 2 0 00-2.53.9L90.39 70a1.85 1.85 0 00.81 2.56 2 2 0 002.68-.77v-.11z"/></clipPath><clipPath id="clip-path-7"><path class="cls-1" d="M155.29 101.37a2 2 0 00-1.89-2.15h-17.47a2.17 2.17 0 000 4.29h17.47a2 2 0 001.89-2.14z"/></clipPath><clipPath id="clip-path-9"><path class="cls-1" d="M118.47 102.86a16.38 16.38 0 11-16.22 16.38 16.3 16.3 0 0116.22-16.38zm0 36.4a20 20 0 10-19.81-20 19.92 19.92 0 0019.81 20z"/></clipPath><clipPath id="clip-path-11"><path class="cls-1" d="M173 173.32c-13.19 0-19.94-3.33-20.27-4.56v-3.59c4.8 2.45 12.71 3.59 20.27 3.59s15.48-1.15 20.28-3.59v3.55c-.36 1.28-7.12 4.6-20.28 4.6zm0-63.82c13.06 0 19.82 3.27 20.28 4.56-.46 1.29-7.22 4.56-20.28 4.56s-19.92-3.32-20.27-4.52c.34-1.28 7.1-4.6 20.27-4.6zm20.28 13.64c-.35 1.26-7.11 4.59-20.28 4.59s-19.94-3.33-20.27-4.56v-3.58c4.8 2.43 12.71 3.58 20.27 3.58s15.48-1.15 20.28-3.58zm0 9.12c-.35 1.26-7.11 4.59-20.28 4.59s-19.94-3.33-20.27-4.56v-3.58c4.8 2.43 12.71 3.58 20.27 3.58s15.48-1.15 20.28-3.58zm0 9.11c-.35 1.27-7.11 4.6-20.28 4.6s-19.94-3.33-20.27-4.56v-3.59c4.8 2.45 12.71 3.59 20.27 3.59s15.48-1.15 20.28-3.59zm0 9.12c-.35 1.26-7.11 4.59-20.28 4.59s-19.94-3.33-20.27-4.56v-3.58c4.8 2.44 12.71 3.58 20.27 3.58s15.48-1.15 20.28-3.58zm0 9.12c-.35 1.26-7.11 4.59-20.28 4.59s-19.94-3.33-20.27-4.56v-3.58c4.8 2.44 12.71 3.58 20.27 3.58s15.48-1.15 20.28-3.58zM173 104.94c-11.94 0-24.78 2.85-24.78 9.12v54.7c0 6.26 12.84 9.11 24.78 9.11s24.77-2.85 24.77-9.11v-54.7c-.01-6.27-12.85-9.12-24.77-9.12z"/></clipPath><clipPath id="clip-path-13"><path class="cls-1" d="M83.22 103.09h16.33a1.94 1.94 0 100-3.87H82.44a1.94 1.94 0 00-1.38.55l-10.13 9.85a2.32 2.32 0 00-.59 1.58v16.08a1.93 1.93 0 00.5 1.31l9.24 10a1.93 1.93 0 001.44.63h18a1.94 1.94 0 100-3.87H82.37l-8.13-8.86v-14.7z"/></clipPath><clipPath id="clip-path-15"><path class="cls-1" d="M119.13 122.58h-5.3a2.23 2.23 0 000 4.45h2.11a2.13 2.13 0 104.25 0v-.1a5.09 5.09 0 004.25-4.9 5.16 5.16 0 00-5.31-5H117c-.65 0-1.07-.39-1.07-.56s.42-.56 1.07-.56h5.3a2.23 2.23 0 000-4.45h-2.12a2.13 2.13 0 10-4.25 0v.11a5.09 5.09 0 00-4.25 4.89 5.17 5.17 0 005.32 5h2.12c.67 0 1.06.38 1.06.55s-.38.57-1.05.57z"/></clipPath><clipPath id="clip-path-17"><path class="cls-1" d="M76.29 143.25h24.02v6.92H76.29z"/></clipPath><clipPath id="clip-path-19"><path d="M82.28 149.31a2.6 2.6 0 10-2.57-2.6 2.59 2.59 0 002.57 2.6z" clip-rule="evenodd" fill="none"/></clipPath><style>.cls-1{fill:none}.cls-4{clip-path:url(#clip-path-2)}.cls-5{fill:#3ba07a}</style></defs><g class="cls-4" clip-path="url(#clip-path)"><path class="cls-5" d="M53.27 81.98H188.9v74.55H53.27z"/></g><g class="cls-4" clip-path="url(#clip-path-3)"><path class="cls-5" d="M58.91 59.18h114.86v41.62H58.91z"/></g><g class="cls-4" clip-path="url(#clip-path-5)"><path class="cls-5" d="M81.56 51.5h80.88v43.05H81.56z"/></g><g class="cls-4" clip-path="url(#clip-path-7)"><path class="cls-5" d="M125.47 90.56h38.41v21.6h-38.41z"/></g><g class="cls-4" clip-path="url(#clip-path-9)"><path class="cls-5" d="M90.07 90.56h56.81v57.35H90.07z"/></g><g class="cls-4" clip-path="url(#clip-path-11)"><path class="cls-5" d="M139.62 96.28h66.72v90.25h-66.72z"/></g><g class="cls-4" clip-path="url(#clip-path-13)"><path class="cls-5" d="M61.75 90.56h48.32v57.35H61.75z"/></g><g class="cls-4" clip-path="url(#clip-path-15)"><path class="cls-5" d="M103.12 100.57h29.91v37.33h-29.91z"/></g><g clip-path="url(#clip-path-17)"><path fill="#fff" d="M67.7 134.6h41.2v24.24H67.7z"/></g><g class="cls-4" clip-path="url(#clip-path-19)"><path class="cls-5" d="M71.14 135.46h22.32v22.51H71.14z"/></g></svg>