<svg id="Layer_1" data-name="Layer 1" xmlns="http://www.w3.org/2000/svg" viewBox="0 0 233.78 216.13"><defs><clipPath id="clip-path"><path class="cls-1" d="M183 78.54V63.6a2.21 2.21 0 00-2.25-2.15H49.85a2.2 2.2 0 00-2.24 2.14v60a2.2 2.2 0 002.24 2.14h98.58a2.14 2.14 0 100-4.28H52.12V65.74h126.41v12.79a2.21 2.21 0 002.24 2.15 2.19 2.19 0 002.23-2.14z"/></clipPath><clipPath id="clip-path-2"><path class="cls-1" d="M46.78 27.19h156.67V159.5H46.78z"/></clipPath><clipPath id="clip-path-3"><path class="cls-1" d="M60.21 36.16a2.21 2.21 0 00-1 1.37l-5.12 23a2.2 2.2 0 004.29.94l4.64-20.81 100 22.47a2.25 2.25 0 00.49.06 2.19 2.19 0 002.24-2.19 2.16 2.16 0 00-1.75-2.17l-102.17-23a2.25 2.25 0 00-1.62.33z"/></clipPath><clipPath id="clip-path-5"><path class="cls-1" d="M84.3 40.14L88.6 32l61.09 24a2.3 2.3 0 002.94-1.14 2.07 2.07 0 00-1.21-2.86l-63-24.68a2.33 2.33 0 00-2.89 1l-5.25 9.88a2.05 2.05 0 00.92 2.88 2.32 2.32 0 003-.86.75.75 0 01.07-.12z"/></clipPath><clipPath id="clip-path-7"><path class="cls-1" d="M154.42 73.51a2.29 2.29 0 00-2.15-2.41h-20a2.43 2.43 0 000 4.82h20a2.29 2.29 0 002.15-2.41z"/></clipPath><clipPath id="clip-path-9"><path class="cls-1" d="M112.35 75.19A18.41 18.41 0 1193.81 93.6a18.48 18.48 0 0118.54-18.41zm0 40.92A22.51 22.51 0 1089.7 93.6a22.57 22.57 0 0022.65 22.51z"/></clipPath><clipPath id="clip-path-11"><path class="cls-1" d="M174.65 154.38c-15.05 0-22.78-3.74-23.17-5.12v-4c5.48 2.75 14.54 4 23.17 4s17.7-1.29 23.19-4v4c-.4 1.38-8.12 5.12-23.19 5.12zm0-71.73c14.94 0 22.67 3.67 23.19 5.13-.52 1.45-8.25 5.12-23.19 5.12s-22.74-3.73-23.17-5.08c.43-1.44 8.15-5.17 23.17-5.17zM197.84 98c-.4 1.43-8.12 5.17-23.19 5.17s-22.78-3.76-23.17-5.17v-4c5.48 2.73 14.54 4 23.17 4s17.7-1.29 23.19-4zm0 10.25c-.4 1.42-8.12 5.16-23.19 5.16s-22.78-3.74-23.17-5.12v-4c5.48 2.74 14.54 4 23.17 4s17.7-1.29 23.19-4zm0 10.25c-.4 1.42-8.12 5.16-23.19 5.16s-22.78-3.74-23.17-5.12v-4c5.48 2.75 14.54 4 23.17 4s17.7-1.3 23.19-4zm0 10.25c-.4 1.42-8.12 5.16-23.19 5.16s-22.78-3.74-23.17-5.13v-4c5.48 2.74 14.54 4 23.17 4s17.7-1.29 23.19-4zm0 10.24c-.4 1.42-8.12 5.16-23.19 5.16s-22.78-3.74-23.17-5.12v-4c5.48 2.75 14.54 4 23.17 4s17.7-1.29 23.19-4zm-23.19-61.46c-13.63 0-28.32 3.21-28.32 10.25v61.48c0 7 14.69 10.25 28.32 10.25S203 156.3 203 149.26V87.78c0-7.04-14.69-10.25-28.35-10.25z"/></clipPath><clipPath id="clip-path-13"><path class="cls-1" d="M72.05 75.46h18.66a2.18 2.18 0 100-4.36H71.15a2.26 2.26 0 00-1.56.62L58 82.79a2.69 2.69 0 00-.67 1.78v18.07a2.18 2.18 0 00.58 1.46l10.56 11.3a2.22 2.22 0 001.64.71h20.6a2.18 2.18 0 100-4.36H71.09l-9.31-10V85.28z"/></clipPath><clipPath id="clip-path-15"><path class="cls-1" d="M113.09 97.35h-6a2.5 2.5 0 000 5h2.42a2.43 2.43 0 104.86 0v-.11a5.73 5.73 0 004.85-5.5 5.87 5.87 0 00-6.08-5.64h-2.42c-.76 0-1.21-.43-1.21-.62s.45-.63 1.21-.63h6.08a2.5 2.5 0 000-5h-2.43a2.43 2.43 0 10-4.86 0V85a5.77 5.77 0 00-4.85 5.5 5.84 5.84 0 006.06 5.64h2.42c.76 0 1.23.44 1.23.63s-.52.58-1.28.58z"/></clipPath><clipPath id="clip-path-17"><path class="cls-1" d="M64.11 120.59H91.6v7.78H64.11z"/></clipPath><clipPath id="clip-path-19"><path d="M71 127.4a2.92 2.92 0 10-2.94-2.92A2.94 2.94 0 0071 127.4z" clip-rule="evenodd" fill="none"/></clipPath><style>.cls-1{fill:none}</style></defs><g clip-path="url(#clip-path)"><path d="M37.81 51.73h155.03v83.79H37.81z"/></g><g clip-path="url(#clip-path-3)"><path d="M44.29 26.09h131.29v46.78H44.29z"/></g><g clip-path="url(#clip-path-5)"><path d="M70.17 17.46h92.45v48.39H70.17z"/></g><g clip-path="url(#clip-path-7)"><path d="M120.33 61.37h43.9v24.28h-43.9z"/></g><g clip-path="url(#clip-path-9)"><path d="M79.88 61.37h64.94v64.46H79.88z"/></g><g clip-path="url(#clip-path-11)"><path d="M136.53 67.8h76.27v101.43h-76.27z"/></g><g clip-path="url(#clip-path-13)"><path d="M47.52 61.37h55.23v64.46H47.52z"/></g><g clip-path="url(#clip-path-15)"><path d="M94.79 72.62h34.19v41.96H94.79z"/></g><g clip-path="url(#clip-path-17)"><path fill="#fff" d="M54.31 110.86h47.09v27.24H54.31z"/></g><g clip-path="url(#clip-path-19)"><path d="M58.24 111.83h25.51v25.3H58.24z"/></g></svg>