<svg id="Layer_1" data-name="Layer 1" xmlns="http://www.w3.org/2000/svg" viewBox="0 0 233.78 216.13"><defs><clipPath id="clip-path"><path class="cls-1" d="M29.25 18.25h179.94v177.61H29.25z"/></clipPath><clipPath id="clip-path-2"><path class="cls-1" d="M167.07 98.49V85.94a1.83 1.83 0 00-1.85-1.8H56.13a1.84 1.84 0 00-1.88 1.8v50.43a1.84 1.84 0 001.88 1.8h82.12a1.8 1.8 0 100-3.6H58V87.74h105.34v10.75a1.87 1.87 0 003.73 0z"/></clipPath><clipPath id="clip-path-3"><path class="cls-1" d="M53.99 55.35h130.1v110.61H53.99z"/></clipPath><clipPath id="clip-path-4"><path class="cls-1" d="M64.76 62.89A1.84 1.84 0 0064 64l-4.3 19.33a1.82 1.82 0 103.56.79l3.86-17.49 83.36 18.88a1.31 1.31 0 00.39 0 1.84 1.84 0 00.39-3.63L66.13 62.64a1.82 1.82 0 00-1.37.25z"/></clipPath><clipPath id="clip-path-6"><path class="cls-1" d="M84.82 66.23l3.59-6.81 50.89 20.1a1.92 1.92 0 002.46-1 1.76 1.76 0 00-1-2.34L88.24 55.49a2 2 0 00-2.42.85l-4.36 8.29a1.73 1.73 0 00.74 2.42 1.92 1.92 0 002.55-.72l.07-.1z"/></clipPath><clipPath id="clip-path-8"><path class="cls-1" d="M143.26 94.27a1.92 1.92 0 00-1.81-2h-16.63a2 2 0 000 4.06h16.63a1.92 1.92 0 001.81-2.06z"/></clipPath><clipPath id="clip-path-10"><path class="cls-1" d="M108.19 95.68a15.48 15.48 0 11-15.44 15.47 15.46 15.46 0 0115.44-15.47zm0 34.38a18.91 18.91 0 10-18.88-18.91 18.88 18.88 0 0018.88 18.91z"/></clipPath><clipPath id="clip-path-12"><path class="cls-1" d="M160.11 162.22c-12.55 0-19-3.14-19.31-4.3v-3.38c4.56 2.3 12.1 3.38 19.31 3.38s14.74-1.09 19.3-3.39v3.36c-.31 1.19-6.76 4.33-19.3 4.33zm0-60.27c12.45 0 18.88 3.09 19.3 4.31-.42 1.22-6.85 4.3-19.3 4.3s-19-3.13-19.31-4.26c.35-1.22 6.78-4.3 19.31-4.3zm19.3 12.89c-.31 1.19-6.76 4.33-19.3 4.33s-19-3.14-19.31-4.3v-3.39c4.56 2.3 12.1 3.39 19.31 3.39s14.74-1.09 19.3-3.39zm0 8.61c-.31 1.19-6.76 4.33-19.3 4.33s-19-3.14-19.31-4.3v-3.39c4.56 2.3 12.1 3.39 19.31 3.39s14.74-1.09 19.3-3.39zm0 8.61c-.31 1.19-6.76 4.33-19.3 4.33s-19-3.14-19.31-4.3v-3.39c4.56 2.31 12.1 3.39 19.31 3.39s14.74-1.09 19.3-3.39zm0 8.61c-.31 1.19-6.76 4.33-19.3 4.33s-19-3.14-19.31-4.3v-3.38c4.56 2.3 12.1 3.38 19.31 3.38s14.74-1.09 19.3-3.39zm0 8.61c-.31 1.19-6.76 4.33-19.3 4.33s-19-3.14-19.31-4.3v-3.39c4.56 2.31 12.1 3.39 19.31 3.39s14.74-1.09 19.3-3.39zm-19.3-51.63c-11.38 0-23.61 2.69-23.61 8.61v51.66c0 5.92 12.23 8.61 23.61 8.61s23.59-2.69 23.59-8.61v-51.66c0-5.92-12.23-8.61-23.59-8.61z"/></clipPath><clipPath id="clip-path-14"><path class="cls-1" d="M74.61 95.9h15.55a1.83 1.83 0 100-3.66H73.87a1.85 1.85 0 00-1.3.52l-9.66 9.31a2.22 2.22 0 00-.57 1.49v15.18a1.88 1.88 0 00.48 1.24l8.81 9.49a1.82 1.82 0 001.35.59h17.18a1.83 1.83 0 100-3.66H73.81l-7.76-8.4v-13.84z"/></clipPath><clipPath id="clip-path-16"><path class="cls-1" d="M108.82 114.31h-5.06a2.1 2.1 0 000 4.2h2a2 2 0 104 0v-.1a4.84 4.84 0 004.06-4.62 4.92 4.92 0 00-5.06-4.74h-2c-.63 0-1-.36-1-.52s.37-.53 1-.53h5.06a2.1 2.1 0 000-4.2h-2a2 2 0 10-4 0v.09a4.85 4.85 0 00-4.06 4.63 4.92 4.92 0 005.06 4.74h2c.63 0 1 .36 1 .52s-.37.53-1 .53z"/></clipPath><clipPath id="clip-path-18"><path class="cls-1" d="M68.01 133.83H90.9v6.54H68.01z"/></clipPath><clipPath id="clip-path-20"><path d="M73.74 139.55a2.45 2.45 0 10-2.46-2.45 2.45 2.45 0 002.46 2.45z" clip-rule="evenodd" fill="none"/></clipPath><style>.cls-1{fill:none}.cls-4{fill:#16103e}.cls-6{clip-path:url(#clip-path-3)}.cls-7{fill:#fff}</style></defs><g clip-path="url(#clip-path)"><path class="cls-4" d="M31.43 20.44h175.58v173.25H31.43z"/></g><g class="cls-6" clip-path="url(#clip-path-2)"><path class="cls-7" d="M46.08 75.97h129.17v70.4H46.08z"/></g><g class="cls-6" clip-path="url(#clip-path-4)"><path class="cls-7" d="M51.46 54.43h109.39v39.31H51.46z"/></g><g class="cls-6" clip-path="url(#clip-path-6)"><path class="cls-7" d="M73.05 47.18h77.03v40.66H73.05z"/></g><g class="cls-6" clip-path="url(#clip-path-8)"><path class="cls-7" d="M114.86 84.07h36.58v20.4h-36.58z"/></g><g class="cls-6" clip-path="url(#clip-path-10)"><path class="cls-7" d="M81.13 84.07h54.11v54.17H81.13z"/></g><g clip-path="url(#clip-path-12)"><path fill="#3ba07a" d="M128.33 89.47h63.55v85.23h-63.55z"/></g><g class="cls-6" clip-path="url(#clip-path-14)"><path class="cls-7" d="M54.17 84.07h46.02v54.17H54.17z"/></g><g class="cls-6" clip-path="url(#clip-path-16)"><path class="cls-7" d="M93.56 93.52h28.49v35.26H93.56z"/></g><g class="cls-6" clip-path="url(#clip-path-18)"><path class="cls-4" d="M59.83 125.66h39.24v22.89H59.83z"/></g><g class="cls-6" clip-path="url(#clip-path-20)"><path class="cls-7" d="M63.1 126.47h21.25v21.25H63.1z"/></g></svg>