<svg id="Layer_1" data-name="Layer 1" xmlns="http://www.w3.org/2000/svg" viewBox="0 0 233.78 216.13"><defs><clipPath id="clip-path"><path class="cls-1" d="M80.93 167.48h74.72a7.51 7.51 0 007.48-7.52V54.66a7.51 7.51 0 00-7.48-7.52H80.93a7.51 7.51 0 00-7.48 7.52V160a7.51 7.51 0 007.48 7.48z"/></clipPath><clipPath id="clip-path-2"><path class="cls-2" d="M73.45 47.97H183.3v120.66H73.45z"/></clipPath><clipPath id="clip-path-3"><path class="cls-2" d="M73.45 47.14h89.98v121.84H73.45z"/></clipPath><clipPath id="clip-path-4"><path class="cls-2" d="M73.45 47.14h89.67v120.34H73.45z"/></clipPath><clipPath id="clip-path-5"><path class="cls-1" d="M95.87 126.87h47.82a1.5 1.5 0 010 3H95.87a1.5 1.5 0 010-3z"/></clipPath><clipPath id="clip-path-7"><path class="cls-1" d="M95.87 138.9h47.82a1.51 1.51 0 010 3H95.87a1.51 1.51 0 010-3z"/></clipPath><clipPath id="clip-path-9"><path class="cls-1" d="M118.42 92.27c3.8 0 6.88-3.37 6.88-7.52s-3.08-7.52-6.88-7.52-6.88 3.36-6.88 7.52 3.09 7.52 6.88 7.52z"/></clipPath><clipPath id="clip-path-12"><path class="cls-1" d="M162.88 150.93a21.06 21.06 0 10-20.67-21.06 20.87 20.87 0 0020.67 21.06z"/></clipPath><clipPath id="clip-path-15"><path class="cls-2" d="M89.89 162.97h20.92v6.02H89.89z"/></clipPath><clipPath id="clip-path-17"><path class="cls-1" d="M95.12 168.23a2.26 2.26 0 10-2.23-2.23 2.26 2.26 0 002.23 2.23z"/></clipPath><style>.cls-1,.cls-13,.cls-2{fill:none}.cls-1{clip-rule:evenodd}.cls-4{clip-path:url(#clip-path-2)}.cls-13{stroke:#000;stroke-miterlimit:10}.cls-12{fill:#fff}.cls-13{stroke-width:1.6px}</style></defs><g clip-path="url(#clip-path)"><g clip-path="url(#clip-path-3)"><g clip-path="url(#clip-path-4)"><path d="M80.92 167.48h74.73a7.49 7.49 0 007.47-7.52V54.66a7.49 7.49 0 00-7.47-7.52H80.92a7.5 7.5 0 00-7.47 7.52V160a7.5 7.5 0 007.47 7.48z" stroke-width="4" stroke-miterlimit="10" stroke="#000" fill="none"/></g></g></g><g clip-path="url(#clip-path-5)"><path d="M86.91 119.34h65.76v18.05H86.91z"/></g><g clip-path="url(#clip-path-7)"><path d="M86.91 131.38h65.76v18.05H86.91z"/></g><g class="cls-4" clip-path="url(#clip-path-9)"><path class="cls-12" d="M104.08 69.7h28.7v30.08h-28.7z"/></g><g class="cls-4"><path class="cls-13" d="M118.42 92.27c3.8 0 6.88-3.37 6.88-7.52s-3.08-7.52-6.88-7.52-6.88 3.36-6.88 7.52 3.08 7.52 6.88 7.52z"/><path d="M101.85 105.81q8.87-10.53 16.61-10.53t14.77 10.53" stroke-linejoin="round" stroke-linecap="round" stroke-width="1.6" stroke="#000" fill="none"/></g><g class="cls-4" clip-path="url(#clip-path-12)"><path class="cls-12" d="M134.73 101.29h56.32v57.16h-56.32z"/></g><g class="cls-4"><ellipse class="cls-13" cx="163.72" cy="129.87" rx="17.73" ry="18.05"/><path stroke-linecap="round" stroke-width="1.6" stroke-miterlimit="10" stroke="#000" fill="none" d="M154.45 129.58l6.75 6.31 11.27-10.53"/></g><g class="cls-4" clip-path="url(#clip-path-15)"><path class="cls-12" d="M82.41 155.44h35.87v21.06H82.41z"/></g><g clip-path="url(#clip-path-17)"><path d="M85.41 156.2h19.43v19.55H85.41z"/></g><g class="cls-4"><ellipse class="cls-13" cx="117.53" cy="91.52" rx="23.16" ry="23.32"/></g></svg>