<svg id="Layer_1" data-name="Layer 1" xmlns="http://www.w3.org/2000/svg" viewBox="0 0 233.78 216.13"><defs><clipPath id="clip-path"><path class="cls-1" d="M29.61 19.26h179.94v177.61H29.61z"/></clipPath><clipPath id="clip-path-2"><path class="cls-1" d="M150.21 72.64v61.17c0 1.15-2.31 2.09-5.15 2.09h7.35c2.85 0 5.14-.94 5.14-2.09V72.64c0-1.15-2-2.84-4.81-2.84s-2.53 1.69-2.53 2.84z"/></clipPath><clipPath id="clip-path-3"><path class="cls-1" d="M56.69 49.82H181.9v119.9H56.69z"/></clipPath><clipPath id="clip-path-4"><path class="cls-2" d="M70.81 72.87h96.79a3.1 3.1 0 013.12 3.13v75.32h-103V76a3.1 3.1 0 013.09-3.13z"/></clipPath><clipPath id="clip-path-6"><path class="cls-2" d="M96.69 139h55.11a7.75 7.75 0 007.8-7.68V59a7.76 7.76 0 00-7.8-7.69H96.69A7.74 7.74 0 0088.91 59v72.25a7.73 7.73 0 007.78 7.75z"/></clipPath><clipPath id="clip-path-8"><path class="cls-1" d="M88.78 49.82h71.94v89.38H88.78z"/></clipPath><clipPath id="clip-path-10"><path class="cls-1" d="M88.86 51.35h71.81v87.62H88.86z"/></clipPath><clipPath id="clip-path-12"><path class="cls-2" d="M161.43 70.95l-21.84-19.98h21.02l.82 19.98z"/></clipPath><clipPath id="clip-path-15"><path class="cls-2" d="M90.87 122.06a6.92 6.92 0 10-7-6.91 7 7 0 007 6.91z"/></clipPath><clipPath id="clip-path-18"><path class="cls-2" d="M76.68 133.33q4-11.27 14.25-11.27 10 0 14.78 10.74a7.62 7.62 0 01-4 10.13 8 8 0 01-3.16.65H84a7.75 7.75 0 01-7.8-7.68 7.34 7.34 0 01.48-2.57z"/></clipPath><clipPath id="clip-path-21"><path class="cls-2" d="M109.18 85.17h29.65a1.54 1.54 0 110 3.08h-29.65a1.54 1.54 0 110-3.08z"/></clipPath><clipPath id="clip-path-23"><path class="cls-2" d="M126.34 102.08h20.29a1.54 1.54 0 110 3.08h-20.29a1.54 1.54 0 110-3.08z"/></clipPath><clipPath id="clip-path-25"><path class="cls-2" d="M113.85 119h29.66a1.54 1.54 0 110 3.07h-29.66a1.54 1.54 0 110-3.07z"/></clipPath><clipPath id="clip-path-27"><path class="cls-2" d="M102.92 68.26h20.3a1.54 1.54 0 110 3.08h-20.3a1.54 1.54 0 110-3.08z"/></clipPath><clipPath id="clip-path-29"><path class="cls-2" d="M60.76 148.2h117.07a4.64 4.64 0 014.68 4.61v10.76a4.65 4.65 0 01-4.68 4.61H60.76a4.65 4.65 0 01-4.68-4.61v-10.76a4.64 4.64 0 014.68-4.61z"/></clipPath><clipPath id="clip-path-31"><path class="cls-1" d="M56.08 147.92h126.44v21.8H56.08z"/></clipPath><clipPath id="clip-path-32"><path class="cls-1" d="M56.08 148.2h126.44v21.52H56.08z"/></clipPath><clipPath id="clip-path-33"><path class="cls-1" d="M73.25 163.57h21.84v6.15H73.25z"/></clipPath><clipPath id="clip-path-35"><path class="cls-2" d="M78.7 169a2.31 2.31 0 10-2.33-2.31A2.33 2.33 0 0078.7 169z"/></clipPath><style>.cls-1,.cls-10,.cls-2,.cls-20{fill:none}.cls-2{clip-rule:evenodd}.cls-5{fill:#16103e}.cls-7{clip-path:url(#clip-path-3)}.cls-10,.cls-20{stroke:#fff}.cls-10{stroke-linejoin:round;stroke-width:3.55px}.cls-20{stroke-miterlimit:10;stroke-width:1.42px}.cls-23{fill:#3ba07a}</style></defs><g clip-path="url(#clip-path)"><path class="cls-5" d="M31.79 21.44h175.58v173.25H31.79z"/></g><g clip-path="url(#clip-path-2)"><path fill="#d7d7d7" opacity=".5" d="M137.26 62.11h28.1v81.47h-28.1z"/></g><g class="cls-7" clip-path="url(#clip-path-4)"><path class="cls-10" d="M70.82 72.87h96.78a3.1 3.1 0 013.12 3.13v75.32h-103V76a3.11 3.11 0 013.1-3.13z"/></g><g clip-path="url(#clip-path-6)"><g clip-path="url(#clip-path-8)"><g clip-path="url(#clip-path-10)"><path class="cls-5" d="M96.69 139h55.11a7.75 7.75 0 007.8-7.68V59a7.76 7.76 0 00-7.8-7.69H96.69A7.74 7.74 0 0088.91 59v72.25a7.73 7.73 0 007.78 7.75z"/></g><path d="M96.71 139h55.09a7.74 7.74 0 007.8-7.68V59a7.74 7.74 0 00-7.8-7.69H96.71a7.74 7.74 0 00-7.8 7.69v72.25a7.74 7.74 0 007.8 7.75z" stroke-miterlimit="10" stroke="#3ba07a" stroke-width="3.55" fill="none"/></g></g><g class="cls-7" clip-path="url(#clip-path-12)"><path class="cls-5" d="M131.79 43.28h37.46v35.36h-37.46z"/></g><path d="M139.53 53.91l17.12 15.53a1.53 1.53 0 01.09 2.17 1.57 1.57 0 01-1.15.49H140a3.09 3.09 0 01-3.09-3.1V55a1.56 1.56 0 012.62-1.13z" stroke-width="1.78" stroke-miterlimit="10" stroke="#3ba07a" fill="none"/><g class="cls-7" clip-path="url(#clip-path-15)"><path class="cls-5" d="M76.04 100.54h29.66v29.21H76.04z"/></g><g class="cls-7"><path class="cls-20" d="M90.87 122.06a6.92 6.92 0 10-7-6.91 7 7 0 007 6.91z"/></g><g class="cls-7" clip-path="url(#clip-path-18)"><path class="cls-5" d="M68.41 114.38h45.76v36.89H68.41z"/></g><g class="cls-7"><path class="cls-20" d="M76.67 133.34q4-11.28 14.26-11.28 10 0 14.78 10.74a7.64 7.64 0 01-4 10.13 8 8 0 01-3.15.65H84a7.74 7.74 0 01-7.81-7.68 7.46 7.46 0 01.48-2.56z"/></g><g class="cls-7" clip-path="url(#clip-path-21)"><path class="cls-23" d="M99.81 77.49h48.39v18.45H99.81z"/></g><g class="cls-7" clip-path="url(#clip-path-23)"><path class="cls-23" d="M116.98 94.39H156v18.45h-39.02z"/></g><g class="cls-7" clip-path="url(#clip-path-25)"><path class="cls-23" d="M104.49 111.3h48.39v18.45h-48.39z"/></g><g class="cls-7" clip-path="url(#clip-path-27)"><path class="cls-23" d="M93.55 60.58h39.02v18.45H93.55z"/></g><g clip-path="url(#clip-path-29)"><g clip-path="url(#clip-path-31)"><g clip-path="url(#clip-path-32)"><path class="cls-10" d="M60.76 148.2h117.07a4.64 4.64 0 014.68 4.61v10.76a4.65 4.65 0 01-4.68 4.61H60.76a4.65 4.65 0 01-4.68-4.61v-10.76a4.64 4.64 0 014.68-4.61z"/></g></g></g><g class="cls-7" clip-path="url(#clip-path-33)"><path class="cls-5" d="M65.45 155.88h37.46v21.52H65.45z"/></g><g clip-path="url(#clip-path-35)"><path fill="#fff" d="M68.57 156.65h20.29v19.98H68.57z"/></g></svg>