<svg id="Layer_1" data-name="Layer 1" xmlns="http://www.w3.org/2000/svg" viewBox="0 0 233.78 216.13"><defs><clipPath id="clip-path"><path class="cls-1" d="M165.61 64.12v72.09c0 1.37-2.71 2.47-6 2.47h8.61c3.33 0 6-1.1 6-2.47V64.12c0-1.36-2.33-3.35-5.67-3.35s-2.94 1.99-2.94 3.35z"/></clipPath><clipPath id="clip-path-2"><path class="cls-1" d="M55.23 37.21h147.52v139.32H55.23z"/></clipPath><clipPath id="clip-path-3"><path class="cls-2" d="M72.52 64.39H186a3.64 3.64 0 013.65 3.61v88.8H68.86V68a3.64 3.64 0 013.66-3.61z"/></clipPath><clipPath id="clip-path-5"><path class="cls-2" d="M102.87 142.31h64.59a9.1 9.1 0 009.13-9.06V48.08a9.1 9.1 0 00-9.13-9.08h-64.59a9.11 9.11 0 00-9.16 9.06v85.17a9.11 9.11 0 009.16 9.08z"/></clipPath><clipPath id="clip-path-7"><path class="cls-1" d="M92.29 37.21h85.02v106.82H92.29z"/></clipPath><clipPath id="clip-path-9"><path class="cls-1" d="M93.67 39.02h83.65v105.01H93.67z"/></clipPath><clipPath id="clip-path-11"><path class="cls-2" d="M176.94 62.13l-23.8-23.11h22.89l.91 23.11z"/></clipPath><clipPath id="clip-path-14"><path class="cls-2" d="M96 122.37a8.15 8.15 0 10-8.22-8.15 8.19 8.19 0 008.22 8.15z"/></clipPath><clipPath id="clip-path-17"><path class="cls-2" d="M79.39 135.66q4.74-13.29 16.72-13.29 11.67 0 17.31 12.65a9 9 0 01-4.67 11.98 9.13 9.13 0 01-3.68.77H88a9.1 9.1 0 01-9.14-9.06 8.89 8.89 0 01.53-3.05z"/></clipPath><clipPath id="clip-path-20"><path class="cls-2" d="M117.47 78.89h34.77a1.81 1.81 0 110 3.62h-34.77a1.81 1.81 0 110-3.62z"/></clipPath><clipPath id="clip-path-22"><path class="cls-2" d="M137.62 98.82h23.78a1.81 1.81 0 110 3.62h-23.78a1.81 1.81 0 110-3.62z"/></clipPath><clipPath id="clip-path-24"><path class="cls-2" d="M123 118.75h34.77a1.81 1.81 0 110 3.62H123a1.81 1.81 0 110-3.62z"/></clipPath><clipPath id="clip-path-26"><path class="cls-2" d="M110.17 59H134a1.81 1.81 0 110 3.62h-23.83a1.81 1.81 0 110-3.62z"/></clipPath><clipPath id="clip-path-28"><path class="cls-2" d="M60.73 152.27H198a5.47 5.47 0 015.49 5.44v12.68a5.47 5.47 0 01-5.49 5.44H60.73a5.48 5.48 0 01-5.5-5.44v-12.68a5.48 5.48 0 015.5-5.44z"/></clipPath><clipPath id="clip-path-30"><path class="cls-1" d="M55.23 150.57h148.24v26.16H55.23z"/></clipPath><clipPath id="clip-path-31"><path class="cls-1" d="M55.23 151.37h148.24v25.37H55.23z"/></clipPath><clipPath id="clip-path-32"><path class="cls-1" d="M75.38 169.48h25.61v7.25H75.38z"/></clipPath><clipPath id="clip-path-34"><path class="cls-2" d="M81.76 175.83a2.72 2.72 0 10-2.76-2.72 2.73 2.73 0 002.76 2.72z"/></clipPath><style>.cls-1,.cls-19,.cls-2,.cls-8{fill:none}.cls-2{clip-rule:evenodd}.cls-5{clip-path:url(#clip-path-2)}.cls-19,.cls-8{stroke:#16103e}.cls-8{stroke-linejoin:round;stroke-width:4.18px}.cls-13{fill:#fff}.cls-19{stroke-miterlimit:10;stroke-width:1.67px}.cls-22{fill:#3ba07a}</style></defs><g clip-path="url(#clip-path)"><path fill="#d7d7d7" opacity=".5" d="M150.43 51.71h32.94v96.03h-32.94z"/></g><g class="cls-5" clip-path="url(#clip-path-3)"><path class="cls-8" d="M72.52 64.39H186a3.65 3.65 0 013.65 3.61v88.8H68.86V68a3.65 3.65 0 013.66-3.61z"/></g><g clip-path="url(#clip-path-5)"><g clip-path="url(#clip-path-7)"><g clip-path="url(#clip-path-9)"><path class="cls-13" d="M102.87 142.31h64.59a9.1 9.1 0 009.13-9.06V48.08a9.1 9.1 0 00-9.13-9.08h-64.59a9.11 9.11 0 00-9.16 9.06v85.17a9.11 9.11 0 009.16 9.08z"/></g><path d="M102.86 142.31h64.59a9.11 9.11 0 009.15-9.06V48.08a9.1 9.1 0 00-9.15-9h-64.59a9.1 9.1 0 00-9.15 9v85.17a9.11 9.11 0 009.15 9.06z" stroke-miterlimit="10" stroke="#3ba07a" stroke-width="4.18" fill="none"/></g></g><g class="cls-5" clip-path="url(#clip-path-11)"><path class="cls-13" d="M143.98 29.96h42.09v41.22h-42.09z"/></g><g class="cls-5" stroke-miterlimit="10" fill="none"><path stroke="#fff" stroke-width=".84" d="M176.93 62.13l-23.79-23.1h22.87l.92 23.1z"/><path d="M153.09 42l20.07 18.31a1.81 1.81 0 01.11 2.56 1.87 1.87 0 01-1.35.59h-18.24a3.65 3.65 0 01-3.68-3.6V43.37a1.83 1.83 0 011.83-1.82 1.88 1.88 0 011.26.45z" stroke-width="2.09" stroke="#3ba07a"/></g><g class="cls-5" clip-path="url(#clip-path-14)"><path class="cls-13" d="M78.65 97.01h34.77v34.43H78.65z"/></g><g class="cls-5"><path class="cls-19" d="M96 122.37a8.15 8.15 0 10-8.24-8.15 8.19 8.19 0 008.24 8.15z"/></g><g class="cls-5" clip-path="url(#clip-path-17)"><path class="cls-13" d="M69.71 113.31h53.65v43.49H69.71z"/></g><g class="cls-5"><path class="cls-19" d="M79.39 135.66q4.74-13.29 16.72-13.29 11.69 0 17.32 12.65a9 9 0 01-4.67 11.98 9.26 9.26 0 01-3.7.77H88a9.1 9.1 0 01-9.15-9.06 8.89 8.89 0 01.54-3.05z"/></g><g class="cls-5" clip-path="url(#clip-path-20)"><path class="cls-22" d="M106.51 69.83h56.73v21.74h-56.73z"/></g><g class="cls-5" clip-path="url(#clip-path-22)"><path class="cls-22" d="M126.63 89.76h45.75v21.74h-45.75z"/></g><g class="cls-5" clip-path="url(#clip-path-24)"><path class="cls-22" d="M112 109.69h56.73v21.74H112z"/></g><g class="cls-5" clip-path="url(#clip-path-26)"><path class="cls-22" d="M99.18 49.9h45.75v21.74H99.18z"/></g><g clip-path="url(#clip-path-28)"><g clip-path="url(#clip-path-30)"><g clip-path="url(#clip-path-31)"><path class="cls-8" d="M60.72 152.27H198a5.46 5.46 0 015.49 5.44v12.68a5.46 5.46 0 01-5.49 5.44H60.72a5.47 5.47 0 01-5.49-5.44v-12.68a5.46 5.46 0 015.49-5.44z"/></g></g></g><g class="cls-5" clip-path="url(#clip-path-32)"><path class="cls-13" d="M66.22 160.43h43.92v25.37H66.22z"/></g><g clip-path="url(#clip-path-34)"><path fill="#16103e" d="M69.88 161.33h23.79v23.56H69.88z"/></g></svg>