<svg id="Layer_1" data-name="Layer 1" xmlns="http://www.w3.org/2000/svg" viewBox="0 0 233.78 216.13"><defs><clipPath id="clip-path"><path class="cls-1" d="M112.31 87.15l-10.38-26.1a2 2 0 00-1.82-1.26 1.7 1.7 0 00-1.85 1.26l-12.2 26.1a1.92 1.92 0 00-.92 1.85 14.23 14.23 0 0014 14.47h.3c7.63 0 14.05-6.61 14.05-14.47-.25-.59-.56-1.53-1.18-1.85zM100.11 67L108 86.84H90.93zm-.92 32.4c-4.89 0-8.56-3.46-9.79-8.18h19.24a9.38 9.38 0 01-9.45 8.2z"/></clipPath><clipPath id="clip-path-2"><path class="cls-2" d="M63.88 40.7h104.75v135.68H63.88z"/></clipPath><clipPath id="clip-path-3"><path class="cls-1" d="M152.32 130.83h-49.14a1.84 1.84 0 110-3.64h49.14a1.83 1.83 0 110 3.64"/></clipPath><clipPath id="clip-path-5"><path class="cls-1" d="M165.57 87.15l-10.38-26.1a2 2 0 00-1.82-1.26 1.7 1.7 0 00-1.85 1.26l-12.2 26.1a1.91 1.91 0 00-.91 1.89 14.23 14.23 0 0014.05 14.47h.29c7.63 0 14.05-6.61 14.05-14.47a2.84 2.84 0 00-1.23-1.89zM153.05 67L161 86.84h-17.11zm-.59 32.08c-4.9 0-8.57-3.45-9.8-8.17h19.25a9.84 9.84 0 01-9.45 8.19z"/></clipPath><clipPath id="clip-path-7"><path class="cls-1" d="M152.55 51.85h-18.22a6.79 6.79 0 00-4.42-4.65v-5.28a2.05 2.05 0 10-4.1 0v5.28a6.42 6.42 0 00-4.12 4.65h-18.51a2.18 2.18 0 000 4.35h18.51a6 6 0 004.12 4.34v58.66h-12.66a2.18 2.18 0 000 4.35h29.13a2.18 2.18 0 000-4.35h-12.66v-59a6 6 0 004.12-4.34h18.51a2.07 2.07 0 002.07-2.18c.3-.93-.59-1.86-1.77-1.86m-24.39 4.66a2.8 2.8 0 112.64-2.8 2.7 2.7 0 01-2.64 2.8"/></clipPath><clipPath id="clip-path-9"><path class="cls-2" d="M65.4 130.83h102.97v45.54H65.4z"/></clipPath><clipPath id="clip-path-11"><path class="cls-2" d="M63.88 130.83h104.75v45.54H63.88z"/></clipPath><clipPath id="clip-path-12"><path class="cls-1" d="M168.05 147.27a8 8 0 00-3.8-4.76 7.5 7.5 0 00-5.8-.66l-20.07 4a8.63 8.63 0 00-7.51-4.27h-10.36c-.23 0-3.26.32-8.36-1.6-3.28-1.23-5.33-2-6.81-2.62-1.3-.51-2.16-.85-3-1.13-1.62-.55-8.68-.68-13.67-.7a5.26 5.26 0 00-5.17-4.75H65.4v5.1h9.34v28.89H65.4v5.09h18.1a5.22 5.22 0 004.88-3.46 14 14 0 015.74 1.32l.16.11 17 6.33a31.07 31.07 0 0010.61 2.17 11.52 11.52 0 003.62-.46h.16l13.84-7.15L163 157.24a8.12 8.12 0 005.05-9.97zm-84.27 17.26a.28.28 0 01-.28.29h-3.82v-28.89h3.82a.28.28 0 01.28.28zm77.63-12.1h-.19l-23.84 11.64-13.52 7c-.73.16-4.33.72-10.91-1.69l-16.56-6.16a18.08 18.08 0 00-7.67-1.88v-20.66a114.38 114.38 0 0112.09.45c.71.24 1.53.56 2.73 1 1.53.6 3.6 1.41 6.9 2.65 5.86 2.2 9.57 2 10.57 1.87h9.86a3.15 3.15 0 110 6.23h-10l-6.11-.14a7.34 7.34 0 00-5.67 1.65 6.73 6.73 0 00-2 5.62l4.94-.27c0-.44 0-1.23.34-1.56a2.63 2.63 0 011.8-.37h.14l6.44.15h10.07a8.45 8.45 0 008.49-7.15l20.16-4 .22-.06a2.8 2.8 0 012.19.23 2.92 2.92 0 011.39 1.74 3 3 0 01-1.86 3.71z"/></clipPath><clipPath id="clip-path-14"><ellipse class="cls-2" cx="93.16" cy="128.1" rx="2.66" ry="2.73"/></clipPath><style>.cls-1,.cls-2{fill:none}.cls-1{clip-rule:evenodd}</style></defs><g clip-path="url(#clip-path)"><path d="M76.26 50.68h46.16v61.94H76.26z"/></g><g clip-path="url(#clip-path-3)"><path d="M92.23 118.08h71.02v21.86H92.23z"/></g><g clip-path="url(#clip-path-5)"><path d="M129.53 50.68h46.16v61.94h-46.16z"/></g><g clip-path="url(#clip-path-7)"><path d="M92.23 30.64h71.02v102.02H92.23z"/></g><g clip-path="url(#clip-path-2)"><g clip-path="url(#clip-path-12)"><path d="M56.52 121.73h120.73v63.76H56.52z"/></g></g><g clip-path="url(#clip-path-14)"><path d="M81.64 116.26h23.08v23.68H81.64z"/></g></svg>