<svg id="Layer_1" data-name="Layer 1" xmlns="http://www.w3.org/2000/svg" viewBox="0 0 233.78 216.13"><defs><clipPath id="clip-path"><path class="cls-1" d="M37.18 20.78h178.25v175.94H37.18z"/></clipPath><clipPath id="clip-path-2"><path class="cls-2" d="M157.17 69l-10.51 22q2.52 12 12.15 9.57t8.35-12.4z"/></clipPath><clipPath id="clip-path-3"><path class="cls-1" d="M78.63 48.81H174v127.6H78.63z"/></clipPath><clipPath id="clip-path-4"><path class="cls-2" d="M108.4 69L97.88 91q2.55 12 12.16 9.57t8.35-12.4z"/></clipPath><clipPath id="clip-path-6"><path class="cls-2" d="M119.48 90.17L110 66.83a1.86 1.86 0 00-1.67-1.12 1.54 1.54 0 00-1.68 1.12L95.43 90.17a1.7 1.7 0 00-.85 1.68 12.88 12.88 0 0012.89 12.93h.26a13.05 13.05 0 0012.88-12.93c-.28-.56-.56-1.4-1.13-1.68zm-11.18-18l7.28 17.71H99.9zm-.83 29c-4.49 0-7.85-3.1-9-7.31h17.61a8.51 8.51 0 01-8.61 7.27z"/></clipPath><clipPath id="clip-path-8"><path class="cls-2" d="M156.1 129.2h-45a1.64 1.64 0 110-3.25h45a1.64 1.64 0 110 3.25"/></clipPath><clipPath id="clip-path-10"><path class="cls-2" d="M168.27 90.17l-9.53-23.34a1.85 1.85 0 00-1.66-1.12 1.56 1.56 0 00-1.7 1.12L144.2 90.17a1.72 1.72 0 00-.83 1.68 12.85 12.85 0 0012.86 12.93h.29a13 13 0 0012.86-12.93 2.64 2.64 0 00-1.11-1.68zm-11.47-18l7.26 17.71h-15.65zm-.57 28.68c-4.47 0-7.82-3.09-9-7.31h17.64a9 9 0 01-8.64 7.31z"/></clipPath><clipPath id="clip-path-12"><path class="cls-2" d="M156.32 58.62h-16.68a6.16 6.16 0 00-4-4.16v-4.72a1.89 1.89 0 10-3.77 0v4.72a5.78 5.78 0 00-3.77 4.16h-17a1.94 1.94 0 000 3.88h17a5.38 5.38 0 003.77 3.88v52.43h-11.61a1.94 1.94 0 000 3.88h26.64a1.94 1.94 0 000-3.88h-11.57v-52.7a5.4 5.4 0 003.77-3.89h17a1.85 1.85 0 001.87-1.94c.29-.83-.52-1.66-1.61-1.66M134 62.78a2.5 2.5 0 112.42-2.5 2.46 2.46 0 01-2.42 2.5"/></clipPath><clipPath id="clip-path-14"><path class="cls-1" d="M79.96 135.72h94.31v40.7H79.96z"/></clipPath><clipPath id="clip-path-16"><path class="cls-1" d="M78.56 135h95.92v41.42H78.56z"/></clipPath><clipPath id="clip-path-17"><path class="cls-2" d="M80 138.47V169h16.79c1.15-2.79 2.18-4.19 3.11-4.19 1.42 0 27 9.75 31.31 9.75S171 159 171 156.07s.11-10.86-14.89-6.88q-15 4-10.83 2-4.35-4.26-14.06-4.26c-9.68 0-23.66-6.67-25.33-6.67h-7.38a55.25 55.25 0 00-12-1.8z"/></clipPath><clipPath id="clip-path-18"><path class="cls-1" d="M78.56 135.72h95.92v40.7H78.56z"/></clipPath><clipPath id="clip-path-19"><path class="cls-2" d="M174 150.41a7.22 7.22 0 00-3.47-4.26 7.06 7.06 0 00-5.32-.59l-18.38 3.6a7.94 7.94 0 00-6.88-3.83h-9.55c-.22 0-3 .29-7.65-1.43-3-1.09-4.88-1.81-6.24-2.34-1.19-.45-2-.76-2.74-1-1.46-.49-7.94-.61-12.49-.63a4.79 4.79 0 00-4.73-4.23H80v4.55h8.5v25.82H80v4.55h16.55a4.74 4.74 0 004.44-3.09 12.94 12.94 0 015.26 1.18l.15.1 15.6 5.67a29.2 29.2 0 009.73 1.94A11.11 11.11 0 00135 176l.15-.06 12.69-6.38 21.52-10.26a7.22 7.22 0 004.64-8.89zm-77.21 15.42a.25.25 0 01-.24.26H93v-25.82h3.54a.25.25 0 01.24.26zM167.87 155h-.17l-21.82 10.41-12.38 6.24c-.68.14-4 .64-10-1.52l-15.15-5.5a17.09 17.09 0 00-7-1.69v-18.43c4.84 0 10.07.18 11.07.41.64.22 1.4.5 2.51.93 1.37.53 3.27 1.26 6.3 2.36 5.36 2 8.76 1.78 9.68 1.68h9a2.83 2.83 0 110 5.57h-9.14l-5.58-.13a6.9 6.9 0 00-5.19 1.47 6.08 6.08 0 00-1.81 5l4.54-.24a1.9 1.9 0 01.3-1.4 2.49 2.49 0 011.66-.33h.13l5.88.13h9.23a7.7 7.7 0 007.78-6.39l18.42-3.57h.22a2.64 2.64 0 013.27 1.76 2.67 2.67 0 01-1.75 3.24z"/></clipPath><clipPath id="clip-path-21"><path class="cls-2" d="M103.76 130a2.45 2.45 0 10-2.44-2.44 2.44 2.44 0 002.44 2.44z"/></clipPath><style>.cls-1,.cls-2{fill:none}.cls-2{clip-rule:evenodd}.cls-4{fill:#16103e}.cls-6{clip-path:url(#clip-path-3)}.cls-7{fill:#3ba07a}.cls-17{clip-path:url(#clip-path-18)}</style></defs><g clip-path="url(#clip-path)"><path class="cls-4" d="M39.36 22.96h173.9v171.58H39.36z"/></g><g class="cls-6" clip-path="url(#clip-path-2)"><path class="cls-7" d="M138.53 60.82h36.91v48.29h-36.91z"/></g><g class="cls-6" clip-path="url(#clip-path-4)"><path class="cls-7" d="M89.77 60.82h36.91v48.29H89.77z"/></g><g class="cls-6" clip-path="url(#clip-path-6)"><path class="cls-4" d="M86.47 57.57h42.27v55.36H86.47z"/></g><g class="cls-6" clip-path="url(#clip-path-8)"><path class="cls-7" d="M101.1 117.81h65.03v19.54H101.1z"/></g><g class="cls-6" clip-path="url(#clip-path-10)"><path class="cls-4" d="M135.24 57.57h42.27v55.36h-42.27z"/></g><g class="cls-6" clip-path="url(#clip-path-12)"><path class="cls-7" d="M101.1 39.66h65.03v91.17H101.1z"/></g><g clip-path="url(#clip-path-14)"><g clip-path="url(#clip-path-16)"><g class="cls-17" clip-path="url(#clip-path-17)"><path class="cls-7" d="M71.82 130.33h107.29v52.32H71.82z"/></g><g class="cls-17" clip-path="url(#clip-path-19)"><path class="cls-4" d="M71.82 127.58h110.55v56.98H71.82z"/></g></g></g><g class="cls-6" clip-path="url(#clip-path-21)"><path class="cls-7" d="M93.19 116.99h21.13v21.17H93.19z"/></g></svg>