<svg id="Layer_1" data-name="Layer 1" xmlns="http://www.w3.org/2000/svg" viewBox="0 0 233.78 216.13"><defs><clipPath id="clip-path"><path class="cls-1" d="M26.92 19.26h179.94v177.61H26.92z"/></clipPath><clipPath id="clip-path-2"><path class="cls-2" d="M111.18 90.8L103 70.63a1.67 1.67 0 00-1.46-1 1.31 1.31 0 00-1.44 1L90.4 90.8a1.47 1.47 0 00-.72 1.46 11.12 11.12 0 0011.12 11.17h.2a11.28 11.28 0 0011.12-11.17c-.2-.49-.47-1.26-.94-1.46zm-9.66-15.55l6.28 15.3H94.28zm-.72 25A8 8 0 0193.06 94h15.22a7.36 7.36 0 01-7.48 6.27z"/></clipPath><clipPath id="clip-path-3"><path class="cls-1" d="M75.84 54.18h82.71v111.18H75.84z"/></clipPath><clipPath id="clip-path-4"><path class="cls-2" d="M142.81 124.54h-38.87a1.42 1.42 0 110-2.81h38.87a1.42 1.42 0 110 2.81"/></clipPath><clipPath id="clip-path-6"><path class="cls-2" d="M153.31 90.8l-8.21-20.17a1.62 1.62 0 00-1.46-1 1.31 1.31 0 00-1.44 1l-9.66 20.17a1.48 1.48 0 00-.74 1.46 11.12 11.12 0 0011.12 11.17h.24a11.27 11.27 0 0011.11-11.17 2.23 2.23 0 00-.96-1.46zm-9.91-15.55l6.27 15.3h-13.51zm-.48 24.75a8 8 0 01-7.72-6.32h15.22a7.79 7.79 0 01-7.5 6.32z"/></clipPath><clipPath id="clip-path-8"><path class="cls-2" d="M143 63.53h-14.41a5.38 5.38 0 00-3.48-3.6v-4.07a1.64 1.64 0 10-3.27 0v4.07a5.06 5.06 0 00-3.25 3.6h-14.65a1.68 1.68 0 000 3.35h14.65a4.71 4.71 0 003.25 3.36v45.32h-10a1.68 1.68 0 000 3.35h23a1.68 1.68 0 000-3.35h-10V70a4.63 4.63 0 003.24-3.36h14.65A1.62 1.62 0 00144.4 65c.24-.72-.46-1.44-1.4-1.44m-19.29 3.59A2.16 2.16 0 11125.8 65a2.12 2.12 0 01-2.09 2.15"/></clipPath><clipPath id="clip-path-10"><path class="cls-1" d="M77.04 130.17h81.44v35.18H77.04z"/></clipPath><clipPath id="clip-path-12"><path class="cls-1" d="M75.84 128.3h82.84v37.06H75.84z"/></clipPath><clipPath id="clip-path-13"><path class="cls-2" d="M158.22 142.87a6.23 6.23 0 00-3-3.68 6.11 6.11 0 00-4.6-.51l-15.87 3.11a6.85 6.85 0 00-5.95-3.3h-8.16a15.82 15.82 0 01-6.62-1.23c-2.58-.95-4.19-1.57-5.39-2-1-.39-1.7-.65-2.35-.87-1.27-.43-6.85-.53-10.79-.54a4.15 4.15 0 00-4.1-3.67H77v3.94h7.39v22.32H77v3.93h14.36a4.12 4.12 0 003.86-2.67 11.06 11.06 0 014.53 1l.13.08 13.45 4.89a25.06 25.06 0 008.4 1.68 9.49 9.49 0 002.85-.35h.13l11-5.52 18.59-8.86a6.25 6.25 0 003.92-7.75zm-66.64 13.34a.24.24 0 01-.22.22h-3v-22.32h3a.23.23 0 01.22.22zm61.42-9.36l-.14.05-18.85 9-10.71 5.39c-.56.12-3.42.56-8.63-1.31l-13.08-4.76a14.88 14.88 0 00-6.08-1.45v-16c4.19 0 8.72.16 9.57.35.57.2 1.2.44 2.16.81 1.2.46 2.83 1.09 5.45 2 4.64 1.7 7.58 1.53 8.37 1.44h7.78a2.45 2.45 0 110 4.82h-7.89l-4.82-.11a5.9 5.9 0 00-4.49 1.27 5.16 5.16 0 00-1.55 4.34l3.91-.2c0-.34 0-1 .26-1.21a2.11 2.11 0 011.44-.29h.1l5.08.12h8a6.68 6.68 0 006.74-5.53l15.91-3.12.2-.05a2.26 2.26 0 011.72.18 2.16 2.16 0 011.09 1.35 2.27 2.27 0 01-1.54 2.91z"/></clipPath><clipPath id="clip-path-14"><path class="cls-1" d="M75.84 130.17h82.84v35.18H75.84z"/></clipPath><clipPath id="clip-path-15"><path class="cls-2" d="M97.59 125.25a2.11 2.11 0 10-2.09-2.11 2.11 2.11 0 002.09 2.11z"/></clipPath><style>.cls-1,.cls-2{fill:none}.cls-2{clip-rule:evenodd}.cls-6{clip-path:url(#clip-path-3)}.cls-7{fill:#fffeff}</style></defs><g clip-path="url(#clip-path)"><path fill="#16103e" d="M29.1 21.44h175.58v173.25H29.1z"/></g><g class="cls-6" clip-path="url(#clip-path-2)"><path class="cls-7" d="M82.66 62.62h36.51v47.85H82.66z"/></g><g class="cls-6" clip-path="url(#clip-path-4)"><path class="cls-7" d="M95.31 114.69h56.16v16.89H95.31z"/></g><g class="cls-6" clip-path="url(#clip-path-6)"><path class="cls-7" d="M124.78 62.62h36.51v47.85h-36.51z"/></g><g class="cls-6" clip-path="url(#clip-path-8)"><path class="cls-7" d="M95.31 47.14h56.16v78.81H95.31z"/></g><g clip-path="url(#clip-path-10)"><g clip-path="url(#clip-path-12)"><g clip-path="url(#clip-path-13)"><g clip-path="url(#clip-path-14)"><path fill="#3ba07a" d="M70.02 123.14h95.48v49.26H70.02z"/></g></g></g></g><g class="cls-6" clip-path="url(#clip-path-15)"><path class="cls-7" d="M88.48 113.99h18.25v18.3H88.48z"/></g></svg>