<svg id="Layer_1" data-name="Layer 1" xmlns="http://www.w3.org/2000/svg" viewBox="0 0 233.78 216.13"><defs><clipPath id="clip-path"><path class="cls-1" d="M28.58 21.99h179.94V199.6H28.58z"/></clipPath><clipPath id="clip-path-2"><path class="cls-1" d="M62.48 54.32h111.17V162.3H62.48z"/></clipPath><clipPath id="clip-path-3"><path class="cls-1" d="M63.24 53.44h110.42v107.93H63.24z"/></clipPath><clipPath id="clip-path-4"><path class="cls-1" d="M62.48 53.44h111.18v109H62.48z"/></clipPath><clipPath id="clip-path-5"><path class="cls-2" d="M173.32 83.47c0-15.28-21-16.33-23.11-2.11h-13.9V79.6a2.11 2.11 0 00-1.21-1.75l-4.17-1.23a21.55 21.55 0 00-2.43-5.8l2.08-3.82a1.87 1.87 0 00-.35-2.1l-4.86-4.92a1.82 1.82 0 00-2.08-.35l-3.48 2.63a23.46 23.46 0 00-5.73-2.45l-1.22-4.22a1.67 1.67 0 00-1.56-1.23h-6.78a1.67 1.67 0 00-1.52 1.19l-1.22 4.22A26.64 26.64 0 0096 62.22l-3.82-2.1a1.87 1.87 0 00-2.08.35l-4.87 4.91a1.9 1.9 0 00-.35 2.11L87 71.35a21.55 21.55 0 00-2.43 5.8l-4.17 1.22A1.69 1.69 0 0079.16 80v1.76H67.52a5.07 5.07 0 00-5 5.09v70.4a5.08 5.08 0 005 5.1h93.81a13 13 0 007.82-2.81c6.25-5.67 4.17-5.14 4.17-76.07zm-11.64-8.61a8.47 8.47 0 018.32 8.78v58.47a11.66 11.66 0 00-16.68 0v-59a8.46 8.46 0 018.36-8.25zM82.81 81l3.82-1a2.13 2.13 0 001.22-1.22 20.16 20.16 0 012.78-6.68 1.63 1.63 0 000-1.75l-1.91-3.51 3-3 3.47 1.93a1.54 1.54 0 001.74 0 19.94 19.94 0 016.6-2.81 1.72 1.72 0 001.22-1.23l1.21-3.86h4.17l1 3.86a2.07 2.07 0 001.21 1.23 20.78 20.78 0 016.43 2.64 1.57 1.57 0 001.74 0l3.49-1.97 3 3-2 3.49a1.61 1.61 0 000 1.76 22.44 22.44 0 012.78 6.67 1.74 1.74 0 001.22 1.23l3.82 1V85L129 86a2.14 2.14 0 00-1.22 1.23A20.2 20.2 0 01125 94a1.61 1.61 0 000 1.76l1.91 3.51-3 3-3.47-1.93a1.57 1.57 0 00-1.74 0 23.26 23.26 0 01-6.43 2.81 1.73 1.73 0 00-1.21 1.23l-1 3.86h-4.17l-1-3.86a2.1 2.1 0 00-1.21-1.23 17.52 17.52 0 01-6.43-2.81 1.57 1.57 0 00-1.74 0L92 102.25l-3-3 2-3.49A1.61 1.61 0 0091 94a23 23 0 01-2.78-6.67A1.72 1.72 0 0087 86.1l-3.82-1V81zm84.25 75.49a8.55 8.55 0 01-5.73 2.11H67.52a1.75 1.75 0 01-1.74-1.75V86.63a1.76 1.76 0 011.74-1.76h12v1.76a1.69 1.69 0 001.21 1.58l4.17 1.23a21.32 21.32 0 002.44 5.79l-2.09 3.86a1.89 1.89 0 00.35 2.11l4.86 4.91a1.84 1.84 0 002.09.36l3.82-2.11a21.29 21.29 0 005.73 2.46l1.22 4.21a1.67 1.67 0 001.56 1.23h6.78a1.67 1.67 0 001.56-1.23l1.22-4.21a27.2 27.2 0 005.73-2.46l3.82 2.11a1.87 1.87 0 002.08-.36l4.87-4.91a1.9 1.9 0 00.35-2.11l-2.09-3.86a21.62 21.62 0 002.43-5.79l4.17-1.23a1.69 1.69 0 001.2-1.58v-1.76h13.72v65.49a1.74 1.74 0 103.48 0 8.38 8.38 0 018.33-8.43c4 0 8.17 3.86 8.17 9.48a15.78 15.78 0 01-3.64 5.09z"/></clipPath><clipPath id="clip-path-7"><path class="cls-2" d="M76.68 102.72a1.28 1.28 0 00-1.68-.36 1.55 1.55 0 00-1 1.6v46.62a1.41 1.41 0 00.5 1.25 2.27 2.27 0 001 .35h44.15a1.62 1.62 0 001.52-1.06 2 2 0 00-.34-2zM77 148.8v-40.75l38.59 40.75z"/></clipPath><clipPath id="clip-path-9"><path class="cls-2" d="M82.1 143.21h14.51a1.65 1.65 0 001.55-1.11 2.09 2.09 0 00-.34-2l-14.51-15.57a1.52 1.52 0 00-1.9-.37 1.63 1.63 0 00-1 1.67v15.53a1.8 1.8 0 001.69 1.85zm1.73-12.94l8.81 9.42h-8.81z"/></clipPath><clipPath id="clip-path-11"><path class="cls-2" d="M107.81 95.76a11.15 11.15 0 008.47-4 10.49 10.49 0 002.16-9.22 10.91 10.91 0 00-8.11-8.33 10.56 10.56 0 00-9.2 2.17A11.11 11.11 0 0097 84.91a10.86 10.86 0 0010.82 10.85m-4.69-16.64a7 7 0 014.69-1.63 5 5 0 011.62.18 7.66 7.66 0 015.56 5.61 7.21 7.21 0 01-1.45 6.33 7.06 7.06 0 01-5.76 2.71 7.32 7.32 0 01-7.4-7.41 8 8 0 012.71-5.79"/></clipPath><clipPath id="clip-path-13"><path class="cls-2" d="M141.07 116.28h-27a1.93 1.93 0 000 3.85h27.16a1.84 1.84 0 001.77-1.93 2 2 0 00-1.92-1.92"/></clipPath><clipPath id="clip-path-15"><path class="cls-2" d="M141.07 131.67h-27a1.93 1.93 0 000 3.84h27.16a1.84 1.84 0 001.75-1.92 2 2 0 00-1.92-1.92"/></clipPath><clipPath id="clip-path-17"><path class="cls-1" d="M71.43 157.31h16.61v5.13H71.43z"/></clipPath><clipPath id="clip-path-19"><path class="cls-2" d="M75.9 162.44a1.92 1.92 0 10-1.9-1.92 1.92 1.92 0 001.9 1.92z"/></clipPath><style>.cls-1,.cls-2{fill:none}.cls-2{clip-rule:evenodd}.cls-4{fill:#16103e}.cls-6{clip-path:url(#clip-path-3)}.cls-8{clip-path:url(#clip-path-4)}.cls-10{fill:#fff}.cls-12{fill:#3ba07a}</style></defs><g clip-path="url(#clip-path)"><path class="cls-4" d="M30.76 24.17h175.58v173.25H30.76z"/></g><g class="cls-6" clip-path="url(#clip-path-2)"><g class="cls-8"><g class="cls-8" clip-path="url(#clip-path-5)"><path class="cls-10" d="M56.09 47.91h123.95v120.8H56.09z"/></g></g></g><g class="cls-6" clip-path="url(#clip-path-7)"><path class="cls-12" d="M67.6 95.76h60.06v62.84H67.6z"/></g><g class="cls-6" clip-path="url(#clip-path-9)"><path class="cls-12" d="M73.99 117.56h30.67v32.06H73.99z"/></g><g class="cls-6" clip-path="url(#clip-path-11)"><path class="cls-10" d="M90.6 67.55h34.5v34.62H90.6z"/></g><g class="cls-6" clip-path="url(#clip-path-13)"><path class="cls-10" d="M105.93 109.87h43.45v16.67h-43.45z"/></g><g class="cls-6" clip-path="url(#clip-path-15)"><path class="cls-10" d="M105.93 125.25h43.45v16.67h-43.45z"/></g><g class="cls-6" clip-path="url(#clip-path-17)"><path class="cls-4" d="M65.04 150.9h29.39v17.95H65.04z"/></g><g class="cls-6" clip-path="url(#clip-path-19)"><path class="cls-10" d="M67.6 152.18h16.61v16.67H67.6z"/></g></svg>