<svg id="Layer_1" data-name="Layer 1" xmlns="http://www.w3.org/2000/svg" viewBox="0 0 233.78 216.13"><defs><clipPath id="clip-path"><path class="cls-1" d="M49.77 36.12H189.7v134.33H49.77z"/></clipPath><clipPath id="clip-path-2"><path class="cls-1" d="M50.04 35.99h140.33v136.38H50.04z"/></clipPath><clipPath id="clip-path-3"><path class="cls-1" d="M49.27 35.03h141.7v137.34H49.27z"/></clipPath><clipPath id="clip-path-4"><path class="cls-2" d="M189.29 72.38c0-19-26.46-20.31-29.09-2.62h-17.49v-2.18a2.64 2.64 0 00-1.53-2.19l-5.25-1.52a26.55 26.55 0 00-3.06-7.21l2.62-4.81a2.33 2.33 0 00-.43-2.62l-6.13-6.12a2.32 2.32 0 00-2.62-.43L121.93 46a29.58 29.58 0 00-7.21-3.05l-1.53-5.25a2.11 2.11 0 00-2-1.53h-8.53a2.11 2.11 0 00-2 1.53l-1.47 5.2A33.7 33.7 0 0092 46l-4.81-2.62a2.4 2.4 0 00-2.63.44l-6.12 6.12a2.32 2.32 0 00-.44 2.57l2.63 4.8a26.2 26.2 0 00-3.06 7.21l-5.27 1.53a2.09 2.09 0 00-1.53 2v2.15H56.11a6.35 6.35 0 00-6.34 6.33v87.59a6.35 6.35 0 006.34 6.33H174.2A16.42 16.42 0 00184 167c7.91-7 5.29-6.38 5.29-94.62zm-14.66-10.7c6.13 0 10.5 5 10.5 10.92v72.73a14.81 14.81 0 00-21 0V72a10.6 10.6 0 0110.5-10.32zm-99.27 7.64L80.17 68a2.64 2.64 0 001.53-1.52 25 25 0 013.5-8.3 2 2 0 000-2.19l-2.41-4.37 3.72-3.71 4.37 2.4a2 2 0 002.19 0 24.83 24.83 0 018.31-3.49 2.16 2.16 0 001.53-1.53l1.53-4.81h5.25L111 45.3a2.68 2.68 0 001.53 1.53 25.74 25.74 0 018.09 3.28 2 2 0 002.19 0l4.37-2.41 3.72 3.72-2.4 4.36a2 2 0 000 2.19 27.71 27.71 0 013.49 8.3 2.18 2.18 0 001.54 1.53l4.81 1.31v5.24l-4.81 1.31a2.64 2.64 0 00-1.53 1.53 24.78 24.78 0 01-3.49 8.3 2 2 0 000 2.18L130.9 92l-3.72 3.71-4.37-2.4a2 2 0 00-2.19 0 29.27 29.27 0 01-8.09 3.5 2.15 2.15 0 00-1.53 1.56l-1.31 4.81h-5.25l-1.31-4.81a2.61 2.61 0 00-1.53-1.52 22.26 22.26 0 01-8.09-3.5 2 2 0 00-2.19 0L87 95.75 83.23 92l2.41-4.37a2 2 0 000-2.18 27.73 27.73 0 01-3.5-8.3 2.16 2.16 0 00-1.53-1.53l-4.81-1.27v-5zm106.05 93.92a10.85 10.85 0 01-7.21 2.63H56.11a2.19 2.19 0 01-2.18-2.19V76.32a2.19 2.19 0 012.18-2.19H71.2v2.19a2.1 2.1 0 001.53 2L78 79.81A26.82 26.82 0 0081 87l-2.62 4.8a2.31 2.31 0 00.44 2.62l6.18 6.14a2.35 2.35 0 002.62.44l4.82-2.63a26.38 26.38 0 007.21 3.06l1.53 5.24a2.1 2.1 0 002 1.53h8.53a2.1 2.1 0 002-1.53l1.53-5.24a33.75 33.75 0 007.21-3.06l4.81 2.63a2.4 2.4 0 002.62-.44l6.13-6.12a2.32 2.32 0 00.44-2.62L133.74 87a26.2 26.2 0 003.06-7.21l5.25-1.53a2.09 2.09 0 001.53-2v-2.13h17.28v81.47a2.19 2.19 0 004.37 0 10.49 10.49 0 0110.5-10.48c5 0 10.28 4.8 10.28 11.79-1.32 2.4-2.63 4.81-4.6 6.33z"/></clipPath><clipPath id="clip-path-5"><path class="cls-1" d="M49.27 35.03h141.7v135.6H49.27z"/></clipPath><clipPath id="clip-path-6"><path class="cls-2" d="M67.16 96.56a1.63 1.63 0 00-2.16-.45 1.94 1.94 0 00-1.27 2v58.34a1.78 1.78 0 00.67 1.55 3 3 0 001.28.44h55.53a2 2 0 001.91-1.33 2.54 2.54 0 00-.42-2.45zm.42 57.67v-51l48.55 51z"/></clipPath><clipPath id="clip-path-8"><path class="cls-2" d="M74.71 146.3h18.44a2.12 2.12 0 002-1.41 2.67 2.67 0 00-.44-2.57l-18.46-19.65a1.92 1.92 0 00-2.42-.47 2.06 2.06 0 00-1.32 2.11V144a2.28 2.28 0 002.2 2.3zm2.19-16.38l11.2 11.93H76.9z"/></clipPath><clipPath id="clip-path-10"><path class="cls-2" d="M106.57 87.19a13.5 13.5 0 0010.24-4.76 12.48 12.48 0 002.61-11 13.13 13.13 0 00-9.8-10A12.81 12.81 0 0098.52 64a13.23 13.23 0 00-5 10.17 13.07 13.07 0 0013.06 13m-5.66-19.91a8.58 8.58 0 015.66-2 5.94 5.94 0 012 .22 9.2 9.2 0 016.75 6.7 8.81 8.81 0 01-8.71 10.83 8.81 8.81 0 01-8.92-8.88 9.52 9.52 0 013.26-6.92"/></clipPath><clipPath id="clip-path-12"><path class="cls-2" d="M147.07 113.26H113.2a2.65 2.65 0 000 5.22h34.09a2.43 2.43 0 002.2-2.61c-.22-1.56-1.1-2.61-2.42-2.61"/></clipPath><clipPath id="clip-path-14"><path class="cls-2" d="M147.07 128.91H113.2a2.65 2.65 0 000 5.22h34.09a2.43 2.43 0 002.2-2.61c-.22-1.57-1.1-2.61-2.42-2.61"/></clipPath><clipPath id="clip-path-16"><path class="cls-1" d="M65.02 165.42h24.49v6.95H65.02z"/></clipPath><clipPath id="clip-path-18"><path class="cls-2" d="M71.14 170.63a2.61 2.61 0 10-2.62-2.6 2.61 2.61 0 002.62 2.6z"/></clipPath><style>.cls-1,.cls-2{fill:none}.cls-2{clip-rule:evenodd}.cls-4{clip-path:url(#clip-path-2)}.cls-9{fill:#16103e}.cls-11{fill:#3ba07a}</style></defs><g clip-path="url(#clip-path)"><g clip-path="url(#clip-path-3)"><g clip-path="url(#clip-path-4)"><g clip-path="url(#clip-path-5)"><path class="cls-9" d="M41.03 27.43h157.43v151.71H41.03z"/></g></g></g></g><g class="cls-4" clip-path="url(#clip-path-6)"><path class="cls-11" d="M55.02 87.19h76.97v79.97H55.02z"/></g><g class="cls-4" clip-path="url(#clip-path-8)"><path class="cls-11" d="M63.77 113.26h40.24v41.72H63.77z"/></g><g clip-path="url(#clip-path-10)"><path d="M84.76 52.42h43.73v43.46H84.76z"/></g><g class="cls-4" clip-path="url(#clip-path-12)"><path class="cls-9" d="M102.25 104.57h55.98v22.6h-55.98z"/></g><g class="cls-4" clip-path="url(#clip-path-14)"><path class="cls-9" d="M102.25 120.22h55.98v22.6h-55.98z"/></g><g clip-path="url(#clip-path-16)"><path fill="#fff" d="M56.27 156.73h41.99v24.34H56.27z"/></g><g class="cls-4" clip-path="url(#clip-path-18)"><path class="cls-9" d="M59.77 156.73h22.74v22.6H59.77z"/></g></svg>