<svg id="Layer_1" data-name="Layer 1" xmlns="http://www.w3.org/2000/svg" viewBox="0 0 233.78 216.13"><defs><clipPath id="clip-path"><path class="cls-1" d="M23.38 20.36h178.25V196.3H23.38z"/></clipPath><clipPath id="clip-path-2"><path class="cls-2" d="M48 64.13h129.35a5.15 5.15 0 015.1 5.2v91.84a5.15 5.15 0 01-5.1 5.2H48a5.15 5.15 0 01-5.1-5.2V69.33a5.15 5.15 0 015.1-5.2z"/></clipPath><clipPath id="clip-path-3"><path class="cls-1" d="M42.94 31.77h139.52V165.6H42.94z"/></clipPath><clipPath id="clip-path-4"><path class="cls-1" d="M42.94 63.91h139.52v102.46H42.94z"/></clipPath><clipPath id="clip-path-6"><path class="cls-1" d="M42.94 64.13h139.52v102.24H42.94z"/></clipPath><clipPath id="clip-path-8"><path class="cls-2" d="M156.93 146.09q12.27-9.06 23.21 0V61.86q-8.43-15.8-22.2-.87z"/></clipPath><clipPath id="clip-path-11"><path class="cls-2" d="M62.89 86.35l55.59 59.77a1.75 1.75 0 01-.06 2.45 1.72 1.72 0 01-1.17.47h-55.6a1.71 1.71 0 01-1.7-1.73V87.54a1.7 1.7 0 012.94-1.19z"/></clipPath><clipPath id="clip-path-14"><path class="cls-2" d="M71.86 116.12v20.15H91.3l-19.44-20.15z"/></clipPath><clipPath id="clip-path-17"><path class="cls-2" d="M82.86 51.07c-2.18-3.58-3.42-5.37-3.7-5.37S80.5 44.14 84 41q4.59 2.34 5.56 2.34c1 0 6.76-3.07 8.23-3.07s3.91-3.12 3.91-5.15q0-2 1.65-2.19h5.16c1 3.48 1.71 5.31 2.11 5.47.6.26 2 1.87 3.15 1.87q1.13 0 7.08 3.64l6.17-3.15 3.93 4-2.54 4.75a7 7 0 001.59 5.23c1.88 2.56 1.66 5.47 2.17 6.2s3.45 2.6 4.63 2.6a4.37 4.37 0 012.08.48v5.7l-5.09 1.42c-1.4 1.25-2.1 2.47-2.1 3.68s-.91 3.25-2.74 6.14q-1.12 2.25 1.05 6t1 2l-3.93 3.93-3.84-2q-.63-1.2-6.45 1.43c-5.81 2.62-6.85 3-7.31 5-.31 1.34-.61 2.58-.91 3.71H103q-2.31-6.9-3-6.9a31.65 31.65 0 01-7.42-2.9 4.59 4.59 0 00-4.93 0 14 14 0 01-3 1.63l-4.07-3.93 2-3.82a5.5 5.5 0 00-.64-5.56 10.61 10.61 0 01-2.15-5.17q-.3-3.12-4.9-4t-2.22-.84V64l4.66-1.18a19.18 19.18 0 002.46-4.92 39.39 39.39 0 013.07-6.83z"/></clipPath><clipPath id="clip-path-20"><path class="cls-2" d="M105 79.73A12.13 12.13 0 1093.13 67.6 12 12 0 00105 79.73z"/></clipPath><clipPath id="clip-path-23"><path class="cls-2" d="M110.14 112.65a2.6 2.6 0 10-2.55-2.6 2.57 2.57 0 002.55 2.6z"/></clipPath><clipPath id="clip-path-25"><path class="cls-2" d="M110.14 126.52a2.6 2.6 0 10-2.55-2.6 2.58 2.58 0 002.55 2.6z"/></clipPath><style>.cls-1,.cls-16,.cls-2{fill:none}.cls-2{clip-rule:evenodd}.cls-5{fill:#16103e}.cls-7{clip-path:url(#clip-path-3)}.cls-11{fill:#3ba07a}.cls-16{stroke:#16103e;stroke-linejoin:round;stroke-width:1.58px}</style></defs><g clip-path="url(#clip-path)"><path class="cls-5" d="M25.56 22.54h173.89v171.58H25.56z"/></g><g clip-path="url(#clip-path-4)"><g clip-path="url(#clip-path-6)"><path class="cls-11" d="M48 64.13h129.35a5.15 5.15 0 015.1 5.2v91.84a5.15 5.15 0 01-5.1 5.2H48a5.15 5.15 0 01-5.1-5.2V69.33a5.15 5.15 0 015.1-5.2z"/></g><path d="M48 64.13h129.35a5.15 5.15 0 015.1 5.2v91.84a5.15 5.15 0 01-5.1 5.2H48a5.15 5.15 0 01-5.1-5.2V69.33a5.15 5.15 0 015.1-5.2z" stroke-width="3.15" stroke-miterlimit="10" stroke="#16103e" fill="none"/></g><g class="cls-7" clip-path="url(#clip-path-8)"><path class="cls-11" d="M148.42 45.07h40.22v109.68h-40.22z"/></g><path d="M156.93 146.09q12.27-9.06 23.21 0V61.86q-8.43-15.8-22.2-.87z" stroke-width="1.97" stroke-linejoin="round" stroke="#16103e" fill="none"/><g class="cls-7" clip-path="url(#clip-path-11)"><path class="cls-11" d="M51.44 77.15h76.01v80.56H51.44z"/></g><g class="cls-7"><path class="cls-16" d="M62.89 86.35l55.59 59.77a1.75 1.75 0 01-.06 2.45 1.72 1.72 0 01-1.17.47h-55.6a1.71 1.71 0 01-1.7-1.73V87.54a1.7 1.7 0 012.94-1.19z"/></g><g class="cls-7" clip-path="url(#clip-path-14)"><path class="cls-11" d="M63.35 107.45h36.46v37.48H63.35z"/></g><g class="cls-7"><path class="cls-16" d="M71.86 116.12v20.15H91.3l-19.44-20.15z"/></g><g class="cls-7" clip-path="url(#clip-path-17)"><path class="cls-11" d="M63.35 24.28h84.01v85.42H63.35z"/></g><path d="M82.86 51.07c-2.18-3.58-3.42-5.37-3.7-5.37S80.5 44.14 84 41q4.59 2.34 5.56 2.34c1 0 6.76-3.07 8.23-3.07s3.91-3.12 3.91-5.15q0-2 1.65-2.19h5.16c1 3.48 1.71 5.31 2.11 5.47.6.26 2 1.87 3.15 1.87q1.13 0 7.08 3.64l6.17-3.15 3.93 4-2.55 4.74a7.07 7.07 0 001.6 5.24c1.88 2.56 1.65 5.47 2.17 6.2s3.45 2.6 4.63 2.6a4.4 4.4 0 012.08.48v5.7l-5.09 1.42c-1.4 1.25-2.1 2.47-2.1 3.68s-.91 3.25-2.74 6.14q-1.12 2.25 1.05 6t1 2l-3.93 3.93-3.84-2q-.63-1.18-6.45 1.44c-5.81 2.62-6.85 3-7.31 5-.31 1.34-.61 2.58-.91 3.71H103q-2.31-6.9-3-6.9a31.88 31.88 0 01-7.43-2.9 4.57 4.57 0 00-4.92 0 14 14 0 01-3 1.63l-4.07-3.93 2-3.82a5.48 5.48 0 00-.65-5.56 10.65 10.65 0 01-2.14-5.17c-.2-2.08-1.83-3.41-4.9-4s-3.8-.88-2.23-.84V64l4.67-1.18a19.18 19.18 0 002.46-4.92 38.9 38.9 0 013.07-6.83z" stroke-width="1.58" stroke-miterlimit="10" stroke="#16103e" fill="none"/><g class="cls-7" clip-path="url(#clip-path-20)"><path class="cls-5" d="M84.62 46.81h40.83V88.4H84.62z"/></g><path d="M119.5 110.05h30.13m-30.13 13.87h30.13" stroke-linecap="round" stroke-width="1.97" stroke="#16103e" stroke-linejoin="round" fill="none"/><g class="cls-7" clip-path="url(#clip-path-23)"><path class="cls-5" d="M99.08 98.79h22.12v22.53H99.08z"/></g><g class="cls-7" clip-path="url(#clip-path-25)"><path class="cls-5" d="M99.08 112.65h22.12v22.53H99.08z"/></g></svg>