<svg id="Layer_1" data-name="Layer 1" xmlns="http://www.w3.org/2000/svg" viewBox="0 0 233.78 216.13"><defs><clipPath id="clip-path"><path class="cls-1" d="M42.1 43.76h137.78v134.33H42.1z"/></clipPath><clipPath id="clip-path-2"><path class="cls-1" d="M41.75 42.89h139.38v136.86H41.75z"/></clipPath><clipPath id="clip-path-3"><path class="cls-1" d="M41.61 42.66h139.52V180H41.61z"/></clipPath><clipPath id="clip-path-4"><path class="cls-2" d="M179.47 80c0-19-26.05-20.31-28.64-2.62h-17.22v-2.17A2.64 2.64 0 00132.1 73l-5.17-1.52a26.77 26.77 0 00-3-7.21l2.58-4.81a2.34 2.34 0 00-.43-2.62l-6-6.12a2.26 2.26 0 00-2.58-.43l-4.31 3.27a28.84 28.84 0 00-7.1-3l-1.51-5.24a2.08 2.08 0 00-1.94-1.53H94.2a2.05 2.05 0 00-1.93 1.53l-1.51 5.24a32.71 32.71 0 00-7.1 3L78.92 51a2.34 2.34 0 00-2.59.44l-6 6.12a2.33 2.33 0 00-.42 2.62l2.58 4.8a27.06 27.06 0 00-3 7.21l-5.16 1.53a2.1 2.1 0 00-1.51 2v2.19H48.34a6.29 6.29 0 00-6.24 6.33v87.59a6.29 6.29 0 006.24 6.33h116.27a16 16 0 009.69-3.49c7.75-7.07 5.17-6.42 5.17-94.67zM165 69.31c6 0 10.34 5 10.34 10.92V153a14.43 14.43 0 00-20.67 0V79.58A10.5 10.5 0 01165 69.31zM67.29 77L72 75.64a2.63 2.63 0 001.51-1.52 25.07 25.07 0 013.49-8.3 2 2 0 000-2.19l-2.37-4.37 3.66-3.71L82.58 58a1.92 1.92 0 002.15 0 24.49 24.49 0 018.18-3.49 2.16 2.16 0 001.51-1.53l1.51-4.81h5.17l1.29 4.81a2.63 2.63 0 001.5 1.53 25.51 25.51 0 018 3.28 2 2 0 002.15 0l4.31-2.41 3.65 3.67-2.37 4.36a2 2 0 000 2.19 27.86 27.86 0 013.44 8.3 2.17 2.17 0 001.51 1.53l4.74 1.31V82l-4.74 1.31a2.65 2.65 0 00-1.51 1.53 25.07 25.07 0 01-3.44 8.3 2 2 0 000 2.18l2.37 4.35-3.66 3.71L114 101a1.92 1.92 0 00-2.15 0 28.7 28.7 0 01-8 3.5 2.11 2.11 0 00-1.5 1.52l-1.29 4.81h-5.13L94.64 106a2.63 2.63 0 00-1.51-1.52 21.79 21.79 0 01-8-3.5A1.92 1.92 0 0083 101l-4.31 2.4L75 99.67l2.37-4.37a2 2 0 000-2.18 27.86 27.86 0 01-3.37-8.3 2.15 2.15 0 00-1.51-1.53L67.72 82v-5zm104.43 93.92a10.63 10.63 0 01-7.11 2.63H48.34a2.18 2.18 0 01-2.15-2.19V84a2.17 2.17 0 012.15-2.19H63.2V84a2.1 2.1 0 001.51 2l5.17 1.53a26.72 26.72 0 003 7.21l-2.59 4.8a2.36 2.36 0 00.44 2.62l6 6.12a2.3 2.3 0 002.59.44l4.76-2.72a26 26 0 007.11 3.06l1.51 5.24a2.06 2.06 0 001.94 1.53H103a2.07 2.07 0 002-1.53l1.51-5.24a33 33 0 007.1-3.06l4.74 2.63a2.34 2.34 0 002.58-.44l6-6.12a2.34 2.34 0 00.43-2.62l-2.58-4.8a26.72 26.72 0 003-7.21l5.22-1.53a2.1 2.1 0 001.51-2v-2.15h17v81.47a2.15 2.15 0 104.3 0 10.41 10.41 0 0110.34-10.48c4.95 0 10.12 4.8 10.12 11.79-1.33 2.4-2.62 4.81-4.55 6.33z"/></clipPath><clipPath id="clip-path-5"><path class="cls-1" d="M41.61 42.66h139.52v135.6H41.61z"/></clipPath><clipPath id="clip-path-6"><path class="cls-2" d="M59.22 104.19a1.6 1.6 0 00-2.09-.45 2 2 0 00-1.25 2v58.34a1.78 1.78 0 00.63 1.56 2.81 2.81 0 001.25.44h54.68a2 2 0 001.88-1.33 2.54 2.54 0 00-.42-2.45zm.42 57.67v-51l47.79 51z"/></clipPath><clipPath id="clip-path-8"><path class="cls-2" d="M66.65 153.93h18.16a2.1 2.1 0 002-1.41 2.72 2.72 0 00-.44-2.57l-18.2-19.65a1.87 1.87 0 00-2.38-.47 2.05 2.05 0 00-1.3 2.11v19.65a2.26 2.26 0 002.16 2.34zm2.16-16.38l11 11.93h-11z"/></clipPath><clipPath id="clip-path-10"><path class="cls-2" d="M98 94.82a13.18 13.18 0 0010.07-4.76 12.59 12.59 0 002.58-11 13 13 0 00-9.65-10 12.49 12.49 0 00-10.94 2.6 13.31 13.31 0 00-4.93 10.17A13 13 0 0098 94.82m-5.55-19.91A8.34 8.34 0 0198 73a5.82 5.82 0 011.93.22 9.13 9.13 0 016.64 6.7 8.72 8.72 0 01-1.71 7.58A8.43 8.43 0 0198 90.71a8.73 8.73 0 01-8.79-8.88 9.58 9.58 0 013.21-6.92"/></clipPath><clipPath id="clip-path-12"><path class="cls-2" d="M137.9 120.89h-33.35a2.66 2.66 0 000 5.22h33.56a2.41 2.41 0 002.17-2.61c-.22-1.56-1.08-2.61-2.38-2.61"/></clipPath><clipPath id="clip-path-14"><path class="cls-2" d="M137.9 136.54h-33.35a2.66 2.66 0 000 5.22h33.56a2.42 2.42 0 002.17-2.61c-.22-1.57-1.08-2.61-2.38-2.61"/></clipPath><clipPath id="clip-path-16"><path class="cls-1" d="M57.11 173.05h24.11V180H57.11z"/></clipPath><clipPath id="clip-path-18"><path class="cls-2" d="M63.14 178.27a2.61 2.61 0 10-2.59-2.61 2.59 2.59 0 002.59 2.61z"/></clipPath><style>.cls-1,.cls-2{fill:none}.cls-2{clip-rule:evenodd}.cls-4{clip-path:url(#clip-path-2)}.cls-9{fill:#3ba07a}</style></defs><g clip-path="url(#clip-path)"><g clip-path="url(#clip-path-3)"><g clip-path="url(#clip-path-4)"><g clip-path="url(#clip-path-5)"><path class="cls-9" d="M33.49 35.06h155v151.71h-155z"/></g></g></g></g><g class="cls-4" clip-path="url(#clip-path-6)"><path class="cls-9" d="M47.27 94.82h75.79v79.97H47.27z"/></g><g class="cls-4" clip-path="url(#clip-path-8)"><path class="cls-9" d="M55.88 120.89H95.5v41.72H55.88z"/></g><g class="cls-4" clip-path="url(#clip-path-10)"><path class="cls-9" d="M76.55 60.05h43.06v43.46H76.55z"/></g><g class="cls-4" clip-path="url(#clip-path-12)"><path class="cls-9" d="M93.77 112.2h55.12v22.6H93.77z"/></g><g class="cls-4" clip-path="url(#clip-path-14)"><path class="cls-9" d="M93.77 127.85h55.12v22.6H93.77z"/></g><g clip-path="url(#clip-path-16)"><path fill="#fff" d="M48.5 164.36h41.34v24.34H48.5z"/></g><g class="cls-4" clip-path="url(#clip-path-18)"><path class="cls-9" d="M51.94 164.36h22.39v22.6H51.94z"/></g></svg>