<svg id="Layer_1" data-name="Layer 1" xmlns="http://www.w3.org/2000/svg" viewBox="0 0 233.78 216.13"><defs><clipPath id="clip-path"><path class="cls-1" d="M30.47 21.19h178.25v175.94H30.47z"/></clipPath><clipPath id="clip-path-2"><path class="cls-2" d="M58.16 121h96.46a3.44 3.44 0 013.45 3.42v39.3a3.44 3.44 0 01-3.45 3.41H58.16a3.44 3.44 0 01-3.45-3.41v-39.3a3.44 3.44 0 013.45-3.42z"/></clipPath><clipPath id="clip-path-3"><path class="cls-1" d="M53.82 42.11H192.5v126.44H53.82z"/></clipPath><clipPath id="clip-path-4"><path class="cls-1" d="M52.99 120.59h106.82v47.96H52.99z"/></clipPath><clipPath id="clip-path-6"><path class="cls-1" d="M54.71 120.71h103.35v47.84H54.71z"/></clipPath><clipPath id="clip-path-8"><path class="cls-2" d="M70 45.84h72.57a3.48 3.48 0 013.12 1.93l10 20.5a3.44 3.44 0 01-1.61 4.57 3.58 3.58 0 01-1.51.34H57.44a1.72 1.72 0 01-1.72-1.71 1.7 1.7 0 01.17-.73l11-22.92A3.47 3.47 0 0170 45.84z"/></clipPath><clipPath id="clip-path-11"><path class="cls-2" d="M77.1 71.47v21.45q9.36 8.35 19 0"/></clipPath><clipPath id="clip-path-14"><path class="cls-2" d="M96.05 71.47v21.45q10.2 8.35 20.68 0"/></clipPath><clipPath id="clip-path-17"><path class="cls-2" d="M116.73 71.47v21.45q10.17 8.35 20.67 0"/></clipPath><clipPath id="clip-path-20"><path class="cls-2" d="M137.4 71.47v21.45q9.36 8.35 18.95 0"/></clipPath><clipPath id="clip-path-23"><path class="cls-2" d="M134 93.68h5.16a6.87 6.87 0 016.89 6.84V121h-17.26V98.81a5.15 5.15 0 015.21-5.13z"/></clipPath><clipPath id="clip-path-25"><path class="cls-1" d="M127.11 92.25h19.62v30.52h-19.62z"/></clipPath><clipPath id="clip-path-27"><path class="cls-1" d="M128.79 93.37h17.22v29.05h-17.22z"/></clipPath><clipPath id="clip-path-30"><path class="cls-2" d="M118.94 73.93h15.78l.54 16.78-16.32-1.19V73.93z"/></clipPath><clipPath id="clip-path-32"><path class="cls-2" d="M56.44 69.76v22.88q10.2 8.92 20.66 0"/></clipPath><clipPath id="clip-path-35"><path class="cls-2" d="M73.66 93.68h5.16a6.85 6.85 0 016.89 6.84V121H68.49V98.81a5.15 5.15 0 015.17-5.13z"/></clipPath><clipPath id="clip-path-37"><path class="cls-1" d="M68.25 92.25h19.62v30.52H68.25z"/></clipPath><clipPath id="clip-path-39"><path class="cls-1" d="M68.49 93.37h17.22v29.05H68.49z"/></clipPath><clipPath id="clip-path-41"><path class="cls-2" d="M165.5 160a26.49 26.49 0 10-26.38-26.49A26.44 26.44 0 00165.5 160z"/></clipPath><clipPath id="clip-path-43"><path class="cls-2" d="M164.72 154a20.51 20.51 0 10-20.43-20.51A20.46 20.46 0 00164.72 154z"/></clipPath><clipPath id="clip-path-46"><path class="cls-2" d="M58.64 73.93h16.67l.27 17.03-15.22-1.01-1.72-16.02z"/></clipPath><clipPath id="clip-path-48"><path class="cls-2" d="M79.26 73.93h14.48l.17 18-11.95-2.84-2.7-15.16z"/></clipPath><clipPath id="clip-path-50"><path class="cls-1" d="M58.16 71.16h3.44v2.82h-3.44z"/></clipPath><clipPath id="clip-path-52"><path class="cls-2" d="M98.25 73.93h16.04l.29 16.78-16.33-.76V73.93z"/></clipPath><clipPath id="clip-path-54"><path class="cls-2" d="M139.62 73.93h13.78v15.68l-11.22.76-2.56-16.44z"/></clipPath><style>.cls-1,.cls-14,.cls-2,.cls-22{fill:none}.cls-2{clip-rule:evenodd}.cls-5{fill:#16103e}.cls-7{clip-path:url(#clip-path-3)}.cls-11{fill:#3ba07a}.cls-14,.cls-22{stroke:#16103e;stroke-miterlimit:10}.cls-14{stroke-width:1.97px}.cls-21{clip-path:url(#clip-path-27)}.cls-22{stroke-width:2.36px}.cls-27{clip-path:url(#clip-path-39)}</style></defs><g clip-path="url(#clip-path)"><path class="cls-5" d="M32.65 23.37h173.88v171.58H32.65z"/></g><g clip-path="url(#clip-path-2)"><g clip-path="url(#clip-path-4)"><g clip-path="url(#clip-path-6)"><path class="cls-11" d="M58.16 121h96.46a3.44 3.44 0 013.45 3.42v39.3a3.44 3.44 0 01-3.45 3.41H58.16a3.44 3.44 0 01-3.45-3.41v-39.3a3.44 3.44 0 013.45-3.42z"/></g><path d="M58.16 121h96.46a3.43 3.43 0 013.44 3.42v39.3a3.43 3.43 0 01-3.44 3.41H58.16a3.44 3.44 0 01-3.45-3.41v-39.3a3.44 3.44 0 013.45-3.42z" stroke-width="3.93" stroke-miterlimit="10" stroke="#16103e" fill="none"/></g></g><g class="cls-7" clip-path="url(#clip-path-8)"><path class="cls-11" d="M47.11 37.3h117.52v44.42H47.11z"/></g><g class="cls-7"><path class="cls-14" d="M70 45.84h72.58a3.46 3.46 0 013.11 1.93l10 20.51a3.4 3.4 0 01-1.61 4.56 3.54 3.54 0 01-1.5.34H57.45a1.7 1.7 0 01-1.55-2.44l11-22.92a3.48 3.48 0 013.1-1.98z"/></g><g class="cls-7" clip-path="url(#clip-path-11)"><path class="cls-11" d="M68.49 62.93h36.17v42.72H68.49z"/></g><g class="cls-7"><path class="cls-14" d="M77.1 71.47v21.45q9.36 8.35 19 0"/></g><g class="cls-7" clip-path="url(#clip-path-14)"><path class="cls-11" d="M87.44 62.93h37.89v42.72H87.44z"/></g><g class="cls-7"><path class="cls-14" d="M96.05 71.47v21.45q10.2 8.35 20.67 0"/></g><g class="cls-7" clip-path="url(#clip-path-17)"><path class="cls-11" d="M108.1 62.93h37.89v42.72H108.1z"/></g><g class="cls-7"><path class="cls-14" d="M116.73 71.47v21.45q10.22 8.35 20.67 0"/></g><g class="cls-7" clip-path="url(#clip-path-20)"><path class="cls-11" d="M128.79 62.93h36.17v42.72h-36.17z"/></g><g class="cls-7"><path class="cls-14" d="M137.4 71.47v21.45q9.34 8.35 18.95 0m-.87 2.43V71.47"/></g><g clip-path="url(#clip-path-25)"><g class="cls-21" clip-path="url(#clip-path-23)"><path class="cls-11" d="M134 93.68h5.16a6.87 6.87 0 016.89 6.84V121h-17.26V98.81a5.15 5.15 0 015.21-5.13z"/></g><g class="cls-21"><path class="cls-22" d="M134 93.68h5.16a6.86 6.86 0 016.89 6.84V121h-17.26V98.81a5.15 5.15 0 015.21-5.13z"/></g></g><g class="cls-7"><path class="cls-14" d="M97.77 73.18l5.17-25.63m15.52 25.63l-1.73-25.63m20.67 25.63l-6.89-27.34"/></g><g class="cls-7" clip-path="url(#clip-path-30)"><path class="cls-11" d="M110.33 65.39h33.55v33.86h-33.55z"/></g><g class="cls-7" clip-path="url(#clip-path-32)"><path class="cls-11" d="M47.82 61.22h37.89v44.42H47.82z"/></g><g class="cls-7"><path class="cls-14" d="M56.44 69.76v22.88q10.2 8.92 20.67 0m-.39-19.34L87.1 46.19"/></g><g clip-path="url(#clip-path-37)"><g class="cls-27" clip-path="url(#clip-path-35)"><path class="cls-11" d="M73.66 93.68h5.16a6.85 6.85 0 016.89 6.84V121H68.49V98.81a5.15 5.15 0 015.17-5.13z"/></g><g class="cls-27"><path class="cls-22" d="M73.66 93.68h5.17a6.87 6.87 0 016.89 6.84V121H68.49V98.81a5.15 5.15 0 015.17-5.13z"/></g></g><g class="cls-7" clip-path="url(#clip-path-41)"><path class="cls-5" d="M130.51 98.5h70.01v70.05h-70.01z"/></g><g class="cls-7" clip-path="url(#clip-path-43)"><path class="cls-11" d="M135.68 104.48h58.09v58.09h-58.09z"/></g><g class="cls-7" stroke-width="1.57" stroke-miterlimit="10" fill="none"><ellipse cx="164.72" cy="133.52" rx="20.43" ry="20.5" stroke="#3ba07a"/><path stroke-linecap="round" stroke="#16103e" d="M151.61 133.02l9.04 8.19 15.08-13.67"/></g><g class="cls-7" clip-path="url(#clip-path-46)"><path class="cls-11" d="M50.03 65.39h34.18v34.12H50.03z"/></g><g class="cls-7" clip-path="url(#clip-path-48)"><path class="cls-11" d="M70.65 65.39h31.86v35.08H70.65z"/></g><g class="cls-7" clip-path="url(#clip-path-50)"><path class="cls-5" d="M49.55 62.62h20.67v19.91H49.55z"/></g><g class="cls-7" clip-path="url(#clip-path-52)"><path class="cls-11" d="M89.64 65.39h33.54v33.86H89.64z"/></g><g class="cls-7" clip-path="url(#clip-path-54)"><path class="cls-11" d="M131.01 65.39h31.01v33.52h-31.01z"/></g></svg>