<svg id="Layer_1" data-name="Layer 1" xmlns="http://www.w3.org/2000/svg" viewBox="0 0 233.78 216.13"><defs><clipPath id="clip-path"><path class="cls-1" d="M73.57 119.63H151a2.75 2.75 0 012.77 2.73v34.08a2.75 2.75 0 01-2.77 2.73H73.57a2.74 2.74 0 01-2.76-2.73v-34.08a2.74 2.74 0 012.76-2.73z"/></clipPath><clipPath id="clip-path-2"><path class="cls-2" d="M69.42 59.39h100.9v100.9H69.42z"/></clipPath><clipPath id="clip-path-3"><path class="cls-2" d="M69.42 119.3h85.13v40.99H69.42z"/></clipPath><clipPath id="clip-path-4"><path class="cls-2" d="M70.81 119.38h82.93v40.91H70.81z"/></clipPath><clipPath id="clip-path-6"><path class="cls-1" d="M134.39 100.54h4.14a5.49 5.49 0 015.53 5.45v16.37h-13.82v-17.73a4.12 4.12 0 014.15-4.09z"/></clipPath><clipPath id="clip-path-8"><path class="cls-2" d="M129.33 100.38h15.77v22.07h-15.77z"/></clipPath><clipPath id="clip-path-9"><path class="cls-2" d="M130.24 100.38h13.82v22.07h-13.82z"/></clipPath><clipPath id="clip-path-11"><ellipse class="cls-2" cx="150.97" cy="130.54" rx="19.35" ry="19.09"/></clipPath><clipPath id="clip-path-13"><path class="cls-1" d="M148.44 135.4l-4.77-4.81a1.4 1.4 0 00-2 0 1.36 1.36 0 000 1.93l5.77 5.81a1.39 1.39 0 001.95 0l10.82-10.91a1.34 1.34 0 000-1.93 1.4 1.4 0 00-1.95 0z"/></clipPath><clipPath id="clip-path-16"><path class="cls-1" d="M86 100.54h4.15a5.48 5.48 0 015.53 5.46v16.37H81.86v-17.74a4.12 4.12 0 014.14-4.09z"/></clipPath><clipPath id="clip-path-18"><path class="cls-2" d="M80.46 100.38h15.77v22.07H80.46z"/></clipPath><clipPath id="clip-path-19"><path class="cls-2" d="M81.86 100.38h13.82v22.07H81.86z"/></clipPath><clipPath id="clip-path-20"><path class="cls-2" d="M83.25 154.83h19.35v5.45H83.25z"/></clipPath><clipPath id="clip-path-22"><path class="cls-1" d="M88.08 159.6a2 2 0 10-2.07-2 2.06 2.06 0 002.07 2z"/></clipPath><style>.cls-1,.cls-10,.cls-2,.cls-9{fill:none}.cls-1{clip-rule:evenodd}.cls-3{fill:#16103e}.cls-5{clip-path:url(#clip-path-2)}.cls-10,.cls-9{stroke:#fff;stroke-miterlimit:10}.cls-9{stroke-width:4.35px}.cls-10{stroke-width:2.18px}</style></defs><path class="cls-3" d="M40.06 29.24h159.78V186.9H40.06z"/><g clip-path="url(#clip-path)"><g clip-path="url(#clip-path-3)"><g clip-path="url(#clip-path-4)"><path class="cls-9" d="M73.57 119.63H151a2.75 2.75 0 012.77 2.73v34.08a2.75 2.75 0 01-2.77 2.73H73.57a2.74 2.74 0 01-2.76-2.73v-34.08a2.74 2.74 0 012.76-2.73z"/></g></g></g><g class="cls-5"><path class="cls-10" d="M83.1 62.36h58.24a2.76 2.76 0 012.49 1.55l8 16.36a2.72 2.72 0 01-1.29 3.64 2.81 2.81 0 01-1.21.27L73 84.15a1.37 1.37 0 01-1.38-1.36 1.31 1.31 0 01.13-.59l8.85-18.29a2.78 2.78 0 012.5-1.55z"/><path class="cls-10" d="M88.77 82.82v17.11q7.52 6.67 15.21 0m.02-17.11v17.11q8.19 6.67 16.58 0"/><path class="cls-10" d="M120.56 82.82v17.11q8.19 6.67 16.59 0m0-17.11v17.11q7.5 6.67 15.2 0m-.69 1.94V82.82"/></g><g clip-path="url(#clip-path-6)"><g clip-path="url(#clip-path-8)"><g clip-path="url(#clip-path-9)"><path class="cls-9" d="M134.39 100.54h4.14a5.49 5.49 0 015.53 5.45v16.37h-13.82v-17.73a4.12 4.12 0 014.15-4.09z"/></g></g></g><g class="cls-5"><path class="cls-10" d="M105.36 84.18l4.15-20.45m12.44 20.45l-1.39-20.45m16.59 20.45l-5.53-21.82"/></g><g class="cls-5" clip-path="url(#clip-path-11)"><path class="cls-3" d="M124.71 104.63h52.52v51.81h-52.52z"/></g><g clip-path="url(#clip-path-13)"><path fill="#3ba07a" d="M134.39 118.27h33.17v27.27h-33.17z"/></g><g class="cls-5"><ellipse cx="150.28" cy="130.97" rx="15.9" ry="15.68" stroke="#3ba07a" stroke-width="1.74" stroke-miterlimit="10" fill="none"/><path class="cls-10" d="M72.19 81.45v18.26q8.18 7.11 16.58 0m-.3-15.43l8.33-21.63"/></g><g clip-path="url(#clip-path-16)"><g clip-path="url(#clip-path-18)"><g clip-path="url(#clip-path-19)"><path class="cls-9" d="M86 100.54h4.15a5.48 5.48 0 015.53 5.46v16.37H81.86v-17.74a4.12 4.12 0 014.14-4.09z"/></g></g></g><g class="cls-5" clip-path="url(#clip-path-20)"><path class="cls-3" d="M76.34 148.01h33.17v19.09H76.34z"/></g><g clip-path="url(#clip-path-22)"><path fill="#fff" d="M79.1 148.7h17.97v17.73H79.1z"/></g></svg>