<svg id="Layer_1" data-name="Layer 1" xmlns="http://www.w3.org/2000/svg" viewBox="0 0 233.78 216.13"><defs><clipPath id="clip-path"><path class="cls-1" d="M57.97 49.69h8V76.5h-8z"/></clipPath><clipPath id="clip-path-2"><path class="cls-1" d="M50.3 33.92h131.56v148.24H50.3z"/></clipPath><clipPath id="clip-path-3"><path class="cls-2" d="M182.63 54.38l-9.73-19.09a2.42 2.42 0 00-3.24-1.07l-19.42 9.55a2.36 2.36 0 00-1.09 3.2 2.44 2.44 0 003.22 1.03l14.08-6.91-3.84 10.81c-16.89 47.24-60.38 80.38-111.15 84.7l.41 4.78c52.69-4.49 97.82-38.88 115.34-87.9l3.91-11 7.15 14.05a2.46 2.46 0 003.27 1.07 2.39 2.39 0 001.09-3.21"/></clipPath><clipPath id="clip-path-5"><path class="cls-2" d="M51.5 136.58c-.92 2-.78 3.54.37 4.73"/></clipPath><clipPath id="clip-path-7"><path class="cls-2" d="M55.55 175.85h115.37a2.37 2.37 0 110 4.73H55.55a2.37 2.37 0 110-4.73z"/></clipPath><clipPath id="clip-path-9"><path class="cls-2" d="M75.26 147.66H60.13a2.14 2.14 0 00-2.13 2.12v12.77a2.14 2.14 0 002.16 2.13h15.1a2.14 2.14 0 002.16-2.13v-12.77a2.14 2.14 0 00-2.16-2.12zm-13 12.76H73.1v-8.51H62.29z"/></clipPath><clipPath id="clip-path-11"><path class="cls-2" d="M99.07 141.27H83.92a2.14 2.14 0 00-2.16 2.13v19.15a2.14 2.14 0 002.16 2.13h15.15a2.16 2.16 0 002.16-2.13V143.4a2.16 2.16 0 00-2.16-2.13zm-13 19.15h10.82v-14.89H86.07z"/></clipPath><clipPath id="clip-path-13"><path class="cls-2" d="M122.85 130.64h-15.13a2.15 2.15 0 00-2.18 2.12v29.79a2.16 2.16 0 002.18 2.13h15.13a2.14 2.14 0 002.16-2.13v-29.79a2.14 2.14 0 00-2.16-2.12zm-13 29.78h10.81v-25.53h-10.78z"/></clipPath><clipPath id="clip-path-15"><path class="cls-2" d="M146.64 115.75h-15.13a2.14 2.14 0 00-2.16 2.12v44.68a2.14 2.14 0 002.16 2.13h15.13a2.17 2.17 0 002.18-2.13v-44.68a2.16 2.16 0 00-2.18-2.12zm-13 44.67h10.82V120h-10.8z"/></clipPath><clipPath id="clip-path-17"><path class="cls-2" d="M170.44 86h-15.15a2.14 2.14 0 00-2.16 2.13v74.46a2.14 2.14 0 002.16 2.13h15.15a2.16 2.16 0 002.16-2.13v-74.5a2.15 2.15 0 00-2.16-2.09zm-13 74.46h10.83V90.22h-10.82z"/></clipPath><clipPath id="clip-path-19"><path class="cls-1" d="M51.54 174.27h22.43v7.89H51.54z"/></clipPath><clipPath id="clip-path-21"><path class="cls-2" d="M57.17 180.58a2.37 2.37 0 10-2.4-2.36 2.38 2.38 0 002.4 2.36z"/></clipPath><style>.cls-1,.cls-2{fill:none}.cls-2{clip-rule:evenodd}.cls-4{clip-path:url(#clip-path-2)}.cls-5{fill:#fff}</style></defs><g class="cls-4" clip-path="url(#clip-path)"><path class="cls-5" d="M49.95 41.8h24.03v42.58H49.95z"/></g><g clip-path="url(#clip-path-3)"><path d="M43.46 26.08h147.45v123.18H43.46z"/></g><g clip-path="url(#clip-path-5)"><path d="M42.89 128.7h17v20.5h-17z"/></g><g clip-path="url(#clip-path-7)"><path d="M45.16 167.97h136.18v20.5H45.16z"/></g><g clip-path="url(#clip-path-9)"><path d="M49.95 139.77h35.49v32.79H49.95z"/></g><g clip-path="url(#clip-path-11)"><path d="M73.74 133.39h35.49v39.17H73.74z"/></g><g clip-path="url(#clip-path-13)"><path d="M97.54 122.75h35.49v49.81H97.54z"/></g><g clip-path="url(#clip-path-15)"><path d="M121.33 107.86h35.49v64.7h-35.49z"/></g><g clip-path="url(#clip-path-17)"><path d="M145.13 78.08h35.49v94.48h-35.49z"/></g><g class="cls-4" clip-path="url(#clip-path-19)"><path class="cls-5" d="M43.54 166.39h38.45v23.66H43.54z"/></g><g clip-path="url(#clip-path-21)"><path d="M46.75 167.97h20.83v20.5H46.75z"/></g></svg>