<svg id="Layer_1" data-name="Layer 1" xmlns="http://www.w3.org/2000/svg" viewBox="0 0 233.78 216.13"><defs><clipPath id="clip-path"><path class="cls-1" d="M59.26 54.23h7.5v25.23h-7.5z"/></clipPath><clipPath id="clip-path-2"><path class="cls-1" d="M51.78 39.39H175.5v139.52H51.78z"/></clipPath><clipPath id="clip-path-3"><path class="cls-2" d="M166.66 40.68a2.28 2.28 0 00-3-1l-18.16 9a2.25 2.25 0 002 4l13.17-6.5-3.6 10.14A121 121 0 0153.17 136l.4 4.49A125.5 125.5 0 00161.34 57.8L165 47.44l6.67 13.22a2.3 2.3 0 003 1 2.25 2.25 0 001-3z"/></clipPath><clipPath id="clip-path-5"><path class="cls-2" d="M53.24 136c-.87 1.84-.76 3.33.33 4.45"/></clipPath><clipPath id="clip-path-7"><path class="cls-2" d="M57 173h107.8a2.23 2.23 0 110 4.45H57a2.23 2.23 0 110-4.45z"/></clipPath><clipPath id="clip-path-9"><path class="cls-2" d="M75.43 146.44H61.28a2 2 0 00-2 2v12a2 2 0 002 2h14.15a2 2 0 002-2v-12a2 2 0 00-2-2zm-12.12 12H73.4v-8H63.31z"/></clipPath><clipPath id="clip-path-11"><path class="cls-2" d="M97.67 140.43H83.52a2 2 0 00-2 2v18a2 2 0 002 2h14.15a2 2 0 002-2v-18a2 2 0 00-2-2zm-12.12 18h10.09v-14H85.55z"/></clipPath><clipPath id="clip-path-13"><path class="cls-2" d="M119.9 130.42h-14.15a2 2 0 00-2 2v28a2 2 0 002 2h14.15a2 2 0 002-2v-28a2 2 0 00-2-2zm-12.14 28h10.11v-24h-10.11z"/></clipPath><clipPath id="clip-path-15"><path class="cls-2" d="M142.14 116.41H128a2 2 0 00-2 2v42a2 2 0 002 2h14.15a2 2 0 002-2v-42a2 2 0 00-2.01-2zm-12.14 42h10.11v-38H130z"/></clipPath><clipPath id="clip-path-17"><path class="cls-2" d="M164.35 88.37H150.2a2 2 0 00-2 2v70.07a2 2 0 002 2h14.15a2 2 0 002-2V90.38a2 2 0 00-2-2.01zm-12.12 70.08h10.12V92.38h-10.12z"/></clipPath><clipPath id="clip-path-19"><path class="cls-1" d="M54.76 171.49h20.97v7.42H54.76z"/></clipPath><clipPath id="clip-path-21"><ellipse class="cls-1" cx="60.02" cy="175.2" rx="2.25" ry="2.23"/></clipPath><style>.cls-1,.cls-2{fill:none}.cls-2{clip-rule:evenodd}.cls-4{clip-path:url(#clip-path-2)}.cls-5{fill:#fff}.cls-7{fill:#3ba07a}.cls-10{fill:#16103e}</style></defs><g class="cls-4" clip-path="url(#clip-path)"><path class="cls-5" d="M51.78 46.81h22.46v40.07H51.78z"/></g><g class="cls-4" clip-path="url(#clip-path-3)"><path class="cls-7" d="M45.7 32.02h137.78v115.93H45.7z"/></g><g class="cls-4" clip-path="url(#clip-path-5)"><path class="cls-7" d="M45.17 128.6h15.89v19.3H45.17z"/></g><g class="cls-4" clip-path="url(#clip-path-7)"><path class="cls-10" d="M47.29 165.55h127.25v19.3H47.29z"/></g><g class="cls-4" clip-path="url(#clip-path-9)"><path class="cls-10" d="M51.78 139.02h33.16v30.86H51.78z"/></g><g class="cls-4" clip-path="url(#clip-path-11)"><path class="cls-10" d="M74.01 133.01h33.16v36.87H74.01z"/></g><g class="cls-4" clip-path="url(#clip-path-13)"><path class="cls-10" d="M96.25 123h33.16v46.88H96.25z"/></g><g class="cls-4" clip-path="url(#clip-path-15)"><path class="cls-10" d="M118.46 108.98h33.16v60.89h-33.16z"/></g><g class="cls-4" clip-path="url(#clip-path-17)"><path class="cls-10" d="M140.7 80.95h33.16v88.93H140.7z"/></g><g class="cls-4" clip-path="url(#clip-path-19)"><path class="cls-5" d="M47.29 164.07h35.93v22.26H47.29z"/></g><g class="cls-4" clip-path="url(#clip-path-21)"><path class="cls-10" d="M50.27 165.55h19.46v19.3H50.27z"/></g></svg>