<svg id="Layer_1" data-name="Layer 1" xmlns="http://www.w3.org/2000/svg" viewBox="0 0 233.78 216.13"><defs><clipPath id="clip-path"><path class="cls-1" d="M48.66 83.7h120.73a3.47 3.47 0 013.44 3.51V168a3.47 3.47 0 01-3.44 3.51H48.66a3.49 3.49 0 01-3.47-3.51V87.21a3.49 3.49 0 013.47-3.51z"/></clipPath><clipPath id="clip-path-2"><path class="cls-2" d="M41.75 39.03h156.96v133.4H41.75z"/></clipPath><clipPath id="clip-path-3"><path class="cls-2" d="M43.93 81.66h130.8v91.56H43.93z"/></clipPath><clipPath id="clip-path-4"><path class="cls-2" d="M45.19 83.7h127.64v87.77H45.19z"/></clipPath><clipPath id="clip-path-5"><path class="cls-1" d="M90 111.79h38a3.48 3.48 0 013.45 3.51V168a3.48 3.48 0 01-3.45 3.51H90a3.48 3.48 0 01-3.41-3.51v-52.7a3.48 3.48 0 013.41-3.51z"/></clipPath><clipPath id="clip-path-7"><path class="cls-2" d="M85.35 110h47.96v63.22H85.35z"/></clipPath><clipPath id="clip-path-8"><path class="cls-2" d="M86.59 111.79h44.85v59.68H86.59z"/></clipPath><clipPath id="clip-path-9"><path class="cls-1" d="M138.35 94.23h19a3.47 3.47 0 013.45 3.51v17.56a3.47 3.47 0 01-3.45 3.51h-19a3.47 3.47 0 01-3.45-3.51V97.74a3.47 3.47 0 013.45-3.51z"/></clipPath><clipPath id="clip-path-11"><path class="cls-2" d="M133.31 92.56h28.34v28.34h-28.34z"/></clipPath><clipPath id="clip-path-12"><path class="cls-2" d="M134.9 94.23h25.87v24.57H134.9z"/></clipPath><clipPath id="clip-path-13"><path class="cls-1" d="M62.46 94.23h19a3.48 3.48 0 013.44 3.51v17.56a3.48 3.48 0 01-3.44 3.51h-19A3.49 3.49 0 0159 115.3V97.74a3.49 3.49 0 013.46-3.51z"/></clipPath><clipPath id="clip-path-15"><path class="cls-2" d="M57.01 92.56h28.34v28.34H57.01z"/></clipPath><clipPath id="clip-path-16"><path class="cls-2" d="M58.99 94.23h26.35v24.57H58.99z"/></clipPath><clipPath id="clip-path-17"><path class="cls-1" d="M45.19 62.64h127.64a3.47 3.47 0 013.45 3.51V83.7a3.47 3.47 0 01-3.45 3.51H45.19a3.48 3.48 0 01-3.44-3.51V66.15a3.48 3.48 0 013.44-3.51z"/></clipPath><clipPath id="clip-path-19"><path class="cls-2" d="M41.75 62.04h135.16V88.2H41.75z"/></clipPath><clipPath id="clip-path-20"><path class="cls-2" d="M41.75 62.64h134.54v24.57H41.75z"/></clipPath><clipPath id="clip-path-22"><path class="cls-1" d="M173.92 166.2c12.82 0 23.22-11 23.22-24.57s-10.4-24.58-23.22-24.58-23.19 11-23.19 24.58 10.38 24.57 23.19 24.57z"/></clipPath><clipPath id="clip-path-24"><path class="cls-1" d="M184.52 131.68l-13.15 14-6.37-6.78a1.79 1.79 0 00-2.62 0 2 2 0 000 2.73l7.69 8.22a1.79 1.79 0 002.62 0l14.43-15.44a2 2 0 000-2.73 1.76 1.76 0 00-2.59 0"/></clipPath><clipPath id="clip-path-27"><path class="cls-2" d="M58.99 165.32h24.15v7.02H58.99z"/></clipPath><clipPath id="clip-path-29"><path class="cls-1" d="M65 171.47a2.64 2.64 0 10-2.57-2.64 2.62 2.62 0 002.57 2.64z"/></clipPath><style>.cls-1,.cls-2,.cls-8{fill:none}.cls-1{clip-rule:evenodd}.cls-4{clip-path:url(#clip-path-2)}.cls-8{stroke:#16103e;stroke-miterlimit:10;stroke-width:3.99px}.cls-23{fill:#fff}</style></defs><g clip-path="url(#clip-path)"><g clip-path="url(#clip-path-3)"><g clip-path="url(#clip-path-4)"><path class="cls-8" d="M48.64 83.7h120.74a3.48 3.48 0 013.45 3.51V168a3.48 3.48 0 01-3.45 3.51H48.64a3.48 3.48 0 01-3.45-3.51V87.21a3.48 3.48 0 013.45-3.51z"/></g></g></g><g clip-path="url(#clip-path-5)"><g clip-path="url(#clip-path-7)"><g clip-path="url(#clip-path-8)"><path class="cls-8" d="M90 111.79h38a3.48 3.48 0 013.45 3.51V168a3.48 3.48 0 01-3.45 3.51H90a3.48 3.48 0 01-3.41-3.51v-52.7a3.48 3.48 0 013.41-3.51z"/></g></g></g><g clip-path="url(#clip-path-9)"><g clip-path="url(#clip-path-11)"><g clip-path="url(#clip-path-12)"><path class="cls-8" d="M138.35 94.23h19a3.48 3.48 0 013.45 3.51v17.56a3.48 3.48 0 01-3.45 3.51h-19a3.48 3.48 0 01-3.45-3.51V97.74a3.48 3.48 0 013.45-3.51z"/></g></g></g><g clip-path="url(#clip-path-13)"><g clip-path="url(#clip-path-15)"><g clip-path="url(#clip-path-16)"><path class="cls-8" d="M62.44 94.23h19a3.48 3.48 0 013.45 3.51v17.56a3.48 3.48 0 01-3.45 3.51h-19A3.48 3.48 0 0159 115.3V97.74a3.48 3.48 0 013.44-3.51z"/></g></g></g><g clip-path="url(#clip-path-17)"><g clip-path="url(#clip-path-19)"><g clip-path="url(#clip-path-20)"><path class="cls-8" d="M45.2 62.64h127.64a3.48 3.48 0 013.45 3.51V83.7a3.48 3.48 0 01-3.45 3.51H45.2a3.48 3.48 0 01-3.45-3.51V66.15a3.48 3.48 0 013.45-3.51z"/></g></g></g><path stroke-linecap="round" stroke-linejoin="round" stroke-width="2" stroke="#16103e" fill="none" d="M45.2 64.39l17.53-22.82h92.56l17.54 22.82"/><g class="cls-4" clip-path="url(#clip-path-22)"><path class="cls-23" d="M142.1 108.28h63.66v66.7H142.1z"/></g><g clip-path="url(#clip-path-24)"><path fill="#3ba07a" d="M153.21 122.32h43.08v36.86h-43.08z"/></g><ellipse cx="174.76" cy="140.75" rx="19.06" ry="20.19" stroke="#3ba07a" stroke-width="1.6" stroke-miterlimit="10" fill="none"/><g class="cls-4" clip-path="url(#clip-path-27)"><path class="cls-23" d="M50.38 156.55h41.4v24.57h-41.4z"/></g><g clip-path="url(#clip-path-29)"><path fill="#16103e" d="M53.83 157.43h22.42v22.82H53.83z"/></g></svg>