<svg id="Layer_1" data-name="Layer 1" xmlns="http://www.w3.org/2000/svg" viewBox="0 0 233.78 216.13"><defs><clipPath id="clip-path"><path class="cls-1" d="M39.17 82.8h128a3.66 3.66 0 013.64 3.67v84.23a3.66 3.66 0 01-3.64 3.66h-128a3.66 3.66 0 01-3.66-3.66V86.47a3.66 3.66 0 013.66-3.67z"/></clipPath><clipPath id="clip-path-2"><path class="cls-2" d="M32.17 39.93h169.72v136.26H32.17z"/></clipPath><clipPath id="clip-path-3"><path class="cls-2" d="M34.02 82.45h137.34v93.74H34.02z"/></clipPath><clipPath id="clip-path-4"><path class="cls-2" d="M35.51 82.8h135.86v91.56H35.51z"/></clipPath><clipPath id="clip-path-5"><rect class="cls-2" x="81.26" y="112.1" width="45.71" height="62.26" rx="3.66"/></clipPath><clipPath id="clip-path-7"><path class="cls-2" d="M79.8 110.79h47.96v65.4H79.8z"/></clipPath><clipPath id="clip-path-8"><path class="cls-2" d="M81.22 112.1h46.55v62.26H81.22z"/></clipPath><clipPath id="clip-path-9"><path class="cls-1" d="M134.28 97.45h20.12a3.68 3.68 0 013.67 3.67v18.31a3.68 3.68 0 01-3.67 3.66h-20.12a3.67 3.67 0 01-3.66-3.66v-18.31a3.68 3.68 0 013.66-3.67z"/></clipPath><clipPath id="clip-path-11"><path class="cls-2" d="M129.94 95.53h28.34v28.34h-28.34z"/></clipPath><clipPath id="clip-path-12"><path class="cls-2" d="M130.58 97.45h27.71v25.64h-27.71z"/></clipPath><clipPath id="clip-path-13"><rect class="cls-2" x="50.18" y="97.45" width="27.42" height="25.64" rx="3.66"/></clipPath><clipPath id="clip-path-15"><path class="cls-2" d="M49.28 95.53h28.34v28.34H49.28z"/></clipPath><clipPath id="clip-path-16"><path class="cls-2" d="M50.13 97.45h27.5v25.64h-27.5z"/></clipPath><clipPath id="clip-path-17"><path class="cls-1" d="M35.55 64.49h135.31a3.65 3.65 0 013.64 3.66V82.8a3.65 3.65 0 01-3.64 3.67H35.55a3.67 3.67 0 01-3.66-3.67V68.15a3.67 3.67 0 013.66-3.66z"/></clipPath><clipPath id="clip-path-19"><path class="cls-2" d="M31.84 62.83h143.88v23.98H31.84z"/></clipPath><clipPath id="clip-path-20"><path class="cls-2" d="M31.84 64.49h143.88v21.97H31.84z"/></clipPath><clipPath id="clip-path-22"><path class="cls-2" d="M51.05 168.87h25.59v7.32H51.05z"/></clipPath><clipPath id="clip-path-24"><circle class="cls-2" cx="57.44" cy="172.53" r="2.75"/></clipPath><clipPath id="clip-path-26"><path class="cls-1" d="M176 167a25.64 25.64 0 10-25.3-25.6A25.46 25.46 0 00176 167z"/></clipPath><style>.cls-1,.cls-2,.cls-8{fill:none}.cls-1{clip-rule:evenodd}.cls-4{clip-path:url(#clip-path-2)}.cls-8{stroke:#000;stroke-miterlimit:10;stroke-width:4.2px}.cls-23{fill:#fff}</style></defs><g clip-path="url(#clip-path)"><g clip-path="url(#clip-path-3)"><g clip-path="url(#clip-path-4)"><path class="cls-8" d="M39.16 82.8h128a3.66 3.66 0 013.66 3.67v84.23a3.66 3.66 0 01-3.66 3.66h-128a3.65 3.65 0 01-3.65-3.66V86.47a3.66 3.66 0 013.65-3.67z"/></g></g></g><g clip-path="url(#clip-path-5)"><g clip-path="url(#clip-path-7)"><g clip-path="url(#clip-path-8)"><path class="cls-8" d="M84.92 112.1h38.4a3.66 3.66 0 013.65 3.67v54.93a3.65 3.65 0 01-3.65 3.66h-38.4a3.66 3.66 0 01-3.66-3.66v-54.93a3.66 3.66 0 013.66-3.67z"/></g></g></g><g clip-path="url(#clip-path-9)"><g clip-path="url(#clip-path-11)"><g clip-path="url(#clip-path-12)"><path class="cls-8" d="M134.28 97.45h20.11a3.66 3.66 0 013.66 3.67v18.31a3.66 3.66 0 01-3.66 3.66h-20.11a3.66 3.66 0 01-3.66-3.66v-18.31a3.66 3.66 0 013.66-3.67z"/></g></g></g><g clip-path="url(#clip-path-13)"><g clip-path="url(#clip-path-15)"><g clip-path="url(#clip-path-16)"><path class="cls-8" d="M53.83 97.45H74a3.66 3.66 0 013.65 3.67v18.31a3.65 3.65 0 01-3.65 3.66H53.83a3.65 3.65 0 01-3.65-3.66v-18.31a3.66 3.66 0 013.65-3.67z"/></g></g></g><g clip-path="url(#clip-path-17)"><g clip-path="url(#clip-path-19)"><g clip-path="url(#clip-path-20)"><path class="cls-8" d="M35.54 64.49h135.3a3.66 3.66 0 013.66 3.66V82.8a3.66 3.66 0 01-3.66 3.67H35.54a3.66 3.66 0 01-3.65-3.67V68.15a3.65 3.65 0 013.65-3.66z"/></g></g></g><path stroke-linejoin="round" stroke-width="2.1" stroke-linecap="round" stroke="#000" fill="none" d="M35.55 66.32l18.59-23.8h98.12l18.59 23.8"/><g class="cls-4" clip-path="url(#clip-path-22)"><path class="cls-23" d="M41.89 159.71h43.88v25.64H41.89z"/></g><g clip-path="url(#clip-path-24)"><path d="M45.56 160.63h23.77v23.81H45.56z"/></g><g class="cls-4" clip-path="url(#clip-path-26)"><path class="cls-23" d="M141.54 106.61h68.9v69.59h-68.9z"/></g><g class="cls-4" stroke-width="1.68" stroke-miterlimit="10" stroke="#000" fill="none"><ellipse cx="177.03" cy="141.4" rx="21.69" ry="21.97"/><path stroke-linecap="round" d="M165.67 141.05l8.27 7.68 13.79-12.82"/></g></svg>