<svg id="Layer_1" data-name="Layer 1" xmlns="http://www.w3.org/2000/svg" viewBox="0 0 233.78 216.13"><defs><clipPath id="clip-path"><path class="cls-1" d="M27.25 16.37h179.94v177.61H27.25z"/></clipPath><clipPath id="clip-path-2"><path class="cls-2" d="M64.88 88.83h100.61a2.88 2.88 0 012.88 2.89v66.42a2.88 2.88 0 01-2.88 2.88H64.88a2.88 2.88 0 01-2.88-2.88V91.72a2.88 2.88 0 012.88-2.89z"/></clipPath><clipPath id="clip-path-3"><path class="cls-1" d="M59.17 51.29h130.75v111.18H59.17z"/></clipPath><clipPath id="clip-path-4"><path class="cls-1" d="M61.31 88.35h109v74.12h-109z"/></clipPath><clipPath id="clip-path-5"><path class="cls-1" d="M62 88.83h106.36v72.19H62z"/></clipPath><clipPath id="clip-path-6"><path class="cls-2" d="M99.37 111.93H131a2.88 2.88 0 012.88 2.89v43.32A2.88 2.88 0 01131 161H99.37a2.88 2.88 0 01-2.88-2.88v-43.3a2.88 2.88 0 012.88-2.89z"/></clipPath><clipPath id="clip-path-8"><path class="cls-1" d="M96.19 110.15h39.24v52.32H96.19z"/></clipPath><clipPath id="clip-path-9"><path class="cls-1" d="M96.49 111.93h37.37v49.09H96.49z"/></clipPath><clipPath id="clip-path-10"><path class="cls-2" d="M139.61 97.49h15.83a2.9 2.9 0 012.88 2.89v14.44a2.9 2.9 0 01-2.88 2.89h-15.83a2.88 2.88 0 01-2.88-2.89v-14.44a2.89 2.89 0 012.88-2.89z"/></clipPath><clipPath id="clip-path-12"><path class="cls-1" d="M135.43 97.07h23.98v21.8h-23.98z"/></clipPath><clipPath id="clip-path-13"><path class="cls-1" d="M136.73 97.49h21.56v20.21h-21.56z"/></clipPath><clipPath id="clip-path-14"><path class="cls-2" d="M76.37 97.49h15.8a2.88 2.88 0 012.88 2.89v14.44a2.88 2.88 0 01-2.88 2.89h-15.8a2.88 2.88 0 01-2.88-2.89v-14.44a2.89 2.89 0 012.88-2.89z"/></clipPath><clipPath id="clip-path-16"><path class="cls-1" d="M72.21 97.07h23.98v21.8H72.21z"/></clipPath><clipPath id="clip-path-17"><path class="cls-1" d="M73.49 97.49h22.69v20.21H73.49z"/></clipPath><clipPath id="clip-path-18"><path class="cls-2" d="M62 71.5h106.37a2.88 2.88 0 012.87 2.89v14.44a2.88 2.88 0 01-2.87 2.89H62a2.88 2.88 0 01-2.87-2.89V74.39A2.88 2.88 0 0162 71.5z"/></clipPath><clipPath id="clip-path-20"><path class="cls-1" d="M59.13 70.91h113.36v21.8H59.13z"/></clipPath><clipPath id="clip-path-21"><path class="cls-1" d="M59.13 71.5h112.11v20.21H59.13z"/></clipPath><clipPath id="clip-path-23"><ellipse class="cls-1" cx="169.28" cy="136.48" rx="19.34" ry="20.22"/></clipPath><clipPath id="clip-path-25"><path class="cls-2" d="M178.09 128.29l-11 11.55-5.29-5.61a1.5 1.5 0 00-2.18 0 1.62 1.62 0 000 2.24l6.4 6.77a1.5 1.5 0 002.18 0l12-12.7a1.63 1.63 0 000-2.25 1.5 1.5 0 00-2.18 0"/></clipPath><clipPath id="clip-path-28"><path class="cls-1" d="M73.49 156.69h20.12v5.77H73.49z"/></clipPath><clipPath id="clip-path-30"><path class="cls-2" d="M78.53 161.75a2.17 2.17 0 10-2.16-2.17 2.16 2.16 0 002.16 2.17z"/></clipPath><style>.cls-1,.cls-10,.cls-2{fill:none}.cls-2{clip-rule:evenodd}.cls-4{fill:#16103e}.cls-6{clip-path:url(#clip-path-3)}.cls-10{stroke:#fff;stroke-miterlimit:10;stroke-width:3.3px}</style></defs><g clip-path="url(#clip-path)"><path class="cls-4" d="M29.43 18.55h175.58V191.8H29.43z"/></g><g clip-path="url(#clip-path-2)"><g clip-path="url(#clip-path-4)"><g clip-path="url(#clip-path-5)"><path class="cls-10" d="M64.88 88.83h100.61a2.88 2.88 0 012.88 2.89v66.42a2.88 2.88 0 01-2.88 2.88H64.88a2.88 2.88 0 01-2.88-2.88V91.72a2.88 2.88 0 012.88-2.89z"/></g></g></g><g clip-path="url(#clip-path-6)"><g clip-path="url(#clip-path-8)"><g clip-path="url(#clip-path-9)"><path class="cls-10" d="M99.37 111.93H131a2.87 2.87 0 012.87 2.89v43.32A2.87 2.87 0 01131 161H99.37a2.88 2.88 0 01-2.88-2.88v-43.3a2.88 2.88 0 012.88-2.89z"/></g></g></g><g clip-path="url(#clip-path-10)"><g clip-path="url(#clip-path-12)"><g clip-path="url(#clip-path-13)"><path class="cls-10" d="M139.61 97.49h15.81a2.88 2.88 0 012.87 2.89v14.44a2.88 2.88 0 01-2.87 2.89h-15.81a2.89 2.89 0 01-2.88-2.89v-14.44a2.89 2.89 0 012.88-2.89z"/></g></g></g><g clip-path="url(#clip-path-14)"><g clip-path="url(#clip-path-16)"><g clip-path="url(#clip-path-17)"><path class="cls-10" d="M76.37 97.49h15.81a2.88 2.88 0 012.87 2.89v14.44a2.88 2.88 0 01-2.87 2.89H76.37a2.89 2.89 0 01-2.88-2.89v-14.44a2.89 2.89 0 012.88-2.89z"/></g></g></g><g clip-path="url(#clip-path-18)"><g clip-path="url(#clip-path-20)"><g clip-path="url(#clip-path-21)"><path class="cls-10" d="M62 71.5h106.37a2.89 2.89 0 012.87 2.89v14.44a2.89 2.89 0 01-2.87 2.89H62a2.88 2.88 0 01-2.87-2.89V74.39A2.88 2.88 0 0162 71.5z"/></g></g></g><path stroke-linecap="round" stroke-linejoin="round" stroke-width="1.65" stroke="#fff" fill="none" d="M62 72.95l14.62-18.77h77.13l14.62 18.77"/><g class="cls-6" clip-path="url(#clip-path-23)"><path class="cls-4" d="M142.75 109.04h53.05v54.87h-53.05z"/></g><g clip-path="url(#clip-path-25)"><path fill="#3ba07a" d="M152.02 120.59h35.9v30.32h-35.9z"/></g><ellipse cx="169.97" cy="135.76" rx="15.89" ry="16.6" stroke="#3ba07a" stroke-width="1.32" stroke-miterlimit="10" fill="none"/><g class="cls-6" clip-path="url(#clip-path-28)"><path class="cls-4" d="M66.32 149.47h34.5v20.21h-34.5z"/></g><g clip-path="url(#clip-path-30)"><path fill="#fff" d="M69.2 150.2h18.69v18.77H69.2z"/></g></svg>