<svg id="Layer_1" data-name="Layer 1" xmlns="http://www.w3.org/2000/svg" viewBox="0 0 233.78 216.13"><defs><clipPath id="clip-path"><path class="cls-1" d="M39 93h114a3.27 3.27 0 013.25 3.28v75.54a3.27 3.27 0 01-3.25 3.28H39a3.27 3.27 0 01-3.24-3.28V96.27A3.27 3.27 0 0139 93z"/></clipPath><clipPath id="clip-path-2"><path class="cls-2" d="M32.43 50.9h147.75v125.59H32.43z"/></clipPath><clipPath id="clip-path-3"><path class="cls-2" d="M34.61 91.71h122.08v85.02H34.61z"/></clipPath><clipPath id="clip-path-4"><path class="cls-2" d="M35.7 92.99h121v82.1h-121z"/></clipPath><clipPath id="clip-path-5"><path class="cls-1" d="M78.08 119.26h35.84a3.27 3.27 0 013.27 3.28v49.27a3.27 3.27 0 01-3.27 3.28H78.08a3.27 3.27 0 01-3.25-3.28v-49.27a3.27 3.27 0 013.25-3.28z"/></clipPath><clipPath id="clip-path-7"><path class="cls-2" d="M73.85 117.87h43.6v58.86h-43.6z"/></clipPath><clipPath id="clip-path-8"><path class="cls-2" d="M74.79 119.26h42.66v55.83H74.79z"/></clipPath><clipPath id="clip-path-9"><path class="cls-1" d="M123.71 102.84h17.92a3.27 3.27 0 013.25 3.28v16.42a3.27 3.27 0 01-3.25 3.29h-17.92a3.28 3.28 0 01-3.27-3.29v-16.42a3.27 3.27 0 013.27-3.28z"/></clipPath><clipPath id="clip-path-11"><path class="cls-2" d="M119.63 102.61h26.16v23.98h-26.16z"/></clipPath><clipPath id="clip-path-12"><path class="cls-2" d="M120.39 102.84h25.39v22.99h-25.39z"/></clipPath><clipPath id="clip-path-13"><path class="cls-1" d="M52 102.84h18a3.27 3.27 0 013.25 3.28v16.42a3.27 3.27 0 01-3.25 3.29H52a3.28 3.28 0 01-3.27-3.29v-16.42a3.27 3.27 0 013.27-3.28z"/></clipPath><clipPath id="clip-path-15"><path class="cls-2" d="M47.69 102.61h26.16v23.98H47.69z"/></clipPath><clipPath id="clip-path-16"><path class="cls-2" d="M48.72 102.84h25.13v22.99H48.72z"/></clipPath><clipPath id="clip-path-17"><path class="cls-1" d="M35.75 73.28h120.53a3.28 3.28 0 013.27 3.29V93a3.27 3.27 0 01-3.27 3.28H35.75A3.27 3.27 0 0132.48 93V76.57a3.28 3.28 0 013.27-3.29z"/></clipPath><clipPath id="clip-path-19"><path class="cls-2" d="M32.43 72.09h128.62v26.16H32.43z"/></clipPath><clipPath id="clip-path-20"><path class="cls-2" d="M32.43 73.28h128.62v22.99H32.43z"/></clipPath><clipPath id="clip-path-22"><path class="cls-1" d="M157.32 170.16c12.1 0 21.91-10.29 21.91-23s-9.81-23-21.91-23-21.93 10.29-21.93 23 9.81 23 21.93 23z"/></clipPath><clipPath id="clip-path-24"><path class="cls-1" d="M167.31 137.87L154.9 151l-6-6.38a1.72 1.72 0 00-2.47 0 1.86 1.86 0 000 2.56l7.26 7.69a1.69 1.69 0 002.46 0l13.64-14.45a1.85 1.85 0 000-2.55 1.69 1.69 0 00-2.46 0"/></clipPath><clipPath id="clip-path-27"><path class="cls-2" d="M48.72 170.16h22.8v6.57h-22.8z"/></clipPath><clipPath id="clip-path-29"><path class="cls-1" d="M54.43 175.91a2.46 2.46 0 10-2.43-2.46 2.45 2.45 0 002.43 2.46z"/></clipPath><style>.cls-1,.cls-2,.cls-8{fill:none}.cls-1{clip-rule:evenodd}.cls-4{clip-path:url(#clip-path-2)}.cls-8{stroke:#3ba07a;stroke-miterlimit:10;stroke-width:3.75px}.cls-23{fill:#fff}.cls-25{fill:#3ba07a}</style></defs><g clip-path="url(#clip-path)"><g clip-path="url(#clip-path-3)"><g clip-path="url(#clip-path-4)"><path class="cls-8" d="M39 93h114a3.27 3.27 0 013.26 3.28v75.54a3.27 3.27 0 01-3.26 3.28H39a3.26 3.26 0 01-3.25-3.28V96.27A3.26 3.26 0 0139 93z"/></g></g></g><g clip-path="url(#clip-path-5)"><g clip-path="url(#clip-path-7)"><g clip-path="url(#clip-path-8)"><path class="cls-8" d="M78.09 119.26h35.84a3.27 3.27 0 013.26 3.28v49.27a3.27 3.27 0 01-3.26 3.28H78.09a3.27 3.27 0 01-3.26-3.28v-49.27a3.27 3.27 0 013.26-3.28z"/></g></g></g><g clip-path="url(#clip-path-9)"><g clip-path="url(#clip-path-11)"><g clip-path="url(#clip-path-12)"><path class="cls-8" d="M123.7 102.84h17.92a3.27 3.27 0 013.25 3.28v16.42a3.27 3.27 0 01-3.25 3.29H123.7a3.27 3.27 0 01-3.26-3.29v-16.42a3.27 3.27 0 013.26-3.28z"/></g></g></g><g clip-path="url(#clip-path-13)"><g clip-path="url(#clip-path-15)"><g clip-path="url(#clip-path-16)"><path class="cls-8" d="M52 102.84h17.94a3.26 3.26 0 013.25 3.28v16.42a3.27 3.27 0 01-3.25 3.29H52a3.27 3.27 0 01-3.26-3.29v-16.42a3.27 3.27 0 013.26-3.28z"/></g></g></g><g clip-path="url(#clip-path-17)"><g clip-path="url(#clip-path-19)"><g clip-path="url(#clip-path-20)"><path class="cls-8" d="M35.73 73.28h120.55a3.27 3.27 0 013.26 3.29V93a3.27 3.27 0 01-3.26 3.28H35.73A3.26 3.26 0 0132.48 93V76.57a3.27 3.27 0 013.25-3.29z"/></g></g></g><path stroke-linecap="round" stroke-linejoin="round" stroke-width="1.88" stroke="#3ba07a" fill="none" d="M35.74 74.92l16.57-21.34h87.42l16.56 21.34"/><g class="cls-4" clip-path="url(#clip-path-22)"><path class="cls-23" d="M127.24 115.98h60.13v62.4h-60.13z"/></g><g class="cls-4" clip-path="url(#clip-path-24)"><path class="cls-25" d="M137.75 129.11h40.69v34.48h-40.69z"/></g><path d="M158.08 165.24c9.95 0 18-8.46 18-18.88s-8.06-18.89-18-18.89-18 8.46-18 18.89 8.06 18.88 18 18.88z" stroke-width="1.5" stroke-miterlimit="10" stroke="#3ba07a" fill="none"/><g class="cls-4" clip-path="url(#clip-path-27)"><path class="cls-23" d="M40.59 161.95h39.1v22.99h-39.1z"/></g><g class="cls-4" clip-path="url(#clip-path-29)"><path class="cls-25" d="M43.83 162.78h21.18v21.35H43.83z"/></g></svg>