<svg width="36" height="36" xmlns="http://www.w3.org/2000/svg"><path d="M20.5 10.97c-1.571.572-2.564 2.046-2.451 3.66l.037.623-.628-.076c-2.288-.292-4.287-1.283-5.985-2.949l-.83-.826-.213.61c-.453 1.36-.163 2.797.78 3.763.502.534.389.61-.478.292-.302-.102-.566-.178-.591-.14-.088.09.213 1.246.452 1.703.327.636.993 1.259 1.723 1.628l.616.292-.73.012c-.703 0-.728.013-.653.28.252.827 1.245 1.704 2.351 2.086l.78.266-.679.407a7.058 7.058 0 01-3.37.94c-.566.013-1.031.064-1.031.102 0 .127 1.534.838 2.426 1.118 2.678.827 5.86.47 8.248-.94 1.697-1.004 3.394-3 4.187-4.933.428-1.03.855-2.91.855-3.812 0-.585.038-.662.741-1.36.416-.407.805-.852.88-.98.127-.241.113-.241-.527-.025-1.069.382-1.22.33-.692-.241.39-.407.855-1.144.855-1.36 0-.038-.188.025-.402.14-.226.127-.73.317-1.107.431l-.678.217-.616-.42c-.34-.229-.817-.483-1.069-.56-.641-.177-1.622-.152-2.2.052zM18 36C8.06 36 0 27.941 0 18S8.06 0 18 0s18 8.059 18 18-8.06 18-18 18z" fill="#FFF" fill-rule="evenodd"/></svg>