<svg width="59" height="40" xmlns="http://www.w3.org/2000/svg"><defs><linearGradient x1="66.222%" y1="100%" x2="2.786%" y2="25.204%" id="a"><stop stop-color="#26634B" offset="0%"/><stop stop-color="#066058" offset="100%"/></linearGradient></defs><g fill="none" fill-rule="evenodd"><path d="M19.856 25.98c-.33.173-.578.26-.909.432.165.345.33.603.496.948.33-.172.66-.345.908-.517-.165-.259-.33-.604-.495-.862M2.503 17.074l-2.36-1.807s2.217-3.406 6.15-3.059c0 0 3.362.14 4.434 2.78 0 0 1.145 3.545-1.501 5.839 0 0-4.291 3.614-5.936 4.518l2.002-.834h5.936v2.85H0V24.65l6.222-4.866c1.287-1.042 2.288-3.127.715-4.378-.429-.348-.93-.487-1.573-.348-1.216.209-2.289 1.32-2.86 2.016m28.448-2.191v-2.7h10.164v2.423l-3.811 3.668s3.176.346 3.953 3.253c.847 3.323-2.118 6.091-5.647 5.814 0 0-3.036.139-5.436-2.63l2.118-2.007s1.553 2.007 3.812 1.73c0 0 1.976 0 2.047-1.73.14-2.215-2.612-2.353-4.306-2.146l-.494-2.007 4.87-4.776-1.906 1.108h-5.364zm19.223-2.7c4.428 0 8.07 3.388 8.07 7.589 0 4.2-3.642 7.588-8.07 7.588-4.427 0-8.07-3.387-8.07-7.588.072-4.2 3.643-7.589 8.07-7.589" fill="#FFF" fill-rule="nonzero"/><path d="M50.175 15.097c2.571 0 4.643 2.1 4.643 4.675 0 2.575-2.072 4.675-4.643 4.675-2.57 0-4.642-2.1-4.642-4.675 0-2.575 2.143-4.675 4.642-4.675" fill="url(#a)"/><path d="M21.754 13.563c.264-.243.439-.406.702-.65-.263-.243-.438-.486-.702-.73-.263.244-.526.487-.701.73l.701.65m0-2.759l.702-.633c-.255-.23-.446-.517-.702-.747-.255.23-.51.46-.701.747l.701.633m.591 1.379c.296-.207.517-.345.813-.551-.222-.276-.37-.552-.591-.828-.296.207-.591.414-.813.62.148.277.37.552.591.76m1.715 2.759c-.05-.173-.15-.345-.2-.518.15-.057.35-.115.5-.172.051.172.151.345.201.575-.15 0-.35.057-.5.115m-.611.69a1.91 1.91 0 00-.292-.44c.175-.062.292-.187.468-.25.117.188.175.313.234.502-.117.062-.293.125-.41.188m.203-1.38c-.165-.259-.33-.604-.495-.862.33-.173.578-.345.908-.518.165.345.33.69.495.949-.33.172-.578.345-.908.431m-1.285 0c-.175-.148-.438-.246-.614-.394l.79-.296c.175.148.35.296.614.444a4.855 4.855 0 01-.79.246m-1.906-1.38c.221-.218.369-.508.59-.726-.295-.218-.516-.436-.812-.653-.222.29-.37.58-.59.871.295.145.59.363.812.508m1.292 13.797l.702.65c-.263.243-.438.487-.702.73-.263-.243-.526-.487-.701-.73a2.58 2.58 0 01.701-.65m0 2.07l.702.632c-.255.23-.446.518-.702.748-.255-.23-.51-.46-.701-.748.255-.23.446-.46.701-.632" fill="#FFF" fill-rule="nonzero"/><path d="M22.345 27.36c.296.207.517.345.813.552-.222.276-.37.552-.591.828-.296-.207-.591-.414-.813-.62.148-.277.37-.484.591-.76m-1.883 0c.221.218.369.509.59.727-.295.217-.516.435-.812.653-.222-.29-.37-.58-.59-.871.295-.146.59-.29.812-.509m4.952-13.107c.2-.053.35-.053.55-.053 0-.212-.05-.425-.1-.637-.2.053-.4.053-.6.106.1.213.1.425.15.584m1.474-1.38c.37-.072.739-.145 1.182-.145 0-.436-.074-.799-.148-1.234a7.84 7.84 0 00-1.255.29c.074.29.147.726.221 1.09m-.034 1.379h1.216v-.69c-.468 0-.935 0-1.403.05.093.197.187.394.187.64m-.187 1.794c0-.368.054-.736.054-1.104.216 0 .431.092.647.184-.054.368-.054.736-.108 1.196-.161-.092-.377-.184-.593-.276m-1.34-.529c0-.173-.064-.403-.064-.575.255 0 .447 0 .702.057v.633c-.255-.115-.447-.115-.638-.115m-.574.748c-.064-.192-.128-.32-.192-.513.192-.064.383-.064.575-.064.063.192.063.385.127.577-.127-.064-.319-.064-.51 0m.139-2.703c.33-.081.66-.162 1.073-.243a5.9 5.9 0 00-.33-1.137c-.33.163-.743.244-1.074.406.083.244.248.568.33.974M17.444 25.29c.05.213.05.372.1.584-.2.054-.401.107-.602.107-.05-.213-.05-.425-.1-.637.25 0 .401 0 .602-.053m.036-1.265c0 .172.064.402.064.575-.255 0-.447 0-.702-.058v-.632c.191.058.447.058.638.115m-.86 2.644l.222 1.09a7.84 7.84 0 01-1.256.29c-.074-.435-.074-.799-.147-1.234.369 0 .812-.073 1.181-.146m1.915 0c.082.307.247.614.412.997-.33.153-.743.23-1.073.383-.082-.383-.248-.69-.33-1.073.33-.077.66-.153.99-.307m2.566-1.38c-.281.1-.562.149-.75.247l.562.444.842-.296c-.187-.148-.467-.296-.655-.394m-1.018-.691c-.162.064-.27.126-.432.19.054.187.162.313.27.5.162-.062.324-.187.432-.25-.108-.188-.162-.314-.27-.44m-1.368 0c-.14.058-.327.116-.467.116.046.172.14.402.187.575a2.04 2.04 0 00.514-.23c-.093-.115-.14-.288-.234-.46m.043-.634h-.51c0 .193.063.385.127.578.192 0 .383-.065.574-.065-.063-.192-.127-.32-.191-.513m-2.662 1.323c0 .198 0 .444.046.641-.234.05-.467.05-.701.05v-.69h.655m11.976-7.416c.263.172.614.345.877.517.176-.345.351-.603.527-.948-.351-.173-.614-.345-.965-.432-.176.345-.351.604-.439.863m-3.451-.988c.195.063.326.063.522.125 0-.188.065-.376.065-.564-.196-.063-.392-.063-.587-.125v.564m2.048.603c.162.053.324.16.54.212.053-.159.107-.371.161-.53-.216-.053-.377-.106-.593-.16-.054.16-.054.319-.108.478m2.807-.227c.305.126.549.314.854.44l.55-.941c-.306-.126-.611-.314-.977-.44-.122.314-.305.628-.427.941" fill="#FFF" fill-rule="nonzero"/><path d="M28.772 18.501c.28.218.491.363.772.581.21-.29.42-.508.631-.799-.28-.218-.561-.363-.842-.58-.21.29-.42.58-.561.798m-.702-1.871c.33.076.66.23.99.382a4.21 4.21 0 00.414-1.073c-.33-.076-.743-.23-1.156-.306-.083.383-.165.69-.248.996m-12.631 5.04c-.176.259-.264.604-.439.862-.35-.172-.614-.258-.965-.43.176-.346.351-.604.526-.95.264.26.614.432.878.518m1.403-2.242c-.127.099-.255.197-.319.345a2.419 2.419 0 01-.383-.345c.128-.099.256-.246.383-.345.064.099.192.246.32.345" fill="#FFF" fill-rule="nonzero"/><path d="M15.439 21.065c-.108.26-.216.518-.27.776-.162-.172-.324-.344-.432-.603.108-.259.216-.518.378-.776.054.258.162.43.324.603m-2.106 1.278c-.122.314-.305.565-.427.878-.305-.125-.671-.25-.976-.439l.549-.94c.305.188.55.313.854.501m1.404 1.261c-.078.307-.234.69-.312.997a5.82 5.82 0 01-1.092-.307c.156-.383.234-.69.39-1.073.39.153.702.23 1.014.383m2.749-.947c-.195-.063-.326-.063-.521-.126 0 .188-.066.377-.066.565.196.062.392.062.587.125a.839.839 0 010-.564m-1.346.712c-.216-.05-.431-.099-.593-.148-.054.197-.054.394-.108.591.216.05.431.05.701.099-.054-.197 0-.394 0-.542m0-1.315c-.162-.053-.378-.16-.54-.213-.053.16-.107.372-.161.531.216.053.377.106.593.16 0-.107.054-.32.108-.478m.702-.637c-.127-.106-.319-.16-.446-.265-.064.159-.192.265-.256.424.192.106.32.16.51.265.065-.106.128-.265.192-.424m-2.807-.374c-.148.29-.37.508-.517.798-.295-.145-.59-.363-.886-.58.221-.29.443-.581.664-.8.148.219.444.364.74.582m14.034.626c.176.259.263.604.439.862.35-.172.614-.258.965-.43-.176-.346-.351-.604-.527-.95-.35.26-.614.346-.877.518m-.702-2.501c.108.173.27.345.378.604l.324-.776c-.162-.173-.27-.345-.432-.604-.054.259-.162.518-.27.776m-.701.259c.127.099.255.197.319.345.127-.099.255-.197.382-.345a2.419 2.419 0 01-.382-.345 1.572 1.572 0 01-.32.345m1.404.345c.248.23.413.46.66.69l.744-.69-.743-.69c-.165.23-.413.46-.66.69m-.703 1.293c.108.26.216.518.27.776.162-.172.324-.344.432-.603-.108-.259-.216-.518-.378-.776-.054.258-.216.43-.324.603m2.106 1.278c.122.314.305.565.427.878.305-.125.671-.25.976-.439l-.549-.94c-.305.188-.55.376-.854.501m-3.484-4.181c.13.058.326.173.456.23a3.68 3.68 0 01.196-.46c-.196-.057-.326-.172-.522-.23 0 .115-.065.288-.13.46" fill="#FFF" fill-rule="nonzero"/><path d="M28.772 22.915c.078.306.234.613.312.996a5.82 5.82 0 001.091-.307c-.156-.383-.233-.69-.39-1.073-.39.154-.701.307-1.013.384m0-1.872c.222.29.37.508.517.798.295-.145.591-.363.886-.58-.221-.29-.443-.509-.664-.8-.222.219-.444.436-.74.582m-13.332-3.168c-.264.172-.614.345-.878.517-.175-.259-.35-.603-.526-.948.351-.173.614-.345.965-.432.175.26.35.518.439.863m-2.106-.675c-.305.126-.549.314-.854.502l-.55-.94a4.66 4.66 0 01.977-.44c.122.314.305.628.427.879m.702 1.3c-.28.218-.491.363-.772.581-.21-.29-.42-.508-.631-.799.28-.218.561-.435.842-.58.21.217.35.508.561.798m1.404 1.271c-.248-.23-.413-.46-.66-.69l-.744.69.743.69c.248-.23.413-.46.66-.69" fill="#FFF" fill-rule="nonzero"/><path d="M15.439 19.168c-.108-.258-.216-.517-.27-.776-.162.173-.324.345-.432.604.108.258.216.517.378.776.108-.173.216-.345.324-.604m-.702-2.538c-.33.076-.66.23-.99.382a4.23 4.23 0 01-.414-1.073c.33-.076.743-.23 1.156-.306.083.306.165.69.248.996m10.634 8.661c-.054.213-.054.372-.108.584.216.054.432.107.648.107.054-.213.054-.425.054-.637-.162 0-.378 0-.594-.053m1.296-3.237c.058.159.058.318.117.477.175-.053.409-.106.584-.159-.058-.16-.117-.371-.175-.53-.175.053-.35.106-.526.212m-1.347.666v.501c.196-.063.392-.063.588-.125 0-.188-.066-.377-.066-.565-.13.126-.326.126-.521.188m1.346.778c0 .368.054.736.054 1.104.216-.092.431-.092.647-.184-.054-.368-.054-.736-.108-1.196-.215.092-.377.184-.593.276m-1.34.529c0 .172 0 .402-.064.575.255 0 .447 0 .702-.058v-.632a2.052 2.052 0 01-.638.115m1.561 2.644l-.221 1.09c.443.072.812.218 1.255.29.074-.435.074-.799.148-1.234-.443-.073-.812-.073-1.182-.146m-.923-5.253c.064.16.128.265.191.424.192-.053.32-.159.51-.265-.063-.16-.19-.265-.255-.424a1.977 1.977 0 01-.446.265m-1.073 5.253c-.083.307-.248.614-.33.997.33.153.742.23 1.073.383.082-.383.247-.69.33-1.073-.413-.153-.743-.23-1.073-.307m-2.81-1.38c.14.1.28.149.374.247l-.28.444-.422-.296c.14-.148.234-.296.328-.394m.608-.691c.175.064.292.126.468.19-.059.187-.176.313-.234.5-.175-.062-.35-.125-.468-.25.059-.126.176-.25.234-.44m.963 1.38c.33.093.578.139.908.185-.165.184-.33.368-.495.505-.33-.091-.66-.183-.908-.275l.495-.414m.441-1.381c.14.058.327.116.467.116-.046.172-.093.402-.187.575-.187-.058-.327-.115-.514-.173.093-.172.187-.345.234-.517m-2.717-.001c.107.126.215.252.377.314a2.528 2.528 0 01-.377.377l-.324-.377c.108-.062.216-.188.324-.313m3.376-.634h.51c0 .193-.064.385-.127.578-.192 0-.383-.065-.575-.065.064-.128.128-.32.192-.513m1.96 1.323c0 .198 0 .444-.046.641.234 0 .468.05.701.05 0-.247 0-.444-.046-.69h-.609m-9.277-11.038c-.216-.053-.378-.053-.594-.053 0-.212.054-.425.054-.637.216.053.432.053.648.106 0 .213-.054.372-.108.584m3.289 0c-.14-.099-.28-.148-.374-.246l.28-.444.422.296a2.736 2.736 0 00-.328.394m-.608.69c-.175-.063-.292-.126-.468-.188.059-.188.176-.314.234-.502.175.063.35.125.468.25-.059.126-.117.314-.234.44m-.261-1.38a6.357 6.357 0 00-.909-.184c.165-.184.33-.368.496-.506.33.092.66.184.908.276-.248.092-.413.23-.495.414m-1.143 1.38a1.396 1.396 0 00-.467-.115c.046-.173.093-.403.187-.575.187.057.327.115.514.172-.14.173-.187.345-.234.518m-2.093-2.07c-.369-.072-.738-.072-1.181-.145 0-.436.073-.799.147-1.234a7.84 7.84 0 011.256.29c-.148.29-.222.654-.222 1.09m4.81 2.069c-.107-.126-.215-.251-.377-.314.108-.125.216-.25.377-.376l.324.376c-.054.126-.162.188-.324.314m-5.336-.69h-.609c0-.246-.046-.443-.046-.69.234 0 .467 0 .701.05-.046.246-.046.443-.046.64m.046 3.237c-.058-.16-.058-.318-.117-.478-.175.054-.409.107-.584.16.058.159.117.371.175.53.175-.106.35-.159.526-.212m1.346-.666v-.501c-.195.062-.39.062-.587.125 0 .188.066.376.066.564a4.42 4.42 0 00.521-.188m-1.346-.639c0-.184-.054-.368-.054-.552-.216.046-.431.046-.647.092.054.184.054.368.108.598.162-.046.377-.092.593-.138m1.34-.667c0-.173 0-.403.064-.575-.255 0-.447 0-.702.057v.633c.255-.058.447-.058.638-.115m-.638 2.609c-.064-.16-.127-.265-.191-.425-.192.053-.32.16-.51.266.063.159.19.265.255.424.127-.106.255-.159.446-.265m1.978-1.861c.064-.192.127-.32.127-.513-.191 0-.382-.064-.574-.064-.064.192-.064.385-.127.577h.574m-.203-2.703a22.04 22.04 0 00-1.073-.243 5.9 5.9 0 01.33-1.137c.33.082.743.244 1.073.406-.082.325-.247.65-.33.974M0 39.631v-3.156h.418v1.615l1.533-1.615h.557l-1.393 1.321 1.323 1.908h-.557L.836 38.09l-.488.514v1.1H0v-.073zm54.688 0l1.184-3.156h.418l1.254 3.156h-.488l-.348-.954h-1.254l-.348.954h-.418zm.836-1.248h1.045l-.349-.88a3.539 3.539 0 00-.209-.66c-.07.22-.07.44-.14.586l-.347.954zm-1.603-1.908h.418v3.156h-.418v-3.156zm-2.926 3.156v-3.156h1.115c.209 0 .418 0 .557.074.14.073.279.146.349.293.07.147.139.294.139.44 0 .147 0 .294-.14.368-.07.146-.208.22-.348.293.21.073.349.147.418.294.07.146.14.293.14.513 0 .147 0 .294-.07.44-.07.147-.14.22-.21.294a.518.518 0 01-.347.147c-.14 0-.28.073-.488.073h-1.115v-.073zm.418-1.835h.627c.21 0 .279 0 .349-.073.07 0 .209-.073.209-.147.07-.073.07-.147.07-.293 0-.074 0-.22-.07-.294-.07-.073-.14-.147-.21-.147-.07 0-.208-.073-.487-.073h-.627v1.027h.14zm0 1.468h1.045c.07 0 .14-.073.21-.073.069-.074.139-.074.139-.147.07-.073.07-.147.07-.294 0-.146 0-.22-.07-.293l-.21-.22c-.07 0-.278-.074-.417-.074h-.697v1.101h-.07zm-3.553.367l1.185-3.156h.418l1.254 3.156h-.488l-.348-.954h-1.254l-.349.954h-.418zm.836-1.248h1.045l-.348-.88a3.539 3.539 0 00-.209-.66c-.07.22-.07.44-.14.586l-.348.954zm-3.553 1.248v-3.156h1.324c.279 0 .488 0 .627.074.14.073.279.146.348.293.07.147.14.294.14.514 0 .22-.07.44-.21.587-.139.147-.348.22-.626.294.139.073.209.073.209.146.139.147.209.22.348.44l.557.881h-.487l-.418-.66c-.14-.22-.21-.367-.279-.44l-.209-.22c-.07-.074-.14-.074-.209-.074h-.697v1.394h-.418v-.073zm.418-1.761h.836c.21 0 .349 0 .418-.074.07-.073.21-.073.21-.22.069-.073.069-.147.069-.293a.577.577 0 00-.14-.367c-.069-.074-.278-.147-.487-.147h-.975v1.1h.07zm-3.553 1.761l1.185-3.156h.418l1.254 3.156h-.488l-.348-.954h-1.254l-.349.954h-.418zm.836-1.248h1.045l-.348-.88a3.539 3.539 0 00-.209-.66c-.07.22-.07.44-.14.586l-.348.954zm-2.577-1.908h.418v3.156h-.418v-3.156zm-3.135 3.156v-3.156h1.045c.209 0 .418 0 .557.074.14.073.348.146.418.22.14.147.279.293.348.514.07.22.14.44.14.733 0 .22 0 .44-.07.661-.07.22-.14.367-.209.44-.07.147-.209.22-.279.294a.518.518 0 01-.348.147c-.14 0-.279.073-.488.073h-1.114zm.418-.367h.627c.209 0 .348 0 .487-.073.14-.074.21-.074.28-.147.069-.073.138-.22.208-.44.07-.147.07-.367.07-.588 0-.366-.07-.587-.14-.733a.863.863 0 00-.348-.367c-.14-.074-.279-.074-.488-.074h-.627v2.422h-.07zm-1.463-2.789h.418v1.835c0 .294 0 .587-.07.734a.742.742 0 01-.348.44c-.21.147-.418.147-.697.147-.278 0-.487-.073-.696-.147-.21-.073-.28-.22-.418-.44-.07-.22-.14-.44-.14-.807v-1.835h.418v1.835c0 .293 0 .513.07.587.07.147.14.22.279.293.139.074.278.074.418.074.278 0 .487-.074.626-.22.14-.147.21-.44.21-.808v-1.688h-.07zm-5.155 3.156l1.184-3.156h.418l1.254 3.156H33.3l-.348-.954h-1.254l-.348.954h-.418zm.836-1.248h1.045l-.349-.88a3.539 3.539 0 00-.209-.66c-.07.22-.07.44-.14.586l-.347.954zm-3.484.22h.349c0 .147.07.294.139.368.07.073.14.22.279.22.139.073.278.073.487.073.14 0 .279 0 .418-.073a.97.97 0 00.279-.22c.07-.074.07-.147.07-.294 0-.073 0-.22-.07-.294a.969.969 0 00-.279-.22c-.07 0-.278-.073-.557-.147-.279-.073-.488-.146-.557-.22-.14-.073-.28-.146-.349-.293-.07-.147-.14-.22-.14-.367s.07-.294.14-.44c.07-.147.21-.22.349-.294.139-.073.348-.073.557-.073.209 0 .418.073.627.146.14.074.279.22.418.367.07.147.14.294.14.514h-.419c0-.22-.07-.367-.209-.44a1.037 1.037 0 00-.557-.147 1.26 1.26 0 00-.557.147c-.14.073-.14.22-.14.367 0 .146.07.22.14.293.07.074.278.147.627.22.348.074.557.147.696.22.21.074.279.22.418.294.07.147.14.294.14.44 0 .147-.07.294-.14.514a.725.725 0 01-.418.367 1.26 1.26 0 01-.557.147c-.279 0-.488-.074-.697-.147a.725.725 0 01-.418-.367 1.22 1.22 0 01-.209-.66zm-3.622 1.028v-3.156h2.02v.367H25.01v.954h1.393v.367H25.01v1.468h-.348zm-3.414-1.541c0-.514.14-.954.418-1.248.279-.293.627-.44 1.045-.44.279 0 .557.073.766.22.21.147.418.367.488.587.14.22.209.514.209.88 0 .294-.07.588-.209.882-.14.22-.279.44-.557.587a1.36 1.36 0 01-.767.22c-.278 0-.557-.074-.766-.22-.209-.147-.418-.367-.488-.587-.07-.294-.139-.588-.139-.881zm.418 0c0 .367.07.66.279.88.209.22.418.367.766.367.279 0 .557-.146.766-.366.21-.22.279-.514.279-.955 0-.293-.07-.513-.14-.66a.742.742 0 00-.348-.44 1.26 1.26 0 00-.557-.147c-.279 0-.557.073-.766.293a1.97 1.97 0 00-.279 1.028zm-5.016 1.54v-3.156h.627l.697 2.275c.07.22.14.367.14.44 0-.146.069-.293.138-.513l.697-2.202h.557v3.156h-.418v-2.64l-.905 2.642h-.349l-.905-2.715v2.715h-.279zm-3.414-1.541c0-.514.14-.954.418-1.248.28-.293.627-.44 1.045-.44.28 0 .558.073.767.22.209.147.418.367.487.587.14.22.21.514.21.88 0 .294-.07.588-.21.882-.139.22-.278.44-.557.587-.209.146-.488.22-.766.22-.279 0-.558-.074-.767-.22-.209-.147-.418-.367-.487-.587-.07-.294-.14-.588-.14-.881zm.418 0c0 .367.07.66.28.88.208.22.417.367.765.367.28 0 .558-.146.767-.366.209-.22.278-.514.278-.955 0-.293-.07-.513-.139-.66a.742.742 0 00-.348-.44 1.26 1.26 0 00-.558-.147c-.278 0-.557.073-.766.293a1.97 1.97 0 00-.279 1.028zm-3.343 1.541v-3.156h1.045c.209 0 .418 0 .557.074.14.073.348.146.418.22.14.147.278.293.348.514.07.22.14.44.14.733 0 .22 0 .44-.07.661-.07.22-.14.367-.21.44-.069.147-.208.22-.278.294a.518.518 0 01-.348.147c-.14 0-.279.073-.488.073h-1.114zm.418-.367h.627c.209 0 .348 0 .487-.073.14-.074.21-.074.279-.147.07-.073.14-.22.209-.44.07-.147.07-.367.07-.588 0-.366-.07-.587-.14-.733a.863.863 0 00-.348-.367c-.14-.074-.279-.074-.488-.074h-.627v2.422h-.07zm-2.3-.88v-.368h1.255v1.175c-.21.146-.418.293-.627.367-.21.073-.418.146-.627.146a1.78 1.78 0 01-.836-.22c-.21-.147-.418-.293-.558-.587-.14-.22-.209-.514-.209-.88 0-.294.07-.588.21-.881.139-.294.278-.44.557-.587.209-.147.487-.22.766-.22.209 0 .418.073.627.146.209.074.348.147.418.294s.209.293.209.514l-.348.073c-.07-.147-.07-.294-.14-.367a.969.969 0 00-.278-.22c-.14-.074-.28-.074-.418-.074-.21 0-.349 0-.488.074-.14.073-.21.147-.348.22-.07.073-.14.22-.21.294-.07.22-.139.44-.139.66 0 .294.07.514.14.734.07.22.209.367.418.44.209.074.348.147.557.147.14 0 .348 0 .488-.073.139-.074.278-.147.348-.22v-.588H8.43zM3.972 39.63v-3.156h.418l1.602 2.496v-2.496h.418v3.156h-.418L4.39 37.136v2.495h-.42zm-1.115-3.156h.418v3.156h-.418v-3.156zm18.897-20.841c.073.138.218.414.218.622 0 0 .436-.691 1.307-.138 0 0-.726-.07-.944.276 0 0 1.162-.276 1.38.76 0 0-.509-.553-1.017-.483 0 0 1.09.345.799 1.451 0 0-.073-.968-.871-1.106 0 0 .725.553.435 1.659 0 0 0-.83-.508-1.175 0 0 .363.83-.218 1.59 0 0 .29-.968-.218-1.314 0 0-.217-.138-.217.208 0 0-.073 2.004.072 3.041 0 0 2.105-1.728 3.993-.553 0 0-1.815-.83-3.92 1.037l1.38 1.175c.072-.07.144-.138.29-.138.217 0 .362.138.362.345 0 .415-.653.415-.87.139l-1.453-1.314-1.452 1.314c-.217.276-.87.276-.87-.139 0-.207.145-.345.362-.345.146 0 .218.069.29.138l1.38-1.175c-2.105-1.866-3.92-1.037-3.92-1.037 1.815-1.175 3.993.553 3.993.553.072-.968.072-3.041.072-3.041 0-.346-.218-.208-.218-.208-.508.346-.217 1.314-.217 1.314-.581-.76-.218-1.59-.218-1.59-.508.415-.508 1.175-.508 1.175-.29-1.106.435-1.659.435-1.659-.726.138-.87 1.106-.87 1.106-.291-1.106.798-1.451.798-1.451-.509-.07-1.017.483-1.017.483.218-1.036 1.38-.76 1.38-.76-.146-.346-.944-.276-.944-.276.871-.553 1.307.138 1.307.138 0-.208.145-.484.217-.622M3.05 35.278h.416v-.432H3.05v.432zm-.901-4.396h-.416v.432h.416v-.432zm1.594 4.396h.416v-.432h-.416v.432zm-2.218-4.396h-.416v.432h.416v-.432zm4.922 1.225c-.07-.144-.208-.216-.347-.288-.139-.072-.277-.072-.416-.072h-.277v.36h.347c.069 0 .138 0 .277.072.07.072.138.072.208.144.07.072.07.144.138.216v1.442H4.644v.36h2.15v-1.513c0-.144 0-.289-.07-.433-.139-.072-.208-.216-.277-.288zm14.626 2.306h.347v-3.531h-.347v3.531zm-1.525-.36h-.624c-.208 0-.416 0-.554-.072a.552.552 0 01-.278-.288c0-.072.07-.217.07-.36v-1.226h-.347v1.297a.84.84 0 01-.208.577c-.138.144-.277.216-.554.216-.139 0-.208 0-.278-.072-.069 0-.138-.072-.208-.144-.069-.072-.138-.144-.138-.216-.07-.072-.07-.144-.07-.289v-1.369h-.346v1.37c0 .144 0 .216-.07.288 0 .072-.069.144-.138.216-.07.072-.139.072-.208.144-.07 0-.139.072-.208.072h-.763V32.18h-.346v2.018h-1.941l.624-1.658c-.07-.072-.208-.144-.347-.288-.138-.072-.208-.144-.346-.216-.14-.072-.278-.144-.347-.144-.139 0-.277-.072-.347-.072-.138 0-.277 0-.346.072-.07.072-.277.072-.347.144-.138.072-.208.144-.346.216-.14.072-.208.144-.347.288l.693 1.658H9.566v-2.234h-.624c-.208 0-.416 0-.624.072-.208.072-.346.144-.485.288s-.277.289-.346.433c-.07.144-.14.36-.14.504 0 .216.07.433.14.577.069.144.207.288.346.432.139.072.277.216.485.216.208.073.416.073.624.073h.208v.072c0 .216-.07.36-.138.432-.14.072-.278.144-.486.144H8.18c-.07 0-.208-.072-.347-.144l-.139.36c.14.073.278.073.347.145.139 0 .208.072.347.072.346 0 .624-.072.832-.289.138-.144.277-.432.277-.72v-.072h5.892c.208 0 .347-.073.485-.145a.853.853 0 00.347-.36c.07.144.208.288.346.36.139.072.347.145.555.145.208 0 .416-.073.555-.145a.853.853 0 00.346-.36c0 .072.07.144.139.144l.138.144c.07.072.139.072.278.072h1.387v-3.531h-.348v3.171h-.069zm9.15 1.225h.416v-.432h-.416v.432zm3.674-1.225l-.554-1.514c.138-.144.277-.216.416-.288.138-.072.346-.072.485-.072s.346 0 .485.072c.208.072.347.144.416.288l-.624 1.514h-.624zm2.704 0H33.48l.694-1.658c-.07-.072-.208-.144-.347-.288-.139-.072-.208-.144-.347-.216-.138-.072-.208-.072-.346-.144-.139 0-.277-.072-.347-.072-.138 0-.277 0-.346.072a.52.52 0 00-.347.144c-.139.072-.208.144-.347.216-.138.072-.208.144-.346.288.693 1.586.693 1.658.693 1.658h-1.386v-2.306h-.347v3.027c0 .072 0 .144-.07.144 0 .072-.069.072-.138.072h-.278l-.069.36c.14 0 .208.072.278.072.138 0 .277 0 .346-.072.07-.072.139-.072.208-.216.07-.072.07-.216.139-.288v-.505h4.852V30.81h-.346v3.243h-.208zm-7.764 1.225h.416v-.432h-.416v.432zm-2.288-1.225h-.346c-.139 0-.277 0-.416-.072-.139-.072-.208-.072-.347-.216a1.002 1.002 0 01-.208-.289c-.069-.144-.069-.288-.069-.36 0-.144 0-.288.07-.36.069-.072.138-.217.207-.289.07-.072.208-.144.347-.216.139-.072.277-.072.346-.072h.347v1.874h.07zm4.02-2.306h-.346v2.306h-1.386v-2.306h-.347v2.306H25.44v-2.306h-.624c-.208 0-.415.072-.623.072-.208.072-.347.144-.486.288-.138.144-.277.288-.346.432-.07.145-.139.36-.139.505 0 .216.07.432.139.577.069.144.208.288.346.432.139.072.278.144.486.216.208.072.346.072.623.072h4.298v-2.594h-.07zm-2.356 3.531h.416v-.432h-.416v.432zm-1.317-4.324h-.347v.432h.416v-.432h-.069zm-.624 0h-.416v.432h.416v-.432zm11.784 3.46h.347v-3.532h-.347v3.531zm16.845-.361c-.07.144-.139.216-.208.36-.07.072-.208.145-.277.217-.139.072-.277.072-.416.072-.139 0-.277 0-.416-.072a.962.962 0 01-.277-.217c-.07-.072-.139-.216-.208-.36-.07-.144-.07-.288-.07-.36 0-.145 0-.289.07-.433.07-.144.138-.216.208-.36.07-.072.208-.144.277-.216.139-.072.277-.072.416-.072.139 0 .277 0 .416.072.139.072.208.144.346.216.07.072.14.216.208.36.07.144.07.288.07.433-.07.144-.07.288-.139.36zm-3.674 0c-.07.144-.138.216-.208.36-.07.072-.208.145-.346.217-.139.072-.278.072-.416.072-.139 0-.278 0-.416-.072-.139-.072-.208-.145-.277-.217-.07-.072-.14-.216-.208-.36-.07-.144-.07-.288-.07-.36 0-.145 0-.289.07-.433.069-.144.138-.216.208-.36.069-.072.207-.144.277-.216.138-.072.277-.072.416-.072.138 0 .277 0 .416.072.138.072.208.144.346.216.07.072.139.216.208.36.07.144.07.288.07.433 0 .144 0 .288-.07.36zm-9.15.216h-.347c-.138 0-.277 0-.416-.072-.138-.072-.207-.072-.346-.216a.992.992 0 01-.208-.288c-.07-.145-.07-.289-.07-.36 0-.145 0-.289.07-.361.07-.072.139-.216.208-.288.07-.072.208-.145.346-.217.14-.072.278-.072.347-.072h.347v1.874h.069zm14.488 0h-1.317c.069-.216.138-.36.138-.576 0-.217-.069-.36-.138-.577-.07-.144-.139-.36-.278-.432a1.447 1.447 0 00-.415-.289c-.14-.072-.347-.072-.555-.072-.208 0-.347 0-.555.072a1.447 1.447 0 00-.416.289 1.514 1.514 0 00-.277.432c-.07.144-.138.36-.138.577v.288c0 .072.069.144.069.288h-1.179c.07-.216.14-.36.14-.576 0-.217-.07-.36-.14-.577-.069-.144-.138-.36-.277-.432a1.447 1.447 0 00-.416-.289c-.138-.072-.346-.072-.554-.072-.208 0-.347 0-.555.072a1.447 1.447 0 00-.416.289 1.514 1.514 0 00-.277.432c-.07.144-.07.36-.07.577v.288c0 .072.07.144.07.288h-1.178V31.17h-.347v3.1H44.78v-.577c0-.145 0-.289-.069-.433-.07-.144-.07-.288-.208-.36a1.525 1.525 0 00-.346-.288c-.139-.073-.278-.073-.486-.073h-1.663l.693-1.441h-.416l-.693 1.37c0 .071 0 .144.07.216 0 .072.068.144.138.144h1.94c.14 0 .209 0 .278.072.07 0 .139.072.208.144.07.072.07.144.139.216v.865h-3.466V31.82h-.624c-.208 0-.416.072-.624.072-.208.072-.347.144-.485.288a1.514 1.514 0 00-.278.433c-.069.144-.138.36-.138.504 0 .216.069.432.138.577.07.144.208.288.347.432.139.072.277.144.485.216.208.072.416.072.624.072h7.487c.138.145.277.289.415.36.208.073.347.145.555.145.208 0 .416 0 .555-.144.208-.072.346-.144.416-.36h1.663c.139.144.277.288.416.36.208.072.347.144.555.144.208 0 .416 0 .554-.144.208-.072.347-.144.416-.36h1.941v-3.532h-.347v3.387h.07zm1.456.36h.346v-3.531h-.346v3.532zM40.275 31.17h-.416v.432h.416v-.432zm.624 0h-.416v.432h.416v-.432zm-36.878.577h-.347v2.234H2.149v-2.234h-.624c-.208 0-.416 0-.624.072-.208.072-.346.144-.485.288s-.208.288-.277.432c-.07.145-.139.36-.139.505 0 .216.07.432.139.577.069.144.208.288.346.432.139.072.278.216.485.216.208.072.416.072.624.072H4.09v-2.594h-.07zm-2.219 2.306h-.346c-.139 0-.278 0-.416-.072-.139-.072-.208-.072-.347-.216a.992.992 0 01-.208-.289c-.07-.144-.07-.216-.07-.36s0-.288.07-.36c.07-.144.139-.217.208-.289.07-.072.208-.144.347-.216.138-.072.277-.072.346-.072h.347v1.874h.07zm7.279 0h-.347c-.138 0-.277 0-.416-.072-.138-.072-.208-.072-.346-.216-.07-.072-.208-.144-.208-.289-.07-.144-.07-.216-.07-.36s0-.288.07-.36a.998.998 0 01.208-.289c.07-.072.208-.144.346-.216.139-.072.278-.072.416-.072h.347v1.874zm2.08 0l-.624-1.514c.138-.144.277-.216.416-.288.138-.072.277-.072.485-.072.138 0 .346 0 .485.072s.277.144.416.288l-.555 1.514h-.624zM46.246 9.475h.631v.639h-.631v-.64zm1.333 0h.632v.639h-.632v-.64zM34.526 1.876h-.631v-.639h.631v.64zm15.86 4.687c.28.213.561.284.842.426.35.071.702.142 1.053.142h.14l.21-.497v.64c0 .354-.14.567-.28.78-.21.142-.491.213-.842.213-.21 0-.351 0-.562-.07-.14-.072-.35-.072-.561-.214l-.21.64c.28.07.49.142.701.213.21.07.421.07.562.07.631 0 1.122-.141 1.403-.426.28-.284.421-.71.421-1.207V2.657h-1.052c-.422 0-.772.071-1.123.142-.351.142-.632.284-.842.497-.281.213-.421.426-.562.71-.14.285-.21.569-.21.924 0 .355.07.71.21.994.21.213.421.426.702.64zm0-2.414c.07-.213.21-.355.421-.498.14-.142.35-.284.561-.355.21-.07.421-.142.632-.142h1.053l-.351.213V6.35H52c-.28 0-.491 0-.702-.071-.21-.071-.42-.213-.561-.284-.14-.142-.28-.284-.351-.497-.07-.213-.14-.426-.14-.64-.07-.283 0-.496.14-.71zM35.86 1.876h-.632v-.639h.632v.64zm19.158 7.03c-.211 0-.351 0-.562-.07l.14-.64c.07 0 .14 0 .211.071h.14c.14 0 .21 0 .281-.07.07 0 .14-.072.21-.143.07-.07.07-.213.07-.355V2.586h.632v4.616c0 .284 0 .497-.07.71-.07.213-.14.355-.21.568a.85.85 0 01-.351.356c-.07 0-.28.07-.491.07zm-20.983-.07h1.333v-.498s0 .071.07.071a.72.72 0 00.422.356c.14.07.35.142.561.142h12v-6.25h-.632v5.61H36.421c-.14 0-.21 0-.35-.07-.071-.072-.141-.072-.211-.214-.07-.07-.07-.213-.14-.355V2.515h-1.755c-1.825 0-3.088 1.42-3.088 3.125.14 1.704 1.334 3.196 3.158 3.196zM31.72 5.64c0-1.35.983-2.486 2.316-2.486h1.544l-.421.213v3.764c0 .284 0 .497.07.71 0 .142.07.213.07.355h-1.263c-1.333-.07-2.316-1.136-2.316-2.556zM52.561.456h.562v.497h-.491c-.14 0-.21.07-.21.213v.213h.841v.497H51.86v-.71c0-.355.35-.71.701-.71zM28.077 2.662h.695v6.004h-.556l-4.309-5.39.348.887v4.503h-.695V2.662h.625l4.17 5.185-.278-.75V2.662zM2.641 8.666L0 2.594h.764l.348.887 1.807 4.23.208.41-.07-.683 2.086-4.913h.764l-2.64 6.073H2.64v.068zm11.675-6.004h.695v6.004h-.695V2.662zm7.437 3.002c0 1.364-.973 2.456-2.363 2.456-1.39 0-2.433-1.092-2.433-2.456 0-1.365.973-2.456 2.363-2.456 1.39-.069 2.433 1.091 2.433 2.456zM19.32 2.525c-1.876 0-3.127 1.433-3.127 3.07 0 1.638 1.25 3.07 3.127 3.07 1.877 0 3.128-1.432 3.128-3.07 0-1.637-1.251-3.07-3.128-3.07zm-6.115 4.503c0 1.024-.904 1.706-2.085 1.706-.973 0-1.738-.341-2.502-.955l.417-.478c.625.546 1.25.82 2.085.82.834 0 1.39-.41 1.39-1.024 0-.546-.278-.887-1.599-1.16-1.39-.273-2.015-.75-2.015-1.706 0-.955.834-1.637 2.015-1.637.904 0 1.529.273 2.155.75l-.417.546c-.556-.478-1.112-.682-1.738-.682-.764 0-1.32.409-1.32.955s.347.887 1.668 1.16c1.32.273 1.946.75 1.946 1.705zm-5.63 1.638H6.88V2.662h.695v6.004z" fill="#FFF" fill-rule="nonzero"/></g></svg>