<svg width="36" height="36" xmlns="http://www.w3.org/2000/svg"><path d="M23.716 22.404c-.167 0-.287.047-.36.146-.072.094-.108.255-.108.478v.538h.926v-.538c0-.223-.037-.384-.111-.478-.07-.1-.188-.146-.347-.146zm-3.61-.019a.4.4 0 01.326.138c.074.093.11.23.11.41v2.75c0 .172-.031.292-.091.367-.06.076-.154.113-.282.113a.585.585 0 01-.253-.058.898.898 0 01-.249-.187v-3.319a.779.779 0 01.216-.163.498.498 0 01.222-.05zm3.143 2.01v1.003c0 .28.034.475.102.584.07.109.188.162.355.162.173 0 .295-.046.364-.138.068-.091.105-.293.105-.607v-.243h1.077v.273c0 .547-.13.958-.395 1.236-.26.275-.653.412-1.174.412-.469 0-.84-.145-1.109-.439-.268-.291-.405-.694-.405-1.208v-2.392c0-.46.15-.839.445-1.129.296-.29.677-.436 1.147-.436.479 0 .847.135 1.105.404s.386.656.386 1.161v1.359h-2.003v-.002zm-1.875 2.302c-.163.202-.402.3-.712.3-.206 0-.388-.037-.548-.115a1.343 1.343 0 01-.447-.36v.408h-1.059v-7.219h1.059v2.325c.142-.162.29-.287.449-.37.16-.085.32-.127.483-.127.332 0 .585.114.759.34.176.227.262.56.262.995v2.956c0 .377-.082.665-.246.867zm-4.6.233v-.585a2.238 2.238 0 01-.605.493c-.209.115-.411.17-.608.17-.243 0-.423-.078-.548-.238-.12-.16-.183-.395-.183-.714v-4.453h1.047v4.085c0 .127.022.218.064.275.046.057.117.084.215.084a.58.58 0 00.292-.113c.119-.075.225-.17.326-.285v-4.046h1.046v5.327h-1.045zm-3.624-6.17v6.17h-1.181v-6.17h-1.22v-1.049h3.621v1.049h-1.22zm4.846-3.373s7.248.01 8.109.87c.863.86.873 5.108.873 5.133 0 0-.007 4.27-.873 5.133-.86.858-8.109.877-8.109.877s-7.247-.019-8.11-.877c-.862-.861-.864-5.101-.864-5.134 0-.024.003-4.272.865-5.133.863-.858 8.11-.87 8.11-.87zm5.716-2.234h-1.18v-.648a2.468 2.468 0 01-.678.545 1.455 1.455 0 01-.684.188c-.274 0-.478-.088-.616-.263-.137-.174-.207-.436-.207-.786V9.286h1.177v4.498c0 .138.027.24.077.301.048.062.13.094.239.094.086 0 .196-.042.329-.124.132-.082.254-.187.363-.316V9.286h1.18v5.867zm-6.404-1c.084.088.204.131.36.131a.53.53 0 00.38-.134.492.492 0 00.142-.37v-3.197a.383.383 0 00-.145-.311.576.576 0 00-.377-.118.516.516 0 00-.351.118.399.399 0 00-.135.311v3.197c0 .16.043.283.126.373zm-.863-4.611c.317-.27.744-.405 1.279-.405.487 0 .888.143 1.2.427.31.284.467.65.467 1.097v3.03c0 .502-.153.895-.457 1.181-.308.286-.728.429-1.264.429-.515 0-.928-.148-1.238-.442-.308-.295-.464-.691-.464-1.19v-3.04c0-.457.158-.818.477-1.087zM12.757 7.2H11.42L13 12.002v3.151h1.328v-3.3L15.872 7.2h-1.35l-.82 3.179h-.083L12.757 7.2zM18 36C8.06 36 0 27.941 0 18S8.06 0 18 0s18 8.059 18 18-8.06 18-18 18z" fill="#FFF" fill-rule="evenodd"/></svg>