<?xml version="1.0" encoding="UTF-8"?>
<svg width="16px" height="16px" viewBox="0 0 16 16" version="1.1" xmlns="http://www.w3.org/2000/svg" xmlns:xlink="http://www.w3.org/1999/xlink">
    <!-- Generator: Sketch 57.1 (83088) - https://sketch.com -->
    <title>Color</title>
    <desc>Created with Sketch.</desc>
    <g id="Atoms" stroke="none" stroke-width="1" fill="none" fill-rule="evenodd">
        <g id="Icons" transform="translate(-197.000000, -741.000000)" fill="#160F3E">
            <path d="M205,741 C205.49092,741 205.888889,741.397969 205.888889,741.888889 L205.888,748.111 L212.111111,748.111111 C212.602031,748.111111 213,748.50908 213,749 C213,749.49092 212.602031,749.888889 212.111111,749.888889 L205.888,749.888 L205.888889,756.111111 C205.888889,756.602031 205.49092,757 205,757 C204.50908,757 204.111111,756.602031 204.111111,756.111111 L204.111,749.888 L197.888889,749.888889 C197.397969,749.888889 197,749.49092 197,749 C197,748.50908 197.397969,748.111111 197.888889,748.111111 L204.111,748.111 L204.111111,741.888889 C204.111111,741.397969 204.50908,741 205,741 Z" id="Color"></path>
        </g>
    </g>
</svg>