<!-- Generated by IcoMoon.io -->
<svg version="1.1" xmlns="http://www.w3.org/2000/svg" width="32" height="32" viewBox="0 0 32 32">
<title>24</title>
<path fill="#160f3e" d="M29.47 9.010l-16.53 16.526-5.69 0.629c-1.649 0.183-3.053-1.208-2.87-2.87l0.629-5.689 16.53-16.526c1.441-1.441 3.77-1.441 5.206 0l2.719 2.719c1.441 1.441 1.441 3.776 0.006 5.211v0zM23.273 10.973l-3.701-3.701-11.834 11.841-0.465 4.159 4.159-0.465 11.841-11.834zM27.441 5.833l-2.732-2.73c-0.259-0.259-0.683-0.259-0.936 0l-1.954 1.953 3.675 3.671 1.954-1.953c0.253-0.265 0.253-0.682-0.006-0.942v0z"></path>
<path fill="#160f3e" d="M1.818 27.636h28.364c1.004 0 1.818 0.814 1.818 1.818v0c0 1.004-0.814 1.818-1.818 1.818h-28.364c-1.004 0-1.818-0.814-1.818-1.818v0c0-1.004 0.814-1.818 1.818-1.818z"></path>
</svg>
