<!-- Generated by IcoMoon.io -->
<svg version="1.1" xmlns="http://www.w3.org/2000/svg" width="35" height="32" viewBox="0 0 35 32">
<title>alert</title>
<path fill="#160f3e" d="M17.443 0c1.598 0 3.080 0.834 3.913 2.208l12.919 21.568c0.812 1.407 0.817 3.139 0.013 4.55s-2.297 2.29-3.938 2.307h-25.83c-1.624-0.018-3.117-0.896-3.921-2.307s-0.799-3.143 0.025-4.571l12.911-21.554c0.829-1.366 2.311-2.201 3.909-2.201zM17.443 3.048c-0.531 0-1.024 0.277-1.301 0.731l-12.892 21.521c-0.271 0.469-0.272 1.046-0.004 1.517s0.766 0.763 1.29 0.769h25.797c0.541-0.006 1.039-0.299 1.307-0.769s0.267-1.048 0.008-1.496l-12.902-21.539c-0.276-0.455-0.77-0.734-1.303-0.734zM17.443 21.49c0.842 0 1.524 0.682 1.524 1.524s-0.682 1.524-1.524 1.524c-0.842 0-1.524-0.682-1.524-1.524s0.682-1.524 1.524-1.524zM17.443 9.299c0.842 0 1.524 0.682 1.524 1.524v6.095c0 0.842-0.682 1.524-1.524 1.524s-1.524-0.682-1.524-1.524v-6.095c0-0.842 0.682-1.524 1.524-1.524z"></path>
</svg>
