<!-- Generated by IcoMoon.io -->
<svg version="1.1" xmlns="http://www.w3.org/2000/svg" width="35" height="32" viewBox="0 0 35 32">
<title>black_white_profile</title>
<path fill="none" stroke="#000" stroke-linejoin="round" stroke-linecap="butt" stroke-miterlimit="4" stroke-width="0.6233" d="M7.145 22.884h20.323c0.449 0.003 0.811 0.368 0.811 0.817 0 0.001 0 0.002 0 0.003v-0 1.91c0 0.001 0 0.002 0 0.003 0 0.45-0.364 0.814-0.813 0.816h-20.321c-0.449-0.002-0.813-0.366-0.813-0.816 0-0.001 0-0.002 0-0.003v0-1.91c0-0.001 0-0.002 0-0.003 0-0.45 0.363-0.815 0.813-0.817h0z"></path>
<path fill="none" stroke="#000" stroke-linejoin="round" stroke-linecap="butt" stroke-miterlimit="4" stroke-width="0.6233" d="M8.773 9.639h16.799c0.299 0.001 0.542 0.244 0.542 0.543 0 0.001 0 0.002 0 0.003v-0 13.383h-17.883v-13.383c0-0.001 0-0.002 0-0.003 0-0.3 0.242-0.543 0.542-0.543h0z"></path>
<path fill="#fff" d="M12.84 21.383h9.563c0.747-0.004 1.352-0.611 1.352-1.359 0-0.003 0-0.005-0-0.008v0-12.835c0-0.002 0-0.005 0-0.007 0-0.748-0.604-1.355-1.351-1.359h-9.564c-0.75 0.003-1.356 0.611-1.356 1.361 0 0.002 0 0.004 0 0.006v-0 12.835c0 0.002 0 0.004 0 0.006 0 0.75 0.607 1.358 1.356 1.361h0z"></path>
<path fill="none" stroke="#000" stroke-linejoin="miter" stroke-linecap="butt" stroke-miterlimit="10" stroke-width="0.6233" d="M12.838 21.383h9.563c0.749-0.003 1.355-0.611 1.355-1.361 0-0.002 0-0.004 0-0.006v0-12.835c0-0.002 0-0.004 0-0.006 0-0.749-0.606-1.357-1.354-1.361h-9.563c-0.749 0.003-1.355 0.611-1.355 1.361 0 0.002 0 0.004 0 0.006v-0 12.835c0 0.002 0 0.004 0 0.006 0 0.749 0.606 1.357 1.354 1.361h0z"></path>
<path fill="#fff" d="M18.801 4.245h6.503v6.213h-6.503v-6.213z"></path>
<path fill="#fff" d="M9.799 14.554h5.148v5.189h-5.148v-5.189z"></path>
<path fill="#fff" d="M8.475 17.012h7.943v6.555h-7.943v-6.555z"></path>
<path fill="#000" d="M13.923 10.457h8.399v3.278h-8.399v-3.278z"></path>
<path fill="#000" d="M16.902 13.462h6.774v3.278h-6.774v-3.278z"></path>
<path fill="#000" d="M14.738 16.466h8.399v3.278h-8.399v-3.278z"></path>
<path fill="#000" d="M12.84 7.453h6.774v3.278h-6.774v-3.278z"></path>
<path fill="#fff" d="M7.96 24.113h6.503v3.823h-6.503v-3.823z"></path>
<path fill="#000" d="M8.502 24.251h3.522v3.55h-3.522v-3.55z"></path>
</svg>
