<!-- Generated by IcoMoon.io -->
<svg version="1.1" xmlns="http://www.w3.org/2000/svg" width="35" height="32" viewBox="0 0 35 32">
<title>black_white_statistics</title>
<path fill="#fff" d="M7.396 6.189h3.558v6.304h-3.558v-6.304z"></path>
<path fill="#000" d="M6.435 3.861h21.831v18.238h-21.831v-18.238z"></path>
<path fill="#000" d="M6.35 19.055h2.517v3.035h-2.517v-3.035z"></path>
<path fill="#000" d="M6.686 24.869h20.163v3.035h-20.163v-3.035z"></path>
<path fill="#000" d="M7.396 20.694h5.255v4.855h-5.255v-4.855z"></path>
<path fill="#000" d="M10.918 19.75h5.255v5.799h-5.255v-5.799z"></path>
<path fill="#000" d="M14.442 18.174h5.255v7.375h-5.255v-7.375z"></path>
<path fill="#000" d="M17.964 15.97h5.255v9.579h-5.255v-9.579z"></path>
<path fill="#000" d="M21.488 11.56h5.255v13.989h-5.255v-13.989z"></path>
<path fill="#fff" d="M6.447 24.636h5.693v3.503h-5.693v-3.503z"></path>
<path fill="#000" d="M6.922 24.869h3.084v3.035h-3.084v-3.035z"></path>
</svg>
