<!-- Generated by IcoMoon.io -->
<svg version="1.1" xmlns="http://www.w3.org/2000/svg" width="35" height="32" viewBox="0 0 35 32">
<title>black_white_documents</title>
<path fill="#000" d="M5.306 3.373h24.002v25.020h-24.002v-25.020z"></path>
<path fill="#000" d="M15.77 12.268h3.786v2.77h-3.786v-2.77z"></path>
<path fill="#000" d="M11.503 12.268h6.131v2.77h-6.131v-2.77z"></path>
<path fill="#000" d="M8.869 12.268h4.245v2.77h-4.245v-2.77z"></path>
<path fill="#000" d="M10.058 14.363h6.892v2.806h-6.892v-2.806z"></path>
<path fill="#000" d="M8.869 14.366h3.291v2.77h-3.291v-2.77z"></path>
<path fill="#000" d="M8.869 16.475h5.669v2.77h-5.669v-2.77z"></path>
<path fill="#000" d="M9.109 18.339h3.802v2.806h-3.802v-2.806z"></path>
<path fill="#fff" d="M7.92 25.354h5.703v3.274h-5.703v-3.274z"></path>
<path fill="#000" d="M8.395 25.354h3.090v3.040h-3.090v-3.040z"></path>
</svg>
