<!-- Generated by IcoMoon.io -->
<svg version="1.1" xmlns="http://www.w3.org/2000/svg" width="35" height="32" viewBox="0 0 35 32">
<title>black_white_trade-register</title>
<path fill="none" stroke="#000" stroke-linejoin="miter" stroke-linecap="butt" stroke-miterlimit="10" stroke-width="0.6811" d="M7.658 18.13h15.44c0.654 0 1.184 0.53 1.184 1.184v0 6.229c0 0.654-0.53 1.184-1.184 1.184v0h-15.44c-0.654 0-1.184-0.53-1.184-1.184v0-6.227c0-0 0-0.001 0-0.001 0-0.654 0.53-1.184 1.184-1.184 0 0 0 0 0 0v0z"></path>
<path fill="none" stroke="#000" stroke-linejoin="miter" stroke-linecap="butt" stroke-miterlimit="10" stroke-width="0.3405" d="M9.11 5.674h12.507c0.001 0 0.002 0 0.003 0 0.233 0 0.435 0.135 0.532 0.331l0.002 0.003 1.718 3.553c0.041 0.078 0.065 0.171 0.065 0.269 0 0.234-0.135 0.436-0.332 0.532l-0.003 0.002c-0.076 0.037-0.165 0.059-0.259 0.059l-16.399-0.012c-0.164 0-0.296-0.133-0.296-0.296v0c0-0.046 0.011-0.090 0.030-0.129l-0.001 0.002 1.9-3.977c0.097-0.201 0.3-0.338 0.535-0.338 0 0 0.001 0 0.001 0h-0z"></path>
<path fill="none" stroke="#000" stroke-linejoin="miter" stroke-linecap="butt" stroke-miterlimit="10" stroke-width="0.3405" d="M10.032 10.121v3.724q1.759 1.452 3.564 0"></path>
<path fill="none" stroke="#000" stroke-linejoin="miter" stroke-linecap="butt" stroke-miterlimit="10" stroke-width="0.3405" d="M13.596 10.121v3.724q1.759 1.452 3.564 0"></path>
<path fill="none" stroke="#000" stroke-linejoin="miter" stroke-linecap="butt" stroke-miterlimit="10" stroke-width="0.3405" d="M17.16 10.121v3.724q1.759 1.452 3.564 0"></path>
<path fill="none" stroke="#000" stroke-linejoin="miter" stroke-linecap="butt" stroke-miterlimit="10" stroke-width="0.3405" d="M20.728 10.121v3.724q1.611 1.452 3.266 0"></path>
<path fill="none" stroke="#000" stroke-linejoin="miter" stroke-linecap="butt" stroke-miterlimit="10" stroke-width="0.3405" d="M23.84 14.267v-4.146"></path>
<path fill="none" stroke="#000" stroke-linejoin="miter" stroke-linecap="butt" stroke-miterlimit="10" stroke-width="0.6811" d="M20.136 13.978h0.888c0.654 0 1.184 0.53 1.184 1.184v0 3.553h-2.97v-3.85c0 0 0-0 0-0 0-0.491 0.398-0.888 0.888-0.888 0.003 0 0.006 0 0.009 0h-0z"></path>
<path fill="none" stroke="#000" stroke-linejoin="miter" stroke-linecap="butt" stroke-miterlimit="10" stroke-width="0.3405" d="M13.894 10.419l0.89-4.449"></path>
<path fill="none" stroke="#000" stroke-linejoin="miter" stroke-linecap="butt" stroke-miterlimit="10" stroke-width="0.3405" d="M17.456 10.419l-0.296-4.449"></path>
<path fill="none" stroke="#000" stroke-linejoin="miter" stroke-linecap="butt" stroke-miterlimit="10" stroke-width="0.3405" d="M20.724 10.419l-1.189-4.745"></path>
<path fill="none" stroke="#000" stroke-linejoin="miter" stroke-linecap="butt" stroke-miterlimit="10" stroke-width="0.3405" d="M6.766 9.825v3.971q1.759 1.547 3.564 0"></path>
<path fill="none" stroke="#000" stroke-linejoin="miter" stroke-linecap="butt" stroke-miterlimit="10" stroke-width="0.3405" d="M9.967 10.386l1.79-4.707"></path>
<path fill="none" stroke="#000" stroke-linejoin="miter" stroke-linecap="butt" stroke-miterlimit="10" stroke-width="0.6811" d="M9.736 13.978h0.888c0.654 0 1.184 0.53 1.184 1.184v0 3.553h-2.964v-3.85c0 0 0 0 0 0 0-0.491 0.398-0.888 0.888-0.888 0.001 0 0.002 0 0.003 0h-0z"></path>
<path fill="#fff" d="M7.658 24.304h7.126v4.153h-7.126v-4.153z"></path>
<path fill="#000" d="M8.251 24.452h3.86v3.855h-3.86v-3.855z"></path>
<path fill="#fff" d="M18.645 15.109h11.189v11.27h-11.189v-11.27z"></path>
</svg>
