<!-- Generated by IcoMoon.io -->
<svg version="1.1" xmlns="http://www.w3.org/2000/svg" width="35" height="32" viewBox="0 0 35 32">
<title>black_white_completed-profile</title>
<path fill="none" stroke="#000" stroke-linejoin="miter" stroke-linecap="butt" stroke-miterlimit="10" stroke-width="0.5922" d="M11.981 24.797h11.064c0.611-0.002 1.106-0.498 1.106-1.109 0-0.002 0-0.003 0-0.005v0-15.591c0-0.001 0-0.003 0-0.004 0-0.611-0.495-1.107-1.106-1.109h-11.065c-0.611 0.003-1.106 0.499-1.106 1.11 0 0.001 0 0.002 0 0.003v-0 15.597c0.002 0.61 0.496 1.105 1.106 1.107h0z"></path>
<path fill="#000" d="M12.868 17.669h9.736v2.672h-9.736v-2.672z"></path>
<path fill="#000" d="M12.868 19.452h9.736v2.672h-9.736v-2.672z"></path>
<path fill="#fff" d="M15.41 10.32h4.249v4.454h-4.249v-4.454z"></path>
<path fill="#fff" d="M19.948 14.997h8.339v8.463h-8.339v-8.463z"></path>
<path fill="#fff" d="M12.202 23.014h5.311v3.118h-5.311v-3.118z"></path>
<path fill="#000" d="M12.646 23.127h2.877v2.895h-2.877v-2.895z"></path>
</svg>
