<!-- Generated by IcoMoon.io -->
<svg version="1.1" xmlns="http://www.w3.org/2000/svg" width="35" height="32" viewBox="0 0 35 32">
<title>black_white_storage</title>
<path fill="none" stroke="#000" stroke-linejoin="miter" stroke-linecap="butt" stroke-miterlimit="10" stroke-width="0.6218" d="M5.798 12.259h18.952c0 0 0 0 0 0 0.299 0 0.542 0.243 0.542 0.542 0 0.001 0 0.001 0 0.002v-0 12.471c0 0.299-0.243 0.542-0.542 0.542v0h-18.952c0 0 0 0 0 0-0.298 0-0.54-0.242-0.54-0.54 0-0.001 0-0.001 0-0.002v0-12.471c0-0 0-0.001 0-0.001 0-0.299 0.242-0.541 0.54-0.542h0z"></path>
<path fill="none" stroke="#000" stroke-linejoin="miter" stroke-linecap="butt" stroke-miterlimit="10" stroke-width="0.6218" d="M12.573 16.597h5.685c0.299 0.001 0.54 0.243 0.54 0.542 0 0.001 0 0.001 0 0.002v-0 8.133c0 0 0 0.001 0 0.001 0 0.298-0.242 0.54-0.54 0.54 0 0 0 0 0 0h-5.685c-0.299 0-0.542-0.243-0.542-0.542v0-8.133c0-0 0-0.001 0-0.001 0-0.299 0.243-0.542 0.542-0.542 0 0 0 0 0 0v0z"></path>
<path fill="none" stroke="#000" stroke-linejoin="miter" stroke-linecap="butt" stroke-miterlimit="10" stroke-width="0.6218" d="M19.881 14.428h2.977c0 0 0 0 0 0 0.299 0 0.542 0.243 0.542 0.542 0 0.001 0 0.001 0 0.002v-0 2.711c0 0.299-0.243 0.542-0.542 0.542h-2.977c-0.299 0-0.542-0.243-0.542-0.542v0-2.711c0-0 0-0.001 0-0.001 0-0.299 0.243-0.542 0.542-0.542 0 0 0 0 0 0v0z"></path>
<path fill="none" stroke="#000" stroke-linejoin="miter" stroke-linecap="butt" stroke-miterlimit="10" stroke-width="0.6218" d="M7.97 14.428h2.986c0.299 0.001 0.54 0.243 0.54 0.542 0 0.001 0 0.001 0 0.002v-0 2.711c0 0 0 0.001 0 0.001 0 0.298-0.242 0.54-0.54 0.54 0 0 0 0 0 0h-2.986c0 0 0 0 0 0-0.298 0-0.54-0.242-0.54-0.54 0-0.001 0-0.001 0-0.002v0-2.711c0-0 0-0.001 0-0.001 0-0.299 0.242-0.541 0.54-0.542h0z"></path>
<path fill="none" stroke="#000" stroke-linejoin="miter" stroke-linecap="butt" stroke-miterlimit="10" stroke-width="0.6218" d="M5.262 9.548h20.032c0.299 0 0.542 0.243 0.542 0.542v0 2.169c0 0 0 0.001 0 0.001 0 0.299-0.243 0.542-0.542 0.542 0 0 0 0 0 0h-20.032c-0.299-0.001-0.54-0.243-0.54-0.542 0-0.001 0-0.001 0-0.002v0-2.169c0-0 0-0.001 0-0.001 0-0.298 0.242-0.54 0.54-0.54 0 0 0 0 0 0v0z"></path>
<path fill="#fff" d="M6.202 23.646h6.497v3.796h-6.497v-3.796z"></path>
<path fill="#000" d="M6.746 23.783h3.519v3.525h-3.519v-3.525z"></path>
<path fill="#fff" d="M20.956 15.785h10.201v10.303h-10.201v-10.303z"></path>
</svg>
