<!-- Generated by IcoMoon.io -->
<svg version="1.1" xmlns="http://www.w3.org/2000/svg" width="35" height="32" viewBox="0 0 35 32">
<title>black_white_payment</title>
<path fill="#000" d="M5.598 7.659h22.954v12.406h-22.954v-12.406z"></path>
<path fill="#000" d="M6.558 3.863h19.439v6.926h-19.439v-6.926z"></path>
<path fill="#000" d="M10.389 2.585h13.688v7.165h-13.688v-7.165z"></path>
<path fill="#000" d="M17.816 9.086h6.5v3.595h-6.5v-3.595z"></path>
<path fill="#000" d="M11.827 9.086h9.615v9.544h-9.615v-9.544z"></path>
<path fill="#000" d="M20.215 10.038h11.292v15.018h-11.292v-15.018z"></path>
<path fill="#000" d="M7.036 9.086h8.177v9.544h-8.177v-9.544z"></path>
<path fill="#000" d="M14.035 10.752h5.062v6.213h-5.062v-6.213z"></path>
<path fill="#fff" d="M8.041 16.414h6.972v4.033h-6.972v-4.033z"></path>
<path fill="#000" d="M8.623 16.557h3.777v3.746h-3.777v-3.746z"></path>
</svg>
