<!-- Generated by IcoMoon.io -->
<svg version="1.1" xmlns="http://www.w3.org/2000/svg" width="35" height="32" viewBox="0 0 35 32">
<title>black_white_completed-form</title>
<path fill="none" stroke="#000" stroke-linejoin="miter" stroke-linecap="butt" stroke-miterlimit="10" stroke-width="0.5908" d="M8.767 4.702h12.785c0.707 0.006 1.278 0.58 1.278 1.288 0 0.004 0 0.007-0 0.011v-0.001 19.738c0 0.003 0 0.007 0 0.010 0 0.708-0.571 1.282-1.277 1.288h-12.785c-0.708-0.006-1.279-0.581-1.279-1.29 0-0.003 0-0.006 0-0.009v0-19.738c-0-0.003-0-0.006-0-0.009 0-0.709 0.571-1.284 1.279-1.29h0.001z"></path>
<path fill="#fff" d="M17.203 20.804h7.16v7.532h-7.16v-7.532z"></path>
<path fill="#000" d="M16.183 9.117h5.785v2.597h-5.785v-2.597z"></path>
<path fill="#000" d="M16.183 10.936h5.785v2.597h-5.785v-2.597z"></path>
<path fill="#000" d="M16.183 12.754h5.785v2.597h-5.785v-2.597z"></path>
<path fill="#000" d="M16.183 14.572h5.785v2.597h-5.785v-2.597z"></path>
<path fill="#000" d="M16.183 16.389h5.785v2.597h-5.785v-2.597z"></path>
<path fill="#000" d="M15.671 18.467h6.318v2.597h-6.318v-2.597z"></path>
<path fill="#000" d="M7.487 8.858h9.461v3.117h-9.461v-3.117z"></path>
<path fill="#000" d="M7.487 10.677h9.491v3.117h-9.491v-3.117z"></path>
<path fill="#000" d="M7.487 12.493h9.491v3.117h-9.491v-3.117z"></path>
<path fill="#000" d="M7.487 14.311h9.491v3.117h-9.491v-3.117z"></path>
<path fill="#000" d="M7.487 16.13h9.491v3.117h-9.491v-3.117z"></path>
<path fill="#000" d="M7.487 17.948h9.491v3.117h-9.491v-3.117z"></path>
<path fill="#000" d="M7.487 19.766h9.491v3.117h-9.491v-3.117z"></path>
<path fill="#000" d="M7.487 21.583h9.491v3.117h-9.491v-3.117z"></path>
<path fill="#000" d="M6.423 6.91h17.43v2.597h-17.43v-2.597z"></path>
<path fill="#fff" d="M17.971 10.416h10.394v10.647h-10.394v-10.647z"></path>
<path fill="#fff" d="M8.767 24.96h6.137v3.636h-6.137v-3.636z"></path>
<path fill="#000" d="M9.279 24.96h3.324v3.376h-3.324v-3.376z"></path>
</svg>
