<!-- Generated by IcoMoon.io -->
<svg version="1.1" xmlns="http://www.w3.org/2000/svg" width="26" height="32" viewBox="0 0 26 32">
<title>bookmark</title>
<path fill="#160f3e" d="M22.4 27.291v-22.491c0-0.884-0.716-1.6-1.6-1.6h-16c-0.884 0-1.6 0.716-1.6 1.6v22.491l8.67-6.193c0.556-0.397 1.304-0.397 1.86 0l8.67 6.193zM12.8 24.366l-10.27 7.336c-1.059 0.756-2.53-0.001-2.53-1.302v-25.6c0-2.651 2.149-4.8 4.8-4.8h16c2.651 0 4.8 2.149 4.8 4.8v25.6c0 1.301-1.471 2.058-2.53 1.302l-10.27-7.336z"></path>
</svg>
