<!-- Generated by IcoMoon.io -->
<svg version="1.1" xmlns="http://www.w3.org/2000/svg" width="32" height="32" viewBox="0 0 32 32">
<title>chat</title>
<path d="M8.993 25.865c0.409-0.156 0.864-0.138 1.26 0.051 1.779 0.849 3.748 1.289 5.748 1.284 4.869-0.002 9.305-2.593 11.462-6.668l0.003-0.006c0.884-1.652 1.341-3.475 1.336-5.325l0.003-0.707c-0.355-6.073-5.525-10.956-11.956-11.293h-0.851c-1.997-0.005-3.966 0.436-5.751 1.287-4.326 2.042-7.043 6.192-7.045 10.717-0.005 1.846 0.452 3.669 1.336 5.321 0.167 0.312 0.226 0.67 0.167 1.018l-1.064 6.365 5.353-2.044zM16.005 30.4c-2.239 0.006-4.452-0.441-6.492-1.308l-7.341 2.803c-1.155 0.441-2.353-0.539-2.149-1.759l1.438-8.599c-0.966-1.984-1.466-4.148-1.46-6.337 0.002-5.778 3.45-11.043 8.873-13.603 2.213-1.056 4.655-1.602 7.127-1.596l0.93 0.002c8.109 0.422 14.615 6.567 15.070 14.398v0.796c0.007 2.376-0.581 4.719-1.712 6.836-2.72 5.136-8.251 8.366-14.284 8.368z"></path>
</svg>
