<!-- Generated by IcoMoon.io -->
<svg version="1.1" xmlns="http://www.w3.org/2000/svg" width="35" height="32" viewBox="0 0 35 32">
<title>colored_backgrounds_vs_colored_element_completed-profile</title>
<path fill="#16103e" d="M6.444 4.329h23.657v23.343h-23.657v-23.343z"></path>
<path fill="none" stroke="#fffeff" stroke-linejoin="miter" stroke-linecap="butt" stroke-miterlimit="10" stroke-width="0.65" d="M12.042 24.461h10.252c0 0 0.001 0 0.001 0 0.565 0 1.024-0.458 1.025-1.023v-14.322c-0.001-0.565-0.459-1.023-1.025-1.023-0.001 0-0.001 0-0.002 0h-10.251c-0 0-0.001 0-0.001 0-0.565 0-1.023 0.458-1.023 1.023 0 0 0 0 0 0v0 14.322c0 0 0 0 0 0 0 0.565 0.458 1.023 1.023 1.023 0.001 0 0.001 0 0.002 0h-0z"></path>
<path fill="#fffeff" d="M12.863 17.914h9.021v2.455h-9.021v-2.455z"></path>
<path fill="#fffeff" d="M12.863 19.55h9.021v2.455h-9.021v-2.455z"></path>
<path fill="#16103e" d="M15.217 11.162h3.937v4.092h-3.937v-4.092z"></path>
<path fill="#16103e" d="M19.422 16.891h7.726v7.775h-7.726v-7.775z"></path>
<path fill="#16103e" d="M11.836 22.825h4.921v2.865h-4.921v-2.865z"></path>
<path fill="#fffeff" d="M12.247 22.927h2.665v2.659h-2.665v-2.659z"></path>
</svg>
