<!-- Generated by IcoMoon.io -->
<svg version="1.1" xmlns="http://www.w3.org/2000/svg" width="35" height="32" viewBox="0 0 35 32">
<title>colored_backgrounds_vs_colored_element_storage</title>
<path fill="#16103e" d="M4.357 2.747h25.996v25.651h-25.996v-25.651z"></path>
<path fill="none" stroke="#fff" stroke-linejoin="miter" stroke-linecap="butt" stroke-miterlimit="10" stroke-width="0.4886" d="M9.606 13.152h14.896c0 0 0 0 0 0 0.235 0 0.426 0.191 0.426 0.426 0 0.001 0 0.001 0 0.002v-0 9.834c0 0.235-0.191 0.426-0.426 0.426v0h-14.896c-0.236 0-0.426-0.191-0.426-0.426v0-9.834c0-0 0-0.001 0-0.001 0-0.236 0.191-0.426 0.426-0.426 0 0 0 0 0 0v0z"></path>
<path fill="none" stroke="#fff" stroke-linejoin="miter" stroke-linecap="butt" stroke-miterlimit="10" stroke-width="0.4886" d="M14.713 16.572h4.683c0 0 0 0 0 0 0.235 0 0.425 0.19 0.425 0.425 0 0.001 0 0.002 0 0.003v-0 6.414c-0.001 0.234-0.191 0.423-0.425 0.423 0 0 0 0 0 0h-4.683c-0.236 0-0.426-0.191-0.426-0.426v0-6.411c0-0 0-0.001 0-0.001 0-0.235 0.191-0.426 0.426-0.426 0 0 0 0 0 0v0z"></path>
<path fill="none" stroke="#fff" stroke-linejoin="miter" stroke-linecap="butt" stroke-miterlimit="10" stroke-width="0.4886" d="M20.671 14.434h2.341c0.235 0.001 0.425 0.191 0.425 0.426 0 0.001 0 0.001 0 0.002v-0 2.138c0 0 0 0.001 0 0.001 0 0.235-0.19 0.426-0.425 0.426h-2.341c-0.236-0.001-0.426-0.192-0.426-0.428 0 0 0 0 0 0v0-2.138c0 0 0 0 0 0 0-0.236 0.191-0.427 0.426-0.428h0z"></path>
<path fill="none" stroke="#fff" stroke-linejoin="miter" stroke-linecap="butt" stroke-miterlimit="10" stroke-width="0.4886" d="M11.307 14.434h2.341c0.235 0.001 0.425 0.191 0.425 0.426 0 0.001 0 0.001 0 0.002v-0 2.138c0 0 0 0.001 0 0.001 0 0.235-0.19 0.426-0.425 0.426h-2.341c-0.236-0.001-0.426-0.192-0.426-0.428 0 0 0 0 0 0v0-2.138c0 0 0 0 0 0 0-0.236 0.191-0.427 0.426-0.428h0z"></path>
<path fill="none" stroke="#fff" stroke-linejoin="miter" stroke-linecap="butt" stroke-miterlimit="10" stroke-width="0.4886" d="M9.18 10.586h15.749c0.235 0.002 0.425 0.193 0.425 0.428 0 0 0 0 0 0v0 2.138c0 0 0 0 0 0 0 0.235-0.19 0.426-0.425 0.428h-15.749c-0.235-0.001-0.425-0.191-0.425-0.426 0-0.001 0-0.001 0-0.002v0-2.138c0-0 0-0.001 0-0.001 0-0.235 0.19-0.426 0.425-0.426h0z"></path>
<path fill="#16103e" d="M21.135 16.144h7.855v8.124h-7.855v-8.124z"></path>
<path fill="#3ba07a" d="M22.508 17.854h5.315v4.489h-5.315v-4.489z"></path>
<path fill="#16103e" d="M9.819 22.13h5.108v2.992h-5.108v-2.992z"></path>
<path fill="#fff" d="M10.246 22.238h2.767v2.779h-2.767v-2.779z"></path>
</svg>
