<!-- Generated by IcoMoon.io -->
<svg version="1.1" xmlns="http://www.w3.org/2000/svg" width="35" height="32" viewBox="0 0 35 32">
<title>colored_backgrounds_vs_colored_element_trade-register</title>
<path fill="#16103e" d="M5.931 4.329h23.657v23.343h-23.657v-23.343z"></path>
<path fill="none" stroke="#fff" stroke-linejoin="miter" stroke-linecap="butt" stroke-miterlimit="10" stroke-width="0.6441" d="M10.893 17.712h11.464c0.001 0 0.002 0 0.003 0 0.224 0 0.405 0.181 0.407 0.404v5.046c-0.002 0.224-0.183 0.404-0.407 0.404-0.001 0-0.002 0-0.003 0h-11.464c-0.001 0-0.002 0-0.003 0-0.224 0-0.405-0.181-0.406-0.404v-5.046c0.001-0.223 0.182-0.404 0.406-0.404 0.001 0 0.002 0 0.003 0h-0z"></path>
<path fill="none" stroke="#fff" stroke-linejoin="miter" stroke-linecap="butt" stroke-miterlimit="10" stroke-width="0.6441" d="M19.898 14.886h0.613c0.002 0 0.004-0 0.006-0 0.447 0 0.809 0.361 0.813 0.807v2.424h-2.046v-2.625c0.003-0.335 0.275-0.606 0.61-0.606 0.002 0 0.003 0 0.005 0h-0z"></path>
<path fill="#16103e" d="M18.464 15.491h7.776v7.671h-7.776v-7.671z"></path>
<path fill="#3ba07a" d="M19.898 17.511h4.911v4.038h-4.911v-4.038z"></path>
<path fill="none" stroke="#fff" stroke-linejoin="miter" stroke-linecap="butt" stroke-miterlimit="10" stroke-width="0.6441" d="M12.733 14.886h0.614c0.002-0 0.005-0 0.007-0 0.447 0 0.81 0.362 0.811 0.808v2.424h-2.046v-2.627c0.002-0.335 0.275-0.606 0.61-0.606 0.001 0 0.002 0 0.003 0h-0z"></path>
<path fill="#16103e" d="M11.303 21.914h4.911v2.826h-4.911v-2.826z"></path>
<path fill="#fff" d="M11.711 22.016h2.661v2.625h-2.661v-2.625z"></path>
</svg>
