<!-- Generated by IcoMoon.io -->
<svg version="1.1" xmlns="http://www.w3.org/2000/svg" width="35" height="32" viewBox="0 0 35 32">
<title>colored_backgrounds_vs_colored_element_statistics</title>
<path fill="#16103e" d="M5.512 4.445h23.657v23.343h-23.657v-23.343z"></path>
<path fill="#3ba07a" d="M10.497 7.942h13.718v11.535h-13.718v-11.535z"></path>
<path fill="#fff" d="M10.506 18.694h3.525v3.265h-3.525v-3.265z"></path>
<path fill="#fff" d="M13.003 18h3.525v3.935h-3.525v-3.935z"></path>
<path fill="#fff" d="M15.49 16.883h3.525v5.053h-3.525v-5.053z"></path>
<path fill="#fff" d="M17.976 15.318h3.525v6.617h-3.525v-6.617z"></path>
<path fill="#fff" d="M20.463 12.19h3.525v9.747h-3.525v-9.747z"></path>
<path fill="#fff" d="M11.401 21.819h12.669v1.92h-12.669v-1.92z"></path>
<path fill="#16103e" d="M10.506 21.671h3.28v2.215h-3.28v-2.215z"></path>
<path fill="#fff" d="M10.804 21.819h1.938v1.92h-1.938v-1.92z"></path>
</svg>
