<!-- Generated by IcoMoon.io -->
<svg version="1.1" xmlns="http://www.w3.org/2000/svg" width="35" height="32" viewBox="0 0 35 32">
<title>colored_backgrounds_vs_colored_element_documents</title>
<path fill="#16103e" d="M7.279 5.21h23.657v23.343h-23.657v-23.343z"></path>
<path fill="#d7d7d7" opacity="0.5" d="M22.039 8.919h3.587v16.698h-3.587v-16.698z"></path>
<path fill="#fff" d="M11.035 7.843h14.887v18.136h-14.887v-18.136z"></path>
<path fill="#fff" d="M20.003 13.408h3.049v2.154h-3.049v-2.154z"></path>
<path fill="#fff" d="M16.236 13.408h5.201v2.154h-5.201v-2.154z"></path>
<path fill="#fff" d="M14.083 13.408h3.408v2.154h-3.408v-2.154z"></path>
<path fill="#fff" d="M15.16 15.204h5.74v2.154h-5.74v-2.154z"></path>
<path fill="#fff" d="M14.083 15.204h2.511v2.154h-2.511v-2.154z"></path>
<path fill="#fff" d="M14.083 17h4.664v2.154h-4.664v-2.154z"></path>
<path fill="#fff" d="M14.083 18.795h3.229v2.154h-3.229v-2.154z"></path>
<path fill="#3ba07a" d="M17.671 10.715h12.018v9.157h-12.018v-9.157z"></path>
<path fill="#16103e" d="M22.283 12.603h4.192v3.895h-4.192v-3.895z"></path>
<path fill="#16103e" d="M22.403 13.907h3.518v3.472h-3.518v-3.472z"></path>
<path fill="#16103e" d="M12.533 23.463h4.125v2.514h-4.125v-2.514z"></path>
<path fill="#fff" d="M12.892 23.644h2.332v2.335h-2.332v-2.335z"></path>
</svg>
