<!-- Generated by IcoMoon.io -->
<svg version="1.1" xmlns="http://www.w3.org/2000/svg" width="35" height="32" viewBox="0 0 35 32">
<title>colored_backgrounds_vs_colored_element_profile</title>
<path fill="#16103e" d="M4.707 3.174h25.996v25.651h-25.996v-25.651z"></path>
<path fill="#d7d7d7" opacity="0.5" d="M20.323 9.196h4.16v12.062h-4.16v-12.062z"></path>
<path fill="none" stroke="#fff" stroke-linejoin="round" stroke-linecap="butt" stroke-miterlimit="4" stroke-width="0.5256" d="M10.486 10.789h14.329c0.001 0 0.002 0 0.003 0 0.253 0 0.459 0.206 0.459 0.459 0 0.002 0 0.003-0 0.005v-0 11.152h-15.25v-11.152c0-0.001 0-0.002 0-0.003 0-0.254 0.205-0.46 0.459-0.46h0z"></path>
<path fill="#16103e" d="M14.316 20.58h8.16c0.002 0 0.005 0 0.007 0 0.63 0 1.142-0.508 1.147-1.137v-10.708c-0.006-0.63-0.518-1.139-1.149-1.139-0.002 0-0.004 0-0.006 0h-8.159c-0.002 0-0.004 0-0.006 0-0.63 0-1.142 0.509-1.146 1.138v10.698c0 0.001 0 0.002 0 0.003 0 0.632 0.512 1.145 1.145 1.145 0.003 0 0.005 0 0.008-0h-0z"></path>
<path fill="none" stroke="#3ba07a" stroke-linejoin="miter" stroke-linecap="butt" stroke-miterlimit="10" stroke-width="0.5256" d="M14.319 20.58h8.157c0.003 0 0.006 0 0.009 0 0.63 0 1.141-0.508 1.146-1.137v-10.708c-0.004-0.63-0.516-1.139-1.146-1.139-0.003 0-0.006 0-0.009 0h-8.156c-0.003-0-0.006-0-0.009-0-0.63 0-1.142 0.509-1.146 1.138v10.698c0 0 0 0.001 0 0.002 0 0.633 0.513 1.146 1.146 1.146 0.003 0 0.006 0 0.009-0h-0z"></path>
<path fill="#16103e" d="M19.513 6.408h5.546v5.235h-5.546v-5.235z"></path>
<path fill="#16103e" d="M11.258 14.886h4.391v4.325h-4.391v-4.325z"></path>
<path fill="#16103e" d="M10.129 16.935h6.775v5.462h-6.775v-5.462z"></path>
<path fill="#3ba07a" d="M14.778 11.473h7.165v2.732h-7.165v-2.732z"></path>
<path fill="#3ba07a" d="M17.32 13.975h5.777v2.732h-5.777v-2.732z"></path>
<path fill="#3ba07a" d="M15.471 16.479h7.165v2.732h-7.165v-2.732z"></path>
<path fill="#3ba07a" d="M13.851 8.969h5.777v2.732h-5.777v-2.732z"></path>
<path fill="none" stroke="#fff" stroke-linejoin="round" stroke-linecap="butt" stroke-miterlimit="4" stroke-width="0.5256" d="M8.996 21.942h17.333c0.002-0 0.004-0 0.006-0 0.378 0 0.684 0.305 0.687 0.682v1.593c-0.003 0.378-0.31 0.683-0.688 0.683-0.002 0-0.003 0-0.005-0h-17.333c-0.001 0-0.003 0-0.004 0-0.378 0-0.685-0.305-0.688-0.682v-1.593c0.002-0.378 0.309-0.683 0.687-0.683 0.002 0 0.004 0 0.006 0h-0z"></path>
<path fill="#16103e" d="M9.69 23.079h5.546v3.186h-5.546v-3.186z"></path>
<path fill="#fff" d="M10.152 23.193h3.004v2.958h-3.004v-2.958z"></path>
</svg>
