<!-- Generated by IcoMoon.io -->
<svg version="1.1" xmlns="http://www.w3.org/2000/svg" width="32" height="32" viewBox="0 0 32 32">
<title>Color</title>
<path fill="#160f3e" d="M16 0c0.982 0 1.778 0.796 1.778 1.778l-0.002 12.444 12.446 0c0.982 0 1.778 0.796 1.778 1.778s-0.796 1.778-1.778 1.778l-12.446-0.002 0.002 12.446c0 0.982-0.796 1.778-1.778 1.778s-1.778-0.796-1.778-1.778l-0-12.446-12.444 0.002c-0.982 0-1.778-0.796-1.778-1.778s0.796-1.778 1.778-1.778l12.444-0 0-12.444c0-0.982 0.796-1.778 1.778-1.778z"></path>
</svg>
