<!-- Generated by IcoMoon.io -->
<svg version="1.1" xmlns="http://www.w3.org/2000/svg" width="35" height="32" viewBox="0 0 35 32">
<title>colored_backgrounds_vs_colored_element_payment</title>
<path fill="#16103e" d="M4.654 3.026h25.996v25.651h-25.996v-25.651z"></path>
<path fill="#fff" d="M6.823 11.248h19.125v10.423h-19.125v-10.423z"></path>
<path fill="#fff" d="M7.619 8.059h16.196v5.82h-16.196v-5.82z"></path>
<path fill="#fff" d="M10.816 6.985h11.405v6.020h-11.405v-6.020z"></path>
<path fill="#fff" d="M17.006 12.447h5.416v3.020h-5.416v-3.020z"></path>
<path fill="#fff" d="M12.012 12.447h8.011v8.020h-8.011v-8.020z"></path>
<path fill="#3ba07a" d="M19 13.247h9.409v12.619h-9.409v-12.619z"></path>
<path fill="#fff" d="M8.020 12.447h6.814v8.020h-6.814v-8.020z"></path>
<path fill="#fff" d="M13.852 13.846h4.218v5.221h-4.218v-5.221z"></path>
<path fill="#16103e" d="M8.858 18.605h5.81v3.389h-5.81v-3.389z"></path>
<path fill="#fff" d="M9.343 18.725h3.146v3.146h-3.146v-3.146z"></path>
</svg>
