<!-- Generated by IcoMoon.io -->
<svg version="1.1" xmlns="http://www.w3.org/2000/svg" width="35" height="32" viewBox="0 0 35 32">
<title>colored_backgrounds_vs_colored_element_completed-form</title>
<path fill="#16103e" d="M4.902 4.329h23.657v23.343h-23.657v-23.343z"></path>
<path fill="none" stroke="#fff" stroke-linejoin="miter" stroke-linecap="butt" stroke-miterlimit="10" stroke-width="0.6233" d="M10.129 7.859h9.876c0.001 0 0.003 0 0.004 0 0.541 0 0.981 0.438 0.983 0.978v14.886c-0.003 0.542-0.442 0.98-0.985 0.98-0.001 0-0.002 0-0.003 0h-9.875c-0.001 0-0.002 0-0.003 0-0.542 0-0.982-0.438-0.985-0.98v-14.886c0.003-0.541 0.442-0.979 0.983-0.979 0.002 0 0.003 0 0.005 0h-0z"></path>
<path fill="#16103e" d="M16.646 20.003h5.53v5.68h-5.53v-5.68z"></path>
<path fill="#000" d="M15.315 11.189h5.333v1.959h-5.333v-1.959z"></path>
<path fill="#000" d="M15.315 12.56h4.468v1.959h-4.468v-1.959z"></path>
<path fill="#000" d="M15.315 13.931h4.468v1.959h-4.468v-1.959z"></path>
<path fill="#000" d="M15.315 15.302h4.468v1.959h-4.468v-1.959z"></path>
<path fill="#000" d="M15.315 16.673h4.468v1.959h-4.468v-1.959z"></path>
<path fill="#000" d="M15.426 18.239h4.88v1.959h-4.88v-1.959z"></path>
<path fill="#fff" d="M9.141 10.993h7.308v2.35h-7.308v-2.35z"></path>
<path fill="#fff" d="M9.141 12.364h7.33v2.35h-7.33v-2.35z"></path>
<path fill="#fff" d="M9.141 13.735h7.33v2.35h-7.33v-2.35z"></path>
<path fill="#fff" d="M9.141 15.106h7.33v2.35h-7.33v-2.35z"></path>
<path fill="#fff" d="M9.141 16.477h7.33v2.35h-7.33v-2.35z"></path>
<path fill="#fff" d="M9.141 17.849h7.33v2.35h-7.33v-2.35z"></path>
<path fill="#fff" d="M9.141 19.22h7.33v2.35h-7.33v-2.35z"></path>
<path fill="#fff" d="M9.141 20.591h7.33v2.35h-7.33v-2.35z"></path>
<path fill="#fff" d="M8.319 9.523h13.463v1.959h-13.463v-1.959z"></path>
<path fill="#16103e" d="M17.238 12.168h8.028v8.031h-8.028v-8.031z"></path>
<path fill="#16103e" d="M10.129 23.136h4.741v2.742h-4.741v-2.742z"></path>
<path fill="#fff" d="M10.524 23.136h2.567v2.547h-2.567v-2.547z"></path>
</svg>
