<!-- Generated by IcoMoon.io -->
<svg version="1.1" xmlns="http://www.w3.org/2000/svg" width="32" height="32" viewBox="0 0 32 32">
<title>contact</title>
<path fill="#160f3e" d="M28.928 23.157l0-0.036c0.018-0.738-0.52-1.373-1.238-1.475-1.505-0.199-2.983-0.567-4.409-1.099-0.532-0.2-1.131-0.072-1.529 0.322l-1.847 1.847c-0.463 0.463-1.178 0.56-1.747 0.236-3.869-2.2-7.073-5.404-9.273-9.273-0.324-0.569-0.227-1.284 0.236-1.748l1.842-1.841c0.399-0.404 0.527-1.003 0.326-1.538-0.531-1.422-0.899-2.9-1.096-4.392-0.102-0.723-0.724-1.258-1.469-1.251h-4.362c-0.408 0-0.798 0.172-1.073 0.474s-0.411 0.705-0.377 1.089c0.453 4.269 1.906 8.371 4.247 11.984 2.119 3.334 4.946 6.161 8.291 8.287 3.587 2.326 7.669 3.778 11.892 4.237 0.408 0.037 0.812-0.1 1.114-0.377s0.473-0.668 0.471-1.084v-4.364zM31.837 27.514c0.005 1.229-0.508 2.403-1.414 3.233s-2.119 1.241-3.369 1.128c-4.702-0.511-9.219-2.118-13.176-4.684-3.695-2.348-6.827-5.48-9.168-9.164-2.582-3.986-4.19-8.525-4.693-13.271-0.11-1.22 0.297-2.43 1.123-3.335s1.994-1.421 3.22-1.422h4.349c2.19-0.021 4.057 1.584 4.365 3.766 0.17 1.288 0.485 2.552 0.938 3.766 0.599 1.595 0.216 3.392-0.988 4.609l-1.043 1.043c1.71 2.683 3.987 4.96 6.67 6.67l1.049-1.049c1.211-1.198 3.009-1.581 4.6-0.983 1.217 0.454 2.481 0.769 3.782 0.941 2.187 0.309 3.798 2.203 3.753 4.409v4.341z"></path>
</svg>
