<!-- Generated by IcoMoon.io -->
<svg version="1.1" xmlns="http://www.w3.org/2000/svg" width="28" height="32" viewBox="0 0 28 32">
<title>delete</title>
<path fill="#160f3e" d="M16.75 26h1.5c0.414 0 0.75-0.336 0.75-0.75v-13.5c0-0.414-0.336-0.75-0.75-0.75h-1.5c-0.414 0-0.75 0.336-0.75 0.75v13.5c0 0.414 0.336 0.75 0.75 0.75zM27 5h-5.151l-2.125-3.544c-0.542-0.904-1.52-1.457-2.574-1.456h-6.301c-1.054 0-2.030 0.553-2.572 1.456l-2.126 3.544h-5.151c-0.552 0-1 0.448-1 1v1c0 0.552 0.448 1 1 1h1v21c0 1.657 1.343 3 3 3h18c1.657 0 3-1.343 3-3v-21h1c0.552 0 1-0.448 1-1v-1c0-0.552-0.448-1-1-1zM10.74 3.182c0.068-0.113 0.19-0.182 0.322-0.182h5.875c0.132-0 0.254 0.069 0.322 0.182l1.091 1.818h-8.701l1.091-1.818zM23 29h-18v-21h18v21zM9.75 26h1.5c0.414 0 0.75-0.336 0.75-0.75v-13.5c0-0.414-0.336-0.75-0.75-0.75h-1.5c-0.414 0-0.75 0.336-0.75 0.75v13.5c0 0.414 0.336 0.75 0.75 0.75z"></path>
</svg>
