<!-- Generated by IcoMoon.io -->
<svg version="1.1" xmlns="http://www.w3.org/2000/svg" width="32" height="32" viewBox="0 0 32 32">
<title>download-white</title>
<path fill="#fff" d="M30.4 19.2c0.884 0 1.6 0.716 1.6 1.6v6.4c0 2.651-2.149 4.8-4.8 4.8h-22.4c-2.651 0-4.8-2.149-4.8-4.8v-6.4c0-0.884 0.716-1.6 1.6-1.6s1.6 0.716 1.6 1.6v6.4c0 0.884 0.716 1.6 1.6 1.6h22.4c0.884 0 1.6-0.716 1.6-1.6v-6.4c0-0.884 0.716-1.6 1.6-1.6zM15.886 22.395l0.114 0.005-0.052-0.001-0.043-0.002-0.019-0.002zM17.043 22.011l-0.056 0.048 0.020-0.020 0.037-0.029zM17.131 21.931l-0.070 0.066-0.018 0.014 0.088-0.080zM15.869 22.394l-0.107-0.011c-0.027-0.004-0.055-0.009-0.083-0.015-0.035-0.007-0.070-0.015-0.104-0.025-0.025-0.007-0.050-0.014-0.074-0.022-0.031-0.010-0.063-0.022-0.094-0.034l-0.083-0.036c-0.033-0.016-0.066-0.032-0.098-0.050-0.019-0.011-0.039-0.022-0.058-0.034-0.041-0.025-0.081-0.052-0.119-0.081l-0.035-0.027c-0.050-0.040-0.099-0.082-0.144-0.128l-8-8c-0.625-0.625-0.625-1.638 0-2.263s1.638-0.625 2.263 0l5.269 5.267v-15.336c0-0.884 0.716-1.6 1.6-1.6s1.6 0.716 1.6 1.6v15.336l5.269-5.267c0.625-0.625 1.638-0.625 2.263 0s0.625 1.638 0 2.263l-8 8-0.125 0.109-0.054 0.046c-0.039 0.029-0.078 0.055-0.119 0.080l-0.059 0.034c-0.032 0.017-0.064 0.034-0.098 0.050l-0.083 0.036c-0.032 0.013-0.063 0.024-0.095 0.035-0.024 0.008-0.048 0.015-0.073 0.022-0.035 0.010-0.069 0.018-0.104 0.025-0.028 0.006-0.056 0.010-0.084 0.015-0.033 0.005-0.066 0.009-0.1 0.012-0.029 0.002-0.056 0.004-0.084 0.005l-0.026 0.001-0.027 0-0.131-0.006zM15.869 22.394l0.003 0.002-0.010-0.001 0.007-0z"></path>
</svg>
