<!-- Generated by IcoMoon.io -->
<svg version="1.1" xmlns="http://www.w3.org/2000/svg" width="32" height="32" viewBox="0 0 32 32">
<title>edit</title>
<path fill="#160f3e" d="M27.61 9.090l-16.673 16.673-5.74 0.635c-1.663 0.184-3.079-1.219-2.895-2.895l0.635-5.74 16.673-16.673c1.454-1.454 3.803-1.454 5.251 0l2.743 2.743c1.454 1.454 1.454 3.81 0.006 5.257v0zM21.337 11.052l-3.689-3.689-11.797 11.803-0.463 4.146 4.146-0.463 11.803-11.797zM25.451 5.992l-2.743-2.743c-0.26-0.26-0.686-0.26-0.94 0l-1.962 1.962 3.689 3.689 1.962-1.962c0.254-0.267 0.254-0.686-0.006-0.946v0z"></path>
<path fill="#160f3e" d="M2.286 27.429h27.429c1.262 0 2.286 1.023 2.286 2.286s-1.023 2.286-2.286 2.286h-27.429c-1.262 0-2.286-1.023-2.286-2.286s1.023-2.286 2.286-2.286z"></path>
</svg>
