<!-- Generated by IcoMoon.io -->
<svg version="1.1" xmlns="http://www.w3.org/2000/svg" width="35" height="32" viewBox="0 0 35 32">
<title>export</title>
<path d="M19.2 1.603c0-1.449 1.772-2.152 2.765-1.097l12.8 13.6c0.577 0.613 0.58 1.57 0.006 2.186l-12.8 13.76c-0.99 1.064-2.771 0.364-2.771-1.090v-6.525c-6.419 0.287-11.933 2.32-16.591 6.103-1.046 0.849-2.609 0.105-2.609-1.242 0-10.328 8.171-18.518 19.2-19.244v-6.452zM22.4 9.603c0 0.884-0.716 1.6-1.6 1.6-8.8 0-15.624 5.376-17.237 12.719 4.986-3.145 10.744-4.719 17.237-4.719 0.884 0 1.6 0.716 1.6 1.6v4.091l9.009-9.684-9.009-9.572v3.965z"></path>
</svg>
