<!-- Generated by IcoMoon.io -->
<svg version="1.1" xmlns="http://www.w3.org/2000/svg" width="37" height="32" viewBox="0 0 37 32">
<title>external</title>
<path fill="#160f3e" d="M37.333 1.445v7.707c0 1.292-1.563 1.926-2.467 1.022l-2.15-2.15-14.664 14.664c-0.564 0.564-1.479 0.564-2.044 0l-1.363-1.363c-0.564-0.564-0.564-1.479 0-2.044l14.664-14.664-2.15-2.15c-0.908-0.908-0.265-2.467 1.022-2.467h7.706c0.798 0 1.445 0.647 1.445 1.445zM25.843 17.642l-1.016 0.952c-0.286 0.268-0.446 0.631-0.446 1.010v8.585h-20.317v-19.048h16.762c0.404-0 0.792-0.151 1.077-0.418l1.016-0.952c0.96-0.9 0.28-2.439-1.077-2.439h-18.794c-1.683 0-3.048 1.279-3.048 2.857v20.952c0 1.578 1.364 2.857 3.048 2.857h22.349c1.683 0 3.048-1.279 3.048-2.857v-10.49c0-1.273-1.641-1.91-2.601-1.010z"></path>
</svg>
