<!-- Generated by IcoMoon.io -->
<svg version="1.1" xmlns="http://www.w3.org/2000/svg" width="43" height="32" viewBox="0 0 43 32">
<title>eye</title>
<path d="M21.333 0c6.009 0 11.269 2.902 15.741 7.673 1.537 1.639 2.871 3.389 4.002 5.14 0.683 1.058 1.152 1.892 1.402 2.392s0.25 1.090 0 1.59c-0.25 0.5-0.719 1.334-1.402 2.392-1.131 1.751-2.465 3.501-4.002 5.14-4.473 4.771-9.733 7.673-15.741 7.673s-11.269-2.902-15.741-7.673c-1.537-1.639-2.871-3.389-4.002-5.14-0.683-1.058-1.152-1.892-1.402-2.392s-0.25-1.090 0-1.59c0.25-0.5 0.719-1.334 1.402-2.392 1.131-1.751 2.465-3.501 4.002-5.14 4.473-4.771 9.733-7.673 15.741-7.673zM21.333 3.556c-4.88 0-9.287 2.431-13.148 6.549-1.38 1.472-2.587 3.055-3.609 4.637-0.29 0.449-0.547 0.871-0.771 1.258 0.224 0.387 0.481 0.809 0.771 1.258 1.022 1.582 2.229 3.165 3.609 4.637 3.861 4.118 8.267 6.549 13.148 6.549s9.287-2.431 13.148-6.549c1.38-1.472 2.587-3.055 3.609-4.637 0.29-0.449 0.547-0.871 0.771-1.258-0.224-0.387-0.481-0.809-0.771-1.258-1.022-1.582-2.229-3.165-3.609-4.637-3.861-4.118-8.267-6.549-13.148-6.549zM21.333 8.889c3.927 0 7.111 3.184 7.111 7.111s-3.184 7.111-7.111 7.111c-3.927 0-7.111-3.184-7.111-7.111s3.184-7.111 7.111-7.111zM21.333 12.444c-1.964 0-3.556 1.592-3.556 3.556s1.592 3.556 3.556 3.556c1.964 0 3.556-1.592 3.556-3.556s-1.592-3.556-3.556-3.556z"></path>
</svg>
