<!-- Generated by IcoMoon.io -->
<svg version="1.1" xmlns="http://www.w3.org/2000/svg" width="35" height="32" viewBox="0 0 35 32">
<title>favourite</title>
<path fill="#160f3e" d="M34.9 9.908c0 2.628-1.044 5.148-2.902 7.005l-13.47 13.47c-0.595 0.595-1.56 0.595-2.155 0l-13.47-13.47c-3.869-3.869-3.869-10.141 0-14.010s10.141-3.869 14.010 0l0.538 0.538 0.538-0.538c1.858-1.859 4.378-2.903 7.005-2.903s5.148 1.044 7.005 2.902c1.858 1.858 2.902 4.378 2.902 7.005zM28.227 16.373l1.616-1.616c1.287-1.286 2.010-3.031 2.010-4.85s-0.723-3.564-2.010-4.85c-1.287-1.287-3.031-2.010-4.85-2.010s-3.564 0.723-4.85 2.010l-1.615 1.615c-0.595 0.595-1.56 0.595-2.155 0l-1.615-1.615c-2.679-2.679-7.022-2.679-9.7 0s-2.679 7.022 0 9.7l12.393 12.393 10.778-10.778z"></path>
</svg>
