<!-- Generated by IcoMoon.io -->
<svg version="1.1" xmlns="http://www.w3.org/2000/svg" width="35" height="32" viewBox="0 0 35 32">
<title>Filled_profile</title>
<path fill="#16103e" d="M4.935 3.589h25.747v25.404h-25.747v-25.404z"></path>
<path fill="#d7d7d7" opacity="0.5" d="M20.219 10.010h3.873v11.331h-3.873v-11.331z"></path>
<path fill="#3ba07a" d="M9.032 21.982h17.427v1.495c-0.003 0.709-0.578 1.284-1.288 1.284-0.001 0-0.002 0-0.003 0h-14.847c-0 0-0.001 0-0.001 0-0.71 0-1.285-0.574-1.287-1.284v-0z"></path>
<path fill="none" stroke="#16103e" stroke-linejoin="round" stroke-linecap="butt" stroke-miterlimit="4" stroke-width="0.4916" d="M9.032 21.982h17.427v1.495c-0.003 0.709-0.578 1.284-1.288 1.284-0.001 0-0.002 0-0.003 0h-14.847c-0 0-0.001 0-0.001 0-0.71 0-1.285-0.574-1.287-1.284v-0z"></path>
<path fill="#3ba07a" d="M11.062 11.507h13.34c0 0 0.001 0 0.001 0 0.236 0 0.427 0.191 0.428 0.426v10.475h-14.202v-10.475c0.002-0.236 0.193-0.426 0.429-0.426 0.001 0 0.002 0 0.003 0h-0z"></path>
<path fill="none" stroke="#16103e" stroke-linejoin="round" stroke-linecap="butt" stroke-miterlimit="4" stroke-width="0.4916" d="M11.060 11.507h13.34c0.001 0 0.002 0 0.003 0 0.236 0 0.427 0.191 0.428 0.426v10.475h-14.202v-10.475c0.001-0.236 0.192-0.426 0.428-0.426 0.001 0 0.002 0 0.003 0h-0z"></path>
<path fill="#3ba07a" d="M13.983 20.699h7.594c0.001 0 0.003 0 0.004 0 0.591 0 1.070-0.478 1.070-1.069v-10.047c-0.001-0.591-0.48-1.069-1.070-1.069-0.002 0-0.003 0-0.005 0h-7.594c-0.001 0-0.002 0-0.003 0-0.591 0-1.070 0.478-1.072 1.069v10.047c0.002 0.591 0.481 1.069 1.072 1.069 0.001 0 0.002 0 0.003 0h-0z"></path>
<path fill="none" stroke="#16103e" stroke-linejoin="miter" stroke-linecap="butt" stroke-miterlimit="10" stroke-width="0.4916" d="M13.984 20.699h7.594c0.001 0 0.002 0 0.003 0 0.591 0 1.070-0.478 1.072-1.069v-10.047c-0.002-0.591-0.481-1.069-1.072-1.069-0.001 0-0.002 0-0.003 0h-7.594c-0.001 0-0.003 0-0.004 0-0.591 0-1.070 0.478-1.072 1.069v10.047c0.002 0.591 0.481 1.069 1.072 1.069 0.002 0 0.003 0 0.005 0h-0z"></path>
<path fill="#16103e" d="M18.818 7.444h4.95v4.864h-4.95v-4.864z"></path>
<path fill="#3ba07a" d="M18.45 7.744h4.942v4.726h-4.942v-4.726z"></path>
<path fill="#3ba07a" d="M11.781 15.355h4.088v4.061h-4.088v-4.061z"></path>
<path fill="#3ba07a" d="M10.728 17.279h6.309v5.13h-6.309v-5.13z"></path>
<path fill="#16103e" d="M15.055 12.148h6.67v2.566h-6.67v-2.566z"></path>
<path fill="#16103e" d="M17.424 14.499h5.379v2.566h-5.379v-2.566z"></path>
<path fill="#16103e" d="M15.7 16.851h6.67v2.566h-6.67v-2.566z"></path>
<path fill="#16103e" d="M14.196 9.796h5.379v2.566h-5.379v-2.566z"></path>
<path fill="#3ba07a" d="M16.559 18.989h5.164v2.992h-5.164v-2.992z"></path>
<path fill="#16103e" d="M16.991 19.095h2.797v2.779h-2.797v-2.779z"></path>
</svg>
