<!-- Generated by IcoMoon.io -->
<svg version="1.1" xmlns="http://www.w3.org/2000/svg" width="35" height="32" viewBox="0 0 35 32">
<title>Filled_documents</title>
<path fill="#16103e" d="M4.526 3.46h25.747v25.404h-25.747v-25.404z"></path>
<path fill="#3ba07a" d="M8.451 6.081h17.259v21.395h-17.259v-21.395z"></path>
<path fill="none" stroke="#16103e" stroke-linejoin="miter" stroke-linecap="butt" stroke-miterlimit="10" stroke-width="0.4516" d="M11.657 9.525h10.848c0.409 0 0.74 0.331 0.74 0.74v0 13.77c0 0.409-0.331 0.74-0.74 0.74v0h-10.848c-0.409 0-0.74-0.331-0.74-0.74v0-13.77c0-0.409 0.331-0.74 0.74-0.74v0z"></path>
<path fill="#3ba07a" d="M17.265 5.589h0.123c0.021-0.001 0.046-0.001 0.072-0.001 0.305 0 0.593 0.073 0.846 0.203l-0.011-0.005c0.24 0.128 0.432 0.319 0.558 0.551l0.004 0.007c0.125 0.243 0.198 0.53 0.198 0.834 0 0.027-0.001 0.054-0.002 0.080l0-0.004v0.613c0.001 0.021 0.001 0.046 0.001 0.071 0 0.305-0.073 0.592-0.203 0.846l0.005-0.011c-0.129 0.238-0.321 0.428-0.554 0.55l-0.007 0.004c-0.244 0.126-0.533 0.2-0.839 0.2-0.024 0-0.048-0-0.072-0.001l0.003 0h-0.123c-0.020 0.001-0.044 0.001-0.068 0.001-0.306 0-0.594-0.074-0.848-0.205l0.010 0.005c-0.24-0.127-0.431-0.318-0.556-0.55l-0.004-0.007c-0.127-0.245-0.201-0.534-0.201-0.841 0-0.023 0-0.046 0.001-0.069l-0 0.003v-0.61c-0.001-0.020-0.001-0.044-0.001-0.067 0-0.306 0.074-0.595 0.206-0.849l-0.005 0.010c0.129-0.239 0.32-0.43 0.552-0.555l0.007-0.004c0.245-0.128 0.536-0.202 0.844-0.202 0.022 0 0.044 0 0.066 0.001l-0.003-0z"></path>
<path fill="none" stroke="#16103e" stroke-linejoin="miter" stroke-linecap="butt" stroke-miterlimit="10" stroke-width="0.4516" d="M17.265 5.589h0.121c0.022-0.001 0.047-0.001 0.072-0.001 0.305 0 0.592 0.073 0.846 0.203l-0.010-0.005c0.24 0.128 0.431 0.319 0.556 0.551l0.003 0.007c0.126 0.243 0.2 0.531 0.2 0.837 0 0.026-0.001 0.052-0.002 0.078l0-0.004v0.613c0.001 0.020 0.001 0.044 0.001 0.068 0 0.306-0.074 0.594-0.205 0.848l0.005-0.010c-0.129 0.238-0.32 0.427-0.552 0.55l-0.007 0.004c-0.244 0.126-0.532 0.2-0.838 0.2-0.025 0-0.049-0-0.073-0.001l0.003 0h-0.121c-0.021 0.001-0.045 0.001-0.069 0.001-0.306 0-0.596-0.074-0.851-0.205l0.011 0.005c-0.239-0.128-0.43-0.318-0.555-0.55l-0.004-0.007c-0.126-0.244-0.2-0.532-0.2-0.838 0-0.024 0-0.048 0.001-0.072l-0 0.003v-0.61c-0.001-0.021-0.001-0.045-0.001-0.070 0-0.305 0.074-0.593 0.205-0.847l-0.005 0.010c0.128-0.239 0.319-0.43 0.551-0.555l0.007-0.004c0.246-0.128 0.537-0.202 0.846-0.202 0.022 0 0.045 0 0.067 0.001l-0.003-0z"></path>
<path fill="#3ba07a" d="M12.889 8.049h8.63c0 0 0 0 0 0 0.135 0 0.244 0.108 0.246 0.243v2.221c0 0.136-0.11 0.246-0.246 0.246v0h-8.63c-0.136 0-0.246-0.11-0.246-0.246v0-2.221c0.002-0.134 0.111-0.243 0.246-0.243 0 0 0 0 0 0v0z"></path>
<path fill="none" stroke="#16103e" stroke-linejoin="round" stroke-linecap="butt" stroke-miterlimit="4" stroke-width="0.4516" d="M12.89 8.049h8.629c0 0 0 0 0 0 0.135 0 0.244 0.108 0.246 0.243v2.221c0 0 0 0 0 0 0 0.136-0.11 0.246-0.246 0.246-0.001 0-0.001 0-0.002 0h-8.627c-0 0-0.001 0-0.001 0-0.136 0-0.246-0.11-0.246-0.246 0 0 0 0 0 0v0-2.221c0.002-0.134 0.111-0.243 0.246-0.243 0.001 0 0.001 0 0.002 0h-0z"></path>
<path fill="#3ba07a" d="M14.861 6.572h4.932v3.442h-4.932v-3.442z"></path>
<path fill="#16103e" d="M19.054 11.738h4.192v2.951h-4.192v-2.951z"></path>
<path fill="#16103e" d="M13.876 11.738h7.15v2.951h-7.15v-2.951z"></path>
<path fill="#16103e" d="M10.916 11.738h4.685v2.951h-4.685v-2.951z"></path>
<path fill="#16103e" d="M12.396 14.196h7.89v2.951h-7.89v-2.951z"></path>
<path fill="#16103e" d="M10.916 14.196h3.451v2.951h-3.451v-2.951z"></path>
<path fill="#16103e" d="M10.916 16.655h6.411v2.951h-6.411v-2.951z"></path>
<path fill="#16103e" d="M10.916 19.114h4.437v2.951h-4.437v-2.951z"></path>
<path fill="#3ba07a" d="M18.892 20.388h6.347v5.937h-6.347v-5.937z"></path>
<path fill="#3ba07a" d="M15.848 11.245h12.82v9.837h-12.82v-9.837z"></path>
<path fill="#16103e" d="M16.584 16.708h3.932v3.77h-3.932v-3.77z"></path>
<path fill="#16103e" d="M17.539 11.877h9.719v7.666h-9.719v-7.666z"></path>
<path fill="#16103e" d="M17.943 12.665h9.757v7.706h-9.757v-7.706z"></path>
<path fill="#16103e" d="M24.763 11.661h3.484v3.73h-3.484v-3.73z"></path>
<path fill="#3ba07a" d="M11.411 22.804h5.671v3.442h-5.671v-3.442z"></path>
<path fill="#16103e" d="M11.904 22.927h3.205v3.197h-3.205v-3.197z"></path>
</svg>
