<!-- Generated by IcoMoon.io -->
<svg version="1.1" xmlns="http://www.w3.org/2000/svg" width="35" height="32" viewBox="0 0 35 32">
<title>Filled_completed-form</title>
<path fill="#16103e" d="M5.274 3.46h25.744v25.404h-25.744v-25.404z"></path>
<path fill="#3ba07a" d="M12.036 5.589h12.256c0.678 0.004 1.226 0.555 1.226 1.233 0 0.002 0 0.004 0 0.006v-0 18.826c0 0.001 0 0.003 0 0.004 0 0.679-0.548 1.229-1.226 1.233h-12.257c-0.678-0.003-1.227-0.553-1.227-1.232 0-0.002 0-0.004 0-0.006v0-18.826c0-0.002-0-0.005-0-0.007 0-0.679 0.549-1.229 1.227-1.232h0z"></path>
<path fill="none" stroke="#16103e" stroke-linejoin="miter" stroke-linecap="butt" stroke-miterlimit="10" stroke-width="0.5656" d="M12.036 5.589h12.256c0.678 0.004 1.226 0.555 1.226 1.233 0 0.002 0 0.004 0 0.006v-0 18.824c0 0.002 0 0.004 0 0.006 0 0.679-0.548 1.229-1.226 1.233h-12.257c-0.678-0.003-1.227-0.553-1.227-1.232 0-0.003 0-0.005 0-0.008v0-18.824c0-0.002-0-0.005-0-0.007 0-0.679 0.549-1.229 1.227-1.232h0z"></path>
<path fill="#16103e" d="M20.37 20.699h7.073v7.431h-7.073v-7.431z"></path>
<path fill="#3ba07a" d="M20.063 20.699h6.784v7.076h-6.784v-7.076z"></path>
<path fill="#3ba07a" d="M12.708 10.791h6.128c0.129 0.010 0.23 0.117 0.23 0.248s-0.101 0.238-0.229 0.248l-0.001 0h-6.128c-0.129-0.010-0.23-0.117-0.23-0.248s0.101-0.238 0.229-0.248l0.001-0z"></path>
<path fill="#3ba07a" d="M12.708 12.524h6.158c0.129 0.010 0.23 0.117 0.23 0.248s-0.101 0.238-0.229 0.248l-0.001 0h-6.158c-0.129-0.010-0.23-0.117-0.23-0.248s0.101-0.238 0.229-0.248l0.001-0z"></path>
<path fill="#3ba07a" d="M12.708 14.26h6.158c0.137 0 0.247 0.111 0.247 0.247s-0.111 0.247-0.247 0.247h-6.158c-0.137 0-0.247-0.111-0.247-0.247s0.111-0.247 0.247-0.247v0z"></path>
<path fill="#3ba07a" d="M12.708 15.99h6.158c0.137 0 0.247 0.111 0.247 0.247s-0.111 0.247-0.247 0.247h-6.158c-0.137 0-0.247-0.111-0.247-0.247s0.111-0.247 0.247-0.247v0z"></path>
<path fill="#3ba07a" d="M12.708 17.727h6.158c0.129 0.010 0.23 0.117 0.23 0.248s-0.101 0.238-0.229 0.248l-0.001 0h-6.158c-0.129-0.010-0.23-0.117-0.23-0.248s0.101-0.238 0.229-0.248l0.001-0z"></path>
<path fill="#3ba07a" d="M12.708 19.461h6.158c0.129 0.010 0.23 0.117 0.23 0.248s-0.101 0.238-0.229 0.248l-0.001 0h-6.158c-0.129-0.010-0.23-0.117-0.23-0.248s0.101-0.238 0.229-0.248l0.001-0z"></path>
<path fill="#3ba07a" d="M12.708 21.195h6.158c0.129 0.010 0.23 0.117 0.23 0.248s-0.101 0.238-0.229 0.248l-0.001 0h-6.158c-0.129-0.010-0.23-0.117-0.23-0.248s0.101-0.238 0.229-0.248l0.001-0z"></path>
<path fill="#3ba07a" d="M12.708 22.928h6.158c0.129 0.010 0.23 0.117 0.23 0.248s-0.101 0.238-0.229 0.248l-0.001 0h-6.158c-0.129-0.010-0.23-0.117-0.23-0.248s0.101-0.238 0.229-0.248l0.001-0z"></path>
<path fill="#000" d="M10.216 7.695h16.708v2.477h-16.708v-2.477z"></path>
<path fill="#16103e" d="M21.286 11.039h9.964v10.155h-9.964v-10.155z"></path>
<path fill="#3ba07a" d="M22.022 11.905h8.268v8.422h-8.268v-8.422z"></path>
<path fill="#3ba07a" d="M12.281 7.323h5.638v3.468h-5.638v-3.468z"></path>
<path fill="#16103e" d="M12.772 7.447h3.186v3.22h-3.186v-3.22z"></path>
</svg>
