<!-- Generated by IcoMoon.io -->
<svg version="1.1" xmlns="http://www.w3.org/2000/svg" width="35" height="32" viewBox="0 0 35 32">
<title>Filled_completed-profile</title>
<path fill="#16103e" d="M4.83 3.399h25.745v25.404h-25.744v-25.404z"></path>
<path fill="#16103e" d="M24.561 2.513h2.433v2.84h-2.433v-2.84z"></path>
<path fill="#16103e" d="M19.307 6.717h2.606v2.554h-2.606v-2.554z"></path>
<path fill="#3ba07a" d="M11.211 8.393h12.159c0 0 0.001 0 0.001 0 0.559 0 1.013 0.453 1.013 1.013 0 0.001 0 0.001 0 0.002v-0 16.021c0 0 0 0.001 0 0.001 0 0.559-0.453 1.013-1.013 1.013-0.001 0-0.001 0-0.002 0h-12.158c-0.559-0.001-1.013-0.455-1.013-1.014v0-16.021c0 0 0 0 0 0 0-0.56 0.453-1.013 1.013-1.014h0z"></path>
<path fill="none" stroke="#16103e" stroke-linejoin="miter" stroke-linecap="butt" stroke-miterlimit="10" stroke-width="0.5582" d="M11.211 8.393h12.16c0.559 0.001 1.013 0.455 1.013 1.014v0 16.021c0 0 0 0 0 0 0 0.56-0.453 1.013-1.013 1.014h-12.16c-0.559-0.001-1.013-0.455-1.013-1.014v0-16.021c0 0 0 0 0 0 0-0.56 0.453-1.013 1.013-1.014h0z"></path>
<path fill="#3ba07a" d="M13.238 10.422h8.512v8.518h-8.512v-8.518z"></path>
<path fill="#3ba07a" d="M15.469 12.045h4.054v4.258h-4.054v-4.258z"></path>
<path fill="#16103e" d="M13.642 19.143h8.106v2.434h-8.106v-2.434z"></path>
<path fill="#16103e" d="M13.642 20.765h8.309v2.434h-8.309v-2.434z"></path>
<path fill="#16103e" d="M20.33 16.303h8.238v8.315h-8.238v-8.315z"></path>
<path fill="#3ba07a" d="M20.94 17.013h6.836v6.895h-6.836v-6.895z"></path>
<path fill="#16103e" d="M12.225 19.040h2.634v2.637h-2.634v-2.637z"></path>
<path fill="#16103e" d="M12.225 20.663h2.634v2.637h-2.634v-2.637z"></path>
</svg>
