<!-- Generated by IcoMoon.io -->
<svg version="1.1" xmlns="http://www.w3.org/2000/svg" width="35" height="32" viewBox="0 0 35 32">
<title>Filled_regulations</title>
<path fill="#16103e" d="M5.828 3.399h25.747v25.404h-25.747v-25.404z"></path>
<path fill="#3ba07a" d="M20.511 9.005h5.465v7.15h-5.465v-7.15z"></path>
<path fill="#3ba07a" d="M13.291 9.005h5.465v7.15h-5.465v-7.15z"></path>
<path fill="#16103e" d="M12.803 8.524h6.258v8.197h-6.258v-8.197z"></path>
<path fill="#3ba07a" d="M14.969 17.443h9.628v2.893h-9.628v-2.893z"></path>
<path fill="#16103e" d="M20.023 8.524h6.258v8.197h-6.258v-8.197z"></path>
<path fill="#3ba07a" d="M14.969 5.872h9.628v13.499h-9.628v-13.499z"></path>
<path fill="#3ba07a" d="M10.634 19.297h15.885v7.746h-15.885v-7.746z"></path>
<path fill="#16103e" d="M10.634 18.889h16.368v8.436h-16.368v-8.436z"></path>
<path fill="#3ba07a" d="M13.798 17.321h3.128v3.134h-3.128v-3.134z"></path>
</svg>
