<!-- Generated by IcoMoon.io -->
<svg version="1.1" xmlns="http://www.w3.org/2000/svg" width="35" height="32" viewBox="0 0 35 32">
<title>Filled_payment</title>
<path fill="#16103e" d="M4.517 3.399h25.744v25.404h-25.744v-25.404z"></path>
<path fill="#3ba07a" d="M7.015 11.621h18.398v10.12h-18.398v-10.12z"></path>
<path fill="#3ba07a" d="M7.652 8.386h15.742v5.922h-15.742v-5.922z"></path>
<path fill="#16103e" d="M6.673 11.278h19.125v10.628h-19.125v-10.628z"></path>
<path fill="#3ba07a" d="M10.595 7.187h11.232v6.407h-11.232v-6.407z"></path>
<path fill="#16103e" d="M7.471 8.026h16.196v5.934h-16.196v-5.934z"></path>
<path fill="#16103e" d="M10.666 6.931h11.405v6.139h-11.405v-6.139z"></path>
<path fill="#16103e" d="M16.857 12.501h5.416v3.080h-5.416v-3.080z"></path>
<path fill="#16103e" d="M11.864 12.501h8.011v8.177h-8.011v-8.177z"></path>
<path fill="#3ba07a" d="M19.351 13.697h8.515v12.065h-8.515v-12.065z"></path>
<path fill="#16103e" d="M18.852 13.316h9.409v12.866h-9.409v-12.866z"></path>
<path fill="#16103e" d="M7.871 12.501h6.814v8.177h-6.814v-8.177z"></path>
<path fill="#16103e" d="M13.703 13.928h4.218v5.323h-4.218v-5.323z"></path>
<path fill="#3ba07a" d="M9.436 11.127h5.81v3.456h-5.81v-3.456z"></path>
<path fill="#16103e" d="M9.92 11.251h3.146v3.208h-3.146v-3.208z"></path>
</svg>
