<!-- Generated by IcoMoon.io -->
<svg version="1.1" xmlns="http://www.w3.org/2000/svg" width="35" height="32" viewBox="0 0 35 32">
<title>Filled_storage</title>
<path fill="#16103e" d="M4.91 3.46h25.745v25.404h-25.744v-25.404z"></path>
<path fill="#3ba07a" d="M9.341 13.157h15.296c0 0 0 0 0 0 0.242 0 0.438 0.193 0.444 0.433v9.963c-0.006 0.241-0.202 0.434-0.444 0.434-0 0-0 0-0 0h-15.296c-0 0-0 0-0 0-0.242 0-0.438-0.193-0.444-0.433v-9.963c0.006-0.241 0.202-0.434 0.444-0.434 0 0 0 0 0 0v0z"></path>
<path fill="none" stroke="#16103e" stroke-linejoin="miter" stroke-linecap="butt" stroke-miterlimit="10" stroke-width="0.499" d="M9.338 13.157h15.299c0 0 0.001 0 0.001 0 0.24 0 0.434 0.194 0.435 0.434v9.963c-0.002 0.239-0.196 0.432-0.435 0.432-0.001 0-0.001 0-0.002 0h-15.299c-0.003 0-0.006 0-0.009 0-0.24 0-0.434-0.194-0.435-0.434v-9.961c0.001-0.24 0.195-0.434 0.435-0.434 0.003 0 0.006 0 0.009 0h-0z"></path>
<path fill="none" stroke="#16103e" stroke-linejoin="miter" stroke-linecap="butt" stroke-miterlimit="10" stroke-width="0.499" d="M14.584 16.623h4.812c0 0 0.001 0 0.001 0 0.24 0 0.434 0.194 0.435 0.434v6.497c-0.002 0.239-0.196 0.432-0.435 0.432-0.001 0-0.001 0-0.002 0h-4.812c-0.003 0-0.006 0-0.009 0-0.24 0-0.434-0.194-0.435-0.434v-6.495c0.001-0.24 0.195-0.434 0.435-0.434 0.003 0 0.006 0 0.009 0h-0z"></path>
<path fill="none" stroke="#16103e" stroke-linejoin="miter" stroke-linecap="butt" stroke-miterlimit="10" stroke-width="0.499" d="M20.703 14.457h2.404c0.003-0 0.006-0 0.009-0 0.24 0 0.434 0.194 0.435 0.434v2.166c-0.002 0.239-0.196 0.432-0.435 0.432-0.003 0-0.006-0-0.009-0h-2.404c-0.003 0-0.006 0-0.009 0-0.239 0-0.434-0.193-0.435-0.432v-2.166c0.001-0.24 0.195-0.434 0.435-0.434 0.003 0 0.006 0 0.009 0h-0z"></path>
<path fill="none" stroke="#16103e" stroke-linejoin="miter" stroke-linecap="butt" stroke-miterlimit="10" stroke-width="0.499" d="M11.088 14.457h2.404c0.003-0 0.006-0 0.009-0 0.24 0 0.434 0.194 0.435 0.434v2.166c-0.002 0.239-0.196 0.432-0.435 0.432-0.003 0-0.006-0-0.009-0h-2.404c-0.003 0-0.006 0-0.009 0-0.239 0-0.434-0.193-0.435-0.432v-2.166c0.001-0.24 0.195-0.434 0.435-0.434 0.003 0 0.006 0 0.009 0h-0z"></path>
<path fill="#3ba07a" d="M8.895 10.774h16.174c0 0 0.001 0 0.001 0 0.24 0 0.434 0.194 0.434 0.434 0 0 0 0 0 0v0 2.166c0 0 0 0 0 0 0 0.24-0.194 0.434-0.434 0.434-0.001 0-0.001 0-0.002 0h-16.174c0 0 0 0 0 0-0.24 0-0.434-0.194-0.435-0.434v-2.166c0.001-0.24 0.195-0.434 0.435-0.434 0 0 0 0 0 0v0z"></path>
<path fill="none" stroke="#16103e" stroke-linejoin="miter" stroke-linecap="butt" stroke-miterlimit="10" stroke-width="0.499" d="M8.897 10.774h16.171c0 0 0 0 0 0 0.242 0 0.438 0.193 0.444 0.433v2.167c-0.002 0.239-0.196 0.432-0.435 0.432-0.003 0-0.006-0-0.009-0h-16.171c-0.003 0-0.006 0-0.009 0-0.239 0-0.434-0.193-0.435-0.432v-2.166c0.001-0.24 0.195-0.434 0.435-0.434 0.003 0 0.006 0 0.009 0h-0z"></path>
<path fill="#3ba07a" d="M7.81 6.876h18.358v4.982h-18.358v-4.982z"></path>
<path fill="#16103e" d="M21.571 15.54h8.884v8.881h-8.884v-8.881z"></path>
<path fill="#3ba07a" d="M22.228 16.298h7.37v7.364h-7.37v-7.364z"></path>
<path fill="#3ba07a" d="M10.209 9.476h5.244v3.032h-5.244v-3.032z"></path>
<path fill="#16103e" d="M10.644 9.584h2.841v2.816h-2.841v-2.816z"></path>
</svg>
