<!-- Generated by IcoMoon.io -->
<svg version="1.1" xmlns="http://www.w3.org/2000/svg" width="35" height="32" viewBox="0 0 35 32">
<title>Filled_setting</title>
<path fill="#16103e" d="M3.784 3.337h25.746v25.404h-25.746v-25.404z"></path>
<path fill="#3ba07a" d="M7.107 9.495h19.151c0.418 0.004 0.755 0.344 0.755 0.762 0 0.003 0 0.005-0 0.008v-0 13.598c0 0.002 0 0.005 0 0.007 0 0.419-0.337 0.758-0.755 0.762h-19.152c-0.418-0.004-0.755-0.344-0.755-0.762 0-0.003 0-0.005 0-0.008v0-13.598c-0-0.002-0-0.005-0-0.007 0-0.419 0.337-0.758 0.755-0.762h0z"></path>
<path fill="none" stroke="#16103e" stroke-linejoin="miter" stroke-linecap="butt" stroke-miterlimit="10" stroke-width="0.4664" d="M7.107 9.495h19.151c0.418 0.004 0.755 0.344 0.755 0.762 0 0.003 0 0.005-0 0.008v-0 13.598c0 0.002 0 0.005 0 0.007 0 0.419-0.337 0.758-0.755 0.762h-19.152c-0.418-0.004-0.755-0.344-0.755-0.762 0-0.003 0-0.005 0-0.008v0-13.598c-0-0.002-0-0.005-0-0.007 0-0.419 0.337-0.758 0.755-0.762h0z"></path>
<path fill="#3ba07a" d="M21.975 6.673h5.955v16.239h-5.955v-16.239z"></path>
<path fill="#3ba07a" d="M7.616 11.423h11.254v11.928h-11.254v-11.928z"></path>
<path fill="#3ba07a" d="M9.38 15.909h5.398v5.549h-5.398v-5.549z"></path>
<path fill="#3ba07a" d="M9.38 3.595h12.438v12.647h-12.438v-12.647z"></path>
<path fill="#16103e" d="M12.529 6.931h6.045v6.158h-6.045v-6.158z"></path>
<path fill="#16103e" d="M14.67 14.627h3.275v3.336h-3.275v-3.336z"></path>
<path fill="#16103e" d="M14.67 16.679h3.275v3.336h-3.275v-3.336z"></path>
</svg>
