<!-- Generated by IcoMoon.io -->
<svg version="1.1" xmlns="http://www.w3.org/2000/svg" width="35" height="32" viewBox="0 0 35 32">
<title>Filled_trade-register</title>
<path fill="#16103e" d="M4.834 3.46h25.744v25.404h-25.744v-25.404z"></path>
<path fill="#3ba07a" d="M8.611 17.915h14.282c0 0 0.001 0 0.002 0 0.28 0 0.508 0.226 0.509 0.506v5.819c-0.003 0.279-0.23 0.505-0.509 0.505-0.001 0-0.001 0-0.002 0h-14.282c-0 0-0.001 0-0.002 0-0.28 0-0.507-0.226-0.509-0.505v-5.819c0.002-0.28 0.229-0.506 0.509-0.506 0.001 0 0.001 0 0.002 0h-0z"></path>
<path fill="none" stroke="#16103e" stroke-linejoin="miter" stroke-linecap="butt" stroke-miterlimit="10" stroke-width="0.5819" d="M8.611 17.915h14.282c0 0 0.001 0 0.001 0 0.28 0 0.507 0.227 0.508 0.506v5.819c-0.002 0.279-0.228 0.505-0.508 0.505-0.001 0-0.001 0-0.002 0h-14.282c-0 0-0.001 0-0.002 0-0.28 0-0.507-0.226-0.509-0.505v-5.819c0.002-0.28 0.229-0.506 0.509-0.506 0.001 0 0.001 0 0.002 0h-0z"></path>
<path fill="#3ba07a" d="M6.975 5.523h17.4v6.577h-17.4v-6.577z"></path>
<path fill="#3ba07a" d="M10.141 9.317h5.355v6.325h-5.355v-6.325z"></path>
<path fill="#3ba07a" d="M12.946 9.317h5.61v6.325h-5.61v-6.325z"></path>
<path fill="#3ba07a" d="M16.005 9.317h5.61v6.325h-5.61v-6.325z"></path>
<path fill="#3ba07a" d="M19.069 9.317h5.355v6.325h-5.355v-6.325z"></path>
<path fill="#3ba07a" d="M19.84 13.87h0.764c0.001 0 0.002 0 0.003 0 0.56 0 1.015 0.453 1.017 1.012v3.032h-2.555v-3.285c0.002-0.42 0.342-0.76 0.762-0.76 0.003 0 0.006 0 0.009 0h-0z"></path>
<path fill="none" stroke="#16103e" stroke-linejoin="miter" stroke-linecap="butt" stroke-miterlimit="10" stroke-width="0.3494" d="M19.84 13.87h0.764c0.001 0 0.003 0 0.004 0 0.56 0 1.014 0.453 1.016 1.013v3.032h-2.555v-3.285c0.002-0.42 0.342-0.76 0.762-0.76 0.003 0 0.006 0 0.009 0h-0z"></path>
<path fill="#3ba07a" d="M16.335 9.682h4.967v5.013h-4.967v-5.013z"></path>
<path fill="#3ba07a" d="M7.080 9.064h5.61v6.577h-5.61v-6.577z"></path>
<path fill="#3ba07a" d="M10.906 13.87h0.764c0.002 0 0.004-0 0.006-0 0.56 0 1.013 0.453 1.014 1.013v3.032h-2.55v-3.285c0.002-0.42 0.342-0.76 0.762-0.76 0.001 0 0.002 0 0.003 0h-0z"></path>
<path fill="none" stroke="#16103e" stroke-linejoin="miter" stroke-linecap="butt" stroke-miterlimit="10" stroke-width="0.3494" d="M10.906 13.87h0.765c0.001 0 0.002 0 0.003 0 0.56 0 1.015 0.453 1.017 1.012v3.032h-2.551v-3.285c0.002-0.42 0.342-0.76 0.762-0.76 0.001 0 0.002 0 0.003 0h-0z"></path>
<path fill="#16103e" d="M19.323 14.584h10.366v10.372h-10.366v-10.372z"></path>
<path fill="#3ba07a" d="M20.089 15.469h8.601v8.601h-8.601v-8.601z"></path>
<path fill="#3ba07a" d="M7.407 9.682h5.061v5.052h-5.061v-5.052z"></path>
<path fill="#3ba07a" d="M10.46 9.682h4.717v5.194h-4.717v-5.194z"></path>
<path fill="#16103e" d="M7.336 9.271h3.060v2.948h-3.060v-2.948z"></path>
<path fill="#3ba07a" d="M13.272 9.682h4.966v5.013h-4.966v-5.013z"></path>
<path fill="#3ba07a" d="M19.397 9.682h4.591v4.963h-4.591v-4.963z"></path>
</svg>
