<!-- Generated by IcoMoon.io -->
<svg version="1.1" xmlns="http://www.w3.org/2000/svg" width="35" height="32" viewBox="0 0 35 32">
<title>Filled_statistics</title>
<path fill="#16103e" d="M4.852 3.337h25.747v25.404h-25.747v-25.404z"></path>
<path fill="#3ba07a" d="M6.26 2.861h20.4v17.515h-20.4v-17.515z"></path>
<path fill="#3ba07a" d="M6.288 19.151h5.243v4.957h-5.243v-4.957z"></path>
<path fill="#3ba07a" d="M6.717 18.134h8.512v5.976h-8.512v-5.976z"></path>
<path fill="#3ba07a" d="M13.684 16.436h5.243v7.672h-5.243v-7.672z"></path>
<path fill="#3ba07a" d="M14.255 16.945h4.212v6.728h-4.212v-6.728z"></path>
<path fill="#3ba07a" d="M17.382 14.061h5.243v10.049h-5.243v-10.049z"></path>
<path fill="#3ba07a" d="M17.798 14.739h4.433v8.969h-4.433v-8.969z"></path>
<path fill="#3ba07a" d="M21.081 9.31h5.243v14.8h-5.243v-14.8z"></path>
<path fill="#3ba07a" d="M10.262 18.775h4.433v4.933h-4.433v-4.933z"></path>
<path fill="#3ba07a" d="M21.568 9.77h4.433v13.903h-4.433v-13.903z"></path>
<path fill="#3ba07a" d="M6.053 23.484h20.172v2.915h-20.172v-2.915z"></path>
<path fill="#16103e" d="M6.053 23.26h5.32v3.139h-5.32v-3.139z"></path>
<path fill="#3ba07a" d="M6.495 23.395h2.881v2.915h-2.881v-2.915z"></path>
</svg>
