<!-- Generated by IcoMoon.io -->
<svg version="1.1" xmlns="http://www.w3.org/2000/svg" width="29" height="32" viewBox="0 0 29 32">
<title>home</title>
<path d="M10.182 32h-5.818c-2.41 0-4.364-1.954-4.364-4.364v-16c0-0.449 0.207-0.873 0.562-1.148l13.091-10.182c0.525-0.409 1.261-0.409 1.786 0l13.091 10.182c0.354 0.276 0.562 0.699 0.562 1.148v16c0 2.41-1.954 4.364-4.364 4.364h-14.545zM14.545 3.297l-11.636 9.050v15.289c0 0.803 0.651 1.455 1.455 1.455h4.364v-13.091c0-0.803 0.651-1.455 1.455-1.455h8.727c0.803 0 1.455 0.651 1.455 1.455v13.091h4.364c0.803 0 1.455-0.651 1.455-1.455v-15.289l-11.636-9.050zM17.455 17.455h-5.818v11.636h5.818v-11.636z"></path>
</svg>
