<!-- Generated by IcoMoon.io -->
<svg version="1.1" xmlns="http://www.w3.org/2000/svg" width="32" height="32" viewBox="0 0 32 32">
<title>image</title>
<path fill="#160f3e" d="M27.2 0c2.651 0 4.8 2.149 4.8 4.8v22.4c0 2.651-2.149 4.8-4.8 4.8h-22.4c-2.651 0-4.8-2.149-4.8-4.8v-22.4c0-2.651 2.149-4.8 4.8-4.8h22.4zM21.269 16.194l-5.737 5.737c-0.539 0.539-1.384 0.623-2.019 0.2l-2.617-1.745c-0.635-0.423-1.48-0.339-2.019 0.2l-5.676 5.676v0.938c0 0.884 0.716 1.6 1.6 1.6h22.4c0.884 0 1.6-0.716 1.6-1.6v-5.736l-5.269-5.27c-0.625-0.625-1.638-0.625-2.263 0zM27.2 3.2h-22.4c-0.884 0-1.6 0.716-1.6 1.6v16.934l3.414-3.411c1.618-1.618 4.153-1.869 6.057-0.6l1.526 1.017 4.81-4.81c1.875-1.875 4.914-1.875 6.788 0l3.006 3.005v-12.136c0-0.884-0.716-1.6-1.6-1.6zM8.8 6.4c1.325 0 2.4 1.075 2.4 2.4s-1.075 2.4-2.4 2.4c-1.325 0-2.4-1.075-2.4-2.4s1.075-2.4 2.4-2.4z"></path>
</svg>
