<!-- Generated by IcoMoon.io -->
<svg version="1.1" xmlns="http://www.w3.org/2000/svg" width="32" height="32" viewBox="0 0 32 32">
<title>info</title>
<path fill="#160f3e" d="M16 0c8.837 0 16 7.163 16 16s-7.163 16-16 16c-8.837 0-16-7.163-16-16s7.163-16 16-16zM16 2.909c-7.23 0-13.091 5.861-13.091 13.091s5.861 13.091 13.091 13.091c7.23 0 13.091-5.861 13.091-13.091s-5.861-13.091-13.091-13.091zM16 14.545c0.803 0 1.455 0.651 1.455 1.455v5.818c0 0.803-0.651 1.455-1.455 1.455s-1.455-0.651-1.455-1.455v-5.818c0-0.803 0.651-1.455 1.455-1.455zM16 8.727c0.803 0 1.455 0.651 1.455 1.455s-0.651 1.455-1.455 1.455c-0.803 0-1.455-0.651-1.455-1.455s0.651-1.455 1.455-1.455z"></path>
</svg>
