<!-- Generated by IcoMoon.io -->
<svg version="1.1" xmlns="http://www.w3.org/2000/svg" width="29" height="32" viewBox="0 0 29 32">
<title>lock</title>
<path fill="#160f3e" d="M14.545 0c4.82 0 8.727 3.907 8.727 8.727v2.909h1.455c2.41 0 4.364 1.954 4.364 4.364v11.636c0 2.41-1.954 4.364-4.364 4.364h-20.364c-2.41 0-4.364-1.954-4.364-4.364v-11.636c0-2.41 1.954-4.364 4.364-4.364h1.455v-2.909c0-4.82 3.907-8.727 8.727-8.727zM24.727 14.545h-20.364c-0.803 0-1.455 0.651-1.455 1.455v11.636c0 0.803 0.651 1.455 1.455 1.455h20.364c0.803 0 1.455-0.651 1.455-1.455v-11.636c0-0.803-0.651-1.455-1.455-1.455zM14.545 2.909c-3.213 0-5.818 2.605-5.818 5.818v2.909h11.636v-2.909c0-3.213-2.605-5.818-5.818-5.818z"></path>
</svg>
