<!-- Generated by IcoMoon.io -->
<svg version="1.1" xmlns="http://www.w3.org/2000/svg" width="35" height="32" viewBox="0 0 35 32">
<title>mail</title>
<path d="M30.4 0c2.644 0 4.8 2.156 4.8 4.8v22.4c0 2.644-2.156 4.8-4.8 4.8h-25.6c-2.644 0-4.8-2.156-4.8-4.8v-22.4c0-2.644 2.156-4.8 4.8-4.8h25.6zM32 5.226l-13.418 10.437c-0.578 0.449-1.387 0.449-1.965 0l-13.418-10.436v21.973c0 0.876 0.724 1.6 1.6 1.6h25.6c0.876 0 1.6-0.724 1.6-1.6v-21.974zM29.392 3.2h-23.586l11.794 9.173 11.792-9.173z"></path>
</svg>
