<!-- Generated by IcoMoon.io -->
<svg version="1.1" xmlns="http://www.w3.org/2000/svg" width="46" height="32" viewBox="0 0 46 32">
<title>menu</title>
<path d="M43.429 27.429c1.262 0 2.286 1.023 2.286 2.286s-1.023 2.286-2.286 2.286h-41.143c-1.262 0-2.286-1.023-2.286-2.286s1.023-2.286 2.286-2.286h41.143zM43.429 13.714c1.262 0 2.286 1.023 2.286 2.286s-1.023 2.286-2.286 2.286h-41.143c-1.262 0-2.286-1.023-2.286-2.286s1.023-2.286 2.286-2.286h41.143zM43.429 0c1.262 0 2.286 1.023 2.286 2.286s-1.023 2.286-2.286 2.286h-41.143c-1.262 0-2.286-1.023-2.286-2.286s1.023-2.286 2.286-2.286h41.143z"></path>
</svg>
