<!-- Generated by IcoMoon.io -->
<svg version="1.1" xmlns="http://www.w3.org/2000/svg" width="35" height="32" viewBox="0 0 35 32">
<title>Monochrome_statistics</title>
<path fill="#fff" d="M8.226 8.294h3.019v5.447h-3.019v-5.447z"></path>
<path fill="#3ba07a" d="M7.406 6.282h18.522v15.756h-18.522v-15.756z"></path>
<path fill="#3ba07a" d="M7.436 20.939h4.76v4.46h-4.76v-4.46z"></path>
<path fill="#3ba07a" d="M10.792 20.022h4.76v5.376h-4.76v-5.376z"></path>
<path fill="#3ba07a" d="M14.149 18.496h4.76v6.902h-4.76v-6.902z"></path>
<path fill="#3ba07a" d="M17.505 16.359h4.76v9.039h-4.76v-9.039z"></path>
<path fill="#3ba07a" d="M20.866 12.085h4.76v13.313h-4.76v-13.313z"></path>
<path fill="#3ba07a" d="M7.219 24.835h18.315v2.622h-18.315v-2.622z"></path>
<path fill="#fff" d="M6.815 24.735h4.83v2.823h-4.83v-2.823z"></path>
<path fill="#3ba07a" d="M7.219 24.856h2.616v2.622h-2.616v-2.622z"></path>
</svg>
