<!-- Generated by IcoMoon.io -->
<svg version="1.1" xmlns="http://www.w3.org/2000/svg" width="35" height="32" viewBox="0 0 35 32">
<title>Monochrome_completed-profile</title>
<path fill="none" stroke="#3ba07a" stroke-linejoin="miter" stroke-linecap="butt" stroke-miterlimit="10" stroke-width="0.5301" d="M12.708 7.446h11.559c0.639 0 1.156 0.518 1.156 1.156v0 16.178c0 0.638-0.517 1.155-1.155 1.155v0h-11.56c-0.001 0-0.002 0-0.003 0-0.639 0-1.156-0.518-1.156-1.156 0 0 0 0 0 0v0-16.177c0-0 0-0.001 0-0.002 0-0.638 0.517-1.155 1.155-1.155 0.002 0 0.003 0 0.005 0h-0z"></path>
<path fill="#3ba07a" d="M13.635 18.54h10.172v2.773h-10.172v-2.773z"></path>
<path fill="#3ba07a" d="M13.635 20.389h10.172v2.773h-10.172v-2.773z"></path>
<path fill="#fff" d="M16.288 10.913h4.44v4.622h-4.44v-4.622z"></path>
<path fill="#fff" d="M21.029 15.767h8.71v8.783h-8.71v-8.783z"></path>
<path fill="#fff" d="M12.478 24.086h5.548v3.235h-5.548v-3.235z"></path>
<path fill="#3ba07a" d="M12.94 24.202h3.006v3.004h-3.006v-3.004z"></path>
</svg>
