<!-- Generated by IcoMoon.io -->
<svg version="1.1" xmlns="http://www.w3.org/2000/svg" width="35" height="32" viewBox="0 0 35 32">
<title>Monochrome_profile</title>
<path fill="#d7d7d7" opacity="0.5" d="M21.050 9.391h4.375v12.886h-4.375v-12.886z"></path>
<path fill="none" stroke="#3ba07a" stroke-linejoin="round" stroke-linecap="butt" stroke-miterlimit="4" stroke-width="0.5582" d="M10.703 11.093h15.071c0 0 0 0 0 0 0.268 0 0.486 0.217 0.486 0.486 0 0.001 0 0.001 0 0.002v-0 11.913h-16.044v-11.913c0-0 0-0.001 0-0.001 0-0.268 0.217-0.486 0.486-0.486 0.001 0 0.001 0 0.002 0h-0z"></path>
<path fill="#fff" d="M14.733 21.547h8.579c0 0 0.001 0 0.001 0 0.67 0 1.213-0.543 1.213-1.213 0-0.001 0-0.002 0-0.003v0-11.426c0-0.001 0-0.002 0-0.003 0-0.671-0.544-1.214-1.214-1.214 0 0 0 0 0 0h-8.579c-0.672 0-1.217 0.545-1.217 1.217v0 11.426c0 0.671 0.544 1.216 1.216 1.216 0.001 0 0.001 0 0.002 0h-0z"></path>
<path fill="none" stroke="#3ba07a" stroke-linejoin="miter" stroke-linecap="butt" stroke-miterlimit="10" stroke-width="0.5582" d="M14.732 7.689h8.579c0.671 0 1.216 0.544 1.216 1.216v11.427c0 0.671-0.544 1.216-1.216 1.216h-8.579c-0.671 0-1.216-0.544-1.216-1.216v-11.427c0-0.671 0.544-1.216 1.216-1.216z"></path>
<path fill="#fff" d="M20.194 6.473h5.591v5.532h-5.591v-5.532z"></path>
<path fill="#fff" d="M11.515 15.469h4.618v4.619h-4.618v-4.619z"></path>
<path fill="#fff" d="M10.33 17.658h7.126v5.835h-7.126v-5.835z"></path>
<path fill="#3ba07a" d="M15.217 11.822h7.535v2.917h-7.535v-2.917z"></path>
<path fill="#3ba07a" d="M17.89 14.496h6.076v2.917h-6.076v-2.917z"></path>
<path fill="#3ba07a" d="M15.946 17.172h7.535v2.917h-7.535v-2.917z"></path>
<path fill="#3ba07a" d="M14.242 9.149h6.076v2.917h-6.076v-2.917z"></path>
<path fill="none" stroke="#3ba07a" stroke-linejoin="round" stroke-linecap="butt" stroke-miterlimit="4" stroke-width="0.5582" d="M9.137 22.884h18.229c0.403 0 0.73 0.327 0.73 0.73v1.701c0 0.403-0.327 0.73-0.73 0.73h-18.229c-0.403 0-0.73-0.327-0.73-0.73v-1.701c0-0.403 0.327-0.73 0.73-0.73z"></path>
<path fill="#fff" d="M9.865 23.978h5.834v3.404h-5.834v-3.404z"></path>
<path fill="#3ba07a" d="M10.354 24.101h3.16v3.161h-3.16v-3.161z"></path>
</svg>
