<!-- Generated by IcoMoon.io -->
<svg version="1.1" xmlns="http://www.w3.org/2000/svg" width="35" height="32" viewBox="0 0 35 32">
<title>Monochrome_payment</title>
<path fill="#3ba07a" d="M7.887 12.138h20.081v11.038h-20.081v-11.038z"></path>
<path fill="#3ba07a" d="M8.722 8.762h17.006v6.162h-17.006v-6.162z"></path>
<path fill="#3ba07a" d="M12.076 7.625h11.975v6.374h-11.975v-6.374z"></path>
<path fill="#3ba07a" d="M18.577 13.408h5.687v3.198h-5.687v-3.198z"></path>
<path fill="#3ba07a" d="M13.336 13.408h8.411v8.491h-8.411v-8.491z"></path>
<path fill="#3ba07a" d="M20.672 14.255h9.878v13.362h-9.879v-13.362z"></path>
<path fill="#3ba07a" d="M9.143 13.408h7.154v8.491h-7.154v-8.491z"></path>
<path fill="#3ba07a" d="M15.268 14.89h4.428v5.527h-4.428v-5.527z"></path>
<path fill="#fff" d="M10.024 19.929h6.1v3.589h-6.1v-3.589z"></path>
<path fill="#3ba07a" d="M10.533 20.056h3.305v3.333h-3.305v-3.333z"></path>
</svg>
