<!-- Generated by IcoMoon.io -->
<svg version="1.1" xmlns="http://www.w3.org/2000/svg" width="35" height="32" viewBox="0 0 35 32">
<title>Monochrome_completed-form</title>
<path fill="none" stroke="#3ba07a" stroke-linejoin="miter" stroke-linecap="butt" stroke-miterlimit="10" stroke-width="0.5375" d="M9.255 6.316h11.737c0 0 0.001 0 0.001 0 0.647 0 1.171 0.523 1.173 1.17v17.767c-0.002 0.646-0.525 1.168-1.171 1.168-0.001 0-0.002 0-0.003 0h-11.736c-0.001 0-0.002 0-0.003 0-0.646 0-1.169-0.523-1.171-1.168v-17.767c0.002-0.646 0.526-1.17 1.173-1.17 0.001 0 0.001 0 0.002 0h-0z"></path>
<path fill="#fff" d="M17.002 20.808h6.572v6.778h-6.572v-6.778z"></path>
<path fill="#3ba07a" d="M8.081 10.056h8.685v2.804h-8.685v-2.804z"></path>
<path fill="#3ba07a" d="M8.081 11.692h8.713v2.804h-8.713v-2.804z"></path>
<path fill="#3ba07a" d="M8.081 13.328h8.713v2.804h-8.713v-2.804z"></path>
<path fill="#3ba07a" d="M8.081 14.964h8.713v2.804h-8.713v-2.804z"></path>
<path fill="#3ba07a" d="M8.081 16.6h8.713v2.804h-8.713v-2.804z"></path>
<path fill="#3ba07a" d="M8.081 18.236h8.713v2.804h-8.713v-2.804z"></path>
<path fill="#3ba07a" d="M8.081 19.872h8.713v2.804h-8.713v-2.804z"></path>
<path fill="#3ba07a" d="M8.081 21.509h8.713v2.804h-8.713v-2.804z"></path>
<path fill="#000" d="M7.102 8.303h16.001v2.338h-16.001v-2.338z"></path>
<path fill="#fff" d="M17.706 11.458h9.542v9.582h-9.542v-9.582z"></path>
<path fill="#fff" d="M9.257 24.548h5.634v3.272h-5.634v-3.272z"></path>
<path fill="#3ba07a" d="M9.725 24.548h3.051v3.038h-3.052v-3.038z"></path>
</svg>
