<!-- Generated by IcoMoon.io -->
<svg version="1.1" xmlns="http://www.w3.org/2000/svg" width="35" height="32" viewBox="0 0 35 32">
<title>Monochrome_documents</title>
<path fill="#3ba07a" d="M4.452 4.19h18.894v23.386h-18.894v-23.386z"></path>
<path fill="#3ba07a" d="M15.833 11.368h3.87v2.779h-3.87v-2.779z"></path>
<path fill="#3ba07a" d="M11.053 11.368h6.602v2.779h-6.602v-2.779z"></path>
<path fill="#3ba07a" d="M8.322 11.368h4.325v2.779h-4.325v-2.779z"></path>
<path fill="#3ba07a" d="M9.688 13.684h7.285v2.779h-7.285v-2.779z"></path>
<path fill="#3ba07a" d="M8.322 13.684h3.186v2.779h-3.186v-2.779z"></path>
<path fill="#3ba07a" d="M8.322 15.999h5.918v2.779h-5.918v-2.779z"></path>
<path fill="#3ba07a" d="M8.322 18.315h4.097v2.779h-4.097v-2.779z"></path>
<path fill="#3ba07a" d="M12.877 7.896h15.252v11.809h-15.252v-11.809z"></path>
<path fill="#fff" d="M19.225 10.783h4.202v4.236h-4.202v-4.236z"></path>
<path fill="#fff" d="M19.042 12.122h4.132v4.239h-4.132v-4.239z"></path>
<path fill="#fff" d="M6.583 24.567h5.463v3.241h-5.463v-3.241z"></path>
<path fill="#3ba07a" d="M7.037 24.683h2.96v3.010h-2.96v-3.010z"></path>
</svg>
