<!-- Generated by IcoMoon.io -->
<svg version="1.1" xmlns="http://www.w3.org/2000/svg" width="35" height="32" viewBox="0 0 35 32">
<title>Monochrome_storage</title>
<path fill="none" stroke="#3ba07a" stroke-linejoin="miter" stroke-linecap="butt" stroke-miterlimit="10" stroke-width="0.5552" d="M5.774 13.77h16.879c0.267 0.001 0.483 0.217 0.483 0.484 0 0.001 0 0.001 0 0.002v-0 11.184c0 0 0 0.001 0 0.001 0 0.267-0.216 0.483-0.483 0.484h-16.879c-0.266-0.001-0.481-0.217-0.481-0.483 0-0.001 0-0.002 0-0.003v0-11.186c0-0 0-0.001 0-0.001 0-0.266 0.215-0.482 0.481-0.483h0z"></path>
<path fill="none" stroke="#3ba07a" stroke-linejoin="miter" stroke-linecap="butt" stroke-miterlimit="10" stroke-width="0.5552" d="M11.562 17.658h5.306c0.267 0.001 0.483 0.217 0.483 0.484 0 0.001 0 0.001 0 0.002v-0 7.295c0 0 0 0.001 0 0.001 0 0.267-0.216 0.483-0.483 0.484h-5.307c-0.267-0.001-0.483-0.217-0.483-0.484 0-0.001 0-0.001 0-0.002v0-7.295c0-0 0-0.001 0-0.001 0-0.267 0.216-0.483 0.483-0.484h0z"></path>
<path fill="none" stroke="#3ba07a" stroke-linejoin="miter" stroke-linecap="butt" stroke-miterlimit="10" stroke-width="0.5552" d="M18.315 15.226h2.653c0.266 0.002 0.481 0.218 0.481 0.484 0 0.001 0 0.001 0 0.002v-0 2.431c0 0.001 0 0.002 0 0.003 0 0.266-0.215 0.482-0.481 0.484h-2.653c-0.267-0.001-0.483-0.217-0.483-0.484 0-0.001 0-0.002 0-0.003v0-2.431c0-0 0-0.001 0-0.001 0-0.267 0.216-0.483 0.483-0.484h0z"></path>
<path fill="none" stroke="#3ba07a" stroke-linejoin="miter" stroke-linecap="butt" stroke-miterlimit="10" stroke-width="0.5552" d="M7.699 15.226h2.656c0.266 0.001 0.481 0.217 0.481 0.483 0 0.001 0 0.002 0 0.003v-0 2.431c0 0.001 0 0.002 0 0.003 0 0.266-0.215 0.482-0.481 0.484h-2.656c-0.267-0.001-0.483-0.217-0.483-0.484 0-0.001 0-0.002 0-0.003v0-2.431c0-0 0-0.001 0-0.001 0-0.267 0.216-0.483 0.483-0.484h0z"></path>
<path fill="none" stroke="#3ba07a" stroke-linejoin="miter" stroke-linecap="butt" stroke-miterlimit="10" stroke-width="0.5552" d="M5.29 10.85h17.849c0.267 0.001 0.483 0.217 0.483 0.484 0 0.001 0 0.002 0 0.003v-0 2.433c0 0 0 0.001 0 0.001 0 0.267-0.216 0.483-0.483 0.484h-17.849c-0.266-0.001-0.481-0.217-0.481-0.483 0-0.001 0-0.002 0-0.003v0-2.433c0-0.001 0-0.002 0-0.003 0-0.266 0.215-0.482 0.481-0.484h0z"></path>
<path fill="#fff" d="M18.839 17.172h8.903v9.239h-8.903v-9.239z"></path>
<path fill="#3ba07a" d="M20.395 19.116h6.025v5.105h-6.025v-5.105z"></path>
<path fill="#fff" d="M6.010 23.978h5.789v3.404h-5.789v-3.404z"></path>
<path fill="#3ba07a" d="M6.489 24.101h3.136v3.161h-3.136v-3.161z"></path>
</svg>
