<!-- Generated by IcoMoon.io -->
<svg version="1.1" xmlns="http://www.w3.org/2000/svg" width="35" height="32" viewBox="0 0 35 32">
<title>Monochrome_trade-register</title>
<path fill="none" stroke="#3ba07a" stroke-linejoin="miter" stroke-linecap="butt" stroke-miterlimit="10" stroke-width="0.5893" d="M9.051 18.978h14.362c0 0 0 0 0 0 0.283 0 0.512 0.229 0.512 0.512 0 0.001 0 0.001 0 0.002v-0 6.435c0 0 0 0.001 0 0.001 0 0.283-0.229 0.512-0.512 0.512 0 0 0 0 0 0h-14.362c0 0 0 0 0 0-0.283 0-0.512-0.229-0.512-0.512 0-0.001 0-0.001 0-0.002v0-6.435c0-0 0-0.001 0-0.001 0-0.283 0.229-0.512 0.512-0.512 0 0 0 0 0 0v0z"></path>
<path fill="none" stroke="#3ba07a" stroke-linejoin="miter" stroke-linecap="butt" stroke-miterlimit="10" stroke-width="0.5893" d="M20.333 15.374h0.77c0.568 0.006 1.026 0.468 1.026 1.036 0 0 0 0 0 0v0 3.087h-2.564v-3.351c0-0.001 0-0.002 0-0.003 0-0.425 0.344-0.769 0.768-0.77h0z"></path>
<path fill="#fff" d="M18.537 16.147h9.745v9.779h-9.745v-9.779z"></path>
<path fill="#3ba07a" d="M20.183 18.721h6.198v5.147h-6.198v-5.147z"></path>
<path fill="none" stroke="#3ba07a" stroke-linejoin="miter" stroke-linecap="butt" stroke-miterlimit="10" stroke-width="0.5893" d="M11.358 15.374h0.768c0.568 0.006 1.026 0.468 1.026 1.036 0 0 0 0 0 0v0 3.087h-2.564v-3.351c0-0 0-0.001 0-0.001 0-0.425 0.345-0.771 0.77-0.771h0z"></path>
<path fill="#fff" d="M9.562 24.335h6.155v3.602h-6.155v-3.602z"></path>
<path fill="#3ba07a" d="M10.074 24.464h3.334v3.346h-3.334v-3.346z"></path>
</svg>
