<!-- Generated by IcoMoon.io -->
<svg version="1.1" xmlns="http://www.w3.org/2000/svg" width="31" height="32" viewBox="0 0 31 32">
<title>notification</title>
<path d="M2.909 21.818c0 0.803 0.651 1.455 1.455 1.455h20.559c0.33 0 0.65-0.112 0.908-0.318 0.627-0.502 0.73-1.417 0.228-2.044-1.769-2.213-2.689-4.33-2.689-6.365v-2.909c0-4.82-3.907-8.727-8.727-8.727s-8.727 3.907-8.727 8.727v2.909c0 2.035-0.92 4.151-2.689 6.365-0.206 0.258-0.318 0.578-0.318 0.908zM3.007 14.545v-2.909c0-6.427 5.21-11.636 11.636-11.636s11.636 5.21 11.636 11.636v2.909c0 1.287 0.661 2.808 2.052 4.548 1.505 1.882 1.199 4.628-0.684 6.133-0.773 0.618-1.734 0.955-2.725 0.955h-20.559c-2.41 0-4.364-1.954-4.364-4.364 0-0.99 0.337-1.951 0.955-2.725 1.391-1.74 2.052-3.261 2.052-4.548zM10.447 26.182c0.471 1.866 1.923 2.909 4.196 2.909s3.725-1.043 4.196-2.909h-8.392zM21.916 24.727c0 4.362-2.841 7.273-7.273 7.273s-7.273-2.911-7.273-7.273c0-0.803 0.651-1.455 1.455-1.455h11.636c0.803 0 1.455 0.651 1.455 1.455z"></path>
</svg>
