<!-- Generated by IcoMoon.io -->
<svg version="1.1" xmlns="http://www.w3.org/2000/svg" width="9" height="32" viewBox="0 0 9 32">
<title>options</title>
<path fill="#160f3e" d="M4.667 11.436c2.58 0 4.667 2.041 4.667 4.564s-2.087 4.564-4.667 4.564c-2.58 0-4.667-2.041-4.667-4.564s2.087-4.564 4.667-4.564zM0 4.564c0 2.523 2.087 4.564 4.667 4.564s4.667-2.041 4.667-4.564c0-2.523-2.087-4.564-4.667-4.564s-4.667 2.041-4.667 4.564zM0 27.436c0 2.523 2.087 4.564 4.667 4.564s4.667-2.041 4.667-4.564c0-2.523-2.087-4.564-4.667-4.564s-4.667 2.041-4.667 4.564z"></path>
</svg>
