<!-- Generated by IcoMoon.io -->
<svg version="1.1" xmlns="http://www.w3.org/2000/svg" width="29" height="32" viewBox="0 0 29 32">
<title>renew</title>
<path fill="#160f3e" d="M27.38 18.992c0.757 0.268 1.154 1.099 0.886 1.856-1.666 4.708-5.631 8.232-10.502 9.335s-9.967-0.372-13.438-3.848l-1.416-1.266v5.476c0 0.803-0.651 1.455-1.455 1.455s-1.455-0.651-1.455-1.455v-8.727c0-0.803 0.651-1.455 1.455-1.455h8.727c0.803 0 1.455 0.651 1.455 1.455s-0.651 1.455-1.455 1.455h-4.921l1.062 0.95c2.824 2.826 6.901 4.005 10.798 3.123s7.069-3.701 8.402-7.468c0.268-0.757 1.099-1.154 1.856-0.886zM27.636 0c0.803 0 1.455 0.651 1.455 1.455v8.727c0 0.803-0.651 1.455-1.455 1.455h-8.727c-0.803 0-1.455-0.651-1.455-1.455s0.651-1.455 1.455-1.455h4.921l-1.062-0.95c-2.824-2.826-6.901-4.005-10.798-3.123s-7.069 3.701-8.402 7.468c-0.268 0.757-1.099 1.154-1.856 0.886s-1.154-1.099-0.886-1.856c1.666-4.708 5.631-8.232 10.502-9.335s9.967 0.372 13.438 3.848l1.416 1.266v-5.476c0-0.803 0.651-1.455 1.455-1.455z"></path>
</svg>
