<!-- Generated by IcoMoon.io -->
<svg version="1.1" xmlns="http://www.w3.org/2000/svg" width="32" height="32" viewBox="0 0 32 32">
<title>setting</title>
<path d="M17.466 0.252c1.241 0.44 2.217 1.415 2.656 2.656l0.605 1.709 1.637-0.78c2.175-1.037 4.78-0.115 5.817 2.061 0.567 1.188 0.567 2.568 0 3.756l-0.78 1.637 1.709 0.605c2.272 0.805 3.461 3.299 2.656 5.57-0.439 1.241-1.416 2.217-2.656 2.656l-1.709 0.605 0.78 1.637c1.037 2.175 0.115 4.78-2.061 5.817-1.188 0.567-2.568 0.567-3.756 0l-1.637-0.78-0.605 1.709c-0.805 2.272-3.299 3.461-5.57 2.656-1.241-0.439-2.217-1.416-2.656-2.656l-0.605-1.709-1.637 0.78c-2.175 1.037-4.78 0.115-5.817-2.061-0.567-1.188-0.567-2.568 0-3.756l0.78-1.637-1.709-0.605c-2.272-0.805-3.461-3.299-2.656-5.57 0.44-1.241 1.415-2.217 2.656-2.656l1.709-0.605-0.78-1.637c-1.037-2.175-0.115-4.78 2.061-5.817 1.188-0.567 2.568-0.567 3.756 0l1.637 0.78 0.605-1.709c0.805-2.272 3.299-3.461 5.57-2.656zM14.637 3.879l-1.145 3.231c-0.017 0.048-0.036 0.095-0.058 0.14-0.346 0.725-1.214 1.033-1.939 0.687l-3.094-1.476c-0.396-0.189-0.856-0.189-1.252 0-0.725 0.346-1.033 1.214-0.687 1.939l1.476 3.094c0.022 0.046 0.041 0.093 0.058 0.14 0.268 0.757-0.128 1.588-0.885 1.857l-3.231 1.145c-0.414 0.146-0.739 0.472-0.885 0.885-0.268 0.757 0.128 1.588 0.885 1.857l3.231 1.145c0.048 0.017 0.095 0.036 0.14 0.058 0.725 0.346 1.033 1.214 0.687 1.939l-1.476 3.094c-0.189 0.396-0.189 0.856 0 1.252 0.346 0.725 1.214 1.033 1.939 0.687l3.094-1.476c0.046-0.022 0.093-0.041 0.14-0.058 0.757-0.268 1.588 0.128 1.857 0.885l1.145 3.231c0.146 0.414 0.472 0.739 0.885 0.885 0.757 0.268 1.588-0.128 1.857-0.885l1.145-3.231c0.017-0.048 0.036-0.095 0.058-0.14 0.346-0.725 1.214-1.033 1.939-0.687l3.094 1.476c0.396 0.189 0.856 0.189 1.252 0 0.725-0.346 1.033-1.214 0.687-1.939l-1.476-3.094c-0.022-0.046-0.041-0.093-0.058-0.14-0.268-0.757 0.128-1.588 0.885-1.857l3.231-1.145c0.414-0.146 0.739-0.472 0.885-0.885 0.268-0.757-0.128-1.588-0.885-1.857l-3.231-1.145c-0.048-0.017-0.095-0.036-0.14-0.058-0.725-0.346-1.033-1.214-0.687-1.939l1.476-3.094c0.189-0.396 0.189-0.856 0-1.252-0.346-0.725-1.214-1.033-1.939-0.687l-3.094 1.476c-0.046 0.022-0.093 0.041-0.14 0.058-0.757 0.268-1.588-0.128-1.857-0.885l-1.145-3.231c-0.146-0.414-0.472-0.739-0.885-0.885-0.757-0.268-1.588 0.128-1.857 0.885zM16.009 10.19c3.213 0 5.818 2.605 5.818 5.818s-2.605 5.818-5.818 5.818c-3.213 0-5.818-2.605-5.818-5.818s2.605-5.818 5.818-5.818zM16.009 13.099c-1.607 0-2.909 1.302-2.909 2.909s1.302 2.909 2.909 2.909c1.607 0 2.909-1.302 2.909-2.909s-1.302-2.909-2.909-2.909z"></path>
</svg>
