<!-- Generated by IcoMoon.io -->
<svg version="1.1" xmlns="http://www.w3.org/2000/svg" width="34" height="32" viewBox="0 0 34 32">
<title>star</title>
<path fill="#160f3e" d="M16.764 4.966l-3.342 6.771c-0.222 0.449-0.65 0.761-1.146 0.833l-7.476 1.093 5.409 5.268c0.359 0.35 0.523 0.855 0.439 1.349l-1.276 7.44 6.684-3.515c0.444-0.233 0.974-0.233 1.419 0l6.684 3.515-1.276-7.44c-0.085-0.495 0.079-0.999 0.439-1.349l5.409-5.268-7.476-1.093c-0.496-0.072-0.924-0.384-1.146-0.833l-3.342-6.771zM11.043 9.671l4.354-8.821c0.559-1.132 2.174-1.132 2.733 0l4.354 8.821 9.738 1.423c1.249 0.183 1.747 1.718 0.843 2.599l-7.045 6.862 1.663 9.694c0.213 1.245-1.093 2.194-2.211 1.606l-8.708-4.579-8.708 4.579c-1.118 0.588-2.425-0.361-2.211-1.606l1.663-9.694-7.045-6.862c-0.905-0.881-0.407-2.417 0.843-2.599l9.738-1.423z"></path>
</svg>
