<!-- Generated by IcoMoon.io -->
<svg version="1.1" xmlns="http://www.w3.org/2000/svg" width="32" height="32" viewBox="0 0 32 32">
<title>upload</title>
<path d="M30.4 19.2c0.884 0 1.6 0.716 1.6 1.6v6.4c0 2.651-2.149 4.8-4.8 4.8h-22.4c-2.651 0-4.8-2.149-4.8-4.8v-6.4c0-0.884 0.716-1.6 1.6-1.6s1.6 0.716 1.6 1.6v6.4c0 0.884 0.716 1.6 1.6 1.6h22.4c0.884 0 1.6-0.716 1.6-1.6v-6.4c0-0.884 0.716-1.6 1.6-1.6zM16 0l0.031 0c0.037 0.001 0.075 0.003 0.112 0.006l-0.143-0.006c0.081 0 0.161 0.006 0.238 0.018 0.027 0.004 0.055 0.009 0.083 0.015 0.035 0.007 0.070 0.015 0.104 0.025 0.025 0.007 0.050 0.014 0.074 0.022 0.031 0.010 0.063 0.022 0.094 0.034 0.028 0.011 0.056 0.023 0.083 0.036 0.033 0.016 0.066 0.032 0.098 0.050 0.019 0.011 0.039 0.022 0.058 0.034 0.041 0.025 0.081 0.052 0.119 0.081 0.012 0.009 0.023 0.018 0.035 0.027 0.004 0.003 0.009 0.007 0.013 0.011l0.131 0.117 8 8c0.625 0.625 0.625 1.638 0 2.263s-1.638 0.625-2.263 0l-5.269-5.269v15.338c0 0.884-0.716 1.6-1.6 1.6s-1.6-0.716-1.6-1.6v-15.338l-5.269 5.269c-0.625 0.625-1.638 0.625-2.263 0s-0.625-1.638 0-2.263l8-8 0.131-0.117c0.005-0.004 0.009-0.007 0.014-0.011l-0.145 0.128c0.057-0.057 0.116-0.108 0.179-0.154 0.039-0.029 0.078-0.055 0.119-0.080 0.019-0.012 0.039-0.023 0.059-0.034 0.032-0.017 0.064-0.034 0.098-0.050 0.027-0.013 0.055-0.025 0.083-0.036 0.032-0.013 0.063-0.024 0.095-0.035 0.024-0.008 0.048-0.015 0.073-0.022 0.034-0.010 0.069-0.018 0.104-0.025 0.028-0.006 0.056-0.010 0.084-0.015 0.030-0.005 0.062-0.008 0.094-0.011 0.039-0.003 0.077-0.005 0.115-0.006 0.009-0 0.019-0 0.029-0z"></path>
</svg>
