<!-- Generated by IcoMoon.io -->
<svg version="1.1" xmlns="http://www.w3.org/2000/svg" width="32" height="32" viewBox="0 0 32 32">
<title>warning</title>
<path fill="#ffc107" d="M32 16c0 8.837-7.163 16-16 16s-16-7.163-16-16c0-8.837 7.163-16 16-16s16 7.163 16 16z"></path>
<path fill="none" stroke="#000" stroke-linejoin="miter" stroke-linecap="butt" stroke-miterlimit="4" stroke-width="2" d="M9.729 24.333h12.543c1.657 0 3-1.343 3-3 0-0.485-0.118-0.963-0.343-1.393l-6.271-11.967c-0.769-1.468-2.582-2.034-4.050-1.265-0.54 0.283-0.982 0.724-1.265 1.265l-6.271 11.967c-0.769 1.468-0.203 3.281 1.265 4.050 0.43 0.225 0.907 0.343 1.393 0.343z"></path>
<path fill="none" stroke="#000" stroke-linejoin="miter" stroke-linecap="butt" stroke-miterlimit="4" stroke-width="2" d="M15.831 20.481h-1l1 1v-1zM15.831 20.111v-1l-1 1h1zM16.063 20.111h1l-1-1v1zM16.063 20.481v1l1-1h-1z"></path>
<path fill="none" stroke="#000" stroke-linejoin="miter" stroke-linecap="butt" stroke-miterlimit="4" stroke-width="2" d="M15.831 16.333h-1l1 1v-1zM15.831 11.667v-1l-1 1h1zM16.063 11.667h1l-1-1v1zM16.063 16.333v1l1-1h-1z"></path>
</svg>
