<!-- Generated by IcoMoon.io -->
<svg version="1.1" xmlns="http://www.w3.org/2000/svg" width="35" height="32" viewBox="0 0 35 32">
<title>white_background_vs_colored_elements_storage</title>
<path fill="none" stroke="#16103e" stroke-linejoin="miter" stroke-linecap="butt" stroke-miterlimit="10" stroke-width="0.5908" d="M7.202 12.393h17.877c0.283 0.002 0.511 0.232 0.511 0.515 0 0.002 0 0.003-0 0.005v-0 11.962c0 0.001 0 0.003 0 0.004 0 0.283-0.228 0.513-0.511 0.515h-17.877c-0.283-0.003-0.511-0.232-0.511-0.515 0-0.002 0-0.003 0-0.005v0-11.962c0-0.001-0-0.003-0-0.004 0-0.283 0.228-0.513 0.511-0.515h0z"></path>
<path fill="none" stroke="#16103e" stroke-linejoin="miter" stroke-linecap="butt" stroke-miterlimit="10" stroke-width="0.5908" d="M13.325 16.552h5.626c0.283 0.003 0.511 0.232 0.511 0.515 0 0.002 0 0.003-0 0.005v-0 7.803c0 0.001 0 0.003 0 0.004 0 0.283-0.228 0.513-0.511 0.515h-5.627c-0.28-0.006-0.505-0.234-0.505-0.515 0-0.002 0-0.003 0-0.005v0-7.803c0-0.001-0-0.003-0-0.005 0-0.281 0.225-0.509 0.504-0.515h0.001z"></path>
<path fill="none" stroke="#16103e" stroke-linejoin="miter" stroke-linecap="butt" stroke-miterlimit="10" stroke-width="0.5908" d="M20.484 13.952h2.813c0.283 0.002 0.511 0.232 0.511 0.515 0 0.002 0 0.003-0 0.005v-0 2.6c0 0.001 0 0.003 0 0.004 0 0.283-0.228 0.513-0.511 0.515h-2.813c-0.283-0.003-0.511-0.232-0.511-0.515 0-0.002 0-0.003 0-0.005v0-2.6c0-0.001-0-0.003-0-0.004 0-0.283 0.228-0.513 0.511-0.515h0z"></path>
<path fill="none" stroke="#16103e" stroke-linejoin="miter" stroke-linecap="butt" stroke-miterlimit="10" stroke-width="0.5908" d="M9.245 13.952h2.813c0.283 0.002 0.511 0.232 0.511 0.515 0 0.002 0 0.003-0 0.005v-0 2.6c0 0.001 0 0.003 0 0.004 0 0.283-0.228 0.513-0.511 0.515h-2.813c-0.282-0.003-0.509-0.233-0.509-0.515 0-0.002 0-0.003 0-0.005v0-2.6c0-0.001-0-0.003-0-0.004 0-0.283 0.227-0.512 0.509-0.515h0z"></path>
<path fill="none" stroke="#16103e" stroke-linejoin="miter" stroke-linecap="butt" stroke-miterlimit="10" stroke-width="0.5908" d="M6.692 9.274h18.898c0.283 0.002 0.511 0.232 0.511 0.515 0 0.002 0 0.003-0 0.005v-0 2.598c0 0.001 0 0.003 0 0.004 0 0.283-0.228 0.513-0.511 0.515h-18.899c-0.283-0.002-0.511-0.232-0.511-0.515 0-0.002 0-0.003 0-0.005v0-2.598c0-0.001-0-0.003-0-0.004 0-0.283 0.228-0.513 0.511-0.515h0z"></path>
<path fill="#fff" d="M21.039 16.032h9.425v9.876h-9.425v-9.876z"></path>
<path fill="#3ba07a" d="M22.684 18.111h6.378v5.457h-6.378v-5.457z"></path>
<path fill="#fff" d="M7.459 23.179h6.13v3.638h-6.13v-3.638z"></path>
<path fill="#16103e" d="M7.97 23.309h3.319v3.379h-3.319v-3.379z"></path>
</svg>
