<!-- Generated by IcoMoon.io -->
<svg version="1.1" xmlns="http://www.w3.org/2000/svg" width="35" height="32" viewBox="0 0 35 32">
<title>white_background_vs_colored_elements_completed-profile</title>
<path fill="none" stroke="#16103e" stroke-linejoin="miter" stroke-linecap="butt" stroke-miterlimit="10" stroke-width="0.5878" d="M11.494 26.073h12.866c0.002 0 0.004 0 0.006 0 0.705 0 1.277-0.57 1.281-1.274v-17.852c-0.003-0.706-0.576-1.276-1.282-1.276-0.002 0-0.003 0-0.005 0h-12.866c-0.001 0-0.003 0-0.004 0-0.706 0-1.279 0.571-1.282 1.276v17.852c0.003 0.705 0.575 1.275 1.281 1.275 0.002 0 0.004 0 0.006 0h-0z"></path>
<path fill="#16103e" d="M12.524 17.912h11.324v3.060h-11.324v-3.060z"></path>
<path fill="#16103e" d="M12.524 19.952h11.324v3.060h-11.324v-3.060z"></path>
<path fill="#fff" d="M15.481 9.496h4.942v5.101h-4.942v-5.101z"></path>
<path fill="#fff" d="M20.758 14.852h9.696v9.69h-9.696v-9.69z"></path>
<path fill="#fff" d="M12.008 24.033h6.176v3.57h-6.176v-3.57z"></path>
<path fill="#16103e" d="M12.524 24.16h3.346v3.315h-3.346v-3.315z"></path>
</svg>
