<!-- Generated by IcoMoon.io -->
<svg version="1.1" xmlns="http://www.w3.org/2000/svg" width="35" height="32" viewBox="0 0 35 32">
<title>white_background_vs_colored_elements_documents</title>
<path fill="#16103e" d="M7.286 3.977h20.241v24.449h-20.241v-24.449z"></path>
<path fill="#16103e" d="M19.48 11.48h4.146v2.905h-4.146v-2.905z"></path>
<path fill="#16103e" d="M14.357 11.48h7.073v2.905h-7.073v-2.905z"></path>
<path fill="#16103e" d="M11.433 11.48h4.634v2.905h-4.634v-2.905z"></path>
<path fill="#16103e" d="M12.896 13.901h7.804v2.905h-7.804v-2.905z"></path>
<path fill="#16103e" d="M11.433 13.901h3.414v2.905h-3.414v-2.905z"></path>
<path fill="#16103e" d="M11.433 16.322h6.34v2.905h-6.34v-2.905z"></path>
<path fill="#16103e" d="M11.433 18.743h4.39v2.905h-4.39v-2.905z"></path>
<path fill="#3ba07a" d="M15.090 8.818h16.34v12.345h-16.34v-12.345z"></path>
<path fill="#fff" d="M22.246 12.665h5.21v4.689h-5.21v-4.689z"></path>
<path fill="#fff" d="M9.81 25.28h5.853v3.389h-5.853v-3.389z"></path>
<path fill="#16103e" d="M10.297 25.4h3.17v3.146h-3.17v-3.146z"></path>
</svg>
