<!-- Generated by IcoMoon.io -->
<svg version="1.1" xmlns="http://www.w3.org/2000/svg" width="35" height="32" viewBox="0 0 35 32">
<title>white_background_vs_colored_elements_payment</title>
<path fill="#16103e" d="M4.229 11.241h21.676v11.855h-21.676v-11.855z"></path>
<path fill="#16103e" d="M5.133 7.613h18.356v6.62h-18.356v-6.62z"></path>
<path fill="#16103e" d="M8.755 6.393h12.926v6.846h-12.926v-6.846z"></path>
<path fill="#16103e" d="M15.768 12.604h6.137v3.435h-6.137v-3.435z"></path>
<path fill="#16103e" d="M10.112 12.604h9.079v9.12h-9.079v-9.12z"></path>
<path fill="#3ba07a" d="M18.031 13.515h10.663v14.351h-10.663v-14.351z"></path>
<path fill="#16103e" d="M5.588 12.604h7.721v9.12h-7.721v-9.12z"></path>
<path fill="#16103e" d="M12.196 14.197h4.779v5.937h-4.779v-5.937z"></path>
<path fill="#fff" d="M6.537 19.607h6.584v3.854h-6.584v-3.854z"></path>
<path fill="#16103e" d="M7.086 19.745h3.567v3.579h-3.567v-3.579z"></path>
</svg>
