<!-- Generated by IcoMoon.io -->
<svg version="1.1" xmlns="http://www.w3.org/2000/svg" width="35" height="32" viewBox="0 0 35 32">
<title>white_background_vs_colored_elements_trade-register</title>
<path fill="none" stroke="#16103e" stroke-linejoin="miter" stroke-linecap="butt" stroke-miterlimit="10" stroke-width="0.6603" d="M5.608 17.584h16.094c0.317 0.001 0.574 0.258 0.574 0.576 0 0 0 0 0 0v0 7.196c0 0 0 0 0 0 0 0.318-0.257 0.575-0.574 0.576h-16.094c0 0 0 0 0 0-0.317 0-0.574-0.257-0.574-0.574 0-0.001 0-0.001 0-0.002v0-7.196c0-0 0-0.001 0-0.001 0-0.317 0.257-0.574 0.574-0.574 0 0 0 0 0 0v0z"></path>
<path fill="none" stroke="#16103e" stroke-linejoin="miter" stroke-linecap="butt" stroke-miterlimit="10" stroke-width="0.6603" d="M18.254 13.553h0.862c0.635 0 1.15 0.515 1.15 1.15 0 0.001 0 0.001 0 0.002v-0 3.454h-2.874v-3.743c0-0 0-0.001 0-0.001 0-0.476 0.386-0.862 0.862-0.862 0 0 0 0 0 0v0z"></path>
<path fill="#fff" d="M16.244 14.416h10.921v10.939h-10.921v-10.939z"></path>
<path fill="#3ba07a" d="M18.085 17.295h6.945v5.758h-6.945v-5.758z"></path>
<path fill="none" stroke="#16103e" stroke-linejoin="miter" stroke-linecap="butt" stroke-miterlimit="10" stroke-width="0.6603" d="M8.194 13.553h0.862c0.635 0 1.15 0.515 1.15 1.15 0 0.001 0 0.001 0 0.002v-0 3.454h-2.874v-3.743c0-0 0-0.001 0-0.001 0-0.476 0.386-0.862 0.862-0.862 0 0 0 0 0 0v0z"></path>
<path fill="#fff" d="M6.183 23.575h6.898v4.030h-6.898v-4.030z"></path>
<path fill="#16103e" d="M6.757 23.721h3.736v3.743h-3.736v-3.743z"></path>
</svg>
