<!-- Generated by IcoMoon.io -->
<svg version="1.1" xmlns="http://www.w3.org/2000/svg" width="35" height="32" viewBox="0 0 35 32">
<title>white_background_vs_colored_elements_statistics</title>
<path fill="#fff" d="M7.667 6.931h3.325v5.933h-3.325v-5.933z"></path>
<path fill="#3ba07a" d="M6.766 4.741h20.4v17.164h-20.4v-17.164z"></path>
<path fill="#3ba07a" d="M6.688 19.040h2.353v2.858h-2.353v-2.858z"></path>
<path fill="#16103e" d="M7.002 24.511h18.84v2.858h-18.84v-2.858z"></path>
<path fill="#16103e" d="M7.667 20.583h4.91v4.569h-4.91v-4.569z"></path>
<path fill="#16103e" d="M10.958 19.693h4.91v5.459h-4.91v-5.459z"></path>
<path fill="#16103e" d="M14.251 18.211h4.91v6.941h-4.91v-6.941z"></path>
<path fill="#16103e" d="M17.539 16.135h4.91v9.015h-4.91v-9.015z"></path>
<path fill="#16103e" d="M20.832 11.985h4.91v13.167h-4.91v-13.167z"></path>
<path fill="#fff" d="M7.002 24.292h5.32v3.296h-5.32v-3.296z"></path>
<path fill="#16103e" d="M7.443 24.511h2.881v2.858h-2.881v-2.858z"></path>
</svg>
