<!-- Generated by IcoMoon.io -->
<svg version="1.1" xmlns="http://www.w3.org/2000/svg" width="35" height="32" viewBox="0 0 35 32">
<title>white_background_vs_colored_elements_profile</title>
<path fill="#d7d7d7" opacity="0.5" d="M22.273 7.656h4.877v14.218h-4.877v-14.218z"></path>
<path fill="none" stroke="#16103e" stroke-linejoin="round" stroke-linecap="butt" stroke-miterlimit="4" stroke-width="0.6189" d="M10.737 9.534h16.802c0 0 0 0 0 0 0.296 0 0.537 0.239 0.54 0.534v13.148h-17.884v-13.148c0.003-0.296 0.244-0.534 0.54-0.534 0.001 0 0.001 0 0.002 0h-0z"></path>
<path fill="#fff" d="M15.231 21.070h9.563c0.001 0 0.003 0 0.004 0 0.742 0 1.344-0.6 1.347-1.341v-12.611c-0.002-0.743-0.604-1.344-1.347-1.344-0.002 0-0.003 0-0.005 0h-9.563c-0.002 0-0.005-0-0.007-0-0.742 0-1.345 0.6-1.349 1.341v12.611c0.002 0.743 0.605 1.344 1.349 1.344 0.003 0 0.005 0 0.008-0h-0z"></path>
<path fill="none" stroke="#3ba07a" stroke-linejoin="miter" stroke-linecap="butt" stroke-miterlimit="10" stroke-width="0.6189" d="M15.229 21.070h9.563c0.002 0 0.004 0 0.006 0 0.742 0 1.345-0.6 1.349-1.341v-12.611c-0.008-0.738-0.608-1.333-1.347-1.333-0.003 0-0.005 0-0.008 0h-9.563c-0.002 0-0.005-0-0.007-0-0.739 0-1.339 0.595-1.347 1.332v12.611c0.004 0.742 0.606 1.341 1.349 1.341 0.002 0 0.004 0 0.006 0h-0z"></path>
<path fill="#fff" d="M21.318 4.436h6.232v6.103h-6.232v-6.103z"></path>
<path fill="#fff" d="M11.645 14.363h5.148v5.098h-5.148v-5.098z"></path>
<path fill="#fff" d="M10.321 16.777h7.943v6.439h-7.943v-6.439z"></path>
<path fill="#3ba07a" d="M15.77 10.339h8.399v3.219h-8.399v-3.219z"></path>
<path fill="#3ba07a" d="M18.749 13.29h6.774v3.219h-6.774v-3.219z"></path>
<path fill="#3ba07a" d="M16.583 16.241h8.399v3.219h-8.399v-3.219z"></path>
<path fill="#3ba07a" d="M14.684 7.388h6.774v3.219h-6.774v-3.219z"></path>
<path fill="none" stroke="#16103e" stroke-linejoin="round" stroke-linecap="butt" stroke-miterlimit="4" stroke-width="0.6189" d="M8.99 22.545h20.326c0.001 0 0.003 0 0.004 0 0.445 0 0.807 0.36 0.808 0.805v1.878c-0.002 0.445-0.363 0.805-0.808 0.805-0.002 0-0.003 0-0.005 0h-20.325c-0.001 0-0.002 0-0.003 0-0.446 0-0.807-0.36-0.81-0.805v-1.878c0.002-0.445 0.363-0.805 0.808-0.805 0.002 0 0.003 0 0.005 0h-0z"></path>
<path fill="#fff" d="M9.804 23.753h6.503v3.756h-6.503v-3.756z"></path>
<path fill="#16103e" d="M10.346 23.886h3.522v3.488h-3.522v-3.488z"></path>
</svg>
