<!-- Generated by IcoMoon.io -->
<svg version="1.1" xmlns="http://www.w3.org/2000/svg" width="35" height="32" viewBox="0 0 35 32">
<title>white_background_vs_colored_elements_completed-form</title>
<path fill="none" stroke="#16103e" stroke-linejoin="miter" stroke-linecap="butt" stroke-miterlimit="10" stroke-width="0.5597" d="M8.2 4.864h12.156c0.672 0.003 1.216 0.548 1.216 1.22 0 0.002 0 0.003 0 0.005v-0 18.61c0 0.001 0 0.003 0 0.004 0 0.672-0.544 1.217-1.215 1.22h-12.156c-0.672-0.002-1.216-0.547-1.216-1.219 0-0.002 0-0.004 0-0.006v0-18.61c0-0.002 0-0.004 0-0.006 0-0.672 0.544-1.217 1.215-1.219h0z"></path>
<path fill="#fff" d="M16.221 20.046h6.808v7.101h-6.808v-7.101z"></path>
<path fill="#16103e" d="M6.984 8.781h8.996v2.939h-8.996v-2.939z"></path>
<path fill="#16103e" d="M6.984 10.496h9.024v2.939h-9.024v-2.939z"></path>
<path fill="#16103e" d="M6.984 12.21h9.024v2.939h-9.024v-2.939z"></path>
<path fill="#16103e" d="M6.984 13.923h9.024v2.939h-9.024v-2.939z"></path>
<path fill="#16103e" d="M6.984 15.638h9.024v2.939h-9.024v-2.939z"></path>
<path fill="#16103e" d="M6.984 17.353h9.024v2.939h-9.024v-2.939z"></path>
<path fill="#16103e" d="M6.984 19.066h9.024v2.939h-9.024v-2.939z"></path>
<path fill="#16103e" d="M6.984 20.78h9.024v2.939h-9.024v-2.939z"></path>
<path fill="#000" d="M5.97 6.945h16.572v2.449h-16.572v-2.449z"></path>
<path fill="#fff" d="M16.95 10.252h9.883v10.040h-9.883v-10.040z"></path>
<path fill="#fff" d="M8.2 23.963h5.835v3.428h-5.835v-3.428z"></path>
<path fill="#16103e" d="M8.684 23.963h3.161v3.183h-3.161v-3.183z"></path>
</svg>
