<!-- Generated by IcoMoon.io -->
<svg version="1.1" xmlns="http://www.w3.org/2000/svg" width="31" height="32" viewBox="0 0 31 32">
<title>zoom</title>
<path fill="#160f3e" d="M20.849 3.661c-4.763-4.882-12.515-4.882-17.277 0-4.762 4.883-4.762 12.827 0 17.71 4.241 4.346 10.847 4.812 15.607 1.418 0.1 0.486 0.329 0.949 0.698 1.327l6.936 7.11c1.011 1.034 2.644 1.034 3.65 0 1.010-1.035 1.010-2.709 0-3.741l-6.936-7.112c-0.367-0.375-0.82-0.611-1.294-0.713 3.313-4.88 2.859-11.65-1.384-15.999zM18.659 19.127c-3.556 3.645-9.343 3.645-12.898 0-3.554-3.645-3.554-9.575 0-13.22 3.555-3.644 9.342-3.644 12.898 0 3.556 3.645 3.556 9.575 0 13.22z"></path>
</svg>
