<?xml version="1.0" encoding="UTF-8"?>
<svg width="16px" height="15px" viewBox="0 0 16 15" version="1.1" xmlns="http://www.w3.org/2000/svg" xmlns:xlink="http://www.w3.org/1999/xlink">
    <!-- Generator: Sketch 57.1 (83088) - https://sketch.com -->
    <title>icon/system/16/alert</title>
    <desc>Created with Sketch.</desc>
    <g id="Atoms" stroke="none" stroke-width="1" fill="none" fill-rule="evenodd">
        <g id="Icons" transform="translate(-253.000000, -669.000000)">
            <g id="icon/system/16/alert" transform="translate(253.000000, 669.000000)">
                <g id="icon/system/16/warning">
                    <rect id="Path" fill-rule="nonzero" x="0" y="0" width="16" height="16"></rect>
                    <path d="M7.99965294,3.09974268e-13 C8.73247825,3.09974268e-13 9.41211684,0.382642093 9.79418444,1.01253206 L15.719046,10.9037978 C16.0915546,11.5488977 16.0937787,12.3432152 15.7248884,12.990391 C15.3559982,13.6375669 14.6714006,14.040396 13.9188377,14.0486253 L2.07278752,14.0486253 C1.3279053,14.040396 0.643307651,13.6375669 0.274417431,12.990391 C-0.09447279,12.3432152 -0.0922486992,11.5488977 0.285936659,10.8941463 L6.20512144,1.01253206 L6.20712532,1.00920773 C6.58718904,0.382642093 7.26682763,3.09974268e-13 7.99965294,3.09974268e-13 Z M7.99965294,1.39768236 C7.75591343,1.39768236 7.52982516,1.52467102 7.40297849,1.73271232 L1.49063958,11.6027234 C1.36647005,11.8177567 1.36572869,12.0825292 1.48869209,12.2982545 C1.6116555,12.5139798 1.83985472,12.6482561 2.08046816,12.6509852 L13.9111571,12.6509852 C14.1594512,12.6482561 14.3876504,12.5139798 14.5106138,12.2982545 C14.6335772,12.0825292 14.6328358,11.8177567 14.5143431,11.6123749 L8.59716215,1.73408494 C8.47047424,1.52522972 8.24392804,1.39768236 7.99965294,1.39768236 Z M7.99965294,9.85557824 C8.38561227,9.85557824 8.69849412,10.1684601 8.69849412,10.5544194 C8.69849412,10.9403787 8.38561227,11.2532606 7.99965294,11.2532606 C7.61369361,11.2532606 7.30081176,10.9403787 7.30081176,10.5544194 C7.30081176,10.1684601 7.61369361,9.85557824 7.99965294,9.85557824 Z M7.99965294,4.26484881 C8.38561227,4.26484881 8.69849412,4.57773067 8.69849412,4.96368999 L8.69849412,7.75905471 C8.69849412,8.14501403 8.38561227,8.45789589 7.99965294,8.45789589 C7.61369361,8.45789589 7.30081176,8.14501403 7.30081176,7.75905471 L7.30081176,4.96368999 C7.30081176,4.57773067 7.61369361,4.26484881 7.99965294,4.26484881 Z" id="Color" fill="#160F3E"></path>
                </g>
            </g>
        </g>
    </g>
</svg>