<?xml version="1.0" encoding="UTF-8"?>
<svg width="12px" height="14px" viewBox="0 0 12 14" version="1.1" xmlns="http://www.w3.org/2000/svg" xmlns:xlink="http://www.w3.org/1999/xlink">
    <!-- Generator: Sketch 57.1 (83088) - https://sketch.com -->
    <title>icon/system/16/bookmark</title>
    <desc>Created with Sketch.</desc>
    <g id="Atoms" stroke="none" stroke-width="1" fill="none" fill-rule="evenodd">
        <g id="Icons" transform="translate(-367.000000, -633.000000)">
            <g id="icon/system/16/bookmark" transform="translate(365.000000, 632.000000)">
                <rect id="Path" fill-rule="nonzero" x="0" y="0" width="16" height="16"></rect>
                <path d="M11.7991362,12.9387151 L11.7991362,3.0998149 C11.7991362,2.71324965 11.4857631,2.3998766 11.0991979,2.3998766 L4.0998149,2.3998766 C3.71324965,2.3998766 3.3998766,2.71324965 3.3998766,3.0998149 L3.3998766,12.9387151 L7.19267553,10.229573 C7.43604234,10.0557395 7.76297046,10.0557395 8.00633727,10.229573 L11.7991362,12.9387151 Z M7.5995064,11.6592929 L3.10676917,14.8683909 C2.64350208,15.199296 2,14.8681383 2,14.2988277 L2,3.0998149 C2,1.94011915 2.94011915,1 4.0998149,1 L11.0991979,1 C12.2588936,1 13.1990128,1.94011915 13.1990128,3.0998149 L13.1990128,14.2988277 C13.1990128,14.8681383 12.5555107,15.199296 12.0922436,14.8683909 L7.5995064,11.6592929 Z" id="Color" fill="#160F3E" fill-rule="evenodd"></path>
            </g>
        </g>
    </g>
</svg>