<?xml version="1.0" encoding="UTF-8"?>
<svg width="16px" height="16px" viewBox="0 0 16 16" version="1.1" xmlns="http://www.w3.org/2000/svg" xmlns:xlink="http://www.w3.org/1999/xlink">
    <!-- Generator: Sketch 57.1 (83088) - https://sketch.com -->
    <title>icon/system/16/chat</title>
    <desc>Created with Sketch.</desc>
    <g id="Atoms" stroke="none" stroke-width="1" fill="none" fill-rule="evenodd">
        <g id="Icons" transform="translate(-477.000000, -705.000000)">
            <g id="icon/system/16/chat" transform="translate(477.000000, 705.000000)">
                <rect id="Path" fill-rule="nonzero" x="0" y="0" width="16" height="16"></rect>
                <path d="M4.49598164,12.9316827 C4.700519,12.8535914 4.9281249,12.8627459 5.1257299,12.9570118 C6.01510568,13.3812813 6.99949667,13.6014744 7.99959308,13.5990135 C10.4338241,13.5981239 12.651705,12.3027365 13.7299961,10.265079 L13.7316452,10.2619792 C14.17344,9.43590622 14.4019465,8.52469965 14.3993953,7.59946107 L14.4007566,7.24613937 C14.2233878,4.20974653 11.6385628,1.7685186 8.42338257,1.59988589 L7.99791563,1.59988589 C6.99949667,1.59744772 6.01510568,1.81764083 5.12276682,2.24331645 C2.95977274,3.26429011 1.60130175,5.33893269 1.60035139,7.60166941 C1.59782432,8.52469965 1.82633083,9.43590622 2.26812566,10.2619792 C2.35146529,10.4178086 2.38085974,10.5968483 2.35171957,10.7711445 L1.81967157,13.9534847 L4.49598164,12.9316827 Z M8.00185521,15.1988945 C6.88231643,15.2016513 5.77604749,14.9783153 4.75611321,14.5448895 L1.08573503,15.9462218 C0.508191874,16.1667249 -0.0905226765,15.6767285 0.0114187109,15.0669862 L0.730227741,10.7675717 C0.247193103,9.77543658 -0.00253138896,8.69360269 0.000492079426,7.59913333 C0.00167574179,4.71012057 1.72529282,2.07783074 4.43688417,0.797916345 C5.54322251,0.27014655 6.7644331,-0.00301946147 7.99988542,0 L8.46500653,0.00110883323 C12.5191344,0.212346423 15.7719482,3.28445374 15.999303,7.19949083 L15.999303,7.59725273 C16.0025555,8.78527457 15.7089706,9.95657685 15.143267,11.0149424 C13.7835466,13.5829656 11.018132,15.197794 8.00185521,15.1988945 Z" id="Color" fill="#160F3E" fill-rule="evenodd"></path>
            </g>
        </g>
    </g>
</svg>