<?xml version="1.0" encoding="UTF-8"?>
<svg width="15px" height="15px" viewBox="0 0 15 15" version="1.1" xmlns="http://www.w3.org/2000/svg" xmlns:xlink="http://www.w3.org/1999/xlink">
    <!-- Generator: Sketch 57.1 (83088) - https://sketch.com -->
    <title>icon/system/16/contact</title>
    <desc>Created with Sketch.</desc>
    <g id="Atoms" stroke="none" stroke-width="1" fill="none" fill-rule="evenodd">
        <g id="Icons" transform="translate(-365.000000, -669.000000)">
            <g id="icon/system/16/contact" transform="translate(365.000000, 668.000000)">
                <rect id="Path" fill-rule="nonzero" x="0" y="0" width="16" height="16"></rect>
                <path d="M13.6290023,11.8907719 L13.6292131,11.873803 C13.6378443,11.5265567 13.3844171,11.2279748 13.0459923,11.1802864 C12.3368351,11.0869187 11.6405349,10.9137654 10.9688277,10.6635512 C10.7183995,10.5695795 10.4360863,10.6296836 10.2485728,10.8147722 L9.37826292,11.6835658 C9.16012832,11.9013204 8.82313035,11.9467355 8.55496264,11.7945167 C6.73209702,10.7598125 5.2227914,9.25313635 4.18628138,7.43344646 C4.03379701,7.16574594 4.07929133,6.82933508 4.29742593,6.61158051 L5.16503196,5.74550114 C5.3531474,5.55560005 5.41335637,5.27377871 5.31864169,5.02224343 C5.06856987,4.35324976 4.8951143,3.65816264 4.80244441,2.95653047 C4.75430354,2.61652689 4.46112673,2.36483408 4.11041676,2.36821238 L2.0552121,2.36821238 C1.8628511,2.3684272 1.67942313,2.44930744 1.54973539,2.59112991 C1.42004765,2.73295238 1.3560426,2.9226572 1.37230465,3.10323267 C1.58587779,5.11090171 2.27019507,7.04011815 3.37306134,8.73963593 C4.3712457,10.3077507 5.7030535,11.6372382 7.27923622,12.6371001 C8.96898821,13.730989 10.8922185,14.413959 12.8820491,14.6299064 C13.0742244,14.647244 13.2648167,14.5828997 13.4070028,14.452681 C13.5491888,14.3224624 13.6297911,14.1384378 13.6290023,13.9430402 L13.6290023,11.8907719 Z M14.9995633,13.9402635 C15.0019129,14.518126 14.7601061,15.0701998 14.3335479,15.4608558 C13.9069898,15.8515117 13.3352128,16.0445447 12.746342,15.9913056 C10.531056,15.7510161 8.40311779,14.9953511 6.53884059,13.7884455 C4.79816738,12.6842763 3.32238036,11.2110603 2.21952824,9.47846698 C1.0028627,7.60363776 0.245706966,5.4690763 0.00835065477,3.23704058 C-0.0435870955,2.66330056 0.148428059,2.09418612 0.537491269,1.6687187 C0.926554479,1.24325128 1.47683839,1.00061057 2.05456675,1 L4.10367244,1 C5.1355694,0.98996252 6.01509984,1.74504094 6.16038318,2.77134126 C6.24039782,3.37696218 6.38878755,3.97160318 6.6021428,4.54237812 C6.88454978,5.29235398 6.70392287,6.13781798 6.13687275,6.71023549 L5.64546116,7.20079095 C6.45125566,8.46269572 7.52392074,9.53349156 8.7880282,10.3378817 L9.28215474,9.84462454 C9.85285226,9.28126141 10.6997918,9.10094918 11.4495305,9.38228614 C12.0228476,9.59584771 12.6185263,9.74397892 13.2313271,9.82468836 C14.2618853,9.96982165 15.0207111,10.8606619 14.9995689,11.8984178 L14.9995633,13.9402635 Z" id="Color" fill="#160F3E" fill-rule="evenodd"></path>
            </g>
        </g>
    </g>
</svg>