<?xml version="1.0" encoding="UTF-8"?>
<svg width="14px" height="16px" viewBox="0 0 14 16" version="1.1" xmlns="http://www.w3.org/2000/svg" xmlns:xlink="http://www.w3.org/1999/xlink">
    <!-- Generator: Sketch 57.1 (83088) - https://sketch.com -->
    <title>icon/system/16/delete</title>
    <desc>Created with Sketch.</desc>
    <g id="Atoms" stroke="none" stroke-width="1" fill="none" fill-rule="evenodd">
        <g id="Icons" transform="translate(-142.000000, -632.000000)">
            <g id="icon/system/16/delete" transform="translate(141.000000, 632.000000)">
                <path d="M9.375,13.0000002 L10.125,13.0000002 C10.3321068,13.0000002 10.5,12.832107 10.5,12.6250002 L10.5,5.87500017 C10.5,5.66789339 10.3321068,5.50000017 10.125,5.50000017 L9.375,5.50000017 C9.16789322,5.50000017 9,5.66789339 9,5.87500017 L9,12.6250002 C9,12.832107 9.16789322,13.0000002 9.375,13.0000002 Z M14.5,2.5 L11.9246875,2.5 L10.8621875,0.728125171 C10.5909536,0.276173133 10.1024068,-0.000250845093 9.5753125,-2.30926389e-14 L6.4246875,-2.30926389e-14 C5.89781595,-2.30926389e-14 5.40955682,0.276364232 5.1384375,0.728125171 L4.0753125,2.5 L1.5,2.5 C1.22385763,2.5 1,2.7238578 1,3 L1,3.5 C1,3.77614255 1.22385763,4 1.5,4 L2,4 L2,14.5 C2,15.3284273 2.67157288,16 3.5,16 L12.5,16 C13.3284271,16 14,15.3284273 14,14.5 L14,4 L14.5,4 C14.7761424,4 15,3.77614255 15,3.5 L15,3 C15,2.7238578 14.7761424,2.5 14.5,2.5 Z M6.37,1.59093767 C6.40399512,1.53435401 6.46523981,1.49981485 6.53125,1.49999943 L9.46875,1.49999943 C9.53464886,1.49992486 9.59574961,1.53444975 9.6296875,1.59093767 L10.1753125,2.49999943 L5.8246875,2.49999943 L6.37,1.59093767 Z M12.5,14.5000002 L3.5,14.5000002 L3.5,4.00000017 L12.5,4.00000017 L12.5,14.5000002 Z M5.875,13.0000002 L6.625,13.0000002 C6.83210678,13.0000002 7,12.832107 7,12.6250002 L7,5.87500017 C7,5.66789339 6.83210678,5.50000017 6.625,5.50000017 L5.875,5.50000017 C5.66789322,5.50000017 5.5,5.66789339 5.5,5.87500017 L5.5,12.6250002 C5.5,12.832107 5.66789322,13.0000002 5.875,13.0000002 Z" id="Shape" fill="#160F3E" fill-rule="evenodd"></path>
                <polygon id="Path" points="0 0 16 0 16 16 0 16"></polygon>
            </g>
        </g>
    </g>
</svg>