<?xml version="1.0" encoding="UTF-8"?>
<svg width="16px" height="14px" viewBox="0 0 16 14" version="1.1" xmlns="http://www.w3.org/2000/svg" xmlns:xlink="http://www.w3.org/1999/xlink">
    <!-- Generator: Sketch 57.1 (83088) - https://sketch.com -->
    <title>icon/system/16/export</title>
    <desc>Created with Sketch.</desc>
    <g id="Atoms" stroke="none" stroke-width="1" fill="none" fill-rule="evenodd">
        <g id="Icons" transform="translate(-253.000000, -742.000000)">
            <g id="icon/system/16/export" transform="translate(253.000000, 741.000000)">
                <rect id="Path" fill-rule="nonzero" x="0" y="0" width="16" height="16"></rect>
                <path d="M8.72727272,1.72873669 C8.72727272,1.07012892 9.53275892,0.750691464 9.98414544,1.23028964 L15.8023273,7.41210781 C16.0647696,7.69095278 16.0660375,8.1255316 15.8052267,8.40590319 L9.98704489,14.6604486 C9.53705523,15.1441875 8.72727272,14.8257772 8.72727272,14.1651003 L8.72727272,11.199344 C5.80960926,11.3297165 3.30335251,12.2538001 1.18571548,13.9733214 C0.710395116,14.3592815 0,14.0210231 0,13.4087367 C0,8.71404726 3.71395419,4.99136176 8.72727272,4.66159493 L8.72727272,1.72873669 Z M10.1818182,5.36510032 C10.1818182,5.76676196 9.85620708,6.09237305 9.45454544,6.09237305 C5.45444248,6.09237305 2.35254206,8.53581612 1.61955698,11.8737983 C3.88581568,10.4441739 6.50297668,9.72873668 9.45454544,9.72873668 C9.85620708,9.72873668 10.1818182,10.0543478 10.1818182,10.4560094 L10.1818182,12.3154969 L14.2767356,7.91346073 L10.1818182,3.56261101 L10.1818182,5.36510032 Z" id="Color" fill="#160F3E" fill-rule="evenodd"></path>
            </g>
        </g>
    </g>
</svg>