<?xml version="1.0" encoding="UTF-8"?>
<svg width="16px" height="14px" viewBox="0 0 16 14" version="1.1" xmlns="http://www.w3.org/2000/svg" xmlns:xlink="http://www.w3.org/1999/xlink">
    <!-- Generator: Sketch 57.1 (83088) - https://sketch.com -->
    <title>icon/system/16/external</title>
    <desc>Created with Sketch.</desc>
    <g id="Atoms" stroke="none" stroke-width="1" fill="none" fill-rule="evenodd">
        <g id="Icons" transform="translate(-197.000000, -706.000000)">
            <g id="icon/system/16/external" transform="translate(197.000000, 705.000000)">
                <path d="M16,1.62532773 L16,4.95999205 C16,5.51916532 15.3236038,5.79324125 14.9324874,5.40217692 L14.00213,4.47176743 L7.65705985,10.8168376 C7.41284332,11.0610541 7.0169327,11.0610541 6.77271617,10.8168376 L6.1831624,10.2272838 C5.93894587,9.9830673 5.93894587,9.58713063 6.1831624,9.34294015 L12.5282847,2.99781787 L11.5980315,2.0675126 C11.2053518,1.67483284 11.4834663,1 12.0402164,1 L15.3746723,1 C15.7200356,1 16,1.27996443 16,1.62532773 Z M10.9025625,8.539125 L10.4739911,8.96769643 C10.3534309,9.08825865 10.2857051,9.25177751 10.2857143,9.42227679 L10.2857143,13.2857143 L1.71428571,13.2857143 L1.71428571,4.71428571 L8.78571429,4.71428571 C8.95620194,4.714276 9.11970553,4.64655256 9.24026786,4.52600893 L9.66883929,4.0974375 C10.0738125,3.6924375 9.78699107,3 9.21428571,3 L1.28571429,3 C0.575625,3 0,3.575625 0,4.28571429 L0,13.7142857 C0,14.424375 0.575625,15 1.28571429,15 L10.7142857,15 C11.424375,15 12,14.424375 12,13.7142857 L12,8.99367857 C12,8.42094643 11.3075357,8.134125 10.9025625,8.539125 Z" id="Shape" fill="#160F3E" fill-rule="evenodd"></path>
                <polygon id="Path" points="0 0 16 0 16 16 0 16"></polygon>
            </g>
        </g>
    </g>
</svg>