<?xml version="1.0" encoding="UTF-8"?>
<svg width="16px" height="12px" viewBox="0 0 16 12" version="1.1" xmlns="http://www.w3.org/2000/svg" xmlns:xlink="http://www.w3.org/1999/xlink">
    <!-- Generator: Sketch 57.1 (83088) - https://sketch.com -->
    <title>icon/system/16/eye</title>
    <desc>Created with Sketch.</desc>
    <g id="Atoms" stroke="none" stroke-width="1" fill="none" fill-rule="evenodd">
        <g id="Icons" transform="translate(-309.000000, -707.000000)">
            <g id="icon/system/16/eye" transform="translate(309.000000, 705.000000)">
                <rect id="Path" fill-rule="nonzero" x="0" y="0" width="16" height="16"></rect>
                <path d="M8,2 C10.2532016,2 12.2257948,3.08832729 13.9030248,4.87737258 C14.4792491,5.49201186 14.9796663,6.14829673 15.4037763,6.80498305 C15.6600218,7.20175039 15.8359061,7.51443347 15.9296181,7.7018576 C16.0234606,7.8895426 16.0234606,8.1104574 15.9296181,8.2981424 C15.8359061,8.48556653 15.6600218,8.79824961 15.4037763,9.19501695 C14.9796663,9.85170327 14.4792491,10.5079881 13.9030248,11.1226274 C12.2257948,12.9116727 10.2532016,14 8,14 C5.74679837,14 3.77420516,12.9116727 2.0969752,11.1226274 C1.52075087,10.5079881 1.02033366,9.85170327 0.596223748,9.19501695 C0.339978173,8.79824961 0.164093938,8.48556653 0.0703818727,8.2981424 C-0.0234606242,8.1104574 -0.0234606242,7.8895426 0.0703818727,7.7018576 C0.164093938,7.51443347 0.339978173,7.20175039 0.596223748,6.80498305 C1.02033366,6.14829673 1.52075087,5.49201186 2.0969752,4.87737258 C3.77420516,3.08832729 5.74679837,2 8,2 Z M8,3.33333333 C6.1698683,3.33333333 4.51746151,4.24500604 3.06969147,5.78929409 C2.55216579,6.34132147 2.099458,6.93503661 1.71627625,7.52835029 C1.60751816,7.69674991 1.51105908,7.85491312 1.42714145,8 C1.51105908,8.14508688 1.60751816,8.30325009 1.71627625,8.47164971 C2.099458,9.06496339 2.55216579,9.65867853 3.06969147,10.2107059 C4.51746151,11.754994 6.1698683,12.6666667 8,12.6666667 C9.8301317,12.6666667 11.4825385,11.754994 12.9303085,10.2107059 C13.4478342,9.65867853 13.900542,9.06496339 14.2837237,8.47164971 C14.3924818,8.30325009 14.4889409,8.14508688 14.5728585,8 C14.4889409,7.85491312 14.3924818,7.69674991 14.2837237,7.52835029 C13.900542,6.93503661 13.4478342,6.34132147 12.9303085,5.78929409 C11.4825385,4.24500604 9.8301317,3.33333333 8,3.33333333 Z M8,5.33333333 C9.47275933,5.33333333 10.6666667,6.52724067 10.6666667,8 C10.6666667,9.47275933 9.47275933,10.6666667 8,10.6666667 C6.52724067,10.6666667 5.33333333,9.47275933 5.33333333,8 C5.33333333,6.52724067 6.52724067,5.33333333 8,5.33333333 Z M8,6.66666667 C7.26362033,6.66666667 6.66666667,7.26362033 6.66666667,8 C6.66666667,8.73637967 7.26362033,9.33333333 8,9.33333333 C8.73637967,9.33333333 9.33333333,8.73637967 9.33333333,8 C9.33333333,7.26362033 8.73637967,6.66666667 8,6.66666667 Z" id="Color" fill="#160F3E" fill-rule="evenodd"></path>
            </g>
        </g>
    </g>
</svg>