<?xml version="1.0" encoding="UTF-8"?>
<svg width="16px" height="15px" viewBox="0 0 16 15" version="1.1" xmlns="http://www.w3.org/2000/svg" xmlns:xlink="http://www.w3.org/1999/xlink">
    <!-- Generator: Sketch 57.1 (83088) - https://sketch.com -->
    <title>icon/system/16/favourite</title>
    <desc>Created with Sketch.</desc>
    <g id="Atoms" stroke="none" stroke-width="1" fill="none" fill-rule="evenodd">
        <g id="Icons" transform="translate(-253.000000, -633.000000)">
            <g id="icon/system/16/favourite" transform="translate(253.000000, 632.000000)">
                <rect id="Path" fill-rule="nonzero" x="0" y="0" width="16" height="16"></rect>
                <path d="M16,5.54214215 C16,6.74682422 15.521296,7.90213447 14.6693732,8.75365745 L8.49379434,14.9292363 C8.22097606,15.2020545 7.77865024,15.2020545 7.50583197,14.9292363 L1.33025315,8.75365744 C-0.443417734,6.97998651 -0.443417712,4.10429779 1.33025319,2.33062689 C3.1039241,0.556955981 5.97961281,0.55695596 7.75328375,2.33062685 L7.99981316,2.57715625 L8.24622662,2.3307428 C9.09786553,1.47870403 10.2531758,1 11.4578579,1 C12.6624853,1 13.8177453,1.47866059 14.6693732,2.33062683 C15.5213394,3.18225465 16,4.33751473 16,5.54214215 Z M12.9409002,8.50620566 L13.6815267,7.76557915 C14.2713997,7.17598299 14.6028102,6.37615281 14.6028102,5.54214215 C14.6028102,4.70813148 14.2713997,3.90830131 13.6815267,3.31870514 C13.0916987,2.72860026 12.2918685,2.39718978 11.4578579,2.39718978 C10.6238472,2.39718978 9.82401701,2.72860026 9.23430492,3.31858921 L8.49379434,4.05909979 C8.22097606,4.33191807 7.77865024,4.33191807 7.50583197,4.05909979 L6.7653214,3.31858922 C5.53728701,2.09055488 3.54624992,2.09055489 2.31821556,3.31858925 C1.0901812,4.54662362 1.09018118,6.53766071 2.31821552,7.76569508 L7.99981315,13.4472927 L12.9409002,8.50620566 Z" id="Color" fill="#160F3E" fill-rule="evenodd"></path>
            </g>
        </g>
    </g>
</svg>