<?xml version="1.0" encoding="UTF-8"?>
<svg width="16px" height="16px" viewBox="0 0 16 16" version="1.1" xmlns="http://www.w3.org/2000/svg" xmlns:xlink="http://www.w3.org/1999/xlink">
    <!-- Generator: Sketch 57.1 (83088) - https://sketch.com -->
    <title>icon/system/16/image</title>
    <desc>Created with Sketch.</desc>
    <g id="Atoms" stroke="none" stroke-width="1" fill="none" fill-rule="evenodd">
        <g id="Icons" transform="translate(-253.000000, -705.000000)">
            <g id="icon/system/16/image" transform="translate(253.000000, 705.000000)">
                <rect id="Path" fill-rule="nonzero" x="0" y="0" width="16" height="16"></rect>
                <path d="M13.6,0 C14.9254834,0 16,1.0745166 16,2.4 L16,13.6 C16,14.9254834 14.9254834,16 13.6,16 L2.4,16 C1.0745166,16 0,14.9254834 0,13.6 L0,2.4 C0,1.0745166 1.0745166,0 2.4,0 L13.6,0 Z M10.6343146,8.09705627 L7.76568542,10.9656854 C7.49603392,11.2353369 7.07353791,11.2771723 6.75623984,11.0656402 L5.44762877,10.1932329 C5.1303307,9.98170081 4.70783469,10.0235362 4.43818319,10.2931877 L1.599,13.131 L1.6,13.6 C1.6,14.0418278 1.9581722,14.4 2.4,14.4 L13.6,14.4 C14.0418278,14.4 14.4,14.0418278 14.4,13.6 L14.4,10.731 L11.7656854,8.09705627 C11.453266,7.78463684 10.946734,7.78463684 10.6343146,8.09705627 Z M13.6,1.6 L2.4,1.6 C1.9581722,1.6 1.6,1.9581722 1.6,2.4 L1.599,10.869 L3.30681234,9.16181681 C4.11576685,8.3528623 5.38325488,8.22735625 6.33514908,8.86195238 L7.09806569,9.37056346 L9.50294373,6.96568542 C10.440202,6.02842712 11.959798,6.02842712 12.8970563,6.96568542 L14.4,8.469 L14.4,2.4 C14.4,1.9581722 14.0418278,1.6 13.6,1.6 Z M4.4,3.2 C5.0627417,3.2 5.6,3.7372583 5.6,4.4 C5.6,5.0627417 5.0627417,5.6 4.4,5.6 C3.7372583,5.6 3.2,5.0627417 3.2,4.4 C3.2,3.7372583 3.7372583,3.2 4.4,3.2 Z" id="Color" fill="#160F3E" fill-rule="evenodd"></path>
            </g>
        </g>
    </g>
</svg>