<?xml version="1.0" encoding="UTF-8"?>
<svg width="16px" height="16px" viewBox="0 0 16 16" version="1.1" xmlns="http://www.w3.org/2000/svg" xmlns:xlink="http://www.w3.org/1999/xlink">
    <!-- Generator: Sketch 57.1 (83088) - https://sketch.com -->
    <title>icon/system/16/info</title>
    <desc>Created with Sketch.</desc>
    <g id="Atoms" stroke="none" stroke-width="1" fill="none" fill-rule="evenodd">
        <g id="Icons" transform="translate(-477.000000, -632.000000)">
            <g id="icon/system/16/info" transform="translate(477.000000, 632.000000)">
                <rect id="Path" fill-rule="nonzero" x="0" y="0" width="16" height="16"></rect>
                <path d="M8,0 C12.418278,0 16,3.581722 16,8 C16,12.418278 12.418278,16 8,16 C3.581722,16 0,12.418278 0,8 C0,3.581722 3.581722,0 8,0 Z M8,1.45454545 C4.38504527,1.45454545 1.45454545,4.38504527 1.45454545,8 C1.45454545,11.6149547 4.38504527,14.5454545 8,14.5454545 C11.6149547,14.5454545 14.5454545,11.6149547 14.5454545,8 C14.5454545,4.38504527 11.6149547,1.45454545 8,1.45454545 Z M8,7.27272727 C8.40166164,7.27272727 8.72727273,7.59833836 8.72727273,8 L8.72727273,10.9090909 C8.72727273,11.3107525 8.40166164,11.6363636 8,11.6363636 C7.59833836,11.6363636 7.27272727,11.3107525 7.27272727,10.9090909 L7.27272727,8 C7.27272727,7.59833836 7.59833836,7.27272727 8,7.27272727 Z M8,4.36363636 C8.40166164,4.36363636 8.72727273,4.68924745 8.72727273,5.09090909 C8.72727273,5.49257073 8.40166164,5.81818182 8,5.81818182 C7.59833836,5.81818182 7.27272727,5.49257073 7.27272727,5.09090909 C7.27272727,4.68924745 7.59833836,4.36363636 8,4.36363636 Z" id="Color" fill="#160F3E" fill-rule="evenodd"></path>
            </g>
        </g>
    </g>
</svg>