<?xml version="1.0" encoding="UTF-8"?>
<svg width="16px" height="11px" viewBox="0 0 16 11" version="1.1" xmlns="http://www.w3.org/2000/svg" xmlns:xlink="http://www.w3.org/1999/xlink">
    <!-- Generator: Sketch 57.1 (83088) - https://sketch.com -->
    <title>icon/system/16/menu</title>
    <desc>Created with Sketch.</desc>
    <g id="Atoms" stroke="none" stroke-width="1" fill="none" fill-rule="evenodd">
        <g id="Icons" transform="translate(-253.000000, -780.000000)">
            <g id="icon/system/16/menu" transform="translate(253.000000, 777.000000)">
                <rect id="Path" fill-rule="nonzero" x="0" y="0" width="16" height="16"></rect>
                <path d="M15.2,12.4285714 C15.6418278,12.4285714 16,12.7803477 16,13.2142857 C16,13.6482237 15.6418278,14 15.2,14 L0.8,14 C0.3581722,14 0,13.6482237 0,13.2142857 C0,12.7803477 0.3581722,12.4285714 0.8,12.4285714 L15.2,12.4285714 Z M15.2,7.71428571 C15.6418278,7.71428571 16,8.06606198 16,8.5 C16,8.93393802 15.6418278,9.28571429 15.2,9.28571429 L0.8,9.28571429 C0.3581722,9.28571429 0,8.93393802 0,8.5 C0,8.06606198 0.3581722,7.71428571 0.8,7.71428571 L15.2,7.71428571 Z M15.2,3 C15.6418278,3 16,3.35177627 16,3.78571429 C16,4.2196523 15.6418278,4.57142857 15.2,4.57142857 L0.8,4.57142857 C0.3581722,4.57142857 0,4.2196523 0,3.78571429 C0,3.35177627 0.3581722,3 0.8,3 L15.2,3 Z" id="Color" fill="#160F3E" fill-rule="evenodd"></path>
            </g>
        </g>
    </g>
</svg>