<?xml version="1.0" encoding="UTF-8"?>
<svg width="14px" height="16px" viewBox="0 0 14 16" version="1.1" xmlns="http://www.w3.org/2000/svg" xmlns:xlink="http://www.w3.org/1999/xlink">
    <!-- Generator: Sketch 57.1 (83088) - https://sketch.com -->
    <title>icon/system/16/notification</title>
    <desc>Created with Sketch.</desc>
    <g id="Atoms" stroke="none" stroke-width="1" fill="none" fill-rule="evenodd">
        <g id="Icons" transform="translate(-422.000000, -705.000000)" fill-rule="nonzero">
            <g id="icon/system/16/notification" transform="translate(421.000000, 705.000000)">
                <rect id="Path" x="0" y="0" width="16" height="16"></rect>
                <path d="M2.39063051,10.9090908 C2.39063051,11.3107593 2.70193905,11.6363759 3.08595675,11.6363759 L12.91399,11.6363759 C13.0717802,11.6363759 13.2248779,11.5802264 13.3481296,11.4771752 C13.64808,11.2263857 13.6968686,10.7687407 13.4571085,10.4550036 C12.6114303,9.34844039 12.1718516,8.2900263 12.1718516,7.2727272 L12.1718516,5.81818175 C12.1718516,3.40821196 10.3040321,1.45454545 7.99996009,1.45454545 C5.69588804,1.45454545 3.82806858,3.40821196 3.82806855,5.81818174 L3.82806855,7.2727272 C3.82806855,8.29001955 3.38849564,9.34842638 2.54282859,10.4549815 C2.44430257,10.5839028 2.39063051,10.7440426 2.39063051,10.9090908 Z M2.43743803,7.2727272 L2.43743803,5.81818173 C2.43743808,2.60488868 4.92786402,0 7.99996009,0 C11.0720562,0 13.5624821,2.60488868 13.5624821,5.81818174 L13.5624821,7.2727272 C13.5624821,7.91619198 13.8782769,8.67656002 14.5433542,9.5468085 C15.2626499,10.4880397 15.1162852,11.8609634 14.2164281,12.613337 C13.8466675,12.922495 13.3873676,13.0909214 12.9139908,13.0909214 L3.08595759,13.0909214 C1.93391502,13.0909214 1,12.1140826 1,10.9090908 C1,10.4139519 1.16101433,9.93353772 1.45658906,9.54677826 C2.12164796,8.67654886 2.43743803,7.91618724 2.43743803,7.2727272 Z M5.99417721,13.0909091 C6.21941858,14.024009 6.91333286,14.5454545 7.99996009,14.5454545 C9.08658732,14.5454545 9.7805016,14.024009 10.005743,13.0909091 L5.99417721,13.0909091 Z M11.4765364,12.3636364 C11.4765364,14.5446445 10.1184807,16 7.99996009,16 C5.88143947,16 4.5233838,14.5446445 4.5233838,12.3636364 C4.5233838,11.9619747 4.83468705,11.6363636 5.21869906,11.6363636 L10.7812211,11.6363636 C11.1652331,11.6363636 11.4765364,11.9619747 11.4765364,12.3636364 Z" id="Color" fill="#080808"></path>
            </g>
        </g>
    </g>
</svg>