<?xml version="1.0" encoding="UTF-8"?>
<svg width="4px" height="16px" viewBox="0 0 4 16" version="1.1" xmlns="http://www.w3.org/2000/svg" xmlns:xlink="http://www.w3.org/1999/xlink">
    <!-- Generator: Sketch 57.1 (83088) - https://sketch.com -->
    <title>icon/system/16/options</title>
    <desc>Created with Sketch.</desc>
    <g id="Atoms" stroke="none" stroke-width="1" fill="none" fill-rule="evenodd">
        <g id="Icons" transform="translate(-203.000000, -632.000000)">
            <g id="icon/system/16/options" transform="translate(197.000000, 632.000000)">
                <polygon id="Path" points="0 0 16 0 16 16 0 16"></polygon>
                <path d="M8,6 C9.10555556,6 10,6.89444444 10,8 C10,9.10555556 9.10555556,10 8,10 C6.89444444,10 6,9.10555556 6,8 C6,6.89444444 6.89444444,6 8,6 Z M6,2 C6,3.10555556 6.89444444,4 8,4 C9.10555556,4 10,3.10555556 10,2 C10,0.894444444 9.10555556,0 8,0 C6.89444444,0 6,0.894444444 6,2 Z M6,14 C6,15.1055556 6.89444444,16 8,16 C9.10555556,16 10,15.1055556 10,14 C10,12.8944444 9.10555556,12 8,12 C6.89444444,12 6,12.8944444 6,14 Z" id="Shape" fill="#160F3E" fill-rule="evenodd"></path>
            </g>
        </g>
    </g>
</svg>