<?xml version="1.0" encoding="UTF-8"?>
<svg width="15px" height="16px" viewBox="0 0 15 16" version="1.1" xmlns="http://www.w3.org/2000/svg" xmlns:xlink="http://www.w3.org/1999/xlink">
    <!-- Generator: Sketch 57.1 (83088) - https://sketch.com -->
    <title>icon/system/16/renew</title>
    <desc>Created with Sketch.</desc>
    <g id="Atoms" stroke="none" stroke-width="1" fill="none" fill-rule="evenodd">
        <g id="Icons" transform="translate(-422.000000, -777.000000)">
            <g id="icon/system/16/renew" transform="translate(421.000000, 777.000000)">
                <rect id="Path" fill-rule="nonzero" x="0" y="0" width="16" height="16"></rect>
                <path d="M14.6898882,9.49620651 C15.068541,9.63019932 15.2668772,10.0457808 15.1328844,10.4244336 C14.2998487,12.7785252 12.317315,14.5406209 9.88174362,15.0916997 C7.44617226,15.6427784 4.89818473,14.9057704 3.1625712,13.167663 L2.454,12.534 L2.45454545,15.2727273 C2.45454545,15.6743889 2.12893436,16 1.72727273,16 C1.32561109,16 1,15.6743889 1,15.2727273 L1,10.9090909 C1,10.5074293 1.32561109,10.1818182 1.72727273,10.1818182 L6.09090909,10.1818182 C6.49257073,10.1818182 6.81818182,10.5074293 6.81818182,10.9090909 C6.81818182,11.3107525 6.49257073,11.6363636 6.09090909,11.6363636 L3.63,11.636 L4.16166105,12.111324 C5.57390132,13.5242722 7.61229134,14.1138786 9.56074843,13.6730156 C11.5092055,13.2321526 13.0952325,11.822476 13.7616611,9.93920274 C13.8956539,9.56054987 14.3112353,9.3622137 14.6898882,9.49620651 Z M14.8181818,0 C15.2198435,0 15.5454545,0.325611091 15.5454545,0.727272727 L15.5454545,5.09090909 C15.5454545,5.49257073 15.2198435,5.81818182 14.8181818,5.81818182 L10.4545455,5.81818182 C10.0528838,5.81818182 9.72727273,5.49257073 9.72727273,5.09090909 C9.72727273,4.68924745 10.0528838,4.36363636 10.4545455,4.36363636 L12.914,4.363 L12.3837935,3.88867605 C10.9715532,2.47572784 8.9331632,1.88612141 6.98470612,2.32698442 C5.03624903,2.76784744 3.45022202,4.17752399 2.78379349,6.06079726 C2.64980068,6.43945013 2.23421925,6.6377863 1.85556637,6.50379349 C1.4769135,6.36980068 1.27857734,5.95421925 1.41257015,5.57556637 C2.24560581,3.22147478 4.22813957,1.4593791 6.66371093,0.908300326 C9.09928228,0.357221555 11.6472698,1.09422959 13.3828833,2.83233696 L14.09,3.465 L14.0909091,0.727272727 C14.0909091,0.325611091 14.4165202,0 14.8181818,0 Z" id="Color" fill="#160F3E" fill-rule="evenodd"></path>
            </g>
        </g>
    </g>
</svg>