<?xml version="1.0" encoding="UTF-8"?>
<svg width="16px" height="16px" viewBox="0 0 16 16" version="1.1" xmlns="http://www.w3.org/2000/svg" xmlns:xlink="http://www.w3.org/1999/xlink">
    <!-- Generator: Sketch 57.1 (83088) - https://sketch.com -->
    <title>icon/system/16/setting</title>
    <desc>Created with Sketch.</desc>
    <g id="Atoms" stroke="none" stroke-width="1" fill="none" fill-rule="evenodd">
        <g id="Icons" transform="translate(-309.000000, -669.000000)">
            <g id="icon/system/16/setting" transform="translate(309.000000, 669.000000)">
                <rect id="Path" fill-rule="nonzero" x="0" y="0" width="16" height="16"></rect>
                <path d="M8.72811452,0.12574341 C9.34812551,0.345368159 9.83587677,0.833119418 10.0555015,1.45313041 L10.3580356,2.30719841 L11.1758768,1.91720505 C12.2629465,1.39882818 13.5644181,1.8598448 14.0827949,2.94691448 C14.3659108,3.54062661 14.3659108,4.23041106 14.0827949,4.82412319 L13.6928016,5.64196437 L14.5468696,5.94449848 C15.6820917,6.34662502 16.2763831,7.59289237 15.8742566,8.72811452 C15.6546318,9.34812551 15.1668806,9.83587677 14.5468696,10.0555015 L13.6928016,10.3580356 L14.0827949,11.1758768 C14.6011718,12.2629465 14.1401552,13.5644181 13.0530855,14.0827949 C12.4593734,14.3659108 11.7695889,14.3659108 11.1758768,14.0827949 L10.3580356,13.6928016 L10.0555015,14.5468696 C9.65337498,15.6820917 8.40710763,16.2763831 7.27188548,15.8742566 C6.65187449,15.6546318 6.16412323,15.1668806 5.94449848,14.5468696 L5.64196437,13.6928016 L4.82412319,14.0827949 C3.7370535,14.6011718 2.43558192,14.1401552 1.91720505,13.0530855 C1.63408922,12.4593734 1.63408922,11.7695889 1.91720505,11.1758768 L2.30719841,10.3580356 L1.45313041,10.0555015 C0.317908269,9.65337498 -0.276383136,8.40710763 0.12574341,7.27188548 C0.345368159,6.65187449 0.833119418,6.16412323 1.45313041,5.94449848 L2.30719841,5.64196437 L1.91720505,4.82412319 C1.39882818,3.7370535 1.8598448,2.43558192 2.94691448,1.91720505 C3.54062661,1.63408922 4.23041106,1.63408922 4.82412319,1.91720505 L5.64196437,2.30719841 L5.94449848,1.45313041 C6.34662502,0.317908269 7.59289237,-0.276383136 8.72811452,0.12574341 Z M7.31483283,1.93854009 L6.7428,3.55341566 C6.73434169,3.57729386 6.72464093,3.60071357 6.71373742,3.62357894 C6.54094513,3.9859355 6.10712127,4.1396077 5.74476471,3.96681541 L4.19838695,3.22941424 C4.00048291,3.1350423 3.77055476,3.1350423 3.57265072,3.22941424 C3.21029416,3.40220653 3.05662195,3.83603039 3.22941424,4.19838695 L3.96681541,5.74476471 C3.97771892,5.76763007 3.98741969,5.79104978 3.995878,5.81492798 C4.12992018,6.19333537 3.93182304,6.60875782 3.55341566,6.7428 L1.93854009,7.31483283 C1.73186976,7.38804108 1.56928601,7.55062483 1.49607776,7.75729516 C1.36203558,8.13570254 1.56013271,8.55112499 1.93854009,8.68516717 L3.55341566,9.2572 C3.57729386,9.26565831 3.60071357,9.27535907 3.62357894,9.28626258 C3.9859355,9.45905487 4.1396077,9.89287873 3.96681541,10.2552353 L3.22941424,11.801613 C3.1350423,11.9995171 3.1350423,12.2294452 3.22941424,12.4273493 C3.40220653,12.7897058 3.83603039,12.943378 4.19838695,12.7705858 L5.74476471,12.0331846 C5.76763007,12.0222811 5.79104978,12.0125803 5.81492798,12.004122 C6.19333537,11.8700798 6.60875782,12.068177 6.7428,12.4465843 L7.31483283,14.0614599 C7.38804108,14.2681302 7.55062483,14.430714 7.75729516,14.5039222 C8.13570254,14.6379644 8.55112499,14.4398673 8.68516717,14.0614599 L9.2572,12.4465843 C9.26565831,12.4227061 9.27535907,12.3992864 9.28626258,12.3764211 C9.45905487,12.0140645 9.89287873,11.8603923 10.2552353,12.0331846 L11.801613,12.7705858 C11.9995171,12.8649577 12.2294452,12.8649577 12.4273493,12.7705858 C12.7897058,12.5977935 12.943378,12.1639696 12.7705858,11.801613 L12.0331846,10.2552353 C12.0222811,10.2323699 12.0125803,10.2089502 12.004122,10.185072 C11.8700798,9.80666463 12.068177,9.39124218 12.4465843,9.2572 L14.0614599,8.68516717 C14.2681302,8.61195892 14.430714,8.44937517 14.5039222,8.24270484 C14.6379644,7.86429746 14.4398673,7.44887501 14.0614599,7.31483283 L12.4465843,6.7428 C12.4227061,6.73434169 12.3992864,6.72464093 12.3764211,6.71373742 C12.0140645,6.54094513 11.8603923,6.10712127 12.0331846,5.74476471 L12.7705858,4.19838695 C12.8649577,4.00048291 12.8649577,3.77055476 12.7705858,3.57265072 C12.5977935,3.21029416 12.1639696,3.05662195 11.801613,3.22941424 L10.2552353,3.96681541 C10.2323699,3.97771892 10.2089502,3.98741969 10.185072,3.995878 C9.80666463,4.12992018 9.39124218,3.93182304 9.2572,3.55341566 L8.68516717,1.93854009 C8.61195892,1.73186976 8.44937517,1.56928601 8.24270484,1.49607776 C7.86429746,1.36203558 7.44887501,1.56013271 7.31483283,1.93854009 Z M8,5.0924658 C9.6057868,5.0924658 10.9075342,6.3942132 10.9075342,8 C10.9075342,9.6057868 9.6057868,10.9075342 8,10.9075342 C6.3942132,10.9075342 5.0924658,9.6057868 5.0924658,8 C5.0924658,6.3942132 6.3942132,5.0924658 8,5.0924658 Z M8,6.5462329 C7.1971066,6.5462329 6.5462329,7.1971066 6.5462329,8 C6.5462329,8.8028934 7.1971066,9.4537671 8,9.4537671 C8.8028934,9.4537671 9.4537671,8.8028934 9.4537671,8 C9.4537671,7.1971066 8.8028934,6.5462329 8,6.5462329 Z" id="Color" fill="#160F3E" fill-rule="evenodd"></path>
            </g>
        </g>
    </g>
</svg>