<?xml version="1.0" encoding="UTF-8"?>
<svg width="16px" height="16px" viewBox="0 0 16 16" version="1.1" xmlns="http://www.w3.org/2000/svg" xmlns:xlink="http://www.w3.org/1999/xlink">
    <!-- Generator: Sketch 57.1 (83088) - https://sketch.com -->
    <title>icon/system/16/star</title>
    <desc>Created with Sketch.</desc>
    <g id="Atoms" stroke="none" stroke-width="1" fill="none" fill-rule="evenodd">
        <g id="Icons" transform="translate(-309.000000, -632.000000)">
            <g id="icon/system/16/star" transform="translate(309.000000, 632.000000)">
                <rect id="Path" fill-rule="nonzero" x="0" y="0" width="16" height="16"></rect>
                <path d="M8,2.82557798 L6.40503588,5.99605852 C6.29919926,6.20644126 6.09472116,6.35232922 5.85812334,6.38626145 L2.29031885,6.89794646 L4.87138794,9.36464971 C5.04291551,9.52857698 5.12120786,9.76484921 5.08073146,9.99641082 L4.47175329,13.4803172 L7.66152347,11.8343825 C7.87341732,11.7250444 8.12658268,11.7250444 8.33847653,11.8343825 L11.5282467,13.4803172 L10.9192685,9.99641082 C10.8787921,9.76484921 10.9570845,9.52857698 11.1286121,9.36464971 L13.7096812,6.89794646 L10.1418767,6.38626145 C9.90527884,6.35232922 9.70080074,6.20644126 9.59496412,5.99605852 L8,2.82557798 Z M5.26989821,5.02839831 L7.34791372,0.89770494 C7.61467669,0.367431687 8.38532331,0.367431687 8.65208628,0.89770494 L10.7301018,5.02839831 L15.3771815,5.6948701 C15.9734241,5.78038162 16.2110613,6.49950729 15.7793996,6.91204226 L12.417397,10.1250763 L13.2108362,14.6642667 C13.3127305,15.2471943 12.6891203,15.6916976 12.1556243,15.4164114 L8,13.272092 L3.84437572,15.4164114 C3.31087973,15.6916976 2.68726954,15.2471943 2.78916383,14.6642667 L3.58260303,10.1250763 L0.220600381,6.91204226 C-0.211061295,6.49950729 0.0265758777,5.78038162 0.622818469,5.6948701 L5.26989821,5.02839831 Z" id="Color" fill="#160F3E" fill-rule="evenodd"></path>
            </g>
        </g>
    </g>
</svg>