<?xml version="1.0" encoding="UTF-8"?>
<svg width="16px" height="16px" viewBox="0 0 16 16" version="1.1" xmlns="http://www.w3.org/2000/svg" xmlns:xlink="http://www.w3.org/1999/xlink">
    <!-- Generator: Sketch 57.1 (83088) - https://sketch.com -->
    <title>icon/system/16/upload</title>
    <desc>Created with Sketch.</desc>
    <g id="Atoms" stroke="none" stroke-width="1" fill="none" fill-rule="evenodd">
        <g id="Icons" transform="translate(-365.000000, -777.000000)">
            <g id="icon/system/16/upload" transform="translate(365.000000, 777.000000)">
                <rect id="Path" fill-rule="nonzero" x="0" y="0" width="16" height="16"></rect>
                <path d="M15.2,9.6 C15.6418278,9.6 16,9.9581722 16,10.4 L16,13.6 C16,14.9254834 14.9254834,16 13.6,16 L2.4,16 C1.0745166,16 0,14.9254834 0,13.6 L0,10.4 C0,9.9581722 0.3581722,9.6 0.8,9.6 C1.2418278,9.6 1.6,9.9581722 1.6,10.4 L1.6,13.6 C1.6,14.0418278 1.9581722,14.4 2.4,14.4 L13.6,14.4 C14.0418278,14.4 14.4,14.0418278 14.4,13.6 L14.4,10.4 C14.4,9.9581722 14.7581722,9.6 15.2,9.6 Z M8,0 L8.01760531,0.000192532506 C8.03939952,0.000669279665 8.06117797,0.0020314144 8.08288208,0.00427893672 L8,0 C8.04602373,0 8.09113974,0.0038864171 8.13503774,0.0113489705 C8.15017726,0.0139879421 8.16549358,0.0170539062 8.18072688,0.0205708269 C8.20864997,0.0269632651 8.23559151,0.0347425399 8.2619095,0.0438570726 C8.26678131,0.0455778888 8.27173387,0.0473436692 8.27667211,0.0491597685 C8.34510593,0.0743456534 8.40924458,0.108719282 8.46750081,0.150740517 C8.475339,0.156334788 8.4824281,0.161644189 8.48944744,0.167086541 C8.51358003,0.185813075 8.53700023,0.206202385 8.55916632,0.227869291 C8.56125767,0.229912142 8.5634764,0.232105549 8.56568542,0.234314575 L12.5656854,4.23431458 C12.8781049,4.54673401 12.8781049,5.05326599 12.5656854,5.36568542 C12.253266,5.67810486 11.746734,5.67810486 11.4343146,5.36568542 L8.8,2.731 L8.8,10.4 C8.8,10.8418278 8.4418278,11.2 8,11.2 C7.5581722,11.2 7.2,10.8418278 7.2,10.4 L7.199,2.732 L4.56568542,5.36568542 C4.25326599,5.67810486 3.74673401,5.67810486 3.43431458,5.36568542 C3.12189514,5.05326599 3.12189514,4.54673401 3.43431458,4.23431458 L7.43431458,0.234314575 C7.46299977,0.206202385 7.48641997,0.185813075 7.51097523,0.166820434 L7.43431458,0.234314575 C7.46505876,0.203570395 7.4976827,0.175851649 7.53181645,0.151158338 C7.59075542,0.108719282 7.65489407,0.0743456534 7.72344406,0.0490907127 C7.72826613,0.0473436692 7.73321869,0.0455778888 7.73818477,0.0438624272 C7.76440849,0.0347425399 7.79135003,0.0269632651 7.81883409,0.0206002842 C7.83450642,0.0170539062 7.84982274,0.0139879421 7.86520078,0.0113729344 C7.88222056,0.00841510145 7.89966712,0.00603397204 7.91728308,0.00422443675 C7.93915594,0.00199683714 7.9612706,0.000627577386 7.98340059,0.000171157469 C7.98857294,6.00427072e-05 7.99427946,0 8,0 Z" id="Color" fill="#160F3E" fill-rule="evenodd"></path>
            </g>
        </g>
    </g>
</svg>