<?xml version="1.0" encoding="UTF-8"?>
<svg width="16px" height="16px" viewBox="0 0 16 16" version="1.1" xmlns="http://www.w3.org/2000/svg" xmlns:xlink="http://www.w3.org/1999/xlink">
    <!-- Generator: Sketch 57.1 (83088) - https://sketch.com -->
    <title>icon/system/16/user</title>
    <desc>Created with Sketch.</desc>
    <g id="Atoms" stroke="none" stroke-width="1" fill="none" fill-rule="evenodd">
        <g id="Icons" transform="translate(-421.000000, -632.000000)">
            <g id="icon/system/16/user" transform="translate(421.000000, 632.000000)">
                <rect id="Path" fill-rule="nonzero" x="0" y="0" width="16" height="16"></rect>
                <path d="M8,9.6 C13.5053763,9.6 16.1692681,11.4666667 15.9916753,15.2 C15.9916753,15.6418278 15.6338758,16 15.1925078,16 L0.807492196,16 C0.366124154,16 0.00832466181,15.6418278 0.00832466181,15.2 C-0.169268123,11.4666667 2.49462366,9.6 8,9.6 Z M8,11.2 C3.73333333,11.2 1.6,12.2666667 1.6,14.4 L14.4,14.4 C14.4,12.2666667 12.2666667,11.2 8,11.2 Z M8,0 C10.209139,0 12,1.790861 12,4 C12,6.209139 10.209139,8 8,8 C5.790861,8 4,6.209139 4,4 C4,1.790861 5.790861,0 8,0 Z M8,1.6 C6.6745166,1.6 5.6,2.6745166 5.6,4 C5.6,5.3254834 6.6745166,6.4 8,6.4 C9.3254834,6.4 10.4,5.3254834 10.4,4 C10.4,2.6745166 9.3254834,1.6 8,1.6 Z" id="Color" fill="#160F3E" fill-rule="evenodd"></path>
            </g>
        </g>
    </g>
</svg>