<?xml version="1.0" encoding="UTF-8"?>
<svg width="16px" height="16px" viewBox="0 0 16 16" version="1.1" xmlns="http://www.w3.org/2000/svg" xmlns:xlink="http://www.w3.org/1999/xlink">
    <!-- Generator: Sketch 57.1 (83088) - https://sketch.com -->
    <title>icon/system/16/zoom</title>
    <desc>Created with Sketch.</desc>
    <g id="Atoms" stroke="none" stroke-width="1" fill="none" fill-rule="evenodd">
        <g id="Icons" transform="translate(-197.000000, -668.000000)" fill="#160F3E">
            <g id="icon/system/16/zoom" transform="translate(197.000000, 668.000000)">
                <path d="M10.6850103,1.8307069 C8.2440678,-0.610235635 4.27125258,-0.610235635 1.83031005,1.8307069 C-0.610103348,4.27217859 -0.610103348,8.24446465 1.83031005,10.6859363 C4.00403473,12.8591319 7.38949979,13.0919554 9.8288549,11.3949897 C9.88018189,11.6378669 9.99765192,11.8696321 10.1865564,12.0585366 L13.7413477,15.6133278 C14.2593799,16.1303018 15.0964862,16.1303018 15.6118727,15.6133278 C16.1293758,15.0958247 16.1293758,14.2587185 15.6118727,13.7428028 L12.0570814,10.1869533 C11.8692352,9.99963621 11.6369409,9.88163704 11.3940637,9.83031005 C13.0920876,7.3904258 12.8592642,4.00548987 10.6850103,1.8307069 Z M9.56269533,9.56362133 C7.74032245,11.3859942 4.77446879,11.3859942 2.95262505,9.56362133 C1.13131046,7.74124845 1.13131046,4.77592394 2.95262505,2.95355105 C4.77446879,1.13170732 7.74032245,1.13170732 9.56269533,2.95355105 C11.3850682,4.77592394 11.3850682,7.74124845 9.56269533,9.56362133 Z" id="Shape"></path>
            </g>
        </g>
    </g>
</svg>