<?xml version="1.0" encoding="UTF-8"?>
<svg width="20px" height="20px" viewBox="0 0 20 20" version="1.1" xmlns="http://www.w3.org/2000/svg" xmlns:xlink="http://www.w3.org/1999/xlink">
    <!-- Generator: Sketch 57.1 (83088) - https://sketch.com -->
    <title>icon/system/24/chat</title>
    <desc>Created with Sketch.</desc>
    <g id="Atoms" stroke="none" stroke-width="1" fill="none" fill-rule="evenodd">
        <g id="Icons" transform="translate(-529.000000, -377.000000)" fill-rule="nonzero">
            <g id="icon/system/24/chat" transform="translate(528.000000, 375.000000)">
                <rect id="Path" x="0" y="0" width="24" height="24"></rect>
                <path d="M6.62038626,18.1657804 C6.87607658,18.0681591 7.16060467,18.0796031 7.4076289,18.197444 C8.51942957,18.7278196 9.75000791,19.003081 11.0002194,19.000003 C14.0432297,18.9988926 16.8157828,17.3795403 18.1637448,14.8322831 L18.1658063,14.828408 C18.71809,13.7957416 19.003744,12.6566505 19.0005547,11.500018 L19.0022565,11.0583337 C18.7805293,7.26256631 15.5492628,4.21080921 11.5299949,4.00000298 L10.9981225,4.00000298 C9.75000791,3.99695505 8.51942957,4.27221648 7.40392478,4.80434974 C4.69998531,6.08065974 3.00177293,8.67415179 3.0005849,11.5027786 C2.99742583,12.6566505 3.28307976,13.7957416 3.83536351,14.828408 C3.93954563,15.023209 3.97629137,15.2470249 3.93986351,15.4649109 L3.27475508,19.4431258 L6.62038626,18.1657804 Z M11.0030473,21 C9.60352194,21.0034478 8.22058508,20.7242574 6.9455744,20.1824357 L2.3572676,21.9342286 C1.6352861,22.2098775 0.886838415,21.5973374 1.01427443,20.835104 L1.91285114,15.4604447 C1.30901388,14.2201854 0.996835533,12.8677946 1.00061514,11.4996083 C1.00209483,7.88807942 3.15677305,4.59747754 6.54650904,2.99746805 C7.92953266,2.33770778 9.45615706,1.9962254 11.0005849,2 L11.5820286,2.00138614 C16.6500575,2.26545236 20.7163708,6.10586612 21.0005849,11.0000188 L21.0005849,11.4972574 C21.0046508,12.9823928 20.6376431,14.4466273 19.930462,15.7696806 C18.2306878,18.9799433 14.7736679,20.9986257 11.0030473,21 Z" id="Color" fill="#080808"></path>
            </g>
        </g>
    </g>
</svg>