<?xml version="1.0" encoding="UTF-8"?>
<svg width="22px" height="22px" viewBox="0 0 22 22" version="1.1" xmlns="http://www.w3.org/2000/svg" xmlns:xlink="http://www.w3.org/1999/xlink">
    <!-- Generator: Sketch 57.1 (83088) - https://sketch.com -->
    <title>icon/system/24/contact</title>
    <desc>Created with Sketch.</desc>
    <g id="Atoms" stroke="none" stroke-width="1" fill="none" fill-rule="evenodd">
        <g id="Icons" transform="translate(-401.000000, -322.000000)">
            <g id="icon/system/24/contact" transform="translate(400.000000, 321.000000)">
                <rect id="Path" fill-rule="nonzero" x="0" y="0" width="24" height="24"></rect>
                <path d="M20.8881274,16.920099 L20.8884351,16.895294 C20.9010301,16.3876903 20.5312165,15.9512242 20.0373699,15.8815134 C19.002532,15.7450288 17.9864556,15.4919137 17.0062665,15.1261514 C16.640829,14.9887838 16.2288634,15.0766438 15.9552342,15.3472058 L14.6852342,16.6172058 C14.3669212,16.9355188 13.8751568,17.0019064 13.4838329,16.7793936 C10.8238155,15.2668659 8.6213606,13.064411 7.10883291,10.4043936 C6.88632003,10.0130697 6.95270764,9.52130527 7.27102064,9.20299226 L8.53707512,7.93695993 C8.81158265,7.65936306 8.89944262,7.24739744 8.76123017,6.87970389 C8.39631276,5.90177087 8.14319766,4.88569452 8.00796907,3.86005062 C7.93771949,3.36303436 7.5099011,2.99511054 6.99812742,3.00004892 L3.99906915,3.00004892 C3.71836627,3.00036295 3.45069892,3.11859345 3.26145204,3.32590913 C3.07220515,3.53322481 2.97880575,3.81053477 3.00253616,4.07449947 C3.31419285,7.00930431 4.31278313,9.82942736 5.92214121,12.3137776 C7.37874217,14.6060432 9.32218327,16.5494843 11.6222286,18.0110794 C14.0879999,19.6101232 16.8944746,20.6084867 19.7981357,20.924158 C20.0785676,20.9495021 20.3566895,20.8554437 20.5641746,20.6650905 C20.7716596,20.4747372 20.8892786,20.2057306 20.8881274,19.920099 L20.8881274,16.920099 Z M22.8881192,19.9160401 C22.8915479,20.7607577 22.5386911,21.5677776 21.916236,22.1388374 C21.2937808,22.7098972 20.4594151,22.9920722 19.6001051,22.9142475 C16.367448,22.5629929 13.2622533,21.458364 10.5418059,19.6941128 C8.00172781,18.0800415 5.84818497,15.9264987 4.23884754,13.3937987 C2.46342782,10.6531787 1.358548,7.5328829 1.0121857,4.27009949 C0.936395512,3.43140799 1.21659371,2.59947812 1.78433437,1.97753107 C2.35207502,1.35558402 3.15507706,1.00089252 3.99812742,1 L6.98828577,1 C8.49408185,0.98532724 9.77753704,2.0890987 9.98954181,3.58934156 C10.1063032,4.47463648 10.322841,5.34388099 10.6341797,6.17823816 C11.0462822,7.27455071 10.7827023,8.51044756 9.9552342,9.34720583 L9.23814163,10.0642984 C10.4139976,11.9089472 11.9792846,13.4742334 13.8239339,14.6500886 L14.5449883,13.9290467 C15.3777789,13.1055241 16.6136758,12.8419442 17.7077323,13.2532018 C18.5443455,13.5653855 19.41359,13.7819233 20.3078197,13.8999041 C21.8116623,14.1120595 22.9189792,15.4142872 22.8881274,16.9312758 L22.8881192,19.9160401 Z" id="Color" fill="#160F3E" fill-rule="evenodd"></path>
            </g>
        </g>
    </g>
</svg>