<?xml version="1.0" encoding="UTF-8"?>
<svg width="21px" height="18px" viewBox="0 0 21 18" version="1.1" xmlns="http://www.w3.org/2000/svg" xmlns:xlink="http://www.w3.org/1999/xlink">
    <!-- Generator: Sketch 57.1 (83088) - https://sketch.com -->
    <title>icon/system/24/external</title>
    <desc>Created with Sketch.</desc>
    <g id="Atoms" stroke="none" stroke-width="1" fill="none" fill-rule="evenodd">
        <g id="Icons" transform="translate(-210.000000, -378.000000)">
            <g id="icon/system/24/external" transform="translate(208.000000, 375.000000)">
                <polygon id="Path" points="0 0 24 0 24 24 0 24"></polygon>
                <path d="M23,3.81292605 L23,8.14798967 C23,8.87491491 22.120685,9.23121362 21.6122336,8.72283 L20.402769,7.51329766 L12.1541778,15.7618889 C11.8366963,16.0793704 11.3220125,16.0793704 11.004531,15.7618889 L10.2381111,14.995469 C9.92062963,14.6779875 9.92062963,14.1632698 10.2381111,13.8458222 L18.4867701,5.59716323 L17.277441,4.38776637 C16.7669573,3.87728269 17.1285062,3 17.8522813,3 L22.187074,3 C22.6360462,3 23,3.36395376 23,3.81292605 Z M16.53675,12.9239062 L15.9653214,13.4596205 C15.8045745,13.6103233 15.7142735,13.8147219 15.7142857,14.027846 L15.7142857,18.8571429 L4.28571429,18.8571429 L4.28571429,8.14285714 L13.7142857,8.14285714 C13.9416026,8.142845 14.1596074,8.0581907 14.3203571,7.90751116 L14.8917857,7.37179688 C15.43175,6.86554687 15.0493214,6 14.2857143,6 L3.71428571,6 C2.7675,6 2,6.71953125 2,7.60714286 L2,19.3928571 C2,20.2804688 2.7675,21 3.71428571,21 L16.2857143,21 C17.2325,21 18,20.2804688 18,19.3928571 L18,13.4920982 C18,12.776183 17.0767143,12.4176563 16.53675,12.9239062 Z" id="Shape" fill="#160F3E" fill-rule="evenodd"></path>
            </g>
        </g>
    </g>
</svg>