<?xml version="1.0" encoding="UTF-8"?>
<svg width="21px" height="22px" viewBox="0 0 21 22" version="1.1" xmlns="http://www.w3.org/2000/svg" xmlns:xlink="http://www.w3.org/1999/xlink">
    <!-- Generator: Sketch 57.1 (83088) - https://sketch.com -->
    <title>icon/system/24/notification</title>
    <desc>Created with Sketch.</desc>
    <g id="Atoms" stroke="none" stroke-width="1" fill="none" fill-rule="evenodd">
        <g id="Icons" transform="translate(-466.000000, -376.000000)" fill-rule="nonzero">
            <g id="icon/system/24/notification" transform="translate(464.000000, 375.000000)">
                <rect id="Path" x="0" y="0" width="24" height="24"></rect>
                <path d="M4,16 C4,16.552294 4.44772286,17.0000169 5.00001579,17.0000169 L19.1346592,17.0000169 C19.3615926,17.0000169 19.5817772,16.9228113 19.7590374,16.7811159 C20.1904249,16.4362804 20.2605926,15.8070185 19.9157704,15.37563 C18.699519,13.8541055 18.0673184,12.3987862 18.0673184,11 L18.0673184,9 C18.0673184,5.68629145 15.3810269,3 12.0673184,3 C8.75360994,3 6.06731846,5.68629145 6.06731841,9 L6.06731841,11 C6.06731841,12.3987769 5.43512617,13.8540863 4.21889075,15.3755996 C4.07719096,15.5528663 4,15.7730586 4,16 Z M4.06731841,11 L4.06731841,9 C4.06731847,4.58172193 7.64904046,1 12.0673184,1 C16.4855964,1 20.0673183,4.58172193 20.0673184,9 L20.0673184,11 C20.0673184,11.884764 20.5214933,12.93027 21.4780052,14.1268617 C22.5124938,15.4210546 22.3019926,17.3088247 21.0078213,18.3433383 C20.4760328,18.7684307 19.8154693,19.0000169 19.1346604,19.0000169 L5.00001699,19.0000169 C3.34315336,19.0000169 2,17.6568635 2,16 C2,15.3191838 2.23157025,14.6586144 2.65666481,14.1268201 C3.61315023,12.9302547 4.06731841,11.8847575 4.06731841,11 Z M9.1826084,19 C9.50654976,20.2830123 10.5045349,21 12.0673184,21 C13.6301019,21 14.6280871,20.2830123 14.9520284,19 L9.1826084,19 Z M17.0673184,18 C17.0673184,20.9988863 15.1141674,23 12.0673184,23 C9.02046938,23 7.06731841,20.9988863 7.06731841,18 C7.06731841,17.4477153 7.51503366,17 8.06731841,17 L16.0673184,17 C16.6196032,17 17.0673184,17.4477153 17.0673184,18 Z" id="Color" fill="#080808"></path>
            </g>
        </g>
    </g>
</svg>