<?xml version="1.0" encoding="UTF-8"?>
<svg width="22px" height="22px" viewBox="0 0 22 22" version="1.1" xmlns="http://www.w3.org/2000/svg" xmlns:xlink="http://www.w3.org/1999/xlink">
    <!-- Generator: Sketch 57.1 (83088) - https://sketch.com -->
    <title>icon/system/24/setting</title>
    <desc>Created with Sketch.</desc>
    <g id="Atoms" stroke="none" stroke-width="1" fill="none" fill-rule="evenodd">
        <g id="Icons" transform="translate(-337.000000, -322.000000)" fill-rule="nonzero">
            <g id="icon/system/24/setting" transform="translate(336.000000, 321.000000)">
                <rect id="Path" x="0" y="0" width="24" height="24"></rect>
                <path d="M13.0075829,1.17298976 C13.8605545,1.47513547 14.5315716,2.14615253 14.8337173,2.99912409 L15.2499244,4.17409633 L16.3750581,3.63756836 C17.8705792,2.92441854 19.6610607,3.55865578 20.3742105,5.05417688 C20.7637032,5.87096813 20.7637032,6.81992955 20.3742105,7.63672081 L19.8376826,8.76185452 L21.0126548,9.17806163 C22.574421,9.73128167 23.3920092,11.4458168 22.8387891,13.0075829 C22.5366434,13.8605545 21.8656264,14.5315716 21.0126548,14.8337173 L19.8376826,15.2499244 L20.3742105,16.3750581 C21.0873604,17.8705792 20.4531231,19.6610607 18.957602,20.3742105 C18.1408108,20.7637032 17.1918493,20.7637032 16.3750581,20.3742105 L15.2499244,19.8376826 L14.8337173,21.0126548 C14.2804972,22.574421 12.5659621,23.3920092 11.004196,22.8387891 C10.1512244,22.5366434 9.48020735,21.8656264 9.17806163,21.0126548 L8.76185452,19.8376826 L7.63672081,20.3742105 C6.14119971,21.0873604 4.35071817,20.4531231 3.63756836,18.957602 C3.24807567,18.1408108 3.24807567,17.1918493 3.63756836,16.3750581 L4.17409633,15.2499244 L2.99912409,14.8337173 C1.43735791,14.2804972 0.61976972,12.5659621 1.17298976,11.004196 C1.47513547,10.1512244 2.14615253,9.48020735 2.99912409,9.17806163 L4.17409633,8.76185452 L3.63756836,7.63672081 C2.92441854,6.14119971 3.55865578,4.35071817 5.05417688,3.63756836 C5.87096813,3.24807567 6.81992955,3.24807567 7.63672081,3.63756836 L8.76185452,4.17409633 L9.17806163,2.99912409 C9.73128167,1.43735791 11.4458168,0.61976972 13.0075829,1.17298976 Z M11.0632802,3.66691974 L10.2763139,5.88856249 C10.2646775,5.92141259 10.2513318,5.95363194 10.2363315,5.98508865 C9.99861487,6.48359568 9.40178769,6.69500809 8.90328066,6.45729149 L6.77587283,5.44282201 C6.50360908,5.31299112 6.18728861,5.31299112 5.91502485,5.44282201 C5.41651782,5.68053862 5.20510541,6.2773658 5.44282201,6.77587283 L6.45729149,8.90328066 C6.47229184,8.93473737 6.48563753,8.96695672 6.49727393,8.99980682 C6.68168061,9.52039554 6.40915122,10.0919072 5.88856249,10.2763139 L3.66691974,11.0632802 C3.38259589,11.1639954 3.15892354,11.3876678 3.0582083,11.6719916 C2.87380162,12.1925803 3.14633102,12.764092 3.66691974,12.9484987 L5.88856249,13.735465 C5.92141259,13.7471014 5.95363194,13.7604471 5.98508865,13.7754474 C6.48359568,14.013164 6.69500809,14.6099912 6.45729149,15.1084982 L5.44282201,17.2359061 C5.31299112,17.5081698 5.31299112,17.8244903 5.44282201,18.096754 C5.68053862,18.5952611 6.2773658,18.8066735 6.77587283,18.5689569 L8.90328066,17.5544874 C8.93473737,17.5394871 8.96695672,17.5261414 8.99980682,17.514505 C9.52039554,17.3300983 10.0919072,17.6026277 10.2763139,18.1232164 L11.0632802,20.3448592 C11.1639954,20.629183 11.3876678,20.8528554 11.6719916,20.9535706 C12.1925803,21.1379773 12.764092,20.8654479 12.9484987,20.3448592 L13.735465,18.1232164 C13.7471014,18.0903663 13.7604471,18.058147 13.7754474,18.0266902 C14.013164,17.5281832 14.6099912,17.3167708 15.1084982,17.5544874 L17.2359061,18.5689569 C17.5081698,18.6987878 17.8244903,18.6987878 18.096754,18.5689569 C18.5952611,18.3312403 18.8066735,17.7344131 18.5689569,17.2359061 L17.5544874,15.1084982 C17.5394871,15.0770415 17.5261414,15.0448222 17.514505,15.0119721 C17.3300983,14.4913834 17.6026277,13.9198717 18.1232164,13.735465 L20.3448592,12.9484987 C20.629183,12.8477835 20.8528554,12.6241111 20.9535706,12.3397873 C21.1379773,11.8191986 20.8654479,11.2476869 20.3448592,11.0632802 L18.1232164,10.2763139 C18.0903663,10.2646775 18.058147,10.2513318 18.0266902,10.2363315 C17.5281832,9.99861487 17.3167708,9.40178769 17.5544874,8.90328066 L18.5689569,6.77587283 C18.6987878,6.50360908 18.6987878,6.18728861 18.5689569,5.91502485 C18.3312403,5.41651782 17.7344131,5.20510541 17.2359061,5.44282201 L15.1084982,6.45729149 C15.0770415,6.47229184 15.0448222,6.48563753 15.0119721,6.49727393 C14.4913834,6.68168061 13.9198717,6.40915122 13.735465,5.88856249 L12.9484987,3.66691974 C12.8477835,3.38259589 12.6241111,3.15892354 12.3397873,3.0582083 C11.8191986,2.87380162 11.2476869,3.14633102 11.0632802,3.66691974 Z M12.0058894,8.00588945 C14.2150284,8.00588945 16.0058894,9.79675045 16.0058894,12.0058894 C16.0058894,14.2150284 14.2150284,16.0058894 12.0058894,16.0058894 C9.79675045,16.0058894 8.00588945,14.2150284 8.00588945,12.0058894 C8.00588945,9.79675045 9.79675045,8.00588945 12.0058894,8.00588945 Z M12.0058894,10.0058894 C10.9013199,10.0058894 10.0058894,10.9013199 10.0058894,12.0058894 C10.0058894,13.1104589 10.9013199,14.0058894 12.0058894,14.0058894 C13.1104589,14.0058894 14.0058894,13.1104589 14.0058894,12.0058894 C14.0058894,10.9013199 13.1104589,10.0058894 12.0058894,10.0058894 Z" id="Color" fill="#080808"></path>
            </g>
        </g>
    </g>
</svg>