<?xml version="1.0" encoding="UTF-8"?>
<svg width="24px" height="24px" viewBox="0 0 24 24" version="1.1" xmlns="http://www.w3.org/2000/svg" xmlns:xlink="http://www.w3.org/1999/xlink">
    <!-- Generator: Sketch 57.1 (83088) - https://sketch.com -->
    <title>icon/system/24/zoom</title>
    <desc>Created with Sketch.</desc>
    <g id="Atoms" stroke="none" stroke-width="1" fill="none" fill-rule="evenodd">
        <g id="Icons" transform="translate(-208.000000, -320.000000)" fill="#160F3E">
            <g id="icon/system/24/zoom" transform="translate(208.000000, 320.000000)">
                <path d="M16.0275155,2.74606036 C12.3661017,-0.915353452 6.40687888,-0.915353452 2.74546507,2.74606036 C-0.915155023,6.40826788 -0.915155023,12.366697 2.74546507,16.0289045 C6.00605209,19.2886978 11.0842497,19.637933 14.7432823,17.0924845 C14.8202728,17.4568003 14.9964779,17.8044481 15.2798346,18.0878049 L20.6120215,23.4199917 C21.3890699,24.1954527 22.6447292,24.1954527 23.417809,23.4199917 C24.1940637,22.6437371 24.1940637,21.3880777 23.417809,20.6142042 L18.0856222,15.2804299 C17.8038528,14.9994543 17.4554113,14.8224556 17.0910955,14.7454651 C19.6381315,11.0856387 19.2888962,6.00823481 16.0275155,2.74606036 Z M14.344043,14.345432 C11.6104837,17.0789913 7.16170318,17.0789913 4.42893758,14.345432 C1.69696569,11.6118727 1.69696569,7.1638859 4.42893758,4.43032658 C7.16170318,1.69756098 11.6104837,1.69756098 14.344043,4.43032658 C17.0776023,7.1638859 17.0776023,11.6118727 14.344043,14.345432 Z" id="Shape"></path>
            </g>
        </g>
    </g>
</svg>