<?xml version="1.0" encoding="UTF-8"?>
<svg width="42px" height="43px" viewBox="0 0 42 43" version="1.1" xmlns="http://www.w3.org/2000/svg" xmlns:xlink="http://www.w3.org/1999/xlink">
    <!-- Generator: Sketch 57.1 (83088) - https://sketch.com -->
    <title>icon/system/40/contact</title>
    <desc>Created with Sketch.</desc>
    <g id="Organism" stroke="none" stroke-width="1" fill="none" fill-rule="evenodd">
        <g id="Footer" transform="translate(-86.000000, -439.000000)" fill="#FFFFFF">
            <g id="icon/system/40/contact" transform="translate(80.000000, 436.000000)">
                <path d="M37.5978527,34.8676726 L32.4713751,31.2855521 C31.8010074,30.8188062 31.0174307,30.57191 30.2048754,30.57191 C28.9124374,30.57191 27.6999799,31.2055717 26.9612231,32.2657958 L25.7711755,33.971273 C23.7766867,32.6336287 21.5507568,30.7658722 19.4299221,28.6450375 C17.3090873,26.5242028 15.4413309,24.2982729 14.1036865,22.3037841 L15.8083911,21.1141229 C17.5977126,19.8680504 18.0377983,17.395997 16.7886347,15.6024254 L13.2072871,10.4771069 C12.4580981,9.40567776 11.2495043,8.76583397 9.97445338,8.76583397 C9.53243567,8.76583397 9.09930479,8.84349614 8.68626553,8.99611588 C8.21758767,9.1696001 7.78097933,9.38172221 7.35325772,9.65025569 L6.64541122,10.1486847 C6.46806322,10.286622 6.30307935,10.4373099 6.14659582,10.5941798 C5.28342498,11.4573506 4.67024134,12.5500307 4.32404569,13.8428551 C2.84846399,19.3750307 6.50399643,27.7385922 13.4205683,34.6543913 C19.2282322,40.4624416 26.205852,44.0708357 31.6302278,44.0716085 C31.6306141,44.0716085 31.6310005,44.0716085 31.6313869,44.0716085 C32.5594694,44.0716085 33.4342316,43.9634223 34.2328772,43.7505275 C35.5249288,43.4047182 36.6176089,42.7915346 37.4796206,41.9291366 C37.6376496,41.7718802 37.7883374,41.6068964 37.9490711,41.398638 L38.4482729,40.6861551 C38.6932372,40.2939803 38.9053593,39.8573719 39.0788436,39.3886941 C39.6823678,37.7581745 39.0734344,35.8993048 37.5978527,34.8676726 Z" id="Path" fill-rule="evenodd" transform="translate(21.654896, 26.418721) rotate(11.000000) translate(-21.654896, -26.418721) "></path>
                <path d="M46.4196121,30.6965816 L45.0561547,30.6965816 C50.132777,24.2529166 49.7466333,14.7804489 43.8885531,8.80342553 C37.6121855,2.39885816 27.3988647,2.39885816 21.1224971,8.80342553 C20.8230521,9.10895051 20.8230521,9.60390097 21.1224971,9.90942595 C21.4219422,10.2149509 21.9070431,10.2149509 22.2064881,9.90942595 C27.8854628,4.11514477 37.1255874,4.11514477 42.8045621,9.90942595 C47.9985295,15.2088522 48.4266891,23.5395158 44.1198743,29.3580958 L44.1198743,28.3501498 C44.1198743,27.9182138 43.7766355,27.5680058 43.3532951,27.5680058 C42.9299547,27.5680058 42.5867159,27.9182138 42.5867159,28.3501498 L42.5867159,31.4433992 C42.577171,31.6553095 42.6458562,31.8697975 42.8045621,32.0317258 C42.9542846,32.1844883 43.1504211,32.2608696 43.3465576,32.2608696 C43.3477274,32.2608696 43.3488035,32.2602012 43.3499732,32.2602012 C43.3511429,32.2602012 43.3521255,32.2608696 43.3532952,32.2608696 L46.4196121,32.2608696 C46.8429525,32.2608696 47.1861914,31.9106616 47.1861914,31.4787256 C47.1861914,31.0467897 46.8429525,30.6965816 46.4196121,30.6965816 Z" id="Path" fill-rule="evenodd" transform="translate(34.745739, 18.130435) rotate(19.000000) translate(-34.745739, -18.130435) "></path>
                <circle id="Oval" fill-rule="evenodd" cx="20.6153047" cy="8.23913043" r="1"></circle>
                <text id="24" font-family="Helvetica" font-size="11" font-weight="normal" line-spacing="20" letter-spacing="0.663491889">
                    <tspan x="25.6189196" y="19.5434783">24</tspan>
                </text>
            </g>
        </g>
    </g>
</svg>