<?xml version="1.0" encoding="UTF-8"?>
<svg width="24px" height="24px" viewBox="0 0 24 24" version="1.1" xmlns="http://www.w3.org/2000/svg" xmlns:xlink="http://www.w3.org/1999/xlink">
    <!-- Generator: Sketch 57.1 (83088) - https://sketch.com -->
    <title>icon/system/24/contrast</title>
    <desc>Created with Sketch.</desc>
    <g id="Organism" stroke="none" stroke-width="1" fill="none" fill-rule="evenodd">
        <g id="Footer" transform="translate(-100.000000, -542.000000)" fill="#FFFFFF">
            <g id="Group-13" transform="translate(100.000000, 542.000000)">
                <g id="icon/system/16/contrast" transform="translate(0.000000, -0.000000)">
                    <path d="M3.89189189,12 C3.89189189,16.4709405 7.52905951,20.1081081 12,20.1081081 C16.4709405,20.1081081 20.1081081,16.4709405 20.1081081,12 C20.1081081,7.52905951 16.4709405,3.89189189 12,3.89189189 C7.52905951,3.89189189 3.89189189,7.52905951 3.89189189,12 Z M12,5.59673097 C15.5306152,5.59673097 18.403269,8.46938482 18.403269,12 C18.403269,15.5306152 15.5306152,18.403269 12,18.403269 C8.46938482,18.403269 5.59673097,15.5306152 5.59673097,12 C5.59673097,8.46938482 8.46938482,5.59673097 12,5.59673097 Z" id="Shape"></path>
                    <path d="M12.146669,17.5135135 C12.6032019,17.5135135 12.972973,17.1306343 12.972973,16.6579176 L12.972973,7.99073104 C12.972973,7.5180143 12.6032019,7.13513514 12.146669,7.13513514 C9.38319849,7.13513514 7.13513514,9.46289076 7.13513514,12.3243243 C7.13513514,15.1857579 9.38319849,17.5135135 12.146669,17.5135135 Z M11.320365,8.95274169 L11.320365,15.695907 C9.86658633,15.3135625 8.78774316,13.9472828 8.78774316,12.3243243 C8.78774316,10.7013658 9.86658633,9.33508612 11.320365,8.95274169 Z" id="Shape"></path>
                    <path d="M12.972973,2.35650551 L12.972973,0.886737729 C12.972973,0.396815134 12.5375676,4.92939023e-14 12,4.92939023e-14 C11.4624324,4.92939023e-14 11.027027,0.396815134 11.027027,0.886737729 L11.027027,2.35650551 C11.027027,2.84642811 11.4624324,3.24324324 12,3.24324324 C12.5375676,3.24324324 12.972973,2.84642811 12.972973,2.35650551 Z" id="Path"></path>
                    <path d="M19.3605228,3.48285635 L18.4018343,4.44130877 C18.0822715,4.76079291 18.0822715,5.2786128 18.4018343,5.59809694 C18.5613601,5.75758342 18.7709933,5.83783784 18.9801152,5.83783784 C19.1892371,5.83783784 19.3988703,5.7580946 19.5583961,5.59809694 L20.5170846,4.63964452 C20.8366475,4.32016038 20.8366475,3.80234049 20.5170846,3.48285635 C20.1980331,3.16337221 19.6795743,3.16337221 19.3605228,3.48285635 Z" id="Path"></path>
                    <path d="M23.1132623,11.027027 L21.6434945,11.027027 C21.1535719,11.027027 20.7567568,11.4624324 20.7567568,12 C20.7567568,12.5375676 21.1535719,12.972973 21.6434945,12.972973 L23.1132623,12.972973 C23.6031849,12.972973 24,12.5375676 24,12 C24,11.4624324 23.6031849,11.027027 23.1132623,11.027027 Z" id="Path"></path>
                    <path d="M18.4018343,18.4014272 C18.0822715,18.7209586 18.0822715,19.238855 18.4018343,19.5583864 L19.3605228,20.5169804 C19.5200486,20.6764905 19.7296818,20.7567568 19.9388037,20.7567568 C20.1479256,20.7567568 20.3575589,20.6770017 20.5170846,20.5169804 C20.8366475,20.1974491 20.8366475,19.6795527 20.5170846,19.3600213 L19.5583961,18.4014272 C19.2393446,18.0824071 18.7213971,18.0824071 18.4018343,18.4014272 Z" id="Path"></path>
                    <path d="M12.972973,23.1132623 L12.972973,21.6434945 C12.972973,21.1535719 12.5375676,20.7567568 12,20.7567568 C11.4624324,20.7567568 11.027027,21.1535719 11.027027,21.6434945 L11.027027,23.1132623 C11.027027,23.6031849 11.4624324,24 12,24 C12.5375676,24 12.972973,23.6031849 12.972973,23.1132623 Z" id="Path"></path>
                    <path d="M3.48297341,20.5170159 C3.64249525,20.6765023 3.85212331,20.7567568 4.06124007,20.7567568 C4.27035684,20.7567568 4.47998489,20.6770135 4.63950673,20.5170159 L5.59817162,19.5585634 C5.91772658,19.2390793 5.91772658,18.7212594 5.59817162,18.4017753 C5.27861665,18.0822911 4.76068197,18.0822911 4.44112701,18.4017753 L3.48246213,19.3602277 C3.16341845,19.6797118 3.16341845,20.1980429 3.48297341,20.5170159 Z" id="Path"></path>
                    <path d="M0.886737729,12.972973 L2.35650551,12.972973 C2.84642811,12.972973 3.24324324,12.5375676 3.24324324,12 C3.24324324,11.4624324 2.84642811,11.027027 2.35650551,11.027027 L0.886737729,11.027027 C0.396815134,11.027027 4.92939023e-14,11.4624324 4.92939023e-14,12 C4.92939023e-14,12.5375676 0.396815134,12.972973 0.886737729,12.972973 Z" id="Path"></path>
                    <path d="M4.6399885,3.48285635 C4.32042566,3.16337221 3.80247821,3.16337221 3.48291537,3.48285635 C3.16335253,3.80234049 3.16335253,4.32016038 3.48291537,4.63964452 L4.44160389,5.59809694 C4.60112965,5.75758342 4.81076288,5.83783784 5.0198848,5.83783784 C5.22900672,5.83783784 5.43863994,5.7580946 5.59816571,5.59809694 C5.91772855,5.2786128 5.91772855,4.76079291 5.59816571,4.44130877 L4.6399885,3.48285635 Z" id="Path"></path>
                </g>
            </g>
        </g>
    </g>
</svg>