<?xml version="1.0" encoding="UTF-8"?>
<svg width="36px" height="36px" viewBox="0 0 36 36" version="1.1" xmlns="http://www.w3.org/2000/svg" xmlns:xlink="http://www.w3.org/1999/xlink">
    <!-- Generator: Sketch 57.1 (83088) - https://sketch.com -->
    <title>icon/system/24/facebook</title>
    <desc>Created with Sketch.</desc>
    <g id="Organism" stroke="none" stroke-width="1" fill="none" fill-rule="evenodd">
        <g id="Footer" transform="translate(-623.000000, -798.000000)" fill="#FFFFFF">
            <g id="icon/system/16/facebook" transform="translate(623.000000, 798.000000)">
                <path d="M15.459,27.792 L19.5054,27.792 L19.5054,17.9988 L22.2048,17.9988 L22.5624,14.6244 L19.5054,14.6244 L19.5096,12.9348 C19.5096,12.0552 19.5936,11.583 20.856,11.583 L22.5432,11.583 L22.5432,8.208 L19.8432,8.208 C16.6002,8.208 15.459,9.8454 15.459,12.5982 L15.459,14.6244 L13.4376,14.6244 L13.4376,17.9994 L15.459,17.9994 L15.459,27.792 L15.459,27.792 Z M18,36 C8.0592,36 0,27.9414 0,18 C0,8.0586 8.0592,0 18,0 C27.9408,0 36,8.0586 36,18 C36,27.9414 27.9408,36 18,36 Z" id="Shape"></path>
            </g>
        </g>
    </g>
</svg>