<?xml version="1.0" encoding="UTF-8"?>
<svg width="36px" height="36px" viewBox="0 0 36 36" version="1.1" xmlns="http://www.w3.org/2000/svg" xmlns:xlink="http://www.w3.org/1999/xlink">
    <!-- Generator: Sketch 57.1 (83088) - https://sketch.com -->
    <title>icon/system/24/linkedin</title>
    <desc>Created with Sketch.</desc>
    <g id="Organism" stroke="none" stroke-width="1" fill="none" fill-rule="evenodd">
        <g id="Footer" transform="translate(-676.000000, -798.000000)" fill="#FFFFFF">
            <g id="icon/system/16/linkedin" transform="translate(676.000000, 798.000000)">
                <path d="M28.1022,26.4822 L28.1022,19.455 C28.1022,15.69 26.0922,13.938 23.4126,13.938 C21.2502,13.938 20.2812,15.1278 19.7412,15.9624 L19.7412,14.226 L15.6672,14.226 C15.7212,15.3762 15.6672,26.4822 15.6672,26.4822 L19.7412,26.4822 L19.7412,19.6374 C19.7412,19.272 19.7676,18.906 19.8756,18.6444 C20.1696,17.9124 20.8398,17.1546 21.9648,17.1546 C23.4396,17.1546 24.0288,18.2784 24.0288,19.9254 L24.0288,26.4828 L28.1022,26.4828 L28.1022,26.4822 Z M11.3754,12.5532 C12.7956,12.5532 13.6806,11.6112 13.6806,10.4346 C13.6542,9.2328 12.7956,8.3178 11.4024,8.3178 C10.0092,8.3178 9.0978,9.2322 9.0978,10.4346 C9.0978,11.6112 9.9822,12.5532 11.3496,12.5532 L11.3754,12.5532 Z M18,36 C8.0592,36 0,27.9408 0,18 C0,8.0586 8.0592,0 18,0 C27.9408,0 36,8.0586 36,18 C36,27.9408 27.9408,36 18,36 Z M13.4124,26.4822 L13.4124,14.226 L9.339,14.226 L9.339,26.4822 L13.4124,26.4822 Z" id="Shape"></path>
            </g>
        </g>
    </g>
</svg>