<?xml version="1.0" encoding="UTF-8"?>
<svg width="136px" height="60px" viewBox="0 0 136 60" version="1.1" xmlns="http://www.w3.org/2000/svg" xmlns:xlink="http://www.w3.org/1999/xlink">
    <!-- Generator: Sketch 57.1 (83088) - https://sketch.com -->
    <title>logo/english/white/big</title>
    <desc>Created with Sketch.</desc>
    <g id="logo/english/white/big" stroke="none" stroke-width="1" fill="none" fill-rule="evenodd">
        <g id="GOV.SA-E" fill="#FFFFFF" fill-rule="nonzero">
            <path d="M72.3782123,36.6473186 C71.1283799,36.6473186 70.6573184,36.0681388 70.6573184,35.1634069 C70.6573184,34.288959 71.2176536,33.5432177 72.3345251,33.5432177 C73.3469274,33.5432177 73.7913966,34.1223975 73.7913966,35.0214511 L73.7913966,36.6473186 L72.3782123,36.6473186 Z M71.74,32.3545698 C71.9099545,32.3538078 72.0636022,32.4552352 72.1291746,32.6114797 C72.1947469,32.7677241 72.159303,32.9479505 72.0393986,33.0679752 C71.9194942,33.188 71.7387928,33.2241359 71.5816997,33.159504 C71.4246067,33.0948722 71.3221229,32.9422277 71.3221229,32.7728707 C71.3252112,32.5444933 71.5108029,32.3603965 71.74,32.3583596 L71.74,32.3545698 Z M72.9651397,35.133123 C72.9651397,34.4914826 72.7087151,34.2208202 72.2756425,34.2208202 C71.7912849,34.2208202 71.5158659,34.5880126 71.5158659,35.0876972 C71.5158659,35.6933754 71.8121788,35.9886435 72.4826816,35.9886435 L72.9727374,35.9886435 L72.9651397,35.133123 Z M72.7751955,32.3640379 C72.93156,32.3535389 73.0807725,32.4307097 73.1621558,32.5641688 C73.2435392,32.697628 73.2435392,32.8651481 73.1621558,32.9986072 C73.0807725,33.1320663 72.93156,33.2092371 72.7751955,33.1987382 C72.5548132,33.1839408 72.3836402,33.0014913 72.3836402,32.781388 C72.3836402,32.5612847 72.5548132,32.3788352 72.7751955,32.3640379 Z" id="Shape"></path>
            <path d="M74.412514,35.9829653 L76.3214525,35.9829653 C76.2815642,35.0365931 75.8181006,34.4403785 74.8018994,34.1829653 L75.0089385,33.4769716 C76.3385475,33.8233438 77.0793296,34.5501577 77.1572067,35.9829653 L77.5181006,35.9829653 L77.5181006,36.6473186 L74.412514,36.6473186 L74.412514,35.9829653 Z" id="Path"></path>
            <path d="M77.4174302,36.6473186 C77.2882682,36.6473186 77.0375419,36.518612 77.0375419,36.3123028 C77.0375419,36.1059937 77.2958659,35.9791798 77.4174302,35.9791798 L79.6682682,35.9791798 C79.6886648,35.8171787 79.6994471,35.6541191 79.7005587,35.4908517 C79.7005587,34.6750789 79.3643575,34.2567823 78.4412291,34.2567823 C78.1992292,34.2576293 77.9577482,34.2791593 77.7194413,34.3211356 L77.7194413,33.6586751 C77.9833404,33.6114155 78.2509801,33.5879766 78.5191061,33.5886297 C79.9702793,33.5886297 80.5439106,34.2246057 80.5439106,35.4586751 C80.5425573,35.8568678 80.5095302,36.2543271 80.4451397,36.6473186 L77.4174302,36.6473186 Z" id="Path"></path>
            <path d="M81.4955307,38.1861199 L81.5468156,37.4933754 C81.8783316,37.560165 82.2153327,37.5962807 82.5535196,37.6012618 C83.2240223,37.6012618 83.6684916,37.3514196 83.6684916,36.7476341 L83.6684916,36.6473186 L83.1594413,36.6473186 C81.9077095,36.6473186 81.436648,36.0681388 81.436648,35.155836 C81.436648,34.3135647 81.9589944,33.5432172 83.1461453,33.5432172 C83.606986,33.5429899 84.0646587,33.6191064 84.5004469,33.7684543 L84.5004469,35.9791798 L85.163352,35.9791798 L85.163352,36.6473186 L84.5004469,36.6473186 L84.5004469,36.6605678 C84.5004469,37.5463722 83.9192179,38.2656151 82.4813408,38.2656151 C82.1512345,38.2630432 81.8217565,38.2364742 81.4955307,38.1861199 L81.4955307,38.1861199 Z M83.6741899,34.3305994 C83.4795852,34.2512944 83.2708966,34.2120216 83.0606704,34.215142 C82.5782123,34.215142 82.3008939,34.5823344 82.3008939,35.0820189 C82.3008939,35.666877 82.5915084,35.9829653 83.2696089,35.9829653 L83.6741899,35.9829653 L83.6741899,34.3305994 Z" id="Shape"></path>
            <path d="M86.1130726,36.155205 C85.9972067,36.4523659 85.7331844,36.6511041 85.1975419,36.6511041 L85.0607821,36.6511041 C84.9316201,36.6511041 84.6808939,36.5223975 84.6808939,36.3160883 C84.6808939,36.1097792 84.9373184,35.9829653 85.0607821,35.9829653 L85.1063687,35.9829653 C85.486257,35.9829653 85.744581,35.7709779 85.744581,35.1085174 C85.744581,34.2927445 86.3144134,33.5470032 87.4217877,33.5470032 C88.4265922,33.5470032 88.8786592,34.126183 88.8786592,35.0252366 L88.8786592,35.9829653 L89.3953073,35.9829653 L89.3953073,36.6473186 L87.556648,36.6473186 C86.6278212,36.6473186 86.3334078,36.4580442 86.1130726,36.155205 Z M88.042905,35.133123 C88.042905,34.4914826 87.784581,34.2208202 87.3534078,34.2208202 C86.8690503,34.2208202 86.5936313,34.5880126 86.5936313,35.0876972 C86.5936313,35.6933754 86.8899441,35.9886435 87.5604469,35.9886435 L88.042905,35.9886435 L88.042905,35.133123 Z" id="Shape"></path>
            <path d="M89.2984358,36.6473186 C89.1692737,36.6473186 88.9185475,36.518612 88.9185475,36.3123028 C88.9185475,36.1059937 89.1768715,35.9791798 89.2984358,35.9791798 L90.0582123,35.9791798 L90.0582123,32.1198738 L90.909162,32.1198738 L90.909162,36.6473186 L89.2984358,36.6473186 Z" id="Path"></path>
            <polygon id="Path" points="91.9424581 32.1198738 92.7915084 32.1198738 92.7915084 36.6473186 91.9405587 36.6473186"></polygon>
            <path d="M96.7803352,36.6473186 C95.5305028,36.6473186 95.0594413,36.0681388 95.0594413,35.155836 C95.0594413,34.3135647 95.5817877,33.5432172 96.7689385,33.5432172 C97.2297793,33.5429899 97.687452,33.6191064 98.1232402,33.7684543 L98.1232402,35.9791798 L98.7880447,35.9791798 L98.7880447,36.6473186 L96.7803352,36.6473186 Z M96.1687151,32.3545741 C96.4005513,32.3545741 96.5884916,32.5418519 96.5884916,32.7728707 C96.5884916,33.0038895 96.4005513,33.1911672 96.1687151,33.1911672 C95.9368789,33.1911672 95.7489385,33.0038895 95.7489385,32.7728707 C95.7528807,32.5477818 95.9334085,32.365392 96.1592179,32.3583596 L96.1687151,32.3545741 Z M97.2912849,34.3268139 C97.0966802,34.2475089 96.8879916,34.2082361 96.6777654,34.2113565 C96.1953073,34.2113565 95.9179888,34.5785489 95.9179888,35.0782334 C95.9179888,35.6630915 96.2086034,35.9791798 96.8848045,35.9791798 L97.2988827,35.9791798 L97.2912849,34.3268139 Z M97.2001117,32.3545741 C97.4319479,32.3545741 97.6198883,32.5418519 97.6198883,32.7728707 C97.6198883,33.0038895 97.4319479,33.1911672 97.2001117,33.1911672 C96.9682756,33.1911672 96.7803352,33.0038895 96.7803352,32.7728707 C96.7833113,32.5473784 96.964387,32.364435 97.1906145,32.3583596 L97.2001117,32.3545741 Z" id="Shape"></path>
            <path d="M98.2865922,36.3160883 C98.2865922,36.1173502 98.5449162,35.9829653 98.6664804,35.9829653 L99.426257,35.9829653 L99.426257,33.6302839 L100.277207,33.6302839 L100.277207,35.9829653 L100.959106,35.9829653 L100.959106,36.6473186 L98.6797765,36.6473186 C98.5449162,36.6473186 98.2865922,36.5223975 98.2865922,36.3160883 Z M99.3388827,37.1205004 C99.5088389,37.1205004 99.6620235,37.2226272 99.726884,37.3791663 C99.7917446,37.5357055 99.7554808,37.7157699 99.6350314,37.8352515 C99.514582,37.9547332 99.3337179,37.9900521 99.1769206,37.924711 C99.0201234,37.8593698 98.9183371,37.7062638 98.9191018,37.5369085 C98.9191018,37.4261426 98.9633919,37.3199409 99.0421703,37.2417954 C99.1209488,37.1636499 99.227726,37.1200013 99.3388827,37.1205004 L99.3388827,37.1205004 Z M100.370279,37.1205047 C100.540236,37.1205047 100.69342,37.2226272 100.758281,37.3791663 C100.823141,37.5357055 100.786877,37.7157699 100.666428,37.8352515 C100.545979,37.9547332 100.365115,37.9900521 100.208317,37.924711 C100.05152,37.8593698 99.9497338,37.7062638 99.9504985,37.5369085 C99.9525786,37.3070599 100.13961,37.1215308 100.370279,37.1205047 L100.370279,37.1205047 Z" id="Shape"></path>
            <path d="M100.467151,36.3160883 C100.467151,36.1173502 100.723575,35.9829653 100.847039,35.9829653 L101.606816,35.9829653 L101.606816,33.6302839 L102.457765,33.6302839 L102.457765,35.9829653 L103.12257,35.9829653 L103.12257,36.6473186 L100.84324,36.6473186 C100.723575,36.6473186 100.467151,36.5223975 100.467151,36.3160883 Z M102.039888,32.3526814 C102.285362,32.3526814 102.484358,32.5509755 102.484358,32.7955836 C102.484358,33.0401917 102.285362,33.2384858 102.039888,33.2384858 C101.794415,33.2384858 101.595419,33.0401917 101.595419,32.7955836 C101.597483,32.5518326 101.795275,32.3547385 102.039888,32.3526814 L102.039888,32.3526814 Z" id="Shape"></path>
            <path d="M103.033296,36.6473186 C102.904134,36.6473186 102.653408,36.518612 102.653408,36.3123028 C102.653408,36.1059937 102.911732,35.9791798 103.033296,35.9791798 L103.793073,35.9791798 L103.793073,32.1198738 L104.644022,32.1198738 L104.644022,33.7911672 C104.645962,34.1082898 104.619902,34.4249678 104.566145,34.7375394 L104.579441,34.7375394 C104.811293,34.0326115 105.466693,33.5521077 106.211061,33.5413249 C107.107598,33.5413249 107.571061,34.0940063 107.571061,35.0006309 C107.571061,35.9072555 107.037318,36.6473186 105.599441,36.6473186 L103.033296,36.6473186 Z M105.677318,35.9791798 C106.482682,35.9791798 106.703017,35.5741325 106.703017,35.0536278 C106.703017,34.533123 106.490279,34.2189274 106.038212,34.2189274 C105.341117,34.2189274 104.767486,35.0725552 104.638324,35.9791798 L105.677318,35.9791798 Z" id="Shape"></path>
            <path d="M108.262458,38.1861199 L108.313743,37.4933754 C108.645259,37.560165 108.98226,37.5962807 109.320447,37.6012618 C109.99095,37.6012618 110.435419,37.3514196 110.435419,36.7476341 L110.435419,36.6473186 L109.926369,36.6473186 C108.674637,36.6473186 108.205475,36.0681388 108.205475,35.155836 C108.205475,34.3135647 108.727821,33.5432172 109.914972,33.5432172 C110.375813,33.5429899 110.833486,33.6191064 111.269274,33.7684543 L111.269274,35.9791798 L111.934078,35.9791798 L111.934078,36.6473186 L111.269274,36.6473186 L111.269274,36.6605678 C111.269274,37.5463722 110.688045,38.2656151 109.250168,38.2656151 C108.919432,38.2630144 108.589325,38.2364459 108.262458,38.1861199 Z M110.435419,34.3305994 C110.241434,34.2514448 110.033396,34.2121729 109.823799,34.215142 C109.339441,34.215142 109.064022,34.5823344 109.064022,35.0820189 C109.064022,35.666877 109.354637,35.9829653 110.030838,35.9829653 L110.443017,35.9829653 L110.435419,34.3305994 Z" id="Shape"></path>
            <path d="M111.829609,36.6473186 C111.700447,36.6473186 111.449721,36.518612 111.449721,36.3123028 C111.449721,36.1059937 111.708045,35.9791798 111.829609,35.9791798 L112.589385,35.9791798 L112.589385,32.1198738 L113.440335,32.1198738 L113.440335,36.6473186 L111.829609,36.6473186 Z" id="Path"></path>
            <polygon id="Path" points="114.473631 32.1198738 115.324581 32.1198738 115.324581 36.6473186 114.473631 36.6473186"></polygon>
            <path d="M119.302011,36.6473186 C118.052179,36.6473186 117.581117,36.0681388 117.581117,35.155836 C117.581117,34.3135647 118.103464,33.5432172 119.290615,33.5432172 C119.751455,33.5429899 120.209128,33.6191064 120.644916,33.7684543 L120.644916,35.9791798 L121.309721,35.9791798 L121.309721,36.6473186 L119.302011,36.6473186 Z M118.690391,32.3545741 C118.922227,32.3545741 119.110168,32.5418519 119.110168,32.7728707 C119.110168,33.0038895 118.922227,33.1911672 118.690391,33.1911672 C118.458555,33.1911672 118.270615,33.0038895 118.270615,32.7728707 C118.274723,32.5441881 118.460872,32.3603743 118.690391,32.3583596 L118.690391,32.3545741 Z M119.812961,34.3268139 C119.618356,34.2475089 119.409668,34.2082361 119.199441,34.2113565 C118.715084,34.2113565 118.439665,34.5785489 118.439665,35.0782334 C118.439665,35.6630915 118.730279,35.9791798 119.40648,35.9791798 L119.820559,35.9791798 L119.812961,34.3268139 Z M119.721788,32.3545741 C119.953624,32.3545741 120.141564,32.5418519 120.141564,32.7728707 C120.141564,33.0038895 119.953624,33.1911672 119.721788,33.1911672 C119.489952,33.1911672 119.302011,33.0038895 119.302011,32.7728707 C119.305116,32.5437622 119.49185,32.3593708 119.721788,32.3583596 L119.721788,32.3545741 Z" id="Shape"></path>
            <path d="M121.205251,36.6473186 C121.076089,36.6473186 120.825363,36.518612 120.825363,36.3123028 C120.825363,36.1059937 121.083687,35.9791798 121.205251,35.9791798 L121.965028,35.9791798 L121.965028,33.6302839 L122.817877,33.6302839 L122.817877,33.7911672 C122.818886,34.108254 122.792833,34.4248521 122.74,34.7375394 L122.753296,34.7375394 C122.985148,34.0326115 123.640548,33.5521077 124.384916,33.5413249 C125.279553,33.5413249 125.744916,34.0940063 125.744916,35.0006309 C125.757983,35.347159 125.660931,35.688953 125.467598,35.9772871 L126.164693,35.9772871 L126.164693,36.6473186 L121.205251,36.6473186 Z M123.849274,35.9791798 C124.654637,35.9791798 124.874972,35.5741325 124.874972,35.0536278 C124.874972,34.533123 124.662235,34.2189274 124.210168,34.2189274 C123.513073,34.2189274 122.939441,35.0725552 122.810279,35.9791798 L123.849274,35.9791798 Z" id="Shape"></path>
            <path d="M125.680335,36.3160883 C125.680335,36.1173502 125.938659,35.9829653 126.060223,35.9829653 L126.82,35.9829653 L126.82,33.6302839 L127.67095,33.6302839 L127.67095,35.9829653 L128.335754,35.9829653 L128.335754,36.6473186 L126.056425,36.6473186 C125.938659,36.6473186 125.680335,36.5223975 125.680335,36.3160883 Z M127.253073,32.3526814 C127.498546,32.3526814 127.697542,32.5509755 127.697542,32.7955836 C127.697542,33.0401917 127.498546,33.2384858 127.253073,33.2384858 C127.007599,33.2384858 126.808603,33.0401917 126.808603,32.7955836 C126.811675,32.5522547 127.008883,32.3557425 127.253073,32.3526814 L127.253073,32.3526814 Z" id="Shape"></path>
            <path d="M129.298771,36.155205 C129.181006,36.4523659 128.918883,36.6511041 128.38324,36.6511041 L128.24648,36.6511041 C128.117318,36.6511041 127.866592,36.5223975 127.866592,36.3160883 C127.866592,36.1097792 128.124916,35.9829653 128.24648,35.9829653 L128.292067,35.9829653 C128.671955,35.9829653 128.930279,35.7709779 128.930279,35.1085174 C128.930279,34.2927445 129.500112,33.5470032 130.607486,33.5470032 C131.612291,33.5470032 132.064358,34.126183 132.064358,35.0252366 L132.064358,35.9829653 L132.581006,35.9829653 L132.581006,36.6473186 L130.742346,36.6473186 C129.81352,36.6473186 129.522905,36.4580442 129.298771,36.155205 Z M131.232402,35.133123 C131.232402,34.4914826 130.974078,34.2208202 130.542905,34.2208202 C130.058547,34.2208202 129.783128,34.5880126 129.783128,35.0876972 C129.783128,35.6933754 130.079441,35.9886435 130.749944,35.9886435 L131.24,35.9886435 L131.232402,35.133123 Z" id="Shape"></path>
            <path d="M132.489832,36.6473186 C132.36067,36.6473186 132.109944,36.518612 132.109944,36.3123028 C132.109944,36.1059937 132.368268,35.9791798 132.489832,35.9791798 L133.249609,35.9791798 L133.249609,32.1198738 L134.100559,32.1198738 L134.100559,36.6473186 L132.489832,36.6473186 Z" id="Path"></path>
            <polygon id="Path" points="135.128156 32.1198738 135.979106 32.1198738 135.979106 36.6473186 135.128156 36.6473186"></polygon>
            <g id="_Group_">
                <g id="_Group_2">
                    <g id="_Group_3">
                        <g id="_Group_4">
                            <path d="M26.0603352,50.755836 L26.0603352,50.755836 C25.3457744,50.6671178 24.836875,50.0205587 24.9206704,49.3078864 L24.9206704,49.3078864 C25.010675,48.5963936 25.6588522,48.0898117 26.373743,48.1722397 L26.373743,48.1722397 C27.0877532,48.261927 27.5961275,48.907819 27.5134078,49.6201893 L27.5134078,49.6201893 C27.4347411,50.274196 26.8790042,50.7670743 26.2179888,50.7690852 L26.2179888,50.7690852 C26.1651862,50.7684526 26.1124983,50.7640247 26.0603352,50.755836 Z" id="_Path_"></path>
                            <path d="M30.0054749,49.5293375 C29.9385558,49.1909545 30.0094896,48.8399444 30.2026273,48.5537449 C30.395765,48.2675454 30.6952357,48.0696746 31.0349721,48.0037855 L31.0349721,48.0037855 C31.742452,47.8646939 32.4292828,48.3229431 32.5697207,49.0277603 L32.5697207,49.0277603 C32.7080201,49.733743 32.2465516,50.4180006 31.538324,50.5570978 L31.538324,50.5570978 C31.4557692,50.5735309 31.3717836,50.5817731 31.2875978,50.5817039 L31.2875978,50.5817039 C30.6626876,50.5815057 30.1253704,50.1404759 30.0054749,49.5293375 L30.0054749,49.5293375 Z" id="_Path_2"></path>
                            <path d="M20.7817877,49.2662461 C20.4668482,49.1218297 20.2226478,48.858303 20.1032264,48.5339825 C19.9838049,48.2096621 19.9990093,47.8512896 20.1454749,47.5381703 L20.1454749,47.5381703 C20.2904488,47.224357 20.5547842,46.9809304 20.8801415,46.8616154 C21.2054988,46.7423004 21.5651304,46.7569058 21.8796648,46.9022082 L21.8796648,46.9022082 C22.1946044,47.0466246 22.4388047,47.3101513 22.5582261,47.6344717 C22.6776476,47.9587922 22.6624432,48.3171646 22.5159777,48.6302839 L22.5159777,48.6302839 C22.3027419,49.0912718 21.8401234,49.3867766 21.3307263,49.3873817 L21.3307263,49.3873817 C21.1411206,49.3869288 20.9538576,49.345605 20.7817877,49.2662461 Z" id="_Path_3"></path>
                            <path d="M34.9117318,48.1722397 C34.742272,47.8708927 34.7001066,47.5147396 34.7945399,47.1823698 C34.8889733,46.85 35.1122437,46.568732 35.4150838,46.4006309 L35.4150838,46.4006309 C35.7174971,46.2317685 36.0749103,46.1897518 36.4084561,46.2838522 C36.7420019,46.3779526 37.024265,46.6004358 37.1929609,46.9022082 L37.1929609,46.9022082 C37.3625074,47.2038417 37.4047232,47.5602787 37.3103034,47.8929559 C37.2158836,48.2256331 36.992579,48.5072411 36.6896089,48.6757098 L36.6896089,48.6757098 C36.4947813,48.782841 36.2758183,48.8388542 36.0532961,48.8384876 L36.0532961,48.8384876 C35.5797394,48.8389156 35.1430036,48.5840254 34.9117318,48.1722397 L34.9117318,48.1722397 Z" id="_Path_4"></path>
                            <path d="M16.2288268,46.215142 L16.2288268,46.215142 C15.9746919,45.9807462 15.8246424,45.6551879 15.8118125,45.3103578 C15.7989826,44.9655276 15.9244278,44.6297913 16.1604469,44.3772871 L16.1604469,44.3772871 C16.3959371,44.1245037 16.7225663,43.9753076 17.0684616,43.9625287 C17.414357,43.9497498 17.7511763,44.0744351 18.0048045,44.3091483 L18.0048045,44.3091483 C18.2594385,44.543943 18.4099301,44.8699957 18.423113,45.2154492 C18.436296,45.5609026 18.3110882,45.8974023 18.0750838,46.1507886 L18.0750838,46.1507886 C17.8284241,46.4119127 17.4852303,46.5610176 17.1253631,46.5634069 L17.1253631,46.5634069 C16.7926931,46.5665232 16.4716085,46.441796 16.2288268,46.215142 L16.2288268,46.215142 Z" id="_Path_5"></path>
                            <path d="M39.1550838,45.3690852 C38.6299792,44.878424 38.6011251,44.0572888 39.0905028,43.5312303 L39.0905028,43.5312303 C39.3257984,43.2776114 39.6526868,43.1276961 39.9990518,43.1145579 C40.3454168,43.1014197 40.6827963,43.2261382 40.9367598,43.4611987 L40.9367598,43.4611987 C41.4652442,43.9505191 41.4958518,44.7740111 41.0051397,45.3009464 L41.0051397,45.3009464 C40.7595411,45.5635684 40.4156655,45.7129696 40.055419,45.7135647 L40.055419,45.7135647 C39.7220693,45.7180973 39.3997269,45.594765 39.1550838,45.3690852 L39.1550838,45.3690852 Z" id="_Path_6"></path>
                            <path d="M49.6931844,49.792429 C49.166831,49.3015732 49.1379556,48.4789859 49.6286034,47.9526814 L49.6286034,47.9526814 C49.8643467,47.6999672 50.1913364,47.5511442 50.5373788,47.5390701 C50.8834211,47.526996 51.2200563,47.6526638 51.4729609,47.8883281 L51.4729609,47.8883281 C52.0019973,48.3771135 52.033456,49.2006284 51.5432402,49.7280757 L51.5432402,49.7280757 C51.2976417,49.9906977 50.9537661,50.1400989 50.5935196,50.140694 L50.5935196,50.140694 C50.2596479,50.1442005 49.9372376,50.0194867 49.6931844,49.792429 Z" id="_Path_7"></path>
                            <path d="M12.8421229,41.918612 C12.6725973,41.6177814 12.6301954,41.2620875 12.7242778,40.9300536 C12.8183602,40.5980198 13.0411902,40.3169508 13.3435754,40.1488959 L13.3435754,40.1488959 C13.6465636,39.9798605 14.0045468,39.9377431 14.3387097,40.0318166 C14.6728726,40.1258901 14.955818,40.3484416 15.1252514,40.6504732 L15.1252514,40.6504732 C15.4751474,41.2787739 15.2481899,42.070748 14.6181006,42.4201893 L14.6181006,42.4201893 C14.4248384,42.5299234 14.2061211,42.5873464 13.9836872,42.5867554 L13.9836872,42.5867554 C13.5094001,42.5880146 13.0719955,42.3320088 12.8421229,41.918612 L12.8421229,41.918612 Z" id="_Path_8"></path>
                            <path d="M42.3309497,41.4018927 C41.6784292,41.0988508 41.3947593,40.32701 41.6965363,39.6757098 L41.6965363,39.6757098 C41.8414637,39.3618806 42.1059228,39.1185412 42.4313907,38.9995408 C42.7568587,38.8805405 43.1164991,38.8956912 43.4307263,39.0416404 L43.4307263,39.0416404 C43.7451083,39.1871792 43.9885791,39.4512248 44.1075597,39.7756707 C44.2265404,40.1001166 44.2112811,40.4583758 44.0651397,40.7716088 L44.0651397,40.7716088 C43.852651,41.2332443 43.389564,41.5290484 42.8798883,41.5287069 L42.8798883,41.5287069 C42.6898676,41.526416 42.5025976,41.4831536 42.3309497,41.4018927 Z" id="_Path_9"></path>
                            <path d="M10.9464804,36.7892744 C10.8093757,36.0829054 11.2714023,35.3990796 11.9797765,35.2599369 L11.9797765,35.2599369 C12.6865559,35.1232748 13.3711267,35.5819959 13.5107263,36.2858044 L13.5107263,36.2858044 C13.5782407,36.6246983 13.5076278,36.9764337 13.3144752,37.2633656 C13.1213226,37.5502974 12.8215131,37.7488316 12.4812291,37.815142 L12.4812291,37.815142 C12.3987477,37.8322728 12.3147552,37.8411497 12.2305028,37.8416404 L12.2305028,37.8416404 C11.6054132,37.8408609 11.0678743,37.4003018 10.9464804,36.7892744 L10.9464804,36.7892744 Z" id="_Path_10"></path>
                            <path d="M44.1107263,36.6473186 C43.3945026,36.5586415 42.8850131,35.9096403 42.9710615,35.1955836 L42.9710615,35.1955836 C42.972343,35.1874314 42.972343,35.1791301 42.9710615,35.1709779 L42.9710615,35.1709779 L42.9710615,35.1463722 L42.9710615,35.1463722 C43.0581556,34.4340567 43.7071272,33.9261902 44.4222346,34.0107256 L44.4222346,34.0107256 C45.1362391,34.0975346 45.6456064,34.7429962 45.5618994,35.4548896 L45.5618994,35.4548896 C45.5618994,35.4548896 45.5618994,35.4719243 45.5618994,35.4776025 L45.5618994,35.4776025 C45.5618994,35.4870662 45.5618994,35.5003155 45.5618994,35.5135647 L45.5618994,35.5135647 C45.4777899,36.1634498 44.9221665,36.6498315 44.264581,36.6492114 L44.264581,36.6492114 C44.2133119,36.6520349 44.1619098,36.6514025 44.1107263,36.6473186 L44.1107263,36.6473186 Z" id="_Path_11"></path>
                            <path d="M11.8867039,32.7766562 C11.542356,32.7364346 11.2283587,32.5609277 11.0143929,32.2890831 C10.800427,32.0172385 10.7041903,31.6715412 10.7470391,31.3287066 L10.7470391,31.3287066 C10.8341096,30.6155612 11.4843094,30.1073986 12.2001117,30.1930599 L12.2001117,30.1930599 C12.9160579,30.2807811 13.4257823,30.929235 13.3397765,31.6429022 L13.3397765,31.6429022 C13.2584573,32.295703 12.7025943,32.7863493 12.0424581,32.7880126 L12.0424581,32.7880126 C11.9903741,32.7869939 11.938382,32.783203 11.8867039,32.7766562 L11.8867039,32.7766562 Z" id="_Path_12"></path>
                            <path d="M42.7982123,30.5015773 C42.7306077,30.1632279 42.8007072,29.8119759 42.9930794,29.525145 C43.1854515,29.2383141 43.4843264,29.0394175 43.8239106,28.9722397 L43.8239106,28.9722397 C44.5318683,28.8318204 45.2202432,29.289119 45.3624581,29.9943218 L45.3624581,29.9943218 C45.5020208,30.7003484 45.041309,31.3855914 44.3329609,31.5255521 L44.3329609,31.5255521 C44.2490899,31.5415504 44.1638248,31.5491591 44.0784358,31.548265 L44.0784358,31.548265 C43.4554682,31.5491846 42.9189912,31.1105705 42.7982123,30.5015773 L42.7982123,30.5015773 Z" id="_Path_13"></path>
                            <path d="M12.8744134,27.7968454 C12.2204372,27.4952189 11.9349229,26.722984 12.2362011,26.0706625 L12.2362011,26.0706625 C12.5397478,25.4177783 13.3160689,25.132551 13.9722905,25.4328076 L13.9722905,25.4328076 C14.6266156,25.7351579 14.9114054,26.5085799 14.6086034,27.1608833 L14.6086034,27.1608833 C14.3957403,27.6221944 13.9328882,27.9178484 13.423352,27.917986 L13.423352,27.917986 C13.2336388,27.9185081 13.0461655,27.8771379 12.8744134,27.7968454 Z" id="_Path_14"></path>
                            <path d="M41.1817877,26.1425868 L41.1817877,26.1425868 C41.0119353,25.8414128 40.9691454,25.4853256 41.0628366,25.1527053 C41.1565278,24.8200849 41.3790205,24.5381955 41.6813408,24.3690852 L41.6813408,24.3690852 C41.9835803,24.1998316 42.3409275,24.1571925 42.6747247,24.2505534 C43.0085218,24.3439143 43.2914086,24.5656226 43.4611173,24.866877 L43.4611173,24.866877 C43.6306639,25.1685105 43.6728797,25.5249475 43.5784598,25.8576247 C43.48404,26.1903019 43.2607355,26.4719098 42.9577654,26.6403785 L42.9577654,26.6403785 C42.7633863,26.7490636 42.5443406,26.8064011 42.3214525,26.8069426 L42.3214525,26.8069426 C41.8487555,26.8078727 41.4126233,26.5536349 41.1817877,26.1425868 L41.1817877,26.1425868 Z" id="_Path_15"></path>
                            <path d="M15.3626816,23.3697161 C14.8341204,22.8809947 14.8018443,22.0583175 15.2905028,21.5299685 L15.2905028,21.5299685 C15.78288,21.002904 16.6104787,20.972423 17.1405587,21.4618297 L17.1405587,21.4618297 C17.6690431,21.95115 17.6996507,22.774642 17.2089385,23.3015773 L17.2089385,23.3015773 C16.9637319,23.5652193 16.6199422,23.7159535 16.2592179,23.7179958 L16.2592179,23.7179958 C15.9268332,23.7195551 15.6063007,23.5950423 15.3626816,23.3697161 L15.3626816,23.3697161 Z" id="_Path_16"></path>
                            <path d="M38.290838,22.4876972 L38.290838,22.4876972 C37.7612489,21.9994471 37.728939,21.1759086 38.2186592,20.6479495 L38.2186592,20.6479495 C38.4540253,20.39395 38.7810922,20.2436397 39.1277721,20.230148 C39.4744521,20.2166564 39.8122869,20.3410908 40.0668156,20.5760252 L40.0668156,20.5760252 C40.5953001,21.0653456 40.6259077,21.8888376 40.1351955,22.4157729 L40.1351955,22.4157729 C39.8899889,22.6794149 39.5461992,22.830149 39.1854749,22.8321767 L39.1854749,22.8321767 C38.8540868,22.8352517 38.5340459,22.7120201 38.290838,22.4876972 L38.290838,22.4876972 Z" id="_Path_17"></path>
                            <path d="M19.0931844,19.9230284 C18.7407674,19.2962816 18.9643035,18.5035357 19.5927374,18.1514196 L19.5927374,18.1514196 C20.2232659,17.8006958 21.0197208,18.025153 21.372514,18.6529968 L21.372514,18.6529968 C21.724314,19.2807374 21.4989872,20.0738026 20.869162,20.4246057 L20.869162,20.4246057 C20.674992,20.5335894 20.4557,20.5903391 20.2328492,20.5892892 L20.2328492,20.5892892 C19.7596426,20.5902296 19.3232244,20.3351002 19.0931844,19.9230284 L19.0931844,19.9230284 Z" id="_Path_18"></path>
                            <path d="M34.4121788,19.9003155 C33.7572295,19.5986183 33.4708927,18.8256101 33.772067,18.1722397 L33.772067,18.1722397 C34.0755427,17.5203253 34.8510877,17.2359175 35.506257,17.5362776 L35.506257,17.5362776 C36.1616906,17.836484 36.449052,18.609116 36.1482682,19.2624606 L36.1482682,19.2624606 C35.934832,19.7250185 35.4701286,20.0209067 34.9592179,20.0195629 L34.9592179,20.0195629 C34.770341,20.0199067 34.5836591,19.979214 34.4121788,19.9003155 L34.4121788,19.9003155 Z" id="_Path_19"></path>
                            <path d="M23.718324,17.7899054 C23.578827,17.0843098 24.039738,16.3996178 24.7478212,16.2605678 L24.7478212,16.2605678 C25.4559133,16.1215626 26.1430279,16.5808486 26.2825698,17.2864353 L26.2825698,17.2864353 C26.4220669,17.9920309 25.9611558,18.6767229 25.2530726,18.8157729 L25.2530726,18.8157729 C25.1692141,18.8318598 25.0839401,18.8394693 24.9985475,18.8384858 L24.9985475,18.8384858 C24.3755265,18.8377418 23.8396679,18.3988412 23.718324,17.7899054 L23.718324,17.7899054 Z" id="_Path_20"></path>
                            <path d="M29.92,18.6397476 C29.2043314,18.5529841 28.6943708,17.9050767 28.7803352,17.1917981 L28.7803352,17.1917981 C28.8674057,16.4786527 29.5176055,15.9704901 30.2334078,16.0561514 L30.2334078,16.0561514 C30.9474123,16.1429605 31.4567795,16.788422 31.3730726,17.5003155 L31.3730726,17.5003155 C31.2944059,18.1543222 30.738669,18.6472004 30.0776536,18.6492114 L30.0776536,18.6492114 C30.0249426,18.6498324 29.9722551,18.6466697 29.92,18.6397476 L29.92,18.6397476 Z" id="_Path_21"></path>
                            <path d="M27.118324,56.1671924 C26.3979877,56.1334496 25.8403323,55.5261666 25.8703911,54.8082019 L25.8703911,54.8082019 C25.9032213,54.0891569 26.5144718,53.5325844 27.2360894,53.5646688 L27.2360894,53.5646688 C27.9566516,53.5983805 28.5135202,54.2075056 28.4802235,54.9255521 L28.4802235,54.9255521 C28.4506884,55.621129 27.875869,56.1697075 27.1772067,56.1690857 L27.118324,56.1690857 L27.118324,56.1671924 Z" id="_Path_22"></path>
                            <path d="M31.0748603,54.7305994 C30.9365609,54.0246166 31.3980294,53.340359 32.106257,53.2012618 L32.106257,53.2012618 C32.4459008,53.1334492 32.7986604,53.2033932 33.0863833,53.395598 C33.3741062,53.5878029 33.5730381,53.8864001 33.6391061,54.2252366 L33.6391061,54.2252366 C33.7066554,54.5643591 33.6360948,54.9163292 33.4429779,55.203563 C33.2498611,55.4907968 32.950042,55.6897136 32.6096089,55.7564669 L32.6096089,55.7564669 C32.526866,55.771367 32.4429656,55.7789674 32.3588827,55.77918 L32.3588827,55.77918 C31.7346992,55.7795004 31.1971604,55.3405262 31.0748603,54.7305994 L31.0748603,54.7305994 Z" id="_Path_23"></path>
                            <path d="M21.6802235,55.2605678 L21.6802235,55.2605678 C21.3482875,55.1628683 21.0690954,54.9374068 20.9044083,54.6340585 C20.7397212,54.3307101 20.7031129,53.9744775 20.8026816,53.644164 L20.8026816,53.644164 C20.8999646,53.3126438 21.1257971,53.0334112 21.43022,52.8682384 C21.7346429,52.7030656 22.0925643,52.6655669 22.4248045,52.7640379 L22.4248045,52.7640379 C22.7573476,52.8618359 23.0372571,53.0873124 23.2029118,53.3908295 C23.3685666,53.6943466 23.4063861,54.0510219 23.3080447,54.3823344 L23.3080447,54.3823344 C23.1442236,54.9355529 22.6351524,55.3158177 22.0563128,55.3173502 L22.0563128,55.3173502 C21.9288666,55.316482 21.8022076,55.2973589 21.6802235,55.2605678 Z" id="_Path_24"></path>
                            <path d="M36.1121788,53.4189274 C35.9652148,53.1067435 35.9489066,52.749128 36.0668508,52.4249486 C36.184795,52.1007691 36.4273034,51.8366545 36.7408939,51.6908517 L36.7408939,51.6908517 C37.0544269,51.5436063 37.4138668,51.5267087 37.7399188,51.6438866 C38.0659708,51.7610645 38.3318431,52.0026894 38.4788827,52.3154574 L38.4788827,52.3154574 C38.7827294,52.9673085 38.5009014,53.7412946 37.8482682,54.0473186 L37.8482682,54.0473186 C37.6761711,54.1287798 37.4879561,54.1708172 37.2974302,54.1703517 L37.2974302,54.1703517 C36.7890748,54.1717097 36.3263391,53.8783469 36.1121788,53.4189274 L36.1121788,53.4189274 Z" id="_Path_25"></path>
                            <path d="M16.6239106,53.0801262 L16.6239106,53.0801262 C16.3245072,52.9055888 16.1070243,52.6195969 16.0193786,52.2851615 C15.931733,51.950726 15.9811162,51.5952887 16.156648,51.2971609 L16.156648,51.2971609 C16.5220414,50.6778802 17.3212288,50.46969 17.9440223,50.8315457 L17.9440223,50.8315457 C18.566396,51.1949707 18.7755414,51.9921739 18.4112849,52.6126183 L18.4112849,52.6126183 C18.1785006,53.014434 17.7467047,53.2603046 17.2811173,53.2561514 L17.2811173,53.2561514 C17.0501841,53.2571663 16.8232135,53.1963748 16.6239106,53.0801262 L16.6239106,53.0801262 Z" id="_Path_26"></path>
                            <path d="M40.6803352,50.9413249 C40.4616423,50.6732879 40.3587895,50.3296452 40.3944129,49.9860267 C40.4300363,49.6424083 40.6012164,49.3269749 40.8702793,49.1091483 L40.8702793,49.1091483 C41.4298281,48.6579072 42.2502175,48.7425342 42.7051397,49.2984227 L42.7051397,49.2984227 C42.9237257,49.5661501 43.0265291,49.9094895 42.990901,50.2527985 C42.9552729,50.5961075 42.7841366,50.9112179 42.5151955,51.1287066 L42.5151955,51.1287066 C42.2829261,51.3158454 41.993331,51.4180487 41.6946369,51.4183069 L41.6946369,51.4183069 C41.3016543,51.4198566 40.9289557,51.2445964 40.6803352,50.9413249 L40.6803352,50.9413249 Z" id="_Path_27"></path>
                            <path d="M12.2362011,49.7564669 L12.2362011,49.7564669 C11.9870663,49.5169456 11.8439944,49.1883649 11.8386471,48.8434399 C11.8332999,48.4985148 11.9661182,48.1656873 12.2077095,47.918612 L12.2077095,47.918612 C12.448477,47.6698689 12.7787109,47.5268651 13.1254791,47.5211829 C13.4722474,47.5155008 13.8070212,47.6476077 14.0558659,47.8883281 L14.0558659,47.8883281 C14.5728729,48.3900191 14.5864485,49.2135194 14.086257,49.7318612 L14.086257,49.7318612 C13.8378232,49.9824099 13.4994975,50.1240738 13.1460335,50.1255528 L13.1460335,50.1255528 C12.8059695,50.1259172 12.479317,49.9934065 12.2362011,49.7564669 L12.2362011,49.7564669 Z" id="_Path_28"></path>
                            <path d="M44.5267039,47.4454259 C44.2505008,47.2366297 44.0690327,46.9268921 44.0223495,46.584572 C43.9756663,46.2422519 44.0676058,45.8954913 44.2778771,45.6208202 L44.2778771,45.6208202 C44.4870674,45.3457137 44.7975739,45.1649271 45.1407951,45.1184022 C45.4840163,45.0718773 45.8317029,45.1634435 46.1070391,45.3728707 L46.1070391,45.3728707 C46.383119,45.5813235 46.5645453,45.8907352 46.6112348,46.2327463 C46.6579242,46.5747574 46.5660341,46.9212181 46.3558659,47.1955836 L46.3558659,47.1955836 C46.1099486,47.5203334 45.7251422,47.7110067 45.3168715,47.7104332 L45.3168715,47.7104332 C45.031236,47.7121203 44.7531831,47.6188747 44.5267039,47.4454259 Z" id="_Path_29"></path>
                            <path d="M8.77162011,45.4940063 C8.38820688,44.8838755 8.57256301,44.0796321 9.18379888,43.6958991 L9.18379888,43.6958991 C9.47790372,43.512328 9.83320613,43.452866 10.1713562,43.5306255 C10.5095063,43.6083851 10.8027307,43.8169794 10.9863687,44.1104101 L10.9863687,44.1104101 C11.367437,44.7199693 11.1813337,45.5218802 10.5703911,45.9028391 L10.5703911,45.9028391 C10.3633853,46.0328203 10.1236702,46.1017251 9.87899441,46.1015838 L9.87899441,46.1015838 C9.4293993,46.1029888 9.01083513,45.8733398 8.77162011,45.4940063 L8.77162011,45.4940063 Z" id="_Path_30"></path>
                            <path d="M47.423352,43.1375394 C46.7638365,42.8487722 46.4618283,42.0837336 46.7471508,41.4246057 L46.7471508,41.4246057 C47.0323098,40.7679843 47.7967895,40.4649635 48.456648,40.7470032 L48.456648,40.7470032 C49.1125073,41.0341571 49.4141085,41.7939437 49.1328492,42.4504732 L49.1328492,42.4504732 C48.9275743,42.9278734 48.4555103,43.2365033 47.9343017,43.2340924 L47.9343017,43.2340924 C47.7593264,43.2350863 47.5858113,43.2023054 47.423352,43.1375394 Z" id="_Path_31"></path>
                            <path d="M6.43340782,40.5198738 C6.32484356,40.1920816 6.35152955,39.834726 6.50758515,39.5265555 C6.66364075,39.218385 6.93625846,38.9846911 7.26536313,38.8769716 L7.26536313,38.8769716 C7.59457107,38.7687329 7.95344861,38.795274 8.26301478,38.9507538 C8.57258094,39.1062336 8.80746624,39.3779102 8.91597765,39.7059937 L8.91597765,39.7059937 C9.13942323,40.3906066 8.76475648,41.1262925 8.07832402,41.3507886 L8.07832402,41.3507886 C7.9479676,41.3944055 7.81124822,41.4161523 7.67374302,41.415142 L7.67374302,41.415142 C7.10916132,41.4164813 6.60813857,41.0548455 6.43340782,40.5198738 L6.43340782,40.5198738 Z" id="_Path_32"></path>
                            <path d="M49.2031285,38.2599369 C48.860981,38.2039004 48.5554323,38.0140956 48.3543,37.7326502 C48.1531676,37.4512048 48.0730911,37.1014026 48.1318436,36.7608833 L48.1318436,36.7608833 C48.2519642,36.0531305 48.923479,35.5751682 49.6343017,35.6914826 L49.6343017,35.6914826 C50.3461979,35.8102392 50.8271958,36.4809234 50.7093855,37.1905363 L50.7093855,37.1905363 C50.6023612,37.8168468 50.0591308,38.2759267 49.4215642,38.2788721 L49.4215642,38.2788721 C49.3483288,38.2791247 49.2752196,38.2727898 49.2031285,38.2599369 Z" id="_Path_33"></path>
                            <path d="M5.36212291,35.133123 L5.36212291,35.133123 C5.33539913,34.7892565 5.44686613,34.4488969 5.67199836,34.1869321 C5.89713058,33.9249672 6.21748294,33.7628598 6.56256983,33.7362776 L6.56256983,33.7362776 C6.90896503,33.709666 7.25176381,33.821396 7.51542132,34.046845 C7.77907883,34.272294 7.94195526,34.592958 7.96815642,34.9381703 L7.96815642,34.9381703 C8.02267471,35.6542138 7.48438238,36.2787363 6.76581006,36.3331246 L6.76581006,36.3331246 L6.66513966,36.3331246 L6.66513966,36.3331246 C5.98273545,36.3341597 5.41476762,35.8110956 5.36212291,35.133123 Z" id="_Path_34"></path>
                            <path d="M48.344581,31.9041009 L48.344581,31.873817 L48.344581,31.873817 C48.3435634,31.86628 48.3435634,31.8586411 48.344581,31.8511041 L48.344581,31.8511041 C48.3173286,31.5069251 48.4285551,31.1660754 48.6537413,30.9036926 C48.8789276,30.6413098 49.1995853,30.4789362 49.5450279,30.4523659 L49.5450279,30.4523659 C50.2646909,30.3979607 50.8930613,30.933577 50.9506145,31.6504732 L50.9506145,31.6504732 L50.9506145,31.6826498 L50.9506145,31.6826498 C50.9527118,31.691359 50.9527118,31.7004391 50.9506145,31.7091483 L50.9506145,31.7091483 C51.0008254,32.4255142 50.4628149,33.0485881 49.7444693,33.1059937 L49.6456983,33.1059937 C48.9640676,33.1041395 48.3980011,32.5812419 48.344581,31.9041009 L48.344581,31.9041009 Z" id="_Path_35"></path>
                            <path d="M6.67843575,31.1451104 C6.33637384,31.0881476 6.03113746,30.8978432 5.83013433,30.6162235 C5.6291312,30.3346038 5.54889714,29.9848368 5.60715084,29.644164 L5.60715084,29.644164 C5.72539488,28.9350464 6.3979012,28.4555312 7.10960894,28.5728707 L7.10960894,28.5728707 C7.82117729,28.6935062 8.30146319,29.3640431 8.18469274,30.073817 L8.18469274,30.073817 C8.07838698,30.7005354 7.53472453,31.1599805 6.89687151,31.1621451 L6.89687151,31.1621451 C6.82368306,31.1633552 6.75054422,31.1576514 6.67843575,31.1451104 L6.67843575,31.1451104 Z" id="_Path_36"></path>
                            <path d="M47.3948603,27.0794953 C47.1700662,26.3963864 47.5433183,25.6609864 48.2287151,25.4365931 L48.2287151,25.4365931 C48.9136895,25.2124279 49.6514447,25.5833927 49.8774302,26.2656151 L49.8774302,26.2656151 C50.1024971,26.9486665 49.730363,27.6843842 49.0454749,27.9104101 L49.0454749,27.9104101 C48.913707,27.9536057 48.7758088,27.975336 48.637095,27.9747744 L48.637095,27.9747744 C48.072393,27.9751368 47.5713296,27.6140246 47.3948603,27.0794953 L47.3948603,27.0794953 Z" id="_Path_37"></path>
                            <path d="M7.84089385,26.0914826 C7.17909578,25.8049415 6.87491014,25.0386918 7.16089385,24.3785489 L7.16089385,24.3785489 C7.44761594,23.7235346 8.21050423,23.4211445 8.87039106,23.7009464 L8.87039106,23.7009464 C9.52779076,23.9866051 9.83063503,24.7473862 9.54849162,25.4044164 L9.54849162,25.4044164 C9.3428127,25.8814791 8.87100292,26.1899428 8.34994413,26.188026 L8.34994413,26.188026 C8.17560728,26.1887853 8.00276049,26.1560088 7.84089385,26.0914826 Z" id="_Path_38"></path>
                            <path d="M45.3168715,22.6826498 L45.3168715,22.6826498 C44.9332872,22.0735925 45.116823,21.2700679 45.7271508,20.8864353 L45.7271508,20.8864353 C46.3379684,20.5054907 47.1429061,20.6882476 47.5278212,21.2952681 L47.5278212,21.2952681 C47.713331,21.5875734 47.7745292,21.9414082 47.6979178,22.2787301 C47.6213065,22.6160519 47.4131793,22.9091491 47.1194413,23.0933754 L47.1194413,23.0933754 C46.9105893,23.2223582 46.6699544,23.2911494 46.4242458,23.2921168 L46.4242458,23.2921168 C45.9742765,23.293117 45.5556302,23.0627074 45.3168715,22.6826498 L45.3168715,22.6826498 Z" id="_Path_39"></path>
                            <path d="M55.1483799,16.7394322 L55.1483799,16.7394322 C54.9638172,16.4468235 54.9035543,16.0931074 54.9808654,15.7561972 C55.0581765,15.419287 55.2667195,15.1268198 55.5605587,14.9432177 L55.5605587,14.9432177 C56.1707929,14.5624517 56.9751411,14.7452675 57.3593296,15.3520505 L57.3593296,15.3520505 C57.5448394,15.6443557 57.6060376,15.9981906 57.5294262,16.3355124 C57.4528149,16.6728342 57.2446877,16.9659314 56.9509497,17.1501577 L56.9509497,17.1501577 C56.7411229,17.2758199 56.5005534,17.3413175 56.2557542,17.3394322 L56.2557542,17.3394322 C55.8077402,17.3421229 55.3896646,17.1156003 55.1483799,16.7394322 Z" id="_Path_40"></path>
                            <path d="M10.1924022,21.4618297 C9.9155988,21.2539683 9.73346455,20.9446448 9.6863954,20.6024647 C9.63932625,20.2602846 9.73121303,19.913533 9.94167598,19.6391167 L9.94167598,19.6391167 C10.1512379,19.3640229 10.4618859,19.1831531 10.8052784,19.1362983 C11.1486708,19.0894436 11.4966773,19.1804421 11.7727374,19.3892744 L11.7727374,19.3892744 C12.34579,19.8245794 12.457102,20.6399644 12.0215642,21.2119874 L12.0215642,21.2119874 C11.7750443,21.5382815 11.3886411,21.7297499 10.9787709,21.7287109 L10.9787709,21.7287109 C10.694284,21.7286053 10.4178131,21.6347769 10.1924022,21.4618297 L10.1924022,21.4618297 Z" id="_Path_41"></path>
                            <path d="M42.241676,18.9066246 C41.9922579,18.6667053 41.8487266,18.3378631 41.8426706,17.9924701 C41.8366147,17.647077 41.9685304,17.3134393 42.2093855,17.0649842 L42.2093855,17.0649842 C42.7119556,16.547736 43.5400931,16.53418 44.0594413,17.0347003 L44.0594413,17.0347003 C44.5765037,17.5351661 44.5892517,18.3583218 44.087933,18.8744479 L44.087933,18.8744479 C43.8416097,19.1285468 43.5022501,19.2720099 43.1477095,19.2719263 L43.1477095,19.2719263 C42.8094558,19.2725142 42.4843469,19.141435 42.241676,18.9066246 L42.241676,18.9066246 Z" id="_Path_42"></path>
                            <path d="M2.32111732,9.90662461 C1.86787101,9.34781356 1.95274529,8.52912718 2.51106145,8.07444795 L2.51106145,8.07444795 C3.07152866,7.62172285 3.89396785,7.70638602 4.34972067,8.2637224 L4.34972067,8.2637224 C4.56841352,8.5317594 4.67126634,8.87540212 4.63564297,9.21902059 C4.60001959,9.56263906 4.4288395,9.8780724 4.15977654,10.0958991 L4.15977654,10.0958991 C3.92730762,10.2839933 3.63677023,10.3862923 3.33731844,10.3854943 L3.33731844,10.3854943 C2.94347628,10.3866125 2.5701303,10.2106807 2.32111732,9.90662461 Z" id="_Path_43"></path>
                            <path d="M38.3497207,15.9671924 C38.050321,15.7936562 37.8324409,15.5086276 37.744083,15.1749035 C37.6557251,14.8411794 37.7041393,14.4861421 37.8786592,14.1880126 L37.8786592,14.1880126 C38.0528158,13.889153 38.3391998,13.6716712 38.6745636,13.5835979 C39.0099274,13.4955245 39.3666802,13.5441056 39.6660335,13.718612 L39.6660335,13.718612 C39.9660189,13.8921115 40.1842051,14.1776338 40.2722662,14.5119386 C40.3603272,14.8462434 40.3109948,15.2017382 40.1351955,15.4996845 L40.1351955,15.4996845 C39.9006814,15.8997646 39.4699928,16.1450046 39.0050279,16.1432274 L39.0050279,16.1432274 C38.7747629,16.14371 38.5485398,16.0829432 38.3497207,15.9671924 L38.3497207,15.9671924 Z" id="_Path_44"></path>
                            <path d="M17.8129609,14.5022082 C17.6651945,14.1897805 17.6482371,13.831608 17.7658296,13.5067056 C17.8834221,13.1818031 18.1259019,12.9168682 18.4397765,12.770347 L18.4397765,12.770347 C18.7533096,12.6231016 19.1127495,12.606204 19.4388015,12.7233819 C19.7648534,12.8405598 20.0307258,13.0821847 20.1777654,13.3949527 L20.1777654,13.3949527 C20.3255318,13.7073803 20.3424892,14.0655529 20.2248967,14.3904553 C20.1073041,14.7153578 19.8648243,14.9802927 19.5509497,15.1268139 L19.5509497,15.1268139 C19.3771001,15.209268 19.1869505,15.2519493 18.9944134,15.2517358 L18.9944134,15.2517358 C18.488143,15.2510304 18.0278312,14.9590033 17.8129609,14.5022082 L17.8129609,14.5022082 Z" id="_Path_45"></path>
                            <path d="M33.8670391,14.0403785 C33.534696,13.943038 33.2549282,13.7178359 33.0895525,13.4145323 C32.9241769,13.1112287 32.8868064,12.7547903 32.9856983,12.4239748 L32.9856983,12.4239748 C33.0826021,12.0925375 33.3079714,11.8131982 33.6119993,11.6476912 C33.9160273,11.4821841 34.2736821,11.4441361 34.6059218,11.5419558 L34.6059218,11.5419558 C35.2968085,11.7465703 35.6922401,12.4686903 35.4910615,13.1583596 L35.4910615,13.1583596 C35.3275847,13.7126256 34.8171828,14.0933067 34.2374302,14.0933754 L34.2374302,14.0933754 C34.1120767,14.0931965 33.9873784,14.0753542 33.8670391,14.0403785 L33.8670391,14.0403785 Z" id="_Path_46"></path>
                            <path d="M35.1738547,2.74069401 C34.8412187,2.64379544 34.5611211,2.41866575 34.3956708,2.1152253 C34.2302205,1.81178484 34.1930905,1.45511008 34.292514,1.12429022 L34.292514,1.12429022 C34.3894178,0.792852928 34.6147871,0.513513674 34.918815,0.348006633 C35.2228429,0.182499591 35.5804977,0.144451601 35.9127374,0.242271293 L35.9127374,0.242271293 C36.6036242,0.446885748 36.9990557,1.1690058 36.7978771,1.85867508 L36.7978771,1.85867508 C36.6336565,2.4132355 36.1225927,2.79383369 35.5423464,2.79369089 L35.5423464,2.79369089 C35.4176294,2.79333402 35.293583,2.77549354 35.1738547,2.74069401 L35.1738547,2.74069401 Z" id="_Path_47"></path>
                            <path d="M29.0519553,13.247319 C28.3328654,13.21256 27.7760881,12.6070777 27.8040223,11.8902208 L27.8040223,11.8902208 C27.8368822,11.1713972 28.4462873,10.6140405 29.1678212,10.6429022 L29.1678212,10.6429022 C29.5136859,10.6581251 29.8393044,10.8096798 30.0729995,11.0642051 C30.3066946,11.3187305 30.42931,11.6553626 30.4138547,12 L30.4138547,12 C30.386301,12.6970663 29.8109129,13.2478591 29.110838,13.247319 L29.0519553,13.247319 L29.0519553,13.247319 Z" id="_Path_48"></path>
                            <path d="M36.1881564,59.0006309 C36.0679292,58.6766028 36.0818411,58.3182485 36.2268301,58.0044441 C36.3718192,57.6906396 36.6360015,57.4471054 36.9612291,57.3274448 L36.9612291,57.3274448 C37.6398595,57.0819035 38.3900874,57.428633 38.6403352,58.10347 L38.6403352,58.10347 C38.8878207,58.7782077 38.5402002,59.5252011 37.8634637,59.7728707 L37.8634637,59.7728707 C37.7195183,59.8266752 37.5670352,59.8542637 37.4132961,59.8542637 L37.4132961,59.8542637 C36.8650814,59.8557819 36.3749007,59.5142439 36.1881564,59.0006309 L36.1881564,59.0006309 Z" id="_Path_49"></path>
                            <path d="M11.56,56.1009464 L11.56,56.1009464 C10.9784633,55.6763346 10.8510678,54.8630314 11.2750838,54.2820189 L11.2750838,54.2820189 C11.4788016,54.0024237 11.7859513,53.8152692 12.1285431,53.7619834 C12.4711349,53.7086977 12.8209113,53.7936758 13.1004469,53.9981073 L13.1004469,53.9981073 C13.3806074,54.201424 13.5680899,54.5074486 13.6215401,54.8486792 C13.6749904,55.1899097 13.590017,55.5383113 13.3853631,55.8170347 L13.3853631,55.8170347 C13.140288,56.1532224 12.7481675,56.3517596 12.3311732,56.3508045 L12.3311732,56.3508045 C12.0538652,56.352161 11.7834769,56.2645615 11.56,56.1009464 L11.56,56.1009464 Z" id="_Path_50"></path>
                            <path d="M7.43821229,52.4365931 L7.43821229,52.4365931 C7.20255691,52.1830191 7.07807575,51.8462901 7.0923364,51.500978 C7.10659705,51.155666 7.25842266,50.8302676 7.51418994,50.5968454 L7.51418994,50.5968454 C7.76880053,50.3630838 8.10619774,50.2397252 8.45211013,50.2539247 C8.79802252,50.2681242 9.12409444,50.4187178 9.35854749,50.6725552 L9.35854749,50.6725552 C9.5938508,50.9257952 9.71829691,51.2619642 9.70439737,51.6068071 C9.69049783,51.9516499 9.53939637,52.2767907 9.28446927,52.5104101 L9.28446927,52.5104101 C9.04364623,52.7326981 8.72759445,52.8563753 8.39932961,52.8567881 L8.39932961,52.8567881 C8.03386351,52.8578726 7.684888,52.7053046 7.43821229,52.4365931 L7.43821229,52.4365931 Z" id="_Path_51"></path>
                            <path d="M1.70189944,43.0940063 C1.4539839,42.418791 1.80038839,41.6708942 2.47687151,41.4208202 L2.47687151,41.4208202 C3.15555003,41.174157 3.90655821,41.5212472 4.15597765,42.1968454 L4.15597765,42.1968454 C4.27536042,42.520865 4.26056041,42.8788882 4.11483875,43.192026 C3.96911709,43.5051638 3.70443211,43.7477192 3.37910615,43.8662461 L3.37910615,43.8662461 C3.23446485,43.9199177 3.08138334,43.9474777 2.92703911,43.9476344 L2.92703911,43.9476344 C2.37917719,43.9480376 1.88957799,43.6069047 1.70189944,43.0940063 L1.70189944,43.0940063 Z" id="_Path_52"></path>
                            <path d="M0.315307263,37.7659306 C0.204977278,37.0553136 0.692709292,36.3897983 1.40558659,36.2782334 L1.40558659,36.2782334 C2.11808316,36.1682258 2.78566214,36.6531802 2.89854749,37.362776 L2.89854749,37.362776 C3.00887747,38.0733931 2.52114546,38.7389083 1.80826816,38.8504732 L1.80826816,38.8504732 C1.74116828,38.8620261 1.67310582,38.867097 1.60502793,38.8656151 L1.60502793,38.8656151 C0.961915074,38.8658267 0.414535709,38.3991019 0.315307263,37.7659306 Z" id="_Path_53"></path>
                            <path d="M54.9527374,35.8164038 C54.6065524,35.8026311 54.2800743,35.6522392 54.0452692,35.3983793 C53.8104642,35.1445193 53.6866091,34.8080327 53.7010056,34.4630915 L53.7010056,34.4630915 L53.7010056,34.4422713 L53.7010056,34.4422713 C53.7010056,34.4290221 53.7010056,34.4195584 53.7010056,34.4063091 L53.7010056,34.4063091 C53.7143497,34.0616931 53.8645327,33.7364746 54.1185149,33.5022008 C54.372497,33.2679271 54.7094723,33.1437894 55.0553073,33.1570978 L55.0553073,33.1570978 C55.4019886,33.1703886 55.7291375,33.3205043 55.9646508,33.5743596 C56.2001641,33.8282148 56.3247098,34.164972 56.310838,34.5104101 L56.310838,34.5104101 L56.310838,34.540694 L56.310838,34.540694 C56.310838,34.5501577 56.310838,34.5596215 56.310838,34.5690852 L56.310838,34.5690852 C56.2843047,35.2672084 55.7089166,35.8196728 55.0078212,35.8201893 L55.0078212,35.8201893 C54.9893784,35.8208084 54.9709204,35.81954 54.9527374,35.8164038 Z" id="_Path_54"></path>
                            <path d="M1.25173184,33.6189279 C0.530936903,33.5872025 -0.0281239962,32.9801608 0.00189944134,32.2618297 L0.00189944134,32.2618297 C0.0161962147,31.9165148 0.167861115,31.5910775 0.423396176,31.3573965 C0.678931237,31.1237155 1.01731128,31.001018 1.36379888,31.0164038 L1.36379888,31.0164038 C1.7096483,31.0306652 2.03564121,31.1812697 2.27003981,31.4350753 C2.5044384,31.6888809 2.6280351,32.0250898 2.61363128,32.3697161 L2.61363128,32.3697161 C2.58508354,33.0681287 2.00828025,33.6195065 1.30681564,33.6189279 L1.25173184,33.6189279 L1.25173184,33.6189279 Z" id="_Path_55"></path>
                            <path d="M53.4141899,29.4208202 C53.3026277,28.7112029 53.7887448,28.045572 54.5006704,27.933123 L54.5006704,27.933123 C55.2134334,27.8220199 55.8817112,28.3074818 55.9936313,29.0176656 L55.9936313,29.0176656 C56.0482831,29.3588357 55.9644346,29.707653 55.7605934,29.9871241 C55.5567522,30.2665951 55.2496782,30.4537417 54.9071508,30.5072555 L54.9071508,30.5072555 C54.839796,30.5163789 54.7718842,30.5208061 54.7039106,30.5205191 L54.7039106,30.5205191 C54.0605013,30.5215171 53.5126703,30.0544072 53.4141899,29.4208202 L53.4141899,29.4208202 Z" id="_Path_56"></path>
                            <path d="M1.72659218,28.3911672 C1.38948797,28.3116745 1.09802537,28.101692 0.916609555,27.8076199 C0.735193739,27.5135478 0.678759245,27.1595948 0.759776536,26.8239748 L0.759776536,26.8239748 C0.928685051,26.1243696 1.63366868,25.6927142 2.33631285,25.8586751 L2.33631285,25.8586751 C3.03767115,26.0286259 3.46852813,26.7323336 3.29932961,27.4315457 L3.29932961,27.4315457 C3.15880244,28.0153731 2.63491247,28.4270591 2.03240223,28.4271293 L2.03240223,28.4271293 C1.92934006,28.4282527 1.82656067,28.4161662 1.72659218,28.3911672 Z" id="_Path_57"></path>
                            <path d="M52.1529609,24.5943218 C52.0321102,24.2705661 52.0455015,23.9121992 52.1901798,23.5982959 C52.3348582,23.2843926 52.5989326,23.0407525 52.9241341,22.9211356 L52.9241341,22.9211356 C53.2492478,22.8002779 53.6093099,22.813633 53.9245075,22.9582405 C54.239705,23.1028481 54.4839997,23.3667623 54.6032402,23.6914826 L54.6032402,23.6914826 C54.7239656,24.0147149 54.7104735,24.372558 54.5657484,24.6858522 C54.4210234,24.9991463 54.156994,25.2420693 53.832067,25.3608833 L53.832067,25.3608833 C53.6869718,25.4152994 53.5331308,25.4428803 53.3781006,25.4422812 L53.3781006,25.4422812 C52.8318699,25.4429945 52.3429884,25.1046275 52.1529609,24.5943218 Z" id="_Path_58"></path>
                            <path d="M3.21195531,23.3507886 C2.55530379,23.049731 2.26722098,22.2757506 2.56804469,21.6208202 L2.56804469,21.6208202 C2.87223026,20.9696311 3.64757759,20.686142 4.30223464,20.9867508 L4.30223464,20.9867508 C4.95718391,21.2884479 5.2435207,22.0614562 4.94234637,22.7148265 L4.94234637,22.7148265 C4.72742054,23.176089 4.26365302,23.4713813 3.75329609,23.4719243 L3.75329609,23.4719243 C3.5661942,23.4709177 3.3815247,23.4295943 3.21195531,23.3507886 L3.21195531,23.3507886 Z" id="_Path_59"></path>
                            <path d="M49.9648045,20.1009464 C49.7829922,19.8074026 49.7258737,19.4538318 49.806054,19.1182682 C49.8862344,18.7826915 50.0971226,18.4927068 50.3921788,18.3123028 L50.3921788,18.3123028 C50.6872479,18.1303479 51.0430314,18.07338 51.3804518,18.1540612 C51.7178723,18.2347424 52.0089719,18.4463875 52.1890503,18.7419558 L52.1890503,18.7419558 C52.5665845,19.3534949 52.3752636,20.1542097 51.761676,20.5305994 L51.761676,20.5305994 C51.5554316,20.6548841 51.3189013,20.7203553 51.0778771,20.7198829 L51.0778771,20.7198829 C50.6238058,20.7215627 50.2017963,20.486903 49.9648045,20.1009464 L49.9648045,20.1009464 Z" id="_Path_60"></path>
                            <path d="M46.937095,16.1205047 L46.937095,16.1205047 C46.7017917,15.8672647 46.5773455,15.5310957 46.5912451,15.1862529 C46.6051446,14.84141 46.7562461,14.5162693 47.0111732,14.2826498 L47.0111732,14.2826498 C47.540879,13.7952198 48.3664435,13.8265348 48.8574302,14.3526814 L48.8574302,14.3526814 C49.0930855,14.6062554 49.2175667,14.9429844 49.2033061,15.2882964 C49.1890454,15.6336084 49.0372198,15.9590069 48.7814525,16.192429 L48.7814525,16.192429 C48.5406439,16.4145119 48.2244269,16.5375776 47.8963128,16.5369119 L47.8963128,16.5369119 C47.5322349,16.5377389 47.1844129,16.3867467 46.937095,16.1205047 L46.937095,16.1205047 Z" id="_Path_61"></path>
                            <path d="M8.97486034,14.6100946 C8.73955703,14.3568546 8.61511091,14.0206856 8.62901045,13.6758428 C8.64290999,13.3309999 8.79401145,13.0058592 9.04893855,12.7722397 L9.04893855,12.7722397 C9.57876565,12.2842462 10.405218,12.3164421 10.8951955,12.844164 L10.8951955,12.844164 C11.130261,13.097649 11.2543745,13.4339625 11.2401184,13.7788098 C11.2258623,14.1236571 11.0744097,14.4486587 10.8192179,14.6820189 L10.8192179,14.6820189 C10.5772165,14.9050805 10.2599353,15.0293837 9.93027933,15.0302839 L9.93027933,15.0302839 C9.56714061,15.0281665 9.22116112,14.8760061 8.97486034,14.6100946 L8.97486034,14.6100946 Z" id="_Path_62"></path>
                            <path d="M43.1932961,12.7987382 C42.6111288,12.3747119 42.4828693,11.5613158 42.9064804,10.9798107 L42.9064804,10.9798107 C43.1102296,10.7003412 43.4171998,10.5131429 43.7596544,10.4595234 C44.1021091,10.4059039 44.4519007,10.4902703 44.7318436,10.6940063 L44.7318436,10.6940063 C45.012302,10.8970371 45.2001626,11.202925 45.2539718,11.5441723 C45.307781,11.8854195 45.223116,12.2339778 45.0186592,12.5129338 L45.0186592,12.5129338 C44.7721756,12.8494764 44.3787809,13.0479435 43.9606704,13.0466936 L43.9606704,13.0466936 C43.6851206,13.0462326 43.4166825,12.9594964 43.1932961,12.7987382 L43.1932961,12.7987382 Z" id="_Path_63"></path>
                            <path d="M38.8739665,10.2681388 L38.8739665,10.2681388 C38.2190172,9.96644167 37.9326804,9.19343342 38.2338547,8.54006309 L38.2338547,8.54006309 C38.538057,7.88780155 39.3147925,7.60411555 39.9699441,7.90599369 L39.9699441,7.90599369 C40.6248934,8.20769082 40.9112302,8.98069908 40.6100559,9.6340694 L40.6100559,9.6340694 C40.3947616,10.0950108 39.9312249,10.3901561 39.4210056,10.3911672 L39.4210056,10.3911672 C39.2318525,10.3902691 39.0451705,10.3482845 38.8739665,10.2681388 L38.8739665,10.2681388 Z" id="_Path_64"></path>
                            <path d="M15.8318436,9.12302839 C15.7116163,8.79900025 15.7255283,8.440646 15.8705173,8.12684155 C16.0155063,7.81303709 16.2796887,7.56950289 16.6049162,7.44984227 L16.6049162,7.44984227 C16.9303341,7.33013448 17.2901626,7.34426308 17.605119,7.48911503 C17.9200753,7.63396698 18.1643146,7.89765598 18.2840223,8.22208202 L18.2840223,8.22208202 C18.5320074,8.89625563 18.1864304,9.64335287 17.5109497,9.89337539 L17.5109497,9.89337539 C17.3659175,9.94538686 17.2130201,9.97227362 17.0588827,9.97287066 L17.0588827,9.97287066 C16.511992,9.97244104 16.0228589,9.63366948 15.8318436,9.12302839 L15.8318436,9.12302839 Z" id="_Path_65"></path>
                            <path d="M22.6793296,7.15457413 C22.5677269,6.44350487 23.0544708,5.77648593 23.7677095,5.66309148 L23.7677095,5.66309148 C24.1102844,5.60977053 24.4600817,5.69429715 24.7400927,5.89806257 C25.0201037,6.10182799 25.2073721,6.40812694 25.2606704,6.74952681 L25.2606704,6.74952681 C25.3147369,7.09068608 25.2303728,7.43926308 25.0261895,7.71835959 C24.8220061,7.99745611 24.5147812,8.18413867 24.1722905,8.23722397 L24.1722905,8.23722397 C24.1056414,8.24743818 24.038373,8.25312951 23.9709497,8.25425868 L23.9709497,8.25425868 C23.3280013,8.2530178 22.7808958,7.7872125 22.6793296,7.15457413 L22.6793296,7.15457413 Z" id="_Path_66"></path>
                            <g id="_Group_5" transform="translate(19.754190, 24.416404)">
                                <path d="M13.8697207,15.9804416 L13.8032402,16.0031546 C13.6964819,16.0373188 13.5848548,16.0539399 13.4727374,16.0523659 C13.2559028,16.0498209 13.0411898,16.009464 12.838324,15.933123 C12.4584358,15.7892744 11.2010056,15.0170347 10.053743,14.3053628 L9.83530726,14.1709779 L10.0461453,14.0233438 C12.4375419,12.3690852 14.8213408,11.318612 17.1405587,10.89653 C16.9297207,10.7791798 16.4890503,10.6239748 15.6475978,10.6239748 C13.4974302,10.6239748 11.495419,11.7596215 9.78782123,12.8309148 L9.56558659,12.9690852 L9.52949721,12.7116719 C9.29776536,11.0082019 9.16860335,7.76782334 9.14011173,5.37160883 C10.5320468,6.24396861 11.4429626,7.70676883 11.6093855,9.33690852 C11.794173,8.78789084 11.8878426,8.21251118 11.8867039,7.63343849 C11.8871626,6.1368811 11.2473973,4.71108993 10.1278212,3.71356467 L9.98156425,3.5829653 L10.2379888,3.57160883 L10.3386592,3.57160883 C12.2012649,3.59495357 13.8234539,4.84397353 14.3160894,6.6340694 C14.329004,6.5038696 14.3353435,6.37310528 14.3350838,6.24227129 C14.3350838,4.0807571 12.7072626,2.26750789 10.6273743,2.11230284 L10.4640223,2.09905363 L10.5760894,1.97981073 C11.0915479,1.42330235 11.7934926,1.07390404 12.5496089,0.997476341 C11.551114,0.507930499 10.3596909,0.629960791 9.48201117,1.31167192 L9.39273743,1.37791798 L9.35854749,1.27192429 C9.21356094,0.834799765 8.97580646,0.433914261 8.66145251,0.0965299685 C8.34578411,0.432935117 8.10784936,0.834124576 7.96435754,1.27192429 L7.92826816,1.37791798 L7.84089385,1.31167192 C6.96321409,0.629960791 5.77179107,0.507930499 4.77329609,0.997476341 C5.52747857,1.07072487 6.22905682,1.41523074 6.74681564,1.96656151 L6.85888268,2.08580442 L6.69553073,2.09905363 C4.61564246,2.25425868 2.98592179,4.06750789 2.98592179,6.22902208 C2.98592179,6.35962145 2.98592179,6.48832808 3.0049162,6.62082019 C3.49774664,4.83005704 5.12093232,3.5808662 6.98424581,3.55835962 L7.0849162,3.55835962 L7.33944134,3.56971609 L7.19318436,3.70031546 C5.62325349,5.11984877 5.04479835,7.33043262 5.71921788,9.33312303 C5.88536327,7.70288916 6.79634865,6.23997722 8.18849162,5.36782334 C8.16189944,7.76403785 8.03273743,11.0100946 7.79910615,12.7078864 L7.76301676,12.9652997 L7.54268156,12.8271293 C5.83318436,11.7596215 3.83117318,10.6201893 1.68290503,10.6201893 C0.839553073,10.6201893 0.400782123,10.7753943 0.188044693,10.8927445 C2.50726257,11.3148265 4.89296089,12.3652997 7.2824581,14.0195584 L7.49329609,14.1671924 L7.27486034,14.3015773 C6.13519553,15.0132492 4.87396648,15.785489 4.49217877,15.9293375 C4.28931298,16.0056785 4.0746,16.0460354 3.85776536,16.0485804 C3.74563883,16.0502902 3.63398979,16.0336658 3.52726257,15.9993691 L3.45888268,15.9766562 C3.41185971,15.9582506 3.36362786,15.9430732 3.31452514,15.9312303 C3.30574136,15.9684228 3.30190956,16.0066057 3.30312849,16.044795 C3.30312849,16.4233438 3.84636872,16.8359621 4.62134078,16.8359621 C5.02302585,16.8311117 5.41771019,16.730517 5.77240223,16.5425868 C6.99944134,15.9066246 8.56458101,14.9451104 8.57977654,14.9356467 L8.66905028,14.8807571 L8.75832402,14.9356467 C8.77351955,14.9451104 10.3386592,15.9066246 11.5656983,16.5425868 C11.9202828,16.7307935 12.3150358,16.8314057 12.7167598,16.8359621 C13.4917318,16.8359621 14.0330726,16.4195584 14.0330726,16.044795 C14.0367457,16.0070285 14.0367457,15.9689967 14.0330726,15.9312303 C13.9833407,15.9430415 13.934475,15.9582187 13.8868156,15.9766562" id="_Path_67"></path>
                            </g>
                            <path d="M34.6553073,8.63470032 C33.953737,8.46464727 33.5217479,7.76186289 33.6884916,7.06182965 L33.6884916,7.06182965 C33.7695394,6.72646807 33.9809916,6.43693928 34.2763102,6.25696506 C34.5716287,6.07699084 34.9266106,6.02132114 35.2631285,6.1022082 L35.2631285,6.1022082 C35.6006469,6.18167709 35.892447,6.39194627 36.0739119,6.68645324 C36.2553768,6.9809602 36.3115327,7.33540314 36.2299441,7.67129338 L36.2299441,7.67129338 C36.0881164,8.25642692 35.563305,8.66916754 34.9592179,8.67066246 L34.9592179,8.67066246 C34.8568989,8.66979402 34.7549848,8.6577344 34.6553073,8.63470032 L34.6553073,8.63470032 Z" id="_Path_68"></path>
                        </g>
                    </g>
                    <g id="lYg6nJ" transform="translate(70.469274, 19.116719)">
                        <g id="_Group_6">
                            <path d="M0.188044693,3.80252366 C0.233631285,3.52239748 0.264022346,3.23470032 0.330502793,2.95835962 C0.658944465,1.45660448 1.9156291,0.333236606 3.44938547,0.170347003 C4.41620112,0.0397476341 5.36592179,0.0757097792 6.27765363,0.458044164 C7.42681564,0.938801262 8.08402235,1.82649842 8.35564246,3.01892744 C8.35564246,3.05488959 8.35564246,3.09274448 8.37083799,3.14006309 C8.3347486,3.14006309 8.30435754,3.15141956 8.27586592,3.15141956 L6.22446927,3.15141956 C6.1427933,3.15141956 6.08960894,3.14006309 6.05162011,3.0511041 C5.73038305,2.26378293 4.89750686,1.81044121 4.05910615,1.96656151 C3.34951504,2.02969719 2.75945918,2.5369403 2.59273743,3.22712934 C2.38037357,3.91514627 2.4024126,4.65384533 2.65541899,5.32807571 C2.83630406,5.87186022 3.31411412,6.26409339 3.88435754,6.33690852 C4.45920939,6.45834324 5.05892815,6.34956429 5.55396648,6.0340694 C5.76070194,5.90118879 5.92484701,5.71200363 6.02692737,5.48895899 L4.29463687,5.48895899 L4.29463687,4.00883281 L8.40692737,4.00883281 L8.40692737,8.10662461 L6.66703911,8.10662461 L6.66703911,7.14132492 C6.63180855,7.1575155 6.59864912,7.17784937 6.56826816,7.20189274 C5.97374302,7.92302839 5.18547486,8.21451104 4.27564246,8.22586751 C3.40749194,8.26727571 2.54697342,8.04696813 1.80636872,7.59369085 C0.93452514,7.02586751 0.476759777,6.19684543 0.286815642,5.20126183 C0.245027933,4.98548896 0.220335196,4.7659306 0.188044693,4.54637224 L0.188044693,3.80252366 Z" id="_Path_69"></path>
                            <path d="M18.2213408,4.16782334 C18.2258644,4.88410072 18.065357,5.59185795 17.7521788,6.23659306 C17.3122907,7.10899048 16.5208447,7.75381622 15.575419,8.01009464 C14.5355313,8.32800131 13.4225762,8.31874837 12.3881564,7.98359621 C10.9426816,7.51419558 10.1411173,6.48264984 9.8922905,5.01198738 C9.76107303,4.27455636 9.80136129,3.51695843 10.0100559,2.79747634 C10.3135109,1.61108956 11.22609,0.674346306 12.4071508,0.336908517 C13.4679978,-0.00587964391 14.6113091,9.21226326e-05 15.6684916,0.353943218 C17.1272626,0.834700315 17.9136313,1.88895899 18.1510615,3.37287066 C18.1928492,3.63785489 18.1985475,3.90283912 18.2213408,4.16782334 Z M12.0994413,4.16782334 C12.0994413,4.24353312 12.0994413,4.32113565 12.0994413,4.39495268 C12.1101954,4.8184125 12.2341209,5.2313477 12.4584358,5.59116719 C12.8763128,6.21198738 13.4860335,6.42018927 14.2078212,6.36719243 C14.8664942,6.34907712 15.453184,5.94747418 15.7064804,5.34132492 C15.9749916,4.72033299 16.0232269,4.0267255 15.8432402,3.37476341 C15.6949131,2.61677926 15.066195,2.04485648 14.2951955,1.96656151 C13.5045972,1.82169009 12.7127176,2.21315154 12.3501676,2.92807571 C12.1671019,3.31567624 12.0810692,3.74172523 12.0994413,4.16971609 L12.0994413,4.16782334 Z" id="_Compound_Path_"></path>
                            <path d="M29.902905,5.3829653 L32.1575419,5.3829653 C32.1575419,5.49463722 32.1575419,5.59684543 32.1575419,5.69905363 C32.1288932,6.0445769 32.3623744,6.35748981 32.7026816,6.429653 C33.1126867,6.55714962 33.545424,6.59523567 33.9715084,6.54132492 C34.1976259,6.51925824 34.4198589,6.46771396 34.632514,6.38801262 C34.7863051,6.32304617 34.9204935,6.2193353 35.0218994,6.08706625 C35.1224493,5.97139176 35.1598189,5.81400243 35.1219477,5.66569343 C35.0840765,5.51738442 34.9757598,5.39693469 34.8319553,5.34321767 C34.4914769,5.20631492 34.1375032,5.10544553 33.7758659,5.04227129 C33.0160894,4.90977918 32.2563128,4.82649842 31.5459218,4.53880126 C31.2602119,4.42361911 30.9922733,4.26877539 30.7500559,4.07886435 C29.8193296,3.3444795 29.8003352,1.60504732 30.8887151,0.796845426 C31.3367692,0.47244449 31.8591422,0.264882641 32.4082682,0.193059937 C33.3729197,0.0217255427 34.3640217,0.0709117702 35.3068156,0.336908517 C35.6006665,0.429535773 35.8800617,0.562688463 36.1368715,0.732492114 C36.7731844,1.14700315 37.0865922,1.8681388 37.0030168,2.71419558 L34.7711732,2.71419558 C34.7711732,2.65741325 34.7597765,2.61009464 34.7711732,2.56466877 C34.7946893,2.25990121 34.6016738,1.98006955 34.3077095,1.89274448 C33.8249212,1.71395152 33.293738,1.71395152 32.8109497,1.89274448 C32.6668105,1.95349464 32.5410965,2.05070999 32.446257,2.17476341 C32.3542801,2.27625255 32.3173453,2.41585536 32.3471552,2.54933893 C32.3769651,2.6828225 32.4698252,2.7936432 32.5963128,2.8466877 C32.9135256,2.9809167 33.244827,3.07932183 33.5840223,3.14006309 C34.3042443,3.23059958 35.0166347,3.37485301 35.7151955,3.57160883 C36.1992504,3.70480111 36.6320155,3.97976563 36.9574302,4.36088328 C37.3467242,4.87435347 37.4967986,5.52932919 37.369726,6.16028156 C37.2426534,6.79123394 36.850592,7.33779305 36.2926257,7.66182965 C35.8108013,7.93537368 35.2758774,8.103158 34.7236872,8.15394322 C33.7603441,8.29550301 32.7783942,8.24532414 31.8346369,8.00630915 C31.4912158,7.90847235 31.163229,7.76321438 30.8602235,7.57476341 C30.2763851,7.21198421 29.918377,6.57769001 29.9105028,5.89211356 C29.8934078,5.73312303 29.902905,5.56466877 29.902905,5.3829653 Z" id="_Path_70"></path>
                            <path d="M46.9313966,8.11230284 L44.6843575,8.11230284 C44.5437989,7.76403785 44.3975419,7.41577287 44.2626816,7.0637224 C44.2408323,6.96281805 44.1450959,6.89538095 44.0423464,6.90851735 C42.9406704,6.90851735 41.8396276,6.90851735 40.7392179,6.90851735 C40.6472016,6.89412337 40.5595406,6.9526327 40.5378771,7.04290221 C40.4182123,7.36656151 40.2871508,7.68643533 40.1579888,8.0044164 C40.1345713,8.05803802 40.0875948,8.09786219 40.0307263,8.11230284 C39.3260335,8.11230284 38.6213408,8.11230284 37.9147486,8.11230284 C37.9147486,8.11230284 37.8957542,8.11230284 37.8767598,8.09716088 C37.8938547,8.04794953 37.9090503,7.99684543 37.9280447,7.94763407 C38.9410801,5.42397476 39.9541155,2.90031546 40.9671508,0.376656151 C40.9890925,0.270536375 41.0890444,0.198923521 41.1969832,0.211987382 C42.0061453,0.211987382 42.8134078,0.211987382 43.6225698,0.211987382 C43.7129687,0.201370567 43.7982181,0.256150709 43.8258101,0.342586751 C44.8477095,2.89400631 45.8708752,5.44416404 46.8953073,7.99305994 C46.902905,8.02712934 46.9143017,8.06687697 46.9313966,8.11230284 Z M43.5826816,5.27318612 C43.5655866,5.21451104 43.5560894,5.16908517 43.5389944,5.12555205 C43.197095,4.22839117 42.857095,3.32933754 42.5113966,2.4340694 C42.4924022,2.3829653 42.435419,2.34700315 42.3974302,2.30347003 C42.3575419,2.34700315 42.3005587,2.38107256 42.2796648,2.43217666 C41.9339665,3.33312303 41.5908007,4.23596215 41.2501676,5.14069401 C41.2349721,5.18233438 41.2254749,5.22586751 41.2121788,5.27318612 L43.5826816,5.27318612 Z" id="_Compound_Path_2"></path>
                            <path d="M26.9872626,0.223343849 C26.9644693,0.299053628 26.9473743,0.359621451 26.9264804,0.412618297 C26.0755307,2.92113565 25.224581,5.429653 24.3736313,7.93817035 C24.3639224,7.99457931 24.3319307,8.04475762 24.284811,8.0774828 C24.2376914,8.11020798 24.1793752,8.12274965 24.122905,8.11230284 C23.2510615,8.11230284 22.3773184,8.11230284 21.5035754,8.11230284 C21.4608936,8.12112016 21.4164499,8.11215277 21.3805724,8.08748454 C21.3446948,8.06281632 21.3205075,8.02459529 21.3136313,7.98170347 C20.4512849,5.43533123 19.5876723,2.89085174 18.7227933,0.348264984 C18.7113966,0.312302839 18.7037989,0.276340694 18.6886034,0.223343849 L20.9432402,0.223343849 C21.0932961,0.70977918 21.2471508,1.20378549 21.3991061,1.6977918 C21.8271136,3.08580442 22.2538547,4.47381703 22.6793296,5.86182965 C22.7021229,5.93753943 22.7021229,6.03028391 22.8331844,6.03028391 C22.9642458,6.03028391 22.9604469,5.9318612 22.9851397,5.85615142 C23.5499069,4.02523659 24.1127747,2.1955836 24.673743,0.367192429 C24.6903025,0.266916302 24.7833745,0.197567297 24.884581,0.210094637 C25.5227933,0.210094637 26.162905,0.210094637 26.8030168,0.210094637 C26.8637989,0.213880126 26.9150838,0.21955836 26.9872626,0.223343849 Z" id="_Path_71"></path>
                            <path d="M27.9084916,8.22776025 C27.3234637,8.22776025 26.9207821,7.97602524 26.8011173,7.52365931 C26.6111732,6.79495268 26.9910615,6.14384858 27.8287151,6.1362776 C27.9796303,6.13361246 28.1302698,6.15014983 28.2769832,6.18548896 C28.7784358,6.32176656 29.0367598,6.73438486 28.9911732,7.30788644 C28.9618971,7.78637099 28.5853117,8.17129195 28.1060335,8.2126183 C28.0319553,8.22208202 27.9559777,8.22397476 27.9084916,8.22776025 Z" id="_Path_72"></path>
                        </g>
                    </g>
                </g>
            </g>
            <path d="M72.1939665,44.8637224 C70.9403352,44.8637224 70.6573184,44.1842271 70.6573184,43.4271293 L70.6573184,40.8378549 L71.417095,40.8378549 L71.417095,43.3798107 C71.417095,43.8794953 71.5823464,44.229653 72.2414525,44.229653 C72.8302793,44.229653 73.0772067,43.9835962 73.0772067,43.3097792 L73.0772067,40.8378549 L73.8369832,40.8378549 L73.8369832,43.2719243 C73.8426816,44.3488959 73.2424581,44.8637224 72.1939665,44.8637224 Z" id="Path"></path>
            <path d="M76.418324,44.7993691 L76.418324,42.933123 C76.418324,42.6340694 76.3347486,42.4523659 76.0517318,42.4523659 C75.6718436,42.4523659 75.3755307,42.8801262 75.3755307,43.3987382 L75.3755307,44.8069401 L74.6157542,44.8069401 L74.6157542,41.8826498 L75.3280447,41.8826498 C75.3286505,42.0576347 75.3146733,42.2323676 75.286257,42.4050473 L75.286257,42.4050473 C75.4761185,42.0347035 75.8645326,41.8079425 76.2815642,41.8239748 C76.9406704,41.8239748 77.1515084,42.2403785 77.1515084,42.7514196 L77.1515084,44.7993691 L76.418324,44.7993691 Z" id="Path"></path>
            <path d="M78.5239677,41.4141359 C78.4060258,41.4160831 78.2921863,41.3711883 78.2077498,41.2894292 C78.1233133,41.2076702 78.0752756,41.0958209 78.074313,40.9787397 C78.0683263,40.7952033 78.1752993,40.6264704 78.3445915,40.5524182 C78.5138838,40.4783659 78.7115246,40.5138538 78.8439522,40.6420821 C78.9763798,40.7703105 79.0170208,40.9655485 78.946636,41.1353719 C78.8762512,41.3051952 78.7089642,41.4155266 78.5239677,41.4141359 Z M78.1307612,44.7993691 L78.1307612,41.8826498 L78.9366871,41.8826498 L78.9366871,44.7993691 L78.1307612,44.7993691 Z" id="Shape"></path>
            <path d="M81.3948603,41.1312303 C81.2768407,41.0946018 81.1537697,41.0767172 81.0301676,41.0782334 C80.6996648,41.0782334 80.5534078,41.2485804 80.5534078,41.6365931 L80.5534078,41.8826498 L81.2353073,41.8826498 L81.2353073,42.4637224 L80.5534078,42.4637224 L80.5534078,44.7993691 L79.8050279,44.7993691 L79.8050279,42.4637224 L79.2921788,42.4637224 L79.2921788,41.8826498 L79.8050279,41.8826498 L79.8050279,41.6422713 C79.8050279,40.8567823 80.1697207,40.4687697 80.9712849,40.4687697 C81.1314943,40.4664067 81.2914505,40.4822824 81.4480447,40.5160883 L81.3948603,41.1312303 Z" id="Path"></path>
            <path d="M82.1707825,41.4141359 C82.0528407,41.4160831 81.9390011,41.3711883 81.8545646,41.2894292 C81.7701281,41.2076702 81.7220904,41.0958209 81.7211278,40.9787397 C81.7151411,40.7952033 81.8221141,40.6264704 81.9914063,40.5524182 C82.1606986,40.4783659 82.3583395,40.5138538 82.490767,40.6420821 C82.6231946,40.7703105 82.6638356,40.9655485 82.5934508,41.1353719 C82.523066,41.3051952 82.355779,41.4155266 82.1707825,41.4141359 Z M81.7814875,44.7993691 L81.7814875,41.8826498 L82.5874134,41.8826498 L82.5874134,44.7993691 L81.7814875,44.7993691 Z" id="Shape"></path>
            <path d="M85.6667039,43.4858044 L83.8641341,43.4858044 C83.8641341,44.0025237 84.1053631,44.2712934 84.6713966,44.2712934 C84.9620593,44.268494 85.2495412,44.2106865 85.5185475,44.1009464 L85.6021229,44.6687697 C85.2616623,44.7919105 84.9025231,44.8559307 84.5403352,44.8580442 C83.6172067,44.8580442 83.0986592,44.3943218 83.0986592,43.3684543 C83.0986592,42.4940063 83.6172067,41.8239748 84.4871508,41.8239748 C85.357095,41.8239748 85.7008939,42.3709779 85.7008939,43.0618297 C85.7003112,43.2038144 85.6888815,43.3455489 85.6667039,43.4858044 L85.6667039,43.4858044 Z M84.4339665,42.3766562 C84.1224581,42.3766562 83.898324,42.6056782 83.8641341,42.9861199 L84.9487151,42.9861199 C84.9601117,42.5867508 84.7587709,42.3766562 84.4339665,42.3766562 Z" id="Shape"></path>
            <path d="M88.0922905,44.7993691 C88.0929855,44.6366529 88.1044067,44.4741579 88.1264804,44.3129338 L88.1150838,44.3129338 C87.9455486,44.6648232 87.5813636,44.8816696 87.1900559,44.8637224 C86.4777654,44.8637224 86.1244693,44.3299685 86.1244693,43.4971609 C86.1244693,42.511041 86.6943017,41.829653 87.6744134,41.829653 C87.8014896,41.8281013 87.9284964,41.8363276 88.0543017,41.8542587 L88.0543017,40.5160883 L88.8026816,40.5160883 L88.8026816,44.7993691 L88.0922905,44.7993691 Z M88.042905,42.4694006 C87.9131685,42.440524 87.7807482,42.4252986 87.6478212,42.4239748 C87.2185475,42.4239748 86.9127374,42.6927445 86.9127374,43.4157729 C86.9127374,43.9608833 87.0703911,44.2429022 87.4122905,44.2429022 C87.8073743,44.2429022 88.042905,43.784858 88.042905,43.2851735 L88.042905,42.4694006 Z" id="Shape"></path>
            <path d="M93.1713966,44.7993691 L91.9405587,42.6170347 C91.8071222,42.3663812 91.6891382,42.1078579 91.5872626,41.8429022 C91.6119553,42.1892744 91.6290503,43.1507886 91.6290503,43.726183 L91.6290503,44.7993691 L90.892067,44.7993691 L90.892067,40.8378549 L91.9063687,40.8378549 L93.1068156,42.9690852 C93.2501474,43.2245165 93.3770329,43.4887722 93.4867039,43.7602524 C93.4620112,43.362776 93.4449162,42.3880126 93.4449162,41.8353312 L93.4449162,40.8378549 L94.1818994,40.8378549 L94.1818994,44.7993691 L93.1713966,44.7993691 Z" id="Path"></path>
            <path d="M96.577095,44.7993691 C96.5746552,44.6348609 96.5841774,44.4703927 96.6055866,44.3072555 L96.6055866,44.3072555 C96.4329903,44.6624608 96.0648203,44.8812445 95.669162,44.8637224 C95.4434892,44.8777314 95.2226452,44.7944981 95.0627611,44.6351778 C94.902877,44.4758574 94.8193492,44.2557919 94.8334078,44.0309148 C94.8334078,43.3381703 95.4982123,43.0164038 96.5239106,43.0164038 L96.5239106,42.9104101 C96.5239106,42.5583596 96.3890503,42.3993691 95.9996648,42.3993691 C95.6956372,42.4120273 95.396411,42.4793563 95.1164246,42.5981073 L94.9929609,42.0302839 C95.3471216,41.898124 95.7221559,41.8301764 96.1003352,41.829653 C97.0063687,41.829653 97.2779888,42.2082019 97.2779888,42.8574132 L97.2779888,44.059306 C97.2779888,44.2940063 97.2779888,44.570347 97.3007821,44.8164038 L96.577095,44.7993691 Z M96.5182123,43.5028391 C95.7584358,43.5028391 95.5513966,43.6921136 95.5513966,43.9419558 C95.5491216,44.0349921 95.5860061,44.1247349 95.6531186,44.1894535 C95.7202311,44.2541721 95.8114521,44.2879652 95.9046927,44.2826498 C96.2712849,44.2826498 96.5182123,43.9305994 96.5182123,43.5785489 L96.5182123,43.5028391 Z" id="Shape"></path>
            <path d="M99.0254749,44.8580442 C98.3777654,44.8580442 98.178324,44.6233438 98.178324,43.9419558 L98.178324,42.4637224 L97.6711732,42.4637224 L97.6711732,41.8826498 L98.178324,41.8826498 L98.178324,40.985489 L98.9267039,40.7867508 L98.9267039,41.8826498 L99.6389944,41.8826498 L99.6389944,42.4637224 L98.9267039,42.4637224 L98.9267039,43.7432177 C98.9267039,44.1217666 99.0140782,44.2239748 99.2743017,44.2239748 C99.3870475,44.2262652 99.4995636,44.2128873 99.6086034,44.1842271 L99.6617877,44.7766562 C99.4535479,44.8281732 99.240021,44.8554845 99.0254749,44.8580442 L99.0254749,44.8580442 Z" id="Path"></path>
            <path d="M100.687612,41.4589694 C100.569284,41.4615358 100.454923,41.4145504 100.370203,41.3285617 C100.285484,41.2425729 100.237504,41.1247859 100.237037,41.0016445 C100.252279,40.7527916 100.45071,40.5590693 100.69037,40.5590693 C100.930031,40.5590693 101.128462,40.7527916 101.143704,41.0016445 C101.136703,41.2578635 100.933957,41.4611569 100.687612,41.4589694 L100.687612,41.4589694 Z M100.301171,44.7993691 L100.301171,41.8826498 L101.107097,41.8826498 L101.107097,44.7993691 L100.301171,44.7993691 Z" id="Shape"></path>
            <path d="M102.976313,44.8580442 C102.146257,44.8580442 101.604916,44.4302839 101.604916,43.3911672 C101.604916,42.4826498 102.210838,41.8239748 103.101676,41.8239748 C103.93743,41.8239748 104.473073,42.2820189 104.473073,43.2851735 C104.473073,44.2012618 103.848156,44.8580442 102.976313,44.8580442 Z M103.048492,42.4580442 C102.712291,42.4580442 102.381788,42.7173502 102.381788,43.3154574 C102.381788,43.9135647 102.605922,44.2182965 103.035196,44.2182965 C103.415084,44.2182965 103.696201,43.9192429 103.696201,43.3268139 C103.696201,42.7343849 103.489162,42.4580442 103.048492,42.4580442 Z" id="Shape"></path>
            <path d="M106.870168,44.7993691 L106.870168,42.933123 C106.870168,42.6340694 106.786592,42.4523659 106.503575,42.4523659 C106.123687,42.4523659 105.827374,42.8801262 105.827374,43.3987382 L105.827374,44.8069401 L105.067598,44.8069401 L105.067598,41.8826498 L105.779888,41.8826498 C105.780494,42.0576347 105.766517,42.2323676 105.738101,42.4050473 L105.738101,42.4050473 C105.927962,42.0347035 106.316376,41.8079425 106.733408,41.8239748 C107.392514,41.8239748 107.603352,42.2403785 107.603352,42.7514196 L107.603352,44.7993691 L106.870168,44.7993691 Z" id="Path"></path>
            <path d="M110.002346,44.7993691 C109.999907,44.6348609 110.009429,44.4703927 110.030838,44.3072555 L110.030838,44.3072555 C109.858242,44.6624608 109.490072,44.8812445 109.094413,44.8637224 C108.868741,44.8777314 108.647897,44.7944981 108.488012,44.6351778 C108.328128,44.4758574 108.244601,44.2557919 108.258659,44.0309148 C108.258659,43.3381703 108.923464,43.0164038 109.949162,43.0164038 L109.949162,42.9104101 C109.949162,42.5583596 109.812402,42.3993691 109.424916,42.3993691 C109.120889,42.4120273 108.821662,42.4793563 108.541676,42.5981073 L108.418212,42.0302839 C108.772373,41.898124 109.147407,41.8301764 109.525587,41.829653 C110.43162,41.829653 110.70324,42.2082019 110.70324,42.8574132 L110.70324,44.059306 C110.70324,44.2940063 110.70324,44.570347 110.726034,44.8164038 L110.002346,44.7993691 Z M109.943464,43.5028391 C109.183687,43.5028391 108.976648,43.6921136 108.976648,43.9419558 C108.974373,44.0349921 109.011257,44.1247349 109.07837,44.1894535 C109.145482,44.2541721 109.236703,44.2879652 109.329944,44.2826498 C109.696536,44.2826498 109.943464,43.9305994 109.943464,43.5785489 L109.943464,43.5028391 Z" id="Shape"></path>
            <polygon id="Path" points="111.52 44.7993691 111.52 40.5160883 112.279777 40.5160883 112.279777 44.7993691"></polygon>
            <path d="M115.419553,43.444164 C115.271397,43.444164 115.142235,43.4328076 115.142235,43.4328076 L115.142235,44.7993691 L114.382458,44.7993691 L114.382458,40.8378549 C114.382458,40.8378549 114.929497,40.815142 115.495531,40.815142 C116.466145,40.815142 117.003687,41.2561514 117.003687,42.0359621 C117.003687,42.8157729 116.443352,43.444164 115.419553,43.444164 Z M115.436648,41.4435331 C115.288492,41.4435331 115.142235,41.4435331 115.142235,41.4435331 L115.142235,42.7684543 C115.248853,42.7871342 115.356886,42.796633 115.46514,42.7968454 C115.955196,42.7968454 116.202123,42.5337539 116.202123,42.0984227 C116.202123,41.6630915 115.964693,41.4435331 115.436648,41.4435331 L115.436648,41.4435331 Z" id="Shape"></path>
            <polygon id="Path" points="117.53933 44.7993691 117.53933 40.5160883 118.299106 40.5160883 118.299106 44.7993691"></polygon>
            <path d="M120.671508,44.7993691 C120.669069,44.6348609 120.678591,44.4703927 120.7,44.3072555 L120.7,44.3072555 C120.527404,44.6624608 120.159234,44.8812445 119.763575,44.8637224 C119.537903,44.8777314 119.317059,44.7944981 119.157174,44.6351778 C118.99729,44.4758574 118.913763,44.2557919 118.927821,44.0309148 C118.927821,43.3381703 119.592626,43.0164038 120.618324,43.0164038 L120.618324,42.9104101 C120.618324,42.5583596 120.481564,42.3993691 120.094078,42.3993691 C119.790051,42.4120273 119.490824,42.4793563 119.210838,42.5981073 L119.087374,42.0302839 C119.441535,41.898124 119.816569,41.8301764 120.194749,41.829653 C121.100782,41.829653 121.372402,42.2082019 121.372402,42.8574132 L121.372402,44.059306 C121.372402,44.2940063 121.372402,44.570347 121.395196,44.8164038 L120.671508,44.7993691 Z M120.612626,43.5028391 C119.852849,43.5028391 119.64581,43.6921136 119.64581,43.9419558 C119.643535,44.0349921 119.680419,44.1247349 119.747532,44.1894535 C119.814644,44.2541721 119.905865,44.2879652 119.999106,44.2826498 C120.365698,44.2826498 120.612626,43.9305994 120.612626,43.5785489 L120.612626,43.5028391 Z" id="Shape"></path>
            <path d="M123.119888,44.8580461 C122.472179,44.8580461 122.272737,44.6233438 122.272737,43.9419558 L122.272737,42.4637224 L121.765587,42.4637224 L121.765587,41.8826498 L122.272737,41.8826498 L122.272737,40.985489 L123.021117,40.7867508 L123.021117,41.8826498 L123.733408,41.8826498 L123.733408,42.4637224 L123.021117,42.4637224 L123.021117,43.7432177 C123.021117,44.1217666 123.108492,44.2239748 123.368715,44.2239748 C123.481461,44.2262652 123.593977,44.2128873 123.703017,44.1842271 L123.752402,44.7861199 C123.545025,44.8341604 123.332795,44.8582935 123.119888,44.8580461 L123.119888,44.8580461 Z" id="Path"></path>
            <path d="M126.088715,41.1312303 C125.970695,41.0946018 125.847624,41.0767172 125.724022,41.0782334 C125.39352,41.0782334 125.245363,41.2485804 125.245363,41.6365931 L125.245363,41.8826498 L125.929162,41.8826498 L125.929162,42.4637224 L125.245363,42.4637224 L125.245363,44.7993691 L124.498883,44.7993691 L124.498883,42.4637224 L123.986034,42.4637224 L123.986034,41.8826498 L124.498883,41.8826498 L124.498883,41.6422713 C124.498883,40.8567823 124.863575,40.4687697 125.66514,40.4687697 C125.825345,40.4665053 125.98529,40.4823799 126.141899,40.5160883 L126.088715,41.1312303 Z" id="Path"></path>
            <path d="M127.501899,44.8580442 C126.671844,44.8580442 126.128603,44.4302839 126.128603,43.3911672 C126.128603,42.4826498 126.736425,41.8239748 127.625363,41.8239748 C128.461117,41.8239748 128.99676,42.2820189 128.99676,43.2851735 C128.99676,44.2012618 128.373743,44.8580442 127.501899,44.8580442 Z M127.572179,42.4580442 C127.235978,42.4580442 126.907374,42.7173502 126.907374,43.3154574 C126.907374,43.9135647 127.129609,44.2182965 127.560782,44.2182965 C127.94067,44.2182965 128.219888,43.9192429 128.219888,43.3268139 C128.219888,42.7343849 128.014749,42.4580442 127.572179,42.4580442 Z" id="Shape"></path>
            <path d="M131.160223,42.5583596 C130.618883,42.4523659 130.347263,42.7987382 130.347263,43.6088328 L130.347263,44.7993691 L129.587486,44.7993691 L129.587486,41.8826498 L130.299777,41.8826498 C130.297267,42.0792281 130.280125,42.27535 130.248492,42.4694006 L130.259888,42.4694006 C130.400447,42.1003155 130.683464,41.7785489 131.190615,41.8239748 L131.160223,42.5583596 Z" id="Path"></path>
            <path d="M135.221229,44.7993691 L135.221229,42.9577287 C135.221229,42.6454259 135.15095,42.4523659 134.873631,42.4523659 C134.545028,42.4523659 134.203128,42.8309148 134.203128,43.3987382 L134.203128,44.7955836 L133.460447,44.7955836 L133.460447,42.948265 C133.460447,42.6605678 133.401564,42.4485804 133.112849,42.4485804 C132.765251,42.4485804 132.442346,42.8536278 132.442346,43.3949527 L132.442346,44.7917981 L131.68257,44.7917981 L131.68257,41.8826498 L132.39486,41.8826498 C132.394177,42.0573767 132.382122,42.2318754 132.358771,42.4050473 L132.358771,42.4050473 C132.538299,42.0380149 132.915943,41.8088266 133.325587,41.8182965 C133.702307,41.7847671 134.046413,42.0324562 134.132849,42.3993691 C134.30994,42.0388928 134.679839,41.8125757 135.08257,41.8182965 C135.652402,41.8182965 135.960112,42.1305994 135.960112,42.7873817 L135.960112,44.7936909 L135.221229,44.7993691 Z" id="Path"></path>
        </g>
    </g>
</svg>