<?xml version="1.0" encoding="UTF-8"?>
<svg width="36px" height="36px" viewBox="0 0 36 36" version="1.1" xmlns="http://www.w3.org/2000/svg" xmlns:xlink="http://www.w3.org/1999/xlink">
    <!-- Generator: Sketch 57.1 (83088) - https://sketch.com -->
    <title>icon/system/24/twitter</title>
    <desc>Created with Sketch.</desc>
    <g id="Organism" stroke="none" stroke-width="1" fill="none" fill-rule="evenodd">
        <g id="Footer" transform="translate(-728.000000, -798.000000)" fill="#FFFFFF">
            <g id="icon/system/16/twitter" transform="translate(728.000000, 798.000000)">
                <path d="M20.5002,10.9698 C18.9288,11.5416 17.9358,13.0164 18.0486,14.6304 L18.0864,15.2532 L17.4576,15.177 C15.1698,14.8848 13.1706,13.8936 11.4732,12.228 L10.6434,11.4018 L10.4298,12.012 C9.9774,13.3722 10.2666,14.8086 11.2092,15.7746 C11.712,16.3086 11.5986,16.3848 10.7316,16.0668 C10.4298,15.9654 10.1658,15.8892 10.1406,15.927 C10.053,16.0164 10.3542,17.1726 10.593,17.6304 C10.92,18.2664 11.586,18.8886 12.3156,19.2576 L12.9318,19.5498 L12.2028,19.5624 C11.499,19.5624 11.4738,19.575 11.5494,19.8426 C11.8008,20.6688 12.7938,21.546 13.9002,21.9276 L14.6796,22.194 L14.001,22.6008 C12.9954,23.1864 11.8134,23.5164 10.6314,23.5416 C10.065,23.5536 9.6,23.6046 9.6,23.643 C9.6,23.7696 11.1342,24.4812 12.0264,24.7614 C14.7042,25.5876 17.8854,25.2312 20.274,23.8206 C21.9714,22.8168 23.6682,20.8206 24.4608,18.888 C24.8886,17.8584 25.3158,15.9774 25.3158,15.0756 C25.3158,14.4906 25.3536,14.4144 26.0574,13.7154 C26.4726,13.3086 26.862,12.864 26.9376,12.7368 C27.0636,12.495 27.0504,12.495 26.4096,12.711 C25.341,13.0926 25.1898,13.0416 25.7184,12.4698 C26.1078,12.063 26.5734,11.3256 26.5734,11.1096 C26.5734,11.0718 26.385,11.1348 26.1708,11.2494 C25.9446,11.3766 25.4418,11.5674 25.0644,11.6814 L24.3858,11.898 L23.7696,11.478 C23.43,11.2494 22.953,10.995 22.701,10.9188 C22.0596,10.7412 21.0786,10.7664 20.5002,10.9698 Z M18,36 C8.0592,36 0,27.9414 0,18 C0,8.0586 8.0592,0 18,0 C27.9408,0 36,8.0586 36,18 C36,27.9414 27.9408,36 18,36 Z" id="Shape"></path>
            </g>
        </g>
    </g>
</svg>