<?xml version="1.0" encoding="UTF-8"?>
<svg width="59px" height="40px" viewBox="0 0 59 40" version="1.1" xmlns="http://www.w3.org/2000/svg" xmlns:xlink="http://www.w3.org/1999/xlink">
    <!-- Generator: Sketch 57.1 (83088) - https://sketch.com -->
    <title>vision-2030-white</title>
    <desc>Created with Sketch.</desc>
    <defs>
        <linearGradient x1="66.2221806%" y1="100%" x2="2.78584824%" y2="25.2041506%" id="linearGradient-1">
            <stop stop-color="#26634B" offset="0%"></stop>
            <stop stop-color="#066058" offset="100%"></stop>
        </linearGradient>
    </defs>
    <g id="Organism" stroke="none" stroke-width="1" fill="none" fill-rule="evenodd">
        <g id="HEADER" transform="translate(-1285.000000, -351.000000)">
            <g id="vision-2030-white" transform="translate(1285.000000, 351.000000)">
                <path d="M19.8555211,25.9806295 C19.5252838,26.1530946 19.2776058,26.2393271 18.9473684,26.4117922 C19.1124871,26.7567223 19.2776058,27.0154199 19.4427245,27.36035 C19.7729618,27.187885 20.1031992,27.0154199 20.3508772,26.8429548 C20.1857585,26.5842573 20.0206399,26.2393271 19.8555211,25.9806295" id="Shape" fill="#FFFFFF" fill-rule="nonzero"></path>
                <path d="M2.50307297,17.073651 L0.143032741,15.2665281 C0.143032741,15.2665281 2.36004022,11.8607967 6.29344061,12.2083203 C6.29344061,12.2083203 9.65471004,12.3473297 10.7274556,14.9885093 C10.7274556,14.9885093 11.8717175,18.5332502 9.22561179,20.826906 C9.22561179,20.826906 4.93462956,24.4411516 3.28975305,25.3447131 L5.29221142,24.5106564 L11.2280702,24.5106564 L11.2280702,27.36035 L0,27.36035 L0,24.6496658 L6.22192424,19.7843352 C7.50921888,18.7417643 8.51044807,16.6566226 6.93708794,15.4055376 C6.50798972,15.058014 6.00737512,14.9190045 5.36372779,15.058014 C4.14794949,15.2665281 3.07520394,16.3786037 2.50307297,17.073651" id="Shape" fill="#FFFFFF" fill-rule="nonzero"></path>
                <path d="M30.9518909,14.8827603 L30.9518909,12.1834247 L41.1163585,12.1834247 L41.1163585,14.6059054 L37.3046832,18.2742334 C37.3046832,18.2742334 40.4810793,18.6203021 41.2575317,21.527279 C42.1045707,24.8495383 39.1399343,27.6180877 35.6106053,27.3412328 C35.6106053,27.3412328 32.5753823,27.4796603 30.1754386,24.7111109 L32.293036,22.7039125 C32.293036,22.7039125 33.8459408,24.7111109 36.1047114,24.4342559 C36.1047114,24.4342559 38.0811356,24.4342559 38.1517222,22.7039125 C38.2928954,20.489073 35.5400187,20.3506455 33.8459408,20.5582867 L33.3518347,18.5510884 L38.2223088,13.7753406 L36.3164711,14.8827603 L30.9518909,14.8827603 L30.9518909,14.8827603 Z" id="Shape" fill="#FFFFFF" fill-rule="nonzero"></path>
                <path d="M50.1754386,12.1834247 C54.6033225,12.1834247 58.245614,15.5711312 58.245614,19.7718873 C58.245614,23.9726435 54.6033225,27.36035 50.1754386,27.36035 C45.7475547,27.36035 42.1052632,23.9726435 42.1052632,19.7718873 C42.1766806,15.5711312 45.7475547,12.1834247 50.1754386,12.1834247" id="Shape-path" fill="#FFFFFF" fill-rule="nonzero"></path>
                <path d="M50.1754386,15.0968523 C52.7464679,15.0968523 54.8175749,17.1972303 54.8175749,19.7718873 C54.8175749,22.3465444 52.7464679,24.4469224 50.1754386,24.4469224 C47.6044093,24.4469224 45.5333023,22.3465444 45.5333023,19.7718873 C45.5333023,17.1972303 47.6758267,15.0968523 50.1754386,15.0968523" id="Shape-path" fill="url(#linearGradient-1)"></path>
                <path d="M21.754386,13.5631452 C22.0175439,13.319665 22.1929825,13.157345 22.4561404,12.9138649 C22.1929825,12.6703849 22.0175439,12.4269048 21.754386,12.1834247 C21.4912281,12.4269048 21.2280702,12.6703849 21.0526316,12.9138649 C21.2280702,13.0761849 21.4912281,13.319665 21.754386,13.5631452" id="Shape" fill="#FFFFFF" fill-rule="nonzero"></path>
                <path d="M21.754386,10.8037042 C22.0095694,10.5737508 22.2009569,10.4012857 22.4561404,10.1713323 C22.2009569,9.94137887 22.0095694,9.65393708 21.754386,9.42398369 C21.4992025,9.65393708 21.2440192,9.88389054 21.0526316,10.1713323 C21.307815,10.4012857 21.4992025,10.5737508 21.754386,10.8037042" id="Shape" fill="#FFFFFF" fill-rule="nonzero"></path>
                <path d="M22.3453371,12.1834247 C22.6408126,11.9764666 22.8624192,11.8384945 23.1578947,11.6315365 C22.9362881,11.3555924 22.7885503,11.0796483 22.5669436,10.8037042 C22.2714681,11.0106622 21.9759926,11.2176203 21.754386,11.4245784 C21.9021237,11.7005225 22.1237304,11.9764666 22.3453371,12.1834247" id="Shape" fill="#FFFFFF" fill-rule="nonzero"></path>
                <path d="M24.0601504,14.9428656 C24.0100251,14.7704006 23.9097745,14.5979355 23.8596491,14.4254705 C24.0100251,14.3679821 24.2105263,14.3104937 24.3609022,14.2530054 C24.4110276,14.4254705 24.5112782,14.5979355 24.5614035,14.8278889 C24.4110276,14.8278889 24.2105263,14.8853773 24.0601504,14.9428656" id="Shape" fill="#FFFFFF" fill-rule="nonzero"></path>
                <path d="M23.4502924,15.6327259 C23.3918128,15.5072967 23.2748538,15.319153 23.1578947,15.1937239 C23.3333333,15.1310094 23.4502924,15.0055802 23.625731,14.9428656 C23.74269,15.1310094 23.8011696,15.2564385 23.8596491,15.4445822 C23.74269,15.5072967 23.5672514,15.5700113 23.4502924,15.6327259" id="Shape" fill="#FFFFFF" fill-rule="nonzero"></path>
                <path d="M23.6532508,14.2530054 C23.4881321,13.9943078 23.3230134,13.6493777 23.1578947,13.3906801 C23.4881321,13.218215 23.7358101,13.04575 24.0660474,12.8732849 C24.2311662,13.218215 24.3962848,13.5631452 24.5614035,13.8218427 C24.2311662,13.9943078 23.9834881,14.1667729 23.6532508,14.2530054" id="Shape" fill="#FFFFFF" fill-rule="nonzero"></path>
                <path d="M22.3684211,14.2530054 C22.1929825,14.1051782 21.9298246,14.0066267 21.754386,13.8587995 C22.0175439,13.7602481 22.2807018,13.6616966 22.5438596,13.5631452 C22.7192982,13.7109723 22.8947368,13.8587995 23.1578947,14.0066267 C22.8947368,14.1051782 22.6315789,14.2037296 22.3684211,14.2530054" id="Shape" fill="#FFFFFF" fill-rule="nonzero"></path>
                <path d="M20.4616805,12.8732849 C20.6832872,12.6554343 20.8310249,12.3649668 21.0526316,12.1471162 C20.7571561,11.9292656 20.5355494,11.711415 20.2400739,11.4935644 C20.0184672,11.7840319 19.8707295,12.0744994 19.6491228,12.3649668 C19.9445983,12.5102006 20.2400739,12.7280512 20.4616805,12.8732849" id="Shape" fill="#FFFFFF" fill-rule="nonzero"></path>
                <path d="M21.754386,26.6704898 C22.0175439,26.9139699 22.1929825,27.0762899 22.4561404,27.31977 C22.1929825,27.5632501 22.0175439,27.8067302 21.754386,28.0502103 C21.4912281,27.8067302 21.2280702,27.5632501 21.0526316,27.31977 C21.2280702,27.0762899 21.4912281,26.8328098 21.754386,26.6704898" id="Shape" fill="#FFFFFF" fill-rule="nonzero"></path>
                <path d="M21.754386,28.7400705 C22.0095694,28.9700239 22.2009569,29.142489 22.4561404,29.3724424 C22.2009569,29.6023958 22.0095694,29.8898376 21.754386,30.119791 C21.4992025,29.8898376 21.2440192,29.6598842 21.0526316,29.3724424 C21.307815,29.142489 21.4992025,28.9125356 21.754386,28.7400705" id="Shape" fill="#FFFFFF" fill-rule="nonzero"></path>
                <path d="M22.3453371,27.36035 C22.6408126,27.5673081 22.8624192,27.7052801 23.1578947,27.9122382 C22.9362881,28.1881823 22.7885503,28.4641264 22.5669436,28.7400705 C22.2714681,28.5331124 21.9759926,28.3261544 21.754386,28.1191963 C21.9021237,27.8432522 22.1237304,27.6362941 22.3453371,27.36035" id="Shape" fill="#FFFFFF" fill-rule="nonzero"></path>
                <path d="M20.4616805,27.36035 C20.6832872,27.5782006 20.8310249,27.8686681 21.0526316,28.0865187 C20.7571561,28.3043693 20.5355494,28.5222199 20.2400739,28.7400705 C20.0184672,28.4496031 19.8707295,28.1591355 19.6491228,27.8686681 C19.9445983,27.7234344 20.2400739,27.5782006 20.4616805,27.36035" id="Shape" fill="#FFFFFF" fill-rule="nonzero"></path>
                <path d="M25.4135338,14.2530054 C25.6140351,14.1999392 25.764411,14.1999392 25.9649123,14.1999392 C25.9649123,13.9876745 25.9147869,13.7754098 25.8646617,13.5631452 C25.6641604,13.6162113 25.4636592,13.6162113 25.2631579,13.6692775 C25.3634085,13.8815422 25.3634085,14.0938069 25.4135338,14.2530054" id="Shape" fill="#FFFFFF" fill-rule="nonzero"></path>
                <path d="M26.8882733,12.8732849 C27.2576178,12.800668 27.6269622,12.7280512 28.0701754,12.7280512 C28.0701754,12.2923499 27.9963065,11.9292656 27.9224377,11.4935644 C27.4792244,11.5661813 27.1098799,11.6387981 26.6666667,11.7840319 C26.7405356,12.0744994 26.8144044,12.5102006 26.8882733,12.8732849" id="Shape" fill="#FFFFFF" fill-rule="nonzero"></path>
                <path d="M26.8538012,14.2530054 L28.0701754,14.2530054 L28.0701754,13.5631452 C27.6023392,13.5631452 27.1345029,13.5631452 26.6666667,13.6124209 C26.7602339,13.8095238 26.8538012,14.0066267 26.8538012,14.2530054" id="Shape" fill="#FFFFFF" fill-rule="nonzero"></path>
                <path d="M26.6666667,16.046642 C26.6666667,15.6787166 26.7206478,15.3107911 26.7206478,14.9428656 C26.9365722,14.9428656 27.1524966,15.034847 27.3684211,15.1268284 C27.3144399,15.4947538 27.3144399,15.8626793 27.2604588,16.3225861 C27.0985155,16.2306048 26.8825911,16.1386234 26.6666667,16.046642" id="Shape" fill="#FFFFFF" fill-rule="nonzero"></path>
                <path d="M25.3269538,15.5177492 C25.3269538,15.3452841 25.2631579,15.1153307 25.2631579,14.9428656 C25.5183413,14.9428656 25.7097288,14.9428656 25.9649123,15.000354 L25.9649123,15.6327259 C25.7097288,15.5177492 25.5183413,15.5177492 25.3269538,15.5177492" id="Shape" fill="#FFFFFF" fill-rule="nonzero"></path>
                <path d="M24.7527911,16.2663081 C24.6889952,16.0738733 24.6251994,15.9455835 24.5614035,15.7531489 C24.7527911,15.689004 24.9441786,15.689004 25.1355662,15.689004 C25.199362,15.8814387 25.199362,16.0738733 25.2631579,16.2663081 C25.1355662,16.2021631 24.9441786,16.2021631 24.7527911,16.2663081" id="Shape" fill="#FFFFFF" fill-rule="nonzero"></path>
                <path d="M24.8916408,13.5631452 C25.2218782,13.4819851 25.5521156,13.4008251 25.9649123,13.319665 C25.8823529,12.9138649 25.7997936,12.5892248 25.6346749,12.1834247 C25.3044375,12.3457447 24.8916408,12.4269048 24.5614035,12.5892248 C24.6439629,12.8327049 24.8090815,13.157345 24.8916408,13.5631452" id="Shape" fill="#FFFFFF" fill-rule="nonzero"></path>
                <path d="M17.4436091,25.2907693 C17.4937343,25.503034 17.4937343,25.6622325 17.5438596,25.8744972 C17.3433584,25.9275634 17.1428571,25.9806295 16.9423559,25.9806295 C16.8922306,25.7683649 16.8922306,25.5561002 16.8421053,25.3438355 C17.0927319,25.3438355 17.2431078,25.3438355 17.4436091,25.2907693" id="Shape" fill="#FFFFFF" fill-rule="nonzero"></path>
                <path d="M17.4800638,24.0260255 C17.4800638,24.1984906 17.5438596,24.428444 17.5438596,24.6009091 C17.2886762,24.6009091 17.0972887,24.6009091 16.8421053,24.5434207 L16.8421053,23.9110488 C17.0334928,23.9685371 17.2886762,23.9685371 17.4800638,24.0260255" id="Shape" fill="#FFFFFF" fill-rule="nonzero"></path>
                <path d="M16.6204986,26.6704898 C16.6943675,27.0335741 16.7682364,27.3966585 16.8421053,27.7597428 C16.398892,27.9049765 16.0295476,27.9775934 15.5863342,28.0502103 C15.5124654,27.6145091 15.5124654,27.2514248 15.4385965,26.8157235 C15.8079409,26.8157235 16.2511542,26.7431067 16.6204986,26.6704898" id="Shape" fill="#FFFFFF" fill-rule="nonzero"></path>
                <path d="M18.5345717,26.6704898 C18.6171311,26.9770943 18.7822498,27.2836989 18.9473684,27.6669545 C18.6171311,27.8202569 18.2043344,27.896908 17.874097,28.0502103 C17.7915377,27.6669545 17.626419,27.36035 17.5438596,26.9770943 C17.874097,26.9004432 18.2043344,26.823792 18.5345717,26.6704898" id="Shape" fill="#FFFFFF" fill-rule="nonzero"></path>
                <path d="M21.0994152,25.2907693 C20.8187135,25.3893207 20.5380117,25.4385965 20.3508772,25.537148 C20.5380117,25.6849752 20.7251462,25.8328024 20.9122807,25.9806295 C21.1929825,25.8820781 21.4736842,25.7835266 21.754386,25.6849752 C21.5672514,25.537148 21.2865497,25.3893207 21.0994152,25.2907693" id="Shape" fill="#FFFFFF" fill-rule="nonzero"></path>
                <path d="M20.0809716,24.6009091 C19.9190284,24.6636236 19.8110661,24.7263382 19.6491228,24.7890528 C19.7031039,24.9771964 19.8110661,25.1026256 19.9190284,25.2907693 C20.0809716,25.2280547 20.2429149,25.1026256 20.3508772,25.039911 C20.2429149,24.8517673 20.1889339,24.7263382 20.0809716,24.6009091" id="Shape" fill="#FFFFFF" fill-rule="nonzero"></path>
                <path d="M18.7134503,24.6009091 C18.5730994,24.6583974 18.3859649,24.7158858 18.245614,24.7158858 C18.2923977,24.8883508 18.3859649,25.1183042 18.4327486,25.2907693 C18.619883,25.233281 18.7602339,25.1757926 18.9473684,25.0608159 C18.8538012,24.9458392 18.8070175,24.7733741 18.7134503,24.6009091" id="Shape" fill="#FFFFFF" fill-rule="nonzero"></path>
                <path d="M18.7559808,23.9673269 L18.245614,23.9673269 C18.245614,24.1597616 18.3094099,24.3521963 18.3732058,24.544631 C18.5645933,24.544631 18.7559808,24.480486 18.9473684,24.480486 C18.8835726,24.2880514 18.8197767,24.1597616 18.7559808,23.9673269" id="Shape" fill="#FFFFFF" fill-rule="nonzero"></path>
                <path d="M16.0935672,25.2907693 C16.0935672,25.4878722 16.0935672,25.7342509 16.1403509,25.9313538 C15.9064328,25.9806295 15.6725146,25.9806295 15.4385965,25.9806295 L15.4385965,25.2907693 C15.6725146,25.2907693 15.8596491,25.2907693 16.0935672,25.2907693" id="Shape" fill="#FFFFFF" fill-rule="nonzero"></path>
                <path d="M28.0701754,17.8747717 C28.3333333,18.0472367 28.6842105,18.2197018 28.9473684,18.3921669 C29.122807,18.0472367 29.2982456,17.7885391 29.4736842,17.443609 C29.122807,17.271144 28.8596491,17.0986789 28.5087719,17.0124464 C28.3333333,17.3573765 28.1578947,17.6160741 28.0701754,17.8747717" id="Shape" fill="#FFFFFF" fill-rule="nonzero"></path>
                <path d="M24.6187822,16.8870172 C24.8144479,16.9497318 24.9448916,16.9497318 25.1405573,17.0124464 C25.1405573,16.8243026 25.2057792,16.636159 25.2057792,16.4480153 C25.0101135,16.3853007 24.8144479,16.3853007 24.6187822,16.3225861 L24.6187822,16.8870172" id="Shape" fill="#FFFFFF" fill-rule="nonzero"></path>
                <path d="M26.6666667,17.4900419 C26.82861,17.5431081 26.9905533,17.6492404 27.2064778,17.7023066 C27.2604588,17.5431081 27.3144399,17.3308434 27.3684211,17.1716449 C27.1524966,17.1185787 26.9905533,17.0655126 26.7746289,17.0124464 C26.7206478,17.1716449 26.7206478,17.3308434 26.6666667,17.4900419" id="Shape" fill="#FFFFFF" fill-rule="nonzero"></path>
                <path d="M29.4736842,17.2633047 C29.7787948,17.3887337 30.0228833,17.5768775 30.3279939,17.7023066 C30.5110603,17.3887337 30.6941266,17.0751609 30.877193,16.7615881 C30.5720824,16.636159 30.2669718,16.4480153 29.9008391,16.3225861 C29.7787948,16.636159 29.5957284,16.9497318 29.4736842,17.2633047" id="Shape" fill="#FFFFFF" fill-rule="nonzero"></path>
                <path d="M28.7719298,18.5010921 C29.0526316,18.7189428 29.2631579,18.8641765 29.5438596,19.0820271 C29.754386,18.7915597 29.9649123,18.573709 30.1754386,18.2832416 C29.8947368,18.065391 29.6140351,17.9201572 29.3333333,17.7023066 C29.122807,17.9927741 28.9122807,18.2832416 28.7719298,18.5010921" id="Shape" fill="#FFFFFF" fill-rule="nonzero"></path>
                <path d="M28.0701754,16.6291906 C28.4004128,16.7058418 28.7306502,16.8591441 29.0608875,17.0124464 C29.2260062,16.7058418 29.3911248,16.3225861 29.4736842,15.9393304 C29.1434469,15.8626793 28.7306502,15.709377 28.3178535,15.6327259 C28.2352941,16.0159816 28.1527348,16.3225861 28.0701754,16.6291906" id="Shape" fill="#FFFFFF" fill-rule="nonzero"></path>
                <path d="M15.4385965,21.669003 C15.2631579,21.9277006 15.1754386,22.2726307 15,22.5313283 C14.6491228,22.3588633 14.3859649,22.2726307 14.0350877,22.1001657 C14.2105263,21.7552355 14.3859649,21.496538 14.5614035,21.1516078 C14.8245614,21.4103054 15.1754386,21.5827705 15.4385965,21.669003" id="Shape" fill="#FFFFFF" fill-rule="nonzero"></path>
                <path d="M16.8421053,19.4269572 C16.7145135,19.5255087 16.5869218,19.6240602 16.523126,19.7718873 C16.3955343,19.6733359 16.2679426,19.5747844 16.1403509,19.4269572 C16.2679426,19.3284058 16.3955343,19.1805785 16.523126,19.0820271 C16.5869218,19.1805785 16.7145135,19.3284058 16.8421053,19.4269572" id="Shape" fill="#FFFFFF" fill-rule="nonzero"></path>
                <path d="M15.4385965,21.0653753 C15.3306342,21.3240729 15.2226721,21.5827705 15.1686909,21.8414681 C15.0067476,21.669003 14.8448044,21.496538 14.7368421,21.2378404 C14.8448044,20.9791428 14.9527665,20.7204452 15.1147098,20.4617476 C15.1686909,20.7204452 15.2766532,20.8929102 15.4385965,21.0653753" id="Shape" fill="#FFFFFF" fill-rule="nonzero"></path>
                <path d="M13.3333333,22.3431846 C13.2112891,22.6567575 13.0282227,22.9076157 12.9061785,23.2211886 C12.6010679,23.0957594 12.2349352,22.9703303 11.9298246,22.7821866 C12.1128909,22.4686137 12.2959573,22.1550409 12.4790236,21.8414681 C12.7841342,22.0296118 13.0282227,22.1550409 13.3333333,22.3431846" id="Shape" fill="#FFFFFF" fill-rule="nonzero"></path>
                <path d="M14.7368421,23.6044443 C14.6588694,23.9110488 14.502924,24.2943045 14.4249513,24.6009091 C14.0350877,24.5242579 13.7231969,24.4476068 13.3333333,24.2943045 C13.4892787,23.9110488 13.5672514,23.6044443 13.7231969,23.2211886 C14.1130604,23.3744908 14.4249513,23.451142 14.7368421,23.6044443" id="Shape" fill="#FFFFFF" fill-rule="nonzero"></path>
                <path d="M17.4864809,22.6567575 C17.2908153,22.5940429 17.1603715,22.5940429 16.9647059,22.5313283 C16.9647059,22.719472 16.899484,22.9076157 16.899484,23.0957594 C17.0951496,23.158474 17.2908153,23.158474 17.4864809,23.2211886 C17.421259,23.0330448 17.421259,22.8449012 17.4864809,22.6567575" id="Shape" fill="#FFFFFF" fill-rule="nonzero"></path>
                <path d="M16.1403509,23.3690157 C15.9244265,23.31974 15.708502,23.2704643 15.5465587,23.2211886 C15.4925776,23.4182915 15.4925776,23.6153944 15.4385965,23.8124974 C15.6545209,23.8617731 15.8704453,23.8617731 16.1403509,23.9110488 C16.0863698,23.7139459 16.1403509,23.5168429 16.1403509,23.3690157" id="Shape" fill="#FFFFFF" fill-rule="nonzero"></path>
                <path d="M16.1403509,22.0537328 C15.9784076,22.0006666 15.7624832,21.8945343 15.6005398,21.8414681 C15.5465587,22.0006666 15.4925776,22.2129313 15.4385965,22.3721298 C15.6545209,22.4251959 15.8164642,22.4782621 16.0323886,22.5313283 C16.0323886,22.4251959 16.0863698,22.2129313 16.1403509,22.0537328" id="Shape" fill="#FFFFFF" fill-rule="nonzero"></path>
                <path d="M16.8421053,21.4169387 C16.7145135,21.3108063 16.523126,21.2577402 16.3955343,21.1516078 C16.3317385,21.3108063 16.2041467,21.4169387 16.1403509,21.5761372 C16.3317385,21.6822696 16.4593302,21.7353357 16.6507177,21.8414681 C16.7145135,21.7353357 16.7783094,21.5761372 16.8421053,21.4169387" id="Shape" fill="#FFFFFF" fill-rule="nonzero"></path>
                <path d="M14.0350877,21.0426826 C13.88735,21.33315 13.6657433,21.5510006 13.5180055,21.8414681 C13.22253,21.6962344 12.9270545,21.4783837 12.6315789,21.2605331 C12.8531856,20.9700657 13.0747922,20.6795982 13.2963989,20.4617476 C13.4441366,20.6795982 13.7396122,20.8248319 14.0350877,21.0426826" id="Shape" fill="#FFFFFF" fill-rule="nonzero"></path>
                <path d="M28.0701754,21.669003 C28.245614,21.9277006 28.3333333,22.2726307 28.5087719,22.5313283 C28.8596491,22.3588633 29.122807,22.2726307 29.4736842,22.1001657 C29.2982456,21.7552355 29.122807,21.496538 28.9473684,21.1516078 C28.5964912,21.4103054 28.3333333,21.496538 28.0701754,21.669003" id="Shape" fill="#FFFFFF" fill-rule="nonzero"></path>
                <path d="M27.3684211,19.1682596 C27.4763833,19.3407247 27.6383266,19.5131898 27.7462888,19.7718873 C27.854251,19.5131898 27.9622132,19.2544922 28.0701754,18.9957946 C27.9082321,18.8233295 27.8002699,18.6508644 27.6383266,18.3921669 C27.5843455,18.6508644 27.4763833,18.909562 27.3684211,19.1682596" id="Shape" fill="#FFFFFF" fill-rule="nonzero"></path>
                <path d="M26.6666667,19.4269572 C26.7942584,19.5255087 26.9218501,19.6240602 26.985646,19.7718873 C27.1132376,19.6733359 27.2408293,19.5747844 27.3684211,19.4269572 C27.2408293,19.3284058 27.1132376,19.2298543 26.985646,19.0820271 C26.9218501,19.1805785 26.7942584,19.3284058 26.6666667,19.4269572" id="Shape" fill="#FFFFFF" fill-rule="nonzero"></path>
                <path d="M28.0701754,19.7718873 C28.3178535,20.0018407 28.4829721,20.2317942 28.7306502,20.4617476 C28.9783281,20.2317942 29.2260062,20.0018407 29.4736842,19.7718873 C29.2260062,19.541934 28.9783281,19.3119805 28.7306502,19.0820271 C28.5655315,19.3119805 28.3178535,19.541934 28.0701754,19.7718873" id="Shape" fill="#FFFFFF" fill-rule="nonzero"></path>
                <path d="M27.3684211,21.0653753 C27.4763833,21.3240729 27.5843455,21.5827705 27.6383266,21.8414681 C27.8002699,21.669003 27.9622132,21.496538 28.0701754,21.2378404 C27.9622132,20.9791428 27.854251,20.7204452 27.6923077,20.4617476 C27.6383266,20.7204452 27.4763833,20.8929102 27.3684211,21.0653753" id="Shape" fill="#FFFFFF" fill-rule="nonzero"></path>
                <path d="M29.4736842,22.3431846 C29.5957284,22.6567575 29.7787948,22.9076157 29.9008391,23.2211886 C30.2059497,23.0957594 30.5720824,22.9703303 30.877193,22.7821866 C30.6941266,22.4686137 30.5110603,22.1550409 30.3279939,21.8414681 C30.0228833,22.0296118 29.7787948,22.2177555 29.4736842,22.3431846" id="Shape" fill="#FFFFFF" fill-rule="nonzero"></path>
                <path d="M25.9896801,18.1622135 C26.1201239,18.2197018 26.3157895,18.3346785 26.4462332,18.3921669 C26.5114551,18.2197018 26.576677,18.0472367 26.6418989,17.93226 C26.4462332,17.8747717 26.3157895,17.7597949 26.1201239,17.7023066 C26.1201239,17.8172833 26.054902,17.9897484 25.9896801,18.1622135" id="Shape" fill="#FFFFFF" fill-rule="nonzero"></path>
                <path d="M28.7719298,22.914584 C28.8499025,23.2211886 29.0058479,23.5277931 29.0838206,23.9110488 C29.4736842,23.8343977 29.785575,23.7577465 30.1754386,23.6044443 C30.0194932,23.2211886 29.9415205,22.914584 29.785575,22.5313283 C29.3957115,22.6846306 29.0838206,22.8379328 28.7719298,22.914584" id="Shape" fill="#FFFFFF" fill-rule="nonzero"></path>
                <path d="M28.7719298,21.0426826 C28.9935365,21.33315 29.1412742,21.5510006 29.289012,21.8414681 C29.5844875,21.6962344 29.8799631,21.4783837 30.1754386,21.2605331 C29.9538319,20.9700657 29.7322253,20.752215 29.5106187,20.4617476 C29.289012,20.6795982 29.0674053,20.8974488 28.7719298,21.0426826" id="Shape" fill="#FFFFFF" fill-rule="nonzero"></path>
                <path d="M15.4385965,17.8747717 C15.1754386,18.0472367 14.8245614,18.2197018 14.5614035,18.3921669 C14.3859649,18.1334693 14.2105263,17.7885391 14.0350877,17.443609 C14.3859649,17.271144 14.6491228,17.0986789 15,17.0124464 C15.1754386,17.271144 15.3508772,17.5298416 15.4385965,17.8747717" id="Shape" fill="#FFFFFF" fill-rule="nonzero"></path>
                <path d="M13.3333333,17.2005901 C13.0282227,17.3260192 12.7841342,17.5141629 12.4790236,17.7023066 C12.2959573,17.3887337 12.1128909,17.0751609 11.9298246,16.7615881 C12.2349352,16.5734444 12.5400458,16.4480153 12.9061785,16.3225861 C13.0282227,16.636159 13.2112891,16.9497318 13.3333333,17.2005901" id="Shape" fill="#FFFFFF" fill-rule="nonzero"></path>
                <path d="M14.0350877,18.5010921 C13.754386,18.7189428 13.5438596,18.8641765 13.2631579,19.0820271 C13.0526316,18.7915597 12.8421053,18.573709 12.6315789,18.2832416 C12.9122807,18.065391 13.1929825,17.8475403 13.4736842,17.7023066 C13.6842105,17.9201572 13.8245614,18.2106247 14.0350877,18.5010921" id="Shape" fill="#FFFFFF" fill-rule="nonzero"></path>
                <path d="M15.4385965,19.7718873 C15.1909185,19.541934 15.0257998,19.3119805 14.7781218,19.0820271 C14.5304438,19.3119805 14.2827658,19.541934 14.0350877,19.7718873 C14.2827658,20.0018407 14.5304438,20.2317942 14.7781218,20.4617476 C15.0257998,20.2317942 15.1909185,20.0018407 15.4385965,19.7718873" id="Shape" fill="#FFFFFF" fill-rule="nonzero"></path>
                <path d="M15.4385965,19.1682596 C15.3306342,18.909562 15.2226721,18.6508644 15.1686909,18.3921669 C15.0067476,18.5646319 14.8448044,18.737097 14.7368421,18.9957946 C14.8448044,19.2544922 14.9527665,19.5131898 15.1147098,19.7718873 C15.2226721,19.5994223 15.3306342,19.4269572 15.4385965,19.1682596" id="Shape" fill="#FFFFFF" fill-rule="nonzero"></path>
                <path d="M14.7368421,16.6291906 C14.4066048,16.7058418 14.0763674,16.8591441 13.74613,17.0124464 C13.5810114,16.7058418 13.4158927,16.3225861 13.3333333,15.9393304 C13.6635707,15.8626793 14.0763674,15.709377 14.4891641,15.6327259 C14.5717234,15.9393304 14.6542827,16.3225861 14.7368421,16.6291906" id="Shape" fill="#FFFFFF" fill-rule="nonzero"></path>
                <path d="M25.3711201,25.2907693 C25.317139,25.503034 25.317139,25.6622325 25.2631579,25.8744972 C25.4790823,25.9275634 25.6950067,25.9806295 25.9109312,25.9806295 C25.9649123,25.7683649 25.9649123,25.5561002 25.9649123,25.3438355 C25.802969,25.3438355 25.5870446,25.3438355 25.3711201,25.2907693" id="Shape" fill="#FFFFFF" fill-rule="nonzero"></path>
                <path d="M26.6666667,22.0537328 C26.7251462,22.2129313 26.7251462,22.3721298 26.7836258,22.5313283 C26.9590644,22.4782621 27.1929825,22.4251959 27.3684211,22.3721298 C27.3099415,22.2129313 27.251462,22.0006666 27.1929825,21.8414681 C27.0175439,21.8945343 26.8421053,21.9476005 26.6666667,22.0537328" id="Shape" fill="#FFFFFF" fill-rule="nonzero"></path>
                <path d="M25.3205366,22.719472 L25.3205366,23.2211886 C25.5162022,23.158474 25.7118679,23.158474 25.9075335,23.0957594 C25.9075335,22.9076157 25.8423116,22.719472 25.8423116,22.5313283 C25.7118679,22.6567575 25.5162022,22.6567575 25.3205366,22.719472" id="Shape" fill="#FFFFFF" fill-rule="nonzero"></path>
                <path d="M26.6666667,23.4971327 C26.6666667,23.8650581 26.7206478,24.2329836 26.7206478,24.6009091 C26.9365722,24.5089277 27.1524966,24.5089277 27.3684211,24.4169463 C27.3144399,24.0490209 27.3144399,23.6810954 27.2604588,23.2211886 C27.0445344,23.3131699 26.8825911,23.4051513 26.6666667,23.4971327" id="Shape" fill="#FFFFFF" fill-rule="nonzero"></path>
                <path d="M25.3269538,24.0260255 C25.3269538,24.1984906 25.3269538,24.428444 25.2631579,24.6009091 C25.5183413,24.6009091 25.7097288,24.6009091 25.9649123,24.5434207 L25.9649123,23.9110488 C25.7735247,23.9685371 25.5821372,24.0260255 25.3269538,24.0260255" id="Shape" fill="#FFFFFF" fill-rule="nonzero"></path>
                <path d="M26.8882733,26.6704898 C26.8144044,27.0335741 26.7405356,27.3966585 26.6666667,27.7597428 C27.1098799,27.8323596 27.4792244,27.9775934 27.9224377,28.0502103 C27.9963065,27.6145091 27.9963065,27.2514248 28.0701754,26.8157235 C27.6269622,26.7431067 27.2576178,26.7431067 26.8882733,26.6704898" id="Shape" fill="#FFFFFF" fill-rule="nonzero"></path>
                <path d="M25.9649123,21.4169387 C26.0287081,21.5761372 26.092504,21.6822696 26.1562999,21.8414681 C26.3476874,21.7884019 26.4752791,21.6822696 26.6666667,21.5761372 C26.6028708,21.4169387 26.4752791,21.3108063 26.4114832,21.1516078 C26.2838916,21.2577402 26.092504,21.3638725 25.9649123,21.4169387" id="Shape" fill="#FFFFFF" fill-rule="nonzero"></path>
                <path d="M24.8916408,26.6704898 C24.8090815,26.9770943 24.6439629,27.2836989 24.5614035,27.6669545 C24.8916408,27.8202569 25.3044375,27.896908 25.6346749,28.0502103 C25.7172342,27.6669545 25.8823529,27.36035 25.9649123,26.9770943 C25.5521156,26.823792 25.2218782,26.7471409 24.8916408,26.6704898" id="Shape" fill="#FFFFFF" fill-rule="nonzero"></path>
                <path d="M22.0818714,25.2907693 C22.2222222,25.3893207 22.3625731,25.4385965 22.4561404,25.537148 C22.3625731,25.6849752 22.2690058,25.8328024 22.1754386,25.9806295 C22.0350877,25.8820781 21.8947368,25.7835266 21.754386,25.6849752 C21.8947368,25.537148 21.9883041,25.3893207 22.0818714,25.2907693" id="Shape" fill="#FFFFFF" fill-rule="nonzero"></path>
                <path d="M22.6900585,24.6009091 C22.8654971,24.6636236 22.9824561,24.7263382 23.1578947,24.7890528 C23.0994152,24.9771964 22.9824561,25.1026256 22.9239766,25.2907693 C22.748538,25.2280547 22.5730994,25.1653401 22.4561404,25.039911 C22.5146199,24.9144819 22.6315789,24.7890528 22.6900585,24.6009091" id="Shape" fill="#FFFFFF" fill-rule="nonzero"></path>
                <path d="M23.6532508,25.9806295 C23.9834881,26.0726109 24.2311662,26.1186016 24.5614035,26.1645923 C24.3962848,26.348555 24.2311662,26.5325177 24.0660474,26.6704898 C23.7358101,26.5785084 23.4055728,26.486527 23.1578947,26.3945457 C23.3230134,26.2565736 23.4881321,26.1186016 23.6532508,25.9806295" id="Shape" fill="#FFFFFF" fill-rule="nonzero"></path>
                <path d="M24.0935672,24.6009091 C24.2339181,24.6583974 24.4210526,24.7158858 24.5614035,24.7158858 C24.5146199,24.8883508 24.4678363,25.1183042 24.374269,25.2907693 C24.1871345,25.233281 24.0467836,25.1757926 23.8596491,25.1183042 C23.9532164,24.9458392 24.0467836,24.7733741 24.0935672,24.6009091" id="Shape" fill="#FFFFFF" fill-rule="nonzero"></path>
                <path d="M21.3765182,24.6009091 C21.4844804,24.7263382 21.5924427,24.8517673 21.754386,24.9144819 C21.6464237,25.039911 21.5384615,25.1653401 21.3765182,25.2907693 C21.268556,25.1653401 21.1605938,25.039911 21.0526316,24.9144819 C21.1605938,24.8517673 21.268556,24.7263382 21.3765182,24.6009091" id="Shape" fill="#FFFFFF" fill-rule="nonzero"></path>
                <path d="M24.7527911,23.9673269 L25.2631579,23.9673269 C25.2631579,24.1597616 25.199362,24.3521963 25.1355662,24.544631 C24.9441786,24.544631 24.7527911,24.480486 24.5614035,24.480486 C24.6251994,24.3521963 24.6889952,24.1597616 24.7527911,23.9673269" id="Shape" fill="#FFFFFF" fill-rule="nonzero"></path>
                <path d="M26.7134503,25.2907693 C26.7134503,25.4878722 26.7134503,25.7342509 26.6666667,25.9313538 C26.9005848,25.9313538 27.1345029,25.9806295 27.3684211,25.9806295 C27.3684211,25.7342509 27.3684211,25.537148 27.3216374,25.2907693 C27.1345029,25.2907693 26.9005848,25.2907693 26.7134503,25.2907693" id="Shape" fill="#FFFFFF" fill-rule="nonzero"></path>
                <path d="M17.4358974,14.2530054 C17.219973,14.1999392 17.0580297,14.1999392 16.8421053,14.1999392 C16.8421053,13.9876745 16.8960864,13.7754098 16.8960864,13.5631452 C17.1120108,13.6162113 17.3279352,13.6162113 17.5438596,13.6692775 C17.5438596,13.8815422 17.4898785,14.0407407 17.4358974,14.2530054" id="Shape" fill="#FFFFFF" fill-rule="nonzero"></path>
                <path d="M20.7251462,14.2530054 C20.5847953,14.154454 20.4444444,14.1051782 20.3508772,14.0066267 C20.4444444,13.8587995 20.5380117,13.7109723 20.6315789,13.5631452 C20.7719298,13.6616966 20.9122807,13.7602481 21.0526316,13.8587995 C20.9590644,13.957351 20.8187135,14.1051782 20.7251462,14.2530054" id="Shape" fill="#FFFFFF" fill-rule="nonzero"></path>
                <path d="M20.1169591,14.9428656 C19.9415205,14.8801511 19.8245614,14.8174365 19.6491228,14.7547219 C19.7076023,14.5665783 19.8245614,14.4411491 19.8830409,14.2530054 C20.0584795,14.31572 20.2339181,14.3784345 20.3508772,14.5038637 C20.2923977,14.6292928 20.2339181,14.8174365 20.1169591,14.9428656" id="Shape" fill="#FFFFFF" fill-rule="nonzero"></path>
                <path d="M19.8555211,13.5631452 C19.5252838,13.4711638 19.2776058,13.4251731 18.9473684,13.3791824 C19.1124871,13.1952197 19.2776058,13.011257 19.4427245,12.8732849 C19.7729618,12.9652663 20.1031992,13.0572477 20.3508772,13.149229 C20.1031992,13.2412103 19.9380805,13.3791824 19.8555211,13.5631452" id="Shape" fill="#FFFFFF" fill-rule="nonzero"></path>
                <path d="M18.7134503,14.9428656 C18.5730994,14.8853773 18.3859649,14.8278889 18.245614,14.8278889 C18.2923977,14.6554238 18.3391813,14.4254705 18.4327486,14.2530054 C18.619883,14.3104937 18.7602339,14.3679821 18.9473684,14.4254705 C18.8070175,14.5979355 18.7602339,14.7704006 18.7134503,14.9428656" id="Shape" fill="#FFFFFF" fill-rule="nonzero"></path>
                <path d="M16.6204986,12.8732849 C16.2511542,12.800668 15.8818098,12.800668 15.4385965,12.7280512 C15.4385965,12.2923499 15.5124654,11.9292656 15.5863342,11.4935644 C16.0295476,11.5661813 16.398892,11.6387981 16.8421053,11.7840319 C16.6943675,12.0744994 16.6204986,12.4375837 16.6204986,12.8732849" id="Shape" fill="#FFFFFF" fill-rule="nonzero"></path>
                <path d="M21.4304993,14.9428656 C21.3225371,14.8174365 21.2145749,14.6920073 21.0526316,14.6292928 C21.1605938,14.5038637 21.268556,14.3784345 21.4304993,14.2530054 C21.5384615,14.3784345 21.6464237,14.5038637 21.754386,14.6292928 C21.7004048,14.7547219 21.5924427,14.8174365 21.4304993,14.9428656" id="Shape" fill="#FFFFFF" fill-rule="nonzero"></path>
                <path d="M16.0935672,14.2530054 L15.4853801,14.2530054 C15.4853801,14.0066267 15.4385965,13.8095238 15.4385965,13.5631452 C15.6725146,13.5631452 15.9064328,13.5631452 16.1403509,13.6124209 C16.0935672,13.8587995 16.0935672,14.0559025 16.0935672,14.2530054" id="Shape" fill="#FFFFFF" fill-rule="nonzero"></path>
                <path d="M16.1403509,17.4900419 C16.0818714,17.3308434 16.0818714,17.1716449 16.0233918,17.0124464 C15.8479532,17.0655126 15.6140351,17.1185787 15.4385965,17.1716449 C15.497076,17.3308434 15.5555556,17.5431081 15.6140351,17.7023066 C15.7894737,17.5961742 15.9649123,17.5431081 16.1403509,17.4900419" id="Shape" fill="#FFFFFF" fill-rule="nonzero"></path>
                <path d="M17.4864809,16.8243026 L17.4864809,16.3225861 C17.2908153,16.3853007 17.0951496,16.3853007 16.899484,16.4480153 C16.899484,16.636159 16.9647059,16.8243026 16.9647059,17.0124464 C17.1603715,16.9497318 17.3560371,16.8870172 17.4864809,16.8243026" id="Shape" fill="#FFFFFF" fill-rule="nonzero"></path>
                <path d="M16.1403509,16.1846141 C16.1403509,16.0006513 16.0863698,15.8166886 16.0863698,15.6327259 C15.8704453,15.6787166 15.6545209,15.6787166 15.4385965,15.7247072 C15.4925776,15.90867 15.4925776,16.0926327 15.5465587,16.3225861 C15.708502,16.2765954 15.9244265,16.2306048 16.1403509,16.1846141" id="Shape" fill="#FFFFFF" fill-rule="nonzero"></path>
                <path d="M17.4800638,15.5177492 C17.4800638,15.3452841 17.4800638,15.1153307 17.5438596,14.9428656 C17.2886762,14.9428656 17.0972887,14.9428656 16.8421053,15.000354 L16.8421053,15.6327259 C17.0972887,15.5752376 17.2886762,15.5752376 17.4800638,15.5177492" id="Shape" fill="#FFFFFF" fill-rule="nonzero"></path>
                <path d="M16.8421053,18.126836 C16.7783094,17.9676375 16.7145135,17.8615051 16.6507177,17.7023066 C16.4593302,17.7553728 16.3317385,17.8615051 16.1403509,17.9676375 C16.2041467,18.126836 16.3317385,18.2329684 16.3955343,18.3921669 C16.523126,18.2860345 16.6507177,18.2329684 16.8421053,18.126836" id="Shape" fill="#FFFFFF" fill-rule="nonzero"></path>
                <path d="M18.8197767,16.2663081 C18.8835726,16.0738733 18.9473684,15.9455835 18.9473684,15.7531489 C18.7559808,15.7531489 18.5645933,15.689004 18.3732058,15.689004 C18.3094099,15.8814387 18.3094099,16.0738733 18.245614,16.2663081 C18.4370016,16.2663081 18.6283891,16.2663081 18.8197767,16.2663081" id="Shape" fill="#FFFFFF" fill-rule="nonzero"></path>
                <path d="M18.6171311,13.5631452 C18.2868937,13.4819851 17.9566564,13.4008251 17.5438596,13.319665 C17.626419,12.9138649 17.7089783,12.5892248 17.874097,12.1834247 C18.2043344,12.2645847 18.6171311,12.4269048 18.9473684,12.5892248 C18.8648091,12.9138649 18.6996904,13.2385051 18.6171311,13.5631452" id="Shape" fill="#FFFFFF" fill-rule="nonzero"></path>
                <path d="M0,39.6310556 L0,36.475312 L0.417994138,36.475312 L0.417994138,38.0898785 L1.95063931,36.475312 L2.50796482,36.475312 L1.11465103,37.796321 L2.43829914,39.704445 L1.88097362,39.704445 L0.835988277,38.0898785 L0.348328449,38.6036042 L0.348328449,39.704445 L0,39.704445 L0,39.6310556 Z M54.6875664,39.6310556 L55.8718831,36.475312 L56.2898772,36.475312 L57.5438596,39.6310556 L57.0561998,39.6310556 L56.7078714,38.6769936 L55.453889,38.6769936 L55.1055605,39.6310556 L54.6875664,39.6310556 Z M55.5235546,38.383436 L56.56854,38.383436 L56.2202115,37.5027634 C56.1505459,37.2092058 56.0808802,36.9890377 56.0112144,36.8422589 C55.9415488,37.0624271 55.9415488,37.2825952 55.8718831,37.429374 L55.5235546,38.383436 Z M53.9212438,36.475312 L54.3392379,36.475312 L54.3392379,39.6310556 L53.9212438,39.6310556 L53.9212438,36.475312 Z M50.9952848,39.6310556 L50.9952848,36.475312 L52.1099359,36.475312 C52.3189329,36.475312 52.52793,36.475312 52.6672614,36.5487013 C52.8065927,36.6220907 52.9459241,36.6954801 53.0155898,36.8422589 C53.0852555,36.9890377 53.1549212,37.1358165 53.1549212,37.2825952 C53.1549212,37.429374 53.1549212,37.5761528 53.0155898,37.6495422 C52.9459241,37.796321 52.8065927,37.8697104 52.6672614,37.9430997 C52.8762585,38.0164891 53.0155898,38.0898785 53.0852555,38.2366572 C53.1549212,38.383436 53.2245869,38.5302149 53.2245869,38.750383 C53.2245869,38.8971618 53.2245869,39.0439405 53.1549212,39.1907193 C53.0852555,39.3374981 53.0155898,39.4108875 52.9459241,39.4842769 C52.8762585,39.5576663 52.7369271,39.6310556 52.5975957,39.6310556 C52.4582643,39.6310556 52.3189329,39.704445 52.1099359,39.704445 L50.9952848,39.704445 L50.9952848,39.6310556 Z M51.413279,37.796321 L52.0402701,37.796321 C52.2492672,37.796321 52.3189329,37.796321 52.3885986,37.7229316 C52.4582643,37.7229316 52.5975957,37.6495422 52.5975957,37.5761528 C52.6672614,37.5027634 52.6672614,37.429374 52.6672614,37.2825952 C52.6672614,37.2092058 52.6672614,37.0624271 52.5975957,36.9890377 C52.52793,36.9156483 52.4582643,36.8422589 52.3885986,36.8422589 C52.3189329,36.8422589 52.1796016,36.7688695 51.9009388,36.7688695 L51.2739476,36.7688695 L51.2739476,37.796321 L51.413279,37.796321 Z M51.413279,39.2641087 L52.1796016,39.2641087 L52.4582643,39.2641087 C52.52793,39.2641087 52.5975957,39.1907193 52.6672614,39.1907193 C52.7369271,39.1173299 52.8065927,39.1173299 52.8065927,39.0439405 C52.8762585,38.9705511 52.8762585,38.8971618 52.8762585,38.750383 C52.8762585,38.6036042 52.8762585,38.5302149 52.8065927,38.4568255 C52.7369271,38.383436 52.6672614,38.3100466 52.5975957,38.2366572 C52.52793,38.2366572 52.3189329,38.1632679 52.1796016,38.1632679 L51.4829446,38.1632679 L51.4829446,39.2641087 L51.413279,39.2641087 Z M47.8603288,39.6310556 L49.0446455,36.475312 L49.4626397,36.475312 L50.7166221,39.6310556 L50.2289622,39.6310556 L49.8806338,38.6769936 L48.6266514,38.6769936 L48.2783229,39.6310556 L47.8603288,39.6310556 Z M48.6963171,38.383436 L49.7413024,38.383436 L49.392974,37.5027634 C49.3233082,37.2092058 49.2536426,36.9890377 49.1839769,36.8422589 C49.1143112,37.0624271 49.1143112,37.2825952 49.0446455,37.429374 L48.6963171,38.383436 Z M45.1433669,39.6310556 L45.1433669,36.475312 L46.467015,36.475312 C46.7456778,36.475312 46.9546749,36.475312 47.0940062,36.5487013 C47.2333376,36.6220907 47.3726689,36.6954801 47.4423347,36.8422589 C47.5120003,36.9890377 47.581666,37.1358165 47.581666,37.3559846 C47.581666,37.5761528 47.5120003,37.796321 47.3726689,37.9430997 C47.2333376,38.0898785 47.0243405,38.1632679 46.7456778,38.2366572 C46.8850091,38.3100466 46.9546749,38.3100466 46.9546749,38.383436 C47.0940062,38.5302149 47.1636719,38.6036042 47.3030033,38.8237724 L47.8603288,39.704445 L47.3726689,39.704445 L46.9546749,39.0439405 C46.8153434,38.8237724 46.7456778,38.6769936 46.6760121,38.6036042 C46.6063463,38.5302149 46.5366807,38.4568255 46.467015,38.383436 C46.3973493,38.3100466 46.3276836,38.3100466 46.2580179,38.3100466 L46.0490209,38.3100466 L45.561361,38.3100466 L45.561361,39.704445 L45.1433669,39.704445 L45.1433669,39.6310556 Z M45.561361,37.8697104 L46.3973493,37.8697104 C46.6063463,37.8697104 46.7456778,37.8697104 46.8153434,37.796321 C46.8850091,37.7229316 47.0243405,37.7229316 47.0243405,37.5761528 C47.0940062,37.5027634 47.0940062,37.429374 47.0940062,37.2825952 C47.0940062,37.1358165 47.0243405,36.9890377 46.9546749,36.9156483 C46.8850091,36.8422589 46.6760121,36.7688695 46.467015,36.7688695 L45.4916954,36.7688695 L45.4916954,37.8697104 L45.561361,37.8697104 Z M42.0084109,39.6310556 L43.1927276,36.475312 L43.6107217,36.475312 L44.8647041,39.6310556 L44.3770443,39.6310556 L44.0287159,38.6769936 L42.7747335,38.6769936 L42.426405,39.6310556 L42.0084109,39.6310556 Z M42.8443991,38.383436 L43.8893844,38.383436 L43.541056,37.5027634 C43.4713904,37.2092058 43.4017246,36.9890377 43.332059,36.8422589 C43.2623933,37.0624271 43.2623933,37.2825952 43.1927276,37.429374 L42.8443991,38.383436 Z M40.2667686,36.475312 L40.6847627,36.475312 L40.6847627,39.6310556 L40.2667686,39.6310556 L40.2667686,36.475312 Z M37.1318126,39.6310556 L37.1318126,36.475312 L38.1767979,36.475312 C38.385795,36.475312 38.5947921,36.475312 38.7341234,36.5487013 C38.8734548,36.6220907 39.0824519,36.6954801 39.1521176,36.7688695 C39.291449,36.9156483 39.4307803,37.0624271 39.5004461,37.2825952 C39.5701117,37.5027634 39.6397774,37.7229316 39.6397774,38.0164891 C39.6397774,38.2366572 39.6397774,38.4568255 39.5701117,38.6769936 C39.5004461,38.8971618 39.4307803,39.0439405 39.3611146,39.1173299 C39.291449,39.2641087 39.1521176,39.3374981 39.0824519,39.4108875 C39.0127862,39.4842769 38.8734548,39.5576663 38.7341234,39.5576663 C38.5947921,39.5576663 38.4554607,39.6310556 38.2464636,39.6310556 L37.1318126,39.6310556 Z M37.5498067,39.2641087 L38.1767979,39.2641087 C38.385795,39.2641087 38.5251264,39.2641087 38.6644577,39.1907193 C38.8037892,39.1173299 38.8734548,39.1173299 38.9431205,39.0439405 C39.0127862,38.9705511 39.0824519,38.8237724 39.1521176,38.6036042 C39.2217833,38.4568255 39.2217833,38.2366572 39.2217833,38.0164891 C39.2217833,37.6495422 39.1521176,37.429374 39.0824519,37.2825952 C39.0127862,37.1358165 38.8734548,36.9890377 38.7341234,36.9156483 C38.5947921,36.8422589 38.4554607,36.8422589 38.2464636,36.8422589 L37.6194724,36.8422589 L37.6194724,39.2641087 L37.5498067,39.2641087 Z M36.0868273,36.475312 L36.5048214,36.475312 L36.5048214,38.3100466 C36.5048214,38.6036042 36.5048214,38.8971618 36.4351557,39.0439405 C36.36549,39.2641087 36.2261586,39.4108875 36.0868273,39.4842769 C35.8778302,39.6310556 35.6688331,39.6310556 35.3901703,39.6310556 C35.1115076,39.6310556 34.9025105,39.5576663 34.6935134,39.4842769 C34.4845163,39.4108875 34.4148507,39.2641087 34.2755193,39.0439405 C34.2058536,38.8237724 34.1361879,38.6036042 34.1361879,38.2366572 L34.1361879,36.4019226 L34.5541821,36.4019226 L34.5541821,38.2366572 C34.5541821,38.5302149 34.5541821,38.750383 34.6238478,38.8237724 C34.6935134,38.9705511 34.7631791,39.0439405 34.9025105,39.1173299 C35.0418419,39.1907193 35.1811733,39.1907193 35.3205047,39.1907193 C35.5991674,39.1907193 35.8081645,39.1173299 35.9474958,38.9705511 C36.0868273,38.8237724 36.1564929,38.5302149 36.1564929,38.1632679 L36.1564929,36.475312 L36.0868273,36.475312 Z M30.9315662,39.6310556 L32.115883,36.475312 L32.5338771,36.475312 L33.7878595,39.6310556 L33.3001997,39.6310556 L32.9518712,38.6769936 L31.6978888,38.6769936 L31.3495604,39.6310556 L30.9315662,39.6310556 Z M31.7675544,38.383436 L32.8125398,38.383436 L32.4642114,37.5027634 C32.3945457,37.2092058 32.32488,36.9890377 32.2552143,36.8422589 C32.1855486,37.0624271 32.1855486,37.2825952 32.115883,37.429374 L31.7675544,38.383436 Z M28.28427,38.6036042 L28.6325985,38.6036042 C28.6325985,38.750383 28.7022641,38.8971618 28.7719298,38.9705511 C28.8415955,39.0439405 28.9112612,39.1907193 29.0505926,39.1907193 C29.189924,39.2641087 29.3292553,39.2641087 29.5382524,39.2641087 C29.6775838,39.2641087 29.8169152,39.2641087 29.9562465,39.1907193 C30.0955779,39.1173299 30.1652436,39.0439405 30.2349093,38.9705511 C30.304575,38.8971618 30.304575,38.8237724 30.304575,38.6769936 C30.304575,38.6036042 30.304575,38.4568255 30.2349093,38.383436 C30.1652436,38.3100466 30.0955779,38.2366572 29.9562465,38.1632679 C29.8865809,38.1632679 29.6775838,38.0898785 29.3989211,38.0164891 C29.1202583,37.9430997 28.9112612,37.8697104 28.8415955,37.796321 C28.7022641,37.7229316 28.5629327,37.6495422 28.4932671,37.5027634 C28.4236014,37.3559846 28.3539357,37.2825952 28.3539357,37.1358165 C28.3539357,36.9890377 28.4236014,36.8422589 28.4932671,36.6954801 C28.5629327,36.5487013 28.7022641,36.475312 28.8415955,36.4019226 C28.9809269,36.3285332 29.189924,36.3285332 29.3989211,36.3285332 C29.6079181,36.3285332 29.8169152,36.4019226 30.0259122,36.475312 C30.1652436,36.5487013 30.304575,36.6954801 30.4439064,36.8422589 C30.513572,36.9890377 30.5832378,37.1358165 30.5832378,37.3559846 L30.1652436,37.3559846 C30.1652436,37.1358165 30.0955779,36.9890377 29.9562465,36.9156483 C29.8169152,36.8422589 29.6775838,36.7688695 29.3989211,36.7688695 C29.189924,36.7688695 28.9809269,36.8422589 28.8415955,36.9156483 C28.7022641,36.9890377 28.7022641,37.1358165 28.7022641,37.2825952 C28.7022641,37.429374 28.7719298,37.5027634 28.8415955,37.5761528 C28.9112612,37.6495422 29.1202583,37.7229316 29.4685867,37.796321 C29.8169152,37.8697104 30.0259122,37.9430997 30.1652436,38.0164891 C30.3742407,38.0898785 30.4439064,38.2366572 30.5832378,38.3100466 C30.6529035,38.4568255 30.7225691,38.6036042 30.7225691,38.750383 C30.7225691,38.8971618 30.6529035,39.0439405 30.5832378,39.2641087 C30.513572,39.4108875 30.3742407,39.5576663 30.1652436,39.6310556 C30.0259122,39.704445 29.8169152,39.7778344 29.6079181,39.7778344 C29.3292553,39.7778344 29.1202583,39.704445 28.9112612,39.6310556 C28.7022641,39.5576663 28.5629327,39.4108875 28.4932671,39.2641087 C28.3539357,39.0439405 28.28427,38.8237724 28.28427,38.6036042 L28.28427,38.6036042 Z M24.6616542,39.6310556 L24.6616542,36.475312 L26.6819592,36.475312 L26.6819592,36.8422589 L25.0099826,36.8422589 L25.0099826,37.796321 L26.4032964,37.796321 L26.4032964,38.1632679 L25.0099826,38.1632679 L25.0099826,39.6310556 L24.6616542,39.6310556 Z M21.2480354,38.0898785 C21.2480354,37.5761528 21.3873667,37.1358165 21.6660295,36.8422589 C21.9446923,36.5487013 22.2930207,36.4019226 22.7110148,36.4019226 C22.9896776,36.4019226 23.2683403,36.475312 23.4773374,36.6220907 C23.6863345,36.7688695 23.8953316,36.9890377 23.9649973,37.2092058 C24.1043286,37.429374 24.1739943,37.7229316 24.1739943,38.0898785 C24.1739943,38.383436 24.1043286,38.6769936 23.9649973,38.9705511 C23.8256658,39.1907193 23.6863345,39.4108875 23.4076717,39.5576663 C23.1986747,39.704445 22.9200119,39.7778344 22.6413491,39.7778344 C22.3626863,39.7778344 22.0840236,39.704445 21.8750265,39.5576663 C21.6660295,39.4108875 21.4570324,39.1907193 21.3873667,38.9705511 C21.317701,38.6769936 21.2480354,38.383436 21.2480354,38.0898785 L21.2480354,38.0898785 Z M21.6660295,38.0898785 C21.6660295,38.4568255 21.7356952,38.750383 21.9446923,38.9705511 C22.1536893,39.1907193 22.3626863,39.3374981 22.7110148,39.3374981 C22.9896776,39.3374981 23.2683403,39.1907193 23.4773374,38.9705511 C23.6863345,38.750383 23.7560002,38.4568255 23.7560002,38.0164891 C23.7560002,37.7229316 23.6863345,37.5027634 23.6166688,37.3559846 C23.5470031,37.1358165 23.4076717,36.9890377 23.2683403,36.9156483 C23.129009,36.8422589 22.9200119,36.7688695 22.7110148,36.7688695 C22.4323521,36.7688695 22.1536893,36.8422589 21.9446923,37.0624271 C21.8053608,37.2825952 21.6660295,37.6495422 21.6660295,38.0898785 L21.6660295,38.0898785 Z M16.6500998,39.6310556 L16.6500998,36.475312 L17.2770911,36.475312 L17.973748,38.750383 C18.0434136,38.9705511 18.1130793,39.1173299 18.1130793,39.1907193 C18.1130793,39.0439405 18.182745,38.8971618 18.2524107,38.6769936 L18.9490676,36.475312 L19.5063931,36.475312 L19.5063931,39.6310556 L19.088399,39.6310556 L19.088399,36.9890377 L18.182745,39.6310556 L17.8344165,39.6310556 L16.9287626,36.9156483 L16.9287626,39.6310556 L16.6500998,39.6310556 L16.6500998,39.6310556 Z M13.236481,38.0898785 C13.236481,37.5761528 13.3758124,37.1358165 13.6544752,36.8422589 C13.9331379,36.5487013 14.2814664,36.4019226 14.6994605,36.4019226 C14.9781233,36.4019226 15.2567861,36.475312 15.4657831,36.6220907 C15.6747801,36.7688695 15.8837772,36.9890377 15.9534429,37.2092058 C16.0927743,37.429374 16.16244,37.7229316 16.16244,38.0898785 C16.16244,38.383436 16.0927743,38.6769936 15.9534429,38.9705511 C15.8141116,39.1907193 15.6747801,39.4108875 15.3961174,39.5576663 C15.1871203,39.704445 14.9084576,39.7778344 14.6297948,39.7778344 C14.3511321,39.7778344 14.0724693,39.704445 13.8634722,39.5576663 C13.6544752,39.4108875 13.4454781,39.1907193 13.3758124,38.9705511 C13.3061467,38.6769936 13.236481,38.383436 13.236481,38.0898785 L13.236481,38.0898785 Z M13.6544752,38.0898785 C13.6544752,38.4568255 13.7241408,38.750383 13.9331379,38.9705511 C14.142135,39.1907193 14.3511321,39.3374981 14.6994605,39.3374981 C14.9781233,39.3374981 15.2567861,39.1907193 15.4657831,38.9705511 C15.6747801,38.750383 15.7444459,38.4568255 15.7444459,38.0164891 C15.7444459,37.7229316 15.6747801,37.5027634 15.6051145,37.3559846 C15.5354488,37.1358165 15.3961174,36.9890377 15.2567861,36.9156483 C15.1174546,36.8422589 14.9084576,36.7688695 14.6994605,36.7688695 C14.4207977,36.7688695 14.142135,36.8422589 13.9331379,37.0624271 C13.7938066,37.2825952 13.6544752,37.6495422 13.6544752,38.0898785 L13.6544752,38.0898785 Z M10.3105221,39.6310556 L10.3105221,36.475312 L11.3555074,36.475312 C11.5645045,36.475312 11.7735016,36.475312 11.9128329,36.5487013 C12.0521643,36.6220907 12.2611614,36.6954801 12.3308271,36.7688695 C12.4701584,36.9156483 12.6094898,37.0624271 12.6791555,37.2825952 C12.7488212,37.5027634 12.8184869,37.7229316 12.8184869,38.0164891 C12.8184869,38.2366572 12.8184869,38.4568255 12.7488212,38.6769936 C12.6791555,38.8971618 12.6094898,39.0439405 12.5398242,39.1173299 C12.4701584,39.2641087 12.3308271,39.3374981 12.2611614,39.4108875 C12.1914957,39.4842769 12.0521643,39.5576663 11.9128329,39.5576663 C11.7735016,39.5576663 11.6341702,39.6310556 11.4251731,39.6310556 L10.3105221,39.6310556 Z M10.7285162,39.2641087 L11.3555074,39.2641087 C11.5645045,39.2641087 11.7038358,39.2641087 11.8431673,39.1907193 C11.9824986,39.1173299 12.0521643,39.1173299 12.12183,39.0439405 C12.1914957,38.9705511 12.2611614,38.8237724 12.3308271,38.6036042 C12.4004927,38.4568255 12.4004927,38.2366572 12.4004927,38.0164891 C12.4004927,37.6495422 12.3308271,37.429374 12.2611614,37.2825952 C12.1914957,37.1358165 12.0521643,36.9890377 11.9128329,36.9156483 C11.7735016,36.8422589 11.6341702,36.8422589 11.4251731,36.8422589 L10.7981819,36.8422589 L10.7981819,39.2641087 L10.7285162,39.2641087 Z M8.42954842,38.383436 L8.42954842,38.0164891 L9.68353083,38.0164891 L9.68353083,39.1907193 C9.47453382,39.3374981 9.26553674,39.4842769 9.05653966,39.5576663 C8.84754258,39.6310556 8.6385455,39.704445 8.42954842,39.704445 C8.15088569,39.704445 7.8722229,39.6310556 7.59356017,39.4842769 C7.38456309,39.3374981 7.17556601,39.1907193 7.03623465,38.8971618 C6.89690328,38.6769936 6.82723759,38.383436 6.82723759,38.0164891 C6.82723759,37.7229316 6.89690328,37.429374 7.03623465,37.1358165 C7.17556601,36.8422589 7.31489744,36.6954801 7.59356017,36.5487013 C7.80255725,36.4019226 8.08121998,36.3285332 8.35988277,36.3285332 C8.56887985,36.3285332 8.77787686,36.4019226 8.98687394,36.475312 C9.19587102,36.5487013 9.33520238,36.6220907 9.4048681,36.7688695 C9.47453382,36.9156483 9.61386518,37.0624271 9.61386518,37.2825952 L9.26553674,37.3559846 C9.19587102,37.2092058 9.19587102,37.0624271 9.12620537,36.9890377 C9.05653966,36.9156483 8.98687394,36.8422589 8.84754258,36.7688695 C8.70821121,36.6954801 8.56887985,36.6954801 8.42954842,36.6954801 C8.22055141,36.6954801 8.08121998,36.6954801 7.94188861,36.7688695 C7.80255725,36.8422589 7.73289153,36.9156483 7.59356017,36.9890377 C7.52389445,37.0624271 7.45422881,37.2092058 7.38456309,37.2825952 C7.31489744,37.5027634 7.24523173,37.7229316 7.24523173,37.9430997 C7.24523173,38.2366572 7.31489744,38.4568255 7.38456309,38.6769936 C7.45422881,38.8971618 7.59356017,39.0439405 7.80255725,39.1173299 C8.01155433,39.1907193 8.15088569,39.2641087 8.35988277,39.2641087 C8.49921413,39.2641087 8.70821121,39.2641087 8.84754258,39.1907193 C8.98687394,39.1173299 9.12620537,39.0439405 9.19587102,38.9705511 L9.19587102,38.383436 L8.42954842,38.383436 L8.42954842,38.383436 Z M3.97094431,39.6310556 L3.97094431,36.475312 L4.38893844,36.475312 L5.99124931,38.9705511 L5.99124931,36.475312 L6.40924345,36.475312 L6.40924345,39.6310556 L5.99124931,39.6310556 L4.38893844,37.1358165 L4.38893844,39.6310556 L3.97094431,39.6310556 Z M2.85629327,36.475312 L3.27428741,36.475312 L3.27428741,39.6310556 L2.85629327,39.6310556 L2.85629327,36.475312 Z" id="Shape" fill="#FFFFFF" fill-rule="nonzero"></path>
                <path d="M21.754386,15.6327259 C21.8269813,15.7709646 21.9721718,16.0474422 21.9721718,16.2548004 C21.9721718,16.2548004 22.4077435,15.5636065 23.2788869,16.1165616 C23.2788869,16.1165616 22.552934,16.0474422 22.3351482,16.3930392 C22.3351482,16.3930392 23.4966727,16.1165616 23.7144585,17.1533525 C23.7144585,17.1533525 23.2062916,16.6003973 22.6981246,16.6695168 C22.6981246,16.6695168 23.7870538,17.0151137 23.4966727,18.121024 C23.4966727,18.121024 23.4240774,17.1533525 22.6255293,17.0151137 C22.6255293,17.0151137 23.3514822,17.5680688 23.0611011,18.6739791 C23.0611011,18.6739791 23.0611011,17.8445464 22.552934,17.4989495 C22.552934,17.4989495 22.9159105,18.3283821 22.3351482,19.0886954 C22.3351482,19.0886954 22.6255293,18.121024 22.1173624,17.775427 C22.1173624,17.775427 21.8995766,17.6371882 21.8995766,17.9827852 C21.8995766,17.9827852 21.8269813,19.9872475 21.9721718,21.0240384 C21.9721718,21.0240384 24.0774349,19.2960536 25.9649123,20.4710833 C25.9649123,20.4710833 24.1500302,19.6416506 22.0447671,21.5078741 L23.4240774,22.6829038 C23.4966727,22.6137843 23.569268,22.544665 23.7144585,22.544665 C23.9322444,22.544665 24.0774349,22.6829038 24.0774349,22.8902619 C24.0774349,23.3049783 23.4240774,23.3049783 23.2062916,23.0285007 L21.754386,21.7152323 L21.754386,21.7152323 L21.754386,21.7152323 L20.3024804,23.0285007 C20.0846945,23.3049783 19.431337,23.3049783 19.431337,22.8902619 C19.431337,22.6829038 19.5765275,22.544665 19.7943134,22.544665 C19.9395039,22.544665 20.0120992,22.6137843 20.0846945,22.6829038 L21.4640048,21.5078741 C19.3587417,19.6416506 17.5438596,20.4710833 17.5438596,20.4710833 C19.3587417,19.2960536 21.5366001,21.0240384 21.5366001,21.0240384 C21.6091954,20.0563669 21.6091954,17.9827852 21.6091954,17.9827852 C21.6091954,17.6371882 21.3914095,17.775427 21.3914095,17.775427 C20.8832426,18.121024 21.1736237,19.0886954 21.1736237,19.0886954 C20.5928615,18.3283821 20.9558379,17.4989495 20.9558379,17.4989495 C20.4476709,17.9136658 20.4476709,18.6739791 20.4476709,18.6739791 C20.1572898,17.5680688 20.8832426,17.0151137 20.8832426,17.0151137 C20.1572898,17.1533525 20.0120992,18.121024 20.0120992,18.121024 C19.7217181,17.0151137 20.8106473,16.6695168 20.8106473,16.6695168 C20.3024804,16.6003973 19.7943134,17.1533525 19.7943134,17.1533525 C20.0120992,16.1165616 21.1736237,16.3930392 21.1736237,16.3930392 C21.0284331,16.0474422 20.2298851,16.1165616 20.2298851,16.1165616 C21.1010284,15.5636065 21.5366001,16.2548004 21.5366001,16.2548004 C21.5366001,16.0474422 21.6817907,15.7709646 21.754386,15.6327259" id="Shape" fill="#FFFFFF" fill-rule="nonzero"></path>
                <path d="M3.05006418,35.2782982 L3.46598203,35.2782982 L3.46598203,34.8458485 L3.05006418,34.8458485 L3.05006418,35.2782982 Z M2.14890886,30.8817262 L1.73299101,30.8817262 L1.73299101,31.3141759 L2.14890886,31.3141759 L2.14890886,30.8817262 Z M3.74326059,35.2782982 L4.15917843,35.2782982 L4.15917843,34.8458485 L3.74326059,34.8458485 L3.74326059,35.2782982 Z M1.52503209,30.8817262 L1.10911425,30.8817262 L1.10911425,31.3141759 L1.52503209,31.3141759 L1.52503209,30.8817262 Z M6.44672657,32.1070004 C6.37740693,31.9628505 6.23876765,31.8907755 6.10012837,31.8187006 C5.96148909,31.7466256 5.82284981,31.7466256 5.68421053,31.7466256 L5.40693196,31.7466256 L5.40693196,32.1070004 L5.75353017,32.1070004 C5.82284981,32.1070004 5.89216945,32.1070004 6.03080873,32.1790753 C6.10012837,32.2511502 6.16944801,32.2511502 6.23876765,32.3232252 C6.30808729,32.3953002 6.30808729,32.4673751 6.37740693,32.5394501 L6.37740693,32.8277498 L6.37740693,33.9809491 L4.64441592,33.9809491 L4.64441592,34.3413238 L6.79332478,34.3413238 L6.79332478,32.8277498 C6.79332478,32.6836 6.79332478,32.5394501 6.72400513,32.3953002 C6.58536585,32.3232252 6.51604621,32.1790753 6.44672657,32.1070004 L6.44672657,32.1070004 Z M21.0731707,34.4133988 L21.4197689,34.4133988 L21.4197689,30.8817262 L21.0731707,30.8817262 L21.0731707,34.4133988 Z M19.5481386,34.053024 L19.5481386,34.053024 L18.9242619,34.053024 C18.716303,34.053024 18.508344,34.053024 18.3697047,33.9809491 C18.2310655,33.9088741 18.1617458,33.8367992 18.0924262,33.6926493 C18.0924262,33.6205744 18.1617458,33.4764244 18.1617458,33.3322745 L18.1617458,32.1070004 L17.8151476,32.1070004 L17.8151476,33.4043495 C17.8151476,33.6205744 17.745828,33.8367992 17.6071887,33.9809491 C17.4685494,34.125099 17.3299101,34.197174 17.0526316,34.197174 C16.9139923,34.197174 16.8446727,34.197174 16.775353,34.125099 C16.7060334,34.125099 16.6367137,34.053024 16.5673941,33.9809491 C16.4980745,33.9088741 16.4287548,33.8367992 16.4287548,33.7647242 C16.3594352,33.6926493 16.3594352,33.6205744 16.3594352,33.4764244 L16.3594352,32.1070004 L16.012837,32.1070004 L16.012837,33.4764244 C16.012837,33.6205744 16.012837,33.6926493 15.9435173,33.7647242 C15.9435173,33.8367992 15.8741977,33.9088741 15.804878,33.9809491 C15.7355584,34.053024 15.6662388,34.053024 15.5969191,34.125099 C15.5275995,34.125099 15.4582798,34.197174 15.3889602,34.197174 L14.6264442,34.197174 L14.6264442,32.1790753 L14.279846,32.1790753 L14.279846,34.197174 L12.338896,34.197174 L12.9627728,32.5394501 C12.8934531,32.4673751 12.7548139,32.3953002 12.6161746,32.2511502 C12.4775353,32.1790753 12.4082157,32.1070004 12.2695764,32.0349254 C12.1309371,31.9628505 11.9922978,31.8907755 11.9229782,31.8907755 C11.7843389,31.8907755 11.6456996,31.8187006 11.57638,31.8187006 C11.4377407,31.8187006 11.2991014,31.8187006 11.2297818,31.8907755 C11.1604621,31.9628505 10.9525032,31.9628505 10.8831836,32.0349254 C10.7445443,32.1070004 10.6752246,32.1790753 10.5365854,32.2511502 C10.3979461,32.3232252 10.3286264,32.3953002 10.1899872,32.5394501 L10.8831836,34.197174 L9.5661104,34.197174 L9.5661104,31.9628505 L8.94223363,31.9628505 C8.73427471,31.9628505 8.52631579,31.9628505 8.31835687,32.0349254 C8.11039795,32.1070004 7.97175866,32.1790753 7.83311938,32.3232252 C7.6944801,32.4673751 7.55584082,32.611525 7.48652118,32.7556749 C7.41720154,32.8998248 7.3478819,33.1160497 7.3478819,33.2601996 C7.3478819,33.4764244 7.41720154,33.6926493 7.48652118,33.8367992 C7.55584082,33.9809491 7.6944801,34.125099 7.83311938,34.2692489 C7.97175866,34.3413238 8.11039795,34.4854737 8.31835687,34.4854737 C8.52631579,34.5575487 8.73427471,34.5575487 8.94223363,34.5575487 L9.15019255,34.5575487 L9.15019255,34.6296236 C9.15019255,34.8458485 9.08087291,34.9899984 9.01155327,35.0620733 C8.87291399,35.1341483 8.73427471,35.2062232 8.52631579,35.2062232 L8.17971759,35.2062232 C8.11039795,35.2062232 7.97175866,35.1341483 7.83311938,35.0620733 L7.6944801,35.4224481 C7.83311938,35.4945231 7.97175866,35.4945231 8.04107831,35.566598 C8.17971759,35.566598 8.24903723,35.638673 8.38767651,35.638673 C8.73427471,35.638673 9.01155327,35.566598 9.2195122,35.3503732 C9.35815148,35.2062232 9.49679076,34.9179235 9.49679076,34.6296236 L9.49679076,34.5575487 L15.3889602,34.5575487 C15.5969191,34.5575487 15.7355584,34.4854737 15.8741977,34.4133988 C16.012837,34.3413238 16.1514763,34.197174 16.2207959,34.053024 C16.2901155,34.197174 16.4287548,34.3413238 16.5673941,34.4133988 C16.7060334,34.4854737 16.9139923,34.5575487 17.1219512,34.5575487 C17.3299101,34.5575487 17.5378691,34.4854737 17.6765083,34.4133988 C17.8151476,34.3413238 17.9537869,34.197174 18.0231065,34.053024 C18.0231065,34.125099 18.0924262,34.197174 18.1617458,34.197174 C18.2310655,34.2692489 18.2310655,34.2692489 18.3003851,34.3413238 C18.3697047,34.4133988 18.4390244,34.4133988 18.5776637,34.4133988 L18.8549422,34.4133988 L18.8549422,34.4133988 L19.9640565,34.4133988 L19.9640565,30.8817262 L19.6174583,30.8817262 L19.6174583,34.053024 L19.5481386,34.053024 Z M28.6983312,35.2782982 L29.114249,35.2782982 L29.114249,34.8458485 L28.6983312,34.8458485 L28.6983312,35.2782982 Z M32.3722721,34.053024 L31.817715,32.5394501 C31.9563543,32.3953002 32.0949936,32.3232252 32.2336329,32.2511502 C32.3722721,32.1790753 32.5802311,32.1790753 32.7188703,32.1790753 C32.8575096,32.1790753 33.0654685,32.1790753 33.2041078,32.2511502 C33.4120668,32.3232252 33.550706,32.3953002 33.6200257,32.5394501 L32.9961489,34.053024 L32.3722721,34.053024 Z M35.0757381,34.053024 L33.4813864,34.053024 L34.1745828,32.3953002 C34.1052632,32.3232252 33.9666239,32.2511502 33.8279846,32.1070004 C33.6893453,32.0349254 33.6200257,31.9628505 33.4813864,31.8907755 C33.3427471,31.8187006 33.2734275,31.8187006 33.1347882,31.7466256 C32.9961489,31.7466256 32.8575096,31.6745506 32.78819,31.6745506 C32.6495507,31.6745506 32.5109114,31.6745506 32.4415918,31.7466256 C32.3029525,31.7466256 32.1643132,31.8187006 32.0949936,31.8907755 C31.9563543,31.9628505 31.8870347,32.0349254 31.7483954,32.1070004 C31.6097561,32.1790753 31.5404365,32.2511502 31.4017972,32.3953002 C32.0949936,33.9809491 32.0949936,34.053024 32.0949936,34.053024 L30.7086008,34.053024 L30.7086008,31.7466256 L30.3620026,31.7466256 L30.3620026,34.4854737 L30.3620026,34.7737736 C30.3620026,34.8458485 30.3620026,34.9179235 30.2926829,34.9179235 C30.2926829,34.9899984 30.2233633,34.9899984 30.1540436,34.9899984 L30.0154044,34.9899984 L29.9460847,34.9899984 L29.8767651,34.9899984 L29.8074454,35.3503732 C29.9460847,35.3503732 30.0154044,35.4224481 30.084724,35.4224481 C30.2233633,35.4224481 30.3620026,35.4224481 30.4313222,35.3503732 C30.5006418,35.2782982 30.5699615,35.2782982 30.6392811,35.1341483 C30.7086008,35.0620733 30.7086008,34.9179235 30.7779204,34.8458485 L30.7779204,34.4133988 L30.7779204,34.3413238 L35.6302953,34.3413238 L35.6302953,30.8096512 L35.283697,30.8096512 L35.283697,34.053024 L35.0757381,34.053024 Z M27.3119384,35.2782982 L27.7278562,35.2782982 L27.7278562,34.8458485 L27.3119384,34.8458485 L27.3119384,35.2782982 Z M25.0243902,34.053024 L24.677792,34.053024 C24.5391528,34.053024 24.4005135,34.053024 24.2618742,33.9809491 C24.1232349,33.9088741 24.0539153,33.9088741 23.915276,33.7647242 C23.8459564,33.6926493 23.7766367,33.6205744 23.7073171,33.4764244 C23.6379974,33.3322745 23.6379974,33.1881246 23.6379974,33.1160497 C23.6379974,32.9718998 23.6379974,32.8277498 23.7073171,32.7556749 C23.7766367,32.6836 23.8459564,32.5394501 23.915276,32.4673751 C23.9845956,32.3953002 24.1232349,32.3232252 24.2618742,32.2511502 C24.4005135,32.1790753 24.5391528,32.1790753 24.6084724,32.1790753 L24.9550706,32.1790753 L24.9550706,34.053024 L25.0243902,34.053024 Z M29.0449294,31.7466256 L28.6983312,31.7466256 L28.6983312,34.053024 L27.3119384,34.053024 L27.3119384,31.7466256 L26.9653402,31.7466256 L26.9653402,34.053024 L25.4403081,34.053024 L25.4403081,31.7466256 L24.8164313,31.7466256 C24.6084724,31.7466256 24.4005135,31.8187006 24.1925546,31.8187006 C23.9845956,31.8907755 23.8459564,31.9628505 23.7073171,32.1070004 C23.5686778,32.2511502 23.4300385,32.3953002 23.3607189,32.5394501 C23.2913992,32.6836 23.2220796,32.8998248 23.2220796,33.0439747 C23.2220796,33.2601996 23.2913992,33.4764244 23.3607189,33.6205744 C23.4300385,33.7647242 23.5686778,33.9088741 23.7073171,34.053024 C23.8459564,34.125099 23.9845956,34.197174 24.1925546,34.2692489 C24.4005135,34.3413238 24.5391528,34.3413238 24.8164313,34.3413238 L29.114249,34.3413238 L29.114249,31.7466256 L29.0449294,31.7466256 Z M26.6880616,35.2782982 L27.1039795,35.2782982 L27.1039795,34.8458485 L26.6880616,34.8458485 L26.6880616,35.2782982 Z M25.3709884,30.9538011 L25.0243902,30.9538011 L25.0243902,31.3862509 L25.4403081,31.3862509 L25.4403081,30.9538011 L25.3709884,30.9538011 Z M24.7471117,30.9538011 L24.3311938,30.9538011 L24.3311938,31.3862509 L24.7471117,31.3862509 L24.7471117,30.9538011 Z M36.5314506,34.4133988 L36.8780488,34.4133988 L36.8780488,30.8817262 L36.5314506,30.8817262 L36.5314506,34.4133988 Z M53.3761232,34.053024 C53.3068036,34.197174 53.237484,34.2692489 53.1681643,34.4133988 C53.0988447,34.4854737 52.9602054,34.5575487 52.8908858,34.6296236 C52.7522465,34.7016986 52.6136072,34.7016986 52.4749679,34.7016986 C52.3363286,34.7016986 52.1976893,34.7016986 52.0590501,34.6296236 C51.9204108,34.5575487 51.8510911,34.4854737 51.7817715,34.4133988 C51.7124519,34.3413238 51.6431322,34.197174 51.5738126,34.053024 C51.5044929,33.9088741 51.5044929,33.7647242 51.5044929,33.6926493 C51.5044929,33.5484994 51.5044929,33.4043495 51.5738126,33.2601996 C51.6431322,33.1160497 51.7124519,33.0439747 51.7817715,32.8998248 C51.8510911,32.8277498 51.9897304,32.7556749 52.0590501,32.6836 C52.1976893,32.611525 52.3363286,32.611525 52.4749679,32.611525 C52.6136072,32.611525 52.7522465,32.611525 52.8908858,32.6836 C53.029525,32.7556749 53.0988447,32.8277498 53.237484,32.8998248 C53.3068036,32.9718998 53.3761232,33.1160497 53.4454429,33.2601996 C53.5147625,33.4043495 53.5147625,33.5484994 53.5147625,33.6926493 C53.4454429,33.8367992 53.4454429,33.9809491 53.3761232,34.053024 L53.3761232,34.053024 Z M49.7021823,34.053024 C49.6328626,34.197174 49.563543,34.2692489 49.4942234,34.4133988 C49.4249037,34.4854737 49.2862644,34.5575487 49.1476252,34.6296236 C49.0089859,34.7016986 48.8703466,34.7016986 48.7317073,34.7016986 C48.593068,34.7016986 48.4544288,34.7016986 48.3157895,34.6296236 C48.1771502,34.5575487 48.1078306,34.4854737 48.0385109,34.4133988 C47.9691913,34.3413238 47.8998716,34.197174 47.830552,34.053024 C47.7612323,33.9088741 47.7612323,33.7647242 47.7612323,33.6926493 C47.7612323,33.5484994 47.7612323,33.4043495 47.830552,33.2601996 C47.8998716,33.1160497 47.9691913,33.0439747 48.0385109,32.8998248 C48.1078306,32.8277498 48.2464698,32.7556749 48.3157895,32.6836 C48.4544288,32.611525 48.593068,32.611525 48.7317073,32.611525 C48.8703466,32.611525 49.0089859,32.611525 49.1476252,32.6836 C49.2862644,32.7556749 49.3555841,32.8277498 49.4942234,32.8998248 C49.563543,32.9718998 49.6328626,33.1160497 49.7021823,33.2601996 C49.7715019,33.4043495 49.7715019,33.5484994 49.7715019,33.6926493 C49.7715019,33.8367992 49.7715019,33.9809491 49.7021823,34.053024 L49.7021823,34.053024 Z M40.5519897,34.2692489 L40.2053915,34.2692489 C40.0667522,34.2692489 39.928113,34.2692489 39.7894737,34.197174 C39.6508344,34.125099 39.5815148,34.125099 39.4428755,33.9809491 C39.3735558,33.9088741 39.3042362,33.8367992 39.2349166,33.6926493 C39.1655969,33.5484994 39.1655969,33.4043495 39.1655969,33.3322745 C39.1655969,33.1881246 39.1655969,33.0439747 39.2349166,32.9718998 C39.3042362,32.8998248 39.3735558,32.7556749 39.4428755,32.6836 C39.5121951,32.611525 39.6508344,32.5394501 39.7894737,32.4673751 C39.928113,32.3953002 40.0667522,32.3953002 40.1360719,32.3953002 L40.4826701,32.3953002 L40.4826701,34.2692489 L40.5519897,34.2692489 Z M55.0397946,34.2692489 L53.7227214,34.2692489 C53.7920411,34.053024 53.8613607,33.9088741 53.8613607,33.6926493 C53.8613607,33.4764244 53.7920411,33.3322745 53.7227214,33.1160497 C53.6534018,32.9718998 53.5840822,32.7556749 53.4454429,32.6836 C53.3068036,32.5394501 53.1681643,32.4673751 53.029525,32.3953002 C52.8908858,32.3232252 52.6829268,32.3232252 52.4749679,32.3232252 C52.267009,32.3232252 52.1283697,32.3232252 51.9204108,32.3953002 C51.7817715,32.4673751 51.6431322,32.5394501 51.5044929,32.6836 C51.3658537,32.8277498 51.296534,32.9718998 51.2272144,33.1160497 C51.1578947,33.2601996 51.0885751,33.4764244 51.0885751,33.6926493 L51.0885751,33.9809491 C51.0885751,34.053024 51.1578947,34.125099 51.1578947,34.2692489 L49.9794608,34.2692489 C50.0487805,34.053024 50.1181001,33.9088741 50.1181001,33.6926493 C50.1181001,33.4764244 50.0487805,33.3322745 49.9794608,33.1160497 C49.9101412,32.9718998 49.8408216,32.7556749 49.7021823,32.6836 C49.563543,32.5394501 49.4249037,32.4673751 49.2862644,32.3953002 C49.1476252,32.3232252 48.9396662,32.3232252 48.7317073,32.3232252 C48.5237484,32.3232252 48.3851091,32.3232252 48.1771502,32.3953002 C48.0385109,32.4673751 47.8998716,32.5394501 47.7612323,32.6836 C47.6225931,32.8277498 47.5532734,32.9718998 47.4839538,33.1160497 C47.4146341,33.2601996 47.4146341,33.4764244 47.4146341,33.6926493 L47.4146341,33.9809491 C47.4146341,34.053024 47.4839538,34.125099 47.4839538,34.2692489 L46.3055199,34.2692489 L46.3055199,31.170026 L45.9589217,31.170026 L45.9589217,34.2692489 L44.7804878,34.2692489 L44.7804878,33.6926493 C44.7804878,33.5484994 44.7804878,33.4043495 44.7111682,33.2601996 C44.6418485,33.1160497 44.6418485,32.9718998 44.5032092,32.8998248 C44.4338896,32.8277498 44.2952503,32.6836 44.156611,32.611525 C44.0179718,32.5394501 43.8793325,32.5394501 43.6713736,32.5394501 L42.0077022,32.5394501 L42.7008986,31.097951 L42.2849807,31.097951 L41.5917843,32.4673751 C41.5917843,32.5394501 41.5917843,32.611525 41.661104,32.6836 C41.661104,32.7556749 41.7304236,32.8277498 41.7997433,32.8277498 L43.7406932,32.8277498 C43.8793325,32.8277498 43.9486521,32.8277498 44.0179718,32.8998248 C44.0872914,32.8998248 44.156611,32.9718998 44.2259307,33.0439747 C44.2952503,33.1160497 44.2952503,33.1881246 44.36457,33.2601996 L44.36457,33.5484994 L44.36457,34.125099 L40.8985879,34.125099 L40.8985879,31.8187006 L40.2747112,31.8187006 C40.0667522,31.8187006 39.8587933,31.8907755 39.6508344,31.8907755 C39.4428755,31.9628505 39.3042362,32.0349254 39.1655969,32.1790753 C39.0269576,32.3232252 38.957638,32.4673751 38.8883184,32.611525 C38.8189987,32.7556749 38.7496791,32.9718998 38.7496791,33.1160497 C38.7496791,33.3322745 38.8189987,33.5484994 38.8883184,33.6926493 C38.957638,33.8367992 39.0962773,33.9809491 39.2349166,34.125099 C39.3735558,34.197174 39.5121951,34.2692489 39.720154,34.3413238 C39.928113,34.4133988 40.1360719,34.4133988 40.3440308,34.4133988 L47.830552,34.4133988 C47.9691913,34.5575487 48.1078306,34.7016986 48.2464698,34.7737736 C48.4544288,34.8458485 48.593068,34.9179235 48.801027,34.9179235 C49.0089859,34.9179235 49.2169448,34.9179235 49.3555841,34.7737736 C49.563543,34.7016986 49.7021823,34.6296236 49.7715019,34.4133988 L51.4351733,34.4133988 C51.5738126,34.5575487 51.7124519,34.7016986 51.8510911,34.7737736 C52.0590501,34.8458485 52.1976893,34.9179235 52.4056483,34.9179235 C52.6136072,34.9179235 52.8215661,34.9179235 52.9602054,34.7737736 C53.1681643,34.7016986 53.3068036,34.6296236 53.3761232,34.4133988 L55.3170732,34.4133988 L55.3170732,30.8817262 L54.970475,30.8817262 L54.970475,34.2692489 L55.0397946,34.2692489 Z M56.4955071,34.6296236 L56.8421053,34.6296236 L56.8421053,31.097951 L56.4955071,31.097951 L56.4955071,34.6296236 Z M40.2747112,31.170026 L39.8587933,31.170026 L39.8587933,31.6024757 L40.2747112,31.6024757 L40.2747112,31.170026 Z M40.8985879,31.170026 L40.4826701,31.170026 L40.4826701,31.6024757 L40.8985879,31.6024757 L40.8985879,31.170026 Z M4.02053915,31.7466256 L3.67394095,31.7466256 L3.67394095,33.9809491 L2.14890886,33.9809491 L2.14890886,31.7466256 L1.52503209,31.7466256 C1.31707317,31.7466256 1.10911425,31.7466256 0.901155327,31.8187006 C0.693196406,31.8907755 0.554557125,31.9628505 0.415917843,32.1070004 C0.277278562,32.2511502 0.207958922,32.3953002 0.138639281,32.5394501 C0.0693196406,32.6836 0,32.8998248 0,33.0439747 C0,33.2601996 0.0693196406,33.4764244 0.138639281,33.6205744 C0.207958922,33.7647242 0.346598203,33.9088741 0.485237484,34.053024 C0.623876765,34.125099 0.762516046,34.2692489 0.970474968,34.2692489 C1.17843389,34.3413238 1.38639281,34.3413238 1.59435173,34.3413238 L4.08985879,34.3413238 L4.08985879,31.7466256 L4.02053915,31.7466256 Z M1.80231065,34.053024 L1.45571245,34.053024 C1.31707317,34.053024 1.17843389,34.053024 1.03979461,33.9809491 C0.901155327,33.9088741 0.831835687,33.9088741 0.693196406,33.7647242 C0.623876765,33.6926493 0.554557125,33.6205744 0.485237484,33.4764244 C0.415917843,33.3322745 0.415917843,33.2601996 0.415917843,33.1160497 C0.415917843,32.9718998 0.415917843,32.8277498 0.485237484,32.7556749 C0.554557125,32.611525 0.623876765,32.5394501 0.693196406,32.4673751 C0.762516046,32.3953002 0.901155327,32.3232252 1.03979461,32.2511502 C1.17843389,32.1790753 1.31707317,32.1790753 1.38639281,32.1790753 L1.73299101,32.1790753 L1.73299101,34.053024 L1.80231065,34.053024 Z M9.08087291,34.053024 L8.73427471,34.053024 C8.59563543,34.053024 8.45699615,34.053024 8.31835687,33.9809491 C8.17971759,33.9088741 8.11039795,33.9088741 7.97175866,33.7647242 C7.90243902,33.6926493 7.76379974,33.6205744 7.76379974,33.4764244 C7.6944801,33.3322745 7.6944801,33.2601996 7.6944801,33.1160497 C7.6944801,32.9718998 7.6944801,32.8277498 7.76379974,32.7556749 C7.83311938,32.611525 7.90243902,32.5394501 7.97175866,32.4673751 C8.04107831,32.3953002 8.17971759,32.3232252 8.31835687,32.2511502 C8.45699615,32.1790753 8.59563543,32.1790753 8.73427471,32.1790753 L9.08087291,32.1790753 L9.08087291,34.053024 Z M11.1604621,34.053024 L10.5365854,32.5394501 C10.6752246,32.3953002 10.8138639,32.3232252 10.9525032,32.2511502 C11.0911425,32.1790753 11.2297818,32.1790753 11.4377407,32.1790753 C11.57638,32.1790753 11.7843389,32.1790753 11.9229782,32.2511502 C12.0616175,32.3232252 12.2002567,32.3953002 12.338896,32.5394501 L11.7843389,34.053024 L11.1604621,34.053024 Z" id="Shape" fill="#FFFFFF" fill-rule="nonzero"></path>
                <path d="M46.245614,9.4747087 L46.877193,9.4747087 L46.877193,10.1138439 L46.245614,10.1138439 L46.245614,9.4747087 Z M47.5789474,9.4747087 L48.2105263,9.4747087 L48.2105263,10.1138439 L47.5789474,10.1138439 L47.5789474,9.4747087 Z M34.5263158,1.87610102 L33.8947368,1.87610102 L33.8947368,1.23696579 L34.5263158,1.23696579 L34.5263158,1.87610102 Z M50.3859649,6.56309268 C50.6666667,6.77613775 50.9473684,6.84715278 51.2280702,6.98918283 C51.5789474,7.06019785 51.9298246,7.13121288 52.2807018,7.13121288 L52.4210526,7.13121288 L52.6315789,6.6341077 L52.6315789,7.27324293 C52.6315789,7.62831804 52.4912281,7.84136316 52.3508772,8.05440822 C52.1403509,8.19643823 51.8596491,8.26745327 51.5087719,8.26745327 C51.2982456,8.26745327 51.1578947,8.26745327 50.9473684,8.19643823 C50.8070175,8.12542326 50.5964912,8.12542326 50.3859649,7.98339317 L50.1754386,8.62252841 C50.4561404,8.69354345 50.6666667,8.76455842 50.877193,8.83557346 C51.0877193,8.90658851 51.2982456,8.90658851 51.4385965,8.90658851 C52.0701754,8.90658851 52.5614035,8.76455842 52.8421053,8.48049833 C53.122807,8.19643823 53.2631579,7.77034812 53.2631579,7.27324293 L53.2631579,2.6572663 L52.2105263,2.6572663 C51.7894737,2.6572663 51.4385965,2.72828132 51.0877193,2.79929634 C50.7368421,2.9413264 50.4561404,3.08335645 50.245614,3.29640152 C49.9649123,3.5094466 49.8245614,3.72249167 49.6842105,4.00655177 C49.5438596,4.29061187 49.4736842,4.57467198 49.4736842,4.9297471 C49.4736842,5.28482223 49.5438596,5.63989735 49.6842105,5.92395745 C49.8947368,6.13700253 50.1052632,6.3500476 50.3859649,6.56309268 L50.3859649,6.56309268 Z M50.3859649,4.14858183 C50.4561404,3.93553675 50.5964912,3.7935067 50.8070175,3.65147665 C50.9473684,3.5094466 51.1578947,3.36741655 51.3684211,3.29640152 C51.5789474,3.2253865 51.7894737,3.15437147 52,3.15437147 L53.0526316,3.15437147 L52.7017544,3.36741655 L52.7017544,6.3500476 L52,6.3500476 C51.7192982,6.3500476 51.5087719,6.3500476 51.2982456,6.27903258 C51.0877193,6.20801755 50.877193,6.0659875 50.7368421,5.99497247 C50.5964912,5.85294242 50.4561404,5.71091238 50.3859649,5.4978673 C50.3157895,5.28482223 50.245614,5.07177715 50.245614,4.85873207 C50.1754386,4.57467198 50.245614,4.3616269 50.3859649,4.14858183 L50.3859649,4.14858183 Z M35.8596491,1.87610102 L35.2280702,1.87610102 L35.2280702,1.23696579 L35.8596491,1.23696579 L35.8596491,1.87610102 Z M55.0175439,8.90658851 C54.8070175,8.90658851 54.6666667,8.90658851 54.4561404,8.83557346 L54.5964912,8.19643823 C54.6666667,8.19643823 54.7368421,8.19643823 54.8070175,8.26745327 L54.9473684,8.26745327 C55.0877193,8.26745327 55.1578947,8.26745327 55.2280702,8.19643823 C55.2982456,8.19643823 55.3684211,8.12542326 55.4385965,8.05440822 C55.5087719,7.98339317 55.5087719,7.84136316 55.5087719,7.69933308 L55.5087719,7.2022279 L55.5087719,2.58625127 L56.1403509,2.58625127 L56.1403509,7.2022279 C56.1403509,7.48628802 56.1403509,7.69933308 56.0701754,7.91237813 C56,8.12542326 55.9298246,8.26745327 55.8596491,8.48049833 C55.7894737,8.62252841 55.6491228,8.76455842 55.5087719,8.83557346 C55.4385965,8.83557346 55.2280702,8.90658851 55.0175439,8.90658851 L55.0175439,8.90658851 Z M34.0350877,8.83557346 L35.3684211,8.83557346 L35.3684211,8.33846831 C35.3684211,8.33846831 35.3684211,8.40948335 35.4385965,8.40948335 C35.5087719,8.55151337 35.6491228,8.69354345 35.8596491,8.76455842 C36,8.83557346 36.2105263,8.90658851 36.4210526,8.90658851 L48.4210526,8.90658851 L48.4210526,2.6572663 L47.7894737,2.6572663 L47.7894737,8.26745327 L47.0877193,8.26745327 L36.4210526,8.26745327 C36.2807018,8.26745327 36.2105263,8.26745327 36.0701754,8.19643823 C36,8.12542326 35.9298246,8.12542326 35.8596491,7.98339317 C35.7894737,7.91237813 35.7894737,7.77034812 35.7192982,7.62831804 L35.7192982,7.13121288 L35.7192982,2.51523625 L33.9649123,2.51523625 C32.1403509,2.51523625 30.877193,3.93553675 30.877193,5.63989735 L30.877193,5.63989735 C31.0175439,7.34425795 32.2105263,8.83557346 34.0350877,8.83557346 L34.0350877,8.83557346 Z M31.7192982,5.63989735 C31.7192982,4.29061187 32.7017544,3.15437147 34.0350877,3.15437147 L35.5789474,3.15437147 L35.1578947,3.36741655 L35.1578947,7.13121288 C35.1578947,7.41527298 35.1578947,7.62831804 35.2280702,7.84136316 C35.2280702,7.98339317 35.2982456,8.05440822 35.2982456,8.19643823 L34.0350877,8.19643823 C32.7017544,8.12542326 31.7192982,7.06019785 31.7192982,5.63989735 L31.7192982,5.63989735 Z M52.5614035,0.455800518 L53.122807,0.455800518 L53.122807,0.952905694 L52.6315789,0.952905694 C52.4912281,0.952905694 52.4210526,1.02392072 52.4210526,1.16595077 L52.4210526,1.37899584 L53.2631579,1.37899584 L53.2631579,1.87610102 L51.8596491,1.87610102 L51.8596491,1.16595077 C51.8596491,0.810875644 52.2105263,0.455800518 52.5614035,0.455800518 L52.5614035,0.455800518 Z" id="Shape" fill="#FFFFFF" fill-rule="nonzero"></path>
                <path d="M28.0769556,2.66183712 L28.7719298,2.66183712 L28.7719298,8.66589551 L28.2159505,8.66589551 L23.9071108,3.27588855 L24.2545978,4.16285172 L24.2545978,8.66589551 L23.5596237,8.66589551 L23.5596237,2.66183712 L24.1851004,2.66183712 L28.3549453,7.84716026 L28.0769556,7.09665298 L28.0769556,2.66183712 Z M2.64090177,8.66589551 L0,2.59360919 L0.764471565,2.59360919 L1.11195864,3.48057235 L2.91889143,7.71070439 L3.12738368,8.12007201 L3.05788626,7.43779264 L5.14280872,2.52538125 L5.90728028,2.52538125 L3.26637851,8.59766757 L2.64090177,8.59766757 L2.64090177,8.66589551 Z M14.3164675,2.66183712 L15.0114416,2.66183712 L15.0114416,8.66589551 L14.3164675,8.66589551 L14.3164675,2.66183712 Z M21.7526909,5.66386632 C21.7526909,7.02842504 20.7797271,8.12007201 19.3897788,8.12007201 C17.9998305,8.12007201 16.9573693,7.02842504 16.9573693,5.66386632 L16.9573693,5.66386632 C16.9573693,4.29930759 17.9303331,3.20766061 19.3202814,3.20766061 C20.7102297,3.13943268 21.7526909,4.29930759 21.7526909,5.66386632 L21.7526909,5.66386632 Z M19.3202814,2.52538125 C17.4438512,2.52538125 16.1928977,3.95816791 16.1928977,5.59563838 L16.1928977,5.59563838 C16.1928977,7.23310884 17.4438512,8.66589551 19.3202814,8.66589551 C21.1967116,8.66589551 22.4476651,7.23310884 22.4476651,5.59563838 L22.4476651,5.59563838 C22.4476651,3.95816791 21.1967116,2.52538125 19.3202814,2.52538125 L19.3202814,2.52538125 Z M13.2045088,7.02842504 L13.2045088,7.02842504 C13.2045088,8.05184407 12.3010425,8.73412344 11.1195864,8.73412344 C10.1466226,8.73412344 9.38215102,8.39298376 8.61767944,7.77893233 L9.03466393,7.30133678 C9.6601407,7.84716026 10.2856174,8.12007201 11.1195864,8.12007201 C11.9535554,8.12007201 12.5095347,7.71070439 12.5095347,7.09665298 L12.5095347,7.09665298 C12.5095347,6.55082949 12.2315451,6.2096898 10.9110942,5.93677806 C9.52114589,5.66386632 8.89566912,5.18627076 8.89566912,4.23107965 L8.89566912,4.23107965 C8.89566912,3.27588855 9.72963811,2.59360919 10.9110942,2.59360919 C11.8145606,2.59360919 12.4400373,2.86652093 13.065514,3.34411649 L12.6485295,3.88993998 C12.0925502,3.41234442 11.5365709,3.20766061 10.9110942,3.20766061 C10.1466226,3.20766061 9.5906433,3.61702823 9.5906433,4.16285172 L9.5906433,4.16285172 C9.5906433,4.7086752 9.93813032,5.04981489 11.2585813,5.32272663 C12.5790321,5.59563838 13.2045088,6.07323393 13.2045088,7.02842504 L13.2045088,7.02842504 Z M7.57521825,8.66589551 L6.88024409,8.66589551 L6.88024409,2.66183712 L7.57521825,2.66183712 L7.57521825,8.66589551 Z" id="Shape" fill="#FFFFFF" fill-rule="nonzero"></path>
            </g>
        </g>
    </g>
</svg>