<?xml version="1.0" encoding="UTF-8"?>
<svg width="24px" height="24px" viewBox="0 0 24 24" version="1.1" xmlns="http://www.w3.org/2000/svg" xmlns:xlink="http://www.w3.org/1999/xlink">
    <!-- Generator: Sketch 57.1 (83088) - https://sketch.com -->
    <title>icon/system/24/volume</title>
    <desc>Created with Sketch.</desc>
    <g id="Organism" stroke="none" stroke-width="1" fill="none" fill-rule="evenodd">
        <g id="Footer" transform="translate(-100.000000, -662.000000)" fill="#FFFFFF">
            <g id="icon/system/16/volume" transform="translate(100.000000, 662.000000)">
                <g id="noun_Volume_1632383">
                    <g id="Group">
                        <path d="M16.6387097,5.61290323 C16.3290323,5.34193548 15.8645161,5.34193548 15.5935484,5.6516129 C15.5935484,5.6516129 15.5548387,5.69032258 15.5548387,5.69032258 C15.283871,6 15.3225806,6.50322581 15.6322581,6.77419355 C18.5354839,9.32903226 18.8064516,13.7419355 16.2516129,16.6064516 C16.0580645,16.8387097 15.8645161,17.0322581 15.6322581,17.2258065 C15.3225806,17.4967742 15.283871,18 15.5548387,18.3096774 C15.7096774,18.5032258 15.9032258,18.5806452 16.1354839,18.5806452 C16.3290323,18.5806452 16.483871,18.5032258 16.6387097,18.3870968 C20.1612903,15.2903226 20.5483871,9.9483871 17.4516129,6.42580645 C17.1806452,6.15483871 16.9096774,5.88387097 16.6387097,5.61290323 Z" id="Path"></path>
                        <path d="M20.2580645,3.63870968 C20.0258065,3.36774194 19.7548387,3.09677419 19.483871,2.86451613 C19.1741935,2.59354839 18.7096774,2.59354839 18.4,2.90322581 C18.1290323,3.21290323 18.1290323,3.71612903 18.4387097,4.02580645 C22.8516129,8.0516129 23.1612903,14.8645161 19.1354839,19.2774194 C18.9032258,19.5096774 18.6709677,19.7419355 18.4387097,19.9741935 C18.1290323,20.2451613 18.0903226,20.7483871 18.3612903,21.0580645 C18.516129,21.2516129 18.7483871,21.3290323 18.9806452,21.3290323 C19.1741935,21.3290323 19.3677419,21.2516129 19.483871,21.1354839 C24.516129,16.5290323 24.8645161,8.67096774 20.2580645,3.63870968 Z" id="Path"></path>
                        <path d="M13.1761464,0.232258065 C12.9721105,0.0774193548 12.7389267,0.116129032 12.5640388,0.270967742 L5.86000289,6.50322581 L2.53713294,6.50322581 C1.42950962,6.54193548 0.525922176,7.74193548 0.496774194,9.21290323 L0.496774194,14.7870968 C0.525922176,16.2580645 1.42950962,17.4580645 2.53713294,17.4967742 L5.86000289,17.4967742 L12.5640388,23.7290323 C12.6806307,23.8064516 12.7972226,23.883871 12.9138146,23.883871 L13.1761464,23.7677419 C13.3801823,23.6516129 13.4967742,23.3806452 13.4967742,23.1096774 L13.4967742,0.890322581 C13.4967742,0.619354839 13.3801823,0.348387097 13.1761464,0.232258065 Z M11.7501374,3.08348469 C11.5931867,2.96613415 11.4138146,2.99547178 11.2792854,3.11282232 L6.12233473,7.83618148 L3.56628092,7.83618148 C2.71426298,7.86551912 2.01919572,8.77498579 1.99677419,9.8898159 L1.99677419,14.1144353 C2.01919572,15.2292654 2.71426298,16.1387321 3.56628092,16.1680697 L6.12233473,16.1680697 L11.2792854,20.8914289 C11.3689715,20.9501041 11.4586576,21.0087794 11.5483437,21.0087794 L11.7501374,20.9207665 C11.9070881,20.8327536 11.9967742,20.6273901 11.9967742,20.4220267 L11.9967742,3.58222447 C11.9967742,3.37686103 11.9070881,3.17149759 11.7501374,3.08348469 Z" id="Shape"></path>
                    </g>
                </g>
            </g>
        </g>
    </g>
</svg>