<?xml version="1.0" encoding="UTF-8"?>
<svg width="36px" height="36px" viewBox="0 0 36 36" version="1.1" xmlns="http://www.w3.org/2000/svg" xmlns:xlink="http://www.w3.org/1999/xlink">
    <!-- Generator: Sketch 57.1 (83088) - https://sketch.com -->
    <title>icon/system/24/youtube</title>
    <desc>Created with Sketch.</desc>
    <g id="Organism" stroke="none" stroke-width="1" fill="none" fill-rule="evenodd">
        <g id="Footer" transform="translate(-781.000000, -798.000000)" fill="#FFFFFF">
            <g id="icon/system/16/youtube" transform="translate(781.000000, 798.000000)">
                <path d="M23.7162,22.404 C23.5494,22.404 23.4294,22.4508 23.3562,22.5504 C23.2836,22.644 23.2482,22.8048 23.2482,23.028 L23.2482,23.5656 L24.174,23.5656 L24.174,23.028 C24.174,22.8048 24.1368,22.644 24.063,22.5504 C23.9934,22.4508 23.8752,22.404 23.7162,22.404 Z M20.1054,22.3854 C20.2458,22.3854 20.3556,22.431 20.4318,22.5234 C20.5056,22.6164 20.5428,22.7532 20.5428,22.9326 L20.5428,25.683 C20.5428,25.8546 20.511,25.9752 20.451,26.0496 C20.391,26.1258 20.2974,26.163 20.169,26.163 C20.0802,26.163 19.9968,26.1432 19.9164,26.1054 C19.8354,26.0682 19.752,26.0028 19.6674,25.9176 L19.6674,22.599 C19.7388,22.5258 19.8108,22.4712 19.8834,22.4364 C19.956,22.401 20.0298,22.3854 20.1054,22.3854 Z M23.2488,24.3948 L23.2488,25.398 C23.2488,25.6788 23.283,25.8732 23.3508,25.9824 C23.4216,26.091 23.5386,26.1438 23.706,26.1438 C23.8794,26.1438 24.0006,26.0982 24.0696,26.0064 C24.138,25.9146 24.1746,25.713 24.1746,25.3986 L24.1746,25.1556 L25.2516,25.1556 L25.2516,25.4292 C25.2516,25.9758 25.1214,26.3868 24.8574,26.6646 C24.5964,26.94 24.204,27.0768 23.6826,27.0768 C23.214,27.0768 22.8438,26.9316 22.5744,26.6382 C22.3056,26.3466 22.1688,25.944 22.1688,25.4298 L22.1688,23.0382 C22.1688,22.5774 22.3182,22.1994 22.614,21.909 C22.9098,21.6186 23.2908,21.4728 23.7606,21.4728 C24.24,21.4728 24.6084,21.6078 24.8664,21.8772 C25.1238,22.146 25.2516,22.533 25.2516,23.0382 L25.2516,24.3966 L23.2488,24.3966 L23.2488,24.3948 Z M21.3738,26.697 C21.2112,26.8986 20.9724,26.9976 20.6616,26.9976 C20.4558,26.9976 20.274,26.9604 20.1144,26.8824 C19.9542,26.805 19.803,26.6862 19.6668,26.5218 L19.6668,26.9304 L18.6084,26.9304 L18.6084,19.7112 L19.6668,19.7112 L19.6668,22.0362 C19.809,21.8742 19.9578,21.7494 20.1156,21.6666 C20.2758,21.5808 20.436,21.5394 20.5986,21.5394 C20.931,21.5394 21.1836,21.6528 21.3576,21.8784 C21.534,22.1058 21.6204,22.4382 21.6204,22.8744 L21.6204,25.83 C21.6204,26.2068 21.5382,26.4954 21.3738,26.697 Z M16.7748,26.9304 L16.7748,26.3448 C16.5798,26.5614 16.38,26.7264 16.1694,26.838 C15.96,26.9526 15.7578,27.0072 15.561,27.0072 C15.318,27.0072 15.138,26.9298 15.0132,26.7696 C14.8926,26.61 14.8302,26.3748 14.8302,26.0562 L14.8302,21.603 L15.8766,21.603 L15.8766,25.6884 C15.8766,25.815 15.8988,25.9056 15.9408,25.9626 C15.987,26.0196 16.0584,26.0472 16.1556,26.0472 C16.2324,26.0472 16.3308,26.01 16.4484,25.9344 C16.5666,25.8594 16.6734,25.7646 16.7736,25.6494 L16.7736,21.603 L17.82,21.603 L17.82,26.9298 L16.7748,26.9298 L16.7748,26.9304 Z M13.1496,20.76 L13.1496,26.9304 L11.9688,26.9304 L11.9688,20.76 L10.7484,20.76 L10.7484,19.7112 L14.37,19.7112 L14.37,20.76 L13.1496,20.76 Z M17.9964,17.3867838 C17.9964,17.3862 25.2444,17.3976 26.1048,18.2568 C26.9682,19.1178 26.9778,23.3652 26.9778,23.3898 C26.9778,23.3898 26.9706,27.66 26.1048,28.5234 C25.2444,29.3814 17.9964,29.4 17.9964,29.4 C17.9964,29.4 10.749,29.3814 9.8868,28.5228 C9.024,27.6618 9.0222,23.4216 9.0222,23.3892 C9.0222,23.3646 9.0246,19.1172 9.8868,18.2562 C10.7496,17.3976 17.9964,17.3862 17.9964,17.3867838 Z M23.712,15.153 L22.5324,15.153 L22.5324,14.505 C22.3176,14.7432 22.0908,14.9268 21.8544,15.0504 C21.6192,15.1752 21.3918,15.2376 21.1704,15.2376 C20.8956,15.2376 20.6922,15.15 20.5542,14.9754 C20.4168,14.8008 20.3472,14.5392 20.3472,14.1888 L20.3472,9.2856 L21.5244,9.2856 L21.5244,13.7838 C21.5244,13.9224 21.5514,14.0232 21.6006,14.085 C21.6486,14.1474 21.7302,14.1786 21.84,14.1786 C21.9258,14.1786 22.0362,14.1372 22.1688,14.055 C22.3008,13.9728 22.4226,13.8678 22.5318,13.7388 L22.5318,9.2856 L23.7114,9.2856 L23.7114,15.153 L23.712,15.153 Z M17.3082,14.1528 C17.3916,14.241 17.5116,14.2842 17.6682,14.2842 C17.8278,14.2842 17.9538,14.2392 18.0486,14.1504 C18.1428,14.0592 18.1896,13.9356 18.1896,13.7796 L18.1896,10.5834 C18.1896,10.455 18.1416,10.3512 18.045,10.272 C17.949,10.1934 17.823,10.1544 17.6682,10.1544 C17.5236,10.1544 17.4072,10.1934 17.3166,10.272 C17.2278,10.3512 17.1816,10.455 17.1816,10.5834 L17.1816,13.7796 C17.1816,13.9398 17.2248,14.0634 17.3082,14.1528 Z M16.4448,9.5418 C16.7616,9.2724 17.1894,9.1374 17.724,9.1374 C18.2112,9.1374 18.612,9.2796 18.9246,9.564 C19.2348,9.8478 19.3908,10.2138 19.3908,10.6608 L19.3908,13.6914 C19.3908,14.193 19.2378,14.586 18.9336,14.8722 C18.6258,15.1578 18.2064,15.3006 17.67,15.3006 C17.1552,15.3006 16.7418,15.153 16.4316,14.859 C16.1238,14.5638 15.9683983,14.1678 15.9683983,13.6692 L15.9683983,10.6284 C15.9678,10.1724 16.1262,9.8106 16.4448,9.5418 Z M12.7572,7.2 L11.4198,7.2 L13.0002,12.0018 L13.0002,15.153 L14.328,15.153 L14.328,11.853 L15.8724,7.2 L14.5224,7.2 L13.7028,10.3788 L13.6194,10.3788 L12.7572,7.2 Z M18,36 C8.0592,36 0,27.9414 0,18 C0,8.0586 8.0592,0 18,0 C27.9408,0 36,8.0586 36,18 C36,27.9414 27.9408,36 18,36 Z" id="Shape"></path>
            </g>
        </g>
    </g>
</svg>