<?xml version="1.0" encoding="UTF-8"?>
<svg width="24px" height="24px" viewBox="0 0 24 24" version="1.1" xmlns="http://www.w3.org/2000/svg" xmlns:xlink="http://www.w3.org/1999/xlink">
    <!-- Generator: Sketch 57.1 (83088) - https://sketch.com -->
    <title>icon/system/24</title>
    <desc>Created with Sketch.</desc>
    <g id="Atoms" stroke="none" stroke-width="1" fill="none" fill-rule="evenodd">
        <g id="Icons" transform="translate(-80.000000, -266.000000)" fill="#160F3E">
            <g id="icon/system/24/edit" transform="translate(80.000000, 266.000000)">
                <path d="M22.1023997,6.75774892 L9.70521767,19.1522652 L5.43749011,19.6242574 C4.20060447,19.7611352 3.14783539,18.7180323 3.28474258,17.4719728 L3.75683633,13.2051629 L16.1540184,0.810646675 C17.2351131,-0.270215558 18.98186,-0.270215558 20.0582338,0.810646675 L22.0976788,2.84965316 C23.1787735,3.93051539 23.1787735,5.68160661 22.1023997,6.75774892 L22.1023997,6.75774892 Z M17.4545455,8.23002316 L14.6790677,5.45454545 L5.80327157,14.3351187 L5.45454545,17.4545455 L8.57397221,17.1058193 L17.4545455,8.23002316 Z M20.5808048,4.37489201 L18.5315171,2.32754918 C18.3370245,2.13324118 18.0191952,2.13324118 17.8294463,2.32754918 L16.3636364,3.79196801 L19.1197386,6.54545455 L20.5855486,5.08103572 C20.7752974,4.8819885 20.7752974,4.56920001 20.5808048,4.37489201 L20.5808048,4.37489201 Z" id="Shape"></path>
                <rect id="Rectangle" x="0" y="20.7272727" width="24" height="2.72727273" rx="1.36363636"></rect>
            </g>
        </g>
    </g>
</svg>