<?xml version="1.0" encoding="UTF-8"?>
<svg width="23px" height="21px" viewBox="0 0 23 21" version="1.1" xmlns="http://www.w3.org/2000/svg" xmlns:xlink="http://www.w3.org/1999/xlink">
    <!-- Generator: Sketch 57.1 (83088) - https://sketch.com -->
    <title>icon/system/24/alert</title>
    <desc>Created with Sketch.</desc>
    <g id="Atoms" stroke="none" stroke-width="1" fill="none" fill-rule="evenodd">
        <g id="Icons" transform="translate(-273.000000, -322.000000)">
            <g id="icon/system/24/alert" transform="translate(272.000000, 321.000000)">
                <g id="icon/system/24/warning">
                    <rect id="Path" fill-rule="nonzero" x="0" y="0" width="24" height="24"></rect>
                    <path d="M12.4470257,1 C13.495655,1 14.4681772,1.54753799 15.0148931,2.44887293 L23.4930162,16.6026836 C24.0260538,17.5257831 24.0292363,18.662404 23.5013765,19.5884739 C22.9735166,20.5145439 21.9938982,21.0909683 20.9170257,21.102744 L3.96603518,21.102744 C2.9001532,21.0909683 1.92053484,20.5145439 1.39267496,19.5884739 C0.864815078,18.662404 0.867997619,17.5257831 1.40915829,16.5888729 L9.87915829,2.44887293 L9.88202571,2.44411601 C10.4258742,1.54753799 11.3983964,1 12.4470257,1 Z M12.4470257,3 C12.098249,3 11.7747302,3.1817132 11.5932202,3.47940787 L3.13301624,17.6028044 C2.95533705,17.9105042 2.95427621,18.2893779 3.1302295,18.5980678 C3.30618279,18.9067578 3.63272225,19.0988993 3.97702571,19.1028044 L20.9060352,19.1028044 C21.2613292,19.0988993 21.5878686,18.9067578 21.7638219,18.5980678 C21.9397752,18.2893779 21.9387144,17.9105042 21.7691583,17.6166151 L13.3020257,3.481372 C13.1207429,3.18251266 12.7965688,3 12.4470257,3 Z M12.4470257,15.102744 C12.9993105,15.102744 13.4470257,15.5504593 13.4470257,16.102744 C13.4470257,16.6550288 12.9993105,17.102744 12.4470257,17.102744 C11.894741,17.102744 11.4470257,16.6550288 11.4470257,16.102744 C11.4470257,15.5504593 11.894741,15.102744 12.4470257,15.102744 Z M12.4470257,7.102744 C12.9993105,7.102744 13.4470257,7.55045925 13.4470257,8.102744 L13.4470257,12.102744 C13.4470257,12.6550288 12.9993105,13.102744 12.4470257,13.102744 C11.894741,13.102744 11.4470257,12.6550288 11.4470257,12.102744 L11.4470257,8.102744 C11.4470257,7.55045925 11.894741,7.102744 12.4470257,7.102744 Z" id="Color" fill="#160F3E"></path>
                </g>
            </g>
        </g>
    </g>
</svg>