<svg id="Layer_1" data-name="Layer 1" xmlns="http://www.w3.org/2000/svg" xmlns:xlink="http://www.w3.org/1999/xlink" viewBox="0 0 233.78 216.13"><defs><style>.cls-1,.cls-10,.cls-15,.cls-17,.cls-18,.cls-2,.cls-20,.cls-3{fill:none;}.cls-2{clip-rule:evenodd;}.cls-3{fill-rule:evenodd;}.cls-4{clip-path:url(#clip-path);}.cls-5{fill:#16103e;}.cls-6{clip-path:url(#clip-path-2);}.cls-7{clip-path:url(#clip-path-3);}.cls-8{fill:#d7d7d7;opacity:0.5;}.cls-9{clip-path:url(#clip-path-4);}.cls-10,.cls-17,.cls-20{stroke:#fff;}.cls-10{stroke-linejoin:round;}.cls-10,.cls-15{stroke-width:3.55px;}.cls-11{clip-path:url(#clip-path-6);}.cls-12{isolation:isolate;}.cls-13{clip-path:url(#clip-path-8);}.cls-14{clip-path:url(#clip-path-10);}.cls-15,.cls-18{stroke:#3ba07a;}.cls-15,.cls-17,.cls-18,.cls-20{stroke-miterlimit:10;}.cls-16{clip-path:url(#clip-path-12);}.cls-17{stroke-width:0.71px;opacity:0;}.cls-18{stroke-width:1.78px;}.cls-19{clip-path:url(#clip-path-15);}.cls-20{stroke-width:1.42px;}.cls-21{clip-path:url(#clip-path-18);}.cls-22{clip-path:url(#clip-path-21);}.cls-23{fill:#3ba07a;}.cls-24{clip-path:url(#clip-path-23);}.cls-25{clip-path:url(#clip-path-25);}.cls-26{clip-path:url(#clip-path-27);}.cls-27{clip-path:url(#clip-path-29);}.cls-28{clip-path:url(#clip-path-31);}.cls-29{clip-path:url(#clip-path-32);}.cls-30{clip-path:url(#clip-path-33);}.cls-31{clip-path:url(#clip-path-35);}.cls-32{fill:#fff;}</style><clipPath id="clip-path"><rect class="cls-1" x="29.61" y="19.26" width="179.94" height="177.61"/></clipPath><clipPath id="clip-path-2"><path class="cls-1" d="M150.21,72.64v61.17c0,1.15-2.31,2.09-5.15,2.09h7.35c2.85,0,5.14-.94,5.14-2.09V72.64c0-1.15-2-2.84-4.81-2.84S150.21,71.49,150.21,72.64Z"/></clipPath><clipPath id="clip-path-3"><rect class="cls-1" x="56.69" y="49.82" width="125.21" height="119.9"/></clipPath><clipPath id="clip-path-4"><path class="cls-2" d="M70.81,72.87H167.6A3.1,3.1,0,0,1,170.72,76v75.32h-103V76A3.1,3.1,0,0,1,70.81,72.87Z"/></clipPath><clipPath id="clip-path-6"><path class="cls-2" d="M96.69,139H151.8a7.75,7.75,0,0,0,7.8-7.68V59a7.76,7.76,0,0,0-7.8-7.69H96.69A7.74,7.74,0,0,0,88.91,59v72.25A7.73,7.73,0,0,0,96.69,139Z"/></clipPath><clipPath id="clip-path-8"><rect class="cls-1" x="88.78" y="49.82" width="71.94" height="89.38"/></clipPath><clipPath id="clip-path-10"><rect class="cls-1" x="88.86" y="51.35" width="71.81" height="87.62"/></clipPath><clipPath id="clip-path-12"><polygon class="cls-2" points="161.43 70.95 139.59 50.97 160.61 50.97 161.43 70.95"/></clipPath><clipPath id="clip-path-15"><path class="cls-2" d="M90.87,122.06a6.92,6.92,0,1,0-7-6.91A7,7,0,0,0,90.87,122.06Z"/></clipPath><clipPath id="clip-path-18"><path class="cls-2" d="M76.68,133.33q4-11.27,14.25-11.27,10,0,14.78,10.74a7.62,7.62,0,0,1-4,10.13,8,8,0,0,1-3.16.65H84a7.75,7.75,0,0,1-7.8-7.68A7.34,7.34,0,0,1,76.68,133.33Z"/></clipPath><clipPath id="clip-path-21"><path class="cls-2" d="M109.18,85.17h29.65a1.54,1.54,0,1,1,0,3.08H109.18a1.54,1.54,0,1,1,0-3.08Z"/></clipPath><clipPath id="clip-path-23"><path class="cls-2" d="M126.34,102.08h20.29a1.54,1.54,0,1,1,0,3.08H126.34a1.54,1.54,0,1,1,0-3.08Z"/></clipPath><clipPath id="clip-path-25"><path class="cls-2" d="M113.85,119h29.66a1.54,1.54,0,1,1,0,3.07H113.85a1.54,1.54,0,1,1,0-3.07Z"/></clipPath><clipPath id="clip-path-27"><path class="cls-2" d="M102.92,68.26h20.3a1.54,1.54,0,1,1,0,3.08h-20.3a1.54,1.54,0,1,1,0-3.08Z"/></clipPath><clipPath id="clip-path-29"><path class="cls-2" d="M60.76,148.2H177.83a4.64,4.64,0,0,1,4.68,4.61v10.76a4.65,4.65,0,0,1-4.68,4.61H60.76a4.65,4.65,0,0,1-4.68-4.61V152.81A4.64,4.64,0,0,1,60.76,148.2Z"/></clipPath><clipPath id="clip-path-31"><rect class="cls-1" x="56.08" y="147.92" width="126.44" height="21.8"/></clipPath><clipPath id="clip-path-32"><rect class="cls-1" x="56.08" y="148.2" width="126.44" height="21.52"/></clipPath><clipPath id="clip-path-33"><rect class="cls-1" x="73.25" y="163.57" width="21.84" height="6.15"/></clipPath><clipPath id="clip-path-35"><path class="cls-2" d="M78.7,169a2.31,2.31,0,1,0-2.33-2.31A2.33,2.33,0,0,0,78.7,169Z"/></clipPath></defs><title>icon design system</title><g class="cls-4"><rect class="cls-5" x="31.79" y="21.44" width="175.58" height="173.25"/></g><g class="cls-6"><g class="cls-7"><rect class="cls-8" x="137.26" y="62.11" width="28.1" height="81.47"/></g></g><g class="cls-9"><g class="cls-7"><path class="cls-10" d="M70.82,72.87H167.6A3.1,3.1,0,0,1,170.72,76v75.32h-103V76A3.11,3.11,0,0,1,70.82,72.87Z"/></g></g><g class="cls-11"><g class="cls-7"><g class="cls-12"><g class="cls-13"><g class="cls-11"><g class="cls-14"><path class="cls-5" d="M96.69,139H151.8a7.75,7.75,0,0,0,7.8-7.68V59a7.76,7.76,0,0,0-7.8-7.69H96.69A7.74,7.74,0,0,0,88.91,59v72.25A7.73,7.73,0,0,0,96.69,139Z"/></g></g><g class="cls-14"><path class="cls-15" d="M96.71,139H151.8a7.74,7.74,0,0,0,7.8-7.68V59a7.74,7.74,0,0,0-7.8-7.69H96.71A7.74,7.74,0,0,0,88.91,59v72.25A7.74,7.74,0,0,0,96.71,139Z"/></g></g></g></g></g><g class="cls-16"><g class="cls-7"><rect class="cls-5" x="131.79" y="43.28" width="37.46" height="35.36"/></g></g><g class="cls-7"><polygon class="cls-17" points="161.44 70.95 139.59 50.97 160.6 50.97 161.44 70.95"/><path class="cls-18" d="M139.53,53.91l17.12,15.53a1.53,1.53,0,0,1,.09,2.17,1.57,1.57,0,0,1-1.15.49H140A3.09,3.09,0,0,1,136.91,69V55a1.56,1.56,0,0,1,2.62-1.13Z"/></g><g class="cls-19"><g class="cls-7"><rect class="cls-5" x="76.04" y="100.54" width="29.66" height="29.21"/></g></g><g class="cls-7"><path class="cls-20" d="M90.87,122.06a6.92,6.92,0,1,0-7-6.91A7,7,0,0,0,90.87,122.06Z"/></g><g class="cls-21"><g class="cls-7"><rect class="cls-5" x="68.41" y="114.38" width="45.76" height="36.89"/></g></g><g class="cls-7"><path class="cls-20" d="M76.67,133.34q4-11.28,14.26-11.28,10,0,14.78,10.74a7.64,7.64,0,0,1-4,10.13,8,8,0,0,1-3.15.65H84a7.74,7.74,0,0,1-7.81-7.68A7.46,7.46,0,0,1,76.67,133.34Z"/></g><g class="cls-22"><g class="cls-7"><rect class="cls-23" x="99.81" y="77.49" width="48.39" height="18.45"/></g></g><g class="cls-24"><g class="cls-7"><rect class="cls-23" x="116.98" y="94.39" width="39.02" height="18.45"/></g></g><g class="cls-25"><g class="cls-7"><rect class="cls-23" x="104.49" y="111.3" width="48.39" height="18.45"/></g></g><g class="cls-26"><g class="cls-7"><rect class="cls-23" x="93.55" y="60.58" width="39.02" height="18.45"/></g></g><g class="cls-27"><g class="cls-7"><g class="cls-12"><g class="cls-28"><g class="cls-29"><path class="cls-10" d="M60.76,148.2H177.83a4.64,4.64,0,0,1,4.68,4.61v10.76a4.65,4.65,0,0,1-4.68,4.61H60.76a4.65,4.65,0,0,1-4.68-4.61V152.81A4.64,4.64,0,0,1,60.76,148.2Z"/></g></g></g></g></g><g class="cls-30"><g class="cls-7"><rect class="cls-5" x="65.45" y="155.88" width="37.46" height="21.52"/></g></g><g class="cls-31"><g class="cls-7"><rect class="cls-32" x="68.57" y="156.65" width="20.29" height="19.98"/></g></g></svg>