<svg id="Layer_1" data-name="Layer 1" xmlns="http://www.w3.org/2000/svg" xmlns:xlink="http://www.w3.org/1999/xlink" viewBox="0 0 233.78 216.13"><defs><style>.cls-1,.cls-14,.cls-15,.cls-17,.cls-18,.cls-2,.cls-9{fill:none;}.cls-1{clip-rule:evenodd;}.cls-3{fill:#16103e;}.cls-4{clip-path:url(#clip-path);}.cls-5{clip-path:url(#clip-path-2);}.cls-6{isolation:isolate;}.cls-7{clip-path:url(#clip-path-3);}.cls-8{clip-path:url(#clip-path-4);}.cls-14,.cls-15,.cls-9{stroke:#fffeff;}.cls-14,.cls-17,.cls-18,.cls-9{stroke-miterlimit:10;}.cls-9{stroke-width:4.39px;}.cls-10{clip-path:url(#clip-path-5);}.cls-11{fill:#fffeff;}.cls-12{clip-path:url(#clip-path-7);}.cls-13{clip-path:url(#clip-path-9);}.cls-14,.cls-15,.cls-17,.cls-18{stroke-width:1.75px;}.cls-15,.cls-18{stroke-linecap:round;}.cls-15{stroke-linejoin:round;}.cls-16{clip-path:url(#clip-path-12);}.cls-17,.cls-18{stroke:#3ba07a;}.cls-19{clip-path:url(#clip-path-15);}.cls-20{clip-path:url(#clip-path-17);}</style><clipPath id="clip-path"><path class="cls-1" d="M81.33,165.21h69.24a6.91,6.91,0,0,0,6.92-6.91V61.57a6.91,6.91,0,0,0-6.92-6.91H81.33a6.91,6.91,0,0,0-6.92,6.91V158.3A6.91,6.91,0,0,0,81.33,165.21Z"/></clipPath><clipPath id="clip-path-2"><rect class="cls-2" x="74.41" y="54.66" width="102.48" height="111.94"/></clipPath><clipPath id="clip-path-3"><rect class="cls-2" x="74.41" y="54.66" width="83.56" height="111.94"/></clipPath><clipPath id="clip-path-4"><rect class="cls-2" x="74.41" y="54.66" width="83.09" height="110.55"/></clipPath><clipPath id="clip-path-5"><path class="cls-1" d="M95.19,127.9h44.3a1.38,1.38,0,0,1,0,2.76H95.19a1.38,1.38,0,1,1,0-2.76Z"/></clipPath><clipPath id="clip-path-7"><path class="cls-1" d="M95.19,139h44.3a1.39,1.39,0,0,1,0,2.77H95.19a1.39,1.39,0,1,1,0-2.77Z"/></clipPath><clipPath id="clip-path-9"><path class="cls-1" d="M116.08,96.11a6.93,6.93,0,1,0-6.37-6.9A6.65,6.65,0,0,0,116.08,96.11Z"/></clipPath><clipPath id="clip-path-12"><path class="cls-1" d="M157.27,159.68a19.35,19.35,0,1,0-19.15-19.34A19.25,19.25,0,0,0,157.27,159.68Z"/></clipPath><clipPath id="clip-path-15"><rect class="cls-2" x="86.88" y="161.06" width="19.38" height="5.53"/></clipPath><clipPath id="clip-path-17"><path class="cls-1" d="M91.72,165.9a2.07,2.07,0,1,0-2.08-2.07A2.08,2.08,0,0,0,91.72,165.9Z"/></clipPath></defs><title>icon design system</title><rect class="cls-3" x="43.52" y="29.24" width="159.78" height="157.66"/><g class="cls-4"><g class="cls-5"><g class="cls-6"><g class="cls-7"><g class="cls-8"><path class="cls-9" d="M81.33,165.21h69.24a6.92,6.92,0,0,0,6.93-6.91V61.57a6.92,6.92,0,0,0-6.93-6.91H81.33a6.91,6.91,0,0,0-6.92,6.91V158.3A6.91,6.91,0,0,0,81.33,165.21Z"/></g></g></g></g></g><g class="cls-10"><g class="cls-5"><rect class="cls-11" x="86.88" y="120.99" width="60.93" height="16.58"/></g></g><g class="cls-12"><g class="cls-5"><rect class="cls-11" x="86.88" y="132.04" width="60.93" height="16.58"/></g></g><g class="cls-13"><g class="cls-5"><rect class="cls-3" x="102.78" y="75.39" width="26.59" height="27.64"/></g></g><g class="cls-5"><path class="cls-14" d="M116.08,96.11a6.93,6.93,0,1,0-6.37-6.9A6.65,6.65,0,0,0,116.08,96.11Z"/><path class="cls-15" d="M100.72,108.55q8.2-9.67,15.39-9.67t13.69,9.67"/></g><g class="cls-16"><g class="cls-5"><rect class="cls-3" x="131.18" y="114.08" width="52.18" height="52.51"/></g></g><g class="cls-5"><ellipse class="cls-17" cx="158.06" cy="140.34" rx="16.43" ry="16.58"/><polyline class="cls-18" points="149.45 140.07 155.71 145.86 166.16 136.19"/></g><g class="cls-19"><g class="cls-5"><rect class="cls-3" x="79.94" y="154.16" width="33.24" height="19.35"/></g></g><g class="cls-20"><g class="cls-5"><rect class="cls-11" x="82.72" y="154.85" width="18" height="17.96"/></g></g><g class="cls-5"><ellipse class="cls-14" cx="115.26" cy="95.42" rx="21.46" ry="21.42"/></g></svg>