<?xml version="1.0" encoding="UTF-8"?>
<svg width="21px" height="24px" viewBox="0 0 21 24" version="1.1" xmlns="http://www.w3.org/2000/svg" xmlns:xlink="http://www.w3.org/1999/xlink">
    <!-- Generator: Sketch 57.1 (83088) - https://sketch.com -->
    <title>icon/system/24/delete</title>
    <desc>Created with Sketch.</desc>
    <g id="Atoms" stroke="none" stroke-width="1" fill="none" fill-rule="evenodd">
        <g id="Icons" transform="translate(-146.000000, -266.000000)">
            <g id="icon/system/24/delete" transform="translate(144.000000, 266.000000)">
                <path d="M14.5624999,19.5 L15.6874999,19.5 C15.99816,19.5 16.2499998,19.2481602 16.2499998,18.9375001 L16.2499998,8.81250016 C16.2499998,8.50183999 15.99816,8.25000017 15.6874999,8.25000017 L14.5624999,8.25000017 C14.2518397,8.25000017 13.9999999,8.50183999 13.9999999,8.81250016 L13.9999999,18.9375001 C13.9999999,19.2481602 14.2518397,19.5 14.5624999,19.5 Z M22.2499998,3.75000022 L18.3870311,3.75000022 L16.7932811,1.09218774 C16.3864302,0.414259695 15.6536101,-0.000376267635 14.8629686,0 L10.1370312,0 C9.34672385,0 8.61433516,0.414546344 8.20765618,1.09218774 L6.6129687,3.75000022 L2.74999999,3.75000022 C2.33578643,3.75000022 2,4.08578665 2,4.5 L2,5.2500002 C2,5.66421376 2.33578643,6 2.74999999,6 L3.5,6 L3.5,21.75 C3.5,22.9926407 4.50735929,24 5.74999996,24 L19.2499998,24 C20.4926405,24 21.5,22.9926407 21.5,21.75 L21.5,6 L22.2499998,6 C22.6642133,6 23,5.66421376 23,5.2500002 L23,4.5 C23,4.08578665 22.6642133,3.75000022 22.2499998,3.75000022 Z M10.0549999,2.38640648 C10.1059926,2.30153099 10.1978596,2.24972225 10.2968749,2.24999912 L14.7031249,2.24999912 C14.8019732,2.24988727 14.8936243,2.3016746 14.9445311,2.38640648 L15.7629686,3.74999912 L9.23703117,3.74999912 L10.0549999,2.38640648 Z M19.25,21.75 L5.74999996,21.75 L5.74999996,6.00000019 L19.25,6.00000019 L19.25,21.75 Z M9.31249992,19.5 L10.4374999,19.5 C10.7481601,19.5 10.9999999,19.2481602 10.9999999,18.9375001 L10.9999999,8.81250016 C10.9999999,8.50183999 10.7481601,8.25000017 10.4374999,8.25000017 L9.31249992,8.25000017 C9.00183975,8.25000017 8.74999993,8.50183999 8.74999993,8.81250016 L8.74999993,18.9375001 C8.74999993,19.2481602 9.00183975,19.5 9.31249992,19.5 Z" id="Shape" fill="#160F3E" fill-rule="evenodd"></path>
                <polygon id="Path" points="0 0 24 0 24 24 0 24"></polygon>
            </g>
        </g>
    </g>
</svg>