<?xml version="1.0" encoding="UTF-8"?>
<svg width="20px" height="20px" viewBox="0 0 20 20" version="1.1" xmlns="http://www.w3.org/2000/svg" xmlns:xlink="http://www.w3.org/1999/xlink">
    <!-- Generator: Sketch 57.1 (83088) - https://sketch.com -->
    <title>icon/system/24/download</title>
    <desc>Created with Sketch.</desc>
    <g id="Atoms" stroke="none" stroke-width="1" fill="none" fill-rule="evenodd">
        <g id="Icons" transform="translate(-402.000000, -485.000000)" fill="#160F3E">
            <g id="icon/system/24/download" transform="translate(402.000000, 485.000000)">
                <path d="M19,12 C19.5522847,12 20,12.4477153 20,13 L20,17 C20,18.6568542 18.6568542,20 17,20 L3,20 C1.34314575,20 0,18.6568542 0,17 L0,13 C0,12.4477153 0.44771525,12 1,12 C1.55228475,12 2,12.4477153 2,13 L2,17 C2,17.5522847 2.44771525,18 3,18 L17,18 C17.5522847,18 18,17.5522847 18,17 L18,13 C18,12.4477153 18.4477153,12 19,12 Z M9.929,13.997 L10,14 L10,14 L9.96774538,13.9994829 L9.94073988,13.9982534 L9.94073988,13.9982534 L9.929,13.997 Z M10.652,13.757 L10.6167501,13.787214 L10.6167501,13.787214 L10.629,13.775 L10.652,13.757 Z M10.7071068,13.7071068 L10.663147,13.7485042 L10.663147,13.7485042 L10.652,13.757 L10.7071068,13.7071068 Z M9.918,13.996 L9.85103878,13.9889807 L9.85103878,13.9889807 C9.83405099,13.9863719 9.81662474,13.9832978 9.79927424,13.9797599 C9.77725392,13.9753602 9.75556352,13.9701664 9.73416039,13.964279 C9.71853672,13.9599023 9.70314866,13.9552713 9.68785748,13.9502619 C9.66820232,13.9438775 9.6484208,13.9366843 9.62894148,13.928896 L9.57677845,13.9063266 L9.57677845,13.9063266 C9.5561086,13.8966234 9.53570605,13.8862061 9.51572305,13.8751242 C9.50360556,13.8685012 9.49138689,13.8613931 9.47929125,13.8540045 C9.45372505,13.8382813 9.42886931,13.8215099 9.4048407,13.8036865 L9.38297765,13.7870723 L9.38297765,13.7870723 C9.35153408,13.7623312 9.32135953,13.7355731 9.29289322,13.7071068 L4.29289322,8.70710678 C3.90236893,8.31658249 3.90236893,7.68341751 4.29289322,7.29289322 C4.68341751,6.90236893 5.31658249,6.90236893 5.70710678,7.29289322 L9,10.585 L9,1 C9,0.44771525 9.44771525,-8.8817842e-16 10,-8.8817842e-16 C10.5522847,-8.8817842e-16 11,0.44771525 11,1 L11,10.585 L14.2928932,7.29289322 C14.6834175,6.90236893 15.3165825,6.90236893 15.7071068,7.29289322 C16.0976311,7.68341751 16.0976311,8.31658249 15.7071068,8.70710678 L10.7071068,13.7071068 L10.629,13.775 L10.5953066,13.8036654 L10.5953066,13.8036654 C10.5711307,13.8215099 10.546275,13.8382813 10.5206602,13.8539326 L10.4840621,13.8753288 L10.4840621,13.8753288 C10.4642939,13.8862061 10.4438914,13.8966234 10.4230991,13.9063462 L10.371336,13.9287745 L10.371336,13.9287745 C10.3515792,13.9366843 10.3317977,13.9438775 10.3117364,13.9504533 C10.2968513,13.9552713 10.2814633,13.9599023 10.265993,13.9641549 C10.2444365,13.9701664 10.2227461,13.9753602 10.2007941,13.9798348 C10.1833753,13.9832978 10.165949,13.9863719 10.1484669,13.9889822 C10.1281144,13.9920941 10.1070574,13.994564 10.085811,13.9963697 C10.0679231,13.997855 10.050591,13.9988772 10.0332468,13.9994506 L10.016765,13.999862 L10.016765,13.999862 L10,14 L9.918,13.996 Z M9.918,13.996 L9.92,13.997 L9.9137692,13.9962979 L9.918,13.996 Z" id="Color"></path>
            </g>
        </g>
    </g>
</svg>