<?xml version="1.0" encoding="UTF-8"?>
<svg width="22px" height="20px" viewBox="0 0 22 20" version="1.1" xmlns="http://www.w3.org/2000/svg" xmlns:xlink="http://www.w3.org/1999/xlink">
    <!-- Generator: Sketch 57.1 (83088) - https://sketch.com -->
    <title>icon/system/24/export</title>
    <desc>Created with Sketch.</desc>
    <g id="Atoms" stroke="none" stroke-width="1" fill="none" fill-rule="evenodd">
        <g id="Icons" transform="translate(-273.000000, -431.000000)" fill-rule="nonzero">
            <g id="icon/system/24/export" transform="translate(272.000000, 429.000000)">
                <rect id="Path" x="0" y="0" width="24" height="24"></rect>
                <path d="M13,3.00201295 C13,2.09642727 14.1075435,1.65720076 14.7282,2.31664825 L22.7282,10.8166483 C23.0890582,11.2000601 23.0908016,11.797606 22.7321867,12.1831169 L14.7321867,20.7831169 C14.113451,21.4482579 13,21.0104437 13,20.102013 L13,16.0240981 C8.98821274,16.2033602 5.54210971,17.4739751 2.63035879,19.8383169 C1.97679328,20.3690121 1,19.9039068 1,19.062013 C1,12.606815 6.10668702,7.48812243 13,7.03469304 L13,3.00201295 Z M15,8.00201295 C15,8.5542977 14.5522847,9.00201295 14,9.00201295 C8.49985841,9.00201295 4.23474534,12.3617472 3.22689085,16.9514727 C6.34299656,14.9857391 9.94159294,14.002013 14,14.002013 C14.5522847,14.002013 15,14.4497282 15,15.002013 L15,17.5588083 L20.6305114,11.5060085 L15,5.52359014 L15,8.00201295 Z" id="Color" fill="#080808"></path>
            </g>
        </g>
    </g>
</svg>