<svg id="Layer_1" data-name="Layer 1" xmlns="http://www.w3.org/2000/svg" xmlns:xlink="http://www.w3.org/1999/xlink" viewBox="0 0 233.78 216.13"><defs><style>.cls-1,.cls-12,.cls-15,.cls-16,.cls-2,.cls-3,.cls-42,.cls-45,.cls-46{fill:none;}.cls-2{clip-rule:evenodd;}.cls-3{fill-rule:evenodd;}.cls-4{clip-path:url(#clip-path);}.cls-5{fill:#16103e;}.cls-6{clip-path:url(#clip-path-2);}.cls-7{clip-path:url(#clip-path-3);}.cls-8{isolation:isolate;}.cls-9{clip-path:url(#clip-path-4);}.cls-10{clip-path:url(#clip-path-6);}.cls-11{fill:#3ba07a;}.cls-12,.cls-15,.cls-16,.cls-42,.cls-46{stroke:#16103e;}.cls-12,.cls-15,.cls-42,.cls-45,.cls-46{stroke-miterlimit:10;}.cls-12{stroke-width:3.82px;}.cls-13{clip-path:url(#clip-path-8);}.cls-14{clip-path:url(#clip-path-10);}.cls-15,.cls-16,.cls-45,.cls-46{stroke-width:1.53px;}.cls-16,.cls-46{stroke-linecap:round;}.cls-16{stroke-linejoin:bevel;}.cls-17{clip-path:url(#clip-path-13);}.cls-18{clip-path:url(#clip-path-15);}.cls-19{clip-path:url(#clip-path-17);}.cls-20{clip-path:url(#clip-path-19);}.cls-21{clip-path:url(#clip-path-21);}.cls-22{clip-path:url(#clip-path-23);}.cls-23{clip-path:url(#clip-path-25);}.cls-24{clip-path:url(#clip-path-27);}.cls-25{clip-path:url(#clip-path-29);}.cls-26{clip-path:url(#clip-path-31);}.cls-27{clip-path:url(#clip-path-33);}.cls-28{clip-path:url(#clip-path-35);}.cls-29{clip-path:url(#clip-path-37);}.cls-30{clip-path:url(#clip-path-39);}.cls-31{clip-path:url(#clip-path-41);}.cls-32{clip-path:url(#clip-path-43);}.cls-33{clip-path:url(#clip-path-45);}.cls-34{clip-path:url(#clip-path-47);}.cls-35{clip-path:url(#clip-path-49);}.cls-36{clip-path:url(#clip-path-51);}.cls-37{clip-path:url(#clip-path-53);}.cls-38{clip-path:url(#clip-path-55);}.cls-39{clip-path:url(#clip-path-57);}.cls-40{clip-path:url(#clip-path-59);}.cls-41{clip-path:url(#clip-path-61);}.cls-42{stroke-width:1.91px;}.cls-43{clip-path:url(#clip-path-64);}.cls-44{clip-path:url(#clip-path-66);}.cls-45{stroke:#3ba07a;}.cls-47{clip-path:url(#clip-path-69);}.cls-48{clip-path:url(#clip-path-71);}</style><clipPath id="clip-path"><rect class="cls-1" x="33.42" y="21.19" width="178.25" height="175.94"/></clipPath><clipPath id="clip-path-2"><path class="cls-2" d="M81.29,37.75h82.78a8.33,8.33,0,0,1,8.28,8.37V173.27a8.33,8.33,0,0,1-8.28,8.36H81.29A8.32,8.32,0,0,1,73,173.27V46.12A8.32,8.32,0,0,1,81.29,37.75Z"/></clipPath><clipPath id="clip-path-3"><rect class="cls-1" x="73.01" y="37.75" width="130.8" height="143.25"/></clipPath><clipPath id="clip-path-4"><rect class="cls-1" x="73.01" y="37.75" width="100.28" height="143.88"/></clipPath><clipPath id="clip-path-6"><rect class="cls-1" x="73.01" y="37.75" width="99.34" height="143.88"/></clipPath><clipPath id="clip-path-8"><polygon class="cls-2" points="177.06 148.17 145.86 181.63 176.1 181.63 177.06 148.17"/></clipPath><clipPath id="clip-path-10"><path class="cls-2" d="M146.63,178.71l26-27.72a1.66,1.66,0,0,0-.07-2.36,1.61,1.61,0,0,0-1.13-.46H147.08a3.33,3.33,0,0,0-3.31,3.35v26a1.66,1.66,0,0,0,2.86,1.15Z"/></clipPath><clipPath id="clip-path-13"><path class="cls-2" d="M85.83,72.88h41.39a1.68,1.68,0,0,1,0,3.35H85.83a1.68,1.68,0,0,1,0-3.35Z"/></clipPath><clipPath id="clip-path-15"><rect class="cls-1" x="83.91" y="72.63" width="45.78" height="4.36"/></clipPath><clipPath id="clip-path-17"><rect class="cls-1" x="83.91" y="72.88" width="45.39" height="3.35"/></clipPath><clipPath id="clip-path-19"><path class="cls-2" d="M85.83,84.59h41.59a1.68,1.68,0,0,1,0,3.35H85.83a1.68,1.68,0,0,1,0-3.35Z"/></clipPath><clipPath id="clip-path-21"><rect class="cls-1" x="83.91" y="83.53" width="45.78" height="6.54"/></clipPath><clipPath id="clip-path-23"><rect class="cls-1" x="83.91" y="84.59" width="45.39" height="3.35"/></clipPath><clipPath id="clip-path-25"><path class="cls-2" d="M85.83,96.31h41.59a1.67,1.67,0,0,1,0,3.34H85.83a1.67,1.67,0,0,1,0-3.34Z"/></clipPath><clipPath id="clip-path-27"><rect class="cls-1" x="83.91" y="94.43" width="45.78" height="6.54"/></clipPath><clipPath id="clip-path-29"><rect class="cls-1" x="83.91" y="96.31" width="45.39" height="3.35"/></clipPath><clipPath id="clip-path-31"><path class="cls-2" d="M85.83,108h41.59a1.67,1.67,0,0,1,0,3.34H85.83a1.67,1.67,0,0,1,0-3.34Z"/></clipPath><clipPath id="clip-path-33"><rect class="cls-1" x="83.91" y="107.51" width="45.78" height="4.36"/></clipPath><clipPath id="clip-path-35"><rect class="cls-1" x="83.91" y="108.02" width="45.39" height="3.35"/></clipPath><clipPath id="clip-path-37"><path class="cls-2" d="M85.83,119.73h41.59a1.68,1.68,0,0,1,0,3.35H85.83a1.68,1.68,0,0,1,0-3.35Z"/></clipPath><clipPath id="clip-path-39"><rect class="cls-1" x="83.91" y="118.41" width="45.78" height="6.54"/></clipPath><clipPath id="clip-path-41"><rect class="cls-1" x="83.91" y="119.73" width="45.39" height="3.35"/></clipPath><clipPath id="clip-path-43"><path class="cls-2" d="M85.83,131.44h41.59a1.68,1.68,0,0,1,0,3.35H85.83a1.68,1.68,0,0,1,0-3.35Z"/></clipPath><clipPath id="clip-path-45"><rect class="cls-1" x="83.91" y="129.31" width="45.78" height="6.54"/></clipPath><clipPath id="clip-path-47"><rect class="cls-1" x="83.91" y="131.44" width="45.39" height="3.35"/></clipPath><clipPath id="clip-path-49"><path class="cls-2" d="M85.83,143.15h41.59a1.68,1.68,0,0,1,0,3.35H85.83a1.68,1.68,0,0,1,0-3.35Z"/></clipPath><clipPath id="clip-path-51"><rect class="cls-1" x="83.91" y="142.39" width="45.78" height="4.36"/></clipPath><clipPath id="clip-path-53"><rect class="cls-1" x="83.91" y="143.15" width="45.39" height="3.35"/></clipPath><clipPath id="clip-path-55"><path class="cls-2" d="M85.83,154.86h41.59a1.68,1.68,0,0,1,0,3.35H85.83a1.68,1.68,0,0,1,0-3.35Z"/></clipPath><clipPath id="clip-path-57"><rect class="cls-1" x="83.91" y="153.29" width="45.78" height="6.54"/></clipPath><clipPath id="clip-path-59"><rect class="cls-1" x="83.91" y="154.86" width="45.39" height="3.35"/></clipPath><clipPath id="clip-path-61"><line class="cls-1" x1="77.28" y1="60.34" x2="173.57" y2="60.34"/></clipPath><clipPath id="clip-path-64"><path class="cls-2" d="M177.43,134.79c14,0,25.37-11.61,25.37-25.94s-11.35-25.93-25.37-25.93-25.38,11.61-25.38,25.93S163.41,134.79,177.43,134.79Z"/></clipPath><clipPath id="clip-path-66"><path class="cls-2" d="M176.67,128.93A20.08,20.08,0,1,0,157,108.85,19.86,19.86,0,0,0,176.67,128.93Z"/></clipPath><clipPath id="clip-path-69"><rect class="cls-1" x="91.21" y="57.83" width="21.54" height="6.69"/></clipPath><clipPath id="clip-path-71"><ellipse class="cls-1" cx="97.01" cy="61.17" rx="2.49" ry="2.51"/></clipPath></defs><title>icon design system</title><g class="cls-4"><rect class="cls-5" x="35.62" y="23.37" width="173.88" height="171.58"/></g><g class="cls-6"><g class="cls-7"><g class="cls-8"><g class="cls-9"><g class="cls-6"><g class="cls-10"><path class="cls-11" d="M81.29,37.75h82.78a8.33,8.33,0,0,1,8.28,8.37V173.27a8.33,8.33,0,0,1-8.28,8.36H81.29A8.32,8.32,0,0,1,73,173.27V46.12A8.32,8.32,0,0,1,81.29,37.75Z"/></g></g><g class="cls-10"><path class="cls-12" d="M81.29,37.75h82.78a8.33,8.33,0,0,1,8.28,8.37V173.26a8.33,8.33,0,0,1-8.28,8.37H81.29A8.32,8.32,0,0,1,73,173.26V46.12A8.32,8.32,0,0,1,81.29,37.75Z"/></g></g></g></g></g><g class="cls-13"><g class="cls-7"><rect class="cls-5" x="137.58" y="139.8" width="47.77" height="50.19"/></g></g><g class="cls-14"><g class="cls-7"><rect class="cls-11" x="135.51" y="139.8" width="45.82" height="47.79"/></g></g><g class="cls-7"><path class="cls-15" d="M146.63,178.71l26-27.72a1.68,1.68,0,0,0-.06-2.36,1.62,1.62,0,0,0-1.14-.46h-24.3a3.33,3.33,0,0,0-3.31,3.35v26a1.66,1.66,0,0,0,2.86,1.15Z"/><line class="cls-16" x1="135.51" y1="74.56" x2="162" y2="74.56"/><line class="cls-16" x1="135.51" y1="86.27" x2="156.41" y2="86.27"/><line class="cls-16" x1="135.51" y1="97.98" x2="156.41" y2="97.98"/><line class="cls-16" x1="135.51" y1="109.69" x2="156.41" y2="109.69"/><line class="cls-16" x1="135.51" y1="121.4" x2="156.41" y2="121.4"/><line class="cls-16" x1="136.44" y1="134.79" x2="160.8" y2="134.79"/></g><g class="cls-17"><g class="cls-7"><g class="cls-8"><g class="cls-18"><g class="cls-17"><g class="cls-19"><path class="cls-11" d="M85.83,72.88h41.39a1.68,1.68,0,0,1,0,3.35H85.83a1.68,1.68,0,0,1,0-3.35Z"/></g></g><g class="cls-19"><path class="cls-15" d="M85.82,72.88h41.4a1.68,1.68,0,0,1,0,3.35H85.82a1.68,1.68,0,0,1,0-3.35Z"/></g></g></g></g></g><g class="cls-20"><g class="cls-7"><g class="cls-8"><g class="cls-21"><g class="cls-20"><g class="cls-22"><path class="cls-11" d="M85.83,84.59h41.59a1.68,1.68,0,0,1,0,3.35H85.83a1.68,1.68,0,0,1,0-3.35Z"/></g></g><g class="cls-22"><path class="cls-15" d="M85.82,84.59h41.59a1.68,1.68,0,0,1,0,3.35H85.82a1.68,1.68,0,0,1,0-3.35Z"/></g></g></g></g></g><g class="cls-23"><g class="cls-7"><g class="cls-8"><g class="cls-24"><g class="cls-23"><g class="cls-25"><path class="cls-11" d="M85.83,96.31h41.59a1.67,1.67,0,0,1,0,3.34H85.83a1.67,1.67,0,0,1,0-3.34Z"/></g></g><g class="cls-25"><path class="cls-15" d="M85.82,96.31h41.59a1.67,1.67,0,0,1,0,3.34H85.82a1.67,1.67,0,0,1,0-3.34Z"/></g></g></g></g></g><g class="cls-26"><g class="cls-7"><g class="cls-8"><g class="cls-27"><g class="cls-26"><g class="cls-28"><path class="cls-11" d="M85.83,108h41.59a1.67,1.67,0,0,1,0,3.34H85.83a1.67,1.67,0,0,1,0-3.34Z"/></g></g><g class="cls-28"><path class="cls-15" d="M85.82,108h41.59a1.67,1.67,0,0,1,0,3.34H85.82a1.67,1.67,0,0,1,0-3.34Z"/></g></g></g></g></g><g class="cls-29"><g class="cls-7"><g class="cls-8"><g class="cls-30"><g class="cls-29"><g class="cls-31"><path class="cls-11" d="M85.83,119.73h41.59a1.68,1.68,0,0,1,0,3.35H85.83a1.68,1.68,0,0,1,0-3.35Z"/></g></g><g class="cls-31"><path class="cls-15" d="M85.82,119.73h41.59a1.68,1.68,0,0,1,0,3.35H85.82a1.68,1.68,0,0,1,0-3.35Z"/></g></g></g></g></g><g class="cls-32"><g class="cls-7"><g class="cls-8"><g class="cls-33"><g class="cls-32"><g class="cls-34"><path class="cls-11" d="M85.83,131.44h41.59a1.68,1.68,0,0,1,0,3.35H85.83a1.68,1.68,0,0,1,0-3.35Z"/></g></g><g class="cls-34"><path class="cls-15" d="M85.82,131.44h41.59a1.68,1.68,0,0,1,0,3.35H85.82a1.68,1.68,0,0,1,0-3.35Z"/></g></g></g></g></g><g class="cls-35"><g class="cls-7"><g class="cls-8"><g class="cls-36"><g class="cls-35"><g class="cls-37"><path class="cls-11" d="M85.83,143.15h41.59a1.68,1.68,0,0,1,0,3.35H85.83a1.68,1.68,0,0,1,0-3.35Z"/></g></g><g class="cls-37"><path class="cls-15" d="M85.82,143.15h41.59a1.68,1.68,0,0,1,0,3.35H85.82a1.68,1.68,0,0,1,0-3.35Z"/></g></g></g></g></g><g class="cls-38"><g class="cls-7"><g class="cls-8"><g class="cls-39"><g class="cls-38"><g class="cls-40"><path class="cls-11" d="M85.83,154.86h41.59a1.68,1.68,0,0,1,0,3.35H85.83a1.68,1.68,0,0,1,0-3.35Z"/></g></g><g class="cls-40"><path class="cls-15" d="M85.82,154.86h41.59a1.68,1.68,0,0,1,0,3.35H85.82a1.68,1.68,0,0,1,0-3.35Z"/></g></g></g></g></g><g class="cls-41"><g class="cls-7"><rect x="69" y="51.97" width="112.85" height="16.73"/></g></g><g class="cls-7"><line class="cls-42" x1="77.29" y1="60.34" x2="173.59" y2="60.34"/></g><g class="cls-43"><g class="cls-7"><rect class="cls-5" x="143.77" y="74.56" width="67.3" height="68.59"/></g></g><g class="cls-44"><g class="cls-7"><rect class="cls-11" x="148.74" y="80.41" width="55.84" height="56.88"/></g></g><g class="cls-7"><ellipse class="cls-45" cx="176.67" cy="108.85" rx="19.64" ry="20.08"/><polyline class="cls-46" points="164.07 108.36 172.75 116.38 187.25 103"/></g><g class="cls-47"><g class="cls-7"><rect class="cls-11" x="82.95" y="49.46" width="38.08" height="23.42"/></g></g><g class="cls-48"><g class="cls-7"><rect class="cls-5" x="86.26" y="50.3" width="21.52" height="21.75"/></g></g></svg>