<?xml version="1.0" encoding="UTF-8"?>
<svg width="20px" height="20px" viewBox="0 0 20 20" version="1.1" xmlns="http://www.w3.org/2000/svg" xmlns:xlink="http://www.w3.org/1999/xlink">
    <!-- Generator: Sketch 57.1 (83088) - https://sketch.com -->
    <title>icon/system/24/image</title>
    <desc>Created with Sketch.</desc>
    <g id="Atoms" stroke="none" stroke-width="1" fill="none" fill-rule="evenodd">
        <g id="Icons" transform="translate(-274.000000, -377.000000)">
            <g id="icon/system/24/image" transform="translate(272.000000, 375.000000)">
                <rect id="Path" fill-rule="nonzero" x="0" y="0" width="24" height="24"></rect>
                <path d="M19,2 C20.6568542,2 22,3.34314575 22,5 L22,19 C22,20.6568542 20.6568542,22 19,22 L5,22 C3.34314575,22 2,20.6568542 2,19 L2,5 C2,3.34314575 3.34314575,2 5,2 L19,2 Z M15.2928932,12.1213203 L11.7071068,15.7071068 C11.3700424,16.0441712 10.8419224,16.0964653 10.4452998,15.8320503 L8.80953596,14.7415411 C8.41291338,14.477126 7.88479337,14.5294202 7.54772898,14.8664846 L4,18.414 L4,19 C4,19.5522847 4.44771525,20 5,20 L19,20 C19.5522847,20 20,19.5522847 20,19 L20,15.415 L16.7071068,12.1213203 C16.3165825,11.7307961 15.6834175,11.7307961 15.2928932,12.1213203 Z M19,4 L5,4 C4.44771525,4 4,4.44771525 4,5 L4,15.584 L6.13351542,13.452271 C7.14470857,12.4410779 8.7290686,12.2841953 9.91893635,13.0774405 L10.8725821,13.7132043 L13.8786797,10.7071068 C15.0502525,9.53553391 16.9497475,9.53553391 18.1213203,10.7071068 L20,12.585 L20,5 C20,4.44771525 19.5522847,4 19,4 Z M7.5,6 C8.32842712,6 9,6.67157288 9,7.5 C9,8.32842712 8.32842712,9 7.5,9 C6.67157288,9 6,8.32842712 6,7.5 C6,6.67157288 6.67157288,6 7.5,6 Z" id="Color" fill="#160F3E" fill-rule="evenodd"></path>
            </g>
        </g>
    </g>
</svg>