<?xml version="1.0" encoding="UTF-8"?>
<svg width="22px" height="20px" viewBox="0 0 22 20" version="1.1" xmlns="http://www.w3.org/2000/svg" xmlns:xlink="http://www.w3.org/1999/xlink">
    <!-- Generator: Sketch 57.1 (83088) - https://sketch.com -->
    <title>icon/system/24/mail</title>
    <desc>Created with Sketch.</desc>
    <g id="Atoms" stroke="none" stroke-width="1" fill="none" fill-rule="evenodd">
        <g id="Icons" transform="translate(-465.000000, -323.000000)" fill-rule="nonzero">
            <g id="icon/system/24/mail" transform="translate(464.000000, 321.000000)">
                <rect id="Path" x="0" y="0" width="24" height="24"></rect>
                <path d="M20,2 C21.6522847,2 23,3.34771525 23,5 L23,19 C23,20.6522847 21.6522847,22 20,22 L4,22 C2.34771525,22 1,20.6522847 1,19 L1,5 C1,3.34771525 2.34771525,2 4,2 L20,2 Z M21,5.266 L12.6139406,11.7893522 C12.2528301,12.0702159 11.7471699,12.0702159 11.3860594,11.7893522 L3,5.267 L3,19 C3,19.5477153 3.45228475,20 4,20 L20,20 C20.5477153,20 21,19.5477153 21,19 L21,5.266 Z M19.37,4 L4.629,4 L12,9.73313842 L19.37,4 Z" id="Color" fill="#080808"></path>
            </g>
        </g>
    </g>
</svg>