<svg id="Layer_1" data-name="Layer 1" xmlns="http://www.w3.org/2000/svg" xmlns:xlink="http://www.w3.org/1999/xlink" viewBox="0 0 233.78 216.13"><defs><style>.cls-1,.cls-2,.cls-21,.cls-26,.cls-8{fill:none;}.cls-1{clip-rule:evenodd;}.cls-3{clip-path:url(#clip-path);}.cls-4{clip-path:url(#clip-path-2);}.cls-5{isolation:isolate;}.cls-6{clip-path:url(#clip-path-3);}.cls-7{clip-path:url(#clip-path-4);}.cls-21,.cls-26,.cls-8{stroke:#3ba07a;}.cls-26,.cls-8{stroke-miterlimit:10;}.cls-8{stroke-width:3.75px;}.cls-9{clip-path:url(#clip-path-5);}.cls-10{clip-path:url(#clip-path-7);}.cls-11{clip-path:url(#clip-path-8);}.cls-12{clip-path:url(#clip-path-9);}.cls-13{clip-path:url(#clip-path-11);}.cls-14{clip-path:url(#clip-path-12);}.cls-15{clip-path:url(#clip-path-13);}.cls-16{clip-path:url(#clip-path-15);}.cls-17{clip-path:url(#clip-path-16);}.cls-18{clip-path:url(#clip-path-17);}.cls-19{clip-path:url(#clip-path-19);}.cls-20{clip-path:url(#clip-path-20);}.cls-21{stroke-linecap:round;stroke-linejoin:round;stroke-width:1.88px;}.cls-22{clip-path:url(#clip-path-22);}.cls-23{fill:#fff;}.cls-24{clip-path:url(#clip-path-24);}.cls-25{fill:#3ba07a;}.cls-26{stroke-width:1.5px;}.cls-27{clip-path:url(#clip-path-27);}.cls-28{clip-path:url(#clip-path-29);}</style><clipPath id="clip-path"><path class="cls-1" d="M39,93H153a3.27,3.27,0,0,1,3.25,3.28v75.54a3.27,3.27,0,0,1-3.25,3.28H39a3.27,3.27,0,0,1-3.24-3.28V96.27A3.27,3.27,0,0,1,39,93Z"/></clipPath><clipPath id="clip-path-2"><rect class="cls-2" x="32.43" y="50.9" width="147.75" height="125.59"/></clipPath><clipPath id="clip-path-3"><rect class="cls-2" x="34.61" y="91.71" width="122.08" height="85.02"/></clipPath><clipPath id="clip-path-4"><rect class="cls-2" x="35.7" y="92.99" width="121" height="82.1"/></clipPath><clipPath id="clip-path-5"><path class="cls-1" d="M78.08,119.26h35.84a3.27,3.27,0,0,1,3.27,3.28v49.27a3.27,3.27,0,0,1-3.27,3.28H78.08a3.27,3.27,0,0,1-3.25-3.28V122.54A3.27,3.27,0,0,1,78.08,119.26Z"/></clipPath><clipPath id="clip-path-7"><rect class="cls-2" x="73.85" y="117.87" width="43.6" height="58.86"/></clipPath><clipPath id="clip-path-8"><rect class="cls-2" x="74.79" y="119.26" width="42.66" height="55.83"/></clipPath><clipPath id="clip-path-9"><path class="cls-1" d="M123.71,102.84h17.92a3.27,3.27,0,0,1,3.25,3.28v16.42a3.27,3.27,0,0,1-3.25,3.29H123.71a3.28,3.28,0,0,1-3.27-3.29V106.12A3.27,3.27,0,0,1,123.71,102.84Z"/></clipPath><clipPath id="clip-path-11"><rect class="cls-2" x="119.63" y="102.61" width="26.16" height="23.98"/></clipPath><clipPath id="clip-path-12"><rect class="cls-2" x="120.39" y="102.84" width="25.39" height="22.99"/></clipPath><clipPath id="clip-path-13"><path class="cls-1" d="M52,102.84H70a3.27,3.27,0,0,1,3.25,3.28v16.42A3.27,3.27,0,0,1,70,125.83H52a3.28,3.28,0,0,1-3.27-3.29V106.12A3.27,3.27,0,0,1,52,102.84Z"/></clipPath><clipPath id="clip-path-15"><rect class="cls-2" x="47.69" y="102.61" width="26.16" height="23.98"/></clipPath><clipPath id="clip-path-16"><rect class="cls-2" x="48.72" y="102.84" width="25.13" height="22.99"/></clipPath><clipPath id="clip-path-17"><path class="cls-1" d="M35.75,73.28H156.28a3.28,3.28,0,0,1,3.27,3.29V93a3.27,3.27,0,0,1-3.27,3.28H35.75A3.27,3.27,0,0,1,32.48,93V76.57A3.28,3.28,0,0,1,35.75,73.28Z"/></clipPath><clipPath id="clip-path-19"><rect class="cls-2" x="32.43" y="72.09" width="128.62" height="26.16"/></clipPath><clipPath id="clip-path-20"><rect class="cls-2" x="32.43" y="73.28" width="128.62" height="22.99"/></clipPath><clipPath id="clip-path-22"><path class="cls-1" d="M157.32,170.16c12.1,0,21.91-10.29,21.91-23s-9.81-23-21.91-23-21.93,10.29-21.93,23S145.2,170.16,157.32,170.16Z"/></clipPath><clipPath id="clip-path-24"><path class="cls-1" d="M167.31,137.87,154.9,151l-6-6.38a1.72,1.72,0,0,0-2.47,0,1.86,1.86,0,0,0,0,2.56l7.26,7.69a1.69,1.69,0,0,0,2.46,0l0,0,13.64-14.45a1.85,1.85,0,0,0,0-2.55,1.69,1.69,0,0,0-2.46,0"/></clipPath><clipPath id="clip-path-27"><rect class="cls-2" x="48.72" y="170.16" width="22.8" height="6.57"/></clipPath><clipPath id="clip-path-29"><path class="cls-1" d="M54.43,175.91A2.46,2.46,0,1,0,52,173.45,2.45,2.45,0,0,0,54.43,175.91Z"/></clipPath></defs><title>icon design system</title><g class="cls-3"><g class="cls-4"><g class="cls-5"><g class="cls-6"><g class="cls-7"><path class="cls-8" d="M39,93H153a3.27,3.27,0,0,1,3.26,3.28v75.54a3.27,3.27,0,0,1-3.26,3.28H39a3.26,3.26,0,0,1-3.25-3.28V96.27A3.26,3.26,0,0,1,39,93Z"/></g></g></g></g></g><g class="cls-9"><g class="cls-4"><g class="cls-5"><g class="cls-10"><g class="cls-11"><path class="cls-8" d="M78.09,119.26h35.84a3.27,3.27,0,0,1,3.26,3.28v49.27a3.27,3.27,0,0,1-3.26,3.28H78.09a3.27,3.27,0,0,1-3.26-3.28V122.54A3.27,3.27,0,0,1,78.09,119.26Z"/></g></g></g></g></g><g class="cls-12"><g class="cls-4"><g class="cls-5"><g class="cls-13"><g class="cls-14"><path class="cls-8" d="M123.7,102.84h17.92a3.27,3.27,0,0,1,3.25,3.28v16.42a3.27,3.27,0,0,1-3.25,3.29H123.7a3.27,3.27,0,0,1-3.26-3.29V106.12A3.27,3.27,0,0,1,123.7,102.84Z"/></g></g></g></g></g><g class="cls-15"><g class="cls-4"><g class="cls-5"><g class="cls-16"><g class="cls-17"><path class="cls-8" d="M52,102.84H69.94a3.26,3.26,0,0,1,3.25,3.28v16.42a3.27,3.27,0,0,1-3.25,3.29H52a3.27,3.27,0,0,1-3.26-3.29V106.12A3.27,3.27,0,0,1,52,102.84Z"/></g></g></g></g></g><g class="cls-18"><g class="cls-4"><g class="cls-5"><g class="cls-19"><g class="cls-20"><path class="cls-8" d="M35.73,73.28H156.28a3.27,3.27,0,0,1,3.26,3.29V93a3.27,3.27,0,0,1-3.26,3.28H35.73A3.26,3.26,0,0,1,32.48,93V76.57A3.27,3.27,0,0,1,35.73,73.28Z"/></g></g></g></g></g><g class="cls-4"><polyline class="cls-21" points="35.74 74.92 52.31 53.58 139.73 53.58 156.29 74.92"/></g><g class="cls-22"><g class="cls-4"><rect class="cls-23" x="127.24" y="115.98" width="60.13" height="62.4"/></g></g><g class="cls-24"><g class="cls-4"><rect class="cls-25" x="137.75" y="129.11" width="40.69" height="34.48"/></g></g><g class="cls-4"><path class="cls-26" d="M158.08,165.24c9.95,0,18-8.46,18-18.88s-8.06-18.89-18-18.89-18,8.46-18,18.89S148.14,165.24,158.08,165.24Z"/></g><g class="cls-27"><g class="cls-4"><rect class="cls-23" x="40.59" y="161.95" width="39.1" height="22.99"/></g></g><g class="cls-28"><g class="cls-4"><rect class="cls-25" x="43.83" y="162.78" width="21.18" height="21.35"/></g></g></svg>