<svg id="Layer_1" data-name="Layer 1" xmlns="http://www.w3.org/2000/svg" xmlns:xlink="http://www.w3.org/1999/xlink" viewBox="0 0 233.78 216.13"><defs><style>.cls-1,.cls-2{fill:none;}.cls-2{clip-rule:evenodd;}.cls-3{clip-path:url(#clip-path);}.cls-4{clip-path:url(#clip-path-2);}.cls-5{fill:#3ba07a;}.cls-6{clip-path:url(#clip-path-3);}.cls-7{clip-path:url(#clip-path-5);}.cls-8{clip-path:url(#clip-path-7);}.cls-9{clip-path:url(#clip-path-9);}.cls-10{clip-path:url(#clip-path-11);}.cls-11{clip-path:url(#clip-path-13);}.cls-12{clip-path:url(#clip-path-15);}.cls-13{clip-path:url(#clip-path-17);}.cls-14{clip-path:url(#clip-path-19);}.cls-15{fill:#fff;}.cls-16{clip-path:url(#clip-path-21);}.cls-17{clip-path:url(#clip-path-23);}.cls-18{clip-path:url(#clip-path-25);}</style><clipPath id="clip-path"><path class="cls-1" d="M121,55.31V65.58a0,0,0,0,1,0,0H66.75a0,0,0,0,1,0,0V55.31s0,0,0,0H83.68a1.76,1.76,0,0,0,1.74-1.76V48.3a8.66,8.66,0,0,1,4.19-7.61,8.29,8.29,0,0,1,8.54,0,8.68,8.68,0,0,1,4.19,7.61v5.21a1.75,1.75,0,0,0,1.74,1.76H121S121,55.29,121,55.31Zm-.7,94.6a4,4,0,0,1,3.93-4h6.65s.05,0,0,.06L120.4,156.73a0,0,0,0,1-.06,0Zm27.93-68.22A1.74,1.74,0,0,0,150,79.92V50.61a7.48,7.48,0,0,0-7.39-7.55H104.67l0,0a11.83,11.83,0,0,0-21.52,0l0,0H45.15a7.49,7.49,0,0,0-7.39,7.55V170.89a7.48,7.48,0,0,0,7.39,7.55H142.6a7.47,7.47,0,0,0,7.39-7.55V97.51a1.74,1.74,0,0,0-1.72-1.77,1.76,1.76,0,0,0-1.75,1.77v73.38a4,4,0,0,1-3.92,4H45.15a4,4,0,0,1-3.92-4V50.61a4,4,0,0,1,3.92-4H82a0,0,0,0,1,0,0A13.1,13.1,0,0,0,82,48.3v3.4s0,0,0,0H65a1.75,1.75,0,0,0-1.74,1.77V59a0,0,0,0,1,0,0H55.47a4.61,4.61,0,0,0-4.56,4.66v94.21a4.6,4.6,0,0,0,4.56,4.65h62a4.68,4.68,0,0,0,.67,0,1.65,1.65,0,0,0,.42,0,1.74,1.74,0,0,0,1.31-.6,5.06,5.06,0,0,0,1.22-.93l14.23-14.51a5.19,5.19,0,0,0,1.49-3.7V106.32a1.74,1.74,0,1,0-3.47,0v36s0,0,0,0h-9.07a7.48,7.48,0,0,0-7.39,7.55v9a0,0,0,0,1,0,0H55.47a1.14,1.14,0,0,1-1.12-1.13V63.65a1.14,1.14,0,0,1,1.12-1.13h7.74a0,0,0,0,1,0,0v4.82A1.75,1.75,0,0,0,65,69.15h57.77a1.76,1.76,0,0,0,1.75-1.77V62.56s0,0,0,0h7.75a1.14,1.14,0,0,1,1.11,1.13V88.73a1.74,1.74,0,0,0,1.72,1.77,1.76,1.76,0,0,0,1.75-1.77V63.65A4.64,4.64,0,0,0,132.29,59h-7.75s0,0,0,0V53.51a1.76,1.76,0,0,0-1.75-1.77H105.84a0,0,0,0,1,0,0V48.3a15.25,15.25,0,0,0-.1-1.66s0,0,0,0H142.6a4,4,0,0,1,3.92,4V79.92A1.76,1.76,0,0,0,148.27,81.69Z"/></clipPath><clipPath id="clip-path-2"><rect class="cls-1" x="36.76" y="36.32" width="146.06" height="143.44"/></clipPath><clipPath id="clip-path-3"><path class="cls-1" d="M123.68,84.6h-7.33a1.57,1.57,0,1,0,0,3.13h7.33a1.57,1.57,0,1,0,0-3.13Z"/></clipPath><clipPath id="clip-path-5"><path class="cls-1" d="M111.56,86.17a1.65,1.65,0,0,0-1.72-1.57H84.07a1.57,1.57,0,1,0,0,3.13h25.77A1.65,1.65,0,0,0,111.56,86.17Z"/></clipPath><clipPath id="clip-path-7"><path class="cls-1" d="M65.56,87.73H76.09a1.57,1.57,0,1,0,0-3.13H65.56a1.57,1.57,0,1,0,0,3.13Z"/></clipPath><clipPath id="clip-path-9"><path class="cls-1" d="M106.94,101.81a1.64,1.64,0,0,0-1.7-1.57H74.85a1.57,1.57,0,1,0,0,3.13h30.39A1.64,1.64,0,0,0,106.94,101.81Z"/></clipPath><clipPath id="clip-path-11"><path class="cls-1" d="M65.49,103.37h2.86A1.65,1.65,0,0,0,70,102a1.57,1.57,0,0,0-1.57-1.79h-3a1.57,1.57,0,1,0,0,3.13Z"/></clipPath><clipPath id="clip-path-13"><path class="cls-1" d="M88.49,117.45a1.67,1.67,0,0,0-1.76-1.57H65.67a1.58,1.58,0,1,0,0,3.13H86.73A1.67,1.67,0,0,0,88.49,117.45Z"/></clipPath><clipPath id="clip-path-15"><path class="cls-1" d="M65.71,131.52a1.58,1.58,0,1,0,0,3.13h8.68a1.58,1.58,0,1,0,0-3.13Z"/></clipPath><clipPath id="clip-path-17"><path class="cls-1" d="M177.55,74.91l-.42.31-5.6-9.93.39-.31A3.38,3.38,0,0,1,177,66.2L178.61,69A4.71,4.71,0,0,1,177.55,74.91Zm-62.39,42.5-2-3.21a0,0,0,0,1,0,0l59.35-40.47s0,0,.05,0l2.05,3.22a0,0,0,0,1,0,0l-59.37,40.48A0,0,0,0,1,115.16,117.41ZM102.37,119l4.6-9.27a0,0,0,0,1,.06,0l2.24,4,2.26,4s0,0,0,0L102.4,119S102.35,119,102.37,119Zm62.47-48.41h0l4.55-3.11s0,0,.05,0l2,3.22s0,0,0,0l-59.37,40.47a0,0,0,0,1,0,0l-2-3.22s0,0,0,0Zm16.24-3.27L179.4,64.6a7.18,7.18,0,0,0-10.18-2.2l-1.88,1.29L164.05,66l-3.46,2.37-54.46,37.36-.09.06s0,0,0,0a1,1,0,0,0-.15.14h0a1,1,0,0,0-.13.16s0,0,0,0a.39.39,0,0,0-.08.14s0,0,0,0l-7.82,14.08h0l-2.2,1.51a1.91,1.91,0,0,0-.75,2.33,1.69,1.69,0,0,0,2.52.76l2.31-1.59h0l15.49-1.91h0l.09,0,.15,0,.09,0,.13-.06a.36.36,0,0,0,.09,0l.13-.07,0,0L179,77.9A7.89,7.89,0,0,0,181.08,67.27Z"/></clipPath><clipPath id="clip-path-19"><path class="cls-2" d="M137.56,89.28l12.38-8.6a0,0,0,0,1,.06,0l.53,4.24s0,0,0,0L138,93.59s-.06,0-.06,0l-.4-4.24S137.55,89.29,137.56,89.28Z"/></clipPath><clipPath id="clip-path-21"><path class="cls-2" d="M136.32,98.44l12.46-8.71s.06,0,.06,0V94.5s0,0,0,0l-11.91,8.12a0,0,0,0,1,0,0l-.56-4.15A.05.05,0,0,1,136.32,98.44Z"/></clipPath><clipPath id="clip-path-23"><rect class="cls-1" x="52.13" y="173.75" width="21.54" height="6.26" rx="0.03"/></clipPath><clipPath id="clip-path-25"><path class="cls-2" d="M57.52,179.22a2.35,2.35,0,1,0-2.32-2.35A2.34,2.34,0,0,0,57.52,179.22Z"/></clipPath></defs><title>icon design system</title><g class="cls-3"><g class="cls-4"><rect class="cls-5" x="30.07" y="28.3" width="127.61" height="157.95"/></g></g><g class="cls-6"><g class="cls-4"><rect class="cls-5" x="106.94" y="76.78" width="26.14" height="18.77"/></g></g><g class="cls-7"><g class="cls-4"><rect class="cls-5" x="74.65" y="76.78" width="44.59" height="18.77"/></g></g><g class="cls-8"><g class="cls-4"><rect class="cls-5" x="56.21" y="76.78" width="29.21" height="18.77"/></g></g><g class="cls-9"><g class="cls-4"><rect class="cls-5" x="65.43" y="92.42" width="49.2" height="18.77"/></g></g><g class="cls-10"><g class="cls-4"><rect class="cls-5" x="56.21" y="92.42" width="21.52" height="18.77"/></g></g><g class="cls-11"><g class="cls-4"><rect class="cls-5" x="56.21" y="108.06" width="39.97" height="18.77"/></g></g><g class="cls-12"><g class="cls-4"><rect class="cls-5" x="56.21" y="123.7" width="27.67" height="18.77"/></g></g><g class="cls-13"><g class="cls-4"><rect class="cls-5" x="86.97" y="53.33" width="103.01" height="79.76"/></g></g><g class="cls-14"><g class="cls-4"><rect class="cls-15" x="129.85" y="72.83" width="28.38" height="28.61"/></g></g><g class="cls-16"><g class="cls-4"><rect class="cls-15" x="128.61" y="81.87" width="27.91" height="28.63"/></g></g><g class="cls-17"><g class="cls-4"><rect class="cls-15" x="44.46" y="165.93" width="36.9" height="21.89"/></g></g><g class="cls-18"><g class="cls-4"><rect class="cls-5" x="47.53" y="166.71" width="19.99" height="20.33"/></g></g></svg>