<svg id="Layer_1" data-name="Layer 1" xmlns="http://www.w3.org/2000/svg" xmlns:xlink="http://www.w3.org/1999/xlink" viewBox="0 0 233.78 216.13"><defs><style>.cls-1,.cls-2{fill:none;}.cls-2{clip-rule:evenodd;}.cls-3{clip-path:url(#clip-path);}.cls-4{clip-path:url(#clip-path-2);}.cls-5{fill:#3ba07a;}.cls-6{clip-path:url(#clip-path-3);}.cls-7{clip-path:url(#clip-path-5);}.cls-8{clip-path:url(#clip-path-7);}.cls-9{clip-path:url(#clip-path-9);}.cls-10{clip-path:url(#clip-path-11);}.cls-11{clip-path:url(#clip-path-13);}.cls-12{clip-path:url(#clip-path-15);}.cls-13{clip-path:url(#clip-path-17);}.cls-14{fill:#fff;}.cls-15{clip-path:url(#clip-path-19);}</style><clipPath id="clip-path"><path class="cls-1" d="M180.3,105.84V92.55a1.94,1.94,0,0,0-2-1.91H63.8a1.94,1.94,0,0,0-2,1.9v53.4a1.93,1.93,0,0,0,2,1.9l86.24,0a1.91,1.91,0,1,0,0-3.81l-84.28,0V94.45H176.37v11.38a2,2,0,0,0,3.93,0Z"/></clipPath><clipPath id="clip-path-2"><rect class="cls-1" x="60.83" y="60.15" width="137.34" height="117.47"/></clipPath><clipPath id="clip-path-3"><path class="cls-1" d="M72.87,68.13A1.93,1.93,0,0,0,72,69.35L67.55,89.78A2,2,0,0,0,69,92.1a1.93,1.93,0,0,0,2.29-1.48l4-18.52,87.51,20a1.58,1.58,0,0,0,.43,0,1.94,1.94,0,0,0,1.92-1.94,2,2,0,0,0-1.5-1.9L74.31,67.88A1.93,1.93,0,0,0,72.87,68.13Z"/></clipPath><clipPath id="clip-path-5"><path class="cls-1" d="M93.92,71.68l3.78-7.22,53.43,21.29a2,2,0,0,0,2.59-1,1.86,1.86,0,0,0-1.07-2.47l-55.13-22a2,2,0,0,0-2.53.9L90.39,70a1.85,1.85,0,0,0,.81,2.56,2,2,0,0,0,2.68-.77s0-.07,0-.11Z"/></clipPath><clipPath id="clip-path-7"><path class="cls-1" d="M155.29,101.37a2,2,0,0,0-1.89-2.15H135.93a2.17,2.17,0,0,0,0,4.29H153.4A2,2,0,0,0,155.29,101.37Z"/></clipPath><clipPath id="clip-path-9"><path class="cls-1" d="M118.47,102.86a16.38,16.38,0,1,1-16.22,16.38A16.3,16.3,0,0,1,118.47,102.86Zm0,36.4a20,20,0,1,0-19.81-20A19.92,19.92,0,0,0,118.47,139.26Z"/></clipPath><clipPath id="clip-path-11"><path class="cls-1" d="M173,173.32c-13.19,0-19.94-3.33-20.27-4.56v-3.59c4.8,2.45,12.71,3.59,20.27,3.59s15.48-1.15,20.28-3.59v3.55C192.92,170,186.16,173.32,173,173.32Zm0-63.82c13.06,0,19.82,3.27,20.28,4.56-.46,1.29-7.22,4.56-20.28,4.56s-19.92-3.32-20.27-4.52v0C153.07,112.82,159.83,109.5,173,109.5Zm20.28,13.64c-.35,1.26-7.11,4.59-20.28,4.59s-19.94-3.33-20.27-4.56v-3.58c4.8,2.43,12.71,3.58,20.27,3.58s15.48-1.15,20.28-3.58Zm0,9.12c-.35,1.26-7.11,4.59-20.28,4.59s-19.94-3.33-20.27-4.56v-3.58c4.8,2.43,12.71,3.58,20.27,3.58s15.48-1.15,20.28-3.58Zm0,9.11c-.35,1.27-7.11,4.6-20.28,4.6s-19.94-3.33-20.27-4.56v-3.59c4.8,2.45,12.71,3.59,20.27,3.59s15.48-1.15,20.28-3.59Zm0,9.12c-.35,1.26-7.11,4.59-20.28,4.59s-19.94-3.33-20.27-4.56v-3.58c4.8,2.44,12.71,3.58,20.27,3.58s15.48-1.15,20.28-3.58Zm0,9.12c-.35,1.26-7.11,4.59-20.28,4.59s-19.94-3.33-20.27-4.56v-3.58c4.8,2.44,12.71,3.58,20.27,3.58s15.48-1.15,20.28-3.58ZM173,104.94c-11.94,0-24.78,2.85-24.78,9.12v54.7c0,6.26,12.84,9.11,24.78,9.11s24.77-2.85,24.77-9.11v-54.7C197.76,107.79,184.92,104.94,173,104.94Z"/></clipPath><clipPath id="clip-path-13"><path class="cls-1" d="M83.22,103.09H99.55a1.94,1.94,0,1,0,0-3.87H82.44a1.94,1.94,0,0,0-1.38.55l-10.13,9.85a2.32,2.32,0,0,0-.59,1.58v16.08a1.93,1.93,0,0,0,.5,1.31l9.24,10a1.93,1.93,0,0,0,1.44.63h18a1.94,1.94,0,1,0,0-3.87H82.37l-8.13-8.86v-14.7Z"/></clipPath><clipPath id="clip-path-15"><path class="cls-1" d="M119.13,122.58h-5.3a2.23,2.23,0,0,0,0,4.45h2.11a2.13,2.13,0,1,0,4.25,0v-.1a5.09,5.09,0,0,0,4.25-4.9,5.16,5.16,0,0,0-5.31-5H117c-.65,0-1.07-.39-1.07-.56s.42-.56,1.07-.56h5.3a2.23,2.23,0,0,0,0-4.45h-2.12a2.13,2.13,0,1,0-4.25,0v.11a5.09,5.09,0,0,0-4.25,4.89,5.17,5.17,0,0,0,5.32,5h2.12c.67,0,1.06.38,1.06.55S119.8,122.58,119.13,122.58Z"/></clipPath><clipPath id="clip-path-17"><rect class="cls-1" x="76.29" y="143.25" width="24.02" height="6.92"/></clipPath><clipPath id="clip-path-19"><path class="cls-2" d="M82.28,149.31a2.6,2.6,0,1,0-2.57-2.6A2.59,2.59,0,0,0,82.28,149.31Z"/></clipPath></defs><title>icon design system</title><g class="cls-3"><g class="cls-4"><rect class="cls-5" x="53.27" y="81.98" width="135.63" height="74.55"/></g></g><g class="cls-6"><g class="cls-4"><rect class="cls-5" x="58.91" y="59.18" width="114.86" height="41.62"/></g></g><g class="cls-7"><g class="cls-4"><rect class="cls-5" x="81.56" y="51.5" width="80.88" height="43.05"/></g></g><g class="cls-8"><g class="cls-4"><rect class="cls-5" x="125.47" y="90.56" width="38.41" height="21.6"/></g></g><g class="cls-9"><g class="cls-4"><rect class="cls-5" x="90.07" y="90.56" width="56.81" height="57.35"/></g></g><g class="cls-10"><g class="cls-4"><rect class="cls-5" x="139.62" y="96.28" width="66.72" height="90.25"/></g></g><g class="cls-11"><g class="cls-4"><rect class="cls-5" x="61.75" y="90.56" width="48.32" height="57.35"/></g></g><g class="cls-12"><g class="cls-4"><rect class="cls-5" x="103.12" y="100.57" width="29.91" height="37.33"/></g></g><g class="cls-13"><g class="cls-4"><rect class="cls-14" x="67.7" y="134.6" width="41.2" height="24.24"/></g></g><g class="cls-15"><g class="cls-4"><rect class="cls-5" x="71.14" y="135.46" width="22.32" height="22.51"/></g></g></svg>