<svg id="Layer_1" data-name="Layer 1" xmlns="http://www.w3.org/2000/svg" xmlns:xlink="http://www.w3.org/1999/xlink" viewBox="0 0 233.78 216.13"><defs><style>.cls-1,.cls-2{fill:none;}.cls-2{clip-rule:evenodd;}.cls-3{clip-path:url(#clip-path);}.cls-4{clip-path:url(#clip-path-2);}.cls-5{fill:#16103e;}.cls-6{clip-path:url(#clip-path-3);}.cls-7{clip-path:url(#clip-path-5);}.cls-8{clip-path:url(#clip-path-7);}.cls-9{clip-path:url(#clip-path-9);}.cls-10{clip-path:url(#clip-path-11);}.cls-11{fill:#3ba07a;}.cls-12{clip-path:url(#clip-path-13);}.cls-13{clip-path:url(#clip-path-15);}.cls-14{clip-path:url(#clip-path-17);}.cls-15{fill:#fff;}.cls-16{clip-path:url(#clip-path-19);}</style><clipPath id="clip-path"><path class="cls-1" d="M165.68,101.54V87.26a2.08,2.08,0,0,0-2.11-2.05H39.94a2.09,2.09,0,0,0-2.11,2.05v57.35a2.08,2.08,0,0,0,2.11,2l93.09,0a2.05,2.05,0,1,0,0-4.1l-91,0V89.31h119.4v12.22a2.11,2.11,0,0,0,4.22,0Z"/></clipPath><clipPath id="clip-path-2"><rect class="cls-1" x="37.04" y="52.47" width="147.94" height="126.06"/></clipPath><clipPath id="clip-path-3"><path class="cls-1" d="M49.73,61a2,2,0,0,0-.91,1.31L44,84.29a2.08,2.08,0,0,0,1.57,2.49A2.06,2.06,0,0,0,48,85.19L52.39,65.3l94.48,21.48a2.4,2.4,0,0,0,.46,0,2.1,2.1,0,0,0,.46-4.13L51.28,60.77A2.07,2.07,0,0,0,49.73,61Z"/></clipPath><clipPath id="clip-path-5"><path class="cls-1" d="M72.47,64.85l4-7.75L134.21,80A2.16,2.16,0,0,0,137,78.87a2,2,0,0,0-1.14-2.65L76.33,52.63a2.19,2.19,0,0,0-2.73,1L68.65,63a2,2,0,0,0,.85,2.75A2.2,2.2,0,0,0,72.4,65l.07-.12Z"/></clipPath><clipPath id="clip-path-7"><path class="cls-1" d="M138.7,96.74a2.19,2.19,0,0,0-2-2.31H117.79a2.32,2.32,0,0,0,0,4.61h18.86A2.19,2.19,0,0,0,138.7,96.74Z"/></clipPath><clipPath id="clip-path-9"><path class="cls-1" d="M99,98.34a17.6,17.6,0,1,1-17.5,17.59A17.55,17.55,0,0,1,99,98.34Zm0,39.1a21.51,21.51,0,1,0-21.38-21.51A21.46,21.46,0,0,0,99,137.44Z"/></clipPath><clipPath id="clip-path-11"><path class="cls-1" d="M157.79,174c-14.21,0-21.51-3.58-21.88-4.9v-3.85c5.18,2.63,13.73,3.85,21.88,3.85s16.72-1.24,21.89-3.85v3.81C179.31,170.44,172,174,157.79,174Zm0-68.55c14.11,0,21.39,3.51,21.89,4.9-.5,1.38-7.78,4.89-21.89,4.89s-21.49-3.56-21.88-4.85h0C136.3,109,143.6,105.47,157.79,105.47Zm21.89,14.65c-.37,1.36-7.67,4.94-21.89,4.94s-21.51-3.58-21.88-4.9v-3.85c5.18,2.61,13.73,3.85,21.88,3.85s16.72-1.24,21.89-3.85Zm0,9.79c-.37,1.36-7.67,4.94-21.89,4.94s-21.51-3.58-21.88-4.9V126.1c5.18,2.62,13.73,3.85,21.88,3.85s16.72-1.23,21.89-3.85Zm0,9.8c-.37,1.36-7.67,4.93-21.89,4.93s-21.51-3.57-21.88-4.9v-3.85c5.18,2.63,13.73,3.85,21.88,3.85s16.72-1.23,21.89-3.85Zm0,9.79c-.37,1.36-7.67,4.93-21.89,4.93s-21.51-3.57-21.88-4.89v-3.85c5.18,2.62,13.73,3.85,21.88,3.85s16.72-1.24,21.89-3.86Zm0,9.79c-.37,1.36-7.67,4.93-21.89,4.93s-21.51-3.57-21.88-4.89v-3.85c5.18,2.62,13.73,3.85,21.88,3.85s16.72-1.24,21.89-3.85Zm-21.89-58.72c-12.88,0-26.75,3.07-26.75,9.8v58.75c0,6.73,13.87,9.79,26.75,9.79s26.75-3.06,26.75-9.79V110.37C184.54,103.64,170.68,100.57,157.79,100.57Z"/></clipPath><clipPath id="clip-path-13"><path class="cls-1" d="M60.91,98.59h17.6a2.08,2.08,0,1,0,0-4.16H60a2.1,2.1,0,0,0-1.46.59L47.64,105.6a2.54,2.54,0,0,0-.63,1.7v17.27a2.06,2.06,0,0,0,.54,1.4l10,10.79a2.12,2.12,0,0,0,1.55.68H78.51a2.08,2.08,0,1,0,0-4.16H60l-8.79-9.52V108Z"/></clipPath><clipPath id="clip-path-15"><path class="cls-1" d="M99.65,119.52H93.94a2.39,2.39,0,0,0,0,4.78h2.29a2.29,2.29,0,1,0,4.58,0v-.11a5.46,5.46,0,0,0,4.58-5.26,5.56,5.56,0,0,0-5.74-5.38H97.36c-.69,0-1.13-.42-1.13-.6s.44-.6,1.13-.6h5.74a2.39,2.39,0,0,0,0-4.78h-2.29a2.29,2.29,0,1,0-4.58,0v.11a5.5,5.5,0,0,0-4.6,5.26,5.56,5.56,0,0,0,5.73,5.38h2.29c.72,0,1.16.42,1.16.6S100.37,119.52,99.65,119.52Z"/></clipPath><clipPath id="clip-path-17"><rect class="cls-1" x="53.41" y="141.72" width="25.94" height="7.44"/></clipPath><clipPath id="clip-path-19"><path class="cls-2" d="M59.89,148.23a2.79,2.79,0,1,0-2.77-2.79A2.78,2.78,0,0,0,59.89,148.23Z"/></clipPath></defs><title>icon design system</title><g class="cls-3"><g class="cls-4"><rect class="cls-5" x="28.56" y="75.92" width="146.4" height="80.07"/></g></g><g class="cls-6"><g class="cls-4"><rect class="cls-5" x="34.67" y="51.42" width="123.98" height="44.71"/></g></g><g class="cls-7"><g class="cls-4"><rect class="cls-5" x="59.13" y="43.18" width="87.3" height="46.24"/></g></g><g class="cls-8"><g class="cls-4"><rect class="cls-5" x="106.5" y="85.13" width="41.45" height="23.2"/></g></g><g class="cls-9"><g class="cls-4"><rect class="cls-5" x="68.3" y="85.13" width="61.32" height="61.6"/></g></g><g class="cls-10"><g class="cls-4"><rect class="cls-11" x="121.78" y="91.28" width="72.02" height="96.93"/></g></g><g class="cls-12"><g class="cls-4"><rect class="cls-5" x="37.74" y="85.13" width="52.15" height="61.6"/></g></g><g class="cls-13"><g class="cls-4"><rect class="cls-5" x="82.37" y="95.89" width="32.28" height="40.1"/></g></g><g class="cls-14"><g class="cls-4"><rect class="cls-15" x="44.15" y="132.43" width="44.47" height="26.03"/></g></g><g class="cls-16"><g class="cls-4"><rect class="cls-5" x="47.86" y="133.36" width="24.09" height="24.17"/></g></g></svg>