<svg id="Layer_1" data-name="Layer 1" xmlns="http://www.w3.org/2000/svg" xmlns:xlink="http://www.w3.org/1999/xlink" viewBox="0 0 233.78 216.13"><defs><style>.cls-1,.cls-14,.cls-16,.cls-17,.cls-19,.cls-2,.cls-3,.cls-8{fill:none;}.cls-2{clip-rule:evenodd;}.cls-3{fill-rule:evenodd;}.cls-4{clip-path:url(#clip-path);}.cls-5{clip-path:url(#clip-path-2);}.cls-6{fill:#d7d7d7;opacity:0.5;}.cls-7{clip-path:url(#clip-path-3);}.cls-19,.cls-8{stroke:#16103e;}.cls-8{stroke-linejoin:round;}.cls-14,.cls-8{stroke-width:4.18px;}.cls-9{clip-path:url(#clip-path-5);}.cls-10{isolation:isolate;}.cls-11{clip-path:url(#clip-path-7);}.cls-12{clip-path:url(#clip-path-9);}.cls-13{fill:#fff;}.cls-14,.cls-17{stroke:#3ba07a;}.cls-14,.cls-16,.cls-17,.cls-19{stroke-miterlimit:10;}.cls-15{clip-path:url(#clip-path-11);}.cls-16{stroke:#fff;stroke-width:0.84px;}.cls-17{stroke-width:2.09px;}.cls-18{clip-path:url(#clip-path-14);}.cls-19{stroke-width:1.67px;}.cls-20{clip-path:url(#clip-path-17);}.cls-21{clip-path:url(#clip-path-20);}.cls-22{fill:#3ba07a;}.cls-23{clip-path:url(#clip-path-22);}.cls-24{clip-path:url(#clip-path-24);}.cls-25{clip-path:url(#clip-path-26);}.cls-26{clip-path:url(#clip-path-28);}.cls-27{clip-path:url(#clip-path-30);}.cls-28{clip-path:url(#clip-path-31);}.cls-29{clip-path:url(#clip-path-32);}.cls-30{clip-path:url(#clip-path-34);}.cls-31{fill:#16103e;}</style><clipPath id="clip-path"><path class="cls-1" d="M165.61,64.12v72.09c0,1.37-2.71,2.47-6,2.47h8.61c3.33,0,6-1.1,6-2.47V64.12c0-1.36-2.33-3.35-5.67-3.35S165.61,62.76,165.61,64.12Z"/></clipPath><clipPath id="clip-path-2"><rect class="cls-1" x="55.23" y="37.21" width="147.52" height="139.32"/></clipPath><clipPath id="clip-path-3"><path class="cls-2" d="M72.52,64.39H186A3.64,3.64,0,0,1,189.65,68V156.8H68.86V68A3.64,3.64,0,0,1,72.52,64.39Z"/></clipPath><clipPath id="clip-path-5"><path class="cls-2" d="M102.87,142.31h64.59a9.1,9.1,0,0,0,9.13-9.06V48.08A9.1,9.1,0,0,0,167.46,39H102.87a9.11,9.11,0,0,0-9.16,9.06v85.17A9.11,9.11,0,0,0,102.87,142.31Z"/></clipPath><clipPath id="clip-path-7"><rect class="cls-1" x="92.29" y="37.21" width="85.02" height="106.82"/></clipPath><clipPath id="clip-path-9"><rect class="cls-1" x="93.67" y="39.02" width="83.65" height="105.01"/></clipPath><clipPath id="clip-path-11"><polygon class="cls-2" points="176.94 62.13 153.14 39.02 176.03 39.02 176.94 62.13"/></clipPath><clipPath id="clip-path-14"><path class="cls-2" d="M96,122.37a8.15,8.15,0,1,0-8.22-8.15A8.19,8.19,0,0,0,96,122.37Z"/></clipPath><clipPath id="clip-path-17"><path class="cls-2" d="M79.39,135.66q4.74-13.29,16.72-13.29,11.67,0,17.31,12.65A9,9,0,0,1,108.75,147a9.13,9.13,0,0,1-3.68.77H88a9.1,9.1,0,0,1-9.14-9.06A8.89,8.89,0,0,1,79.39,135.66Z"/></clipPath><clipPath id="clip-path-20"><path class="cls-2" d="M117.47,78.89h34.77a1.81,1.81,0,1,1,0,3.62H117.47a1.81,1.81,0,1,1,0-3.62Z"/></clipPath><clipPath id="clip-path-22"><path class="cls-2" d="M137.62,98.82H161.4a1.81,1.81,0,1,1,0,3.62H137.62a1.81,1.81,0,1,1,0-3.62Z"/></clipPath><clipPath id="clip-path-24"><path class="cls-2" d="M123,118.75h34.77a1.81,1.81,0,1,1,0,3.62H123a1.81,1.81,0,1,1,0-3.62Z"/></clipPath><clipPath id="clip-path-26"><path class="cls-2" d="M110.17,59H134a1.81,1.81,0,1,1,0,3.62H110.17a1.81,1.81,0,1,1,0-3.62Z"/></clipPath><clipPath id="clip-path-28"><path class="cls-2" d="M60.73,152.27H198a5.47,5.47,0,0,1,5.49,5.44v12.68a5.47,5.47,0,0,1-5.49,5.44H60.73a5.48,5.48,0,0,1-5.5-5.44V157.71A5.48,5.48,0,0,1,60.73,152.27Z"/></clipPath><clipPath id="clip-path-30"><rect class="cls-1" x="55.23" y="150.57" width="148.24" height="26.16"/></clipPath><clipPath id="clip-path-31"><rect class="cls-1" x="55.23" y="151.37" width="148.24" height="25.37"/></clipPath><clipPath id="clip-path-32"><rect class="cls-1" x="75.38" y="169.48" width="25.61" height="7.25"/></clipPath><clipPath id="clip-path-34"><path class="cls-2" d="M81.76,175.83A2.72,2.72,0,1,0,79,173.11,2.73,2.73,0,0,0,81.76,175.83Z"/></clipPath></defs><title>icon design system</title><g class="cls-4"><g class="cls-5"><rect class="cls-6" x="150.43" y="51.71" width="32.94" height="96.03"/></g></g><g class="cls-7"><g class="cls-5"><path class="cls-8" d="M72.52,64.39H186A3.65,3.65,0,0,1,189.65,68V156.8H68.86V68A3.65,3.65,0,0,1,72.52,64.39Z"/></g></g><g class="cls-9"><g class="cls-5"><g class="cls-10"><g class="cls-11"><g class="cls-9"><g class="cls-12"><path class="cls-13" d="M102.87,142.31h64.59a9.1,9.1,0,0,0,9.13-9.06V48.08A9.1,9.1,0,0,0,167.46,39H102.87a9.11,9.11,0,0,0-9.16,9.06v85.17A9.11,9.11,0,0,0,102.87,142.31Z"/></g></g><g class="cls-12"><path class="cls-14" d="M102.86,142.31h64.59a9.11,9.11,0,0,0,9.15-9.06V48.08a9.1,9.1,0,0,0-9.15-9H102.86a9.1,9.1,0,0,0-9.15,9v85.17A9.11,9.11,0,0,0,102.86,142.31Z"/></g></g></g></g></g><g class="cls-15"><g class="cls-5"><rect class="cls-13" x="143.98" y="29.96" width="42.09" height="41.22"/></g></g><g class="cls-5"><polygon class="cls-16" points="176.93 62.13 153.14 39.03 176.01 39.03 176.93 62.13"/><path class="cls-17" d="M153.09,42l20.07,18.31a1.81,1.81,0,0,1,.11,2.56,1.87,1.87,0,0,1-1.35.59H153.68A3.65,3.65,0,0,1,150,59.86V43.37a1.83,1.83,0,0,1,1.83-1.82A1.88,1.88,0,0,1,153.09,42Z"/></g><g class="cls-18"><g class="cls-5"><rect class="cls-13" x="78.65" y="97.01" width="34.77" height="34.43"/></g></g><g class="cls-5"><path class="cls-19" d="M96,122.37a8.15,8.15,0,1,0-8.24-8.15A8.19,8.19,0,0,0,96,122.37Z"/></g><g class="cls-20"><g class="cls-5"><rect class="cls-13" x="69.71" y="113.31" width="53.65" height="43.49"/></g></g><g class="cls-5"><path class="cls-19" d="M79.39,135.66q4.74-13.29,16.72-13.29,11.69,0,17.32,12.65A9,9,0,0,1,108.76,147a9.26,9.26,0,0,1-3.7.77H88a9.1,9.1,0,0,1-9.15-9.06A8.89,8.89,0,0,1,79.39,135.66Z"/></g><g class="cls-21"><g class="cls-5"><rect class="cls-22" x="106.51" y="69.83" width="56.73" height="21.74"/></g></g><g class="cls-23"><g class="cls-5"><rect class="cls-22" x="126.63" y="89.76" width="45.75" height="21.74"/></g></g><g class="cls-24"><g class="cls-5"><rect class="cls-22" x="112" y="109.69" width="56.73" height="21.74"/></g></g><g class="cls-25"><g class="cls-5"><rect class="cls-22" x="99.18" y="49.9" width="45.75" height="21.74"/></g></g><g class="cls-26"><g class="cls-5"><g class="cls-10"><g class="cls-27"><g class="cls-28"><path class="cls-8" d="M60.72,152.27H198a5.46,5.46,0,0,1,5.49,5.44v12.68a5.46,5.46,0,0,1-5.49,5.44H60.72a5.47,5.47,0,0,1-5.49-5.44V157.71A5.46,5.46,0,0,1,60.72,152.27Z"/></g></g></g></g></g><g class="cls-29"><g class="cls-5"><rect class="cls-13" x="66.22" y="160.43" width="43.92" height="25.37"/></g></g><g class="cls-30"><g class="cls-5"><rect class="cls-31" x="69.88" y="161.33" width="23.79" height="23.56"/></g></g></svg>