<svg id="Layer_1" data-name="Layer 1" xmlns="http://www.w3.org/2000/svg" xmlns:xlink="http://www.w3.org/1999/xlink" viewBox="0 0 233.78 216.13"><defs><style>.cls-1,.cls-13,.cls-14,.cls-16,.cls-2,.cls-8{fill:none;}.cls-1{clip-rule:evenodd;}.cls-3{clip-path:url(#clip-path);}.cls-4{clip-path:url(#clip-path-2);}.cls-5{isolation:isolate;}.cls-6{clip-path:url(#clip-path-3);}.cls-7{clip-path:url(#clip-path-4);}.cls-13,.cls-14,.cls-16,.cls-8{stroke:#000;}.cls-13,.cls-16,.cls-8{stroke-miterlimit:10;}.cls-8{stroke-width:4px;}.cls-9{clip-path:url(#clip-path-5);}.cls-10{clip-path:url(#clip-path-7);}.cls-11{clip-path:url(#clip-path-9);}.cls-12{fill:#fff;}.cls-13,.cls-14,.cls-16{stroke-width:1.6px;}.cls-14,.cls-16{stroke-linecap:round;}.cls-14{stroke-linejoin:round;}.cls-15{clip-path:url(#clip-path-12);}.cls-17{clip-path:url(#clip-path-15);}.cls-18{clip-path:url(#clip-path-17);}</style><clipPath id="clip-path"><path class="cls-1" d="M80.93,167.48h74.72a7.51,7.51,0,0,0,7.48-7.52V54.66a7.51,7.51,0,0,0-7.48-7.52H80.93a7.51,7.51,0,0,0-7.48,7.52V160A7.51,7.51,0,0,0,80.93,167.48Z"/></clipPath><clipPath id="clip-path-2"><rect class="cls-2" x="73.45" y="47.97" width="109.85" height="120.66"/></clipPath><clipPath id="clip-path-3"><rect class="cls-2" x="73.45" y="47.14" width="89.98" height="121.84"/></clipPath><clipPath id="clip-path-4"><rect class="cls-2" x="73.45" y="47.14" width="89.67" height="120.34"/></clipPath><clipPath id="clip-path-5"><path class="cls-1" d="M95.87,126.87h47.82a1.5,1.5,0,0,1,0,3H95.87a1.5,1.5,0,0,1,0-3Z"/></clipPath><clipPath id="clip-path-7"><path class="cls-1" d="M95.87,138.9h47.82a1.51,1.51,0,0,1,0,3H95.87a1.51,1.51,0,0,1,0-3Z"/></clipPath><clipPath id="clip-path-9"><path class="cls-1" d="M118.42,92.27c3.8,0,6.88-3.37,6.88-7.52s-3.08-7.52-6.88-7.52-6.88,3.36-6.88,7.52S114.63,92.27,118.42,92.27Z"/></clipPath><clipPath id="clip-path-12"><path class="cls-1" d="M162.88,150.93a21.06,21.06,0,1,0-20.67-21.06A20.87,20.87,0,0,0,162.88,150.93Z"/></clipPath><clipPath id="clip-path-15"><rect class="cls-2" x="89.89" y="162.97" width="20.92" height="6.02"/></clipPath><clipPath id="clip-path-17"><path class="cls-1" d="M95.12,168.23A2.26,2.26,0,1,0,92.89,166,2.26,2.26,0,0,0,95.12,168.23Z"/></clipPath></defs><title>icon design system</title><g class="cls-3"><g class="cls-4"><g class="cls-5"><g class="cls-6"><g class="cls-7"><path class="cls-8" d="M80.92,167.48h74.73a7.49,7.49,0,0,0,7.47-7.52V54.66a7.49,7.49,0,0,0-7.47-7.52H80.92a7.5,7.5,0,0,0-7.47,7.52V160A7.5,7.5,0,0,0,80.92,167.48Z"/></g></g></g></g></g><g class="cls-9"><g class="cls-4"><rect x="86.91" y="119.34" width="65.76" height="18.05"/></g></g><g class="cls-10"><g class="cls-4"><rect x="86.91" y="131.38" width="65.76" height="18.05"/></g></g><g class="cls-11"><g class="cls-4"><rect class="cls-12" x="104.08" y="69.7" width="28.7" height="30.08"/></g></g><g class="cls-4"><path class="cls-13" d="M118.42,92.27c3.8,0,6.88-3.37,6.88-7.52s-3.08-7.52-6.88-7.52-6.88,3.36-6.88,7.52S114.62,92.27,118.42,92.27Z"/><path class="cls-14" d="M101.85,105.81q8.87-10.53,16.61-10.53t14.77,10.53"/></g><g class="cls-15"><g class="cls-4"><rect class="cls-12" x="134.73" y="101.29" width="56.32" height="57.16"/></g></g><g class="cls-4"><ellipse class="cls-13" cx="163.72" cy="129.87" rx="17.73" ry="18.05"/><polyline class="cls-16" points="154.45 129.58 161.2 135.89 172.47 125.36"/></g><g class="cls-17"><g class="cls-4"><rect class="cls-12" x="82.41" y="155.44" width="35.87" height="21.06"/></g></g><g class="cls-18"><g class="cls-4"><rect x="85.41" y="156.2" width="19.43" height="19.55"/></g></g><g class="cls-4"><ellipse class="cls-13" cx="117.53" cy="91.52" rx="23.16" ry="23.32"/></g></svg>