<svg id="Layer_1" data-name="Layer 1" xmlns="http://www.w3.org/2000/svg" xmlns:xlink="http://www.w3.org/1999/xlink" viewBox="0 0 233.78 216.13"><defs><style>.cls-1,.cls-12,.cls-14,.cls-16,.cls-19,.cls-2,.cls-21,.cls-3{fill:none;}.cls-2{clip-rule:evenodd;}.cls-3{fill-rule:evenodd;}.cls-4{clip-path:url(#clip-path);}.cls-5{fill:#16103e;}.cls-6{clip-path:url(#clip-path-2);}.cls-7{clip-path:url(#clip-path-3);}.cls-8{isolation:isolate;}.cls-9{clip-path:url(#clip-path-4);}.cls-10{clip-path:url(#clip-path-6);}.cls-11{fill:#3ba07a;}.cls-12,.cls-14,.cls-16,.cls-19,.cls-21{stroke:#16103e;}.cls-12,.cls-19{stroke-miterlimit:10;}.cls-12{stroke-width:3.15px;}.cls-13{clip-path:url(#clip-path-8);}.cls-14,.cls-16,.cls-21{stroke-linejoin:round;}.cls-14,.cls-21{stroke-width:1.97px;}.cls-15{clip-path:url(#clip-path-11);}.cls-16,.cls-19{stroke-width:1.58px;}.cls-17{clip-path:url(#clip-path-14);}.cls-18{clip-path:url(#clip-path-17);}.cls-20{clip-path:url(#clip-path-20);}.cls-21{stroke-linecap:round;}.cls-22{clip-path:url(#clip-path-23);}.cls-23{clip-path:url(#clip-path-25);}</style><clipPath id="clip-path"><rect class="cls-1" x="23.38" y="20.36" width="178.25" height="175.94"/></clipPath><clipPath id="clip-path-2"><path class="cls-2" d="M48,64.13H177.35a5.15,5.15,0,0,1,5.1,5.2v91.84a5.15,5.15,0,0,1-5.1,5.2H48a5.15,5.15,0,0,1-5.1-5.2V69.33A5.15,5.15,0,0,1,48,64.13Z"/></clipPath><clipPath id="clip-path-3"><rect class="cls-1" x="42.94" y="31.77" width="139.52" height="133.83"/></clipPath><clipPath id="clip-path-4"><rect class="cls-1" x="42.94" y="63.91" width="139.52" height="102.46"/></clipPath><clipPath id="clip-path-6"><rect class="cls-1" x="42.94" y="64.13" width="139.52" height="102.24"/></clipPath><clipPath id="clip-path-8"><path class="cls-2" d="M156.93,146.09q12.27-9.06,23.21,0V61.86q-8.43-15.8-22.2-.87Z"/></clipPath><clipPath id="clip-path-11"><path class="cls-2" d="M62.89,86.35l55.59,59.77a1.75,1.75,0,0,1-.06,2.45,1.72,1.72,0,0,1-1.17.47H61.65a1.71,1.71,0,0,1-1.7-1.73V87.54a1.7,1.7,0,0,1,2.94-1.19Z"/></clipPath><clipPath id="clip-path-14"><polygon class="cls-2" points="71.86 116.12 71.86 136.27 91.3 136.27 71.86 116.12"/></clipPath><clipPath id="clip-path-17"><path class="cls-2" d="M82.86,51.07c-2.18-3.58-3.42-5.37-3.7-5.37S80.5,44.14,84,41q4.59,2.34,5.56,2.34c1,0,6.76-3.07,8.23-3.07s3.91-3.12,3.91-5.15q0-2,1.65-2.19h5.16c1,3.48,1.71,5.31,2.11,5.47.6.26,2,1.87,3.15,1.87q1.13,0,7.08,3.64l6.17-3.15,3.93,4-2.54,4.75A7,7,0,0,0,130,54.74c1.88,2.56,1.66,5.47,2.17,6.2s3.45,2.6,4.63,2.6a4.37,4.37,0,0,1,2.08.48v5.7l-5.09,1.42c-1.4,1.25-2.1,2.47-2.1,3.68s-.91,3.25-2.74,6.14q-1.12,2.25,1.05,6t1,2l-3.93,3.93-3.84-2q-.63-1.2-6.45,1.43c-5.81,2.62-6.85,3-7.31,5-.31,1.34-.61,2.58-.91,3.71H103q-2.31-6.9-3-6.9a31.65,31.65,0,0,1-7.42-2.9,4.59,4.59,0,0,0-4.93,0,14,14,0,0,1-3,1.63l-4.07-3.93,2-3.82a5.5,5.5,0,0,0-.64-5.56,10.61,10.61,0,0,1-2.15-5.17q-.3-3.12-4.9-4t-2.22-.84V64l4.66-1.18a19.18,19.18,0,0,0,2.46-4.92A39.39,39.39,0,0,1,82.86,51.07Z"/></clipPath><clipPath id="clip-path-20"><path class="cls-2" d="M105,79.73A12.13,12.13,0,1,0,93.13,67.6,12,12,0,0,0,105,79.73Z"/></clipPath><clipPath id="clip-path-23"><path class="cls-2" d="M110.14,112.65a2.6,2.6,0,1,0-2.55-2.6A2.57,2.57,0,0,0,110.14,112.65Z"/></clipPath><clipPath id="clip-path-25"><path class="cls-2" d="M110.14,126.52a2.6,2.6,0,1,0-2.55-2.6A2.58,2.58,0,0,0,110.14,126.52Z"/></clipPath></defs><title>icon design system</title><g class="cls-4"><rect class="cls-5" x="25.56" y="22.54" width="173.89" height="171.58"/></g><g class="cls-6"><g class="cls-7"><g class="cls-8"><g class="cls-9"><g class="cls-6"><g class="cls-10"><path class="cls-11" d="M48,64.13H177.35a5.15,5.15,0,0,1,5.1,5.2v91.84a5.15,5.15,0,0,1-5.1,5.2H48a5.15,5.15,0,0,1-5.1-5.2V69.33A5.15,5.15,0,0,1,48,64.13Z"/></g></g><g class="cls-10"><path class="cls-12" d="M48,64.13H177.35a5.15,5.15,0,0,1,5.1,5.2v91.84a5.15,5.15,0,0,1-5.1,5.2H48a5.15,5.15,0,0,1-5.1-5.2V69.33A5.15,5.15,0,0,1,48,64.13Z"/></g></g></g></g></g><g class="cls-13"><g class="cls-7"><rect class="cls-11" x="148.42" y="45.07" width="40.22" height="109.68"/></g></g><g class="cls-7"><path class="cls-14" d="M156.93,146.09q12.27-9.06,23.21,0V61.86q-8.43-15.8-22.2-.87Z"/></g><g class="cls-15"><g class="cls-7"><rect class="cls-11" x="51.44" y="77.15" width="76.01" height="80.56"/></g></g><g class="cls-7"><path class="cls-16" d="M62.89,86.35l55.59,59.77a1.75,1.75,0,0,1-.06,2.45,1.72,1.72,0,0,1-1.17.47H61.65a1.71,1.71,0,0,1-1.7-1.73V87.54a1.7,1.7,0,0,1,2.94-1.19Z"/></g><g class="cls-17"><g class="cls-7"><rect class="cls-11" x="63.35" y="107.45" width="36.46" height="37.48"/></g></g><g class="cls-7"><polygon class="cls-16" points="71.86 116.12 71.86 136.27 91.3 136.27 71.86 116.12"/></g><g class="cls-18"><g class="cls-7"><rect class="cls-11" x="63.35" y="24.28" width="84.01" height="85.42"/></g></g><g class="cls-7"><path class="cls-19" d="M82.86,51.07c-2.18-3.58-3.42-5.37-3.7-5.37S80.5,44.14,84,41q4.59,2.34,5.56,2.34c1,0,6.76-3.07,8.23-3.07s3.91-3.12,3.91-5.15q0-2,1.65-2.19h5.16c1,3.48,1.71,5.31,2.11,5.47.6.26,2,1.87,3.15,1.87q1.13,0,7.08,3.64l6.17-3.15,3.93,4-2.55,4.74A7.07,7.07,0,0,0,130,54.74c1.88,2.56,1.65,5.47,2.17,6.2s3.45,2.6,4.63,2.6a4.4,4.4,0,0,1,2.08.48v5.7l-5.09,1.42c-1.4,1.25-2.1,2.47-2.1,3.68s-.91,3.25-2.74,6.14q-1.12,2.25,1.05,6t1,2l-3.93,3.93-3.84-2q-.63-1.18-6.45,1.44c-5.81,2.62-6.85,3-7.31,5-.31,1.34-.61,2.58-.91,3.71H103q-2.31-6.9-3-6.9a31.88,31.88,0,0,1-7.43-2.9,4.57,4.57,0,0,0-4.92,0,14,14,0,0,1-3,1.63l-4.07-3.93,2-3.82a5.48,5.48,0,0,0-.65-5.56,10.65,10.65,0,0,1-2.14-5.17c-.2-2.08-1.83-3.41-4.9-4s-3.8-.88-2.23-.84V64l4.67-1.18a19.18,19.18,0,0,0,2.46-4.92A38.9,38.9,0,0,1,82.86,51.07Z"/></g><g class="cls-20"><g class="cls-7"><rect class="cls-5" x="84.62" y="46.81" width="40.83" height="41.59"/></g></g><g class="cls-7"><line class="cls-21" x1="119.5" y1="110.05" x2="149.63" y2="110.05"/><line class="cls-21" x1="119.5" y1="123.92" x2="149.63" y2="123.92"/></g><g class="cls-22"><g class="cls-7"><rect class="cls-5" x="99.08" y="98.79" width="22.12" height="22.53"/></g></g><g class="cls-23"><g class="cls-7"><rect class="cls-5" x="99.08" y="112.65" width="22.12" height="22.53"/></g></g></svg>