<svg id="Layer_1" data-name="Layer 1" xmlns="http://www.w3.org/2000/svg" xmlns:xlink="http://www.w3.org/1999/xlink" viewBox="0 0 233.78 216.13"><defs><style>.cls-1,.cls-17,.cls-2,.cls-8,.cls-9{fill:none;}.cls-1{clip-rule:evenodd;}.cls-3{clip-path:url(#clip-path);}.cls-4{clip-path:url(#clip-path-2);}.cls-5{isolation:isolate;}.cls-6{clip-path:url(#clip-path-3);}.cls-7{clip-path:url(#clip-path-4);}.cls-8,.cls-9{stroke:#16103e;}.cls-17,.cls-8,.cls-9{stroke-miterlimit:10;}.cls-8{stroke-width:4.46px;}.cls-9{stroke-width:2.23px;}.cls-10{clip-path:url(#clip-path-6);}.cls-11{clip-path:url(#clip-path-8);}.cls-12{clip-path:url(#clip-path-9);}.cls-13{clip-path:url(#clip-path-11);}.cls-14{fill:#fff;}.cls-15{clip-path:url(#clip-path-13);}.cls-16{fill:#3ba07a;}.cls-17{stroke:#3ba07a;stroke-width:1.78px;}.cls-18{clip-path:url(#clip-path-16);}.cls-19{clip-path:url(#clip-path-18);}.cls-20{clip-path:url(#clip-path-19);}.cls-21{clip-path:url(#clip-path-20);}.cls-22{clip-path:url(#clip-path-22);}.cls-23{fill:#16103e;}</style><clipPath id="clip-path"><path class="cls-1" d="M37.88,118.76H146.57a3.89,3.89,0,0,1,3.9,3.89v48.6a3.89,3.89,0,0,1-3.9,3.89H37.88A3.89,3.89,0,0,1,34,171.25v-48.6A3.89,3.89,0,0,1,37.88,118.76Z"/></clipPath><clipPath id="clip-path-2"><rect class="cls-2" x="32.06" y="33.4" width="141.27" height="143.34"/></clipPath><clipPath id="clip-path-3"><rect class="cls-2" x="32.06" y="117.87" width="119.9" height="58.86"/></clipPath><clipPath id="clip-path-4"><rect class="cls-2" x="34" y="118.4" width="116.47" height="58.33"/></clipPath><clipPath id="clip-path-6"><path class="cls-1" d="M123.29,91.54h5.82a7.76,7.76,0,0,1,7.76,7.77v23.34h-19.4V97.37A5.81,5.81,0,0,1,123.29,91.54Z"/></clipPath><clipPath id="clip-path-8"><rect class="cls-2" x="117.07" y="89.53" width="21.8" height="34.88"/></clipPath><clipPath id="clip-path-9"><rect class="cls-2" x="117.47" y="91.18" width="19.41" height="33.05"/></clipPath><clipPath id="clip-path-11"><path class="cls-1" d="M146.57,161.53a27.22,27.22,0,1,0-27.16-27.22A27.19,27.19,0,0,0,146.57,161.53Z"/></clipPath><clipPath id="clip-path-13"><path class="cls-1" d="M156,127.12l-14,14.13-6.78-6.86a2,2,0,0,0-2.79,0,1.94,1.94,0,0,0,0,2.75l8.2,8.28a2,2,0,0,0,2.77,0s0,0,0,0l15.39-15.55a1.94,1.94,0,0,0,0-2.75,2,2,0,0,0-2.79,0"/></clipPath><clipPath id="clip-path-16"><path class="cls-1" d="M55.34,91.54h5.84a7.78,7.78,0,0,1,7.76,7.77v23.34H49.52V97.37A5.83,5.83,0,0,1,55.34,91.54Z"/></clipPath><clipPath id="clip-path-18"><rect class="cls-2" x="49.5" y="89.53" width="19.62" height="34.88"/></clipPath><clipPath id="clip-path-19"><rect class="cls-2" x="49.52" y="91.18" width="19.41" height="33.05"/></clipPath><clipPath id="clip-path-20"><rect class="cls-2" x="51.46" y="168.95" width="27.18" height="7.78"/></clipPath><clipPath id="clip-path-22"><ellipse class="cls-2" cx="58.26" cy="172.84" rx="2.92" ry="2.92"/></clipPath></defs><title>icon design system</title><g class="cls-3"><g class="cls-4"><g class="cls-5"><g class="cls-6"><g class="cls-7"><path class="cls-8" d="M37.88,118.76h108.7a3.89,3.89,0,0,1,3.88,3.89v48.6a3.89,3.89,0,0,1-3.88,3.89H37.88A3.88,3.88,0,0,1,34,171.25v-48.6A3.88,3.88,0,0,1,37.88,118.76Z"/></g></g></g></g></g><g class="cls-4"><path class="cls-9" d="M51.26,37.1h81.79a3.88,3.88,0,0,1,3.5,2.2l11.23,23.33a3.88,3.88,0,0,1-3.5,5.57l-107.21,0a1.94,1.94,0,0,1-1.94-1.94,2,2,0,0,1,.19-.84L47.76,39.31A3.87,3.87,0,0,1,51.26,37.1Z"/><path class="cls-9" d="M59.24,66.26V90.67q10.53,9.51,21.35,0"/><path class="cls-9" d="M80.58,66.26V90.67q11.51,9.51,23.29,0"/><path class="cls-9" d="M103.89,66.26V90.67q11.49,9.51,23.29,0"/><path class="cls-9" d="M127.17,66.26V90.67q10.53,9.51,21.35,0"/><line class="cls-9" x1="147.54" y1="93.44" x2="147.54" y2="66.26"/></g><g class="cls-10"><g class="cls-4"><g class="cls-5"><g class="cls-11"><g class="cls-12"><path class="cls-8" d="M123.29,91.54h5.82a7.77,7.77,0,0,1,7.77,7.78v23.33H117.47V97.37A5.82,5.82,0,0,1,123.29,91.54Z"/></g></g></g></g></g><g class="cls-4"><line class="cls-9" x1="82.52" y1="68.21" x2="88.35" y2="39.04"/><line class="cls-9" x1="105.83" y1="68.21" x2="103.89" y2="39.04"/><line class="cls-9" x1="127.17" y1="68.21" x2="119.41" y2="37.1"/></g><g class="cls-13"><g class="cls-4"><rect class="cls-14" x="109.71" y="97.37" width="73.76" height="73.88"/></g></g><g class="cls-15"><g class="cls-4"><rect class="cls-16" x="122.15" y="116.81" width="46.91" height="38.89"/></g></g><g class="cls-4"><ellipse class="cls-17" cx="145.61" cy="134.93" rx="22.32" ry="22.36"/><path class="cls-9" d="M35.94,64.32v26q11.49,10.16,23.29,0"/><line class="cls-9" x1="58.81" y1="68.35" x2="70.51" y2="37.5"/></g><g class="cls-18"><g class="cls-4"><g class="cls-5"><g class="cls-19"><g class="cls-20"><path class="cls-8" d="M55.34,91.54h5.82a7.77,7.77,0,0,1,7.77,7.78v23.33H49.52V97.37A5.82,5.82,0,0,1,55.34,91.54Z"/></g></g></g></g></g><g class="cls-21"><g class="cls-4"><rect class="cls-14" x="41.76" y="159.23" width="46.59" height="27.22"/></g></g><g class="cls-22"><g class="cls-4"><rect class="cls-23" x="45.64" y="160.21" width="25.23" height="25.28"/></g></g></svg>