<svg id="Layer_1" data-name="Layer 1" xmlns="http://www.w3.org/2000/svg" xmlns:xlink="http://www.w3.org/1999/xlink" viewBox="0 0 233.78 216.13"><defs><style>.cls-1,.cls-12,.cls-14,.cls-2,.cls-22,.cls-3,.cls-30,.cls-31{fill:none;}.cls-2{clip-rule:evenodd;}.cls-3{fill-rule:evenodd;}.cls-4{clip-path:url(#clip-path);}.cls-5{fill:#16103e;}.cls-6{clip-path:url(#clip-path-2);}.cls-7{clip-path:url(#clip-path-3);}.cls-8{isolation:isolate;}.cls-9{clip-path:url(#clip-path-4);}.cls-10{clip-path:url(#clip-path-6);}.cls-11{fill:#3ba07a;}.cls-12,.cls-14,.cls-22,.cls-31{stroke:#16103e;}.cls-12,.cls-14,.cls-22,.cls-30,.cls-31{stroke-miterlimit:10;}.cls-12{stroke-width:3.93px;}.cls-13{clip-path:url(#clip-path-8);}.cls-14{stroke-width:1.97px;}.cls-15{clip-path:url(#clip-path-11);}.cls-16{clip-path:url(#clip-path-14);}.cls-17{clip-path:url(#clip-path-17);}.cls-18{clip-path:url(#clip-path-20);}.cls-19{clip-path:url(#clip-path-23);}.cls-20{clip-path:url(#clip-path-25);}.cls-21{clip-path:url(#clip-path-27);}.cls-22{stroke-width:2.36px;}.cls-23{clip-path:url(#clip-path-30);}.cls-24{clip-path:url(#clip-path-32);}.cls-25{clip-path:url(#clip-path-35);}.cls-26{clip-path:url(#clip-path-37);}.cls-27{clip-path:url(#clip-path-39);}.cls-28{clip-path:url(#clip-path-41);}.cls-29{clip-path:url(#clip-path-43);}.cls-30{stroke:#3ba07a;}.cls-30,.cls-31{stroke-width:1.57px;}.cls-31{stroke-linecap:round;}.cls-32{clip-path:url(#clip-path-46);}.cls-33{clip-path:url(#clip-path-48);}.cls-34{clip-path:url(#clip-path-50);}.cls-35{clip-path:url(#clip-path-52);}.cls-36{clip-path:url(#clip-path-54);}</style><clipPath id="clip-path"><rect class="cls-1" x="30.47" y="21.19" width="178.25" height="175.94"/></clipPath><clipPath id="clip-path-2"><path class="cls-2" d="M58.16,121h96.46a3.44,3.44,0,0,1,3.45,3.42v39.3a3.44,3.44,0,0,1-3.45,3.41H58.16a3.44,3.44,0,0,1-3.45-3.41v-39.3A3.44,3.44,0,0,1,58.16,121Z"/></clipPath><clipPath id="clip-path-3"><rect class="cls-1" x="53.82" y="42.11" width="138.68" height="126.44"/></clipPath><clipPath id="clip-path-4"><rect class="cls-1" x="52.99" y="120.59" width="106.82" height="47.96"/></clipPath><clipPath id="clip-path-6"><rect class="cls-1" x="54.71" y="120.71" width="103.35" height="47.84"/></clipPath><clipPath id="clip-path-8"><path class="cls-2" d="M70,45.84h72.57a3.48,3.48,0,0,1,3.12,1.93l10,20.5a3.44,3.44,0,0,1-1.61,4.57,3.58,3.58,0,0,1-1.51.34l-95.13,0a1.72,1.72,0,0,1-1.72-1.71,1.7,1.7,0,0,1,.17-.73l11-22.92A3.47,3.47,0,0,1,70,45.84Z"/></clipPath><clipPath id="clip-path-11"><path class="cls-2" d="M77.1,71.47V92.92q9.36,8.35,19,0"/></clipPath><clipPath id="clip-path-14"><path class="cls-2" d="M96.05,71.47V92.92q10.2,8.35,20.68,0"/></clipPath><clipPath id="clip-path-17"><path class="cls-2" d="M116.73,71.47V92.92q10.17,8.35,20.67,0"/></clipPath><clipPath id="clip-path-20"><path class="cls-2" d="M137.4,71.47V92.92q9.36,8.35,18.95,0"/></clipPath><clipPath id="clip-path-23"><path class="cls-2" d="M134,93.68h5.16a6.87,6.87,0,0,1,6.89,6.84V121H128.79V98.81A5.15,5.15,0,0,1,134,93.68Z"/></clipPath><clipPath id="clip-path-25"><rect class="cls-1" x="127.11" y="92.25" width="19.62" height="30.52"/></clipPath><clipPath id="clip-path-27"><rect class="cls-1" x="128.79" y="93.37" width="17.22" height="29.05"/></clipPath><clipPath id="clip-path-30"><polygon class="cls-2" points="118.94 73.93 134.72 73.93 135.26 90.71 118.94 89.52 118.94 73.93"/></clipPath><clipPath id="clip-path-32"><path class="cls-2" d="M56.44,69.76V92.64q10.2,8.92,20.66,0"/></clipPath><clipPath id="clip-path-35"><path class="cls-2" d="M73.66,93.68h5.16a6.85,6.85,0,0,1,6.89,6.84V121H68.49V98.81A5.15,5.15,0,0,1,73.66,93.68Z"/></clipPath><clipPath id="clip-path-37"><rect class="cls-1" x="68.25" y="92.25" width="19.62" height="30.52"/></clipPath><clipPath id="clip-path-39"><rect class="cls-1" x="68.49" y="93.37" width="17.22" height="29.05"/></clipPath><clipPath id="clip-path-41"><path class="cls-2" d="M165.5,160a26.49,26.49,0,1,0-26.38-26.49A26.44,26.44,0,0,0,165.5,160Z"/></clipPath><clipPath id="clip-path-43"><path class="cls-2" d="M164.72,154a20.51,20.51,0,1,0-20.43-20.51A20.46,20.46,0,0,0,164.72,154Z"/></clipPath><clipPath id="clip-path-46"><polygon class="cls-2" points="58.64 73.93 75.31 73.93 75.58 90.96 60.36 89.95 58.64 73.93"/></clipPath><clipPath id="clip-path-48"><polygon class="cls-2" points="79.26 73.93 93.74 73.93 93.91 91.93 81.96 89.09 79.26 73.93"/></clipPath><clipPath id="clip-path-50"><rect class="cls-1" x="58.16" y="71.16" width="3.44" height="2.82"/></clipPath><clipPath id="clip-path-52"><polygon class="cls-2" points="98.25 73.93 114.29 73.93 114.58 90.71 98.25 89.95 98.25 73.93"/></clipPath><clipPath id="clip-path-54"><polygon class="cls-2" points="139.62 73.93 153.4 73.93 153.4 89.61 142.18 90.37 139.62 73.93"/></clipPath></defs><title>icon design system</title><g class="cls-4"><rect class="cls-5" x="32.65" y="23.37" width="173.88" height="171.58"/></g><g class="cls-6"><g class="cls-7"><g class="cls-8"><g class="cls-9"><g class="cls-6"><g class="cls-10"><path class="cls-11" d="M58.16,121h96.46a3.44,3.44,0,0,1,3.45,3.42v39.3a3.44,3.44,0,0,1-3.45,3.41H58.16a3.44,3.44,0,0,1-3.45-3.41v-39.3A3.44,3.44,0,0,1,58.16,121Z"/></g></g><g class="cls-10"><path class="cls-12" d="M58.16,121h96.46a3.43,3.43,0,0,1,3.44,3.42v39.3a3.43,3.43,0,0,1-3.44,3.41H58.16a3.44,3.44,0,0,1-3.45-3.41v-39.3A3.44,3.44,0,0,1,58.16,121Z"/></g></g></g></g></g><g class="cls-13"><g class="cls-7"><rect class="cls-11" x="47.11" y="37.3" width="117.52" height="44.42"/></g></g><g class="cls-7"><path class="cls-14" d="M70,45.84h72.58a3.46,3.46,0,0,1,3.11,1.93l10,20.51a3.4,3.4,0,0,1-1.61,4.56,3.54,3.54,0,0,1-1.5.34l-95.13,0a1.7,1.7,0,0,1-1.55-2.44l11-22.92A3.48,3.48,0,0,1,70,45.84Z"/></g><g class="cls-15"><g class="cls-7"><rect class="cls-11" x="68.49" y="62.93" width="36.17" height="42.72"/></g></g><g class="cls-7"><path class="cls-14" d="M77.1,71.47V92.92q9.36,8.35,19,0"/></g><g class="cls-16"><g class="cls-7"><rect class="cls-11" x="87.44" y="62.93" width="37.89" height="42.72"/></g></g><g class="cls-7"><path class="cls-14" d="M96.05,71.47V92.92q10.2,8.35,20.67,0"/></g><g class="cls-17"><g class="cls-7"><rect class="cls-11" x="108.1" y="62.93" width="37.89" height="42.72"/></g></g><g class="cls-7"><path class="cls-14" d="M116.73,71.47V92.92q10.22,8.35,20.67,0"/></g><g class="cls-18"><g class="cls-7"><rect class="cls-11" x="128.79" y="62.93" width="36.17" height="42.72"/></g></g><g class="cls-7"><path class="cls-14" d="M137.4,71.47V92.92q9.34,8.35,18.95,0"/><line class="cls-14" x1="155.48" y1="95.35" x2="155.48" y2="71.47"/></g><g class="cls-19"><g class="cls-7"><g class="cls-8"><g class="cls-20"><g class="cls-19"><g class="cls-21"><path class="cls-11" d="M134,93.68h5.16a6.87,6.87,0,0,1,6.89,6.84V121H128.79V98.81A5.15,5.15,0,0,1,134,93.68Z"/></g></g><g class="cls-21"><path class="cls-22" d="M134,93.68h5.16a6.86,6.86,0,0,1,6.89,6.84V121H128.79V98.81A5.15,5.15,0,0,1,134,93.68Z"/></g></g></g></g></g><g class="cls-7"><line class="cls-14" x1="97.77" y1="73.18" x2="102.94" y2="47.55"/><line class="cls-14" x1="118.46" y1="73.18" x2="116.73" y2="47.55"/><line class="cls-14" x1="137.4" y1="73.18" x2="130.51" y2="45.84"/></g><g class="cls-23"><g class="cls-7"><rect class="cls-11" x="110.33" y="65.39" width="33.55" height="33.86"/></g></g><g class="cls-24"><g class="cls-7"><rect class="cls-11" x="47.82" y="61.22" width="37.89" height="44.42"/></g></g><g class="cls-7"><path class="cls-14" d="M56.44,69.76V92.64q10.2,8.92,20.67,0"/><line class="cls-14" x1="76.72" y1="73.3" x2="87.1" y2="46.19"/></g><g class="cls-25"><g class="cls-7"><g class="cls-8"><g class="cls-26"><g class="cls-25"><g class="cls-27"><path class="cls-11" d="M73.66,93.68h5.16a6.85,6.85,0,0,1,6.89,6.84V121H68.49V98.81A5.15,5.15,0,0,1,73.66,93.68Z"/></g></g><g class="cls-27"><path class="cls-22" d="M73.66,93.68h5.17a6.87,6.87,0,0,1,6.89,6.84V121H68.49V98.81A5.15,5.15,0,0,1,73.66,93.68Z"/></g></g></g></g></g><g class="cls-28"><g class="cls-7"><rect class="cls-5" x="130.51" y="98.5" width="70.01" height="70.05"/></g></g><g class="cls-29"><g class="cls-7"><rect class="cls-11" x="135.68" y="104.48" width="58.09" height="58.09"/></g></g><g class="cls-7"><ellipse class="cls-30" cx="164.72" cy="133.52" rx="20.43" ry="20.5"/><polyline class="cls-31" points="151.61 133.02 160.65 141.21 175.73 127.54"/></g><g class="cls-32"><g class="cls-7"><rect class="cls-11" x="50.03" y="65.39" width="34.18" height="34.12"/></g></g><g class="cls-33"><g class="cls-7"><rect class="cls-11" x="70.65" y="65.39" width="31.86" height="35.08"/></g></g><g class="cls-34"><g class="cls-7"><rect class="cls-5" x="49.55" y="62.62" width="20.67" height="19.91"/></g></g><g class="cls-35"><g class="cls-7"><rect class="cls-11" x="89.64" y="65.39" width="33.54" height="33.86"/></g></g><g class="cls-36"><g class="cls-7"><rect class="cls-11" x="131.01" y="65.39" width="31.01" height="33.52"/></g></g></svg>