<svg id="Layer_1" data-name="Layer 1" xmlns="http://www.w3.org/2000/svg" xmlns:xlink="http://www.w3.org/1999/xlink" viewBox="0 0 233.78 216.13"><defs><style>.cls-1,.cls-2{fill:none;}.cls-2{clip-rule:evenodd;}.cls-3{clip-path:url(#clip-path);}.cls-4{clip-path:url(#clip-path-2);}.cls-5{fill:#fff;}.cls-6{clip-path:url(#clip-path-3);}.cls-7{fill:#3ba07a;}.cls-8{clip-path:url(#clip-path-5);}.cls-9{isolation:isolate;}.cls-10{clip-path:url(#clip-path-7);}.cls-11{clip-path:url(#clip-path-8);}.cls-12{clip-path:url(#clip-path-9);}.cls-13{clip-path:url(#clip-path-10);}.cls-14{clip-path:url(#clip-path-12);}.cls-15{clip-path:url(#clip-path-14);}.cls-16{clip-path:url(#clip-path-16);}.cls-17{clip-path:url(#clip-path-18);}.cls-18{clip-path:url(#clip-path-20);}.cls-19{clip-path:url(#clip-path-22);}</style><clipPath id="clip-path"><rect class="cls-1" x="62.36" y="62.83" width="6.78" height="23.16"/></clipPath><clipPath id="clip-path-2"><rect class="cls-1" x="52.83" y="49.44" width="114.82" height="130.31"/></clipPath><clipPath id="clip-path-3"><path class="cls-2" d="M168.11,66.88l-8.24-16.49a2.07,2.07,0,0,0-2.77-.93l-16.5,8.25a2.09,2.09,0,0,0-.92,2.77,2.06,2.06,0,0,0,2.77.92l12-6-3.27,9.31a110,110,0,0,1-94.31,73.18l.35,4.12A114.16,114.16,0,0,0,155,66.1l3.34-9.51,6.06,12.14a2.06,2.06,0,0,0,2.76.92,2.08,2.08,0,0,0,.92-2.77"/></clipPath><clipPath id="clip-path-5"><rect class="cls-1" x="48.76" y="49.24" width="123.69" height="123.73"/></clipPath><clipPath id="clip-path-7"><rect class="cls-1" x="55.01" y="86.26" width="113.36" height="78.48"/></clipPath><clipPath id="clip-path-8"><path class="cls-2" d="M73.5,148.23H59.07A2.07,2.07,0,0,0,57,150.29v12.38a2.07,2.07,0,0,0,2.07,2.06H73.5a2.06,2.06,0,0,0,2-2.06V150.29A2.05,2.05,0,0,0,73.5,148.23ZM61.12,160.6H71.43v-8.25H61.12Z"/></clipPath><clipPath id="clip-path-9"><rect class="cls-1" x="56.91" y="87.35" width="110.1" height="77.39"/></clipPath><clipPath id="clip-path-10"><path class="cls-2" d="M96.17,142H81.74a2.05,2.05,0,0,0-2,2.06v18.57a2.05,2.05,0,0,0,2,2.06H96.17a2.08,2.08,0,0,0,2.07-2.06V144.1A2.08,2.08,0,0,0,96.17,142ZM83.81,160.6H94.12V146.17H83.81Z"/></clipPath><clipPath id="clip-path-12"><path class="cls-2" d="M118.84,131.73H104.41a2.06,2.06,0,0,0-2,2.06v28.88a2.06,2.06,0,0,0,2,2.06h14.43a2.06,2.06,0,0,0,2.07-2.06V133.79A2.06,2.06,0,0,0,118.84,131.73ZM106.48,160.6h10.31V135.86H106.48Z"/></clipPath><clipPath id="clip-path-14"><path class="cls-2" d="M141.54,117.3H127.1a2.06,2.06,0,0,0-2.07,2.06v43.31a2.07,2.07,0,0,0,2.07,2.06h14.44a2.05,2.05,0,0,0,2-2.06V119.36A2,2,0,0,0,141.54,117.3Zm-12.39,43.3h10.31V121.42H129.15Z"/></clipPath><clipPath id="clip-path-16"><path class="cls-2" d="M164.21,88.43H149.78a2.07,2.07,0,0,0-2.08,2.06v72.18a2.08,2.08,0,0,0,2.08,2.06h14.43a2.06,2.06,0,0,0,2-2.06V90.49A2.05,2.05,0,0,0,164.21,88.43ZM151.83,160.6h10.31v-68H151.83Z"/></clipPath><clipPath id="clip-path-18"><path class="cls-2" d="M57.58,174.55h106a2,2,0,0,1,0,4.09h-106a2,2,0,0,1,0-4.09Z"/></clipPath><clipPath id="clip-path-20"><rect class="cls-1" x="52.83" y="173.87" width="19.03" height="5.45"/></clipPath><clipPath id="clip-path-22"><path class="cls-2" d="M57.58,178.78a2,2,0,1,0-2-2.05A2,2,0,0,0,57.58,178.78Z"/></clipPath></defs><title>icon design system</title><g class="cls-3"><g class="cls-4"><rect class="cls-5" x="55.56" y="56.02" width="20.39" height="36.79"/></g></g><g class="cls-6"><g class="cls-4"><rect class="cls-7" x="50.02" y="42.43" width="125.1" height="106.42"/></g></g><g class="cls-8"><g class="cls-4"><g class="cls-9"><g class="cls-10"><g class="cls-11"><g class="cls-12"><rect class="cls-7" x="50.22" y="141.42" width="32.15" height="30.12"/></g></g><g class="cls-13"><g class="cls-12"><rect class="cls-7" x="72.89" y="135.23" width="32.15" height="36.31"/></g></g><g class="cls-14"><g class="cls-12"><rect class="cls-7" x="95.56" y="124.92" width="32.15" height="46.62"/></g></g><g class="cls-15"><g class="cls-12"><rect class="cls-7" x="118.23" y="110.49" width="32.15" height="61.05"/></g></g><g class="cls-16"><g class="cls-12"><rect class="cls-7" x="140.93" y="81.62" width="32.15" height="89.92"/></g></g></g></g></g></g><g class="cls-17"><g class="cls-4"><rect class="cls-7" x="48.76" y="167.74" width="123.7" height="17.71"/></g></g><g class="cls-18"><g class="cls-4"><rect class="cls-5" x="46.03" y="167.06" width="32.62" height="19.07"/></g></g><g class="cls-19"><g class="cls-4"><rect class="cls-7" x="48.76" y="167.88" width="17.67" height="17.71"/></g></g></svg>