<?xml version="1.0" encoding="UTF-8"?>
<svg width="16px" height="16px" viewBox="0 0 16 16" version="1.1" xmlns="http://www.w3.org/2000/svg" xmlns:xlink="http://www.w3.org/1999/xlink">
    <!-- Generator: Sketch 57.1 (83088) - https://sketch.com -->
    <title>icon/system/16/alert/warning</title>
    <desc>Created with Sketch.</desc>
    <g id="Atoms" stroke="none" stroke-width="1" fill="none" fill-rule="evenodd">
        <g id="Icons" transform="translate(-533.000000, -741.000000)">
            <g id="icon/system/16/alert/warning" transform="translate(533.000000, 741.000000)">
                <g id="icon/24/arrow">
                    <g id="baseline-error-24px" transform="translate(0.000000, -0.000000)">
                        <polygon id="Path" points="0 0 16 0 16 16 0 16"></polygon>
                    </g>
                    <circle id="Oval" fill="#FFC107" cx="8" cy="8" r="8"></circle>
                    <g id="outline-warning-24px" transform="translate(2.333333, 2.000000)" stroke="#000000">
                        <path d="M2.53112078,10.1666667 L8.80245169,10.1666667 C9.63087881,10.1666667 10.3024517,9.49509379 10.3024517,8.66666667 C10.3024517,8.42414305 10.2436463,8.18523578 10.1310756,7.97042066 L6.99541015,1.98673088 C6.61088409,1.25295216 5.70431895,0.969826923 4.97054023,1.35435297 C4.70035086,1.49594178 4.47975113,1.71654151 4.33816232,1.98673088 L1.20249687,7.97042066 C0.817970815,8.70419939 1.10109605,9.61076453 1.83487477,9.99529058 C2.04968989,10.1078613 2.28859716,10.1666667 2.53112078,10.1666667 Z" id="Shape"></path>
                        <path d="M5.58229167,8.24074074 L5.08229167,8.24074074 L5.58229167,8.74074074 L5.58229167,8.24074074 Z M5.58229167,8.05555556 L5.58229167,7.55555556 L5.08229167,8.05555556 L5.58229167,8.05555556 Z M5.69791667,8.05555556 L6.19791667,8.05555556 L5.69791667,7.55555556 L5.69791667,8.05555556 Z M5.69791667,8.24074074 L5.69791667,8.74074074 L6.19791667,8.24074074 L5.69791667,8.24074074 Z" id="Path"></path>
                        <path d="M5.58229167,6.16666667 L5.08229167,6.16666667 L5.58229167,6.66666667 L5.58229167,6.16666667 Z M5.58229167,3.83333333 L5.58229167,3.33333333 L5.08229167,3.83333333 L5.58229167,3.83333333 Z M5.69791667,3.83333333 L6.19791667,3.83333333 L5.69791667,3.33333333 L5.69791667,3.83333333 Z M5.69791667,6.16666667 L5.69791667,6.66666667 L6.19791667,6.16666667 L5.69791667,6.16666667 Z" id="Path"></path>
                    </g>
                </g>
            </g>
        </g>
    </g>
</svg>