<svg id="Layer_1" data-name="Layer 1" xmlns="http://www.w3.org/2000/svg" xmlns:xlink="http://www.w3.org/1999/xlink" viewBox="0 0 233.78 216.13"><defs><style>.cls-1,.cls-2,.cls-21,.cls-26,.cls-8{fill:none;}.cls-1{clip-rule:evenodd;}.cls-3{clip-path:url(#clip-path);}.cls-4{clip-path:url(#clip-path-2);}.cls-5{isolation:isolate;}.cls-6{clip-path:url(#clip-path-3);}.cls-7{clip-path:url(#clip-path-4);}.cls-21,.cls-8{stroke:#16103e;}.cls-26,.cls-8{stroke-miterlimit:10;}.cls-8{stroke-width:3.99px;}.cls-9{clip-path:url(#clip-path-5);}.cls-10{clip-path:url(#clip-path-7);}.cls-11{clip-path:url(#clip-path-8);}.cls-12{clip-path:url(#clip-path-9);}.cls-13{clip-path:url(#clip-path-11);}.cls-14{clip-path:url(#clip-path-12);}.cls-15{clip-path:url(#clip-path-13);}.cls-16{clip-path:url(#clip-path-15);}.cls-17{clip-path:url(#clip-path-16);}.cls-18{clip-path:url(#clip-path-17);}.cls-19{clip-path:url(#clip-path-19);}.cls-20{clip-path:url(#clip-path-20);}.cls-21{stroke-linecap:round;stroke-linejoin:round;stroke-width:2px;}.cls-22{clip-path:url(#clip-path-22);}.cls-23{fill:#fff;}.cls-24{clip-path:url(#clip-path-24);}.cls-25{fill:#3ba07a;}.cls-26{stroke:#3ba07a;stroke-width:1.6px;}.cls-27{clip-path:url(#clip-path-27);}.cls-28{clip-path:url(#clip-path-29);}.cls-29{fill:#16103e;}</style><clipPath id="clip-path"><path class="cls-1" d="M48.66,83.7H169.39a3.47,3.47,0,0,1,3.44,3.51V168a3.47,3.47,0,0,1-3.44,3.51H48.66A3.49,3.49,0,0,1,45.19,168V87.21A3.49,3.49,0,0,1,48.66,83.7Z"/></clipPath><clipPath id="clip-path-2"><rect class="cls-2" x="41.75" y="39.03" width="156.96" height="133.4"/></clipPath><clipPath id="clip-path-3"><rect class="cls-2" x="43.93" y="81.66" width="130.8" height="91.56"/></clipPath><clipPath id="clip-path-4"><rect class="cls-2" x="45.19" y="83.7" width="127.64" height="87.77"/></clipPath><clipPath id="clip-path-5"><path class="cls-1" d="M90,111.79H128a3.48,3.48,0,0,1,3.45,3.51V168a3.48,3.48,0,0,1-3.45,3.51H90A3.48,3.48,0,0,1,86.59,168V115.3A3.48,3.48,0,0,1,90,111.79Z"/></clipPath><clipPath id="clip-path-7"><rect class="cls-2" x="85.35" y="110" width="47.96" height="63.22"/></clipPath><clipPath id="clip-path-8"><rect class="cls-2" x="86.59" y="111.79" width="44.85" height="59.68"/></clipPath><clipPath id="clip-path-9"><path class="cls-1" d="M138.35,94.23h19a3.47,3.47,0,0,1,3.45,3.51V115.3a3.47,3.47,0,0,1-3.45,3.51h-19a3.47,3.47,0,0,1-3.45-3.51V97.74A3.47,3.47,0,0,1,138.35,94.23Z"/></clipPath><clipPath id="clip-path-11"><rect class="cls-2" x="133.31" y="92.56" width="28.34" height="28.34"/></clipPath><clipPath id="clip-path-12"><rect class="cls-2" x="134.9" y="94.23" width="25.87" height="24.57"/></clipPath><clipPath id="clip-path-13"><path class="cls-1" d="M62.46,94.23h19a3.48,3.48,0,0,1,3.44,3.51V115.3a3.48,3.48,0,0,1-3.44,3.51h-19A3.49,3.49,0,0,1,59,115.3V97.74A3.49,3.49,0,0,1,62.46,94.23Z"/></clipPath><clipPath id="clip-path-15"><rect class="cls-2" x="57.01" y="92.56" width="28.34" height="28.34"/></clipPath><clipPath id="clip-path-16"><rect class="cls-2" x="58.99" y="94.23" width="26.35" height="24.57"/></clipPath><clipPath id="clip-path-17"><path class="cls-1" d="M45.19,62.64H172.83a3.47,3.47,0,0,1,3.45,3.51V83.7a3.47,3.47,0,0,1-3.45,3.51H45.19a3.48,3.48,0,0,1-3.44-3.51V66.15A3.48,3.48,0,0,1,45.19,62.64Z"/></clipPath><clipPath id="clip-path-19"><rect class="cls-2" x="41.75" y="62.04" width="135.16" height="26.16"/></clipPath><clipPath id="clip-path-20"><rect class="cls-2" x="41.75" y="62.64" width="134.54" height="24.57"/></clipPath><clipPath id="clip-path-22"><path class="cls-1" d="M173.92,166.2c12.82,0,23.22-11,23.22-24.57s-10.4-24.58-23.22-24.58-23.19,11-23.19,24.58S161.11,166.2,173.92,166.2Z"/></clipPath><clipPath id="clip-path-24"><path class="cls-1" d="M184.52,131.68l-13.15,14L165,138.9a1.79,1.79,0,0,0-2.62,0,2,2,0,0,0,0,2.73l7.69,8.22a1.79,1.79,0,0,0,2.62,0s0,0,0,0l14.43-15.44a2,2,0,0,0,0-2.73,1.76,1.76,0,0,0-2.59,0"/></clipPath><clipPath id="clip-path-27"><rect class="cls-2" x="58.99" y="165.32" width="24.15" height="7.02"/></clipPath><clipPath id="clip-path-29"><path class="cls-1" d="M65,171.47a2.64,2.64,0,1,0-2.57-2.64A2.62,2.62,0,0,0,65,171.47Z"/></clipPath></defs><title>icon design system</title><g class="cls-3"><g class="cls-4"><g class="cls-5"><g class="cls-6"><g class="cls-7"><path class="cls-8" d="M48.64,83.7H169.38a3.48,3.48,0,0,1,3.45,3.51V168a3.48,3.48,0,0,1-3.45,3.51H48.64A3.48,3.48,0,0,1,45.19,168V87.21A3.48,3.48,0,0,1,48.64,83.7Z"/></g></g></g></g></g><g class="cls-9"><g class="cls-4"><g class="cls-5"><g class="cls-10"><g class="cls-11"><path class="cls-8" d="M90,111.79H128a3.48,3.48,0,0,1,3.45,3.51V168a3.48,3.48,0,0,1-3.45,3.51H90A3.48,3.48,0,0,1,86.59,168V115.3A3.48,3.48,0,0,1,90,111.79Z"/></g></g></g></g></g><g class="cls-12"><g class="cls-4"><g class="cls-5"><g class="cls-13"><g class="cls-14"><path class="cls-8" d="M138.35,94.23h19a3.48,3.48,0,0,1,3.45,3.51V115.3a3.48,3.48,0,0,1-3.45,3.51h-19a3.48,3.48,0,0,1-3.45-3.51V97.74A3.48,3.48,0,0,1,138.35,94.23Z"/></g></g></g></g></g><g class="cls-15"><g class="cls-4"><g class="cls-5"><g class="cls-16"><g class="cls-17"><path class="cls-8" d="M62.44,94.23h19a3.48,3.48,0,0,1,3.45,3.51V115.3a3.48,3.48,0,0,1-3.45,3.51h-19A3.48,3.48,0,0,1,59,115.3V97.74A3.48,3.48,0,0,1,62.44,94.23Z"/></g></g></g></g></g><g class="cls-18"><g class="cls-4"><g class="cls-5"><g class="cls-19"><g class="cls-20"><path class="cls-8" d="M45.2,62.64H172.84a3.48,3.48,0,0,1,3.45,3.51V83.7a3.48,3.48,0,0,1-3.45,3.51H45.2a3.48,3.48,0,0,1-3.45-3.51V66.15A3.48,3.48,0,0,1,45.2,62.64Z"/></g></g></g></g></g><g class="cls-4"><polyline class="cls-21" points="45.2 64.39 62.73 41.57 155.29 41.57 172.83 64.39"/></g><g class="cls-22"><g class="cls-4"><rect class="cls-23" x="142.1" y="108.28" width="63.66" height="66.7"/></g></g><g class="cls-24"><g class="cls-4"><rect class="cls-25" x="153.21" y="122.32" width="43.08" height="36.86"/></g></g><g class="cls-4"><ellipse class="cls-26" cx="174.76" cy="140.75" rx="19.06" ry="20.19"/></g><g class="cls-27"><g class="cls-4"><rect class="cls-23" x="50.38" y="156.55" width="41.4" height="24.57"/></g></g><g class="cls-28"><g class="cls-4"><rect class="cls-29" x="53.83" y="157.43" width="22.42" height="22.82"/></g></g></svg>