<svg id="Layer_1" data-name="Layer 1" xmlns="http://www.w3.org/2000/svg" xmlns:xlink="http://www.w3.org/1999/xlink" viewBox="0 0 233.78 216.13"><defs><style>.cls-1,.cls-11,.cls-12,.cls-13,.cls-2,.cls-24,.cls-26,.cls-27,.cls-8{fill:none;}.cls-1{clip-rule:evenodd;}.cls-3{clip-path:url(#clip-path);}.cls-4{clip-path:url(#clip-path-2);}.cls-5{isolation:isolate;}.cls-6{clip-path:url(#clip-path-3);}.cls-7{clip-path:url(#clip-path-4);}.cls-12,.cls-13,.cls-24,.cls-8{stroke:#16103e;}.cls-11,.cls-12,.cls-24,.cls-26,.cls-27,.cls-8{stroke-miterlimit:10;}.cls-8{stroke-width:3.78px;}.cls-9{clip-path:url(#clip-path-5);}.cls-10{fill:#fff;}.cls-11{stroke:#fff;stroke-width:0.76px;}.cls-12,.cls-13,.cls-26,.cls-27{stroke-width:1.51px;}.cls-13,.cls-27{stroke-linecap:round;}.cls-13{stroke-linejoin:bevel;}.cls-14{clip-path:url(#clip-path-8);}.cls-15{fill:#16103e;}.cls-16{clip-path:url(#clip-path-10);}.cls-17{clip-path:url(#clip-path-12);}.cls-18{clip-path:url(#clip-path-14);}.cls-19{clip-path:url(#clip-path-16);}.cls-20{clip-path:url(#clip-path-18);}.cls-21{clip-path:url(#clip-path-20);}.cls-22{clip-path:url(#clip-path-22);}.cls-23{clip-path:url(#clip-path-24);}.cls-24{stroke-width:1.89px;}.cls-25{clip-path:url(#clip-path-27);}.cls-26,.cls-27{stroke:#3ba07a;}.cls-28{clip-path:url(#clip-path-30);}.cls-29{clip-path:url(#clip-path-32);}</style><clipPath id="clip-path"><path class="cls-1" d="M55.38,32.85h82.1a8.23,8.23,0,0,1,8.2,8.27V166.81a8.23,8.23,0,0,1-8.2,8.27H55.38a8.24,8.24,0,0,1-8.21-8.27V41.12A8.24,8.24,0,0,1,55.38,32.85Z"/></clipPath><clipPath id="clip-path-2"><rect class="cls-2" x="47.27" y="33.4" width="126.33" height="143.34"/></clipPath><clipPath id="clip-path-3"><rect class="cls-2" x="47.17" y="32.85" width="100.28" height="143.88"/></clipPath><clipPath id="clip-path-4"><rect class="cls-2" x="47.17" y="32.85" width="98.52" height="142.23"/></clipPath><clipPath id="clip-path-5"><polygon class="cls-1" points="147.34 143.66 117.78 175.08 146.2 175.08 147.34 143.66"/></clipPath><clipPath id="clip-path-8"><path class="cls-1" d="M57,67.58h41a1.66,1.66,0,0,1,0,3.31H57a1.66,1.66,0,0,1,0-3.31Z"/></clipPath><clipPath id="clip-path-10"><path class="cls-1" d="M57,79.16H98.26a1.66,1.66,0,0,1,0,3.31H57a1.66,1.66,0,0,1,0-3.31Z"/></clipPath><clipPath id="clip-path-12"><path class="cls-1" d="M57,90.74H98.26a1.65,1.65,0,0,1,0,3.3H57a1.65,1.65,0,0,1,0-3.3Z"/></clipPath><clipPath id="clip-path-14"><path class="cls-1" d="M57,102.31H98.26a1.66,1.66,0,0,1,0,3.31H57a1.66,1.66,0,0,1,0-3.31Z"/></clipPath><clipPath id="clip-path-16"><path class="cls-1" d="M57,113.89H98.26a1.66,1.66,0,0,1,0,3.31H57a1.66,1.66,0,0,1,0-3.31Z"/></clipPath><clipPath id="clip-path-18"><path class="cls-1" d="M57,125.47H98.26a1.65,1.65,0,0,1,0,3.3H57a1.65,1.65,0,0,1,0-3.3Z"/></clipPath><clipPath id="clip-path-20"><path class="cls-1" d="M57,137H98.26a1.66,1.66,0,0,1,0,3.31H57A1.66,1.66,0,0,1,57,137Z"/></clipPath><clipPath id="clip-path-22"><path class="cls-1" d="M57,148.62H98.26a1.66,1.66,0,0,1,0,3.31H57a1.66,1.66,0,0,1,0-3.31Z"/></clipPath><clipPath id="clip-path-24"><line class="cls-2" x1="48.54" y1="55.18" x2="144.04" y2="55.18"/></clipPath><clipPath id="clip-path-27"><path class="cls-1" d="M147.86,128.77a25.63,25.63,0,1,0-25.16-25.63A25.4,25.4,0,0,0,147.86,128.77Z"/></clipPath><clipPath id="clip-path-30"><rect class="cls-2" x="63.58" y="170.12" width="23" height="6.61"/></clipPath><clipPath id="clip-path-32"><path class="cls-1" d="M69.34,175.08a2.48,2.48,0,1,0-2.47-2.48A2.48,2.48,0,0,0,69.34,175.08Z"/></clipPath></defs><title>icon design system</title><g class="cls-3"><g class="cls-4"><g class="cls-5"><g class="cls-6"><g class="cls-7"><path class="cls-8" d="M55.38,32.85h82.1a8.24,8.24,0,0,1,8.21,8.27V166.81a8.24,8.24,0,0,1-8.21,8.27H55.38a8.23,8.23,0,0,1-8.21-8.27V41.12A8.23,8.23,0,0,1,55.38,32.85Z"/></g></g></g></g></g><g class="cls-9"><g class="cls-4"><rect class="cls-10" x="109.56" y="135.39" width="45.98" height="47.96"/></g></g><g class="cls-4"><polygon class="cls-11" points="147.33 143.66 117.78 175.08 146.2 175.08 147.33 143.66"/><path class="cls-12" d="M117.32,172.19l25.74-27.4a1.65,1.65,0,0,0-.06-2.33,1.61,1.61,0,0,0-1.13-.46h-24.1a3.3,3.3,0,0,0-3.29,3.31v25.74a1.65,1.65,0,0,0,1.65,1.66A1.64,1.64,0,0,0,117.32,172.19Z"/><line class="cls-13" x1="106.29" y1="69.24" x2="132.56" y2="69.24"/><line class="cls-13" x1="106.29" y1="80.81" x2="127.02" y2="80.81"/><line class="cls-13" x1="106.29" y1="92.39" x2="127.02" y2="92.39"/><line class="cls-13" x1="106.29" y1="103.97" x2="127.02" y2="103.97"/><line class="cls-13" x1="106.29" y1="115.54" x2="127.02" y2="115.54"/><line class="cls-13" x1="107.21" y1="128.77" x2="131.37" y2="128.77"/></g><g class="cls-14"><g class="cls-4"><rect class="cls-15" x="47.17" y="59.31" width="60.76" height="19.85"/></g></g><g class="cls-16"><g class="cls-4"><rect class="cls-15" x="47.17" y="70.89" width="60.95" height="19.85"/></g></g><g class="cls-17"><g class="cls-4"><rect class="cls-15" x="47.17" y="82.47" width="60.95" height="19.85"/></g></g><g class="cls-18"><g class="cls-4"><rect class="cls-15" x="47.17" y="94.04" width="60.95" height="19.85"/></g></g><g class="cls-19"><g class="cls-4"><rect class="cls-15" x="47.17" y="105.62" width="60.95" height="19.85"/></g></g><g class="cls-20"><g class="cls-4"><rect class="cls-15" x="47.17" y="117.2" width="60.95" height="19.85"/></g></g><g class="cls-21"><g class="cls-4"><rect class="cls-15" x="47.17" y="128.77" width="60.95" height="19.85"/></g></g><g class="cls-22"><g class="cls-4"><rect class="cls-15" x="47.17" y="140.35" width="60.95" height="19.85"/></g></g><g class="cls-23"><g class="cls-4"><rect x="40.32" y="46.91" width="111.93" height="16.54"/></g></g><g class="cls-4"><line class="cls-24" x1="48.54" y1="55.18" x2="144.05" y2="55.18"/></g><g class="cls-25"><g class="cls-4"><rect class="cls-10" x="114.48" y="69.24" width="66.75" height="67.81"/></g></g><g class="cls-4"><ellipse class="cls-26" cx="148" cy="103.97" rx="19.48" ry="19.85"/><polyline class="cls-27" points="137.79 103.64 145.21 110.58 157.59 99"/></g><g class="cls-28"><g class="cls-4"><rect class="cls-10" x="55.38" y="161.85" width="39.41" height="23.15"/></g></g><g class="cls-29"><g class="cls-4"><rect class="cls-15" x="58.65" y="161.85" width="21.35" height="21.5"/></g></g></svg>