<svg id="Layer_1" data-name="Layer 1" xmlns="http://www.w3.org/2000/svg" xmlns:xlink="http://www.w3.org/1999/xlink" viewBox="0 0 233.78 216.13"><defs><style>.cls-1,.cls-2{fill:none;}.cls-2{clip-rule:evenodd;}.cls-3{clip-path:url(#clip-path);}.cls-4{clip-path:url(#clip-path-2);}.cls-5{isolation:isolate;}.cls-6{clip-path:url(#clip-path-3);}.cls-7{clip-path:url(#clip-path-4);}.cls-8{clip-path:url(#clip-path-5);}.cls-9{fill:#16103e;}.cls-10{clip-path:url(#clip-path-6);}.cls-11{fill:#3ba07a;}.cls-12{clip-path:url(#clip-path-8);}.cls-13{clip-path:url(#clip-path-10);}.cls-14{clip-path:url(#clip-path-12);}.cls-15{clip-path:url(#clip-path-14);}.cls-16{clip-path:url(#clip-path-16);}.cls-17{fill:#fff;}.cls-18{clip-path:url(#clip-path-18);}</style><clipPath id="clip-path"><rect class="cls-1" x="49.77" y="36.12" width="139.93" height="134.33"/></clipPath><clipPath id="clip-path-2"><rect class="cls-1" x="50.04" y="35.99" width="140.33" height="136.38"/></clipPath><clipPath id="clip-path-3"><rect class="cls-1" x="49.27" y="35.03" width="141.7" height="137.34"/></clipPath><clipPath id="clip-path-4"><path class="cls-2" d="M189.29,72.38c0-19-26.46-20.31-29.09-2.62H142.71V67.58a2.64,2.64,0,0,0-1.53-2.19l-5.25-1.52a26.55,26.55,0,0,0-3.06-7.21l2.62-4.81a2.33,2.33,0,0,0-.43-2.62l-6.13-6.12a2.32,2.32,0,0,0-2.62-.43L121.93,46a29.58,29.58,0,0,0-7.21-3.05l-1.53-5.25a2.11,2.11,0,0,0-2-1.53h-8.53a2.11,2.11,0,0,0-2,1.53L99.19,42.9A33.7,33.7,0,0,0,92,46l-4.81-2.62a2.4,2.4,0,0,0-2.63.44l-6.12,6.12A2.32,2.32,0,0,0,78,52.51l2.63,4.8a26.2,26.2,0,0,0-3.06,7.21L72.3,66.05a2.09,2.09,0,0,0-1.53,2V70.2H56.11a6.35,6.35,0,0,0-6.34,6.33v87.59a6.35,6.35,0,0,0,6.34,6.33H174.2A16.42,16.42,0,0,0,184,167C191.91,160,189.29,160.62,189.29,72.38Zm-14.66-10.7c6.13,0,10.5,5,10.5,10.92v72.73a14.81,14.81,0,0,0-21,0V72A10.6,10.6,0,0,1,174.63,61.68ZM75.36,69.32,80.17,68a2.64,2.64,0,0,0,1.53-1.52,25,25,0,0,1,3.5-8.3,2,2,0,0,0,0-2.19l-2.41-4.37,3.72-3.71,4.37,2.4a2,2,0,0,0,2.19,0,24.83,24.83,0,0,1,8.31-3.49,2.16,2.16,0,0,0,1.53-1.53l1.53-4.81h5.25L111,45.3a2.68,2.68,0,0,0,1.53,1.53,25.74,25.74,0,0,1,8.09,3.28,2,2,0,0,0,2.19,0l4.37-2.41,3.72,3.72-2.4,4.36a2,2,0,0,0,0,2.19,27.71,27.71,0,0,1,3.49,8.3,2.18,2.18,0,0,0,1.54,1.53l4.81,1.31v5.24l-4.81,1.31A2.64,2.64,0,0,0,132,77.19a24.78,24.78,0,0,1-3.49,8.3,2,2,0,0,0,0,2.18L130.9,92l-3.72,3.71-4.37-2.4a2,2,0,0,0-2.19,0,29.27,29.27,0,0,1-8.09,3.5A2.15,2.15,0,0,0,111,98.37l-1.31,4.81h-5.25l-1.31-4.81a2.61,2.61,0,0,0-1.53-1.52,22.26,22.26,0,0,1-8.09-3.5,2,2,0,0,0-2.19,0L87,95.75,83.23,92l2.41-4.37a2,2,0,0,0,0-2.18,27.73,27.73,0,0,1-3.5-8.3,2.16,2.16,0,0,0-1.53-1.53L75.8,74.35v-5Zm106.05,93.92a10.85,10.85,0,0,1-7.21,2.63H56.11a2.19,2.19,0,0,1-2.18-2.19V76.32a2.19,2.19,0,0,1,2.18-2.19H71.2v2.19a2.1,2.1,0,0,0,1.53,2L78,79.81A26.82,26.82,0,0,0,81,87l-2.62,4.8a2.31,2.31,0,0,0,.44,2.62L85,100.56a2.35,2.35,0,0,0,2.62.44l4.82-2.63a26.38,26.38,0,0,0,7.21,3.06l1.53,5.24a2.1,2.1,0,0,0,2,1.53h8.53a2.1,2.1,0,0,0,2-1.53l1.53-5.24a33.75,33.75,0,0,0,7.21-3.06l4.81,2.63a2.4,2.4,0,0,0,2.62-.44l6.13-6.12a2.32,2.32,0,0,0,.44-2.62L133.74,87a26.2,26.2,0,0,0,3.06-7.21l5.25-1.53a2.09,2.09,0,0,0,1.53-2V74.13h17.28V155.6a2.19,2.19,0,0,0,4.37,0,10.49,10.49,0,0,1,10.5-10.48c5,0,10.28,4.8,10.28,11.79C184.69,159.31,183.38,161.72,181.41,163.24Z"/></clipPath><clipPath id="clip-path-5"><rect class="cls-1" x="49.27" y="35.03" width="141.7" height="135.6"/></clipPath><clipPath id="clip-path-6"><path class="cls-2" d="M67.16,96.56A1.63,1.63,0,0,0,65,96.11a1.94,1.94,0,0,0-1.27,2v58.34A1.78,1.78,0,0,0,64.4,158a3,3,0,0,0,1.28.44h55.53a2,2,0,0,0,1.91-1.33,2.54,2.54,0,0,0-.42-2.45Zm.42,57.67v-51l48.55,51Z"/></clipPath><clipPath id="clip-path-8"><path class="cls-2" d="M74.71,146.3H93.15a2.12,2.12,0,0,0,2-1.41,2.67,2.67,0,0,0-.44-2.57L76.25,122.67a1.92,1.92,0,0,0-2.42-.47,2.06,2.06,0,0,0-1.32,2.11V144A2.28,2.28,0,0,0,74.71,146.3Zm2.19-16.38,11.2,11.93H76.9Z"/></clipPath><clipPath id="clip-path-10"><path class="cls-2" d="M106.57,87.19a13.5,13.5,0,0,0,10.24-4.76,12.48,12.48,0,0,0,2.61-11,13.13,13.13,0,0,0-9.8-10A12.81,12.81,0,0,0,98.52,64a13.23,13.23,0,0,0-5,10.17,13.07,13.07,0,0,0,13.06,13m-5.66-19.91a8.58,8.58,0,0,1,5.66-2,5.94,5.94,0,0,1,2,.22,9.2,9.2,0,0,1,6.75,6.7,8.81,8.81,0,0,1-8.71,10.83,8.81,8.81,0,0,1-8.92-8.88,9.52,9.52,0,0,1,3.26-6.92"/></clipPath><clipPath id="clip-path-12"><path class="cls-2" d="M147.07,113.26H113.2a2.65,2.65,0,0,0,0,5.22h34.09a2.43,2.43,0,0,0,2.2-2.61c-.22-1.56-1.1-2.61-2.42-2.61"/></clipPath><clipPath id="clip-path-14"><path class="cls-2" d="M147.07,128.91H113.2a2.65,2.65,0,0,0,0,5.22h34.09a2.43,2.43,0,0,0,2.2-2.61c-.22-1.57-1.1-2.61-2.42-2.61"/></clipPath><clipPath id="clip-path-16"><rect class="cls-1" x="65.02" y="165.42" width="24.49" height="6.95"/></clipPath><clipPath id="clip-path-18"><path class="cls-2" d="M71.14,170.63a2.61,2.61,0,1,0-2.62-2.6A2.61,2.61,0,0,0,71.14,170.63Z"/></clipPath></defs><title>icon design system</title><g class="cls-3"><g class="cls-4"><g class="cls-5"><g class="cls-6"><g class="cls-7"><g class="cls-8"><rect class="cls-9" x="41.03" y="27.43" width="157.43" height="151.71"/></g></g></g></g></g></g><g class="cls-10"><g class="cls-4"><rect class="cls-11" x="55.02" y="87.19" width="76.97" height="79.97"/></g></g><g class="cls-12"><g class="cls-4"><rect class="cls-11" x="63.77" y="113.26" width="40.24" height="41.72"/></g></g><g class="cls-13"><g class="cls-4"><rect x="84.76" y="52.42" width="43.73" height="43.46"/></g></g><g class="cls-14"><g class="cls-4"><rect class="cls-9" x="102.25" y="104.57" width="55.98" height="22.6"/></g></g><g class="cls-15"><g class="cls-4"><rect class="cls-9" x="102.25" y="120.22" width="55.98" height="22.6"/></g></g><g class="cls-16"><g class="cls-4"><rect class="cls-17" x="56.27" y="156.73" width="41.99" height="24.34"/></g></g><g class="cls-18"><g class="cls-4"><rect class="cls-9" x="59.77" y="156.73" width="22.74" height="22.6"/></g></g></svg>