<svg id="Layer_1" data-name="Layer 1" xmlns="http://www.w3.org/2000/svg" xmlns:xlink="http://www.w3.org/1999/xlink" viewBox="0 0 233.78 216.13"><defs><style>.cls-1,.cls-2{fill:none;}.cls-2{clip-rule:evenodd;}.cls-3{clip-path:url(#clip-path);}.cls-4{clip-path:url(#clip-path-2);}.cls-5{fill:#fff;}.cls-6{clip-path:url(#clip-path-3);}.cls-7{fill:#3ba07a;}.cls-8{clip-path:url(#clip-path-5);}.cls-9{clip-path:url(#clip-path-7);}.cls-10{fill:#16103e;}.cls-11{clip-path:url(#clip-path-9);}.cls-12{clip-path:url(#clip-path-11);}.cls-13{clip-path:url(#clip-path-13);}.cls-14{clip-path:url(#clip-path-15);}.cls-15{clip-path:url(#clip-path-17);}.cls-16{clip-path:url(#clip-path-19);}.cls-17{clip-path:url(#clip-path-21);}</style><clipPath id="clip-path"><rect class="cls-1" x="59.26" y="54.23" width="7.5" height="25.23"/></clipPath><clipPath id="clip-path-2"><rect class="cls-1" x="51.78" y="39.39" width="123.72" height="139.52"/></clipPath><clipPath id="clip-path-3"><path class="cls-2" d="M166.66,40.68a2.28,2.28,0,0,0-3-1l-18.16,9a2.25,2.25,0,0,0,2,4l13.17-6.5-3.6,10.14A121,121,0,0,1,53.17,136l.4,4.49A125.5,125.5,0,0,0,161.34,57.8L165,47.44l6.67,13.22a2.3,2.3,0,0,0,3,1,2.25,2.25,0,0,0,1-3Z"/></clipPath><clipPath id="clip-path-5"><path class="cls-2" d="M53.24,136c-.87,1.84-.76,3.33.33,4.45"/></clipPath><clipPath id="clip-path-7"><path class="cls-2" d="M57,173h107.8a2.23,2.23,0,1,1,0,4.45H57A2.23,2.23,0,1,1,57,173Z"/></clipPath><clipPath id="clip-path-9"><path class="cls-2" d="M75.43,146.44H61.28a2,2,0,0,0-2,2v12a2,2,0,0,0,2,2H75.43a2,2,0,0,0,2-2v-12A2,2,0,0,0,75.43,146.44Zm-12.12,12H73.4v-8H63.31Z"/></clipPath><clipPath id="clip-path-11"><path class="cls-2" d="M97.67,140.43H83.52a2,2,0,0,0-2,2v18a2,2,0,0,0,2,2H97.67a2,2,0,0,0,2-2v-18A2,2,0,0,0,97.67,140.43Zm-12.12,18H95.64v-14H85.55Z"/></clipPath><clipPath id="clip-path-13"><path class="cls-2" d="M119.9,130.42H105.75a2,2,0,0,0-2,2v28a2,2,0,0,0,2,2H119.9a2,2,0,0,0,2-2v-28A2,2,0,0,0,119.9,130.42Zm-12.14,28h10.11v-24H107.76Z"/></clipPath><clipPath id="clip-path-15"><path class="cls-2" d="M142.14,116.41H128a2,2,0,0,0-2,2v42a2,2,0,0,0,2,2h14.15a2,2,0,0,0,2-2v-42A2,2,0,0,0,142.14,116.41Zm-12.14,42h10.11v-38H130Z"/></clipPath><clipPath id="clip-path-17"><path class="cls-2" d="M164.35,88.37H150.2a2,2,0,0,0-2,2v70.07a2,2,0,0,0,2,2h14.15a2,2,0,0,0,2-2V90.38A2,2,0,0,0,164.35,88.37Zm-12.12,70.08h10.12V92.38H152.23Z"/></clipPath><clipPath id="clip-path-19"><rect class="cls-1" x="54.76" y="171.49" width="20.97" height="7.42"/></clipPath><clipPath id="clip-path-21"><ellipse class="cls-1" cx="60.02" cy="175.2" rx="2.25" ry="2.23"/></clipPath></defs><title>icon design system</title><g class="cls-3"><g class="cls-4"><rect class="cls-5" x="51.78" y="46.81" width="22.46" height="40.07"/></g></g><g class="cls-6"><g class="cls-4"><rect class="cls-7" x="45.7" y="32.02" width="137.78" height="115.93"/></g></g><g class="cls-8"><g class="cls-4"><rect class="cls-7" x="45.17" y="128.6" width="15.89" height="19.3"/></g></g><g class="cls-9"><g class="cls-4"><rect class="cls-10" x="47.29" y="165.55" width="127.25" height="19.3"/></g></g><g class="cls-11"><g class="cls-4"><rect class="cls-10" x="51.78" y="139.02" width="33.16" height="30.86"/></g></g><g class="cls-12"><g class="cls-4"><rect class="cls-10" x="74.01" y="133.01" width="33.16" height="36.87"/></g></g><g class="cls-13"><g class="cls-4"><rect class="cls-10" x="96.25" y="123" width="33.16" height="46.88"/></g></g><g class="cls-14"><g class="cls-4"><rect class="cls-10" x="118.46" y="108.98" width="33.16" height="60.89"/></g></g><g class="cls-15"><g class="cls-4"><rect class="cls-10" x="140.7" y="80.95" width="33.16" height="88.93"/></g></g><g class="cls-16"><g class="cls-4"><rect class="cls-5" x="47.29" y="164.07" width="35.93" height="22.26"/></g></g><g class="cls-17"><g class="cls-4"><rect class="cls-10" x="50.27" y="165.55" width="19.46" height="19.3"/></g></g></svg>