<?xml version="1.0" encoding="UTF-8"?>
<svg width="40px" height="41px" viewBox="0 0 40 41" version="1.1" xmlns="http://www.w3.org/2000/svg" xmlns:xlink="http://www.w3.org/1999/xlink">
    <!-- Generator: Sketch 57.1 (83088) - https://sketch.com -->
    <title>icon/system/40/zoom</title>
    <desc>Created with Sketch.</desc>
    <g id="Atoms" stroke="none" stroke-width="1" fill="none" fill-rule="evenodd">
        <g id="Icons" transform="translate(-631.000000, -628.000000)" fill="#160F3E">
            <g id="icon/system/40/zoom" transform="translate(631.000000, 628.000000)">
                <path d="M26.7125258,4.69118644 C20.6101695,-1.56372881 10.6781315,-1.56372881 4.57577511,4.69118644 C-1.52525837,10.9474576 -1.52525837,21.1264407 4.57577511,27.3827119 C10.0100868,32.9515254 18.4737495,33.5481356 24.5721372,29.199661 C24.7004547,29.8220339 24.9941298,30.4159322 25.4663911,30.9 L34.3533692,40.0091525 C35.6484498,41.3338983 37.7412154,41.3338983 39.0296817,40.0091525 C40.3234394,38.6830508 40.3234394,36.5379661 39.0296817,35.2159322 L30.1427036,26.1040678 C29.6730881,25.6240678 29.0923522,25.3216949 28.4851592,25.1901695 C32.7302191,18.9379661 32.1481604,10.2640678 26.7125258,4.69118644 Z M23.9067383,24.5067797 C19.3508061,29.1766102 11.936172,29.1766102 7.38156263,24.5067797 C2.82827615,19.8369492 2.82827615,12.2383051 7.38156263,7.56847458 C11.936172,2.9 19.3508061,2.9 23.9067383,7.56847458 C28.4626705,12.2383051 28.4626705,19.8369492 23.9067383,24.5067797 Z" id="Shape"></path>
            </g>
        </g>
    </g>
</svg>