<svg id="Layer_1" data-name="Layer 1" xmlns="http://www.w3.org/2000/svg" xmlns:xlink="http://www.w3.org/1999/xlink" viewBox="0 0 233.78 216.13"><defs><style>.cls-1,.cls-2{fill:none;}.cls-2{clip-rule:evenodd;}.cls-3{clip-path:url(#clip-path);}.cls-4{clip-path:url(#clip-path-2);}.cls-5{isolation:isolate;}.cls-6{clip-path:url(#clip-path-3);}.cls-7{clip-path:url(#clip-path-4);}.cls-8{clip-path:url(#clip-path-5);}.cls-9{clip-path:url(#clip-path-6);}.cls-10{clip-path:url(#clip-path-8);}.cls-11{clip-path:url(#clip-path-9);}.cls-12{clip-path:url(#clip-path-10);}.cls-13{clip-path:url(#clip-path-11);}.cls-14{clip-path:url(#clip-path-13);}.cls-15{clip-path:url(#clip-path-14);}.cls-16{clip-path:url(#clip-path-15);}.cls-17{clip-path:url(#clip-path-16);}.cls-18{clip-path:url(#clip-path-18);}.cls-19{clip-path:url(#clip-path-19);}.cls-20{clip-path:url(#clip-path-20);}.cls-21{clip-path:url(#clip-path-21);}.cls-22{clip-path:url(#clip-path-23);}.cls-23{clip-path:url(#clip-path-25);}.cls-24{clip-path:url(#clip-path-26);}.cls-25{clip-path:url(#clip-path-27);}.cls-26{clip-path:url(#clip-path-28);}.cls-27{clip-path:url(#clip-path-30);}.cls-28{clip-path:url(#clip-path-31);}.cls-29{clip-path:url(#clip-path-32);}.cls-30{clip-path:url(#clip-path-33);}.cls-31{clip-path:url(#clip-path-35);}.cls-32{fill:#fff;}.cls-33{clip-path:url(#clip-path-37);}</style><clipPath id="clip-path"><rect class="cls-1" x="43.86" y="30.67" width="146.06" height="153.2"/></clipPath><clipPath id="clip-path-2"><rect class="cls-1" x="43.86" y="30.67" width="145.15" height="154.78"/></clipPath><clipPath id="clip-path-3"><rect class="cls-1" x="43.86" y="30.67" width="146.06" height="154.78"/></clipPath><clipPath id="clip-path-4"><path class="cls-2" d="M186.67,72.86a8.38,8.38,0,0,0-11.45-2.33l-2.11,1.36-3.71,2.4v-28a8.22,8.22,0,0,0-8.28-8.13H118.68a13.45,13.45,0,0,0-24.09,0H52.14a8.21,8.21,0,0,0-8.28,8.13V175.75a8.2,8.2,0,0,0,8.28,8.12h109a8.21,8.21,0,0,0,8.28-8.12v-78l16.79-10.84a8.06,8.06,0,0,0,2.38-11.26Zm-72,55.67-2.29-3.43L178,82.74l2.29,3.42ZM150.83,145h-10.2a8.21,8.21,0,0,0-8.29,8.12v9.76H63.65a1.22,1.22,0,0,1-1.22-1.21V60.3a1.23,1.23,0,0,1,1.22-1.21h8.72v5.23a1.93,1.93,0,0,0,1.94,1.91H139a1.93,1.93,0,0,0,1.94-1.91V59.09h8.7a1.25,1.25,0,0,1,1.24,1.21v26l-46.59,30.07-.08.06-.07,0a1.29,1.29,0,0,1-.17.15h0a1.09,1.09,0,0,0-.13.17s0,0-.05,0a1.43,1.43,0,0,1-.11.15v0L94.8,131.9l-2.61,1.69a1.87,1.87,0,0,0-.55,2.63,2,2,0,0,0,2.68.55l2.62-1.69,17.44-2h0l.09,0,.17,0a.25.25,0,0,0,.09,0,.44.44,0,0,0,.15-.05l.11,0,.13-.07.07,0,35.62-23Zm-2.66,3.81-11.95,11.72v-7.41a4.36,4.36,0,0,1,4.41-4.31Zm-37.36-19.22L99.88,130.9l5.52-9.34,2.7,4Zm-.53-7.72L108,118.49,168.53,79.4h0l5.06-3.28,2.31,3.43Zm50.84-80a4.37,4.37,0,0,1,4.4,4.32V76.79l-10.81,7V60.3a5.09,5.09,0,0,0-5.12-5h-8.7V49.39A1.92,1.92,0,0,0,139,47.48H120v-3.7a16.12,16.12,0,0,0-.15-1.83Zm-54.5-7.47a9.42,9.42,0,0,1,9.48,9.31v5.6a1.92,1.92,0,0,0,1.94,1.9h19V62.42H76.25V51.29h19a1.92,1.92,0,0,0,1.94-1.9V43.78A9.4,9.4,0,0,1,106.62,34.48Zm58.9,141.27a4.36,4.36,0,0,1-4.4,4.31h-109a4.35,4.35,0,0,1-4.4-4.31V46.27A4.36,4.36,0,0,1,52.14,42H93.41a12.51,12.51,0,0,0-.13,1.83v3.7h-19a1.92,1.92,0,0,0-1.94,1.91v5.89H63.65a5.07,5.07,0,0,0-5.1,5V161.71a5.07,5.07,0,0,0,5.1,5h69.41a6.78,6.78,0,0,0,.77,0,2.3,2.3,0,0,0,.45,0,2,2,0,0,0,1.46-.65,6.15,6.15,0,0,0,1.38-1L153,149.46a5.54,5.54,0,0,0,1.7-4V107.26l10.81-7Zm18.53-92-.48.31-6.71-10,.48-.31a4.45,4.45,0,0,1,6.1,1.24l1.88,2.82a4.28,4.28,0,0,1-1.27,6Z"/></clipPath><clipPath id="clip-path-5"><rect class="cls-1" x="43.86" y="30.67" width="146.06" height="153.2"/></clipPath><clipPath id="clip-path-6"><rect class="cls-1" x="114.53" y="90.76" width="9.5" height="2.91"/></clipPath><clipPath id="clip-path-8"><rect class="cls-1" x="113.62" y="89.53" width="10.9" height="4.36"/></clipPath><clipPath id="clip-path-9"><path class="cls-2" d="M116,93.67h6.49a1.46,1.46,0,1,0,0-2.91H116a1.46,1.46,0,1,0,0,2.91"/></clipPath><clipPath id="clip-path-10"><rect class="cls-1" x="114.49" y="90.69" width="9.63" height="3.16"/></clipPath><clipPath id="clip-path-11"><rect class="cls-1" x="85.74" y="90.76" width="25.35" height="2.91"/></clipPath><clipPath id="clip-path-13"><rect class="cls-1" x="85.28" y="89.53" width="26.16" height="4.36"/></clipPath><clipPath id="clip-path-14"><path class="cls-2" d="M87.22,93.67h22.36a1.46,1.46,0,1,0,0-2.91H87.22a1.46,1.46,0,1,0,0,2.91"/></clipPath><clipPath id="clip-path-15"><rect class="cls-1" x="85.58" y="90.69" width="25.68" height="3.16"/></clipPath><clipPath id="clip-path-16"><rect class="cls-1" x="67.93" y="90.76" width="12.62" height="2.91"/></clipPath><clipPath id="clip-path-18"><rect class="cls-1" x="67.84" y="89.53" width="13.08" height="4.36"/></clipPath><clipPath id="clip-path-19"><path class="cls-2" d="M69.45,93.67H79a1.46,1.46,0,1,0,0-2.91H69.45a1.46,1.46,0,1,0,0,2.91"/></clipPath><clipPath id="clip-path-20"><rect class="cls-1" x="67.93" y="90.69" width="12.84" height="3.16"/></clipPath><clipPath id="clip-path-21"><path class="cls-2" d="M104.92,104.9H77.5a1.58,1.58,0,0,0,0,3.16h27.42a1.58,1.58,0,0,0,0-3.16"/></clipPath><clipPath id="clip-path-23"><rect class="cls-1" x="67.93" y="104.93" width="6.19" height="2.91"/></clipPath><clipPath id="clip-path-25"><rect class="cls-1" x="67.84" y="104.79" width="6.54" height="4.36"/></clipPath><clipPath id="clip-path-26"><path class="cls-2" d="M69.54,107.84h3a1.46,1.46,0,1,0,0-2.91h-3a1.46,1.46,0,1,0,0,2.91"/></clipPath><clipPath id="clip-path-27"><rect class="cls-1" x="67.93" y="104.9" width="6.42" height="3.16"/></clipPath><clipPath id="clip-path-28"><rect class="cls-1" x="67.93" y="119.16" width="22.26" height="2.91"/></clipPath><clipPath id="clip-path-30"><rect class="cls-1" x="67.84" y="117.87" width="23.98" height="4.36"/></clipPath><clipPath id="clip-path-31"><path class="cls-2" d="M69.54,122.07h19a1.46,1.46,0,1,0,0-2.91h-19a1.46,1.46,0,1,0,0,2.91"/></clipPath><clipPath id="clip-path-32"><rect class="cls-1" x="67.93" y="119.12" width="22.47" height="3.11"/></clipPath><clipPath id="clip-path-33"><path class="cls-2" d="M77.76,131.75H71a1.59,1.59,0,0,0,0,3.16h6.8a1.59,1.59,0,0,0,0-3.16"/></clipPath><clipPath id="clip-path-35"><rect class="cls-1" x="61.52" y="179.13" width="22.48" height="6.32"/></clipPath><clipPath id="clip-path-37"><path class="cls-2" d="M67.14,183.87a2.37,2.37,0,1,0-2.42-2.37A2.38,2.38,0,0,0,67.14,183.87Z"/></clipPath></defs><title>icon design system</title><g class="cls-3"><g class="cls-4"><g class="cls-5"><g class="cls-6"><g class="cls-7"><g class="cls-8"><rect x="35.84" y="22.78" width="162.11" height="168.99"/></g></g></g></g></g></g><g class="cls-9"><g class="cls-4"><g class="cls-5"><g class="cls-10"><g class="cls-11"><g class="cls-12"><rect x="106.51" y="82.86" width="25.57" height="18.71"/></g></g></g></g></g></g><g class="cls-13"><g class="cls-4"><g class="cls-5"><g class="cls-14"><g class="cls-15"><g class="cls-16"><rect x="77.69" y="82.86" width="41.41" height="18.71"/></g></g></g></g></g></g><g class="cls-17"><g class="cls-4"><g class="cls-5"><g class="cls-18"><g class="cls-19"><g class="cls-20"><rect x="59.9" y="82.86" width="28.67" height="18.71"/></g></g></g></g></g></g><g class="cls-21"><g class="cls-4"><rect x="67.93" y="97.01" width="46.55" height="18.95"/></g></g><g class="cls-22"><g class="cls-4"><g class="cls-5"><g class="cls-23"><g class="cls-24"><g class="cls-25"><rect x="59.9" y="97.03" width="22.23" height="18.71"/></g></g></g></g></g></g><g class="cls-26"><g class="cls-4"><g class="cls-5"><g class="cls-27"><g class="cls-28"><g class="cls-29"><rect x="59.9" y="111.27" width="38.29" height="18.71"/></g></g></g></g></g></g><g class="cls-30"><g class="cls-4"><rect x="61.52" y="123.86" width="25.68" height="18.95"/></g></g><g class="cls-31"><g class="cls-4"><rect class="cls-32" x="53.49" y="171.24" width="38.52" height="22.11"/></g></g><g class="cls-33"><g class="cls-4"><rect x="56.7" y="171.24" width="20.87" height="20.53"/></g></g></svg>