<svg id="Layer_1" data-name="Layer 1" xmlns="http://www.w3.org/2000/svg" xmlns:xlink="http://www.w3.org/1999/xlink" viewBox="0 0 233.78 216.13"><defs><style>.cls-1,.cls-2,.cls-3{fill:none;}.cls-2{clip-rule:evenodd;}.cls-3{fill-rule:evenodd;}.cls-4{fill:#16103e;}.cls-5{clip-path:url(#clip-path);}.cls-6{clip-path:url(#clip-path-2);}.cls-7{fill:#d7d7d7;opacity:0.5;}.cls-8{clip-path:url(#clip-path-3);}.cls-9{fill:#fff;}.cls-10{clip-path:url(#clip-path-5);}.cls-11{clip-path:url(#clip-path-7);}.cls-12{clip-path:url(#clip-path-9);}.cls-13{clip-path:url(#clip-path-11);}.cls-14{clip-path:url(#clip-path-13);}.cls-15{clip-path:url(#clip-path-15);}.cls-16{clip-path:url(#clip-path-17);}.cls-17{clip-path:url(#clip-path-19);}.cls-18{fill:#3ba07a;}.cls-19{clip-path:url(#clip-path-21);}.cls-20{clip-path:url(#clip-path-23);}.cls-21{clip-path:url(#clip-path-47);}.cls-22{clip-path:url(#clip-path-49);}</style><clipPath id="clip-path"><path class="cls-1" d="M159.9,163.74V69.53c0-1.78-2.24-3.22-5-3.22H162c2.75,0,5,1.44,5,3.22v94.21c0,1.78-2.23,3.22-5,3.22h-7.13C157.66,167,159.89,165.52,159.9,163.74Z"/></clipPath><clipPath id="clip-path-2"><rect class="cls-1" x="79.8" y="59.03" width="115.09" height="110.36"/></clipPath><clipPath id="clip-path-3"><path class="cls-1" d="M146.2,73.88v8H103.41v-8h13.36a1.36,1.36,0,0,0,1.36-1.37v-4a6.67,6.67,0,1,1,13.34,0v4a1.37,1.37,0,0,0,1.37,1.37Zm-.55,73.39a3.11,3.11,0,0,1,3.1-3.11h5.31l-8.41,8.44Zm22-52.9A1.37,1.37,0,0,0,169,93V70.27a5.84,5.84,0,0,0-5.83-5.86h-29.9a9.38,9.38,0,0,0-17,0H86.41a5.86,5.86,0,0,0-5.83,5.86v93.27a5.86,5.86,0,0,0,5.83,5.85h76.78a5.84,5.84,0,0,0,5.83-5.85V106.63a1.37,1.37,0,1,0-2.73,0v56.91a3.1,3.1,0,0,1-3.1,3.1H86.41a3.1,3.1,0,0,1-3.09-3.1V70.27a3.1,3.1,0,0,1,3.09-3.11H115.5a8.17,8.17,0,0,0-.1,1.31v2.67H102a1.37,1.37,0,0,0-1.37,1.37v4.25H94.54a3.61,3.61,0,0,0-3.6,3.62v73.05a3.61,3.61,0,0,0,3.6,3.61h48.88a3.19,3.19,0,0,0,.54,0,1.24,1.24,0,0,0,.33,0,1.33,1.33,0,0,0,1-.47,3.82,3.82,0,0,0,1-.72l11.2-11.25a4,4,0,0,0,1.19-2.87V113.46a1.37,1.37,0,1,0-2.73,0v28h-7.19a5.86,5.86,0,0,0-5.83,5.86v7H94.54a.87.87,0,0,1-.87-.87V80.38a.88.88,0,0,1,.87-.88h6.13v3.77A1.37,1.37,0,0,0,102,84.64h45.53a1.36,1.36,0,0,0,1.36-1.37V79.5h6.14a.88.88,0,0,1,.87.88V99.83a1.37,1.37,0,1,0,2.73,0V80.38a3.61,3.61,0,0,0-3.6-3.62h-6.14V72.51a1.36,1.36,0,0,0-1.36-1.37H134.2V68.47a9.5,9.5,0,0,0-.09-1.31h29.08a3.1,3.1,0,0,1,3.1,3.11V93A1.37,1.37,0,0,0,167.66,94.37Z"/></clipPath><clipPath id="clip-path-5"><path class="cls-1" d="M148.28,96.62h-5.77a1.22,1.22,0,1,0,0,2.43h5.77a1.22,1.22,0,1,0,0-2.43Z"/></clipPath><clipPath id="clip-path-7"><path class="cls-1" d="M138.74,97.84a1.3,1.3,0,0,0-1.36-1.22H117.07a1.22,1.22,0,1,0,0,2.43h20.31A1.29,1.29,0,0,0,138.74,97.84Z"/></clipPath><clipPath id="clip-path-9"><path class="cls-1" d="M102.48,99.05h8.3a1.22,1.22,0,1,0,0-2.43h-8.3a1.22,1.22,0,1,0,0,2.43Z"/></clipPath><clipPath id="clip-path-11"><path class="cls-1" d="M135.1,110a1.3,1.3,0,0,0-1.35-1.22h-24a1.22,1.22,0,1,0,0,2.43h24A1.29,1.29,0,0,0,135.1,110Z"/></clipPath><clipPath id="clip-path-13"><path class="cls-1" d="M102.44,111.18h2.33a1.22,1.22,0,1,0,0-2.43h-2.33a1.22,1.22,0,1,0,0,2.43Z"/></clipPath><clipPath id="clip-path-15"><path class="cls-1" d="M120.56,122.09a1.31,1.31,0,0,0-1.39-1.21H102.58a1.22,1.22,0,1,0,0,2.42h16.59A1.31,1.31,0,0,0,120.56,122.09Z"/></clipPath><clipPath id="clip-path-17"><path class="cls-1" d="M102.6,133a1.23,1.23,0,1,0,0,2.42h6.85a1.23,1.23,0,1,0,0-2.42Z"/></clipPath><clipPath id="clip-path-19"><path class="cls-1" d="M190.73,89.11l-.32.24L186,81.65l.32-.25a2.7,2.7,0,0,1,4,.95l1.24,2.17A3.61,3.61,0,0,1,190.73,89.11Zm-49.15,33L140,119.55l46.82-31.41,1.63,2.54Zm-10.11,1.21,3.67-7.27,1.8,3.14,1.8,3.15Zm49.25-37.58h0l3.62-2.42L186,85.83l-46.82,31.41-1.64-2.54Zm12.79-2.54-1.32-2.06a5.7,5.7,0,0,0-8-1.71l-1.48,1h0l-2.6,1.75L177.37,84l-42.92,29-.06,0,0,0a.65.65,0,0,0-.12.11h0a1.47,1.47,0,0,0-.1.13l0,0a.41.41,0,0,0-.07.11s0,0,0,0l-6.17,10.92L126,125.6a1.41,1.41,0,0,0-.39,1.93,1.34,1.34,0,0,0,1.88.4l1.84-1.24,12.2-1.48h.09l.11,0,.07,0,.11,0,.07,0,.1-.06,0,0,49.71-33.56A6.06,6.06,0,0,0,193.51,83.18Z"/></clipPath><clipPath id="clip-path-21"><polygon class="cls-2" points="156.55 101.92 172.75 91.18 172.75 94.6 156.8 105.37 156.55 101.92"/></clipPath><clipPath id="clip-path-23"><polygon class="cls-2" points="157.37 108.05 169.02 99.99 169.02 103.72 157.63 111.32 157.37 108.05"/></clipPath><clipPath id="clip-path-47"><rect class="cls-1" x="90.7" y="164.54" width="15.75" height="4.85"/></clipPath><clipPath id="clip-path-49"><path class="cls-2" d="M94.94,169.39a1.82,1.82,0,1,0-1.81-1.82A1.82,1.82,0,0,0,94.94,169.39Z"/></clipPath></defs><title>icon design system</title><rect class="cls-4" x="49.16" y="35.19" width="159.78" height="157.66"/><g class="cls-5"><g class="cls-6"><rect class="cls-7" x="148.85" y="60.24" width="24.23" height="112.78"/></g></g><g class="cls-8"><g class="cls-6"><rect class="cls-9" x="74.53" y="52.97" width="100.55" height="122.49"/></g></g><g class="cls-10"><g class="cls-6"><rect class="cls-9" x="135.1" y="90.56" width="20.59" height="14.55"/></g></g><g class="cls-11"><g class="cls-6"><rect class="cls-9" x="109.66" y="90.56" width="35.13" height="14.55"/></g></g><g class="cls-12"><g class="cls-6"><rect class="cls-9" x="95.12" y="90.56" width="23.02" height="14.55"/></g></g><g class="cls-13"><g class="cls-6"><rect class="cls-9" x="102.39" y="102.69" width="38.77" height="14.55"/></g></g><g class="cls-14"><g class="cls-6"><rect class="cls-9" x="95.12" y="102.69" width="16.96" height="14.55"/></g></g><g class="cls-15"><g class="cls-6"><rect class="cls-9" x="95.12" y="114.82" width="31.5" height="14.55"/></g></g><g class="cls-16"><g class="cls-6"><rect class="cls-9" x="95.12" y="126.94" width="21.81" height="14.55"/></g></g><g class="cls-17"><g class="cls-6"><rect class="cls-18" x="119.35" y="72.37" width="81.17" height="61.85"/></g></g><g class="cls-19"><g class="cls-6"><rect class="cls-4" x="150.5" y="85.12" width="28.31" height="26.31"/></g></g><g class="cls-20"><g class="cls-6"><rect class="cls-4" x="151.31" y="93.93" width="23.76" height="23.45"/></g></g><g class="cls-8"><g class="cls-6"><rect class="cls-9" x="74.53" y="52.97" width="100.55" height="122.49"/></g></g><g class="cls-10"><g class="cls-6"><rect class="cls-9" x="135.1" y="90.56" width="20.59" height="14.55"/></g></g><g class="cls-11"><g class="cls-6"><rect class="cls-9" x="109.66" y="90.56" width="35.13" height="14.55"/></g></g><g class="cls-12"><g class="cls-6"><rect class="cls-9" x="95.12" y="90.56" width="23.02" height="14.55"/></g></g><g class="cls-13"><g class="cls-6"><rect class="cls-9" x="102.39" y="102.69" width="38.77" height="14.55"/></g></g><g class="cls-14"><g class="cls-6"><rect class="cls-9" x="95.12" y="102.69" width="16.96" height="14.55"/></g></g><g class="cls-15"><g class="cls-6"><rect class="cls-9" x="95.12" y="114.82" width="31.5" height="14.55"/></g></g><g class="cls-16"><g class="cls-6"><rect class="cls-9" x="95.12" y="126.94" width="21.81" height="14.55"/></g></g><g class="cls-17"><g class="cls-6"><rect class="cls-18" x="119.35" y="72.37" width="81.17" height="61.85"/></g></g><g class="cls-19"><g class="cls-6"><rect class="cls-4" x="150.5" y="85.12" width="28.31" height="26.31"/></g></g><g class="cls-20"><g class="cls-6"><rect class="cls-4" x="151.31" y="93.93" width="23.76" height="23.45"/></g></g><g class="cls-21"><g class="cls-6"><rect class="cls-4" x="84.65" y="158.47" width="27.86" height="16.98"/></g></g><g class="cls-22"><g class="cls-6"><rect class="cls-9" x="87.07" y="159.69" width="15.75" height="15.77"/></g></g></svg>