<?xml version="1.0" encoding="UTF-8"?>
<svg width="14px" height="14px" viewBox="0 0 14 14" version="1.1" xmlns="http://www.w3.org/2000/svg" xmlns:xlink="http://www.w3.org/1999/xlink">
    <!-- Generator: Sketch 57.1 (83088) - https://sketch.com -->
    <title>icon/system/16/edit</title>
    <desc>Created with Sketch.</desc>
    <g id="Atoms" stroke="none" stroke-width="1" fill="none" fill-rule="evenodd">
        <g id="Icons" transform="translate(-86.000000, -633.000000)">
            <g id="icon/system/16/edit" transform="translate(85.000000, 632.000000)">
                <polygon id="Path" transform="translate(8.000000, 8.000000) scale(1, -1) translate(-8.000000, -8.000000) " points="0 0 16 0 16 16 0 16"></polygon>
                <path d="M13.079292,4.97708333 L5.78484753,12.2715278 L3.27373642,12.5493056 C2.54595864,12.6298611 1.92651419,12.0159722 2.00706975,11.2826389 L2.28484753,8.77152778 L9.57929197,1.47708333 C10.2154031,0.840972222 11.2431809,0.840972222 11.8765142,1.47708333 L13.0765142,2.67708333 C13.7126253,3.31319444 13.7126253,4.34375 13.079292,4.97708333 L13.079292,4.97708333 Z M10.3348475,5.83541667 L8.72095864,4.22152778 L3.55984753,9.38541667 L3.35706975,11.1993056 L5.17095864,10.9965278 L10.3348475,5.83541667 Z M12.1348475,3.62152778 L10.9348475,2.42152778 C10.8209586,2.30763889 10.6348475,2.30763889 10.5237364,2.42152778 L9.66540308,3.27986111 L11.279292,4.89375 L12.1376253,4.03541667 C12.2487364,3.91875 12.2487364,3.73541667 12.1348475,3.62152778 L12.1348475,3.62152778 Z" id="Shape" fill="#160F3E" fill-rule="evenodd"></path>
                <path d="M13.079292,4.97708333 L5.78484753,12.2715278 L3.27373642,12.5493056 C2.54595864,12.6298611 1.92651419,12.0159722 2.00706975,11.2826389 L2.28484753,8.77152778 L9.57929197,1.47708333 C10.2154031,0.840972222 11.2431809,0.840972222 11.8765142,1.47708333 L13.0765142,2.67708333 C13.7126253,3.31319444 13.7126253,4.34375 13.079292,4.97708333 L13.079292,4.97708333 Z" id="Path"></path>
                <polygon id="Path" points="11.9777778 5.61388889 10.3638889 4 5.20277778 9.16388889 5 10.9777778 6.81388889 10.775"></polygon>
                <path d="M9.46944444,3.28541667 L8.26944444,2.08541667 C8.15555556,1.97152778 7.96944444,1.97152778 7.85833333,2.08541667 L7,2.94375 L8.61388889,4.55763889 L9.47222222,3.69930556 C9.58333333,3.58263889 9.58333333,3.39930556 9.46944444,3.28541667 L9.46944444,3.28541667 Z" id="Path"></path>
                <rect id="Rectangle" fill="#160F3E" fill-rule="evenodd" x="1" y="13" width="14" height="2" rx="1"></rect>
            </g>
        </g>
    </g>
</svg>