<svg id="Layer_1" data-name="Layer 1" xmlns="http://www.w3.org/2000/svg" xmlns:xlink="http://www.w3.org/1999/xlink" viewBox="0 0 233.78 216.13"><defs><style>.cls-1,.cls-11,.cls-12,.cls-14,.cls-2,.cls-29,.cls-31,.cls-8{fill:none;}.cls-1{clip-rule:evenodd;}.cls-3{clip-path:url(#clip-path);}.cls-4{clip-path:url(#clip-path-2);}.cls-5{isolation:isolate;}.cls-6{clip-path:url(#clip-path-3);}.cls-7{clip-path:url(#clip-path-4);}.cls-12,.cls-14,.cls-29,.cls-31,.cls-8{stroke:#000;}.cls-11,.cls-12,.cls-29,.cls-31,.cls-8{stroke-miterlimit:10;}.cls-8{stroke-width:3.99px;}.cls-9{clip-path:url(#clip-path-5);}.cls-10{fill:#fff;}.cls-11{stroke:#fff;stroke-width:0.8px;}.cls-12,.cls-14,.cls-31{stroke-width:1.6px;}.cls-13{clip-path:url(#clip-path-8);}.cls-14,.cls-31{stroke-linecap:round;}.cls-14{stroke-linejoin:bevel;}.cls-15{clip-path:url(#clip-path-11);}.cls-16{clip-path:url(#clip-path-14);}.cls-17{clip-path:url(#clip-path-17);}.cls-18{clip-path:url(#clip-path-20);}.cls-19{clip-path:url(#clip-path-23);}.cls-20{clip-path:url(#clip-path-26);}.cls-21{clip-path:url(#clip-path-28);}.cls-22{clip-path:url(#clip-path-30);}.cls-23{clip-path:url(#clip-path-32);}.cls-24{clip-path:url(#clip-path-34);}.cls-25{clip-path:url(#clip-path-36);}.cls-26{clip-path:url(#clip-path-38);}.cls-27{clip-path:url(#clip-path-40);}.cls-28{clip-path:url(#clip-path-42);}.cls-29{stroke-width:2px;}.cls-30{clip-path:url(#clip-path-45);}.cls-32{clip-path:url(#clip-path-48);}.cls-33{clip-path:url(#clip-path-50);}</style><clipPath id="clip-path"><path class="cls-1" d="M59.21,31.76h86.35a8.7,8.7,0,0,1,8.63,8.77V173.84a8.7,8.7,0,0,1-8.63,8.77H59.21a8.7,8.7,0,0,1-8.64-8.77V40.53A8.7,8.7,0,0,1,59.21,31.76Z"/></clipPath><clipPath id="clip-path-2"><rect class="cls-2" x="50.57" y="32.79" width="132.63" height="150.72"/></clipPath><clipPath id="clip-path-3"><rect class="cls-2" x="50.57" y="31.76" width="104.64" height="152.6"/></clipPath><clipPath id="clip-path-4"><rect class="cls-2" x="50.57" y="31.76" width="103.62" height="150.85"/></clipPath><clipPath id="clip-path-5"><polygon class="cls-1" points="155.93 149.28 124.85 182.61 154.73 182.61 155.93 149.28"/></clipPath><clipPath id="clip-path-8"><line class="cls-2" x1="117.94" y1="70.35" x2="139.74" y2="70.35"/></clipPath><clipPath id="clip-path-11"><line class="cls-2" x1="117.94" y1="82.63" x2="139.74" y2="82.63"/></clipPath><clipPath id="clip-path-14"><line class="cls-2" x1="117.94" y1="94.91" x2="139.74" y2="94.91"/></clipPath><clipPath id="clip-path-17"><line class="cls-2" x1="117.94" y1="107.19" x2="139.74" y2="107.19"/></clipPath><clipPath id="clip-path-20"><line class="cls-2" x1="117.94" y1="119.46" x2="139.74" y2="119.46"/></clipPath><clipPath id="clip-path-23"><line class="cls-2" x1="114.47" y1="133.5" x2="139.87" y2="133.5"/></clipPath><clipPath id="clip-path-26"><path class="cls-1" d="M60.93,68.6h43.18a1.76,1.76,0,0,1,0,3.51H60.93a1.76,1.76,0,0,1,0-3.51Z"/></clipPath><clipPath id="clip-path-28"><path class="cls-1" d="M60.93,80.88h43.38a1.75,1.75,0,0,1,0,3.5H60.93a1.75,1.75,0,0,1,0-3.5Z"/></clipPath><clipPath id="clip-path-30"><path class="cls-1" d="M60.93,93.15h43.38a1.76,1.76,0,0,1,0,3.51H60.93a1.76,1.76,0,0,1,0-3.51Z"/></clipPath><clipPath id="clip-path-32"><path class="cls-1" d="M60.93,105.43h43.38a1.76,1.76,0,0,1,0,3.51H60.93a1.76,1.76,0,0,1,0-3.51Z"/></clipPath><clipPath id="clip-path-34"><path class="cls-1" d="M60.93,117.71h43.38a1.76,1.76,0,0,1,0,3.51H60.93a1.76,1.76,0,0,1,0-3.51Z"/></clipPath><clipPath id="clip-path-36"><path class="cls-1" d="M60.93,130h43.38a1.76,1.76,0,0,1,0,3.51H60.93a1.76,1.76,0,0,1,0-3.51Z"/></clipPath><clipPath id="clip-path-38"><path class="cls-1" d="M60.93,142.27h43.38a1.75,1.75,0,0,1,0,3.5H60.93a1.75,1.75,0,0,1,0-3.5Z"/></clipPath><clipPath id="clip-path-40"><path class="cls-1" d="M60.93,154.54h43.38a1.76,1.76,0,0,1,0,3.51H60.93a1.76,1.76,0,0,1,0-3.51Z"/></clipPath><clipPath id="clip-path-42"><line class="cls-2" x1="52.01" y1="55.44" x2="152.47" y2="55.44"/></clipPath><clipPath id="clip-path-45"><path class="cls-1" d="M156.48,133.5c14.63,0,26.46-12.18,26.46-27.19s-11.83-27.19-26.46-27.19S130,91.29,130,106.31,141.87,133.5,156.48,133.5Z"/></clipPath><clipPath id="clip-path-48"><rect class="cls-2" x="67.84" y="177.35" width="24.18" height="7.02"/></clipPath><clipPath id="clip-path-50"><path class="cls-1" d="M73.88,182.61A2.63,2.63,0,1,0,71.31,180,2.61,2.61,0,0,0,73.88,182.61Z"/></clipPath></defs><title>icon design system</title><g class="cls-3"><g class="cls-4"><g class="cls-5"><g class="cls-6"><g class="cls-7"><path class="cls-8" d="M59.21,31.76h86.35a8.7,8.7,0,0,1,8.63,8.77V173.84a8.7,8.7,0,0,1-8.63,8.77H59.21a8.71,8.71,0,0,1-8.64-8.77V40.53A8.71,8.71,0,0,1,59.21,31.76Z"/></g></g></g></g></g><g class="cls-9"><g class="cls-4"><rect class="cls-10" x="116.19" y="140.51" width="48.36" height="50.87"/></g></g><g class="cls-4"><polygon class="cls-11" points="155.93 149.28 124.85 182.61 154.74 182.61 155.93 149.28"/><path class="cls-12" d="M124.36,179.54l27.08-29a1.78,1.78,0,0,0-.07-2.48,1.71,1.71,0,0,0-1.19-.48H124.83a3.48,3.48,0,0,0-3.45,3.51v27.3a1.73,1.73,0,0,0,1.73,1.75A1.7,1.7,0,0,0,124.36,179.54Z"/></g><g class="cls-13"><g class="cls-4"><rect x="109.3" y="61.58" width="39.07" height="17.54"/></g></g><g class="cls-4"><line class="cls-14" x1="117.94" y1="70.35" x2="139.74" y2="70.35"/></g><g class="cls-15"><g class="cls-4"><rect x="109.3" y="73.86" width="39.07" height="17.54"/></g></g><g class="cls-4"><line class="cls-14" x1="117.94" y1="82.63" x2="139.74" y2="82.63"/></g><g class="cls-16"><g class="cls-4"><rect x="109.3" y="86.14" width="39.07" height="17.54"/></g></g><g class="cls-4"><line class="cls-14" x1="117.94" y1="94.91" x2="139.74" y2="94.91"/></g><g class="cls-17"><g class="cls-4"><rect x="109.3" y="98.42" width="39.07" height="17.54"/></g></g><g class="cls-4"><line class="cls-14" x1="117.94" y1="107.19" x2="139.74" y2="107.19"/></g><g class="cls-18"><g class="cls-4"><rect x="109.3" y="110.69" width="39.07" height="17.54"/></g></g><g class="cls-4"><line class="cls-14" x1="117.94" y1="119.46" x2="139.74" y2="119.46"/></g><g class="cls-19"><g class="cls-4"><rect x="105.84" y="124.73" width="42.67" height="17.54"/></g></g><g class="cls-4"><line class="cls-14" x1="114.46" y1="133.5" x2="139.87" y2="133.5"/></g><g class="cls-20"><g class="cls-4"><rect x="50.57" y="59.83" width="63.9" height="21.05"/></g></g><g class="cls-21"><g class="cls-4"><rect x="50.57" y="72.11" width="64.1" height="21.05"/></g></g><g class="cls-22"><g class="cls-4"><rect x="50.57" y="84.38" width="64.1" height="21.05"/></g></g><g class="cls-23"><g class="cls-4"><rect x="50.57" y="96.66" width="64.1" height="21.05"/></g></g><g class="cls-24"><g class="cls-4"><rect x="50.57" y="108.94" width="64.1" height="21.05"/></g></g><g class="cls-25"><g class="cls-4"><rect x="50.57" y="121.22" width="64.1" height="21.05"/></g></g><g class="cls-26"><g class="cls-4"><rect x="50.57" y="133.5" width="64.1" height="21.05"/></g></g><g class="cls-27"><g class="cls-4"><rect x="50.57" y="145.77" width="64.1" height="21.05"/></g></g><g class="cls-28"><g class="cls-4"><rect x="43.38" y="46.67" width="117.72" height="17.54"/></g></g><g class="cls-4"><line class="cls-29" x1="52.02" y1="55.44" x2="152.46" y2="55.44"/></g><g class="cls-30"><g class="cls-4"><rect class="cls-10" x="121.38" y="70.35" width="70.2" height="71.91"/></g></g><g class="cls-4"><ellipse class="cls-12" cx="156.63" cy="107.19" rx="20.49" ry="21.05"/><polyline class="cls-31" points="145.88 106.84 153.69 114.2 166.72 101.92"/></g><g class="cls-32"><g class="cls-4"><rect class="cls-10" x="59.21" y="168.58" width="41.45" height="24.56"/></g></g><g class="cls-33"><g class="cls-4"><rect x="62.67" y="168.58" width="22.45" height="22.8"/></g></g></svg>