<svg id="Layer_1" data-name="Layer 1" xmlns="http://www.w3.org/2000/svg" xmlns:xlink="http://www.w3.org/1999/xlink" viewBox="0 0 233.78 216.13"><defs><style>.cls-1,.cls-15,.cls-17,.cls-18,.cls-2,.cls-20,.cls-3,.cls-9{fill:none;}.cls-1{clip-rule:evenodd;}.cls-3{fill-rule:evenodd;}.cls-4{clip-path:url(#clip-path);}.cls-5{clip-path:url(#clip-path-2);}.cls-6{isolation:isolate;}.cls-7{clip-path:url(#clip-path-3);}.cls-8{clip-path:url(#clip-path-4);}.cls-15,.cls-18,.cls-20,.cls-9{stroke:#000;}.cls-9{stroke-linejoin:round;}.cls-15,.cls-9{stroke-width:4.21px;}.cls-10{clip-path:url(#clip-path-5);}.cls-11{clip-path:url(#clip-path-7);}.cls-12{clip-path:url(#clip-path-9);}.cls-13{clip-path:url(#clip-path-11);}.cls-14{fill:#fff;}.cls-15,.cls-17,.cls-18,.cls-20{stroke-miterlimit:10;}.cls-16{clip-path:url(#clip-path-13);}.cls-17{stroke:#fff;stroke-width:0.84px;}.cls-18{stroke-width:2.11px;}.cls-19{clip-path:url(#clip-path-16);}.cls-20{stroke-width:1.69px;}.cls-21{clip-path:url(#clip-path-19);}.cls-22{clip-path:url(#clip-path-22);}.cls-23{clip-path:url(#clip-path-24);}.cls-24{clip-path:url(#clip-path-26);}.cls-25{clip-path:url(#clip-path-28);}.cls-26{clip-path:url(#clip-path-30);}.cls-27{clip-path:url(#clip-path-32);}</style><clipPath id="clip-path"><path class="cls-1" d="M48.26,154.56H185.51a5.52,5.52,0,0,1,5.5,5.54V173a5.52,5.52,0,0,1-5.5,5.53H48.26A5.51,5.51,0,0,1,42.77,173V160.1A5.52,5.52,0,0,1,48.26,154.56Z"/></clipPath><clipPath id="clip-path-2"><rect class="cls-2" x="42.77" y="36.66" width="148.24" height="142.8"/></clipPath><clipPath id="clip-path-3"><rect class="cls-2" x="42.77" y="153.3" width="148.24" height="26.16"/></clipPath><clipPath id="clip-path-4"><rect class="cls-2" x="42.77" y="153.64" width="148.24" height="25.82"/></clipPath><clipPath id="clip-path-5"><path class="cls-1" d="M59.25,65.1H172.72a3.67,3.67,0,0,1,3.64,3.69v90.38H55.59V68.79A3.67,3.67,0,0,1,59.25,65.1Z"/></clipPath><clipPath id="clip-path-7"><path class="cls-1" d="M86.72,144.42h64.59a9.18,9.18,0,0,0,9.13-9.23V48.5a9.18,9.18,0,0,0-9.13-9.23H86.72a9.19,9.19,0,0,0-9.16,9.23v86.69A9.19,9.19,0,0,0,86.72,144.42Z"/></clipPath><clipPath id="clip-path-9"><rect class="cls-2" x="75.47" y="37.76" width="85.02" height="106.82"/></clipPath><clipPath id="clip-path-11"><rect class="cls-2" x="77.54" y="39.27" width="82.95" height="105.14"/></clipPath><clipPath id="clip-path-13"><polygon class="cls-1" points="161.75 61.41 136.14 37.89 160.77 37.89 161.75 61.41"/></clipPath><clipPath id="clip-path-16"><path class="cls-1" d="M83.56,124.13a8.31,8.31,0,1,0-8.22-8.3A8.27,8.27,0,0,0,83.56,124.13Z"/></clipPath><clipPath id="clip-path-19"><path class="cls-1" d="M66.92,137.65q4.74-13.52,16.72-13.52,11.69,0,17.31,12.87a9.24,9.24,0,0,1-4.66,12.16,9,9,0,0,1-3.69.79H75.53a9.24,9.24,0,0,1-8.61-12.3Z"/></clipPath><clipPath id="clip-path-22"><path class="cls-1" d="M105,79.86h34.77a1.84,1.84,0,0,1,0,3.68H105a1.84,1.84,0,0,1,0-3.68Z"/></clipPath><clipPath id="clip-path-24"><path class="cls-1" d="M125.15,100.15h23.78a1.85,1.85,0,0,1,0,3.69H125.15a1.85,1.85,0,0,1,0-3.69Z"/></clipPath><clipPath id="clip-path-26"><path class="cls-1" d="M110.5,120.44h34.77a1.85,1.85,0,0,1,0,3.69H110.5a1.85,1.85,0,0,1,0-3.69Z"/></clipPath><clipPath id="clip-path-28"><path class="cls-1" d="M97.7,59.56h23.79a1.85,1.85,0,0,1,0,3.69H97.7a1.85,1.85,0,0,1,0-3.69Z"/></clipPath><clipPath id="clip-path-30"><rect class="cls-2" x="62.91" y="172.09" width="25.61" height="7.38"/></clipPath><clipPath id="clip-path-32"><path class="cls-1" d="M69.3,178.54a2.77,2.77,0,1,0-2.75-2.76A2.76,2.76,0,0,0,69.3,178.54Z"/></clipPath></defs><title>icon design system</title><g class="cls-4"><g class="cls-5"><g class="cls-6"><g class="cls-7"><g class="cls-8"><path class="cls-9" d="M48.26,154.56H185.52A5.52,5.52,0,0,1,191,160.1V173a5.51,5.51,0,0,1-5.49,5.53H48.26A5.51,5.51,0,0,1,42.77,173V160.1A5.52,5.52,0,0,1,48.26,154.56Z"/></g></g></g></g></g><g class="cls-10"><g class="cls-5"><path class="cls-9" d="M59.25,65.1H172.71a3.67,3.67,0,0,1,3.66,3.69v90.39H55.59V68.79A3.67,3.67,0,0,1,59.25,65.1Z"/></g></g><g class="cls-11"><g class="cls-5"><g class="cls-6"><g class="cls-12"><g class="cls-11"><g class="cls-13"><path class="cls-14" d="M86.72,144.42h64.59a9.18,9.18,0,0,0,9.13-9.23V48.5a9.18,9.18,0,0,0-9.13-9.23H86.72a9.19,9.19,0,0,0-9.16,9.23v86.69A9.19,9.19,0,0,0,86.72,144.42Z"/></g></g><g class="cls-13"><path class="cls-15" d="M86.71,144.42H151.3a9.19,9.19,0,0,0,9.15-9.23V48.5a9.19,9.19,0,0,0-9.15-9.23H86.71a9.19,9.19,0,0,0-9.15,9.23v86.69A9.19,9.19,0,0,0,86.71,144.42Z"/></g></g></g></g></g><g class="cls-16"><g class="cls-5"><rect class="cls-14" x="126.98" y="28.67" width="43.92" height="41.96"/></g></g><g class="cls-5"><polygon class="cls-17" points="161.76 61.41 136.14 37.89 160.77 37.89 161.76 61.41"/><path class="cls-18" d="M136.94,42.34,157,61a1.87,1.87,0,0,1,.11,2.61,1.84,1.84,0,0,1-1.35.6H137.53a3.68,3.68,0,0,1-3.66-3.69V43.69a1.83,1.83,0,0,1,1.83-1.84A1.8,1.8,0,0,1,136.94,42.34Z"/></g><g class="cls-19"><g class="cls-5"><rect class="cls-14" x="66.18" y="98.3" width="34.77" height="35.05"/></g></g><g class="cls-5"><path class="cls-20" d="M83.57,124.13a8.31,8.31,0,1,0-8.23-8.3A8.27,8.27,0,0,0,83.57,124.13Z"/></g><g class="cls-21"><g class="cls-5"><rect class="cls-14" x="57.24" y="114.9" width="53.65" height="44.27"/></g></g><g class="cls-5"><path class="cls-20" d="M66.92,137.65q4.76-13.53,16.72-13.52,11.69,0,17.33,12.87a9.25,9.25,0,0,1-4.68,12.16,9,9,0,0,1-3.69.79h-17a9.24,9.24,0,0,1-8.63-12.3Z"/></g><g class="cls-22"><g class="cls-5"><rect x="94.04" y="70.63" width="56.73" height="22.14"/></g></g><g class="cls-23"><g class="cls-5"><rect x="114.16" y="90.92" width="45.75" height="22.14"/></g></g><g class="cls-24"><g class="cls-5"><rect x="99.54" y="111.21" width="56.73" height="22.14"/></g></g><g class="cls-25"><g class="cls-5"><rect x="86.72" y="50.34" width="45.75" height="22.14"/></g></g><g class="cls-26"><g class="cls-5"><rect class="cls-14" x="53.76" y="162.86" width="43.92" height="25.82"/></g></g><g class="cls-27"><g class="cls-5"><rect x="57.42" y="163.79" width="23.79" height="23.98"/></g></g></svg>