<svg id="Layer_1" data-name="Layer 1" xmlns="http://www.w3.org/2000/svg" xmlns:xlink="http://www.w3.org/1999/xlink" viewBox="0 0 233.78 216.13"><defs><style>.cls-1,.cls-14,.cls-16,.cls-18,.cls-19,.cls-2,.cls-24,.cls-25,.cls-3{fill:none;}.cls-2{clip-rule:evenodd;}.cls-3{fill-rule:evenodd;}.cls-4{clip-path:url(#clip-path);}.cls-5{fill:#16103e;}.cls-6{clip-path:url(#clip-path-2);}.cls-7{clip-path:url(#clip-path-3);}.cls-8{clip-path:url(#clip-path-4);}.cls-9{clip-path:url(#clip-path-6);}.cls-10{isolation:isolate;}.cls-11{clip-path:url(#clip-path-8);}.cls-12{clip-path:url(#clip-path-10);}.cls-13{fill:#3ba07a;}.cls-14,.cls-16,.cls-18,.cls-19,.cls-25{stroke:#16103e;}.cls-14,.cls-16,.cls-18,.cls-24,.cls-25{stroke-miterlimit:10;}.cls-14{stroke-width:3.77px;}.cls-15{clip-path:url(#clip-path-12);}.cls-16{stroke-width:1.57px;}.cls-17{clip-path:url(#clip-path-15);}.cls-18,.cls-19,.cls-24,.cls-25{stroke-width:1.26px;}.cls-19,.cls-25{stroke-linecap:round;}.cls-19{stroke-linejoin:round;}.cls-20{clip-path:url(#clip-path-18);}.cls-21{clip-path:url(#clip-path-20);}.cls-22{clip-path:url(#clip-path-22);}.cls-23{clip-path:url(#clip-path-24);}.cls-24{stroke:#3ba07a;}.cls-26{clip-path:url(#clip-path-27);}.cls-27{clip-path:url(#clip-path-29);}</style><clipPath id="clip-path"><rect class="cls-1" x="30.44" y="20.78" width="178.25" height="175.94"/></clipPath><clipPath id="clip-path-2"><polygon class="cls-2" points="175.48 29.3 175.48 23.82 172.73 23.82 175.48 29.3"/></clipPath><clipPath id="clip-path-3"><rect class="cls-1" x="68.88" y="23.82" width="117.72" height="154.78"/></clipPath><clipPath id="clip-path-4"><rect class="cls-1" x="137.24" y="52.22" width="3.92" height="3.55"/></clipPath><clipPath id="clip-path-6"><path class="cls-2" d="M75.72,56.69h82.12a6.84,6.84,0,0,1,6.85,6.85V171.75a6.84,6.84,0,0,1-6.85,6.85H75.72a6.85,6.85,0,0,1-6.84-6.85V63.54A6.85,6.85,0,0,1,75.72,56.69Z"/></clipPath><clipPath id="clip-path-8"><rect class="cls-1" x="68.88" y="56.52" width="95.92" height="122.08"/></clipPath><clipPath id="clip-path-10"><rect class="cls-1" x="68.88" y="56.69" width="95.82" height="121.91"/></clipPath><clipPath id="clip-path-12"><path class="cls-2" d="M118.17,121.07A21.92,21.92,0,1,0,96.26,99.16,21.9,21.9,0,0,0,118.17,121.07Z"/></clipPath><clipPath id="clip-path-15"><path class="cls-2" d="M118.17,103.26c3.77,0,6.82-3.37,6.82-7.53s-3-7.53-6.82-7.53-6.85,3.37-6.85,7.53S114.37,103.26,118.17,103.26Z"/></clipPath><clipPath id="clip-path-18"><path class="cls-2" d="M100.36,136.14h38.32a1.37,1.37,0,0,1,0,2.74H100.36a1.37,1.37,0,1,1,0-2.74Z"/></clipPath><clipPath id="clip-path-20"><path class="cls-2" d="M100.36,147.1h39.69a1.37,1.37,0,1,1,0,2.73H100.36a1.37,1.37,0,1,1,0-2.73Z"/></clipPath><clipPath id="clip-path-22"><ellipse class="cls-1" cx="165.15" cy="138.19" rx="20.97" ry="21.23"/></clipPath><clipPath id="clip-path-24"><path class="cls-2" d="M164.51,154.63a16.44,16.44,0,1,0-16.24-16.44A16.35,16.35,0,0,0,164.51,154.63Z"/></clipPath><clipPath id="clip-path-27"><path class="cls-2" d="M91.46,139.56a2.06,2.06,0,1,0-2-2.05A2.05,2.05,0,0,0,91.46,139.56Z"/></clipPath><clipPath id="clip-path-29"><path class="cls-2" d="M91.46,150.52a2.06,2.06,0,1,0-2-2.06A2.05,2.05,0,0,0,91.46,150.52Z"/></clipPath></defs><title>icon design system</title><g class="cls-4"><rect class="cls-5" x="32.62" y="22.96" width="173.88" height="171.58"/></g><g class="cls-6"><g class="cls-7"><rect class="cls-5" x="165.89" y="16.97" width="16.43" height="19.18"/></g></g><g class="cls-8"><g class="cls-7"><rect class="cls-5" x="130.4" y="45.37" width="17.6" height="17.25"/></g></g><g class="cls-9"><g class="cls-7"><g class="cls-10"><g class="cls-11"><g class="cls-9"><g class="cls-12"><path class="cls-13" d="M75.72,56.69h82.12a6.84,6.84,0,0,1,6.85,6.85V171.75a6.84,6.84,0,0,1-6.85,6.85H75.72a6.85,6.85,0,0,1-6.84-6.85V63.54A6.85,6.85,0,0,1,75.72,56.69Z"/></g></g><g class="cls-12"><path class="cls-14" d="M75.72,56.69h82.13a6.85,6.85,0,0,1,6.84,6.85V171.75a6.85,6.85,0,0,1-6.84,6.85H75.72a6.85,6.85,0,0,1-6.84-6.85V63.54A6.85,6.85,0,0,1,75.72,56.69Z"/></g></g></g></g></g><g class="cls-15"><g class="cls-7"><rect class="cls-13" x="89.41" y="70.39" width="57.49" height="57.53"/></g></g><g class="cls-7"><ellipse class="cls-16" cx="118.16" cy="99.15" rx="21.9" ry="21.92"/></g><g class="cls-17"><g class="cls-7"><rect class="cls-13" x="104.48" y="81.35" width="27.38" height="28.76"/></g></g><g class="cls-7"><ellipse class="cls-18" cx="118.17" cy="95.73" rx="6.84" ry="7.53"/><path class="cls-19" d="M102.34,114.22q8.8-9.59,16.51-9.59t14.69,9.59"/></g><g class="cls-20"><g class="cls-7"><rect class="cls-5" x="92.14" y="129.29" width="54.75" height="16.44"/></g></g><g class="cls-21"><g class="cls-7"><rect class="cls-5" x="92.14" y="140.25" width="56.12" height="16.44"/></g></g><g class="cls-22"><g class="cls-7"><rect class="cls-5" x="137.31" y="110.11" width="55.64" height="56.16"/></g></g><g class="cls-23"><g class="cls-7"><rect class="cls-13" x="141.43" y="114.91" width="46.17" height="46.57"/></g></g><g class="cls-7"><path class="cls-24" d="M164.51,154.63a16.44,16.44,0,1,0-16.24-16.44A16.34,16.34,0,0,0,164.51,154.63Z"/><polyline class="cls-25" points="154.09 137.79 161.27 144.36 173.26 133.4"/></g><g class="cls-26"><g class="cls-7"><rect class="cls-5" x="82.57" y="128.6" width="17.79" height="17.81"/></g></g><g class="cls-27"><g class="cls-7"><rect class="cls-5" x="82.57" y="139.56" width="17.79" height="17.81"/></g></g></svg>