<svg id="Layer_1" data-name="Layer 1" xmlns="http://www.w3.org/2000/svg" xmlns:xlink="http://www.w3.org/1999/xlink" viewBox="0 0 233.78 216.13"><defs><style>.cls-1,.cls-14,.cls-15,.cls-17,.cls-2,.cls-8{fill:none;}.cls-2{clip-rule:evenodd;}.cls-3{clip-path:url(#clip-path);}.cls-4{clip-path:url(#clip-path-2);}.cls-5{isolation:isolate;}.cls-6{clip-path:url(#clip-path-3);}.cls-7{clip-path:url(#clip-path-4);}.cls-14,.cls-15,.cls-17,.cls-8{stroke:#3ba07a;}.cls-14,.cls-17,.cls-8{stroke-miterlimit:10;}.cls-8{stroke-width:3.58px;}.cls-9{clip-path:url(#clip-path-5);}.cls-10{fill:#3ba07a;}.cls-11{clip-path:url(#clip-path-7);}.cls-12{clip-path:url(#clip-path-9);}.cls-13{fill:#fff;}.cls-14,.cls-15,.cls-17{stroke-width:1.43px;}.cls-15,.cls-17{stroke-linecap:round;}.cls-15{stroke-linejoin:round;}.cls-16{clip-path:url(#clip-path-12);}.cls-18{clip-path:url(#clip-path-15);}.cls-19{clip-path:url(#clip-path-17);}</style><clipPath id="clip-path"><rect class="cls-1" x="78.03" y="50.29" width="93.67" height="124.88" rx="7.8"/></clipPath><clipPath id="clip-path-2"><rect class="cls-1" x="78.59" y="50.9" width="114.73" height="125.59"/></clipPath><clipPath id="clip-path-3"><rect class="cls-1" x="78.03" y="50.29" width="93.74" height="126.44"/></clipPath><clipPath id="clip-path-4"><rect class="cls-1" x="78.03" y="50.29" width="93.68" height="124.88"/></clipPath><clipPath id="clip-path-5"><path class="cls-2" d="M101.44,133h50a1.56,1.56,0,1,1,0,3.12h-50a1.56,1.56,0,0,1,0-3.12Z"/></clipPath><clipPath id="clip-path-7"><path class="cls-2" d="M101.44,145.51h50a1.56,1.56,0,1,1,0,3.12h-50a1.56,1.56,0,0,1,0-3.12Z"/></clipPath><clipPath id="clip-path-9"><path class="cls-2" d="M125,97.12c4,0,7.2-3.49,7.2-7.8S129,81.51,125,81.51s-7.17,3.5-7.17,7.81S121,97.12,125,97.12Z"/></clipPath><clipPath id="clip-path-12"><path class="cls-2" d="M171.46,158a21.86,21.86,0,1,0-21.6-21.85A21.73,21.73,0,0,0,171.46,158Z"/></clipPath><clipPath id="clip-path-15"><rect class="cls-1" x="92.09" y="170.49" width="21.84" height="6.24"/></clipPath><clipPath id="clip-path-17"><path class="cls-2" d="M97.54,176a2.34,2.34,0,1,0-2.34-2.34A2.35,2.35,0,0,0,97.54,176Z"/></clipPath></defs><title>icon design system</title><g class="cls-3"><g class="cls-4"><g class="cls-5"><g class="cls-6"><g class="cls-7"><path class="cls-8" d="M85.83,50.29H163.9a7.81,7.81,0,0,1,7.81,7.81V167.37a7.8,7.8,0,0,1-7.8,7.8H85.83A7.81,7.81,0,0,1,78,167.36V58.1A7.8,7.8,0,0,1,85.83,50.29Z"/></g></g></g></g></g><g class="cls-9"><g class="cls-4"><rect class="cls-10" x="92.09" y="125.22" width="68.7" height="18.73"/></g></g><g class="cls-11"><g class="cls-4"><rect class="cls-10" x="92.09" y="137.71" width="68.7" height="18.73"/></g></g><g class="cls-12"><g class="cls-4"><rect class="cls-13" x="110.01" y="73.71" width="29.99" height="31.22"/></g></g><g class="cls-4"><path class="cls-14" d="M125,97.12c4,0,7.18-3.49,7.18-7.8S129,81.51,125,81.51s-7.19,3.5-7.19,7.81S121.05,97.12,125,97.12Z"/><path class="cls-15" d="M107.7,111.17q9.26-10.92,17.35-10.92t15.43,10.92"/></g><g class="cls-16"><g class="cls-4"><rect class="cls-13" x="142.03" y="106.49" width="58.83" height="59.32"/></g></g><g class="cls-4"><ellipse class="cls-14" cx="172.35" cy="136.15" rx="18.52" ry="18.73"/><polyline class="cls-17" points="162.63 135.84 169.69 142.39 181.46 131.47"/></g><g class="cls-18"><g class="cls-4"><rect class="cls-13" x="84.28" y="162.68" width="37.47" height="21.85"/></g></g><g class="cls-19"><g class="cls-4"><rect class="cls-10" x="87.4" y="163.46" width="20.3" height="20.29"/></g></g><g class="cls-4"><ellipse class="cls-14" cx="124.09" cy="96.34" rx="24.2" ry="24.2"/></g></svg>