<svg id="Layer_1" data-name="Layer 1" xmlns="http://www.w3.org/2000/svg" xmlns:xlink="http://www.w3.org/1999/xlink" viewBox="0 0 233.78 216.13"><defs><style>.cls-1,.cls-2{fill:none;}.cls-2{clip-rule:evenodd;}.cls-3{clip-path:url(#clip-path);}.cls-4{fill:#16103e;}.cls-5{clip-path:url(#clip-path-2);}.cls-6{clip-path:url(#clip-path-3);}.cls-7{fill:#3ba07a;}.cls-8{clip-path:url(#clip-path-4);}.cls-9{clip-path:url(#clip-path-6);}.cls-10{clip-path:url(#clip-path-8);}.cls-11{clip-path:url(#clip-path-10);}.cls-12{clip-path:url(#clip-path-12);}.cls-13{clip-path:url(#clip-path-14);}.cls-14{isolation:isolate;}.cls-15{clip-path:url(#clip-path-16);}.cls-16{clip-path:url(#clip-path-17);}.cls-17{clip-path:url(#clip-path-18);}.cls-18{clip-path:url(#clip-path-19);}.cls-19{clip-path:url(#clip-path-21);}</style><clipPath id="clip-path"><rect class="cls-1" x="37.18" y="20.78" width="178.25" height="175.94"/></clipPath><clipPath id="clip-path-2"><path class="cls-2" d="M157.17,69,146.66,91q2.52,12,12.15,9.57t8.35-12.4Z"/></clipPath><clipPath id="clip-path-3"><rect class="cls-1" x="78.63" y="48.81" width="95.37" height="127.6"/></clipPath><clipPath id="clip-path-4"><path class="cls-2" d="M108.4,69,97.88,91q2.55,12,12.16,9.57t8.35-12.4Z"/></clipPath><clipPath id="clip-path-6"><path class="cls-2" d="M119.48,90.17,110,66.83a1.86,1.86,0,0,0-1.67-1.12,1.54,1.54,0,0,0-1.68,1.12L95.43,90.17a1.7,1.7,0,0,0-.85,1.68,12.88,12.88,0,0,0,12.89,12.93h.26a13.05,13.05,0,0,0,12.88-12.93C120.33,91.29,120.05,90.45,119.48,90.17Zm-11.18-18,7.28,17.71H99.9Zm-.83,29c-4.49,0-7.85-3.1-9-7.31h17.61A8.51,8.51,0,0,1,107.47,101.13Z"/></clipPath><clipPath id="clip-path-8"><path class="cls-2" d="M156.1,129.2h-45a1.64,1.64,0,1,1,0-3.25h45a1.64,1.64,0,1,1,0,3.25"/></clipPath><clipPath id="clip-path-10"><path class="cls-2" d="M168.27,90.17l-9.53-23.34a1.85,1.85,0,0,0-1.66-1.12,1.56,1.56,0,0,0-1.7,1.12L144.2,90.17a1.72,1.72,0,0,0-.83,1.68,12.85,12.85,0,0,0,12.86,12.93h.29a13,13,0,0,0,12.86-12.93A2.64,2.64,0,0,0,168.27,90.17Zm-11.47-18,7.26,17.71H148.41Zm-.57,28.68c-4.47,0-7.82-3.09-9-7.31h17.64A9,9,0,0,1,156.23,100.85Z"/></clipPath><clipPath id="clip-path-12"><path class="cls-2" d="M156.32,58.62H139.64a6.16,6.16,0,0,0-4-4.16V49.74a1.89,1.89,0,1,0-3.77,0v4.72a5.78,5.78,0,0,0-3.77,4.16h-17a1.94,1.94,0,0,0,0,3.88h17a5.38,5.38,0,0,0,3.77,3.88v52.43H120.26a1.94,1.94,0,0,0,0,3.88H146.9a1.94,1.94,0,0,0,0-3.88H135.33V66.11a5.4,5.4,0,0,0,3.77-3.89h17a1.85,1.85,0,0,0,1.87-1.94c.29-.83-.52-1.66-1.61-1.66M134,62.78a2.5,2.5,0,1,1,2.42-2.5,2.46,2.46,0,0,1-2.42,2.5"/></clipPath><clipPath id="clip-path-14"><rect class="cls-1" x="79.96" y="135.72" width="94.31" height="40.7"/></clipPath><clipPath id="clip-path-16"><rect class="cls-1" x="78.56" y="135" width="95.92" height="41.42"/></clipPath><clipPath id="clip-path-17"><path class="cls-2" d="M80,138.47V169H96.79c1.15-2.79,2.18-4.19,3.11-4.19,1.42,0,27,9.75,31.31,9.75S171,159,171,156.07s.11-10.86-14.89-6.88q-15,4-10.83,2-4.35-4.26-14.06-4.26c-9.68,0-23.66-6.67-25.33-6.67H98.51a55.25,55.25,0,0,0-12-1.8Z"/></clipPath><clipPath id="clip-path-18"><rect class="cls-1" x="78.56" y="135.72" width="95.92" height="40.7"/></clipPath><clipPath id="clip-path-19"><path class="cls-2" d="M174,150.41a7.22,7.22,0,0,0-3.47-4.26,7.06,7.06,0,0,0-5.32-.59l-18.38,3.6a7.94,7.94,0,0,0-6.88-3.83H130.6l-.2,0c-.22,0-3,.29-7.65-1.43-3-1.09-4.88-1.81-6.24-2.34-1.19-.45-2-.76-2.74-1-1.46-.49-7.94-.61-12.49-.63a4.79,4.79,0,0,0-4.73-4.23H80v4.55H88.5v25.82H80v4.55H96.55a4.74,4.74,0,0,0,4.44-3.09,12.94,12.94,0,0,1,5.26,1.18l.15.1L122,174.48a29.2,29.2,0,0,0,9.73,1.94A11.11,11.11,0,0,0,135,176l.15-.06,12.69-6.38,21.52-10.26A7.22,7.22,0,0,0,174,150.41ZM96.79,165.83a.25.25,0,0,1-.24.26H93V140.27h3.54a.25.25,0,0,1,.24.26ZM167.87,155l-.17,0-21.82,10.41-12.38,6.24c-.68.14-4,.64-10-1.52l-15.15-5.5a17.09,17.09,0,0,0-7-1.69V144.51c4.84,0,10.07.18,11.07.41.64.22,1.4.5,2.51.93,1.37.53,3.27,1.26,6.3,2.36,5.36,2,8.76,1.78,9.68,1.68h9a2.83,2.83,0,1,1,0,5.57h-9.14l-5.58-.13A6.9,6.9,0,0,0,120,156.8a6.08,6.08,0,0,0-1.81,5l4.54-.24a1.9,1.9,0,0,1,.3-1.4,2.49,2.49,0,0,1,1.66-.33l.13,0,5.88.13h9.23a7.7,7.7,0,0,0,7.78-6.39L166.13,150l.22,0a2.64,2.64,0,0,1,3.27,1.76A2.67,2.67,0,0,1,167.87,155Z"/></clipPath><clipPath id="clip-path-21"><path class="cls-2" d="M103.76,130a2.45,2.45,0,1,0-2.44-2.44A2.44,2.44,0,0,0,103.76,130Z"/></clipPath></defs><title>icon design system</title><g class="cls-3"><rect class="cls-4" x="39.36" y="22.96" width="173.9" height="171.58"/></g><g class="cls-5"><g class="cls-6"><rect class="cls-7" x="138.53" y="60.82" width="36.91" height="48.29"/></g></g><g class="cls-8"><g class="cls-6"><rect class="cls-7" x="89.77" y="60.82" width="36.91" height="48.29"/></g></g><g class="cls-9"><g class="cls-6"><rect class="cls-4" x="86.47" y="57.57" width="42.27" height="55.36"/></g></g><g class="cls-10"><g class="cls-6"><rect class="cls-7" x="101.1" y="117.81" width="65.03" height="19.54"/></g></g><g class="cls-11"><g class="cls-6"><rect class="cls-4" x="135.24" y="57.57" width="42.27" height="55.36"/></g></g><g class="cls-12"><g class="cls-6"><rect class="cls-7" x="101.1" y="39.66" width="65.03" height="91.17"/></g></g><g class="cls-13"><g class="cls-6"><g class="cls-14"><g class="cls-15"><g class="cls-16"><g class="cls-17"><rect class="cls-7" x="71.82" y="130.33" width="107.29" height="52.32"/></g></g><g class="cls-18"><g class="cls-17"><rect class="cls-4" x="71.82" y="127.58" width="110.55" height="56.98"/></g></g></g></g></g></g><g class="cls-19"><g class="cls-6"><rect class="cls-7" x="93.19" y="116.99" width="21.13" height="21.17"/></g></g></svg>