<svg id="Layer_1" data-name="Layer 1" xmlns="http://www.w3.org/2000/svg" xmlns:xlink="http://www.w3.org/1999/xlink" viewBox="0 0 233.78 216.13"><defs><style>.cls-1,.cls-2{fill:none;}.cls-1{clip-rule:evenodd;}.cls-3{clip-path:url(#clip-path);}.cls-4{clip-path:url(#clip-path-2);}.cls-5{clip-path:url(#clip-path-3);}.cls-6{clip-path:url(#clip-path-5);}.cls-7{clip-path:url(#clip-path-7);}.cls-8{clip-path:url(#clip-path-9);}.cls-9{isolation:isolate;}.cls-10{clip-path:url(#clip-path-11);}.cls-11{clip-path:url(#clip-path-12);}.cls-12{clip-path:url(#clip-path-14);}</style><clipPath id="clip-path"><path class="cls-1" d="M112.31,87.15l-10.38-26.1a2,2,0,0,0-1.82-1.26,1.7,1.7,0,0,0-1.85,1.26l-12.2,26.1A1.92,1.92,0,0,0,85.14,89a14.23,14.23,0,0,0,14,14.47h.3c7.63,0,14.05-6.61,14.05-14.47C113.24,88.41,112.93,87.47,112.31,87.15ZM100.11,67,108,86.84H90.93Zm-.92,32.4c-4.89,0-8.56-3.46-9.79-8.18h19.24A9.38,9.38,0,0,1,99.19,99.42Z"/></clipPath><clipPath id="clip-path-2"><rect class="cls-2" x="63.88" y="40.7" width="104.75" height="135.68"/></clipPath><clipPath id="clip-path-3"><path class="cls-1" d="M152.32,130.83H103.18a1.84,1.84,0,1,1,0-3.64h49.14a1.83,1.83,0,1,1,0,3.64"/></clipPath><clipPath id="clip-path-5"><path class="cls-1" d="M165.57,87.15l-10.38-26.1a2,2,0,0,0-1.82-1.26,1.7,1.7,0,0,0-1.85,1.26l-12.2,26.1a1.91,1.91,0,0,0-.91,1.89,14.23,14.23,0,0,0,14.05,14.47h.29c7.63,0,14.05-6.61,14.05-14.47A2.84,2.84,0,0,0,165.57,87.15ZM153.05,67,161,86.84H143.89Zm-.59,32.08c-4.9,0-8.57-3.45-9.8-8.17h19.25A9.84,9.84,0,0,1,152.46,99.1Z"/></clipPath><clipPath id="clip-path-7"><path class="cls-1" d="M152.55,51.85H134.33a6.79,6.79,0,0,0-4.42-4.65V41.92a2.05,2.05,0,1,0-4.1,0V47.2a6.42,6.42,0,0,0-4.12,4.65H103.18a2.18,2.18,0,0,0,0,4.35h18.51a6,6,0,0,0,4.12,4.34V119.2H113.15a2.18,2.18,0,0,0,0,4.35h29.13a2.18,2.18,0,0,0,0-4.35H129.62v-59a6,6,0,0,0,4.12-4.34h18.51a2.07,2.07,0,0,0,2.07-2.18c.3-.93-.59-1.86-1.77-1.86m-24.39,4.66a2.8,2.8,0,1,1,2.64-2.8,2.7,2.7,0,0,1-2.64,2.8"/></clipPath><clipPath id="clip-path-9"><rect class="cls-2" x="65.4" y="130.83" width="102.97" height="45.54"/></clipPath><clipPath id="clip-path-11"><rect class="cls-2" x="63.88" y="130.83" width="104.75" height="45.54"/></clipPath><clipPath id="clip-path-12"><path class="cls-1" d="M168.05,147.27a8,8,0,0,0-3.8-4.76,7.5,7.5,0,0,0-5.8-.66l-20.07,4a8.63,8.63,0,0,0-7.51-4.27h-10l-.16,0-.2,0c-.23,0-3.26.32-8.36-1.6-3.28-1.23-5.33-2-6.81-2.62-1.3-.51-2.16-.85-3-1.13-1.62-.55-8.68-.68-13.67-.7a5.26,5.26,0,0,0-5.17-4.75H65.4v5.1h9.34v28.89H65.4v5.09H83.5a5.22,5.22,0,0,0,4.88-3.46,14,14,0,0,1,5.74,1.32l.16.11,17,6.33a31.07,31.07,0,0,0,10.61,2.17,11.52,11.52,0,0,0,3.62-.46l.16,0,13.84-7.15L163,157.24A8.12,8.12,0,0,0,168.05,147.27ZM83.78,164.53a.28.28,0,0,1-.28.29H79.68V135.93H83.5a.28.28,0,0,1,.28.28Zm77.63-12.1-.19,0-23.84,11.64-13.52,7c-.73.16-4.33.72-10.91-1.69l-16.56-6.16a18.08,18.08,0,0,0-7.67-1.88V140.68a114.38,114.38,0,0,1,12.09.45c.71.24,1.53.56,2.73,1,1.53.6,3.6,1.41,6.9,2.65,5.86,2.2,9.57,2,10.57,1.87h9.86a3.15,3.15,0,1,1,0,6.23h-10l-6.11-.14a7.34,7.34,0,0,0-5.67,1.65,6.73,6.73,0,0,0-2,5.62l4.94-.27c0-.44,0-1.23.34-1.56a2.63,2.63,0,0,1,1.8-.37l.14,0,6.44.15h10.07a8.45,8.45,0,0,0,8.49-7.15l20.16-4,.22-.06a2.8,2.8,0,0,1,2.19.23,2.92,2.92,0,0,1,1.39,1.74A3,3,0,0,1,161.41,152.43Z"/></clipPath><clipPath id="clip-path-14"><ellipse class="cls-2" cx="93.16" cy="128.1" rx="2.66" ry="2.73"/></clipPath></defs><title>icon design system</title><g class="cls-3"><g class="cls-4"><rect x="76.26" y="50.68" width="46.16" height="61.94"/></g></g><g class="cls-5"><g class="cls-4"><rect x="92.23" y="118.08" width="71.02" height="21.86"/></g></g><g class="cls-6"><g class="cls-4"><rect x="129.53" y="50.68" width="46.16" height="61.94"/></g></g><g class="cls-7"><g class="cls-4"><rect x="92.23" y="30.64" width="71.02" height="102.02"/></g></g><g class="cls-8"><g class="cls-4"><g class="cls-9"><g class="cls-10"><g class="cls-11"><g class="cls-10"><rect x="56.52" y="121.73" width="120.73" height="63.76"/></g></g></g></g></g></g><g class="cls-12"><g class="cls-4"><rect x="81.64" y="116.26" width="23.08" height="23.68"/></g></g></svg>