<?xml version="1.0" encoding="UTF-8"?>
<svg width="20px" height="22px" viewBox="0 0 20 22" version="1.1" xmlns="http://www.w3.org/2000/svg" xmlns:xlink="http://www.w3.org/1999/xlink">
    <!-- Generator: Sketch 57.1 (83088) - https://sketch.com -->
    <title>icon/system/24/renew</title>
    <desc>Created with Sketch.</desc>
    <g id="Atoms" stroke="none" stroke-width="1" fill="none" fill-rule="evenodd">
        <g id="Icons" transform="translate(-466.000000, -484.000000)">
            <g id="icon/system/24/renew" transform="translate(464.000000, 483.000000)">
                <rect id="Path" fill-rule="nonzero" x="0" y="0" width="24" height="24"></rect>
                <path d="M20.8235962,14.0572839 C21.3442439,14.2415241 21.6169562,14.8129485 21.4327161,15.3335962 C20.287292,18.5704722 17.5613081,20.9933537 14.2123975,21.7510871 C10.8634869,22.5088204 7.360004,21.4954343 4.9735354,19.1055367 L4,18.235 L4,22 C4,22.5522847 3.55228475,23 3,23 C2.44771525,23 2,22.5522847 2,22 L2,16 C2,15.4477153 2.44771525,15 3,15 L9,15 C9.55228475,15 10,15.4477153 10,16 C10,16.5522847 9.55228475,17 9,17 L5.617,17 L6.34728395,17.6530704 C8.28911431,19.5958742 11.0919006,20.4065831 13.7710291,19.8003964 C16.4501576,19.1942098 18.6309447,17.2559045 19.5472839,14.6664038 C19.7315241,14.1457561 20.3029485,13.8730438 20.8235962,14.0572839 Z M21,1 C21.5522847,1 22,1.44771525 22,2 L22,8 C22,8.55228475 21.5522847,9 21,9 L15,9 C14.4477153,9 14,8.55228475 14,8 C14,7.44771525 14.4477153,7 15,7 L18.383,7 L17.6527161,6.34692957 C15.7108857,4.40412578 12.9080994,3.59341693 10.2289709,4.19960358 C7.54984242,4.80579023 5.36905528,6.74409548 4.45271605,9.33359624 C4.26847594,9.85424393 3.69705146,10.1269562 3.17640376,9.94271605 C2.65575607,9.75847594 2.38304384,9.18705146 2.56728395,8.66640376 C3.71270799,5.42952783 6.43869191,3.00664626 9.78760253,2.24891295 C13.1365131,1.49117964 16.639996,2.50456569 19.0264646,4.89446333 L20,5.765 L20,2 C20,1.44771525 20.4477153,1 21,1 Z" id="Color" fill="#160F3E" fill-rule="evenodd"></path>
            </g>
        </g>
    </g>
</svg>