<svg id="Layer_1" data-name="Layer 1" xmlns="http://www.w3.org/2000/svg" xmlns:xlink="http://www.w3.org/1999/xlink" viewBox="0 0 233.78 216.13"><defs><style>.cls-1,.cls-2{fill:none;}.cls-2{clip-rule:evenodd;}.cls-3{clip-path:url(#clip-path);}.cls-4{clip-path:url(#clip-path-2);}.cls-5{isolation:isolate;}.cls-6{clip-path:url(#clip-path-3);}.cls-7{clip-path:url(#clip-path-4);}.cls-8{clip-path:url(#clip-path-5);}.cls-9{clip-path:url(#clip-path-6);}.cls-10{clip-path:url(#clip-path-8);}.cls-11{clip-path:url(#clip-path-10);}.cls-12{clip-path:url(#clip-path-12);}.cls-13{clip-path:url(#clip-path-14);}.cls-14{clip-path:url(#clip-path-16);}.cls-15{fill:#fff;}.cls-16{clip-path:url(#clip-path-18);}</style><clipPath id="clip-path"><rect class="cls-1" x="56.04" y="41.8" width="114.6" height="108.26"/></clipPath><clipPath id="clip-path-2"><rect class="cls-1" x="56.26" y="40.92" width="114.92" height="110.69"/></clipPath><clipPath id="clip-path-3"><rect class="cls-1" x="55.63" y="40.92" width="116.04" height="110.69"/></clipPath><clipPath id="clip-path-4"><path class="cls-2" d="M170.29,71c0-15.32-21.67-16.37-23.82-2.11H132.15V67.15a2.11,2.11,0,0,0-1.26-1.76l-4.3-1.24a21.14,21.14,0,0,0-2.5-5.81l2.15-3.87a1.86,1.86,0,0,0-.36-2.11l-5-4.93a1.93,1.93,0,0,0-2.15-.35l-3.58,2.64a24.6,24.6,0,0,0-5.91-2.47L108,43a1.72,1.72,0,0,0-1.61-1.23h-7A1.72,1.72,0,0,0,97.76,43l-1.25,4.22a28,28,0,0,0-5.91,2.47l-3.94-2.11a2,2,0,0,0-2.15.35l-5,4.93A1.84,1.84,0,0,0,79.14,55l2.15,3.87a21.16,21.16,0,0,0-2.51,5.81l-4.3,1.23a1.71,1.71,0,0,0-1.25,1.59v1.76h-12A5.15,5.15,0,0,0,56,74.36V145a5.15,5.15,0,0,0,5.19,5.1h96.7a13.55,13.55,0,0,0,8.06-2.81C172.44,141.61,170.29,142.13,170.29,71Zm-12-8.63a8.6,8.6,0,0,1,8.6,8.8v58.62a12.25,12.25,0,0,0-17.19,0V70.67A8.61,8.61,0,0,1,158.29,62.39ZM77,68.55l3.94-1a2.16,2.16,0,0,0,1.25-1.23,20,20,0,0,1,2.87-6.69,1.57,1.57,0,0,0,0-1.76l-2-3.52,3-3,3.58,1.94a1.67,1.67,0,0,0,1.8,0,20.56,20.56,0,0,1,6.8-2.82,1.77,1.77,0,0,0,1.26-1.23l1.25-3.87h4.3l1.07,3.87a2.14,2.14,0,0,0,1.25,1.23,21.81,21.81,0,0,1,6.63,2.64,1.62,1.62,0,0,0,1.79,0l3.58-1.93,3,3-2,3.52a1.57,1.57,0,0,0,0,1.76,22.47,22.47,0,0,1,2.86,6.69,1.74,1.74,0,0,0,1.26,1.23l3.93,1.06V72.6l-3.93,1.06a2.15,2.15,0,0,0-1.26,1.23,20,20,0,0,1-2.86,6.69,1.57,1.57,0,0,0,0,1.76l2,3.52-3,3-3.58-1.93a1.66,1.66,0,0,0-1.79,0,24,24,0,0,1-6.63,2.81A1.77,1.77,0,0,0,106.18,92l-1.07,3.87h-4.3L99.73,92a2.13,2.13,0,0,0-1.25-1.24,18.19,18.19,0,0,1-6.63-2.81,1.66,1.66,0,0,0-1.79,0l-3.58,1.93-3-3,2-3.52a1.57,1.57,0,0,0,0-1.76,22.13,22.13,0,0,1-2.87-6.69,1.76,1.76,0,0,0-1.25-1.23L77.35,72.6v-4Zm86.85,75.7a9,9,0,0,1-5.91,2.11H61.23a1.79,1.79,0,0,1-1.79-1.76V74.19a1.78,1.78,0,0,1,1.79-1.76H73.59v1.76a1.69,1.69,0,0,0,1.25,1.58L79.14,77a21,21,0,0,0,2.51,5.81L79.5,86.69a1.85,1.85,0,0,0,.35,2.11l5,4.93a2,2,0,0,0,2.15.35L91,92a22.2,22.2,0,0,0,5.91,2.46l1.25,4.23a1.72,1.72,0,0,0,1.61,1.23h7a1.72,1.72,0,0,0,1.61-1.23l1.25-4.23A28.53,28.53,0,0,0,115.49,92l3.94,2.11a2,2,0,0,0,2.15-.35l5-4.93a1.84,1.84,0,0,0,.36-2.11l-2.15-3.88A21,21,0,0,0,127.31,77l4.3-1.23a1.69,1.69,0,0,0,1.25-1.58V72.43H147v65.65a1.79,1.79,0,0,0,3.58,0,8.52,8.52,0,0,1,8.59-8.44c4.12,0,8.42,3.87,8.42,9.5A15.93,15.93,0,0,1,163.84,144.25Z"/></clipPath><clipPath id="clip-path-5"><rect class="cls-1" x="55.63" y="40.92" width="116.04" height="109.28"/></clipPath><clipPath id="clip-path-6"><path class="cls-2" d="M70.28,90.5a1.35,1.35,0,0,0-1.74-.36,1.58,1.58,0,0,0-1,1.62v47A1.42,1.42,0,0,0,68,140a2.38,2.38,0,0,0,1,.35h45.48a1.64,1.64,0,0,0,1.56-1.07,2,2,0,0,0-.34-2ZM70.62,137V95.89L110.38,137Z"/></clipPath><clipPath id="clip-path-8"><path class="cls-2" d="M76.46,130.59h15.1a1.73,1.73,0,0,0,1.62-1.14,2.13,2.13,0,0,0-.36-2.07l-15.1-15.84a1.59,1.59,0,0,0-2-.37,1.65,1.65,0,0,0-1.08,1.69V128.7A1.85,1.85,0,0,0,76.46,130.59Zm1.8-13.2L87.43,127H78.26Z"/></clipPath><clipPath id="clip-path-10"><path class="cls-2" d="M102.55,83a11.15,11.15,0,0,0,8.39-3.84,9.92,9.92,0,0,0,2.13-8.89A10.71,10.71,0,1,0,102.55,83m-4.63-16a7.11,7.11,0,0,1,4.63-1.57,4.92,4.92,0,0,1,1.61.18,7.5,7.5,0,0,1,5.53,5.4A6.85,6.85,0,0,1,108.26,77a7.38,7.38,0,0,1-13-4.53,7.63,7.63,0,0,1,2.68-5.59"/></clipPath><clipPath id="clip-path-12"><path class="cls-2" d="M135.72,104H108a2.13,2.13,0,0,0,0,4.21H135.9a2,2,0,0,0,1.8-2.1c-.18-1.26-.9-2.11-2-2.11"/></clipPath><clipPath id="clip-path-14"><path class="cls-2" d="M135.72,116.58H108a2.12,2.12,0,0,0,0,4.2H135.9a2,2,0,0,0,1.8-2.1c-.18-1.27-.9-2.1-2-2.1"/></clipPath><clipPath id="clip-path-16"><rect class="cls-1" x="69.96" y="146" width="20.06" height="5.6"/></clipPath><clipPath id="clip-path-18"><path class="cls-2" d="M75,150.2a2.1,2.1,0,1,0-2.15-2.1A2.12,2.12,0,0,0,75,150.2Z"/></clipPath></defs><title>icon design system</title><g class="cls-3"><g class="cls-4"><g class="cls-5"><g class="cls-6"><g class="cls-7"><g class="cls-8"><rect x="48.88" y="34.79" width="128.92" height="122.27"/></g></g></g></g></g></g><g class="cls-9"><g class="cls-4"><rect x="60.34" y="82.95" width="63.03" height="64.45"/></g></g><g class="cls-10"><g class="cls-4"><rect x="67.5" y="103.97" width="32.95" height="33.63"/></g></g><g class="cls-11"><g class="cls-4"><rect x="84.69" y="54.93" width="35.82" height="35.03"/></g></g><g class="cls-12"><g class="cls-4"><rect x="99.02" y="96.96" width="45.84" height="18.21"/></g></g><g class="cls-13"><g class="cls-4"><rect x="99.02" y="109.57" width="45.84" height="18.21"/></g></g><g class="cls-14"><g class="cls-4"><rect class="cls-15" x="62.79" y="138.99" width="34.38" height="19.62"/></g></g><g class="cls-16"><g class="cls-4"><rect x="65.66" y="138.99" width="18.62" height="18.21"/></g></g></svg>