<svg id="Layer_1" data-name="Layer 1" xmlns="http://www.w3.org/2000/svg" xmlns:xlink="http://www.w3.org/1999/xlink" viewBox="0 0 233.78 216.13"><defs><style>.cls-1,.cls-2{fill:none;}.cls-2{clip-rule:evenodd;}.cls-3{clip-path:url(#clip-path);}.cls-4{fill:#16103e;}.cls-5{clip-path:url(#clip-path-2);}.cls-6{clip-path:url(#clip-path-3);}.cls-7{isolation:isolate;}.cls-8{clip-path:url(#clip-path-4);}.cls-9{clip-path:url(#clip-path-5);}.cls-10{fill:#fff;}.cls-11{clip-path:url(#clip-path-7);}.cls-12{fill:#3ba07a;}.cls-13{clip-path:url(#clip-path-9);}.cls-14{clip-path:url(#clip-path-11);}.cls-15{clip-path:url(#clip-path-13);}.cls-16{clip-path:url(#clip-path-15);}.cls-17{clip-path:url(#clip-path-17);}.cls-18{clip-path:url(#clip-path-19);}</style><clipPath id="clip-path"><rect class="cls-1" x="28.58" y="21.99" width="179.94" height="177.61"/></clipPath><clipPath id="clip-path-2"><rect class="cls-1" x="62.48" y="54.32" width="111.17" height="107.98"/></clipPath><clipPath id="clip-path-3"><rect class="cls-1" x="63.24" y="53.44" width="110.42" height="107.93"/></clipPath><clipPath id="clip-path-4"><rect class="cls-1" x="62.48" y="53.44" width="111.18" height="109"/></clipPath><clipPath id="clip-path-5"><path class="cls-2" d="M173.32,83.47c0-15.28-21-16.33-23.11-2.11h-13.9V79.6a2.11,2.11,0,0,0-1.21-1.75l-4.17-1.23a21.55,21.55,0,0,0-2.43-5.8L130.58,67a1.87,1.87,0,0,0-.35-2.1l-4.86-4.92a1.82,1.82,0,0,0-2.08-.35l-3.48,2.63a23.46,23.46,0,0,0-5.73-2.45l-1.22-4.22a1.67,1.67,0,0,0-1.56-1.23h-6.78A1.67,1.67,0,0,0,103,55.55l-1.22,4.22A26.64,26.64,0,0,0,96,62.22l-3.82-2.1a1.87,1.87,0,0,0-2.08.35l-4.87,4.91a1.9,1.9,0,0,0-.35,2.11L87,71.35a21.55,21.55,0,0,0-2.43,5.8l-4.17,1.22A1.69,1.69,0,0,0,79.16,80v1.76H67.52a5.07,5.07,0,0,0-5,5.09v70.4a5.08,5.08,0,0,0,5,5.1h93.81a13,13,0,0,0,7.82-2.81C175.4,153.87,173.32,154.4,173.32,83.47Zm-11.64-8.61A8.47,8.47,0,0,1,170,83.64v58.47a11.66,11.66,0,0,0-16.68,0v-59A8.46,8.46,0,0,1,161.68,74.86ZM82.81,81,86.63,80a2.13,2.13,0,0,0,1.22-1.22,20.16,20.16,0,0,1,2.78-6.68,1.63,1.63,0,0,0,0-1.75l-1.91-3.51,3-3,3.47,1.93a1.54,1.54,0,0,0,1.74,0,19.94,19.94,0,0,1,6.6-2.81,1.72,1.72,0,0,0,1.22-1.23l1.21-3.86h4.17l1,3.86a2.07,2.07,0,0,0,1.21,1.23,20.78,20.78,0,0,1,6.43,2.64,1.57,1.57,0,0,0,1.74,0L124,63.63l3,3L125,70.12a1.61,1.61,0,0,0,0,1.76,22.44,22.44,0,0,1,2.78,6.67A1.74,1.74,0,0,0,129,79.78l3.82,1v4.22l-3.82,1a2.14,2.14,0,0,0-1.22,1.23A20.2,20.2,0,0,1,125,94a1.61,1.61,0,0,0,0,1.76l1.91,3.51-3,3-3.47-1.93a1.57,1.57,0,0,0-1.74,0,23.26,23.26,0,0,1-6.43,2.81,1.73,1.73,0,0,0-1.21,1.23l-1,3.86h-4.17l-1-3.86a2.1,2.1,0,0,0-1.21-1.23,17.52,17.52,0,0,1-6.43-2.81,1.57,1.57,0,0,0-1.74,0L92,102.25l-3-3L91,95.76A1.61,1.61,0,0,0,91,94a23,23,0,0,1-2.78-6.67A1.72,1.72,0,0,0,87,86.1l-3.82-1V81Zm84.25,75.49a8.55,8.55,0,0,1-5.73,2.11H67.52a1.75,1.75,0,0,1-1.74-1.75V86.63a1.76,1.76,0,0,1,1.74-1.76h12v1.76a1.69,1.69,0,0,0,1.21,1.58l4.17,1.23a21.32,21.32,0,0,0,2.44,5.79l-2.09,3.86a1.89,1.89,0,0,0,.35,2.11l4.86,4.91a1.84,1.84,0,0,0,2.09.36l3.82-2.11a21.29,21.29,0,0,0,5.73,2.46l1.22,4.21a1.67,1.67,0,0,0,1.56,1.23h6.78a1.67,1.67,0,0,0,1.56-1.23l1.22-4.21a27.2,27.2,0,0,0,5.73-2.46l3.82,2.11a1.87,1.87,0,0,0,2.08-.36l4.87-4.91a1.9,1.9,0,0,0,.35-2.11l-2.09-3.86a21.62,21.62,0,0,0,2.43-5.79l4.17-1.23A1.69,1.69,0,0,0,137,86.63V84.87h13.72v65.49a1.74,1.74,0,1,0,3.48,0,8.38,8.38,0,0,1,8.33-8.43c4,0,8.17,3.86,8.17,9.48A15.78,15.78,0,0,1,167.06,156.5Z"/></clipPath><clipPath id="clip-path-7"><path class="cls-2" d="M76.68,102.72a1.28,1.28,0,0,0-1.68-.36,1.55,1.55,0,0,0-1,1.6v46.62a1.41,1.41,0,0,0,.5,1.25,2.27,2.27,0,0,0,1,.35h44.15a1.62,1.62,0,0,0,1.52-1.06,2,2,0,0,0-.34-2ZM77,148.8V108.05l38.59,40.75Z"/></clipPath><clipPath id="clip-path-9"><path class="cls-2" d="M82.1,143.21H96.61a1.65,1.65,0,0,0,1.55-1.11,2.09,2.09,0,0,0-.34-2L83.31,124.53a1.52,1.52,0,0,0-1.9-.37,1.63,1.63,0,0,0-1,1.67v15.53A1.8,1.8,0,0,0,82.1,143.21Zm1.73-12.94,8.81,9.42H83.83Z"/></clipPath><clipPath id="clip-path-11"><path class="cls-2" d="M107.81,95.76a11.15,11.15,0,0,0,8.47-4,10.49,10.49,0,0,0,2.16-9.22,10.91,10.91,0,0,0-8.11-8.33,10.56,10.56,0,0,0-9.2,2.17A11.11,11.11,0,0,0,97,84.91a10.86,10.86,0,0,0,10.82,10.85m-4.69-16.64a7,7,0,0,1,4.69-1.63,5,5,0,0,1,1.62.18A7.66,7.66,0,0,1,115,83.28a7.21,7.21,0,0,1-1.45,6.33,7.06,7.06,0,0,1-5.76,2.71,7.32,7.32,0,0,1-7.4-7.41,8,8,0,0,1,2.71-5.79"/></clipPath><clipPath id="clip-path-13"><path class="cls-2" d="M141.07,116.28h-27a1.93,1.93,0,0,0,0,3.85h27.16A1.84,1.84,0,0,0,143,118.2a2,2,0,0,0-1.92-1.92"/></clipPath><clipPath id="clip-path-15"><path class="cls-2" d="M141.07,131.67h-27a1.93,1.93,0,0,0,0,3.84h27.16a1.84,1.84,0,0,0,1.75-1.92,2,2,0,0,0-1.92-1.92"/></clipPath><clipPath id="clip-path-17"><rect class="cls-1" x="71.43" y="157.31" width="16.61" height="5.13"/></clipPath><clipPath id="clip-path-19"><path class="cls-2" d="M75.9,162.44A1.92,1.92,0,1,0,74,160.52,1.92,1.92,0,0,0,75.9,162.44Z"/></clipPath></defs><title>icon design system</title><g class="cls-3"><rect class="cls-4" x="30.76" y="24.17" width="175.58" height="173.25"/></g><g class="cls-5"><g class="cls-6"><g class="cls-7"><g class="cls-8"><g class="cls-9"><g class="cls-8"><rect class="cls-10" x="56.09" y="47.91" width="123.95" height="120.8"/></g></g></g></g></g></g><g class="cls-11"><g class="cls-6"><rect class="cls-12" x="67.6" y="95.76" width="60.06" height="62.84"/></g></g><g class="cls-13"><g class="cls-6"><rect class="cls-12" x="73.99" y="117.56" width="30.67" height="32.06"/></g></g><g class="cls-14"><g class="cls-6"><rect class="cls-10" x="90.6" y="67.55" width="34.5" height="34.62"/></g></g><g class="cls-15"><g class="cls-6"><rect class="cls-10" x="105.93" y="109.87" width="43.45" height="16.67"/></g></g><g class="cls-16"><g class="cls-6"><rect class="cls-10" x="105.93" y="125.25" width="43.45" height="16.67"/></g></g><g class="cls-17"><g class="cls-6"><rect class="cls-4" x="65.04" y="150.9" width="29.39" height="17.95"/></g></g><g class="cls-18"><g class="cls-6"><rect class="cls-10" x="67.6" y="152.18" width="16.61" height="16.67"/></g></g></svg>