<svg id="Layer_1" data-name="Layer 1" xmlns="http://www.w3.org/2000/svg" xmlns:xlink="http://www.w3.org/1999/xlink" viewBox="0 0 233.78 216.13"><defs><style>.cls-1,.cls-10,.cls-17,.cls-2,.cls-9{fill:none;}.cls-1{clip-rule:evenodd;}.cls-3{fill:#16103e;}.cls-4{clip-path:url(#clip-path);}.cls-5{clip-path:url(#clip-path-2);}.cls-6{isolation:isolate;}.cls-7{clip-path:url(#clip-path-3);}.cls-8{clip-path:url(#clip-path-4);}.cls-10,.cls-9{stroke:#fff;}.cls-10,.cls-17,.cls-9{stroke-miterlimit:10;}.cls-9{stroke-width:4.35px;}.cls-10{stroke-width:2.18px;}.cls-11{clip-path:url(#clip-path-6);}.cls-12{clip-path:url(#clip-path-8);}.cls-13{clip-path:url(#clip-path-9);}.cls-14{clip-path:url(#clip-path-11);}.cls-15{clip-path:url(#clip-path-13);}.cls-16{fill:#3ba07a;}.cls-17{stroke:#3ba07a;stroke-width:1.74px;}.cls-18{clip-path:url(#clip-path-16);}.cls-19{clip-path:url(#clip-path-18);}.cls-20{clip-path:url(#clip-path-19);}.cls-21{clip-path:url(#clip-path-20);}.cls-22{clip-path:url(#clip-path-22);}.cls-23{fill:#fff;}</style><clipPath id="clip-path"><path class="cls-1" d="M73.57,119.63H151a2.75,2.75,0,0,1,2.77,2.73v34.08a2.75,2.75,0,0,1-2.77,2.73H73.57a2.74,2.74,0,0,1-2.76-2.73V122.36A2.74,2.74,0,0,1,73.57,119.63Z"/></clipPath><clipPath id="clip-path-2"><rect class="cls-2" x="69.42" y="59.39" width="100.9" height="100.9"/></clipPath><clipPath id="clip-path-3"><rect class="cls-2" x="69.42" y="119.3" width="85.13" height="40.99"/></clipPath><clipPath id="clip-path-4"><rect class="cls-2" x="70.81" y="119.38" width="82.93" height="40.91"/></clipPath><clipPath id="clip-path-6"><path class="cls-1" d="M134.39,100.54h4.14a5.49,5.49,0,0,1,5.53,5.45v16.37H130.24V104.63A4.12,4.12,0,0,1,134.39,100.54Z"/></clipPath><clipPath id="clip-path-8"><rect class="cls-2" x="129.33" y="100.38" width="15.77" height="22.07"/></clipPath><clipPath id="clip-path-9"><rect class="cls-2" x="130.24" y="100.38" width="13.82" height="22.07"/></clipPath><clipPath id="clip-path-11"><ellipse class="cls-2" cx="150.97" cy="130.54" rx="19.35" ry="19.09"/></clipPath><clipPath id="clip-path-13"><path class="cls-1" d="M148.44,135.4l-4.77-4.81a1.4,1.4,0,0,0-2,0,1.36,1.36,0,0,0,0,1.93l5.77,5.81a1.39,1.39,0,0,0,1.95,0l0,0,10.82-10.91a1.34,1.34,0,0,0,0-1.93,1.4,1.4,0,0,0-1.95,0Z"/></clipPath><clipPath id="clip-path-16"><path class="cls-1" d="M86,100.54h4.15A5.48,5.48,0,0,1,95.68,106v16.37H81.86V104.63A4.12,4.12,0,0,1,86,100.54Z"/></clipPath><clipPath id="clip-path-18"><rect class="cls-2" x="80.46" y="100.38" width="15.77" height="22.07"/></clipPath><clipPath id="clip-path-19"><rect class="cls-2" x="81.86" y="100.38" width="13.82" height="22.07"/></clipPath><clipPath id="clip-path-20"><rect class="cls-2" x="83.25" y="154.83" width="19.35" height="5.45"/></clipPath><clipPath id="clip-path-22"><path class="cls-1" d="M88.08,159.6a2,2,0,1,0-2.07-2A2.06,2.06,0,0,0,88.08,159.6Z"/></clipPath></defs><title>icon design system</title><rect class="cls-3" x="40.06" y="29.24" width="159.78" height="157.66"/><g class="cls-4"><g class="cls-5"><g class="cls-6"><g class="cls-7"><g class="cls-8"><path class="cls-9" d="M73.57,119.63H151a2.75,2.75,0,0,1,2.77,2.73v34.08a2.75,2.75,0,0,1-2.77,2.73H73.57a2.74,2.74,0,0,1-2.76-2.73V122.36A2.74,2.74,0,0,1,73.57,119.63Z"/></g></g></g></g></g><g class="cls-5"><path class="cls-10" d="M83.1,62.36h58.24a2.76,2.76,0,0,1,2.49,1.55l8,16.36a2.72,2.72,0,0,1-1.29,3.64,2.81,2.81,0,0,1-1.21.27L73,84.15a1.37,1.37,0,0,1-1.38-1.36,1.31,1.31,0,0,1,.13-.59L80.6,63.91A2.78,2.78,0,0,1,83.1,62.36Z"/><path class="cls-10" d="M88.77,82.82V99.93q7.52,6.67,15.21,0"/><path class="cls-10" d="M104,82.82V99.93q8.19,6.67,16.58,0"/><path class="cls-10" d="M120.56,82.82V99.93q8.19,6.67,16.59,0"/><path class="cls-10" d="M137.15,82.82V99.93q7.5,6.67,15.2,0"/><line class="cls-10" x1="151.66" y1="101.87" x2="151.66" y2="82.82"/></g><g class="cls-11"><g class="cls-5"><g class="cls-6"><g class="cls-12"><g class="cls-13"><path class="cls-9" d="M134.39,100.54h4.14a5.49,5.49,0,0,1,5.53,5.45v16.37H130.24V104.63A4.12,4.12,0,0,1,134.39,100.54Z"/></g></g></g></g></g><g class="cls-5"><line class="cls-10" x1="105.36" y1="84.18" x2="109.51" y2="63.73"/><line class="cls-10" x1="121.95" y1="84.18" x2="120.56" y2="63.73"/><line class="cls-10" x1="137.15" y1="84.18" x2="131.62" y2="62.36"/></g><g class="cls-14"><g class="cls-5"><rect class="cls-3" x="124.71" y="104.63" width="52.52" height="51.81"/></g></g><g class="cls-15"><g class="cls-5"><rect class="cls-16" x="134.39" y="118.27" width="33.17" height="27.27"/></g></g><g class="cls-5"><ellipse class="cls-17" cx="150.28" cy="130.97" rx="15.9" ry="15.68"/><path class="cls-10" d="M72.19,81.45V99.71q8.18,7.11,16.58,0"/><line class="cls-10" x1="88.47" y1="84.28" x2="96.8" y2="62.65"/></g><g class="cls-18"><g class="cls-5"><g class="cls-6"><g class="cls-19"><g class="cls-20"><path class="cls-9" d="M86,100.54h4.15A5.48,5.48,0,0,1,95.68,106v16.37H81.86V104.63A4.12,4.12,0,0,1,86,100.54Z"/></g></g></g></g></g><g class="cls-21"><g class="cls-5"><rect class="cls-3" x="76.34" y="148.01" width="33.17" height="19.09"/></g></g><g class="cls-22"><g class="cls-5"><rect class="cls-23" x="79.1" y="148.7" width="17.97" height="17.73"/></g></g></svg>