<svg id="Layer_1" data-name="Layer 1" xmlns="http://www.w3.org/2000/svg" xmlns:xlink="http://www.w3.org/1999/xlink" viewBox="0 0 233.78 216.13"><defs><style>.cls-1,.cls-17,.cls-2,.cls-8,.cls-9{fill:none;}.cls-1{clip-rule:evenodd;}.cls-3{clip-path:url(#clip-path);}.cls-4{clip-path:url(#clip-path-2);}.cls-5{isolation:isolate;}.cls-6{clip-path:url(#clip-path-3);}.cls-7{clip-path:url(#clip-path-4);}.cls-17,.cls-8,.cls-9{stroke:#3ba07a;stroke-miterlimit:10;}.cls-8{stroke-width:3.98px;}.cls-9{stroke-width:1.99px;}.cls-10{clip-path:url(#clip-path-6);}.cls-11{clip-path:url(#clip-path-8);}.cls-12{clip-path:url(#clip-path-9);}.cls-13{clip-path:url(#clip-path-11);}.cls-14{fill:#fff;}.cls-15{clip-path:url(#clip-path-13);}.cls-16{fill:#3ba07a;}.cls-17{stroke-width:1.59px;}.cls-18{clip-path:url(#clip-path-16);}.cls-19{clip-path:url(#clip-path-18);}.cls-20{clip-path:url(#clip-path-19);}.cls-21{clip-path:url(#clip-path-20);}.cls-22{clip-path:url(#clip-path-22);}</style><clipPath id="clip-path"><path class="cls-1" d="M61.11,128.18h97a3.48,3.48,0,0,1,3.47,3.47v43.46a3.48,3.48,0,0,1-3.47,3.47h-97a3.47,3.47,0,0,1-3.44-3.47V131.65A3.46,3.46,0,0,1,61.11,128.18Z"/></clipPath><clipPath id="clip-path-2"><rect class="cls-2" x="56.19" y="51.55" width="126.19" height="128.2"/></clipPath><clipPath id="clip-path-3"><rect class="cls-2" x="55.92" y="127.68" width="106.82" height="52.32"/></clipPath><clipPath id="clip-path-4"><rect class="cls-2" x="57.67" y="127.86" width="103.92" height="52.14"/></clipPath><clipPath id="clip-path-6"><path class="cls-1" d="M137.32,103.84h5.22a6.94,6.94,0,0,1,6.91,7v20.85H132.14V109.06A5.21,5.21,0,0,1,137.32,103.84Z"/></clipPath><clipPath id="clip-path-8"><rect class="cls-2" x="130.04" y="103.7" width="19.62" height="28.34"/></clipPath><clipPath id="clip-path-9"><rect class="cls-2" x="132.14" y="103.7" width="17.32" height="28.34"/></clipPath><clipPath id="clip-path-11"><path class="cls-1" d="M158.12,166.41a24.33,24.33,0,1,0-24.26-24.33A24.28,24.28,0,0,0,158.12,166.41Z"/></clipPath><clipPath id="clip-path-13"><path class="cls-1" d="M166.52,135.65l-12.47,12.64L148,142.15a1.77,1.77,0,0,0-2.49,0,1.73,1.73,0,0,0,0,2.45l7.3,7.41a1.79,1.79,0,0,0,2.49,0s0,0,0,0L169,138.09a1.74,1.74,0,0,0,0-2.46,1.76,1.76,0,0,0-2.48,0"/></clipPath><clipPath id="clip-path-16"><path class="cls-1" d="M76.7,103.84h5.21a7,7,0,0,1,6.93,7v20.85H71.51V109.06A5.21,5.21,0,0,1,76.7,103.84Z"/></clipPath><clipPath id="clip-path-18"><rect class="cls-2" x="71.18" y="103.7" width="19.62" height="28.34"/></clipPath><clipPath id="clip-path-19"><rect class="cls-2" x="71.51" y="103.7" width="17.32" height="28.34"/></clipPath><clipPath id="clip-path-20"><rect class="cls-2" x="73.25" y="173.05" width="24.24" height="6.95"/></clipPath><clipPath id="clip-path-22"><path class="cls-1" d="M79.32,179.13a2.61,2.61,0,1,0-2.62-2.6A2.61,2.61,0,0,0,79.32,179.13Z"/></clipPath></defs><title>icon design system</title><g class="cls-3"><g class="cls-4"><g class="cls-5"><g class="cls-6"><g class="cls-7"><path class="cls-8" d="M61.13,128.18h97a3.46,3.46,0,0,1,3.46,3.47v43.46a3.46,3.46,0,0,1-3.46,3.47h-97a3.46,3.46,0,0,1-3.46-3.47V131.65A3.46,3.46,0,0,1,61.13,128.18Z"/></g></g></g></g></g><g class="cls-4"><path class="cls-9" d="M73.07,55.18h73a3.46,3.46,0,0,1,3.12,2L159.2,78a3.48,3.48,0,0,1-1.62,4.64,3.44,3.44,0,0,1-1.51.34L60.41,83a1.74,1.74,0,0,1-1.56-2.49L70,57.15A3.46,3.46,0,0,1,73.07,55.18Z"/><path class="cls-9" d="M80.17,81.25v21.82q9.39,8.5,19,0"/><path class="cls-9" d="M99.22,81.25v21.82q10.26,8.5,20.78,0"/><path class="cls-9" d="M120,81.25v21.82q10.24,8.5,20.78,0"/><path class="cls-9" d="M140.79,81.25v21.82q9.41,8.5,19.05,0"/><line class="cls-9" x1="158.99" y1="105.54" x2="158.99" y2="81.25"/></g><g class="cls-10"><g class="cls-4"><g class="cls-5"><g class="cls-11"><g class="cls-12"><path class="cls-8" d="M137.33,103.84h5.2a7,7,0,0,1,6.93,7v20.85H132.14V109.06A5.2,5.2,0,0,1,137.33,103.84Z"/></g></g></g></g></g><g class="cls-4"><line class="cls-9" x1="100.96" y1="82.98" x2="106.16" y2="56.91"/><line class="cls-9" x1="121.75" y1="82.98" x2="120.02" y2="56.91"/><line class="cls-9" x1="140.79" y1="82.99" x2="133.86" y2="55.18"/></g><g class="cls-13"><g class="cls-4"><rect class="cls-14" x="125.2" y="109.06" width="65.82" height="66.05"/></g></g><g class="cls-15"><g class="cls-4"><rect class="cls-16" x="136.32" y="126.44" width="41.86" height="34.76"/></g></g><g class="cls-4"><ellipse class="cls-17" cx="157.24" cy="142.63" rx="19.92" ry="19.99"/><path class="cls-9" d="M59.39,79.51v23.27q10.26,9.07,20.78,0"/><line class="cls-9" x1="79.79" y1="83.11" x2="90.23" y2="55.54"/></g><g class="cls-18"><g class="cls-4"><g class="cls-5"><g class="cls-19"><g class="cls-20"><path class="cls-8" d="M76.71,103.84H81.9a7,7,0,0,1,6.93,7v20.85H71.51V109.06A5.21,5.21,0,0,1,76.71,103.84Z"/></g></g></g></g></g><g class="cls-21"><g class="cls-4"><rect class="cls-14" x="64.58" y="164.36" width="41.57" height="24.33"/></g></g><g class="cls-22"><g class="cls-4"><rect class="cls-16" x="68.04" y="165.23" width="22.52" height="22.6"/></g></g></svg>