<svg id="Layer_1" data-name="Layer 1" xmlns="http://www.w3.org/2000/svg" xmlns:xlink="http://www.w3.org/1999/xlink" viewBox="0 0 233.78 216.13"><defs><style>.cls-1,.cls-2{fill:none;}.cls-1{clip-rule:evenodd;}.cls-3{fill:#16103e;}.cls-4{clip-path:url(#clip-path);}.cls-5{clip-path:url(#clip-path-2);}.cls-6{fill:#3ba07a;}.cls-7{clip-path:url(#clip-path-3);}.cls-8{isolation:isolate;}.cls-9{clip-path:url(#clip-path-5);}.cls-10{clip-path:url(#clip-path-6);}.cls-11{clip-path:url(#clip-path-7);}.cls-12{fill:#fff;}.cls-13{clip-path:url(#clip-path-8);}.cls-14{clip-path:url(#clip-path-10);}.cls-15{clip-path:url(#clip-path-12);}.cls-16{clip-path:url(#clip-path-14);}.cls-17{clip-path:url(#clip-path-16);}.cls-18{clip-path:url(#clip-path-18);}.cls-19{clip-path:url(#clip-path-20);}</style><clipPath id="clip-path"><path class="cls-1" d="M158.35,71.54l-6.11-12.08a1.54,1.54,0,0,0-2.05-.67h0l-12.21,6a1.49,1.49,0,0,0-.68,2,1.52,1.52,0,0,0,2,.68l8.85-4.37L145.78,70a81.32,81.32,0,0,1-69.85,53.57l.26,3A84.37,84.37,0,0,0,148.66,71l2.47-7,4.49,8.88a1.54,1.54,0,0,0,2,.68,1.51,1.51,0,0,0,.68-2"/></clipPath><clipPath id="clip-path-2"><rect class="cls-2" x="74.99" y="58.6" width="83.56" height="97.75"/></clipPath><clipPath id="clip-path-3"><rect class="cls-2" x="69.95" y="58.63" width="91.61" height="90.58"/></clipPath><clipPath id="clip-path-5"><rect class="cls-2" x="74.99" y="86.98" width="83.56" height="56.76"/></clipPath><clipPath id="clip-path-6"><path class="cls-1" d="M88.21,131.25H77.52A1.53,1.53,0,0,0,76,132.76v9.06a1.53,1.53,0,0,0,1.53,1.51H88.21a1.53,1.53,0,0,0,1.53-1.51v-9.06A1.53,1.53,0,0,0,88.21,131.25Zm-9.16,9.06h7.63v-6H79.05Z"/></clipPath><clipPath id="clip-path-7"><rect class="cls-2" x="75.99" y="86.98" width="81.54" height="56.4"/></clipPath><clipPath id="clip-path-8"><path class="cls-1" d="M105.07,126.56H94.38a1.52,1.52,0,0,0-1.52,1.51v13.59a1.52,1.52,0,0,0,1.52,1.51h10.69a1.53,1.53,0,0,0,1.53-1.51V128.07A1.53,1.53,0,0,0,105.07,126.56Zm-9.16,13.59h7.63V129.58H95.91Z"/></clipPath><clipPath id="clip-path-10"><path class="cls-1" d="M121.87,119H111.18a1.52,1.52,0,0,0-1.53,1.51v21.14a1.52,1.52,0,0,0,1.53,1.51h10.69a1.52,1.52,0,0,0,1.52-1.51V120.52A1.52,1.52,0,0,0,121.87,119Zm-9.17,21.14h7.64V122H112.7Z"/></clipPath><clipPath id="clip-path-12"><path class="cls-1" d="M138.66,108.45H128a1.51,1.51,0,0,0-1.52,1.51v31.7a1.52,1.52,0,0,0,1.52,1.51h10.69a1.53,1.53,0,0,0,1.53-1.51V110A1.52,1.52,0,0,0,138.66,108.45Zm-9.16,31.7h7.63V111.46H129.5Z"/></clipPath><clipPath id="clip-path-14"><path class="cls-1" d="M155.46,87.31H144.77a1.53,1.53,0,0,0-1.53,1.51v52.84a1.53,1.53,0,0,0,1.53,1.51h10.69a1.52,1.52,0,0,0,1.52-1.51V88.82A1.52,1.52,0,0,0,155.46,87.31Zm-9.16,52.84h7.63V90.33H146.3Z"/></clipPath><clipPath id="clip-path-16"><path class="cls-1" d="M83.54,152.35H156a1.5,1.5,0,1,1,0,3H83.54a1.5,1.5,0,1,1,0-3Z"/></clipPath><clipPath id="clip-path-18"><rect class="cls-2" x="75.99" y="151.36" width="12.08" height="4.99"/></clipPath><clipPath id="clip-path-20"><path class="cls-1" d="M79.52,155.35a1.5,1.5,0,1,0-1.51-1.5A1.51,1.51,0,0,0,79.52,155.35Z"/></clipPath></defs><title>icon design system</title><rect class="cls-3" x="37.23" y="30.02" width="159.78" height="157.66"/><g class="cls-4"><g class="cls-5"><rect class="cls-6" x="70.9" y="53.64" width="92.65" height="77.91"/></g></g><g class="cls-7"><g class="cls-5"><g class="cls-8"><g class="cls-9"><g class="cls-10"><g class="cls-11"><rect class="cls-12" x="70.96" y="126.26" width="23.81" height="22.05"/></g></g><g class="cls-13"><g class="cls-11"><rect class="cls-12" x="87.82" y="121.57" width="23.81" height="26.58"/></g></g><g class="cls-14"><g class="cls-11"><rect class="cls-12" x="104.62" y="114.03" width="23.81" height="34.13"/></g></g><g class="cls-15"><g class="cls-11"><rect class="cls-12" x="121.41" y="103.46" width="23.81" height="44.69"/></g></g><g class="cls-16"><g class="cls-11"><rect class="cls-12" x="138.21" y="82.33" width="23.81" height="65.83"/></g></g></g></g></g></g><g class="cls-17"><g class="cls-5"><rect class="cls-12" x="77" y="147.37" width="85.57" height="12.97"/></g></g><g class="cls-18"><g class="cls-5"><rect class="cls-3" x="70.96" y="146.37" width="22.15" height="14.96"/></g></g><g class="cls-19"><g class="cls-5"><rect class="cls-12" x="72.97" y="147.37" width="13.09" height="12.97"/></g></g></svg>