<svg id="Layer_1" data-name="Layer 1" xmlns="http://www.w3.org/2000/svg" xmlns:xlink="http://www.w3.org/1999/xlink" viewBox="0 0 233.78 216.13"><defs><style>.cls-1,.cls-2{fill:none;}.cls-2{clip-rule:evenodd;}.cls-3{clip-path:url(#clip-path);}.cls-4{clip-path:url(#clip-path-2);}.cls-5{fill:#fff;}.cls-6{clip-path:url(#clip-path-3);}.cls-7{clip-path:url(#clip-path-5);}.cls-8{clip-path:url(#clip-path-7);}.cls-9{clip-path:url(#clip-path-9);}.cls-10{clip-path:url(#clip-path-11);}.cls-11{clip-path:url(#clip-path-13);}.cls-12{clip-path:url(#clip-path-15);}.cls-13{clip-path:url(#clip-path-17);}.cls-14{clip-path:url(#clip-path-19);}.cls-15{clip-path:url(#clip-path-21);}</style><clipPath id="clip-path"><rect class="cls-1" x="57.97" y="49.69" width="8" height="26.81"/></clipPath><clipPath id="clip-path-2"><rect class="cls-1" x="50.3" y="33.92" width="131.56" height="148.24"/></clipPath><clipPath id="clip-path-3"><path class="cls-2" d="M182.63,54.38,172.9,35.29a2.42,2.42,0,0,0-3.24-1.07h0l-19.42,9.55a2.36,2.36,0,0,0-1.09,3.2A2.44,2.44,0,0,0,152.37,48l14.08-6.91L162.61,51.9c-16.89,47.24-60.38,80.38-111.15,84.7l.41,4.78c52.69-4.49,97.82-38.88,115.34-87.9l3.91-11,7.15,14.05a2.46,2.46,0,0,0,3.27,1.07,2.39,2.39,0,0,0,1.09-3.21"/></clipPath><clipPath id="clip-path-5"><path class="cls-2" d="M51.5,136.58c-.92,2-.78,3.54.37,4.73"/></clipPath><clipPath id="clip-path-7"><path class="cls-2" d="M55.55,175.85H170.92a2.37,2.37,0,1,1,0,4.73H55.55a2.37,2.37,0,1,1,0-4.73Z"/></clipPath><clipPath id="clip-path-9"><path class="cls-2" d="M75.26,147.66H60.13A2.14,2.14,0,0,0,58,149.78v12.77a2.14,2.14,0,0,0,2.16,2.13H75.26a2.14,2.14,0,0,0,2.16-2.13V149.78A2.14,2.14,0,0,0,75.26,147.66Zm-13,12.76H73.1v-8.51H62.29Z"/></clipPath><clipPath id="clip-path-11"><path class="cls-2" d="M99.07,141.27H83.92a2.14,2.14,0,0,0-2.16,2.13v19.15a2.14,2.14,0,0,0,2.16,2.13H99.07a2.16,2.16,0,0,0,2.16-2.13V143.4A2.16,2.16,0,0,0,99.07,141.27Zm-13,19.15H96.89V145.53H86.07Z"/></clipPath><clipPath id="clip-path-13"><path class="cls-2" d="M122.85,130.64H107.72a2.15,2.15,0,0,0-2.18,2.12v29.79a2.16,2.16,0,0,0,2.18,2.13h15.13a2.14,2.14,0,0,0,2.16-2.13V132.76A2.14,2.14,0,0,0,122.85,130.64Zm-13,29.78h10.81V134.89H109.88Z"/></clipPath><clipPath id="clip-path-15"><path class="cls-2" d="M146.64,115.75H131.51a2.14,2.14,0,0,0-2.16,2.12v44.68a2.14,2.14,0,0,0,2.16,2.13h15.13a2.17,2.17,0,0,0,2.18-2.13V117.87A2.16,2.16,0,0,0,146.64,115.75Zm-13,44.67h10.82V120H133.66Z"/></clipPath><clipPath id="clip-path-17"><path class="cls-2" d="M170.44,86H155.29a2.14,2.14,0,0,0-2.16,2.13v74.46a2.14,2.14,0,0,0,2.16,2.13h15.15a2.16,2.16,0,0,0,2.16-2.13V88.09A2.15,2.15,0,0,0,170.44,86Zm-13,74.46h10.83V90.22H157.45Z"/></clipPath><clipPath id="clip-path-19"><rect class="cls-1" x="51.54" y="174.27" width="22.43" height="7.89"/></clipPath><clipPath id="clip-path-21"><path class="cls-2" d="M57.17,180.58a2.37,2.37,0,1,0-2.4-2.36A2.38,2.38,0,0,0,57.17,180.58Z"/></clipPath></defs><title>icon design system</title><g class="cls-3"><g class="cls-4"><rect class="cls-5" x="49.95" y="41.8" width="24.03" height="42.58"/></g></g><g class="cls-6"><g class="cls-4"><rect x="43.46" y="26.08" width="147.45" height="123.18"/></g></g><g class="cls-7"><g class="cls-4"><rect x="42.89" y="128.7" width="17" height="20.5"/></g></g><g class="cls-8"><g class="cls-4"><rect x="45.16" y="167.97" width="136.18" height="20.5"/></g></g><g class="cls-9"><g class="cls-4"><rect x="49.95" y="139.77" width="35.49" height="32.79"/></g></g><g class="cls-10"><g class="cls-4"><rect x="73.74" y="133.39" width="35.49" height="39.17"/></g></g><g class="cls-11"><g class="cls-4"><rect x="97.54" y="122.75" width="35.49" height="49.81"/></g></g><g class="cls-12"><g class="cls-4"><rect x="121.33" y="107.86" width="35.49" height="64.7"/></g></g><g class="cls-13"><g class="cls-4"><rect x="145.13" y="78.08" width="35.49" height="94.48"/></g></g><g class="cls-14"><g class="cls-4"><rect class="cls-5" x="43.54" y="166.39" width="38.45" height="23.66"/></g></g><g class="cls-15"><g class="cls-4"><rect x="46.75" y="167.97" width="20.83" height="20.5"/></g></g></svg>