<svg id="Layer_1" data-name="Layer 1" xmlns="http://www.w3.org/2000/svg" xmlns:xlink="http://www.w3.org/1999/xlink" viewBox="0 0 233.78 216.13"><defs><style>.cls-1,.cls-12,.cls-2,.cls-26,.cls-29,.cls-3,.cls-30{fill:none;}.cls-2{clip-rule:evenodd;}.cls-3{fill-rule:evenodd;}.cls-4{clip-path:url(#clip-path);}.cls-5{fill:#16103e;}.cls-6{clip-path:url(#clip-path-2);}.cls-7{clip-path:url(#clip-path-3);}.cls-8{isolation:isolate;}.cls-9{clip-path:url(#clip-path-4);}.cls-10{clip-path:url(#clip-path-6);}.cls-11{fill:#3ba07a;}.cls-12,.cls-26,.cls-30{stroke:#16103e;}.cls-12,.cls-29,.cls-30{stroke-miterlimit:10;}.cls-12{stroke-width:3.37px;}.cls-13{clip-path:url(#clip-path-8);}.cls-14{clip-path:url(#clip-path-10);}.cls-15{clip-path:url(#clip-path-11);}.cls-16{clip-path:url(#clip-path-12);}.cls-17{clip-path:url(#clip-path-14);}.cls-18{clip-path:url(#clip-path-15);}.cls-19{clip-path:url(#clip-path-16);}.cls-20{clip-path:url(#clip-path-18);}.cls-21{clip-path:url(#clip-path-19);}.cls-22{clip-path:url(#clip-path-20);}.cls-23{clip-path:url(#clip-path-22);}.cls-24{clip-path:url(#clip-path-24);}.cls-25{clip-path:url(#clip-path-26);}.cls-26,.cls-30{stroke-linecap:round;}.cls-26{stroke-linejoin:round;stroke-width:1.69px;}.cls-27{clip-path:url(#clip-path-29);}.cls-28{clip-path:url(#clip-path-31);}.cls-29{stroke:#3ba07a;}.cls-29,.cls-30{stroke-width:1.35px;}.cls-31{clip-path:url(#clip-path-34);}.cls-32{clip-path:url(#clip-path-36);}</style><clipPath id="clip-path"><rect class="cls-1" x="30.98" y="21.19" width="178.25" height="175.94"/></clipPath><clipPath id="clip-path-2"><path class="cls-2" d="M63.09,88.86H166.4a3,3,0,0,1,3,2.93v67.29a3,3,0,0,1-3,2.93H63.09a3,3,0,0,1-3-2.93V91.79A3,3,0,0,1,63.09,88.86Z"/></clipPath><clipPath id="clip-path-3"><rect class="cls-1" x="57.64" y="50.83" width="141.2" height="111.18"/></clipPath><clipPath id="clip-path-4"><rect class="cls-1" x="59.32" y="87.89" width="111.18" height="74.12"/></clipPath><clipPath id="clip-path-6"><rect class="cls-1" x="60.08" y="88.87" width="110.41" height="73.14"/></clipPath><clipPath id="clip-path-8"><path class="cls-2" d="M98.51,112.27H131a3,3,0,0,1,3,2.93v43.88a3,3,0,0,1-3,2.93H98.51a3,3,0,0,1-3-2.93V115.2A3,3,0,0,1,98.51,112.27Z"/></clipPath><clipPath id="clip-path-10"><rect class="cls-1" x="94.2" y="111.87" width="41.42" height="50.14"/></clipPath><clipPath id="clip-path-11"><rect class="cls-1" x="95.5" y="112.27" width="39.85" height="49.74"/></clipPath><clipPath id="clip-path-12"><path class="cls-2" d="M139.84,97.64h16.22a3,3,0,0,1,3,2.93V115.2a3,3,0,0,1-3,2.92H139.84a2.94,2.94,0,0,1-3-2.92V100.57A3,3,0,0,1,139.84,97.64Z"/></clipPath><clipPath id="clip-path-14"><rect class="cls-1" x="135.62" y="96.61" width="23.98" height="21.8"/></clipPath><clipPath id="clip-path-15"><rect class="cls-1" x="136.84" y="97.64" width="22.75" height="20.48"/></clipPath><clipPath id="clip-path-16"><path class="cls-2" d="M74.88,97.64H91.12a3,3,0,0,1,3,2.93V115.2a3,3,0,0,1-3,2.92H74.88a2.94,2.94,0,0,1-2.94-2.92V100.57A2.94,2.94,0,0,1,74.88,97.64Z"/></clipPath><clipPath id="clip-path-18"><rect class="cls-1" x="70.22" y="96.61" width="23.98" height="21.8"/></clipPath><clipPath id="clip-path-19"><rect class="cls-1" x="71.89" y="97.64" width="22.3" height="20.48"/></clipPath><clipPath id="clip-path-20"><path class="cls-2" d="M60.08,72.77H169.32a2.93,2.93,0,0,1,2.94,2.93V90.33a2.93,2.93,0,0,1-2.94,2.93H60.08a2.94,2.94,0,0,1-2.94-2.93V75.7A2.94,2.94,0,0,1,60.08,72.77Z"/></clipPath><clipPath id="clip-path-22"><rect class="cls-1" x="57.14" y="72.63" width="115.54" height="21.8"/></clipPath><clipPath id="clip-path-24"><rect class="cls-1" x="57.14" y="72.77" width="115.13" height="20.48"/></clipPath><clipPath id="clip-path-26"><polyline class="cls-2" points="60.12 72.77 75.14 53.76 154.34 53.76 169.36 72.77"/></clipPath><clipPath id="clip-path-29"><path class="cls-2" d="M175.71,157.62A22.68,22.68,0,1,0,153.08,135,22.63,22.63,0,0,0,175.71,157.62Z"/></clipPath><clipPath id="clip-path-31"><path class="cls-2" d="M175,152.5A17.56,17.56,0,1,0,157.5,135,17.54,17.54,0,0,0,175,152.5Z"/></clipPath><clipPath id="clip-path-34"><rect class="cls-1" x="76.32" y="71.31" width="20.67" height="5.85"/></clipPath><clipPath id="clip-path-36"><path class="cls-2" d="M81.49,76.43a2.2,2.2,0,1,0-2.21-2.19A2.21,2.21,0,0,0,81.49,76.43Z"/></clipPath></defs><title>icon design system</title><g class="cls-4"><rect class="cls-5" x="33.16" y="23.37" width="173.88" height="171.58"/></g><g class="cls-6"><g class="cls-7"><g class="cls-8"><g class="cls-9"><g class="cls-6"><g class="cls-10"><path class="cls-11" d="M63.09,88.86H166.4a3,3,0,0,1,3,2.93v67.29a3,3,0,0,1-3,2.93H63.09a3,3,0,0,1-3-2.93V91.79A3,3,0,0,1,63.09,88.86Z"/></g></g><g class="cls-10"><path class="cls-12" d="M63.07,88.86H166.4a2.94,2.94,0,0,1,2.95,2.93v67.29A2.94,2.94,0,0,1,166.4,162H63.07a2.94,2.94,0,0,1-3-2.93V91.79A2.94,2.94,0,0,1,63.07,88.86Z"/></g></g></g></g></g><g class="cls-13"><g class="cls-7"><g class="cls-8"><g class="cls-14"><g class="cls-15"><path class="cls-12" d="M98.5,112.27H131a2.94,2.94,0,0,1,2.95,2.93v43.88A2.94,2.94,0,0,1,131,162H98.5a2.94,2.94,0,0,1-3-2.93V115.2A2.94,2.94,0,0,1,98.5,112.27Z"/></g></g></g></g></g><g class="cls-16"><g class="cls-7"><g class="cls-8"><g class="cls-17"><g class="cls-18"><path class="cls-12" d="M139.83,97.64h16.24a2.94,2.94,0,0,1,3,2.93V115.2a2.94,2.94,0,0,1-3,2.92H139.83a2.94,2.94,0,0,1-3-2.92V100.57A2.94,2.94,0,0,1,139.83,97.64Z"/></g></g></g></g></g><g class="cls-19"><g class="cls-7"><g class="cls-8"><g class="cls-20"><g class="cls-21"><path class="cls-12" d="M74.89,97.64H91.13a2.94,2.94,0,0,1,3,2.93V115.2a2.94,2.94,0,0,1-3,2.92H74.89a2.94,2.94,0,0,1-3-2.92V100.57A2.94,2.94,0,0,1,74.89,97.64Z"/></g></g></g></g></g><g class="cls-22"><g class="cls-7"><g class="cls-8"><g class="cls-23"><g class="cls-22"><g class="cls-24"><path class="cls-11" d="M60.08,72.77H169.32a2.93,2.93,0,0,1,2.94,2.93V90.33a2.93,2.93,0,0,1-2.94,2.93H60.08a2.94,2.94,0,0,1-2.94-2.93V75.7A2.94,2.94,0,0,1,60.08,72.77Z"/></g></g><g class="cls-24"><path class="cls-12" d="M60.09,72.77H169.31a3,3,0,0,1,3,2.93V90.33a2.94,2.94,0,0,1-3,2.92H60.09a2.94,2.94,0,0,1-3-2.92V75.7A2.94,2.94,0,0,1,60.09,72.77Z"/></g></g></g></g></g><g class="cls-25"><g class="cls-7"><rect class="cls-11" x="52.75" y="46.44" width="123.99" height="33.65"/></g></g><g class="cls-7"><polyline class="cls-26" points="60.12 72.77 75.13 53.76 154.34 53.76 169.35 72.77"/></g><g class="cls-27"><g class="cls-7"><rect class="cls-5" x="145.69" y="104.96" width="60" height="59.98"/></g></g><g class="cls-28"><g class="cls-7"><rect class="cls-11" x="150.13" y="110.08" width="49.78" height="49.74"/></g></g><g class="cls-7"><path class="cls-29" d="M175,152.5A17.56,17.56,0,1,0,157.5,135,17.53,17.53,0,0,0,175,152.5Z"/><polyline class="cls-30" points="163.78 134.52 171.52 141.53 184.44 129.83"/></g><g class="cls-31"><g class="cls-7"><rect class="cls-11" x="68.95" y="64" width="35.42" height="20.48"/></g></g><g class="cls-32"><g class="cls-7"><rect class="cls-5" x="71.89" y="64.73" width="19.19" height="19.02"/></g></g></svg>