<svg id="Layer_1" data-name="Layer 1" xmlns="http://www.w3.org/2000/svg" xmlns:xlink="http://www.w3.org/1999/xlink" viewBox="0 0 233.78 216.13"><defs><style>.cls-1,.cls-2,.cls-21,.cls-26,.cls-27,.cls-8{fill:none;}.cls-1{clip-rule:evenodd;}.cls-3{clip-path:url(#clip-path);}.cls-4{clip-path:url(#clip-path-2);}.cls-5{isolation:isolate;}.cls-6{clip-path:url(#clip-path-3);}.cls-7{clip-path:url(#clip-path-4);}.cls-21,.cls-26,.cls-27,.cls-8{stroke:#000;}.cls-26,.cls-27,.cls-8{stroke-miterlimit:10;}.cls-8{stroke-width:4.2px;}.cls-9{clip-path:url(#clip-path-5);}.cls-10{clip-path:url(#clip-path-7);}.cls-11{clip-path:url(#clip-path-8);}.cls-12{clip-path:url(#clip-path-9);}.cls-13{clip-path:url(#clip-path-11);}.cls-14{clip-path:url(#clip-path-12);}.cls-15{clip-path:url(#clip-path-13);}.cls-16{clip-path:url(#clip-path-15);}.cls-17{clip-path:url(#clip-path-16);}.cls-18{clip-path:url(#clip-path-17);}.cls-19{clip-path:url(#clip-path-19);}.cls-20{clip-path:url(#clip-path-20);}.cls-21,.cls-27{stroke-linecap:round;}.cls-21{stroke-linejoin:round;stroke-width:2.1px;}.cls-22{clip-path:url(#clip-path-22);}.cls-23{fill:#fff;}.cls-24{clip-path:url(#clip-path-24);}.cls-25{clip-path:url(#clip-path-26);}.cls-26,.cls-27{stroke-width:1.68px;}</style><clipPath id="clip-path"><path class="cls-1" d="M39.17,82.8h128a3.66,3.66,0,0,1,3.64,3.67V170.7a3.66,3.66,0,0,1-3.64,3.66h-128a3.66,3.66,0,0,1-3.66-3.66V86.47A3.66,3.66,0,0,1,39.17,82.8Z"/></clipPath><clipPath id="clip-path-2"><rect class="cls-2" x="32.17" y="39.93" width="169.72" height="136.26"/></clipPath><clipPath id="clip-path-3"><rect class="cls-2" x="34.02" y="82.45" width="137.34" height="93.74"/></clipPath><clipPath id="clip-path-4"><rect class="cls-2" x="35.51" y="82.8" width="135.86" height="91.56"/></clipPath><clipPath id="clip-path-5"><rect class="cls-2" x="81.26" y="112.1" width="45.71" height="62.26" rx="3.66"/></clipPath><clipPath id="clip-path-7"><rect class="cls-2" x="79.8" y="110.79" width="47.96" height="65.4"/></clipPath><clipPath id="clip-path-8"><rect class="cls-2" x="81.22" y="112.1" width="46.55" height="62.26"/></clipPath><clipPath id="clip-path-9"><path class="cls-1" d="M134.28,97.45H154.4a3.68,3.68,0,0,1,3.67,3.67v18.31a3.68,3.68,0,0,1-3.67,3.66H134.28a3.67,3.67,0,0,1-3.66-3.66V101.12A3.68,3.68,0,0,1,134.28,97.45Z"/></clipPath><clipPath id="clip-path-11"><rect class="cls-2" x="129.94" y="95.53" width="28.34" height="28.34"/></clipPath><clipPath id="clip-path-12"><rect class="cls-2" x="130.58" y="97.45" width="27.71" height="25.64"/></clipPath><clipPath id="clip-path-13"><rect class="cls-2" x="50.18" y="97.45" width="27.42" height="25.64" rx="3.66"/></clipPath><clipPath id="clip-path-15"><rect class="cls-2" x="49.28" y="95.53" width="28.34" height="28.34"/></clipPath><clipPath id="clip-path-16"><rect class="cls-2" x="50.13" y="97.45" width="27.5" height="25.64"/></clipPath><clipPath id="clip-path-17"><path class="cls-1" d="M35.55,64.49H170.86a3.65,3.65,0,0,1,3.64,3.66V82.8a3.65,3.65,0,0,1-3.64,3.67H35.55a3.67,3.67,0,0,1-3.66-3.67V68.15A3.67,3.67,0,0,1,35.55,64.49Z"/></clipPath><clipPath id="clip-path-19"><rect class="cls-2" x="31.84" y="62.83" width="143.88" height="23.98"/></clipPath><clipPath id="clip-path-20"><rect class="cls-2" x="31.84" y="64.49" width="143.88" height="21.97"/></clipPath><clipPath id="clip-path-22"><rect class="cls-2" x="51.05" y="168.87" width="25.59" height="7.32"/></clipPath><clipPath id="clip-path-24"><circle class="cls-2" cx="57.44" cy="172.53" r="2.75"/></clipPath><clipPath id="clip-path-26"><path class="cls-1" d="M176,167A25.64,25.64,0,1,0,150.7,141.4,25.46,25.46,0,0,0,176,167Z"/></clipPath></defs><title>icon design system</title><g class="cls-3"><g class="cls-4"><g class="cls-5"><g class="cls-6"><g class="cls-7"><path class="cls-8" d="M39.16,82.8h128a3.66,3.66,0,0,1,3.66,3.67V170.7a3.66,3.66,0,0,1-3.66,3.66h-128a3.65,3.65,0,0,1-3.65-3.66V86.47A3.66,3.66,0,0,1,39.16,82.8Z"/></g></g></g></g></g><g class="cls-9"><g class="cls-4"><g class="cls-5"><g class="cls-10"><g class="cls-11"><path class="cls-8" d="M84.92,112.1h38.4a3.66,3.66,0,0,1,3.65,3.67V170.7a3.65,3.65,0,0,1-3.65,3.66H84.92a3.66,3.66,0,0,1-3.66-3.66V115.77A3.66,3.66,0,0,1,84.92,112.1Z"/></g></g></g></g></g><g class="cls-12"><g class="cls-4"><g class="cls-5"><g class="cls-13"><g class="cls-14"><path class="cls-8" d="M134.28,97.45h20.11a3.66,3.66,0,0,1,3.66,3.67v18.31a3.66,3.66,0,0,1-3.66,3.66H134.28a3.66,3.66,0,0,1-3.66-3.66V101.12A3.66,3.66,0,0,1,134.28,97.45Z"/></g></g></g></g></g><g class="cls-15"><g class="cls-4"><g class="cls-5"><g class="cls-16"><g class="cls-17"><path class="cls-8" d="M53.83,97.45H74a3.66,3.66,0,0,1,3.65,3.67v18.31A3.65,3.65,0,0,1,74,123.09H53.83a3.65,3.65,0,0,1-3.65-3.66V101.12A3.66,3.66,0,0,1,53.83,97.45Z"/></g></g></g></g></g><g class="cls-18"><g class="cls-4"><g class="cls-5"><g class="cls-19"><g class="cls-20"><path class="cls-8" d="M35.54,64.49h135.3a3.66,3.66,0,0,1,3.66,3.66V82.8a3.66,3.66,0,0,1-3.66,3.67H35.54a3.66,3.66,0,0,1-3.65-3.67V68.15A3.65,3.65,0,0,1,35.54,64.49Z"/></g></g></g></g></g><g class="cls-4"><polyline class="cls-21" points="35.55 66.32 54.14 42.52 152.26 42.52 170.85 66.32"/></g><g class="cls-22"><g class="cls-4"><rect class="cls-23" x="41.89" y="159.71" width="43.88" height="25.64"/></g></g><g class="cls-24"><g class="cls-4"><rect x="45.56" y="160.63" width="23.77" height="23.81"/></g></g><g class="cls-25"><g class="cls-4"><rect class="cls-23" x="141.54" y="106.61" width="68.9" height="69.59"/></g></g><g class="cls-4"><ellipse class="cls-26" cx="177.03" cy="141.4" rx="21.69" ry="21.97"/><polyline class="cls-27" points="165.67 141.05 173.94 148.73 187.73 135.91"/></g></svg>